<?xml version="1.0" encoding="UTF-8" standalone="no"?>
<svg
   xmlns:dc="http://purl.org/dc/elements/1.1/"
   xmlns:cc="http://creativecommons.org/ns#"
   xmlns:rdf="http://www.w3.org/1999/02/22-rdf-syntax-ns#"
   xmlns:svg="http://www.w3.org/2000/svg"
   xmlns="http://www.w3.org/2000/svg"
   xmlns:sodipodi="http://sodipodi.sourceforge.net/DTD/sodipodi-0.dtd"
   xmlns:inkscape="http://www.inkscape.org/namespaces/inkscape"
   version="1.1"
   width="190.7mm"
   height="144.7mm"
   viewBox=" 0 0 675.709217 512.716957"
   id="svg4628"
   sodipodi:docname="caseplans.svg"
   inkscape:version="0.92.2 2405546, 2018-03-11">
  <metadata
     id="metadata4634">
    <rdf:RDF>
      <cc:Work
         rdf:about="">
        <dc:format>image/svg+xml</dc:format>
        <dc:type
           rdf:resource="http://purl.org/dc/dcmitype/StillImage" />
        <dc:title></dc:title>
      </cc:Work>
    </rdf:RDF>
  </metadata>
  <defs
     id="defs4632" />
  <sodipodi:namedview
     pagecolor="#ffffff"
     bordercolor="#666666"
     borderopacity="1"
     objecttolerance="10"
     gridtolerance="10"
     guidetolerance="10"
     inkscape:pageopacity="0"
     inkscape:pageshadow="2"
     inkscape:window-width="1920"
     inkscape:window-height="1039"
     id="namedview4630"
     showgrid="false"
     inkscape:document-units="mm"
     inkscape:zoom="1.9548921"
     inkscape:cx="360.37795"
     inkscape:cy="320.49174"
     inkscape:window-x="0"
     inkscape:window-y="18"
     inkscape:window-maximized="0"
     inkscape:current-layer="svg4628" />
  <!-- Front-->
  <g
     transform="translate(22.5000185, 22.5000185) "
     id="g4606">
    <path
       style="fill:none;stroke:#000000;stroke-width:0.90000075"
       d="M 10.62993,0 H 35.4331 v 10.62993 h 12.224419 v 7.440951 h -4.429137 v 8.858275 h 4.429137 v 8.858275 H 58.64178 v -8.858275 h 4.429138 V 18.070881 H 58.64178 V 10.62993 H 70.8662 V 0 h 21.25986 v 10.62993 h 12.22442 v 7.440951 h -4.429138 v 8.858275 h 4.429138 v 8.858275 h 10.98426 v -8.858275 h 4.42914 v -8.858275 h -4.42914 V 10.62993 h 12.22442 V 0 h 24.80317 v 35.4331 h 10.62993 v 11.161426 h -13.11025 v 13.110247 h 13.11025 V 70.8662 h -10.62993 v 21.25986 h 10.62993 v 11.16143 h -13.11025 v 13.11024 h 13.11025 v 11.16143 h -10.62993 v 35.4331 h -24.80317 v -10.62993 h -12.22442 v -7.44095 h 4.42914 v -8.85828 h -4.42914 v -8.85827 h -10.98426 v 8.85827 h -4.429138 v 8.85828 h 4.429138 v 7.44095 H 92.12606 v 10.62993 H 70.8662 V 152.36233 H 58.64178 v -7.44095 h 4.429138 V 136.0631 H 58.64178 v -8.85827 H 47.657519 v 8.85827 h -4.429137 v 8.85828 h 4.429137 v 7.44095 H 35.4331 v 10.62993 H 10.62993 v -35.4331 H 0 V 116.39773 H 13.110247 V 103.28749 H 0 V 92.12606 H 10.62993 V 70.8662 H 0 V 59.704773 H 13.110247 V 46.594526 H 0 V 35.4331 h 10.62993 z"
       id="polygon4604" />
  </g>
  <!-- Back-->
  <g
     transform="translate(185.4922785, 22.5000185) "
     id="g4610">
    <path
       style="fill:none;stroke:#000000;stroke-width:0.90000075"
       d="M 10.62993,0 H 35.4331 v 10.62993 h 12.224419 v 7.440951 h -4.429137 v 8.858275 h 4.429137 v 8.858275 H 58.64178 v -8.858275 h 4.429138 V 18.070881 H 58.64178 V 10.62993 H 70.8662 V 0 h 21.25986 v 10.62993 h 12.22442 v 7.440951 h -4.429138 v 8.858275 h 4.429138 v 8.858275 h 10.98426 v -8.858275 h 4.42914 v -8.858275 h -4.42914 V 10.62993 h 12.22442 V 0 h 24.80317 v 35.4331 h 10.62993 v 11.161426 h -13.11025 v 13.110247 h 13.11025 V 70.8662 h -10.62993 v 21.25986 h 10.62993 v 11.16143 h -13.11025 v 13.11024 h 13.11025 v 11.16143 h -10.62993 v 35.4331 h -24.80317 v -10.62993 h -12.22442 v -7.44095 h 4.42914 v -8.85828 h -4.42914 v -8.85827 h -10.98426 v 8.85827 h -4.429138 v 8.85828 h 4.429138 v 7.44095 H 92.12606 v 10.62993 H 70.8662 V 152.36233 H 58.64178 v -7.44095 h 4.429138 V 136.0631 H 58.64178 v -8.85827 H 47.657519 v 8.85827 h -4.429137 v 8.85828 h 4.429137 v 7.44095 H 35.4331 v 10.62993 H 10.62993 v -35.4331 H 0 V 116.39773 H 13.110247 V 103.28749 H 0 V 92.12606 H 10.62993 V 70.8662 H 0 V 59.704773 H 13.110247 V 46.594526 H 0 V 35.4331 h 10.62993 z"
       id="polygon4608" />
  </g>
  <!-- Left-->
  <g
     transform="translate(348.4845385, 22.5000185) "
     id="g4614">
    <path
       style="fill:none;stroke:#000000;stroke-width:0.90000075"
       d="M 0,10.62993 H 28.34648 V 0 h 7.618116 V 13.110247 H 49.074843 V 0 H 56.69296 V 10.62993 H 77.95282 V 0 h 21.25986 v 10.62993 h 21.25986 V 0 h 21.25986 v 10.62993 h 21.25986 V 0 h 21.25986 v 10.62993 h 21.25986 V 0 h 21.25986 V 10.62993 H 248.0317 V 0 h 7.61812 v 13.110247 h 13.11024 V 0 h 7.61812 v 10.62993 h 28.34648 V 35.4331 h -10.62993 v 12.224419 h -7.44095 v -4.429137 h -8.85828 v 4.429137 h -8.85827 V 58.64178 h 8.85827 v 4.429138 h 8.85828 V 58.64178 h 7.44095 V 70.8662 h 10.62993 v 21.25986 h -10.62993 v 12.22442 h -7.44095 v -4.429138 h -8.85828 v 4.429138 h -8.85827 v 10.98426 h 8.85827 v 4.42914 h 8.85828 v -4.42914 h 7.44095 v 12.22442 h 10.62993 v 24.80317 h -28.34648 v 10.62993 h -7.61812 v -13.11025 h -13.11024 v 13.11025 h -7.61812 v -10.62993 h -21.25986 v 10.62993 h -21.25986 v -10.62993 h -21.25986 v 10.62993 H 162.99226 V 152.36233 H 141.7324 v 10.62993 H 120.47254 V 152.36233 H 99.21268 v 10.62993 H 77.95282 V 152.36233 H 56.69296 v 10.62993 H 49.074843 V 149.88201 H 35.964596 v 13.11025 H 28.34648 V 152.36233 H 0 v -24.80317 h 10.62993 v -12.22442 h 7.440951 v 4.42914 h 8.858275 v -4.42914 h 8.858275 v -10.98426 h -8.858275 v -4.429138 h -8.858275 v 4.429138 H 10.62993 V 92.12606 H 0 V 70.8662 H 10.62993 V 58.64178 h 7.440951 v 4.429138 h 8.858275 V 58.64178 h 8.858275 V 47.657519 h -8.858275 v -4.429137 h -8.858275 v 4.429137 H 10.62993 V 35.4331 H 0 Z"
       id="polygon4612" />
  </g>
  <!-- Right-->
  <g
     transform="translate(348.4845385, 185.4922785) "
     id="g4618">
    <path
       style="fill:none;stroke:#000000;stroke-width:0.90000075"
       d="M 0,10.62993 H 28.34648 V 0 h 7.618116 V 13.110247 H 49.074843 V 0 H 56.69296 V 10.62993 H 77.95282 V 0 h 21.25986 v 10.62993 h 21.25986 V 0 h 21.25986 v 10.62993 h 21.25986 V 0 h 21.25986 v 10.62993 h 21.25986 V 0 h 21.25986 V 10.62993 H 248.0317 V 0 h 7.61812 v 13.110247 h 13.11024 V 0 h 7.61812 v 10.62993 h 28.34648 V 35.4331 h -10.62993 v 12.224419 h -7.44095 v -4.429137 h -8.85828 v 4.429137 h -8.85827 V 58.64178 h 8.85827 v 4.429138 h 8.85828 V 58.64178 h 7.44095 V 70.8662 h 10.62993 v 21.25986 h -10.62993 v 12.22442 h -7.44095 v -4.429138 h -8.85828 v 4.429138 h -8.85827 v 10.98426 h 8.85827 v 4.42914 h 8.85828 v -4.42914 h 7.44095 v 12.22442 h 10.62993 v 24.80317 h -28.34648 v 10.62993 h -7.61812 v -13.11025 h -13.11024 v 13.11025 h -7.61812 v -10.62993 h -21.25986 v 10.62993 h -21.25986 v -10.62993 h -21.25986 v 10.62993 H 162.99226 V 152.36233 H 141.7324 v 10.62993 H 120.47254 V 152.36233 H 99.21268 v 10.62993 H 77.95282 V 152.36233 H 56.69296 v 10.62993 H 49.074843 V 149.88201 H 35.964596 v 13.11025 H 28.34648 V 152.36233 H 0 v -24.80317 h 10.62993 v -12.22442 h 7.440951 v 4.42914 h 8.858275 v -4.42914 h 8.858275 v -10.98426 h -8.858275 v -4.429138 h -8.858275 v 4.429138 H 10.62993 V 92.12606 H 0 V 70.8662 H 10.62993 V 58.64178 h 7.440951 v 4.429138 h 8.858275 V 58.64178 h 8.858275 V 47.657519 h -8.858275 v -4.429137 h -8.858275 v 4.429137 H 10.62993 V 35.4331 H 0 Z"
       id="polygon4616" />
  </g>
  <!-- Top-->
  <g
     transform="translate(22.5000185, 185.4922785) "
     id="g4622">
    <path
       style="fill:none;stroke:#000000;stroke-width:0.90000075"
       d="M 0,10.62993 H 35.4331 V 0 H 46.594526 V 13.110247 H 59.704773 V 0 H 70.8662 V 10.62993 H 92.12606 V 0 h 11.16143 v 13.110247 h 13.11024 V 0 h 11.16143 v 10.62993 h 35.4331 v 17.71655 h -10.62993 v 8.681109 h -7.44095 v -4.429137 h -8.85828 v 4.429137 h -8.85827 v 10.984262 h 8.85827 v 4.429137 h 8.85828 v -4.429137 h 7.44095 v 8.681109 h 10.62993 v 21.25986 h -10.62993 v 21.25986 h 10.62993 v 21.25986 h -10.62993 v 21.25986 h 10.62993 v 21.25986 h -10.62993 v 21.25986 h 10.62993 v 21.25986 h -10.62993 v 21.25986 h 10.62993 v 21.25986 h -10.62993 v 8.68111 h -7.44095 v -4.42914 h -8.85828 v 4.42914 h -8.85827 v 10.98426 h 8.85827 v 4.42914 h 8.85828 v -4.42914 h 7.44095 v 8.68111 h 10.62993 v 17.71655 h -35.4331 v 10.62993 h -11.16143 v -13.11025 h -13.11024 v 13.11025 H 92.12606 V 294.09473 H 70.8662 v 10.62993 H 59.704773 V 291.61441 H 46.594526 v 13.11025 H 35.4331 V 294.09473 H 0 v -17.71655 h 10.62993 v -8.68111 h 7.440951 v 4.42914 h 8.858275 v -4.42914 h 8.858275 v -10.98426 h -8.858275 v -4.42914 h -8.858275 v 4.42914 H 10.62993 V 248.0317 H 0 V 226.77184 H 10.62993 V 205.51198 H 0 V 184.25212 H 10.62993 V 162.99226 H 0 V 141.7324 H 10.62993 V 120.47254 H 0 V 99.21268 H 10.62993 V 77.95282 H 0 V 56.69296 h 10.62993 v -8.681109 h 7.440951 v 4.429137 h 8.858275 v -4.429137 h 8.858275 V 37.027589 h -8.858275 v -4.429137 h -8.858275 v 4.429137 H 10.62993 V 28.34648 H 0 Z"
       id="polygon4620" />
  </g>
  <!-- Bottom-->
  <g
     transform="translate(185.4922785, 185.4922785) "
     id="g4626">
    <path
       style="fill:none;stroke:#000000;stroke-width:0.90000075"
       d="M 0,10.62993 H 35.4331 V 0 H 46.594526 V 13.110247 H 59.704773 V 0 H 70.8662 V 10.62993 H 92.12606 V 0 h 11.16143 v 13.110247 h 13.11024 V 0 h 11.16143 v 10.62993 h 35.4331 v 17.71655 h -10.62993 v 8.681109 h -7.44095 v -4.429137 h -8.85828 v 4.429137 h -8.85827 v 10.984262 h 8.85827 v 4.429137 h 8.85828 v -4.429137 h 7.44095 v 8.681109 h 10.62993 v 21.25986 h -10.62993 v 21.25986 h 10.62993 v 21.25986 h -10.62993 v 21.25986 h 10.62993 v 21.25986 h -10.62993 v 21.25986 h 10.62993 v 21.25986 h -10.62993 v 21.25986 h 10.62993 v 21.25986 h -10.62993 v 8.68111 h -7.44095 v -4.42914 h -8.85828 v 4.42914 h -8.85827 v 10.98426 h 8.85827 v 4.42914 h 8.85828 v -4.42914 h 7.44095 v 8.68111 h 10.62993 v 17.71655 h -35.4331 v 10.62993 h -11.16143 v -13.11025 h -13.11024 v 13.11025 H 92.12606 V 294.09473 H 70.8662 v 10.62993 H 59.704773 V 291.61441 H 46.594526 v 13.11025 H 35.4331 V 294.09473 H 0 v -17.71655 h 10.62993 v -8.68111 h 7.440951 v 4.42914 h 8.858275 v -4.42914 h 8.858275 v -10.98426 h -8.858275 v -4.42914 h -8.858275 v 4.42914 H 10.62993 V 248.0317 H 0 V 226.77184 H 10.62993 V 205.51198 H 0 V 184.25212 H 10.62993 V 162.99226 H 0 V 141.7324 H 10.62993 V 120.47254 H 0 V 99.21268 H 10.62993 V 77.95282 H 0 V 56.69296 h 10.62993 v -8.681109 h 7.440951 v 4.429137 h 8.858275 v -4.429137 h 8.858275 V 37.027589 h -8.858275 v -4.429137 h -8.858275 v 4.429137 H 10.62993 V 28.34648 H 0 Z"
       id="polygon4624" />
  </g>
  <path
     style="fill:none;stroke:#000000;stroke-width:0.90584725;stroke-opacity:1"
     d="m 275.39375,103.99615 a 8.4053516,8.4053516 0 0 1 -8.40535,8.40535 8.4053516,8.4053516 0 0 1 -8.40535,-8.40535 8.4053516,8.4053516 0 0 1 8.40535,-8.405354 8.4053516,8.4053516 0 0 1 8.40535,8.405354 z"
     id="path4636" />
  <path
     style="fill:none;stroke:#000000;stroke-width:0.40080962;stroke-opacity:1"
     d="m 432.51895,90.712425 a 5.1145601,5.1145601 0 0 1 -5.11456,5.11456 5.1145601,5.1145601 0 0 1 -5.11456,-5.11456 5.1145601,5.1145601 0 0 1 5.11456,-5.11456 5.1145601,5.1145601 0 0 1 5.11456,5.11456 z"
     id="path4638" />
  <path
     style="fill:none;stroke:#000000;stroke-width:0.40080962;stroke-opacity:1"
     d="m 466.58639,117.27988 a 5.1145601,5.1145601 0 0 1 -5.11456,5.11456 5.1145601,5.1145601 0 0 1 -5.11456,-5.11456 5.1145601,5.1145601 0 0 1 5.11456,-5.11456 5.1145601,5.1145601 0 0 1 5.11456,5.11456 z"
     id="path4638-3" />
  <path
     style="fill:none;stroke:#000000;stroke-width:0.40080962;stroke-opacity:1"
     d="m 432.51895,117.27988 a 5.1145601,5.1145601 0 0 1 -5.11456,5.11456 5.1145601,5.1145601 0 0 1 -5.11456,-5.11456 5.1145601,5.1145601 0 0 1 5.11456,-5.11456 5.1145601,5.1145601 0 0 1 5.11456,5.11456 z"
     id="path4638-6" />
  <path
     style="fill:none;stroke:#000000;stroke-width:0.40080962;stroke-opacity:1"
     d="m 466.58639,90.712425 a 5.1145601,5.1145601 0 0 1 -5.11456,5.11456 5.1145601,5.1145601 0 0 1 -5.11456,-5.11456 5.1145601,5.1145601 0 0 1 5.11456,-5.11456 5.1145601,5.1145601 0 0 1 5.11456,5.11456 z"
     id="path4638-7" />
  <path
     style="fill:none;stroke:#000000;stroke-width:0.40080962;stroke-opacity:1"
     d="m 500.65384,90.712425 a 5.1145601,5.1145601 0 0 1 -5.11456,5.11456 5.1145601,5.1145601 0 0 1 -5.11456,-5.11456 5.1145601,5.1145601 0 0 1 5.11456,-5.11456 5.1145601,5.1145601 0 0 1 5.11456,5.11456 z"
     id="path4638-5" />
  <path
     style="fill:none;stroke:#000000;stroke-width:0.40080962;stroke-opacity:1"
     d="m 500.65384,117.27988 a 5.1145601,5.1145601 0 0 1 -5.11456,5.11456 5.1145601,5.1145601 0 0 1 -5.11456,-5.11456 5.1145601,5.1145601 0 0 1 5.11456,-5.11456 5.1145601,5.1145601 0 0 1 5.11456,5.11456 z"
     id="path4638-35" />
  <g
     id="g4787"
     transform="translate(2.7538186,-1.8750015)">
    <g
       aria-label="WLAN"
       transform="rotate(-90)"
       style="font-style:normal;font-weight:normal;font-size:12.50001049px;line-height:1.25;font-family:sans-serif;letter-spacing:0px;word-spacing:0px;fill:#000000;fill-opacity:1;stroke:none;stroke-width:0.93750077"
       id="text4689-6">
      <path
         d="m -167.23264,421.61166 h 1.24512 l 1.91651,7.70264 1.9104,-7.70264 h 1.3855 l 1.91651,7.70264 1.9104,-7.70264 h 1.25122 l -2.28882,9.11255 h -1.5503 l -1.9226,-7.91016 -1.94092,7.91016 h -1.5503 z"
         style="font-size:12.50001049px;stroke-width:0.93750077"
         id="path4816" />
      <path
         d="m -154.06734,421.61166 h 1.23291 v 8.07495 h 4.43726 v 1.0376 h -5.67017 z"
         style="font-size:12.50001049px;stroke-width:0.93750077"
         id="path4818" />
      <path
         d="m -143.7707,422.82626 -1.67237,4.53491 h 3.35084 z m -0.6958,-1.2146 h 1.3977 l 3.47291,9.11255 h -1.28174 l -0.83008,-2.33765 h -4.10767 l -0.83008,2.33765 h -1.30005 z"
         style="font-size:12.50001049px;stroke-width:0.93750077"
         id="path4820" />
      <path
         d="m -138.27143,421.61166 h 1.66016 l 4.04053,7.62329 v -7.62329 h 1.19629 v 9.11255 h -1.66016 l -4.04053,-7.62329 v 7.62329 h -1.19629 z"
         style="font-size:12.50001049px;stroke-width:0.93750077"
         id="path4822" />
    </g>
    <g
       aria-label="RX"
       transform="rotate(-90)"
       style="font-style:normal;font-weight:normal;font-size:12.50001049px;line-height:1.25;font-family:sans-serif;letter-spacing:0px;word-spacing:0px;fill:#000000;fill-opacity:1;stroke:none;stroke-width:0.93750077"
       id="text4689-6-9">
      <path
         d="m -142.69038,459.00183 q 0.39673,0.13427 0.76904,0.57373 0.37842,0.43945 0.75684,1.2085 l 1.25122,2.49023 h -1.32446 l -1.16577,-2.33765 q -0.45166,-0.91552 -0.87891,-1.2146 -0.42114,-0.29907 -1.15357,-0.29907 h -1.34277 v 3.85132 h -1.23291 v -9.11255 h 2.7832 q 1.5625,0 2.33155,0.65307 0.76904,0.65308 0.76904,1.97144 0,0.8606 -0.40283,1.42822 -0.39673,0.56763 -1.15967,0.78736 z m -3.08838,-3.82691 v 3.23487 h 1.55029 q 0.89112,0 1.34278,-0.40894 0.45776,-0.41504 0.45776,-1.2146 0,-0.79956 -0.45776,-1.20239 -0.45166,-0.40894 -1.34278,-0.40894 z"
         style="font-size:12.50001049px;stroke-width:0.93750077"
         id="path4825" />
      <path
         d="m -138.75971,454.16174 h 1.32446 l 2.26441,3.38745 2.27661,-3.38745 h 1.32447 l -2.92969,4.37622 3.125,4.73633 h -1.32447 l -2.56347,-3.87573 -2.58179,3.87573 h -1.33057 l 3.25318,-4.8645 z"
         style="font-size:12.50001049px;stroke-width:0.93750077"
         id="path4827" />
    </g>
    <g
       aria-label="RX"
       transform="rotate(-90)"
       style="font-style:normal;font-weight:normal;font-size:12.50001049px;line-height:1.25;font-family:sans-serif;letter-spacing:0px;word-spacing:0px;fill:#000000;fill-opacity:1;stroke:none;stroke-width:0.93750077"
       id="text4689-6-2">
      <path
         d="m -142.69038,491.55191 q 0.39673,0.13427 0.76904,0.57373 0.37842,0.43945 0.75684,1.20849 l 1.25122,2.49024 h -1.32446 l -1.16577,-2.33765 q -0.45166,-0.91553 -0.87891,-1.2146 -0.42114,-0.29907 -1.15357,-0.29907 h -1.34277 v 3.85132 h -1.23291 v -9.11256 h 2.7832 q 1.5625,0 2.33155,0.65308 0.76904,0.65308 0.76904,1.97144 0,0.8606 -0.40283,1.42822 -0.39673,0.56763 -1.15967,0.78736 z m -3.08838,-3.82691 v 3.23487 h 1.55029 q 0.89112,0 1.34278,-0.40894 0.45776,-0.41504 0.45776,-1.2146 0,-0.79956 -0.45776,-1.20239 -0.45166,-0.40894 -1.34278,-0.40894 z"
         style="font-size:12.50001049px;stroke-width:0.93750077"
         id="path4830" />
      <path
         d="m -138.75971,486.71181 h 1.32446 l 2.26441,3.38746 2.27661,-3.38746 h 1.32447 l -2.92969,4.37623 3.125,4.73633 h -1.32447 l -2.56347,-3.87573 -2.58179,3.87573 h -1.33057 l 3.25318,-4.8645 z"
         style="font-size:12.50001049px;stroke-width:0.93750077"
         id="path4832" />
    </g>
  </g>
  <g
     id="g4795"
     transform="translate(-0.28338304,1.8750015)">
    <g
       aria-label="Power"
       transform="rotate(-90)"
       style="font-style:normal;font-weight:normal;font-size:12.50001049px;line-height:1.25;font-family:sans-serif;letter-spacing:0px;word-spacing:0px;fill:#000000;fill-opacity:1;stroke:none;stroke-width:0.93750077"
       id="text4689">
      <path
         d="m -73.108328,423.39764 v 3.42407 h 1.550295 q 0.860596,0 1.330567,-0.44555 0.469971,-0.44556 0.469971,-1.26954 0,-0.81787 -0.469971,-1.26343 -0.469971,-0.44555 -1.330567,-0.44555 z m -1.232911,-1.01319 h 2.783206 q 1.531983,0 2.313234,0.6958 0.787354,0.6897 0.787354,2.02637 0,1.34888 -0.787354,2.03858 -0.781251,0.6897 -2.313234,0.6897 h -1.550295 v 3.66211 h -1.232911 z"
         style="font-size:12.50001049px;stroke-width:0.93750077"
         id="path4835" />
      <path
         d="m -64.636641,425.44842 q -0.903321,0 -1.428224,0.70801 -0.524902,0.7019 -0.524902,1.92871 0,1.22681 0.518799,1.93482 0.524903,0.7019 1.434327,0.7019 0.897218,0 1.422121,-0.70801 0.524902,-0.708 0.524902,-1.92871 0,-1.2146 -0.524902,-1.92261 -0.524903,-0.71411 -1.422121,-0.71411 z m 0,-0.95215 q 1.464845,0 2.301028,0.95215 0.836182,0.95215 0.836182,2.63672 0,1.67847 -0.836182,2.63672 -0.836183,0.95215 -2.301028,0.95215 -1.470948,0 -2.307131,-0.95215 -0.830078,-0.95825 -0.830078,-2.63672 0,-1.68457 0.830078,-2.63672 0.836183,-0.95215 2.307131,-0.95215 z"
         style="font-size:12.50001049px;stroke-width:0.93750077"
         id="path4837" />
      <path
         d="m -60.297038,424.66107 h 1.123048 l 1.40381,5.33447 1.397706,-5.33447 h 1.324464 l 1.40381,5.33447 1.397706,-5.33447 h 1.123048 l -1.788332,6.83594 h -1.324464 l -1.470948,-5.60303 -1.477052,5.60303 h -1.324464 z"
         style="font-size:12.50001049px;stroke-width:0.93750077"
         id="path4839" />
      <path
         d="m -43.567287,427.79828 v 0.54931 h -5.163579 q 0.07324,1.15967 0.695802,1.77002 0.628662,0.60425 1.745606,0.60425 0.646974,0 1.251222,-0.15869 0.610352,-0.15869 1.208497,-0.47607 v 1.06201 q -0.604248,0.25635 -1.239014,0.39062 -0.634767,0.13428 -1.287843,0.13428 -1.635744,0 -2.593997,-0.95215 -0.952149,-0.95215 -0.952149,-2.57568 0,-1.67847 0.903321,-2.66114 0.909425,-0.98877 2.447512,-0.98877 1.379396,0 2.178957,0.89112 0.805665,0.88501 0.805665,2.41089 z m -1.123048,-0.32959 q -0.01221,-0.92164 -0.518799,-1.47095 -0.500489,-0.54932 -1.330568,-0.54932 -0.939942,0 -1.507569,0.53101 -0.561524,0.531 -0.646974,1.49536 z"
         style="font-size:12.50001049px;stroke-width:0.93750077"
         id="path4841" />
      <path
         d="m -37.76284,425.71087 q -0.189209,-0.10986 -0.415039,-0.15869 -0.219727,-0.0549 -0.488282,-0.0549 -0.952149,0 -1.464845,0.62256 -0.506592,0.61645 -0.506592,1.77612 v 3.60108 h -1.129151 v -6.83594 h 1.129151 v 1.06201 q 0.354004,-0.62256 0.921632,-0.92163 0.567627,-0.30518 1.379395,-0.30518 0.115967,0 0.256348,0.0183 0.140381,0.0122 0.31128,0.0427 z"
         style="font-size:12.50001049px;stroke-width:0.93750077"
         id="path4843" />
    </g>
    <g
       aria-label="MQTT"
       transform="rotate(-90)"
       style="font-style:normal;font-weight:normal;font-size:12.50001049px;line-height:1.25;font-family:sans-serif;letter-spacing:0px;word-spacing:0px;fill:#000000;fill-opacity:1;stroke:none;stroke-width:0.93750077"
       id="text4689-6-0">
      <path
         d="m -74.341239,490.40209 h 1.83716 l 2.325441,6.20118 2.337649,-6.20118 h 1.837159 v 9.11256 h -1.202393 v -8.00172 l -2.349856,6.25001 h -1.239014 l -2.349856,-6.25001 v 8.00172 h -1.19629 z"
         style="font-size:12.50001049px;stroke-width:0.93750077"
         id="path4846" />
      <path
         d="m -59.851481,491.23827 q -1.342775,0 -2.136232,1.00098 -0.787355,1.00098 -0.787355,2.72828 0,1.72119 0.787355,2.72217 0.793457,1.00097 2.136232,1.00097 1.342774,0 2.124025,-1.00097 0.787354,-1.00098 0.787354,-2.72217 0,-1.7273 -0.787354,-2.72828 -0.781251,-1.00098 -2.124025,-1.00098 z m 1.727296,8.11158 1.623537,1.77613 h -1.489259 l -1.348878,-1.45874 q -0.201417,0.0122 -0.31128,0.0183 -0.10376,0.006 -0.201416,0.006 -1.922609,0 -3.076175,-1.28174 -1.147461,-1.28784 -1.147461,-3.44238 0,-2.16065 1.147461,-3.44239 1.153566,-1.28784 3.076175,-1.28784 1.916505,0 3.063967,1.28784 1.147462,1.28174 1.147462,3.44239 0,1.58691 -0.640869,2.71606 -0.634767,1.12915 -1.843264,1.66626 z"
         style="font-size:12.50001049px;stroke-width:0.93750077"
         id="path4848" />
      <path
         d="m -54.974768,490.40209 h 7.708747 v 1.0376 h -3.234866 v 8.07496 h -1.239015 v -8.07496 h -3.234866 z"
         style="font-size:12.50001049px;stroke-width:0.93750077"
         id="path4850" />
      <path
         d="m -47.552887,490.40209 h 7.708747 v 1.0376 h -3.234866 v 8.07496 h -1.239015 v -8.07496 h -3.234866 z"
         style="font-size:12.50001049px;stroke-width:0.93750077"
         id="path4852" />
    </g>
    <g
       aria-label="Mesh"
       transform="rotate(-90)"
       style="font-style:normal;font-weight:normal;font-size:12.50001049px;line-height:1.25;font-family:sans-serif;letter-spacing:0px;word-spacing:0px;fill:#000000;fill-opacity:1;stroke:none;stroke-width:0.93750077"
       id="text4689-6-3">
      <path
         d="m -74.341239,456.90292 h 1.83716 l 2.325441,6.20117 2.337649,-6.20117 h 1.837159 v 9.11255 h -1.202393 v -8.00171 l -2.349856,6.25 h -1.239014 l -2.349856,-6.25 v 8.00171 h -1.19629 z"
         style="font-size:12.50001049px;stroke-width:0.93750077"
         id="path4855" />
      <path
         d="m -57.75187,462.31674 v 0.54932 h -5.163579 q 0.07324,1.15966 0.695802,1.77002 0.628662,0.60425 1.745607,0.60425 0.646973,0 1.251222,-0.1587 0.610352,-0.15869 1.208497,-0.47607 v 1.06201 q -0.604249,0.25635 -1.239015,0.39063 -0.634766,0.13427 -1.287843,0.13427 -1.635744,0 -2.593996,-0.95214 -0.95215,-0.95215 -0.95215,-2.57569 0,-1.67847 0.903322,-2.66114 0.909424,-0.98877 2.447511,-0.98877 1.379396,0 2.178957,0.89112 0.805665,0.88501 0.805665,2.41089 z m -1.123048,-0.32959 q -0.01221,-0.92163 -0.518799,-1.47095 -0.500489,-0.54932 -1.330568,-0.54932 -0.939942,0 -1.507569,0.53101 -0.561524,0.53101 -0.646973,1.49536 z"
         style="font-size:12.50001049px;stroke-width:0.93750077"
         id="path4857" />
      <path
         d="m -51.550693,459.38095 v 1.06201 q -0.476074,-0.24414 -0.98877,-0.36621 -0.512696,-0.12207 -1.062013,-0.12207 -0.836182,0 -1.257325,0.25634 -0.415039,0.25635 -0.415039,0.76905 0,0.39062 0.299072,0.61645 0.299073,0.21973 1.202394,0.42115 l 0.384522,0.0854 q 1.19629,0.25634 1.696778,0.72631 0.506593,0.46387 0.506593,1.30005 0,0.95215 -0.756837,1.50757 -0.750733,0.55542 -2.069094,0.55542 -0.549316,0 -1.147461,-0.10986 -0.592042,-0.10376 -1.251222,-0.31738 v -1.15967 q 0.622559,0.32349 1.226807,0.48828 0.604249,0.15869 1.196291,0.15869 0.793457,0 1.220704,-0.26855 0.427246,-0.27466 0.427246,-0.76905 0,-0.45776 -0.311279,-0.7019 -0.305176,-0.24414 -1.348879,-0.46997 l -0.390625,-0.0916 q -1.043702,-0.21972 -1.507569,-0.67138 -0.463868,-0.45777 -0.463868,-1.25122 0,-0.96436 0.683594,-1.48926 0.683595,-0.52491 1.94092,-0.52491 0.622559,0 1.171876,0.0916 0.549317,0.0915 1.013184,0.27466 z"
         style="font-size:12.50001049px;stroke-width:0.93750077"
         id="path4859" />
      <path
         d="m -43.707668,461.88949 v 4.12598 h -1.123048 v -4.08936 q 0,-0.97046 -0.378418,-1.45263 -0.378419,-0.48218 -1.135255,-0.48218 -0.909425,0 -1.434328,0.57983 -0.524902,0.57984 -0.524902,1.58081 v 3.86353 h -1.129152 v -9.49708 h 1.129152 v 3.72315 q 0.402832,-0.61645 0.946045,-0.92163 0.549317,-0.30518 1.263429,-0.30518 1.17798,0 1.782228,0.73243 0.604249,0.72632 0.604249,2.14233 z"
         style="font-size:12.50001049px;stroke-width:0.93750077"
         id="path4861" />
    </g>
  </g>
  <path
     style="fill:none;stroke:#000000;stroke-width:0.92968082;stroke-opacity:1"
     d="m 33.126041,93.236519 h 20.33018 v 21.519251 h -20.33018 z"
     id="rect4864" />
</svg>
