  0
SECTION
  2
HEADER
  9
$ACADVER
  1
AC1014
  9
$HANDSEED
  5
FFFF
  9
$MEASUREMENT
 70
     1
  0
ENDSEC
  0
SECTION
  2
TABLES
  0
TABLE
  2
VPORT
  5
8
330
0
100
AcDbSymbolTable
 70
     4
  0
VPORT
  5
2E
330
8
100
AcDbSymbolTableRecord
100
AcDbViewportTableRecord
  2
*ACTIVE
 70
     0
 10
0.0
 20
0.0
 11
1.0
 21
1.0
 12
210.0
 22
148.5
 13
0.0
 23
0.0
 14
10.0
 24
10.0
 15
10.0
 25
10.0
 16
0.0
 26
0.0
 36
1.0
 17
0.0
 27
0.0
 37
0.0
 40
341.0
 41
1.24
 42
50.0
 43
0.0
 44
0.0
 50
0.0
 51
0.0
 71
     0
 72
   100
 73
     1
 74
     3
 75
     0
 76
     0
 77
     0
 78
     0
  0
ENDTAB
  0
TABLE
  2
LTYPE
  5
5
330
0
100
AcDbSymbolTable
 70
     1
  0
LTYPE
  5
14
330
5
100
AcDbSymbolTableRecord
100
AcDbLinetypeTableRecord
  2
BYBLOCK
 70
     0
  3

 72
    65
 73
     0
 40
0.0
  0
LTYPE
  5
15
330
5
100
AcDbSymbolTableRecord
100
AcDbLinetypeTableRecord
  2
BYLAYER
 70
     0
  3

 72
    65
 73
     0
 40
0.0
  0
LTYPE
  5
16
330
5
100
AcDbSymbolTableRecord
100
AcDbLinetypeTableRecord
  2
CONTINUOUS
 70
     0
  3
Solid line
 72
    65
 73
     0
 40
0.0
  0
ENDTAB
  0
TABLE
  2
LAYER
  5
2
100
AcDbSymbolTable
 70
1
  0
LAYER
  5
50
100
AcDbSymbolTableRecord
100
AcDbLayerTableRecord
  2
0
 70
0
  6
CONTINUOUS
  0
ENDTAB
  0
TABLE
  2
STYLE
  5
3
330
0
100
AcDbSymbolTable
 70
     1
  0
STYLE
  5
11
330
3
100
AcDbSymbolTableRecord
100
AcDbTextStyleTableRecord
  2
STANDARD
 70
     0
 40
0.0
 41
1.0
 50
0.0
 71
     0
 42
2.5
  3
txt
  4

  0
ENDTAB
  0
TABLE
  2
VIEW
  5
6
330
0
100
AcDbSymbolTable
 70
     0
  0
ENDTAB
  0
TABLE
  2
UCS
  5
7
330
0
100
AcDbSymbolTable
 70
     0
  0
ENDTAB
  0
TABLE
  2
APPID
  5
9
330
0
100
AcDbSymbolTable
 70
     2
  0
APPID
  5
12
330
9
100
AcDbSymbolTableRecord
100
AcDbRegAppTableRecord
  2
ACAD
 70
     0
  0
ENDTAB
  0
TABLE
  2
DIMSTYLE
  5
A
330
0
100
AcDbSymbolTable
 70
     1
  0
DIMSTYLE
105
27
330
A
100
AcDbSymbolTableRecord
100
AcDbDimStyleTableRecord
  2
ISO-25
 70
     0
  3

  4

  5

  6

  7

 40
1.0
 41
2.5
 42
0.625
 43
3.75
 44
1.25
 45
0.0
 46
0.0
 47
0.0
 48
0.0
140
2.5
141
2.5
142
0.0
143
0.03937007874016
144
1.0
145
0.0
146
1.0
147
0.625
 71
     0
 72
     0
 73
     0
 74
     0
 75
     0
 76
     0
 77
     1
 78
     8
170
     0
171
     3
172
     1
173
     0
174
     0
175
     0
176
     0
177
     0
178
     0
270
     2
271
     2
272
     2
273
     2
274
     3
340
11
275
     0
280
     0
281
     0
282
     0
283
     0
284
     8
285
     0
286
     0
287
     3
288
     0
  0
ENDTAB
  0
TABLE
  2
BLOCK_RECORD
  5
1
330
0
100
AcDbSymbolTable
 70
     1
  0
BLOCK_RECORD
  5
1F
330
1
100
AcDbSymbolTableRecord
100
AcDbBlockTableRecord
  2
*MODEL_SPACE
  0
BLOCK_RECORD
  5
1B
330
1
100
AcDbSymbolTableRecord
100
AcDbBlockTableRecord
  2
*PAPER_SPACE
  0
ENDTAB
  0
ENDSEC
  0
SECTION
  2
BLOCKS
  0
BLOCK
  5
20
330
1F
100
AcDbEntity
  8
0
100
AcDbBlockBegin
  2
*MODEL_SPACE
 70
     0
 10
0.0
 20
0.0
 30
0.0
  3
*MODEL_SPACE
  1

  0
ENDBLK
  5
21
330
1F
100
AcDbEntity
  8
0
100
AcDbBlockEnd
  0
BLOCK
  5
1C
330
1B
100
AcDbEntity
 67
     1
  8
0
100
AcDbBlockBegin
  2
*PAPER_SPACE
  1

  0
ENDBLK
  5
1D
330
1B
100
AcDbEntity
 67
     1
  8
0
100
AcDbBlockEnd
  0
ENDSEC
  0
SECTION
  2
ENTITIES
  0
LWPOLYLINE
  5
100
100
AcDbEntity
  8
0
 62
7
100
AcDbPolyline
 90
100
 70
1
 10
7.094625
 20
112.297322
 30
0.0
 10
12.406109
 20
112.297322
 30
0.0
 10
12.406109
 20
110.020972
 30
0.0
 10
15.023912
 20
110.020972
 30
0.0
 10
15.023912
 20
108.427527
 30
0.0
 10
14.075433
 20
108.427527
 30
0.0
 10
14.075433
 20
106.530568
 30
0.0
 10
15.023912
 20
106.530568
 30
0.0
 10
15.023912
 20
104.633609
 30
0.0
 10
17.376140
 20
104.633609
 30
0.0
 10
17.376140
 20
106.530568
 30
0.0
 10
18.324620
 20
106.530568
 30
0.0
 10
18.324620
 20
108.427527
 30
0.0
 10
17.376140
 20
108.427527
 30
0.0
 10
17.376140
 20
110.020972
 30
0.0
 10
19.993943
 20
110.020972
 30
0.0
 10
19.993943
 20
112.297322
 30
0.0
 10
24.546644
 20
112.297322
 30
0.0
 10
24.546644
 20
110.020972
 30
0.0
 10
27.164447
 20
110.020972
 30
0.0
 10
27.164447
 20
108.427527
 30
0.0
 10
26.215967
 20
108.427527
 30
0.0
 10
26.215967
 20
106.530568
 30
0.0
 10
27.164447
 20
106.530568
 30
0.0
 10
27.164447
 20
104.633609
 30
0.0
 10
29.516675
 20
104.633609
 30
0.0
 10
29.516675
 20
106.530568
 30
0.0
 10
30.465155
 20
106.530568
 30
0.0
 10
30.465155
 20
108.427527
 30
0.0
 10
29.516675
 20
108.427527
 30
0.0
 10
29.516675
 20
110.020972
 30
0.0
 10
32.134478
 20
110.020972
 30
0.0
 10
32.134478
 20
112.297322
 30
0.0
 10
37.445962
 20
112.297322
 30
0.0
 10
37.445962
 20
104.709488
 30
0.0
 10
39.722313
 20
104.709488
 30
0.0
 10
39.722313
 20
102.319320
 30
0.0
 10
36.914813
 20
102.319320
 30
0.0
 10
36.914813
 20
99.511821
 30
0.0
 10
39.722313
 20
99.511821
 30
0.0
 10
39.722313
 20
97.121653
 30
0.0
 10
37.445962
 20
97.121653
 30
0.0
 10
37.445962
 20
92.568953
 30
0.0
 10
39.722313
 20
92.568953
 30
0.0
 10
39.722313
 20
90.178784
 30
0.0
 10
36.914813
 20
90.178784
 30
0.0
 10
36.914813
 20
87.371287
 30
0.0
 10
39.722313
 20
87.371287
 30
0.0
 10
39.722313
 20
84.981119
 30
0.0
 10
37.445962
 20
84.981119
 30
0.0
 10
37.445962
 20
77.393284
 30
0.0
 10
32.134478
 20
77.393284
 30
0.0
 10
32.134478
 20
79.669635
 30
0.0
 10
29.516675
 20
79.669635
 30
0.0
 10
29.516675
 20
81.263080
 30
0.0
 10
30.465155
 20
81.263080
 30
0.0
 10
30.465155
 20
83.160039
 30
0.0
 10
29.516675
 20
83.160039
 30
0.0
 10
29.516675
 20
85.056997
 30
0.0
 10
27.164447
 20
85.056997
 30
0.0
 10
27.164447
 20
83.160039
 30
0.0
 10
26.215967
 20
83.160039
 30
0.0
 10
26.215967
 20
81.263080
 30
0.0
 10
27.164447
 20
81.263080
 30
0.0
 10
27.164447
 20
79.669635
 30
0.0
 10
24.546644
 20
79.669635
 30
0.0
 10
24.546644
 20
77.393284
 30
0.0
 10
19.993943
 20
77.393284
 30
0.0
 10
19.993943
 20
79.669635
 30
0.0
 10
17.376140
 20
79.669635
 30
0.0
 10
17.376140
 20
81.263080
 30
0.0
 10
18.324620
 20
81.263080
 30
0.0
 10
18.324620
 20
83.160039
 30
0.0
 10
17.376140
 20
83.160039
 30
0.0
 10
17.376140
 20
85.056997
 30
0.0
 10
15.023912
 20
85.056997
 30
0.0
 10
15.023912
 20
83.160039
 30
0.0
 10
14.075433
 20
83.160039
 30
0.0
 10
14.075433
 20
81.263080
 30
0.0
 10
15.023912
 20
81.263080
 30
0.0
 10
15.023912
 20
79.669635
 30
0.0
 10
12.406109
 20
79.669635
 30
0.0
 10
12.406109
 20
77.393284
 30
0.0
 10
7.094625
 20
77.393284
 30
0.0
 10
7.094625
 20
84.981119
 30
0.0
 10
4.818275
 20
84.981119
 30
0.0
 10
4.818275
 20
87.371287
 30
0.0
 10
7.625773
 20
87.371287
 30
0.0
 10
7.625773
 20
90.178784
 30
0.0
 10
4.818275
 20
90.178784
 30
0.0
 10
4.818275
 20
92.568953
 30
0.0
 10
7.094625
 20
92.568953
 30
0.0
 10
7.094625
 20
97.121653
 30
0.0
 10
4.818275
 20
97.121653
 30
0.0
 10
4.818275
 20
99.511821
 30
0.0
 10
7.625773
 20
99.511821
 30
0.0
 10
7.625773
 20
102.319320
 30
0.0
 10
4.818275
 20
102.319320
 30
0.0
 10
4.818275
 20
104.709488
 30
0.0
 10
7.094625
 20
104.709488
 30
0.0
  0
LWPOLYLINE
  5
101
100
AcDbEntity
  8
0
 62
7
100
AcDbPolyline
 90
100
 70
1
 10
41.998663
 20
112.297322
 30
0.0
 10
47.310147
 20
112.297322
 30
0.0
 10
47.310147
 20
110.020972
 30
0.0
 10
49.927950
 20
110.020972
 30
0.0
 10
49.927950
 20
108.427527
 30
0.0
 10
48.979470
 20
108.427527
 30
0.0
 10
48.979470
 20
106.530568
 30
0.0
 10
49.927950
 20
106.530568
 30
0.0
 10
49.927950
 20
104.633609
 30
0.0
 10
52.280178
 20
104.633609
 30
0.0
 10
52.280178
 20
106.530568
 30
0.0
 10
53.228658
 20
106.530568
 30
0.0
 10
53.228658
 20
108.427527
 30
0.0
 10
52.280178
 20
108.427527
 30
0.0
 10
52.280178
 20
110.020972
 30
0.0
 10
54.897981
 20
110.020972
 30
0.0
 10
54.897981
 20
112.297322
 30
0.0
 10
59.450682
 20
112.297322
 30
0.0
 10
59.450682
 20
110.020972
 30
0.0
 10
62.068485
 20
110.020972
 30
0.0
 10
62.068485
 20
108.427527
 30
0.0
 10
61.120005
 20
108.427527
 30
0.0
 10
61.120005
 20
106.530568
 30
0.0
 10
62.068485
 20
106.530568
 30
0.0
 10
62.068485
 20
104.633609
 30
0.0
 10
64.420713
 20
104.633609
 30
0.0
 10
64.420713
 20
106.530568
 30
0.0
 10
65.369193
 20
106.530568
 30
0.0
 10
65.369193
 20
108.427527
 30
0.0
 10
64.420713
 20
108.427527
 30
0.0
 10
64.420713
 20
110.020972
 30
0.0
 10
67.038516
 20
110.020972
 30
0.0
 10
67.038516
 20
112.297322
 30
0.0
 10
72.350000
 20
112.297322
 30
0.0
 10
72.350000
 20
104.709488
 30
0.0
 10
74.626350
 20
104.709488
 30
0.0
 10
74.626350
 20
102.319320
 30
0.0
 10
71.818851
 20
102.319320
 30
0.0
 10
71.818851
 20
99.511821
 30
0.0
 10
74.626350
 20
99.511821
 30
0.0
 10
74.626350
 20
97.121653
 30
0.0
 10
72.350000
 20
97.121653
 30
0.0
 10
72.350000
 20
92.568953
 30
0.0
 10
74.626350
 20
92.568953
 30
0.0
 10
74.626350
 20
90.178784
 30
0.0
 10
71.818851
 20
90.178784
 30
0.0
 10
71.818851
 20
87.371287
 30
0.0
 10
74.626350
 20
87.371287
 30
0.0
 10
74.626350
 20
84.981119
 30
0.0
 10
72.350000
 20
84.981119
 30
0.0
 10
72.350000
 20
77.393284
 30
0.0
 10
67.038516
 20
77.393284
 30
0.0
 10
67.038516
 20
79.669635
 30
0.0
 10
64.420713
 20
79.669635
 30
0.0
 10
64.420713
 20
81.263080
 30
0.0
 10
65.369193
 20
81.263080
 30
0.0
 10
65.369193
 20
83.160039
 30
0.0
 10
64.420713
 20
83.160039
 30
0.0
 10
64.420713
 20
85.056997
 30
0.0
 10
62.068485
 20
85.056997
 30
0.0
 10
62.068485
 20
83.160039
 30
0.0
 10
61.120005
 20
83.160039
 30
0.0
 10
61.120005
 20
81.263080
 30
0.0
 10
62.068485
 20
81.263080
 30
0.0
 10
62.068485
 20
79.669635
 30
0.0
 10
59.450682
 20
79.669635
 30
0.0
 10
59.450682
 20
77.393284
 30
0.0
 10
54.897981
 20
77.393284
 30
0.0
 10
54.897981
 20
79.669635
 30
0.0
 10
52.280178
 20
79.669635
 30
0.0
 10
52.280178
 20
81.263080
 30
0.0
 10
53.228658
 20
81.263080
 30
0.0
 10
53.228658
 20
83.160039
 30
0.0
 10
52.280178
 20
83.160039
 30
0.0
 10
52.280178
 20
85.056997
 30
0.0
 10
49.927950
 20
85.056997
 30
0.0
 10
49.927950
 20
83.160039
 30
0.0
 10
48.979470
 20
83.160039
 30
0.0
 10
48.979470
 20
81.263080
 30
0.0
 10
49.927950
 20
81.263080
 30
0.0
 10
49.927950
 20
79.669635
 30
0.0
 10
47.310147
 20
79.669635
 30
0.0
 10
47.310147
 20
77.393284
 30
0.0
 10
41.998663
 20
77.393284
 30
0.0
 10
41.998663
 20
84.981119
 30
0.0
 10
39.722313
 20
84.981119
 30
0.0
 10
39.722313
 20
87.371287
 30
0.0
 10
42.529811
 20
87.371287
 30
0.0
 10
42.529811
 20
90.178784
 30
0.0
 10
39.722313
 20
90.178784
 30
0.0
 10
39.722313
 20
92.568953
 30
0.0
 10
41.998663
 20
92.568953
 30
0.0
 10
41.998663
 20
97.121653
 30
0.0
 10
39.722313
 20
97.121653
 30
0.0
 10
39.722313
 20
99.511821
 30
0.0
 10
42.529811
 20
99.511821
 30
0.0
 10
42.529811
 20
102.319320
 30
0.0
 10
39.722313
 20
102.319320
 30
0.0
 10
39.722313
 20
104.709488
 30
0.0
 10
41.998663
 20
104.709488
 30
0.0
  0
LWPOLYLINE
  5
102
100
AcDbEntity
  8
0
 62
7
100
AcDbPolyline
 90
132
 70
1
 10
74.626350
 20
110.020972
 30
0.0
 10
80.696618
 20
110.020972
 30
0.0
 10
80.696618
 20
112.297322
 30
0.0
 10
82.328002
 20
112.297322
 30
0.0
 10
82.328002
 20
109.489823
 30
0.0
 10
85.135501
 20
109.489823
 30
0.0
 10
85.135501
 20
112.297322
 30
0.0
 10
86.766885
 20
112.297322
 30
0.0
 10
86.766885
 20
110.020972
 30
0.0
 10
91.319586
 20
110.020972
 30
0.0
 10
91.319586
 20
112.297322
 30
0.0
 10
95.872286
 20
112.297322
 30
0.0
 10
95.872286
 20
110.020972
 30
0.0
 10
100.424987
 20
110.020972
 30
0.0
 10
100.424987
 20
112.297322
 30
0.0
 10
104.977687
 20
112.297322
 30
0.0
 10
104.977687
 20
110.020972
 30
0.0
 10
109.530388
 20
110.020972
 30
0.0
 10
109.530388
 20
112.297322
 30
0.0
 10
114.083089
 20
112.297322
 30
0.0
 10
114.083089
 20
110.020972
 30
0.0
 10
118.635789
 20
110.020972
 30
0.0
 10
118.635789
 20
112.297322
 30
0.0
 10
123.188490
 20
112.297322
 30
0.0
 10
123.188490
 20
110.020972
 30
0.0
 10
127.741190
 20
110.020972
 30
0.0
 10
127.741190
 20
112.297322
 30
0.0
 10
129.372575
 20
112.297322
 30
0.0
 10
129.372575
 20
109.489823
 30
0.0
 10
132.180073
 20
109.489823
 30
0.0
 10
132.180073
 20
112.297322
 30
0.0
 10
133.811458
 20
112.297322
 30
0.0
 10
133.811458
 20
110.020972
 30
0.0
 10
139.881725
 20
110.020972
 30
0.0
 10
139.881725
 20
104.709488
 30
0.0
 10
137.605375
 20
104.709488
 30
0.0
 10
137.605375
 20
102.091685
 30
0.0
 10
136.011930
 20
102.091685
 30
0.0
 10
136.011930
 20
103.040164
 30
0.0
 10
134.114970
 20
103.040164
 30
0.0
 10
134.114970
 20
102.091685
 30
0.0
 10
132.218013
 20
102.091685
 30
0.0
 10
132.218013
 20
99.739456
 30
0.0
 10
134.114970
 20
99.739456
 30
0.0
 10
134.114970
 20
98.790977
 30
0.0
 10
136.011930
 20
98.790977
 30
0.0
 10
136.011930
 20
99.739456
 30
0.0
 10
137.605375
 20
99.739456
 30
0.0
 10
137.605375
 20
97.121653
 30
0.0
 10
139.881725
 20
97.121653
 30
0.0
 10
139.881725
 20
92.568953
 30
0.0
 10
137.605375
 20
92.568953
 30
0.0
 10
137.605375
 20
89.951150
 30
0.0
 10
136.011930
 20
89.951150
 30
0.0
 10
136.011930
 20
90.899629
 30
0.0
 10
134.114970
 20
90.899629
 30
0.0
 10
134.114970
 20
89.951150
 30
0.0
 10
132.218013
 20
89.951150
 30
0.0
 10
132.218013
 20
87.598921
 30
0.0
 10
134.114970
 20
87.598921
 30
0.0
 10
134.114970
 20
86.650442
 30
0.0
 10
136.011930
 20
86.650442
 30
0.0
 10
136.011930
 20
87.598921
 30
0.0
 10
137.605375
 20
87.598921
 30
0.0
 10
137.605375
 20
84.981119
 30
0.0
 10
139.881725
 20
84.981119
 30
0.0
 10
139.881725
 20
79.669635
 30
0.0
 10
133.811458
 20
79.669635
 30
0.0
 10
133.811458
 20
77.393284
 30
0.0
 10
132.180073
 20
77.393284
 30
0.0
 10
132.180073
 20
80.200784
 30
0.0
 10
129.372575
 20
80.200784
 30
0.0
 10
129.372575
 20
77.393284
 30
0.0
 10
127.741190
 20
77.393284
 30
0.0
 10
127.741190
 20
79.669635
 30
0.0
 10
123.188490
 20
79.669635
 30
0.0
 10
123.188490
 20
77.393284
 30
0.0
 10
118.635789
 20
77.393284
 30
0.0
 10
118.635789
 20
79.669635
 30
0.0
 10
114.083089
 20
79.669635
 30
0.0
 10
114.083089
 20
77.393284
 30
0.0
 10
109.530388
 20
77.393284
 30
0.0
 10
109.530388
 20
79.669635
 30
0.0
 10
104.977687
 20
79.669635
 30
0.0
 10
104.977687
 20
77.393284
 30
0.0
 10
100.424987
 20
77.393284
 30
0.0
 10
100.424987
 20
79.669635
 30
0.0
 10
95.872286
 20
79.669635
 30
0.0
 10
95.872286
 20
77.393284
 30
0.0
 10
91.319586
 20
77.393284
 30
0.0
 10
91.319586
 20
79.669635
 30
0.0
 10
86.766885
 20
79.669635
 30
0.0
 10
86.766885
 20
77.393284
 30
0.0
 10
85.135501
 20
77.393284
 30
0.0
 10
85.135501
 20
80.200784
 30
0.0
 10
82.328002
 20
80.200784
 30
0.0
 10
82.328002
 20
77.393284
 30
0.0
 10
80.696618
 20
77.393284
 30
0.0
 10
80.696618
 20
79.669635
 30
0.0
 10
74.626350
 20
79.669635
 30
0.0
 10
74.626350
 20
84.981119
 30
0.0
 10
76.902701
 20
84.981119
 30
0.0
 10
76.902701
 20
87.598921
 30
0.0
 10
78.496146
 20
87.598921
 30
0.0
 10
78.496146
 20
86.650442
 30
0.0
 10
80.393104
 20
86.650442
 30
0.0
 10
80.393104
 20
87.598921
 30
0.0
 10
82.290063
 20
87.598921
 30
0.0
 10
82.290063
 20
89.951150
 30
0.0
 10
80.393104
 20
89.951150
 30
0.0
 10
80.393104
 20
90.899629
 30
0.0
 10
78.496146
 20
90.899629
 30
0.0
 10
78.496146
 20
89.951150
 30
0.0
 10
76.902701
 20
89.951150
 30
0.0
 10
76.902701
 20
92.568953
 30
0.0
 10
74.626350
 20
92.568953
 30
0.0
 10
74.626350
 20
97.121653
 30
0.0
 10
76.902701
 20
97.121653
 30
0.0
 10
76.902701
 20
99.739456
 30
0.0
 10
78.496146
 20
99.739456
 30
0.0
 10
78.496146
 20
98.790977
 30
0.0
 10
80.393104
 20
98.790977
 30
0.0
 10
80.393104
 20
99.739456
 30
0.0
 10
82.290063
 20
99.739456
 30
0.0
 10
82.290063
 20
102.091685
 30
0.0
 10
80.393104
 20
102.091685
 30
0.0
 10
80.393104
 20
103.040164
 30
0.0
 10
78.496146
 20
103.040164
 30
0.0
 10
78.496146
 20
102.091685
 30
0.0
 10
76.902701
 20
102.091685
 30
0.0
 10
76.902701
 20
104.709488
 30
0.0
 10
74.626350
 20
104.709488
 30
0.0
  0
LWPOLYLINE
  5
103
100
AcDbEntity
  8
0
 62
7
100
AcDbPolyline
 90
132
 70
1
 10
74.626350
 20
75.116934
 30
0.0
 10
80.696618
 20
75.116934
 30
0.0
 10
80.696618
 20
77.393284
 30
0.0
 10
82.328002
 20
77.393284
 30
0.0
 10
82.328002
 20
74.585786
 30
0.0
 10
85.135501
 20
74.585786
 30
0.0
 10
85.135501
 20
77.393284
 30
0.0
 10
86.766885
 20
77.393284
 30
0.0
 10
86.766885
 20
75.116934
 30
0.0
 10
91.319586
 20
75.116934
 30
0.0
 10
91.319586
 20
77.393284
 30
0.0
 10
95.872286
 20
77.393284
 30
0.0
 10
95.872286
 20
75.116934
 30
0.0
 10
100.424987
 20
75.116934
 30
0.0
 10
100.424987
 20
77.393284
 30
0.0
 10
104.977687
 20
77.393284
 30
0.0
 10
104.977687
 20
75.116934
 30
0.0
 10
109.530388
 20
75.116934
 30
0.0
 10
109.530388
 20
77.393284
 30
0.0
 10
114.083089
 20
77.393284
 30
0.0
 10
114.083089
 20
75.116934
 30
0.0
 10
118.635789
 20
75.116934
 30
0.0
 10
118.635789
 20
77.393284
 30
0.0
 10
123.188490
 20
77.393284
 30
0.0
 10
123.188490
 20
75.116934
 30
0.0
 10
127.741190
 20
75.116934
 30
0.0
 10
127.741190
 20
77.393284
 30
0.0
 10
129.372575
 20
77.393284
 30
0.0
 10
129.372575
 20
74.585786
 30
0.0
 10
132.180073
 20
74.585786
 30
0.0
 10
132.180073
 20
77.393284
 30
0.0
 10
133.811458
 20
77.393284
 30
0.0
 10
133.811458
 20
75.116934
 30
0.0
 10
139.881725
 20
75.116934
 30
0.0
 10
139.881725
 20
69.805450
 30
0.0
 10
137.605375
 20
69.805450
 30
0.0
 10
137.605375
 20
67.187647
 30
0.0
 10
136.011930
 20
67.187647
 30
0.0
 10
136.011930
 20
68.136126
 30
0.0
 10
134.114970
 20
68.136126
 30
0.0
 10
134.114970
 20
67.187647
 30
0.0
 10
132.218013
 20
67.187647
 30
0.0
 10
132.218013
 20
64.835419
 30
0.0
 10
134.114970
 20
64.835419
 30
0.0
 10
134.114970
 20
63.886939
 30
0.0
 10
136.011930
 20
63.886939
 30
0.0
 10
136.011930
 20
64.835419
 30
0.0
 10
137.605375
 20
64.835419
 30
0.0
 10
137.605375
 20
62.217616
 30
0.0
 10
139.881725
 20
62.217616
 30
0.0
 10
139.881725
 20
57.664915
 30
0.0
 10
137.605375
 20
57.664915
 30
0.0
 10
137.605375
 20
55.047112
 30
0.0
 10
136.011930
 20
55.047112
 30
0.0
 10
136.011930
 20
55.995592
 30
0.0
 10
134.114970
 20
55.995592
 30
0.0
 10
134.114970
 20
55.047112
 30
0.0
 10
132.218013
 20
55.047112
 30
0.0
 10
132.218013
 20
52.694884
 30
0.0
 10
134.114970
 20
52.694884
 30
0.0
 10
134.114970
 20
51.746404
 30
0.0
 10
136.011930
 20
51.746404
 30
0.0
 10
136.011930
 20
52.694884
 30
0.0
 10
137.605375
 20
52.694884
 30
0.0
 10
137.605375
 20
50.077081
 30
0.0
 10
139.881725
 20
50.077081
 30
0.0
 10
139.881725
 20
44.765597
 30
0.0
 10
133.811458
 20
44.765597
 30
0.0
 10
133.811458
 20
42.489246
 30
0.0
 10
132.180073
 20
42.489246
 30
0.0
 10
132.180073
 20
45.296746
 30
0.0
 10
129.372575
 20
45.296746
 30
0.0
 10
129.372575
 20
42.489246
 30
0.0
 10
127.741190
 20
42.489246
 30
0.0
 10
127.741190
 20
44.765597
 30
0.0
 10
123.188490
 20
44.765597
 30
0.0
 10
123.188490
 20
42.489246
 30
0.0
 10
118.635789
 20
42.489246
 30
0.0
 10
118.635789
 20
44.765597
 30
0.0
 10
114.083089
 20
44.765597
 30
0.0
 10
114.083089
 20
42.489246
 30
0.0
 10
109.530388
 20
42.489246
 30
0.0
 10
109.530388
 20
44.765597
 30
0.0
 10
104.977687
 20
44.765597
 30
0.0
 10
104.977687
 20
42.489246
 30
0.0
 10
100.424987
 20
42.489246
 30
0.0
 10
100.424987
 20
44.765597
 30
0.0
 10
95.872286
 20
44.765597
 30
0.0
 10
95.872286
 20
42.489246
 30
0.0
 10
91.319586
 20
42.489246
 30
0.0
 10
91.319586
 20
44.765597
 30
0.0
 10
86.766885
 20
44.765597
 30
0.0
 10
86.766885
 20
42.489246
 30
0.0
 10
85.135501
 20
42.489246
 30
0.0
 10
85.135501
 20
45.296746
 30
0.0
 10
82.328002
 20
45.296746
 30
0.0
 10
82.328002
 20
42.489246
 30
0.0
 10
80.696618
 20
42.489246
 30
0.0
 10
80.696618
 20
44.765597
 30
0.0
 10
74.626350
 20
44.765597
 30
0.0
 10
74.626350
 20
50.077081
 30
0.0
 10
76.902701
 20
50.077081
 30
0.0
 10
76.902701
 20
52.694884
 30
0.0
 10
78.496146
 20
52.694884
 30
0.0
 10
78.496146
 20
51.746404
 30
0.0
 10
80.393104
 20
51.746404
 30
0.0
 10
80.393104
 20
52.694884
 30
0.0
 10
82.290063
 20
52.694884
 30
0.0
 10
82.290063
 20
55.047112
 30
0.0
 10
80.393104
 20
55.047112
 30
0.0
 10
80.393104
 20
55.995592
 30
0.0
 10
78.496146
 20
55.995592
 30
0.0
 10
78.496146
 20
55.047112
 30
0.0
 10
76.902701
 20
55.047112
 30
0.0
 10
76.902701
 20
57.664915
 30
0.0
 10
74.626350
 20
57.664915
 30
0.0
 10
74.626350
 20
62.217616
 30
0.0
 10
76.902701
 20
62.217616
 30
0.0
 10
76.902701
 20
64.835419
 30
0.0
 10
78.496146
 20
64.835419
 30
0.0
 10
78.496146
 20
63.886939
 30
0.0
 10
80.393104
 20
63.886939
 30
0.0
 10
80.393104
 20
64.835419
 30
0.0
 10
82.290063
 20
64.835419
 30
0.0
 10
82.290063
 20
67.187647
 30
0.0
 10
80.393104
 20
67.187647
 30
0.0
 10
80.393104
 20
68.136126
 30
0.0
 10
78.496146
 20
68.136126
 30
0.0
 10
78.496146
 20
67.187647
 30
0.0
 10
76.902701
 20
67.187647
 30
0.0
 10
76.902701
 20
69.805450
 30
0.0
 10
74.626350
 20
69.805450
 30
0.0
  0
LWPOLYLINE
  5
104
100
AcDbEntity
  8
0
 62
7
100
AcDbPolyline
 90
132
 70
1
 10
4.818275
 20
75.116934
 30
0.0
 10
12.406109
 20
75.116934
 30
0.0
 10
12.406109
 20
77.393284
 30
0.0
 10
14.796277
 20
77.393284
 30
0.0
 10
14.796277
 20
74.585786
 30
0.0
 10
17.603775
 20
74.585786
 30
0.0
 10
17.603775
 20
77.393284
 30
0.0
 10
19.993943
 20
77.393284
 30
0.0
 10
19.993943
 20
75.116934
 30
0.0
 10
24.546644
 20
75.116934
 30
0.0
 10
24.546644
 20
77.393284
 30
0.0
 10
26.936812
 20
77.393284
 30
0.0
 10
26.936812
 20
74.585786
 30
0.0
 10
29.744310
 20
74.585786
 30
0.0
 10
29.744310
 20
77.393284
 30
0.0
 10
32.134478
 20
77.393284
 30
0.0
 10
32.134478
 20
75.116934
 30
0.0
 10
39.722313
 20
75.116934
 30
0.0
 10
39.722313
 20
71.323017
 30
0.0
 10
37.445962
 20
71.323017
 30
0.0
 10
37.445962
 20
69.463998
 30
0.0
 10
35.852517
 20
69.463998
 30
0.0
 10
35.852517
 20
70.412477
 30
0.0
 10
33.955558
 20
70.412477
 30
0.0
 10
33.955558
 20
69.463998
 30
0.0
 10
32.058600
 20
69.463998
 30
0.0
 10
32.058600
 20
67.111769
 30
0.0
 10
33.955558
 20
67.111769
 30
0.0
 10
33.955558
 20
66.163289
 30
0.0
 10
35.852517
 20
66.163289
 30
0.0
 10
35.852517
 20
67.111769
 30
0.0
 10
37.445962
 20
67.111769
 30
0.0
 10
37.445962
 20
65.252749
 30
0.0
 10
39.722313
 20
65.252749
 30
0.0
 10
39.722313
 20
60.700049
 30
0.0
 10
37.445962
 20
60.700049
 30
0.0
 10
37.445962
 20
56.147348
 30
0.0
 10
39.722313
 20
56.147348
 30
0.0
 10
39.722313
 20
51.594648
 30
0.0
 10
37.445962
 20
51.594648
 30
0.0
 10
37.445962
 20
47.041947
 30
0.0
 10
39.722313
 20
47.041947
 30
0.0
 10
39.722313
 20
42.489246
 30
0.0
 10
37.445962
 20
42.489246
 30
0.0
 10
37.445962
 20
37.936546
 30
0.0
 10
39.722313
 20
37.936546
 30
0.0
 10
39.722313
 20
33.383845
 30
0.0
 10
37.445962
 20
33.383845
 30
0.0
 10
37.445962
 20
28.831145
 30
0.0
 10
39.722313
 20
28.831145
 30
0.0
 10
39.722313
 20
24.278444
 30
0.0
 10
37.445962
 20
24.278444
 30
0.0
 10
37.445962
 20
22.419425
 30
0.0
 10
35.852517
 20
22.419425
 30
0.0
 10
35.852517
 20
23.367904
 30
0.0
 10
33.955558
 20
23.367904
 30
0.0
 10
33.955558
 20
22.419425
 30
0.0
 10
32.058600
 20
22.419425
 30
0.0
 10
32.058600
 20
20.067196
 30
0.0
 10
33.955558
 20
20.067196
 30
0.0
 10
33.955558
 20
19.118716
 30
0.0
 10
35.852517
 20
19.118716
 30
0.0
 10
35.852517
 20
20.067196
 30
0.0
 10
37.445962
 20
20.067196
 30
0.0
 10
37.445962
 20
18.208177
 30
0.0
 10
39.722313
 20
18.208177
 30
0.0
 10
39.722313
 20
14.414260
 30
0.0
 10
32.134478
 20
14.414260
 30
0.0
 10
32.134478
 20
12.137909
 30
0.0
 10
29.744310
 20
12.137909
 30
0.0
 10
29.744310
 20
14.945409
 30
0.0
 10
26.936812
 20
14.945409
 30
0.0
 10
26.936812
 20
12.137909
 30
0.0
 10
24.546644
 20
12.137909
 30
0.0
 10
24.546644
 20
14.414260
 30
0.0
 10
19.993943
 20
14.414260
 30
0.0
 10
19.993943
 20
12.137909
 30
0.0
 10
17.603775
 20
12.137909
 30
0.0
 10
17.603775
 20
14.945409
 30
0.0
 10
14.796277
 20
14.945409
 30
0.0
 10
14.796277
 20
12.137909
 30
0.0
 10
12.406109
 20
12.137909
 30
0.0
 10
12.406109
 20
14.414260
 30
0.0
 10
4.818275
 20
14.414260
 30
0.0
 10
4.818275
 20
18.208177
 30
0.0
 10
7.094625
 20
18.208177
 30
0.0
 10
7.094625
 20
20.067196
 30
0.0
 10
8.688070
 20
20.067196
 30
0.0
 10
8.688070
 20
19.118716
 30
0.0
 10
10.585029
 20
19.118716
 30
0.0
 10
10.585029
 20
20.067196
 30
0.0
 10
12.481987
 20
20.067196
 30
0.0
 10
12.481987
 20
22.419425
 30
0.0
 10
10.585029
 20
22.419425
 30
0.0
 10
10.585029
 20
23.367904
 30
0.0
 10
8.688070
 20
23.367904
 30
0.0
 10
8.688070
 20
22.419425
 30
0.0
 10
7.094625
 20
22.419425
 30
0.0
 10
7.094625
 20
24.278444
 30
0.0
 10
4.818275
 20
24.278444
 30
0.0
 10
4.818275
 20
28.831145
 30
0.0
 10
7.094625
 20
28.831145
 30
0.0
 10
7.094625
 20
33.383845
 30
0.0
 10
4.818275
 20
33.383845
 30
0.0
 10
4.818275
 20
37.936546
 30
0.0
 10
7.094625
 20
37.936546
 30
0.0
 10
7.094625
 20
42.489246
 30
0.0
 10
4.818275
 20
42.489246
 30
0.0
 10
4.818275
 20
47.041947
 30
0.0
 10
7.094625
 20
47.041947
 30
0.0
 10
7.094625
 20
51.594648
 30
0.0
 10
4.818275
 20
51.594648
 30
0.0
 10
4.818275
 20
56.147348
 30
0.0
 10
7.094625
 20
56.147348
 30
0.0
 10
7.094625
 20
60.700049
 30
0.0
 10
4.818275
 20
60.700049
 30
0.0
 10
4.818275
 20
65.252749
 30
0.0
 10
7.094625
 20
65.252749
 30
0.0
 10
7.094625
 20
67.111769
 30
0.0
 10
8.688070
 20
67.111769
 30
0.0
 10
8.688070
 20
66.163289
 30
0.0
 10
10.585029
 20
66.163289
 30
0.0
 10
10.585029
 20
67.111769
 30
0.0
 10
12.481987
 20
67.111769
 30
0.0
 10
12.481987
 20
69.463998
 30
0.0
 10
10.585029
 20
69.463998
 30
0.0
 10
10.585029
 20
70.412477
 30
0.0
 10
8.688070
 20
70.412477
 30
0.0
 10
8.688070
 20
69.463998
 30
0.0
 10
7.094625
 20
69.463998
 30
0.0
 10
7.094625
 20
71.323017
 30
0.0
 10
4.818275
 20
71.323017
 30
0.0
  0
SPLINE
  5
105
100
AcDbEntity
  8
0
 62
7
100
AcDbSpline
 70
8
 71
3
 72
8
 73
4
 74
0
 40
0
 40
0
 40
0
 40
0
 40
1
 40
1
 40
1
 40
1
 10
58.974296
 20
94.845303
 30
0.0
 10
58.974296
 20
93.851209
 30
0.0
 10
58.168424
 20
93.045336
 30
0.0
 10
57.174330
 20
93.045336
 30
0.0
  0
SPLINE
  5
106
100
AcDbEntity
  8
0
 62
7
100
AcDbSpline
 70
8
 71
3
 72
8
 73
4
 74
0
 40
0
 40
0
 40
0
 40
0
 40
1
 40
1
 40
1
 40
1
 10
57.174330
 20
93.045336
 30
0.0
 10
56.180235
 20
93.045336
 30
0.0
 10
55.374363
 20
93.851209
 30
0.0
 10
55.374363
 20
94.845303
 30
0.0
  0
SPLINE
  5
107
100
AcDbEntity
  8
0
 62
7
100
AcDbSpline
 70
8
 71
3
 72
8
 73
4
 74
0
 40
0
 40
0
 40
0
 40
0
 40
1
 40
1
 40
1
 40
1
 10
55.374363
 20
94.845303
 30
0.0
 10
55.374363
 20
95.322684
 30
0.0
 10
55.564001
 20
95.780513
 30
0.0
 10
55.901561
 20
96.118072
 30
0.0
  0
SPLINE
  5
108
100
AcDbEntity
  8
0
 62
7
100
AcDbSpline
 70
8
 71
3
 72
8
 73
4
 74
0
 40
0
 40
0
 40
0
 40
0
 40
1
 40
1
 40
1
 40
1
 10
55.901561
 20
96.118072
 30
0.0
 10
56.239120
 20
96.455631
 30
0.0
 10
56.696949
 20
96.645270
 30
0.0
 10
57.174330
 20
96.645270
 30
0.0
  0
SPLINE
  5
109
100
AcDbEntity
  8
0
 62
7
100
AcDbSpline
 70
8
 71
3
 72
8
 73
4
 74
0
 40
0
 40
0
 40
0
 40
0
 40
1
 40
1
 40
1
 40
1
 10
57.174330
 20
96.645270
 30
0.0
 10
57.651711
 20
96.645270
 30
0.0
 10
58.109539
 20
96.455631
 30
0.0
 10
58.447099
 20
96.118072
 30
0.0
  0
SPLINE
  5
10a
100
AcDbEntity
  8
0
 62
7
100
AcDbSpline
 70
8
 71
3
 72
8
 73
4
 74
0
 40
0
 40
0
 40
0
 40
0
 40
1
 40
1
 40
1
 40
1
 10
58.447099
 20
96.118072
 30
0.0
 10
58.784658
 20
95.780513
 30
0.0
 10
58.974297
 20
95.322684
 30
0.0
 10
58.974296
 20
94.845303
 30
0.0
  0
LWPOLYLINE
  5
10b
100
AcDbEntity
  8
0
 62
7
100
AcDbPolyline
 90
132
 70
1
 10
39.722313
 20
75.116934
 30
0.0
 10
47.310147
 20
75.116934
 30
0.0
 10
47.310147
 20
77.393284
 30
0.0
 10
49.700315
 20
77.393284
 30
0.0
 10
49.700315
 20
74.585786
 30
0.0
 10
52.507813
 20
74.585786
 30
0.0
 10
52.507813
 20
77.393284
 30
0.0
 10
54.897981
 20
77.393284
 30
0.0
 10
54.897981
 20
75.116934
 30
0.0
 10
59.450682
 20
75.116934
 30
0.0
 10
59.450682
 20
77.393284
 30
0.0
 10
61.840850
 20
77.393284
 30
0.0
 10
61.840850
 20
74.585786
 30
0.0
 10
64.648347
 20
74.585786
 30
0.0
 10
64.648347
 20
77.393284
 30
0.0
 10
67.038516
 20
77.393284
 30
0.0
 10
67.038516
 20
75.116934
 30
0.0
 10
74.626350
 20
75.116934
 30
0.0
 10
74.626350
 20
71.323017
 30
0.0
 10
72.350000
 20
71.323017
 30
0.0
 10
72.350000
 20
69.463998
 30
0.0
 10
70.756555
 20
69.463998
 30
0.0
 10
70.756555
 20
70.412477
 30
0.0
 10
68.859595
 20
70.412477
 30
0.0
 10
68.859595
 20
69.463998
 30
0.0
 10
66.962638
 20
69.463998
 30
0.0
 10
66.962638
 20
67.111769
 30
0.0
 10
68.859595
 20
67.111769
 30
0.0
 10
68.859595
 20
66.163289
 30
0.0
 10
70.756555
 20
66.163289
 30
0.0
 10
70.756555
 20
67.111769
 30
0.0
 10
72.350000
 20
67.111769
 30
0.0
 10
72.350000
 20
65.252749
 30
0.0
 10
74.626350
 20
65.252749
 30
0.0
 10
74.626350
 20
60.700049
 30
0.0
 10
72.350000
 20
60.700049
 30
0.0
 10
72.350000
 20
56.147348
 30
0.0
 10
74.626350
 20
56.147348
 30
0.0
 10
74.626350
 20
51.594648
 30
0.0
 10
72.350000
 20
51.594648
 30
0.0
 10
72.350000
 20
47.041947
 30
0.0
 10
74.626350
 20
47.041947
 30
0.0
 10
74.626350
 20
42.489246
 30
0.0
 10
72.350000
 20
42.489246
 30
0.0
 10
72.350000
 20
37.936546
 30
0.0
 10
74.626350
 20
37.936546
 30
0.0
 10
74.626350
 20
33.383845
 30
0.0
 10
72.350000
 20
33.383845
 30
0.0
 10
72.350000
 20
28.831145
 30
0.0
 10
74.626350
 20
28.831145
 30
0.0
 10
74.626350
 20
24.278444
 30
0.0
 10
72.350000
 20
24.278444
 30
0.0
 10
72.350000
 20
22.419425
 30
0.0
 10
70.756555
 20
22.419425
 30
0.0
 10
70.756555
 20
23.367904
 30
0.0
 10
68.859595
 20
23.367904
 30
0.0
 10
68.859595
 20
22.419425
 30
0.0
 10
66.962638
 20
22.419425
 30
0.0
 10
66.962638
 20
20.067196
 30
0.0
 10
68.859595
 20
20.067196
 30
0.0
 10
68.859595
 20
19.118716
 30
0.0
 10
70.756555
 20
19.118716
 30
0.0
 10
70.756555
 20
20.067196
 30
0.0
 10
72.350000
 20
20.067196
 30
0.0
 10
72.350000
 20
18.208177
 30
0.0
 10
74.626350
 20
18.208177
 30
0.0
 10
74.626350
 20
14.414260
 30
0.0
 10
67.038516
 20
14.414260
 30
0.0
 10
67.038516
 20
12.137909
 30
0.0
 10
64.648347
 20
12.137909
 30
0.0
 10
64.648347
 20
14.945409
 30
0.0
 10
61.840850
 20
14.945409
 30
0.0
 10
61.840850
 20
12.137909
 30
0.0
 10
59.450682
 20
12.137909
 30
0.0
 10
59.450682
 20
14.414260
 30
0.0
 10
54.897981
 20
14.414260
 30
0.0
 10
54.897981
 20
12.137909
 30
0.0
 10
52.507813
 20
12.137909
 30
0.0
 10
52.507813
 20
14.945409
 30
0.0
 10
49.700315
 20
14.945409
 30
0.0
 10
49.700315
 20
12.137909
 30
0.0
 10
47.310147
 20
12.137909
 30
0.0
 10
47.310147
 20
14.414260
 30
0.0
 10
39.722313
 20
14.414260
 30
0.0
 10
39.722313
 20
18.208177
 30
0.0
 10
41.998663
 20
18.208177
 30
0.0
 10
41.998663
 20
20.067196
 30
0.0
 10
43.592108
 20
20.067196
 30
0.0
 10
43.592108
 20
19.118716
 30
0.0
 10
45.489067
 20
19.118716
 30
0.0
 10
45.489067
 20
20.067196
 30
0.0
 10
47.386025
 20
20.067196
 30
0.0
 10
47.386025
 20
22.419425
 30
0.0
 10
45.489067
 20
22.419425
 30
0.0
 10
45.489067
 20
23.367904
 30
0.0
 10
43.592108
 20
23.367904
 30
0.0
 10
43.592108
 20
22.419425
 30
0.0
 10
41.998663
 20
22.419425
 30
0.0
 10
41.998663
 20
24.278444
 30
0.0
 10
39.722313
 20
24.278444
 30
0.0
 10
39.722313
 20
28.831145
 30
0.0
 10
41.998663
 20
28.831145
 30
0.0
 10
41.998663
 20
33.383845
 30
0.0
 10
39.722313
 20
33.383845
 30
0.0
 10
39.722313
 20
37.936546
 30
0.0
 10
41.998663
 20
37.936546
 30
0.0
 10
41.998663
 20
42.489246
 30
0.0
 10
39.722313
 20
42.489246
 30
0.0
 10
39.722313
 20
47.041947
 30
0.0
 10
41.998663
 20
47.041947
 30
0.0
 10
41.998663
 20
51.594648
 30
0.0
 10
39.722313
 20
51.594648
 30
0.0
 10
39.722313
 20
56.147348
 30
0.0
 10
41.998663
 20
56.147348
 30
0.0
 10
41.998663
 20
60.700049
 30
0.0
 10
39.722313
 20
60.700049
 30
0.0
 10
39.722313
 20
65.252749
 30
0.0
 10
41.998663
 20
65.252749
 30
0.0
 10
41.998663
 20
67.111769
 30
0.0
 10
43.592108
 20
67.111769
 30
0.0
 10
43.592108
 20
66.163289
 30
0.0
 10
45.489067
 20
66.163289
 30
0.0
 10
45.489067
 20
67.111769
 30
0.0
 10
47.386025
 20
67.111769
 30
0.0
 10
47.386025
 20
69.463998
 30
0.0
 10
45.489067
 20
69.463998
 30
0.0
 10
45.489067
 20
70.412477
 30
0.0
 10
43.592108
 20
70.412477
 30
0.0
 10
43.592108
 20
69.463998
 30
0.0
 10
41.998663
 20
69.463998
 30
0.0
 10
41.998663
 20
71.323017
 30
0.0
 10
39.722313
 20
71.323017
 30
0.0
  0
SPLINE
  5
10c
100
AcDbEntity
  8
0
 62
7
100
AcDbSpline
 70
8
 71
3
 72
8
 73
4
 74
0
 40
0
 40
0
 40
0
 40
0
 40
1
 40
1
 40
1
 40
1
 10
92.621930
 20
97.689951
 30
0.0
 10
92.621930
 20
97.085056
 30
0.0
 10
92.131566
 20
96.594692
 30
0.0
 10
91.526671
 20
96.594692
 30
0.0
  0
SPLINE
  5
10d
100
AcDbEntity
  8
0
 62
7
100
AcDbSpline
 70
8
 71
3
 72
8
 73
4
 74
0
 40
0
 40
0
 40
0
 40
0
 40
1
 40
1
 40
1
 40
1
 10
91.526671
 20
96.594692
 30
0.0
 10
90.921776
 20
96.594692
 30
0.0
 10
90.431412
 20
97.085056
 30
0.0
 10
90.431412
 20
97.689951
 30
0.0
  0
SPLINE
  5
10e
100
AcDbEntity
  8
0
 62
7
100
AcDbSpline
 70
8
 71
3
 72
8
 73
4
 74
0
 40
0
 40
0
 40
0
 40
0
 40
1
 40
1
 40
1
 40
1
 10
90.431412
 20
97.689951
 30
0.0
 10
90.431412
 20
98.294846
 30
0.0
 10
90.921776
 20
98.785210
 30
0.0
 10
91.526671
 20
98.785210
 30
0.0
  0
SPLINE
  5
10f
100
AcDbEntity
  8
0
 62
7
100
AcDbSpline
 70
8
 71
3
 72
8
 73
4
 74
0
 40
0
 40
0
 40
0
 40
0
 40
1
 40
1
 40
1
 40
1
 10
91.526671
 20
98.785210
 30
0.0
 10
92.131566
 20
98.785210
 30
0.0
 10
92.621930
 20
98.294846
 30
0.0
 10
92.621930
 20
97.689951
 30
0.0
  0
LWPOLYLINE
  5
110
100
AcDbEntity
  8
0
 62
7
100
AcDbPolyline
 90
1
 70
1
 10
58.974296
 20
94.845303
 30
0.0
  0
SPLINE
  5
111
100
AcDbEntity
  8
0
 62
7
100
AcDbSpline
 70
8
 71
3
 72
8
 73
4
 74
0
 40
0
 40
0
 40
0
 40
0
 40
1
 40
1
 40
1
 40
1
 10
99.917315
 20
92.000654
 30
0.0
 10
99.917315
 20
91.395758
 30
0.0
 10
99.426951
 20
90.905394
 30
0.0
 10
98.822056
 20
90.905394
 30
0.0
  0
SPLINE
  5
112
100
AcDbEntity
  8
0
 62
7
100
AcDbSpline
 70
8
 71
3
 72
8
 73
4
 74
0
 40
0
 40
0
 40
0
 40
0
 40
1
 40
1
 40
1
 40
1
 10
98.822056
 20
90.905394
 30
0.0
 10
98.217161
 20
90.905394
 30
0.0
 10
97.726796
 20
91.395758
 30
0.0
 10
97.726796
 20
92.000654
 30
0.0
  0
SPLINE
  5
113
100
AcDbEntity
  8
0
 62
7
100
AcDbSpline
 70
8
 71
3
 72
8
 73
4
 74
0
 40
0
 40
0
 40
0
 40
0
 40
1
 40
1
 40
1
 40
1
 10
97.726796
 20
92.000654
 30
0.0
 10
97.726796
 20
92.605549
 30
0.0
 10
98.217161
 20
93.095913
 30
0.0
 10
98.822056
 20
93.095913
 30
0.0
  0
SPLINE
  5
114
100
AcDbEntity
  8
0
 62
7
100
AcDbSpline
 70
8
 71
3
 72
8
 73
4
 74
0
 40
0
 40
0
 40
0
 40
0
 40
1
 40
1
 40
1
 40
1
 10
98.822056
 20
93.095913
 30
0.0
 10
99.426951
 20
93.095913
 30
0.0
 10
99.917315
 20
92.605549
 30
0.0
 10
99.917315
 20
92.000654
 30
0.0
  0
LWPOLYLINE
  5
115
100
AcDbEntity
  8
0
 62
7
100
AcDbPolyline
 90
1
 70
1
 10
92.621930
 20
97.689951
 30
0.0
  0
SPLINE
  5
116
100
AcDbEntity
  8
0
 62
7
100
AcDbSpline
 70
8
 71
3
 72
8
 73
4
 74
0
 40
0
 40
0
 40
0
 40
0
 40
1
 40
1
 40
1
 40
1
 10
92.621930
 20
92.000654
 30
0.0
 10
92.621930
 20
91.395759
 30
0.0
 10
92.131566
 20
90.905394
 30
0.0
 10
91.526671
 20
90.905394
 30
0.0
  0
SPLINE
  5
117
100
AcDbEntity
  8
0
 62
7
100
AcDbSpline
 70
8
 71
3
 72
8
 73
4
 74
0
 40
0
 40
0
 40
0
 40
0
 40
1
 40
1
 40
1
 40
1
 10
91.526671
 20
90.905394
 30
0.0
 10
90.921776
 20
90.905394
 30
0.0
 10
90.431412
 20
91.395758
 30
0.0
 10
90.431412
 20
92.000654
 30
0.0
  0
SPLINE
  5
118
100
AcDbEntity
  8
0
 62
7
100
AcDbSpline
 70
8
 71
3
 72
8
 73
4
 74
0
 40
0
 40
0
 40
0
 40
0
 40
1
 40
1
 40
1
 40
1
 10
90.431412
 20
92.000654
 30
0.0
 10
90.431412
 20
92.605549
 30
0.0
 10
90.921776
 20
93.095913
 30
0.0
 10
91.526671
 20
93.095913
 30
0.0
  0
SPLINE
  5
119
100
AcDbEntity
  8
0
 62
7
100
AcDbSpline
 70
8
 71
3
 72
8
 73
4
 74
0
 40
0
 40
0
 40
0
 40
0
 40
1
 40
1
 40
1
 40
1
 10
91.526671
 20
93.095913
 30
0.0
 10
92.131566
 20
93.095913
 30
0.0
 10
92.621930
 20
92.605549
 30
0.0
 10
92.621930
 20
92.000654
 30
0.0
  0
LWPOLYLINE
  5
11a
100
AcDbEntity
  8
0
 62
7
100
AcDbPolyline
 90
1
 70
1
 10
99.917315
 20
92.000654
 30
0.0
  0
SPLINE
  5
11b
100
AcDbEntity
  8
0
 62
7
100
AcDbSpline
 70
8
 71
3
 72
8
 73
4
 74
0
 40
0
 40
0
 40
0
 40
0
 40
1
 40
1
 40
1
 40
1
 10
99.917315
 20
97.689951
 30
0.0
 10
99.917315
 20
97.085056
 30
0.0
 10
99.426951
 20
96.594692
 30
0.0
 10
98.822056
 20
96.594692
 30
0.0
  0
SPLINE
  5
11c
100
AcDbEntity
  8
0
 62
7
100
AcDbSpline
 70
8
 71
3
 72
8
 73
4
 74
0
 40
0
 40
0
 40
0
 40
0
 40
1
 40
1
 40
1
 40
1
 10
98.822056
 20
96.594692
 30
0.0
 10
98.217161
 20
96.594692
 30
0.0
 10
97.726796
 20
97.085056
 30
0.0
 10
97.726796
 20
97.689951
 30
0.0
  0
SPLINE
  5
11d
100
AcDbEntity
  8
0
 62
7
100
AcDbSpline
 70
8
 71
3
 72
8
 73
4
 74
0
 40
0
 40
0
 40
0
 40
0
 40
1
 40
1
 40
1
 40
1
 10
97.726796
 20
97.689951
 30
0.0
 10
97.726796
 20
98.294846
 30
0.0
 10
98.217161
 20
98.785210
 30
0.0
 10
98.822056
 20
98.785210
 30
0.0
  0
SPLINE
  5
11e
100
AcDbEntity
  8
0
 62
7
100
AcDbSpline
 70
8
 71
3
 72
8
 73
4
 74
0
 40
0
 40
0
 40
0
 40
0
 40
1
 40
1
 40
1
 40
1
 10
98.822056
 20
98.785210
 30
0.0
 10
99.426951
 20
98.785210
 30
0.0
 10
99.917315
 20
98.294846
 30
0.0
 10
99.917315
 20
97.689951
 30
0.0
  0
LWPOLYLINE
  5
11f
100
AcDbEntity
  8
0
 62
7
100
AcDbPolyline
 90
1
 70
1
 10
92.621930
 20
92.000654
 30
0.0
  0
SPLINE
  5
120
100
AcDbEntity
  8
0
 62
7
100
AcDbSpline
 70
8
 71
3
 72
8
 73
4
 74
0
 40
0
 40
0
 40
0
 40
0
 40
1
 40
1
 40
1
 40
1
 10
107.212702
 20
97.689951
 30
0.0
 10
107.212702
 20
97.085056
 30
0.0
 10
106.722337
 20
96.594692
 30
0.0
 10
106.117442
 20
96.594692
 30
0.0
  0
SPLINE
  5
121
100
AcDbEntity
  8
0
 62
7
100
AcDbSpline
 70
8
 71
3
 72
8
 73
4
 74
0
 40
0
 40
0
 40
0
 40
0
 40
1
 40
1
 40
1
 40
1
 10
106.117442
 20
96.594692
 30
0.0
 10
105.512547
 20
96.594692
 30
0.0
 10
105.022183
 20
97.085056
 30
0.0
 10
105.022183
 20
97.689951
 30
0.0
  0
SPLINE
  5
122
100
AcDbEntity
  8
0
 62
7
100
AcDbSpline
 70
8
 71
3
 72
8
 73
4
 74
0
 40
0
 40
0
 40
0
 40
0
 40
1
 40
1
 40
1
 40
1
 10
105.022183
 20
97.689951
 30
0.0
 10
105.022183
 20
98.294846
 30
0.0
 10
105.512547
 20
98.785210
 30
0.0
 10
106.117442
 20
98.785210
 30
0.0
  0
SPLINE
  5
123
100
AcDbEntity
  8
0
 62
7
100
AcDbSpline
 70
8
 71
3
 72
8
 73
4
 74
0
 40
0
 40
0
 40
0
 40
0
 40
1
 40
1
 40
1
 40
1
 10
106.117442
 20
98.785210
 30
0.0
 10
106.722337
 20
98.785210
 30
0.0
 10
107.212702
 20
98.294846
 30
0.0
 10
107.212702
 20
97.689951
 30
0.0
  0
LWPOLYLINE
  5
124
100
AcDbEntity
  8
0
 62
7
100
AcDbPolyline
 90
1
 70
1
 10
99.917315
 20
97.689951
 30
0.0
  0
SPLINE
  5
125
100
AcDbEntity
  8
0
 62
7
100
AcDbSpline
 70
8
 71
3
 72
8
 73
4
 74
0
 40
0
 40
0
 40
0
 40
0
 40
1
 40
1
 40
1
 40
1
 10
107.212702
 20
92.000654
 30
0.0
 10
107.212702
 20
91.395759
 30
0.0
 10
106.722337
 20
90.905394
 30
0.0
 10
106.117442
 20
90.905394
 30
0.0
  0
SPLINE
  5
126
100
AcDbEntity
  8
0
 62
7
100
AcDbSpline
 70
8
 71
3
 72
8
 73
4
 74
0
 40
0
 40
0
 40
0
 40
0
 40
1
 40
1
 40
1
 40
1
 10
106.117442
 20
90.905394
 30
0.0
 10
105.512547
 20
90.905394
 30
0.0
 10
105.022183
 20
91.395758
 30
0.0
 10
105.022183
 20
92.000654
 30
0.0
  0
SPLINE
  5
127
100
AcDbEntity
  8
0
 62
7
100
AcDbSpline
 70
8
 71
3
 72
8
 73
4
 74
0
 40
0
 40
0
 40
0
 40
0
 40
1
 40
1
 40
1
 40
1
 10
105.022183
 20
92.000654
 30
0.0
 10
105.022183
 20
92.605549
 30
0.0
 10
105.512547
 20
93.095913
 30
0.0
 10
106.117442
 20
93.095913
 30
0.0
  0
SPLINE
  5
128
100
AcDbEntity
  8
0
 62
7
100
AcDbSpline
 70
8
 71
3
 72
8
 73
4
 74
0
 40
0
 40
0
 40
0
 40
0
 40
1
 40
1
 40
1
 40
1
 10
106.117442
 20
93.095913
 30
0.0
 10
106.722337
 20
93.095913
 30
0.0
 10
107.212702
 20
92.605549
 30
0.0
 10
107.212702
 20
92.000654
 30
0.0
  0
LWPOLYLINE
  5
129
100
AcDbEntity
  8
0
 62
7
100
AcDbPolyline
 90
1
 70
1
 10
107.212702
 20
97.689951
 30
0.0
  0
LWPOLYLINE
  5
12a
100
AcDbEntity
  8
0
 62
7
100
AcDbPolyline
 90
1
 70
1
 10
107.212702
 20
92.000654
 30
0.0
  0
LWPOLYLINE
  5
12b
100
AcDbEntity
  8
0
 62
7
100
AcDbPolyline
 90
13
 70
1
 10
90.875902
 20
81.705024
 30
0.0
 10
90.875902
 20
81.971661
 30
0.0
 10
92.525387
 20
82.382073
 30
0.0
 10
90.875902
 20
82.791176
 30
0.0
 10
90.875902
 20
83.087874
 30
0.0
 10
92.525387
 20
83.498286
 30
0.0
 10
90.875902
 20
83.907389
 30
0.0
 10
90.875902
 20
84.175332
 30
0.0
 10
92.827313
 20
83.685192
 30
0.0
 10
92.827313
 20
83.353203
 30
0.0
 10
91.133389
 20
82.941487
 30
0.0
 10
92.827313
 20
82.525848
 30
0.0
 10
92.827313
 20
82.193858
 30
0.0
  0
LWPOLYLINE
  5
12c
100
AcDbEntity
  8
0
 62
7
100
AcDbPolyline
 90
6
 70
1
 10
90.875902
 20
84.524312
 30
0.0
 10
90.875902
 20
84.788334
 30
0.0
 10
92.605115
 20
84.788334
 30
0.0
 10
92.605115
 20
85.738553
 30
0.0
 10
92.827313
 20
85.738553
 30
0.0
 10
92.827313
 20
84.524312
 30
0.0
  0
LWPOLYLINE
  5
12d
100
AcDbEntity
  8
0
 62
7
100
AcDbPolyline
 90
3
 70
1
 10
91.136003
 20
86.729290
 30
0.0
 10
92.107133
 20
86.371160
 30
0.0
 10
92.107133
 20
87.088727
 30
0.0
  0
LWPOLYLINE
  5
12e
100
AcDbEntity
  8
0
 62
7
100
AcDbPolyline
 90
8
 70
1
 10
90.875902
 20
86.580288
 30
0.0
 10
90.875902
 20
86.879599
 30
0.0
 10
92.827313
 20
87.623306
 30
0.0
 10
92.827313
 20
87.348828
 30
0.0
 10
92.326716
 20
87.171070
 30
0.0
 10
92.326716
 20
86.291431
 30
0.0
 10
92.827313
 20
86.113673
 30
0.0
 10
92.827313
 20
85.835274
 30
0.0
  0
SPLINE
  5
12f
100
AcDbEntity
  8
0
 62
7
100
AcDbSpline
 70
8
 71
3
 72
8
 73
4
 74
0
 40
0
 40
0
 40
0
 40
0
 40
1
 40
1
 40
1
 40
1
 10
98.882834
 20
86.960635
 30
0.0
 10
98.902003
 20
87.017274
 30
0.0
 10
98.942957
 20
87.072170
 30
0.0
 10
99.005696
 20
87.125322
 30
0.0
  0
SPLINE
  5
130
100
AcDbEntity
  8
0
 62
7
100
AcDbSpline
 70
8
 71
3
 72
8
 73
4
 74
0
 40
0
 40
0
 40
0
 40
0
 40
1
 40
1
 40
1
 40
1
 10
99.005696
 20
87.125322
 30
0.0
 10
99.068433
 20
87.179346
 30
0.0
 10
99.154698
 20
87.233371
 30
0.0
 10
99.264490
 20
87.287396
 30
0.0
  0
LWPOLYLINE
  5
131
100
AcDbEntity
  8
0
 62
7
100
AcDbPolyline
 90
10
 70
1
 10
90.875902
 20
87.906933
 30
0.0
 10
90.875902
 20
88.262449
 30
0.0
 10
92.508395
 20
89.127710
 30
0.0
 10
90.875902
 20
89.127710
 30
0.0
 10
90.875902
 20
89.383890
 30
0.0
 10
92.827313
 20
89.383890
 30
0.0
 10
92.827313
 20
89.028374
 30
0.0
 10
91.194820
 20
88.163113
 30
0.0
 10
92.827313
 20
88.163113
 30
0.0
 10
92.827313
 20
87.906933
 30
0.0
  0
SPLINE
  5
132
100
AcDbEntity
  8
0
 62
7
100
AcDbSpline
 70
8
 71
3
 72
8
 73
4
 74
0
 40
0
 40
0
 40
0
 40
0
 40
1
 40
1
 40
1
 40
1
 10
99.297165
 20
87.022067
 30
0.0
 10
99.166462
 20
86.957587
 30
0.0
 10
99.079761
 20
86.894849
 30
0.0
 10
99.037064
 20
86.833853
 30
0.0
  0
SPLINE
  5
133
100
AcDbEntity
  8
0
 62
7
100
AcDbSpline
 70
8
 71
3
 72
8
 73
4
 74
0
 40
0
 40
0
 40
0
 40
0
 40
1
 40
1
 40
1
 40
1
 10
99.037064
 20
86.833853
 30
0.0
 10
98.994367
 20
86.773729
 30
0.0
 10
98.973019
 20
86.691386
 30
0.0
 10
98.973019
 20
86.586821
 30
0.0
  0
LWPOLYLINE
  5
134
100
AcDbEntity
  8
0
 62
7
100
AcDbPolyline
 90
4
 70
0
 10
99.264490
 20
87.287396
 30
0.0
 10
99.797762
 20
87.555339
 30
0.0
 10
99.797762
 20
87.271712
 30
0.0
 10
99.297165
 20
87.022067
 30
0.0
  0
SPLINE
  5
135
100
AcDbEntity
  8
0
 62
7
100
AcDbSpline
 70
8
 71
3
 72
8
 73
4
 74
0
 40
0
 40
0
 40
0
 40
0
 40
1
 40
1
 40
1
 40
1
 10
97.846351
 20
86.631261
 30
0.0
 10
97.846351
 20
86.854329
 30
0.0
 10
97.892968
 20
87.020759
 30
0.0
 10
97.986203
 20
87.130551
 30
0.0
  0
SPLINE
  5
136
100
AcDbEntity
  8
0
 62
7
100
AcDbSpline
 70
8
 71
3
 72
8
 73
4
 74
0
 40
0
 40
0
 40
0
 40
0
 40
1
 40
1
 40
1
 40
1
 10
97.986203
 20
87.130551
 30
0.0
 10
98.079439
 20
87.240342
 30
0.0
 10
98.220164
 20
87.295238
 30
0.0
 10
98.408378
 20
87.295238
 30
0.0
  0
SPLINE
  5
137
100
AcDbEntity
  8
0
 62
7
100
AcDbSpline
 70
8
 71
3
 72
8
 73
4
 74
0
 40
0
 40
0
 40
0
 40
0
 40
1
 40
1
 40
1
 40
1
 10
98.408378
 20
87.295238
 30
0.0
 10
98.531240
 20
87.295238
 30
0.0
 10
98.633189
 20
87.266483
 30
0.0
 10
98.714225
 20
87.208973
 30
0.0
  0
SPLINE
  5
138
100
AcDbEntity
  8
0
 62
7
100
AcDbSpline
 70
8
 71
3
 72
8
 73
4
 74
0
 40
0
 40
0
 40
0
 40
0
 40
1
 40
1
 40
1
 40
1
 10
98.714225
 20
87.208973
 30
0.0
 10
98.795261
 20
87.152335
 30
0.0
 10
98.851465
 20
87.069556
 30
0.0
 10
98.882834
 20
86.960635
 30
0.0
  0
LWPOLYLINE
  5
139
100
AcDbEntity
  8
0
 62
7
100
AcDbPolyline
 90
6
 70
0
 10
98.973019
 20
86.586821
 30
0.0
 10
98.973019
 20
86.299273
 30
0.0
 10
99.797762
 20
86.299273
 30
0.0
 10
99.797762
 20
86.035251
 30
0.0
 10
97.846351
 20
86.035251
 30
0.0
 10
97.846351
 20
86.631261
 30
0.0
  0
LWPOLYLINE
  5
13a
100
AcDbEntity
  8
0
 62
7
100
AcDbPolyline
 90
1
 70
1
 10
98.882834
 20
86.960635
 30
0.0
  0
SPLINE
  5
13b
100
AcDbEntity
  8
0
 62
7
100
AcDbSpline
 70
8
 71
3
 72
8
 73
4
 74
0
 40
0
 40
0
 40
0
 40
0
 40
1
 40
1
 40
1
 40
1
 10
98.756051
 20
86.631261
 30
0.0
 10
98.756051
 20
86.758480
 30
0.0
 10
98.726861
 20
86.854330
 30
0.0
 10
98.668479
 20
86.918811
 30
0.0
  0
SPLINE
  5
13c
100
AcDbEntity
  8
0
 62
7
100
AcDbSpline
 70
8
 71
3
 72
8
 73
4
 74
0
 40
0
 40
0
 40
0
 40
0
 40
1
 40
1
 40
1
 40
1
 10
98.668479
 20
86.918811
 30
0.0
 10
98.609226
 20
86.984162
 30
0.0
 10
98.522526
 20
87.016838
 30
0.0
 10
98.408378
 20
87.016838
 30
0.0
  0
SPLINE
  5
13d
100
AcDbEntity
  8
0
 62
7
100
AcDbSpline
 70
8
 71
3
 72
8
 73
4
 74
0
 40
0
 40
0
 40
0
 40
0
 40
1
 40
1
 40
1
 40
1
 10
98.408378
 20
87.016838
 30
0.0
 10
98.294230
 20
87.016838
 30
0.0
 10
98.208401
 20
86.984162
 30
0.0
 10
98.150892
 20
86.918811
 30
0.0
  0
SPLINE
  5
13e
100
AcDbEntity
  8
0
 62
7
100
AcDbSpline
 70
8
 71
3
 72
8
 73
4
 74
0
 40
0
 40
0
 40
0
 40
0
 40
1
 40
1
 40
1
 40
1
 10
98.150892
 20
86.918811
 30
0.0
 10
98.092510
 20
86.854330
 30
0.0
 10
98.063319
 20
86.758480
 30
0.0
 10
98.063319
 20
86.631261
 30
0.0
  0
LWPOLYLINE
  5
13f
100
AcDbEntity
  8
0
 62
7
100
AcDbPolyline
 90
3
 70
0
 10
98.063319
 20
86.299273
 30
0.0
 10
98.756051
 20
86.299273
 30
0.0
 10
98.756051
 20
86.631261
 30
0.0
  0
LWPOLYLINE
  5
140
100
AcDbEntity
  8
0
 62
7
100
AcDbPolyline
 90
2
 70
0
 10
98.063319
 20
86.631261
 30
0.0
 10
98.063319
 20
86.299273
 30
0.0
  0
SPLINE
  5
141
100
AcDbEntity
  8
0
 62
7
100
AcDbSpline
 70
8
 71
3
 72
8
 73
4
 74
0
 40
0
 40
0
 40
0
 40
0
 40
1
 40
1
 40
1
 40
1
 10
105.853283
 20
86.960635
 30
0.0
 10
105.872452
 20
87.017274
 30
0.0
 10
105.913406
 20
87.072170
 30
0.0
 10
105.976145
 20
87.125322
 30
0.0
  0
SPLINE
  5
142
100
AcDbEntity
  8
0
 62
7
100
AcDbSpline
 70
8
 71
3
 72
8
 73
4
 74
0
 40
0
 40
0
 40
0
 40
0
 40
1
 40
1
 40
1
 40
1
 10
105.976145
 20
87.125322
 30
0.0
 10
106.038882
 20
87.179346
 30
0.0
 10
106.125146
 20
87.233371
 30
0.0
 10
106.234937
 20
87.287396
 30
0.0
  0
LWPOLYLINE
  5
143
100
AcDbEntity
  8
0
 62
7
100
AcDbPolyline
 90
12
 70
1
 10
97.846351
 20
87.802370
 30
0.0
 10
97.846351
 20
88.085997
 30
0.0
 10
98.571758
 20
88.570910
 30
0.0
 10
97.846351
 20
89.058436
 30
0.0
 10
97.846351
 20
89.342065
 30
0.0
 10
98.783498
 20
88.714685
 30
0.0
 10
99.797762
 20
89.383890
 30
0.0
 10
99.797762
 20
89.100260
 30
0.0
 10
98.967792
 20
88.551305
 30
0.0
 10
99.797762
 20
87.998427
 30
0.0
 10
99.797762
 20
87.713491
 30
0.0
 10
98.756051
 20
88.410145
 30
0.0
  0
SPLINE
  5
144
100
AcDbEntity
  8
0
 62
7
100
AcDbSpline
 70
8
 71
3
 72
8
 73
4
 74
0
 40
0
 40
0
 40
0
 40
0
 40
1
 40
1
 40
1
 40
1
 10
106.267614
 20
87.022067
 30
0.0
 10
106.136909
 20
86.957587
 30
0.0
 10
106.050209
 20
86.894849
 30
0.0
 10
106.007513
 20
86.833853
 30
0.0
  0
SPLINE
  5
145
100
AcDbEntity
  8
0
 62
7
100
AcDbSpline
 70
8
 71
3
 72
8
 73
4
 74
0
 40
0
 40
0
 40
0
 40
0
 40
1
 40
1
 40
1
 40
1
 10
106.007513
 20
86.833853
 30
0.0
 10
105.964816
 20
86.773729
 30
0.0
 10
105.943468
 20
86.691386
 30
0.0
 10
105.943468
 20
86.586821
 30
0.0
  0
LWPOLYLINE
  5
146
100
AcDbEntity
  8
0
 62
7
100
AcDbPolyline
 90
4
 70
0
 10
106.234937
 20
87.287396
 30
0.0
 10
106.768210
 20
87.555339
 30
0.0
 10
106.768210
 20
87.271712
 30
0.0
 10
106.267614
 20
87.022067
 30
0.0
  0
SPLINE
  5
147
100
AcDbEntity
  8
0
 62
7
100
AcDbSpline
 70
8
 71
3
 72
8
 73
4
 74
0
 40
0
 40
0
 40
0
 40
0
 40
1
 40
1
 40
1
 40
1
 10
104.816798
 20
86.631261
 30
0.0
 10
104.816798
 20
86.854329
 30
0.0
 10
104.863416
 20
87.020759
 30
0.0
 10
104.956652
 20
87.130551
 30
0.0
  0
SPLINE
  5
148
100
AcDbEntity
  8
0
 62
7
100
AcDbSpline
 70
8
 71
3
 72
8
 73
4
 74
0
 40
0
 40
0
 40
0
 40
0
 40
1
 40
1
 40
1
 40
1
 10
104.956652
 20
87.130551
 30
0.0
 10
105.049888
 20
87.240342
 30
0.0
 10
105.190613
 20
87.295238
 30
0.0
 10
105.378827
 20
87.295238
 30
0.0
  0
SPLINE
  5
149
100
AcDbEntity
  8
0
 62
7
100
AcDbSpline
 70
8
 71
3
 72
8
 73
4
 74
0
 40
0
 40
0
 40
0
 40
0
 40
1
 40
1
 40
1
 40
1
 10
105.378827
 20
87.295238
 30
0.0
 10
105.501689
 20
87.295238
 30
0.0
 10
105.603638
 20
87.266483
 30
0.0
 10
105.684673
 20
87.208973
 30
0.0
  0
SPLINE
  5
14a
100
AcDbEntity
  8
0
 62
7
100
AcDbSpline
 70
8
 71
3
 72
8
 73
4
 74
0
 40
0
 40
0
 40
0
 40
0
 40
1
 40
1
 40
1
 40
1
 10
105.684673
 20
87.208973
 30
0.0
 10
105.765710
 20
87.152335
 30
0.0
 10
105.821913
 20
87.069556
 30
0.0
 10
105.853283
 20
86.960635
 30
0.0
  0
LWPOLYLINE
  5
14b
100
AcDbEntity
  8
0
 62
7
100
AcDbPolyline
 90
6
 70
0
 10
105.943468
 20
86.586821
 30
0.0
 10
105.943468
 20
86.299273
 30
0.0
 10
106.768210
 20
86.299273
 30
0.0
 10
106.768210
 20
86.035251
 30
0.0
 10
104.816798
 20
86.035251
 30
0.0
 10
104.816798
 20
86.631261
 30
0.0
  0
LWPOLYLINE
  5
14c
100
AcDbEntity
  8
0
 62
7
100
AcDbPolyline
 90
1
 70
1
 10
105.853283
 20
86.960635
 30
0.0
  0
SPLINE
  5
14d
100
AcDbEntity
  8
0
 62
7
100
AcDbSpline
 70
8
 71
3
 72
8
 73
4
 74
0
 40
0
 40
0
 40
0
 40
0
 40
1
 40
1
 40
1
 40
1
 10
105.726500
 20
86.631261
 30
0.0
 10
105.726500
 20
86.758480
 30
0.0
 10
105.697309
 20
86.854330
 30
0.0
 10
105.638928
 20
86.918811
 30
0.0
  0
SPLINE
  5
14e
100
AcDbEntity
  8
0
 62
7
100
AcDbSpline
 70
8
 71
3
 72
8
 73
4
 74
0
 40
0
 40
0
 40
0
 40
0
 40
1
 40
1
 40
1
 40
1
 10
105.638928
 20
86.918811
 30
0.0
 10
105.579675
 20
86.984162
 30
0.0
 10
105.492975
 20
87.016838
 30
0.0
 10
105.378827
 20
87.016838
 30
0.0
  0
SPLINE
  5
14f
100
AcDbEntity
  8
0
 62
7
100
AcDbSpline
 70
8
 71
3
 72
8
 73
4
 74
0
 40
0
 40
0
 40
0
 40
0
 40
1
 40
1
 40
1
 40
1
 10
105.378827
 20
87.016838
 30
0.0
 10
105.264679
 20
87.016838
 30
0.0
 10
105.178850
 20
86.984162
 30
0.0
 10
105.121340
 20
86.918811
 30
0.0
  0
SPLINE
  5
150
100
AcDbEntity
  8
0
 62
7
100
AcDbSpline
 70
8
 71
3
 72
8
 73
4
 74
0
 40
0
 40
0
 40
0
 40
0
 40
1
 40
1
 40
1
 40
1
 10
105.121340
 20
86.918811
 30
0.0
 10
105.062959
 20
86.854330
 30
0.0
 10
105.033768
 20
86.758480
 30
0.0
 10
105.033768
 20
86.631261
 30
0.0
  0
LWPOLYLINE
  5
151
100
AcDbEntity
  8
0
 62
7
100
AcDbPolyline
 90
3
 70
0
 10
105.033768
 20
86.299273
 30
0.0
 10
105.726500
 20
86.299273
 30
0.0
 10
105.726500
 20
86.631261
 30
0.0
  0
LWPOLYLINE
  5
152
100
AcDbEntity
  8
0
 62
7
100
AcDbPolyline
 90
2
 70
0
 10
105.033768
 20
86.631261
 30
0.0
 10
105.033768
 20
86.299273
 30
0.0
  0
LWPOLYLINE
  5
153
100
AcDbEntity
  8
0
 62
7
100
AcDbPolyline
 90
12
 70
1
 10
104.816798
 20
87.802370
 30
0.0
 10
104.816798
 20
88.085997
 30
0.0
 10
105.542207
 20
88.570910
 30
0.0
 10
104.816798
 20
89.058436
 30
0.0
 10
104.816798
 20
89.342065
 30
0.0
 10
105.753947
 20
88.714685
 30
0.0
 10
106.768210
 20
89.383890
 30
0.0
 10
106.768210
 20
89.100260
 30
0.0
 10
105.938241
 20
88.551305
 30
0.0
 10
106.768210
 20
87.998427
 30
0.0
 10
106.768210
 20
87.713491
 30
0.0
 10
105.726500
 20
88.410145
 30
0.0
  0
SPLINE
  5
154
100
AcDbEntity
  8
0
 62
7
100
AcDbSpline
 70
8
 71
3
 72
8
 73
4
 74
0
 40
0
 40
0
 40
0
 40
0
 40
1
 40
1
 40
1
 40
1
 10
91.341208
 20
101.390252
 30
0.0
 10
91.341208
 20
101.513114
 30
0.0
 10
91.309404
 20
101.608092
 30
0.0
 10
91.245795
 20
101.675187
 30
0.0
  0
SPLINE
  5
155
100
AcDbEntity
  8
0
 62
7
100
AcDbSpline
 70
8
 71
3
 72
8
 73
4
 74
0
 40
0
 40
0
 40
0
 40
0
 40
1
 40
1
 40
1
 40
1
 10
91.245795
 20
101.675187
 30
0.0
 10
91.182185
 20
101.742282
 30
0.0
 10
91.091563
 20
101.775829
 30
0.0
 10
90.973929
 20
101.775829
 30
0.0
  0
SPLINE
  5
156
100
AcDbEntity
  8
0
 62
7
100
AcDbSpline
 70
8
 71
3
 72
8
 73
4
 74
0
 40
0
 40
0
 40
0
 40
0
 40
1
 40
1
 40
1
 40
1
 10
90.973929
 20
101.775829
 30
0.0
 10
90.857167
 20
101.775829
 30
0.0
 10
90.766981
 20
101.742282
 30
0.0
 10
90.703371
 20
101.675187
 30
0.0
  0
SPLINE
  5
157
100
AcDbEntity
  8
0
 62
7
100
AcDbSpline
 70
8
 71
3
 72
8
 73
4
 74
0
 40
0
 40
0
 40
0
 40
0
 40
1
 40
1
 40
1
 40
1
 10
90.703371
 20
101.675187
 30
0.0
 10
90.639763
 20
101.608092
 30
0.0
 10
90.607959
 20
101.513114
 30
0.0
 10
90.607959
 20
101.390252
 30
0.0
  0
LWPOLYLINE
  5
158
100
AcDbEntity
  8
0
 62
7
100
AcDbPolyline
 90
3
 70
0
 10
90.607959
 20
101.058264
 30
0.0
 10
91.341208
 20
101.058264
 30
0.0
 10
91.341208
 20
101.390252
 30
0.0
  0
LWPOLYLINE
  5
159
100
AcDbEntity
  8
0
 62
7
100
AcDbPolyline
 90
2
 70
0
 10
90.607959
 20
101.390252
 30
0.0
 10
90.607959
 20
101.058264
 30
0.0
  0
SPLINE
  5
15a
100
AcDbEntity
  8
0
 62
7
100
AcDbSpline
 70
8
 71
3
 72
8
 73
4
 74
0
 40
0
 40
0
 40
0
 40
0
 40
1
 40
1
 40
1
 40
1
 10
90.390989
 20
101.390252
 30
0.0
 10
90.390989
 20
101.608964
 30
0.0
 10
90.440656
 20
101.774087
 30
0.0
 10
90.539991
 20
101.885621
 30
0.0
  0
SPLINE
  5
15b
100
AcDbEntity
  8
0
 62
7
100
AcDbSpline
 70
8
 71
3
 72
8
 73
4
 74
0
 40
0
 40
0
 40
0
 40
0
 40
1
 40
1
 40
1
 40
1
 10
90.539991
 20
101.885621
 30
0.0
 10
90.638455
 20
101.998026
 30
0.0
 10
90.783101
 20
102.054229
 30
0.0
 10
90.973929
 20
102.054229
 30
0.0
  0
SPLINE
  5
15c
100
AcDbEntity
  8
0
 62
7
100
AcDbSpline
 70
8
 71
3
 72
8
 73
4
 74
0
 40
0
 40
0
 40
0
 40
0
 40
1
 40
1
 40
1
 40
1
 10
90.973929
 20
102.054229
 30
0.0
 10
91.166500
 20
102.054229
 30
0.0
 10
91.312018
 20
101.998026
 30
0.0
 10
91.410482
 20
101.885621
 30
0.0
  0
SPLINE
  5
15d
100
AcDbEntity
  8
0
 62
7
100
AcDbSpline
 70
8
 71
3
 72
8
 73
4
 74
0
 40
0
 40
0
 40
0
 40
0
 40
1
 40
1
 40
1
 40
1
 10
91.410482
 20
101.885621
 30
0.0
 10
91.508946
 20
101.774087
 30
0.0
 10
91.558178
 20
101.608964
 30
0.0
 10
91.558178
 20
101.390252
 30
0.0
  0
LWPOLYLINE
  5
15e
100
AcDbEntity
  8
0
 62
7
100
AcDbPolyline
 90
2
 70
0
 10
90.390989
 20
100.794242
 30
0.0
 10
90.390989
 20
101.390252
 30
0.0
  0
SPLINE
  5
15f
100
AcDbEntity
  8
0
 62
7
100
AcDbSpline
 70
8
 71
3
 72
8
 73
4
 74
0
 40
0
 40
0
 40
0
 40
0
 40
1
 40
1
 40
1
 40
1
 10
91.047124
 20
102.872437
 30
0.0
 10
91.047124
 20
102.743475
 30
0.0
 10
91.097663
 20
102.641526
 30
0.0
 10
91.198741
 20
102.566589
 30
0.0
  0
SPLINE
  5
160
100
AcDbEntity
  8
0
 62
7
100
AcDbSpline
 70
8
 71
3
 72
8
 73
4
 74
0
 40
0
 40
0
 40
0
 40
0
 40
1
 40
1
 40
1
 40
1
 10
91.198741
 20
102.566589
 30
0.0
 10
91.298947
 20
102.491652
 30
0.0
 10
91.436622
 20
102.454184
 30
0.0
 10
91.611765
 20
102.454184
 30
0.0
  0
SPLINE
  5
161
100
AcDbEntity
  8
0
 62
7
100
AcDbSpline
 70
8
 71
3
 72
8
 73
4
 74
0
 40
0
 40
0
 40
0
 40
0
 40
1
 40
1
 40
1
 40
1
 10
91.611765
 20
102.454184
 30
0.0
 10
91.786909
 20
102.454184
 30
0.0
 10
91.925020
 20
102.491216
 30
0.0
 10
92.026098
 20
102.565282
 30
0.0
  0
SPLINE
  5
162
100
AcDbEntity
  8
0
 62
7
100
AcDbSpline
 70
8
 71
3
 72
8
 73
4
 74
0
 40
0
 40
0
 40
0
 40
0
 40
1
 40
1
 40
1
 40
1
 10
92.026098
 20
102.565282
 30
0.0
 10
92.126304
 20
102.640219
 30
0.0
 10
92.176407
 20
102.742604
 30
0.0
 10
92.176407
 20
102.872437
 30
0.0
  0
SPLINE
  5
163
100
AcDbEntity
  8
0
 62
7
100
AcDbSpline
 70
8
 71
3
 72
8
 73
4
 74
0
 40
0
 40
0
 40
0
 40
0
 40
1
 40
1
 40
1
 40
1
 10
92.176407
 20
102.872437
 30
0.0
 10
92.176407
 20
103.000527
 30
0.0
 10
92.125868
 20
103.102040
 30
0.0
 10
92.024790
 20
103.176977
 30
0.0
  0
SPLINE
  5
164
100
AcDbEntity
  8
0
 62
7
100
AcDbSpline
 70
8
 71
3
 72
8
 73
4
 74
0
 40
0
 40
0
 40
0
 40
0
 40
1
 40
1
 40
1
 40
1
 10
92.024790
 20
103.176977
 30
0.0
 10
91.923713
 20
103.251914
 30
0.0
 10
91.786038
 20
103.289382
 30
0.0
 10
91.611765
 20
103.289382
 30
0.0
  0
SPLINE
  5
165
100
AcDbEntity
  8
0
 62
7
100
AcDbSpline
 70
8
 71
3
 72
8
 73
4
 74
0
 40
0
 40
0
 40
0
 40
0
 40
1
 40
1
 40
1
 40
1
 10
91.611765
 20
103.289382
 30
0.0
 10
91.438365
 20
103.289382
 30
0.0
 10
91.301125
 20
103.251914
 30
0.0
 10
91.200047
 20
103.176977
 30
0.0
  0
SPLINE
  5
166
100
AcDbEntity
  8
0
 62
7
100
AcDbSpline
 70
8
 71
3
 72
8
 73
4
 74
0
 40
0
 40
0
 40
0
 40
0
 40
1
 40
1
 40
1
 40
1
 10
91.200047
 20
103.176977
 30
0.0
 10
91.098098
 20
103.102040
 30
0.0
 10
91.047124
 20
103.000527
 30
0.0
 10
91.047124
 20
102.872437
 30
0.0
  0
LWPOLYLINE
  5
167
100
AcDbEntity
  8
0
 62
7
100
AcDbPolyline
 90
5
 70
0
 10
91.558178
 20
101.390252
 30
0.0
 10
91.558178
 20
101.058264
 30
0.0
 10
92.342402
 20
101.058264
 30
0.0
 10
92.342402
 20
100.794242
 30
0.0
 10
90.390989
 20
100.794242
 30
0.0
  0
SPLINE
  5
168
100
AcDbEntity
  8
0
 62
7
100
AcDbSpline
 70
8
 71
3
 72
8
 73
4
 74
0
 40
0
 40
0
 40
0
 40
0
 40
1
 40
1
 40
1
 40
1
 10
90.843225
 20
102.872437
 30
0.0
 10
90.843225
 20
103.081563
 30
0.0
 10
90.911192
 20
103.245815
 30
0.0
 10
91.047124
 20
103.365191
 30
0.0
  0
SPLINE
  5
169
100
AcDbEntity
  8
0
 62
7
100
AcDbSpline
 70
8
 71
3
 72
8
 73
4
 74
0
 40
0
 40
0
 40
0
 40
0
 40
1
 40
1
 40
1
 40
1
 10
91.047124
 20
103.365191
 30
0.0
 10
91.183056
 20
103.484567
 30
0.0
 10
91.371270
 20
103.544256
 30
0.0
 10
91.611765
 20
103.544256
 30
0.0
  0
SPLINE
  5
16a
100
AcDbEntity
  8
0
 62
7
100
AcDbSpline
 70
8
 71
3
 72
8
 73
4
 74
0
 40
0
 40
0
 40
0
 40
0
 40
1
 40
1
 40
1
 40
1
 10
91.611765
 20
103.544256
 30
0.0
 10
91.851390
 20
103.544256
 30
0.0
 10
92.039604
 20
103.484567
 30
0.0
 10
92.176407
 20
103.365191
 30
0.0
  0
SPLINE
  5
16b
100
AcDbEntity
  8
0
 62
7
100
AcDbSpline
 70
8
 71
3
 72
8
 73
4
 74
0
 40
0
 40
0
 40
0
 40
0
 40
1
 40
1
 40
1
 40
1
 10
92.176407
 20
103.365191
 30
0.0
 10
92.312339
 20
103.245815
 30
0.0
 10
92.380305
 20
103.081563
 30
0.0
 10
92.380305
 20
102.872437
 30
0.0
  0
SPLINE
  5
16c
100
AcDbEntity
  8
0
 62
7
100
AcDbSpline
 70
8
 71
3
 72
8
 73
4
 74
0
 40
0
 40
0
 40
0
 40
0
 40
1
 40
1
 40
1
 40
1
 10
92.380305
 20
102.872437
 30
0.0
 10
92.380305
 20
102.662439
 30
0.0
 10
92.312339
 20
102.497752
 30
0.0
 10
92.176407
 20
102.378375
 30
0.0
  0
SPLINE
  5
16d
100
AcDbEntity
  8
0
 62
7
100
AcDbSpline
 70
8
 71
3
 72
8
 73
4
 74
0
 40
0
 40
0
 40
0
 40
0
 40
1
 40
1
 40
1
 40
1
 10
92.176407
 20
102.378375
 30
0.0
 10
92.039604
 20
102.259870
 30
0.0
 10
91.851390
 20
102.200618
 30
0.0
 10
91.611765
 20
102.200618
 30
0.0
  0
SPLINE
  5
16e
100
AcDbEntity
  8
0
 62
7
100
AcDbSpline
 70
8
 71
3
 72
8
 73
4
 74
0
 40
0
 40
0
 40
0
 40
0
 40
1
 40
1
 40
1
 40
1
 10
91.611765
 20
102.200618
 30
0.0
 10
91.371270
 20
102.200618
 30
0.0
 10
91.183056
 20
102.259870
 30
0.0
 10
91.047124
 20
102.378375
 30
0.0
  0
SPLINE
  5
16f
100
AcDbEntity
  8
0
 62
7
100
AcDbSpline
 70
8
 71
3
 72
8
 73
4
 74
0
 40
0
 40
0
 40
0
 40
0
 40
1
 40
1
 40
1
 40
1
 10
91.047124
 20
102.378375
 30
0.0
 10
90.911192
 20
102.497752
 30
0.0
 10
90.843225
 20
102.662439
 30
0.0
 10
90.843225
 20
102.872437
 30
0.0
  0
LWPOLYLINE
  5
170
100
AcDbEntity
  8
0
 62
7
100
AcDbPolyline
 90
1
 70
1
 10
91.047124
 20
102.872437
 30
0.0
  0
LWPOLYLINE
  5
171
100
AcDbEntity
  8
0
 62
7
100
AcDbPolyline
 90
1
 70
1
 10
90.843225
 20
102.872437
 30
0.0
  0
LWPOLYLINE
  5
172
100
AcDbEntity
  8
0
 62
7
100
AcDbPolyline
 90
13
 70
1
 10
90.878517
 20
103.801742
 30
0.0
 10
90.878517
 20
104.042238
 30
0.0
 10
92.020869
 20
104.342857
 30
0.0
 10
90.878517
 20
104.642170
 30
0.0
 10
90.878517
 20
104.925797
 30
0.0
 10
92.020869
 20
105.226417
 30
0.0
 10
90.878517
 20
105.525729
 30
0.0
 10
90.878517
 20
105.766225
 30
0.0
 10
92.342402
 20
105.383262
 30
0.0
 10
92.342402
 20
105.099634
 30
0.0
 10
91.142539
 20
104.784637
 30
0.0
 10
92.342402
 20
104.468333
 30
0.0
 10
92.342402
 20
104.184705
 30
0.0
  0
SPLINE
  5
173
100
AcDbEntity
  8
0
 62
7
100
AcDbSpline
 70
8
 71
3
 72
8
 73
4
 74
0
 40
0
 40
0
 40
0
 40
0
 40
1
 40
1
 40
1
 40
1
 10
91.667968
 20
106.278585
 30
0.0
 10
91.833526
 20
106.289041
 30
0.0
 10
91.959874
 20
106.338708
 30
0.0
 10
92.047009
 20
106.427587
 30
0.0
  0
SPLINE
  5
174
100
AcDbEntity
  8
0
 62
7
100
AcDbSpline
 70
8
 71
3
 72
8
 73
4
 74
0
 40
0
 40
0
 40
0
 40
0
 40
1
 40
1
 40
1
 40
1
 10
92.047009
 20
106.427587
 30
0.0
 10
92.133274
 20
106.517337
 30
0.0
 10
92.176407
 20
106.641942
 30
0.0
 10
92.176407
 20
106.801401
 30
0.0
  0
SPLINE
  5
175
100
AcDbEntity
  8
0
 62
7
100
AcDbSpline
 70
8
 71
3
 72
8
 73
4
 74
0
 40
0
 40
0
 40
0
 40
0
 40
1
 40
1
 40
1
 40
1
 10
92.176407
 20
106.801401
 30
0.0
 10
92.176407
 20
106.893765
 30
0.0
 10
92.165079
 20
106.983080
 30
0.0
 10
92.142424
 20
107.069344
 30
0.0
  0
SPLINE
  5
176
100
AcDbEntity
  8
0
 62
7
100
AcDbSpline
 70
8
 71
3
 72
8
 73
4
 74
0
 40
0
 40
0
 40
0
 40
0
 40
1
 40
1
 40
1
 40
1
 10
92.142424
 20
107.069344
 30
0.0
 10
92.119769
 20
107.156480
 30
0.0
 10
92.085786
 20
107.242745
 30
0.0
 10
92.040476
 20
107.328138
 30
0.0
  0
LWPOLYLINE
  5
177
100
AcDbEntity
  8
0
 62
7
100
AcDbPolyline
 90
3
 70
0
 10
91.550336
 20
107.384341
 30
0.0
 10
91.667968
 20
107.384341
 30
0.0
 10
91.667968
 20
106.278585
 30
0.0
  0
SPLINE
  5
178
100
AcDbEntity
  8
0
 62
7
100
AcDbSpline
 70
8
 71
3
 72
8
 73
4
 74
0
 40
0
 40
0
 40
0
 40
0
 40
1
 40
1
 40
1
 40
1
 10
92.267900
 20
107.328138
 30
0.0
 10
92.304498
 20
107.241874
 30
0.0
 10
92.332381
 20
107.153431
 30
0.0
 10
92.351550
 20
107.062809
 30
0.0
  0
SPLINE
  5
179
100
AcDbEntity
  8
0
 62
7
100
AcDbSpline
 70
8
 71
3
 72
8
 73
4
 74
0
 40
0
 40
0
 40
0
 40
0
 40
1
 40
1
 40
1
 40
1
 10
92.351550
 20
107.062809
 30
0.0
 10
92.370720
 20
106.972188
 30
0.0
 10
92.380305
 20
106.880259
 30
0.0
 10
92.380305
 20
106.787023
 30
0.0
  0
SPLINE
  5
17a
100
AcDbEntity
  8
0
 62
7
100
AcDbSpline
 70
8
 71
3
 72
8
 73
4
 74
0
 40
0
 40
0
 40
0
 40
0
 40
1
 40
1
 40
1
 40
1
 10
92.380305
 20
106.787023
 30
0.0
 10
92.380305
 20
106.553499
 30
0.0
 10
92.312339
 20
106.368335
 30
0.0
 10
92.176407
 20
106.231531
 30
0.0
  0
SPLINE
  5
17b
100
AcDbEntity
  8
0
 62
7
100
AcDbSpline
 70
8
 71
3
 72
8
 73
4
 74
0
 40
0
 40
0
 40
0
 40
0
 40
1
 40
1
 40
1
 40
1
 10
92.176407
 20
106.231531
 30
0.0
 10
92.040474
 20
106.095599
 30
0.0
 10
91.856618
 20
106.027633
 30
0.0
 10
91.624837
 20
106.027633
 30
0.0
  0
SPLINE
  5
17c
100
AcDbEntity
  8
0
 62
7
100
AcDbSpline
 70
8
 71
3
 72
8
 73
4
 74
0
 40
0
 40
0
 40
0
 40
0
 40
1
 40
1
 40
1
 40
1
 10
91.624837
 20
106.027633
 30
0.0
 10
91.385212
 20
106.027633
 30
0.0
 10
91.195255
 20
106.092113
 30
0.0
 10
91.054966
 20
106.221075
 30
0.0
  0
SPLINE
  5
17d
100
AcDbEntity
  8
0
 62
7
100
AcDbSpline
 70
8
 71
3
 72
8
 73
4
 74
0
 40
0
 40
0
 40
0
 40
0
 40
1
 40
1
 40
1
 40
1
 10
91.054966
 20
106.221075
 30
0.0
 10
90.913806
 20
106.350908
 30
0.0
 10
90.843225
 20
106.525615
 30
0.0
 10
90.843225
 20
106.745198
 30
0.0
  0
SPLINE
  5
17e
100
AcDbEntity
  8
0
 62
7
100
AcDbSpline
 70
8
 71
3
 72
8
 73
4
 74
0
 40
0
 40
0
 40
0
 40
0
 40
1
 40
1
 40
1
 40
1
 10
90.843225
 20
106.745198
 30
0.0
 10
90.843225
 20
106.942126
 30
0.0
 10
90.906835
 20
107.097663
 30
0.0
 10
91.034055
 20
107.211812
 30
0.0
  0
SPLINE
  5
17f
100
AcDbEntity
  8
0
 62
7
100
AcDbSpline
 70
8
 71
3
 72
8
 73
4
 74
0
 40
0
 40
0
 40
0
 40
0
 40
1
 40
1
 40
1
 40
1
 10
91.034055
 20
107.211812
 30
0.0
 10
91.160402
 20
107.326831
 30
0.0
 10
91.332496
 20
107.384341
 30
0.0
 10
91.550336
 20
107.384341
 30
0.0
  0
LWPOLYLINE
  5
180
100
AcDbEntity
  8
0
 62
7
100
AcDbPolyline
 90
2
 70
0
 10
92.040476
 20
107.328138
 30
0.0
 10
92.267900
 20
107.328138
 30
0.0
  0
SPLINE
  5
181
100
AcDbEntity
  8
0
 62
7
100
AcDbSpline
 70
8
 71
3
 72
8
 73
4
 74
0
 40
0
 40
0
 40
0
 40
0
 40
1
 40
1
 40
1
 40
1
 10
91.479755
 20
107.143846
 30
0.0
 10
91.348179
 20
107.142102
 30
0.0
 10
91.243180
 20
107.105070
 30
0.0
 10
91.164758
 20
107.032747
 30
0.0
  0
SPLINE
  5
182
100
AcDbEntity
  8
0
 62
7
100
AcDbSpline
 70
8
 71
3
 72
8
 73
4
 74
0
 40
0
 40
0
 40
0
 40
0
 40
1
 40
1
 40
1
 40
1
 10
91.164758
 20
107.032747
 30
0.0
 10
91.086335
 20
106.961296
 30
0.0
 10
91.047124
 20
106.866317
 30
0.0
 10
91.047124
 20
106.747812
 30
0.0
  0
SPLINE
  5
183
100
AcDbEntity
  8
0
 62
7
100
AcDbSpline
 70
8
 71
3
 72
8
 73
4
 74
0
 40
0
 40
0
 40
0
 40
0
 40
1
 40
1
 40
1
 40
1
 10
91.047124
 20
106.747812
 30
0.0
 10
91.047124
 20
106.613623
 30
0.0
 10
91.085028
 20
106.506010
 30
0.0
 10
91.160837
 20
106.424973
 30
0.0
  0
SPLINE
  5
184
100
AcDbEntity
  8
0
 62
7
100
AcDbSpline
 70
8
 71
3
 72
8
 73
4
 74
0
 40
0
 40
0
 40
0
 40
0
 40
1
 40
1
 40
1
 40
1
 10
91.160837
 20
106.424973
 30
0.0
 10
91.236645
 20
106.344808
 30
0.0
 10
91.343386
 20
106.298626
 30
0.0
 10
91.481062
 20
106.286427
 30
0.0
  0
LWPOLYLINE
  5
185
100
AcDbEntity
  8
0
 62
7
100
AcDbPolyline
 90
1
 70
1
 10
91.550336
 20
107.384341
 30
0.0
  0
SPLINE
  5
186
100
AcDbEntity
  8
0
 62
7
100
AcDbSpline
 70
8
 71
3
 72
8
 73
4
 74
0
 40
0
 40
0
 40
0
 40
0
 40
1
 40
1
 40
1
 40
1
 10
91.103326
 20
108.627337
 30
0.0
 10
91.087642
 20
108.600324
 30
0.0
 10
91.076315
 20
108.570698
 30
0.0
 10
91.069344
 20
108.538458
 30
0.0
  0
SPLINE
  5
187
100
AcDbEntity
  8
0
 62
7
100
AcDbSpline
 70
8
 71
3
 72
8
 73
4
 74
0
 40
0
 40
0
 40
0
 40
0
 40
1
 40
1
 40
1
 40
1
 10
91.069344
 20
108.538458
 30
0.0
 10
91.061506
 20
108.507089
 30
0.0
 10
91.057587
 20
108.472234
 30
0.0
 10
91.057587
 20
108.433895
 30
0.0
  0
SPLINE
  5
188
100
AcDbEntity
  8
0
 62
7
100
AcDbSpline
 70
8
 71
3
 72
8
 73
4
 74
0
 40
0
 40
0
 40
0
 40
0
 40
1
 40
1
 40
1
 40
1
 10
91.057587
 20
108.433895
 30
0.0
 10
91.057587
 20
108.297962
 30
0.0
 10
91.102027
 20
108.193399
 30
0.0
 10
91.190905
 20
108.120205
 30
0.0
  0
SPLINE
  5
189
100
AcDbEntity
  8
0
 62
7
100
AcDbSpline
 70
8
 71
3
 72
8
 73
4
 74
0
 40
0
 40
0
 40
0
 40
0
 40
1
 40
1
 40
1
 40
1
 10
91.190905
 20
108.120205
 30
0.0
 10
91.278912
 20
108.047882
 30
0.0
 10
91.405695
 20
108.011720
 30
0.0
 10
91.571253
 20
108.011720
 30
0.0
  0
LWPOLYLINE
  5
18a
100
AcDbEntity
  8
0
 62
7
100
AcDbPolyline
 90
2
 70
0
 10
91.481062
 20
106.286427
 30
0.0
 10
91.479755
 20
107.143846
 30
0.0
  0
SPLINE
  5
18b
100
AcDbEntity
  8
0
 62
7
100
AcDbSpline
 70
8
 71
3
 72
8
 73
4
 74
0
 40
0
 40
0
 40
0
 40
0
 40
1
 40
1
 40
1
 40
1
 10
91.105948
 20
108.011720
 30
0.0
 10
91.017069
 20
108.062259
 30
0.0
 10
90.951281
 20
108.128047
 30
0.0
 10
90.908585
 20
108.209084
 30
0.0
  0
SPLINE
  5
18c
100
AcDbEntity
  8
0
 62
7
100
AcDbSpline
 70
8
 71
3
 72
8
 73
4
 74
0
 40
0
 40
0
 40
0
 40
0
 40
1
 40
1
 40
1
 40
1
 10
90.908585
 20
108.209084
 30
0.0
 10
90.865016
 20
108.290120
 30
0.0
 10
90.843232
 20
108.388584
 30
0.0
 10
90.843232
 20
108.504475
 30
0.0
  0
SPLINE
  5
18d
100
AcDbEntity
  8
0
 62
7
100
AcDbSpline
 70
8
 71
3
 72
8
 73
4
 74
0
 40
0
 40
0
 40
0
 40
0
 40
1
 40
1
 40
1
 40
1
 10
90.843232
 20
108.504475
 30
0.0
 10
90.843232
 20
108.521031
 30
0.0
 10
90.844538
 20
108.539329
 30
0.0
 10
90.847151
 20
108.559370
 30
0.0
  0
SPLINE
  5
18e
100
AcDbEntity
  8
0
 62
7
100
AcDbSpline
 70
8
 71
3
 72
8
 73
4
 74
0
 40
0
 40
0
 40
0
 40
0
 40
1
 40
1
 40
1
 40
1
 10
90.847151
 20
108.559370
 30
0.0
 10
90.848892
 20
108.579412
 30
0.0
 10
90.851940
 20
108.601631
 30
0.0
 10
90.856295
 20
108.626030
 30
0.0
  0
LWPOLYLINE
  5
18f
100
AcDbEntity
  8
0
 62
7
100
AcDbPolyline
 90
6
 70
0
 10
91.571253
 20
108.011720
 30
0.0
 10
92.342408
 20
108.011720
 30
0.0
 10
92.342408
 20
107.769918
 30
0.0
 10
90.878523
 20
107.769918
 30
0.0
 10
90.878523
 20
108.011720
 30
0.0
 10
91.105948
 20
108.011720
 30
0.0
  0
LWPOLYLINE
  5
190
100
AcDbEntity
  8
0
 62
7
100
AcDbPolyline
 90
2
 70
0
 10
90.856295
 20
108.626030
 30
0.0
 10
91.103326
 20
108.627337
 30
0.0
  0
SPLINE
  5
191
100
AcDbEntity
  8
0
 62
7
100
AcDbSpline
 70
8
 71
3
 72
8
 73
4
 74
0
 40
0
 40
0
 40
0
 40
0
 40
1
 40
1
 40
1
 40
1
 10
105.135716
 20
103.897156
 30
0.0
 10
105.135716
 20
103.705457
 30
0.0
 10
105.207167
 20
103.552969
 30
0.0
 10
105.350071
 20
103.439692
 30
0.0
  0
SPLINE
  5
192
100
AcDbEntity
  8
0
 62
7
100
AcDbSpline
 70
8
 71
3
 72
8
 73
4
 74
0
 40
0
 40
0
 40
0
 40
0
 40
1
 40
1
 40
1
 40
1
 10
105.350071
 20
103.439692
 30
0.0
 10
105.492974
 20
103.327287
 30
0.0
 10
105.687724
 20
103.271084
 30
0.0
 10
105.934319
 20
103.271084
 30
0.0
  0
SPLINE
  5
193
100
AcDbEntity
  8
0
 62
7
100
AcDbSpline
 70
8
 71
3
 72
8
 73
4
 74
0
 40
0
 40
0
 40
0
 40
0
 40
1
 40
1
 40
1
 40
1
 10
105.934319
 20
103.271084
 30
0.0
 10
106.180043
 20
103.271084
 30
0.0
 10
106.374356
 20
103.327287
 30
0.0
 10
106.517260
 20
103.439692
 30
0.0
  0
SPLINE
  5
194
100
AcDbEntity
  8
0
 62
7
100
AcDbSpline
 70
8
 71
3
 72
8
 73
4
 74
0
 40
0
 40
0
 40
0
 40
0
 40
1
 40
1
 40
1
 40
1
 10
106.517260
 20
103.439692
 30
0.0
 10
106.660162
 20
103.552969
 30
0.0
 10
106.731613
 20
103.705457
 30
0.0
 10
106.731613
 20
103.897156
 30
0.0
  0
SPLINE
  5
195
100
AcDbEntity
  8
0
 62
7
100
AcDbSpline
 70
8
 71
3
 72
8
 73
4
 74
0
 40
0
 40
0
 40
0
 40
0
 40
1
 40
1
 40
1
 40
1
 10
106.731613
 20
103.897156
 30
0.0
 10
106.731613
 20
104.088856
 30
0.0
 10
106.660162
 20
104.240472
 30
0.0
 10
106.517260
 20
104.352006
 30
0.0
  0
SPLINE
  5
196
100
AcDbEntity
  8
0
 62
7
100
AcDbSpline
 70
8
 71
3
 72
8
 73
4
 74
0
 40
0
 40
0
 40
0
 40
0
 40
1
 40
1
 40
1
 40
1
 10
106.517260
 20
104.352006
 30
0.0
 10
106.374356
 20
104.464412
 30
0.0
 10
106.180043
 20
104.520615
 30
0.0
 10
105.934319
 20
104.520615
 30
0.0
  0
SPLINE
  5
197
100
AcDbEntity
  8
0
 62
7
100
AcDbSpline
 70
8
 71
3
 72
8
 73
4
 74
0
 40
0
 40
0
 40
0
 40
0
 40
1
 40
1
 40
1
 40
1
 10
105.934319
 20
104.520615
 30
0.0
 10
105.687724
 20
104.520615
 30
0.0
 10
105.492974
 20
104.464412
 30
0.0
 10
105.350071
 20
104.352006
 30
0.0
  0
SPLINE
  5
198
100
AcDbEntity
  8
0
 62
7
100
AcDbSpline
 70
8
 71
3
 72
8
 73
4
 74
0
 40
0
 40
0
 40
0
 40
0
 40
1
 40
1
 40
1
 40
1
 10
105.350071
 20
104.352006
 30
0.0
 10
105.207167
 20
104.240472
 30
0.0
 10
105.135716
 20
104.088856
 30
0.0
 10
105.135716
 20
103.897156
 30
0.0
  0
LWPOLYLINE
  5
199
100
AcDbEntity
  8
0
 62
7
100
AcDbPolyline
 90
13
 70
1
 10
104.956652
 20
100.794242
 30
0.0
 10
104.956652
 20
101.187661
 30
0.0
 10
106.284606
 20
101.685644
 30
0.0
 10
104.956652
 20
102.186240
 30
0.0
 10
104.956652
 20
102.579659
 30
0.0
 10
106.908064
 20
102.579659
 30
0.0
 10
106.908064
 20
102.322172
 30
0.0
 10
105.194533
 20
102.322172
 30
0.0
 10
106.532944
 20
101.818962
 30
0.0
 10
106.532944
 20
101.553633
 30
0.0
 10
105.194533
 20
101.050422
 30
0.0
 10
106.908064
 20
101.050422
 30
0.0
 10
106.908064
 20
100.794242
 30
0.0
  0
LWPOLYLINE
  5
19a
100
AcDbEntity
  8
0
 62
7
100
AcDbPolyline
 90
1
 70
1
 10
105.135716
 20
103.897156
 30
0.0
  0
SPLINE
  5
19b
100
AcDbEntity
  8
0
 62
7
100
AcDbSpline
 70
8
 71
3
 72
8
 73
4
 74
0
 40
0
 40
0
 40
0
 40
0
 40
1
 40
1
 40
1
 40
1
 10
106.940741
 20
104.006948
 30
0.0
 10
106.942482
 20
103.978193
 30
0.0
 10
106.943789
 20
103.955973
 30
0.0
 10
106.944659
 20
103.940289
 30
0.0
  0
SPLINE
  5
19c
100
AcDbEntity
  8
0
 62
7
100
AcDbSpline
 70
8
 71
3
 72
8
 73
4
 74
0
 40
0
 40
0
 40
0
 40
0
 40
1
 40
1
 40
1
 40
1
 10
106.944659
 20
103.940289
 30
0.0
 10
106.945516
 20
103.925476
 30
0.0
 10
106.945944
 20
103.911098
 30
0.0
 10
106.945944
 20
103.897156
 30
0.0
  0
SPLINE
  5
19d
100
AcDbEntity
  8
0
 62
7
100
AcDbSpline
 70
8
 71
3
 72
8
 73
4
 74
0
 40
0
 40
0
 40
0
 40
0
 40
1
 40
1
 40
1
 40
1
 10
106.945944
 20
103.897156
 30
0.0
 10
106.945944
 20
103.622678
 30
0.0
 10
106.854451
 20
103.403095
 30
0.0
 10
106.671466
 20
103.238408
 30
0.0
  0
SPLINE
  5
19e
100
AcDbEntity
  8
0
 62
7
100
AcDbSpline
 70
8
 71
3
 72
8
 73
4
 74
0
 40
0
 40
0
 40
0
 40
0
 40
1
 40
1
 40
1
 40
1
 10
106.671466
 20
103.238408
 30
0.0
 10
106.487609
 20
103.074592
 30
0.0
 10
106.241886
 20
102.992684
 30
0.0
 10
105.934296
 20
102.992684
 30
0.0
  0
SPLINE
  5
19f
100
AcDbEntity
  8
0
 62
7
100
AcDbSpline
 70
8
 71
3
 72
8
 73
4
 74
0
 40
0
 40
0
 40
0
 40
0
 40
1
 40
1
 40
1
 40
1
 10
105.934296
 20
102.992684
 30
0.0
 10
105.625834
 20
102.992684
 30
0.0
 10
105.380110
 20
103.074592
 30
0.0
 10
105.197124
 20
103.238408
 30
0.0
  0
SPLINE
  5
1a0
100
AcDbEntity
  8
0
 62
7
100
AcDbSpline
 70
8
 71
3
 72
8
 73
4
 74
0
 40
0
 40
0
 40
0
 40
0
 40
1
 40
1
 40
1
 40
1
 10
105.197124
 20
103.238408
 30
0.0
 10
105.013267
 20
103.403095
 30
0.0
 10
104.921339
 20
103.622678
 30
0.0
 10
104.921339
 20
103.897156
 30
0.0
  0
SPLINE
  5
1a1
100
AcDbEntity
  8
0
 62
7
100
AcDbSpline
 70
8
 71
3
 72
8
 73
4
 74
0
 40
0
 40
0
 40
0
 40
0
 40
1
 40
1
 40
1
 40
1
 10
104.921339
 20
103.897156
 30
0.0
 10
104.921339
 20
104.170763
 30
0.0
 10
105.013267
 20
104.389475
 30
0.0
 10
105.197124
 20
104.553291
 30
0.0
  0
SPLINE
  5
1a2
100
AcDbEntity
  8
0
 62
7
100
AcDbSpline
 70
8
 71
3
 72
8
 73
4
 74
0
 40
0
 40
0
 40
0
 40
0
 40
1
 40
1
 40
1
 40
1
 10
105.197124
 20
104.553291
 30
0.0
 10
105.380110
 20
104.717106
 30
0.0
 10
105.625834
 20
104.799014
 30
0.0
 10
105.934296
 20
104.799014
 30
0.0
  0
SPLINE
  5
1a3
100
AcDbEntity
  8
0
 62
7
100
AcDbSpline
 70
8
 71
3
 72
8
 73
4
 74
0
 40
0
 40
0
 40
0
 40
0
 40
1
 40
1
 40
1
 40
1
 10
105.934296
 20
104.799014
 30
0.0
 10
106.160849
 20
104.799014
 30
0.0
 10
106.354726
 20
104.753268
 30
0.0
 10
106.515928
 20
104.661775
 30
0.0
  0
SPLINE
  5
1a4
100
AcDbEntity
  8
0
 62
7
100
AcDbSpline
 70
8
 71
3
 72
8
 73
4
 74
0
 40
0
 40
0
 40
0
 40
0
 40
1
 40
1
 40
1
 40
1
 10
106.515928
 20
104.661775
 30
0.0
 10
106.677129
 20
104.571154
 30
0.0
 10
106.796070
 20
104.439578
 30
0.0
 10
106.872749
 20
104.267049
 30
0.0
  0
LWPOLYLINE
  5
1a5
100
AcDbEntity
  8
0
 62
7
100
AcDbPolyline
 90
4
 70
0
 10
106.872773
 20
104.267049
 30
0.0
 10
107.253123
 20
104.614722
 30
0.0
 10
107.253123
 20
104.295804
 30
0.0
 10
106.940741
 20
104.006948
 30
0.0
  0
LWPOLYLINE
  5
1a6
100
AcDbEntity
  8
0
 62
7
100
AcDbPolyline
 90
1
 70
1
 10
106.872749
 20
104.267049
 30
0.0
  0
LWPOLYLINE
  5
1a7
100
AcDbEntity
  8
0
 62
7
100
AcDbPolyline
 90
8
 70
1
 10
104.956652
 20
104.941482
 30
0.0
 10
104.956652
 20
106.592274
 30
0.0
 10
105.178849
 20
106.592274
 30
0.0
 10
105.178849
 20
105.899543
 30
0.0
 10
106.908064
 20
105.899543
 30
0.0
 10
106.908064
 20
105.634213
 30
0.0
 10
105.178849
 20
105.634213
 30
0.0
 10
105.178849
 20
104.941482
 30
0.0
  0
LWPOLYLINE
  5
1a8
100
AcDbEntity
  8
0
 62
7
100
AcDbPolyline
 90
8
 70
1
 10
104.956652
 20
106.530843
 30
0.0
 10
104.956652
 20
108.181636
 30
0.0
 10
105.178849
 20
108.181636
 30
0.0
 10
105.178849
 20
107.488904
 30
0.0
 10
106.908064
 20
107.488904
 30
0.0
 10
106.908064
 20
107.223575
 30
0.0
 10
105.178849
 20
107.223575
 30
0.0
 10
105.178849
 20
106.530843
 30
0.0
  0
LWPOLYLINE
  5
1a9
100
AcDbEntity
  8
0
 62
7
100
AcDbPolyline
 90
13
 70
1
 10
97.782959
 20
100.794242
 30
0.0
 10
97.782959
 20
101.187661
 30
0.0
 10
99.110911
 20
101.685644
 30
0.0
 10
97.782959
 20
102.186240
 30
0.0
 10
97.782959
 20
102.579659
 30
0.0
 10
99.734370
 20
102.579659
 30
0.0
 10
99.734370
 20
102.322172
 30
0.0
 10
98.020841
 20
102.322172
 30
0.0
 10
99.359249
 20
101.818962
 30
0.0
 10
99.359249
 20
101.553633
 30
0.0
 10
98.020841
 20
101.050422
 30
0.0
 10
99.734370
 20
101.050422
 30
0.0
 10
99.734370
 20
100.794242
 30
0.0
  0
SPLINE
  5
1aa
100
AcDbEntity
  8
0
 62
7
100
AcDbSpline
 70
8
 71
3
 72
8
 73
4
 74
0
 40
0
 40
0
 40
0
 40
0
 40
1
 40
1
 40
1
 40
1
 10
99.059938
 20
103.241022
 30
0.0
 10
99.225496
 20
103.251478
 30
0.0
 10
99.351843
 20
103.301145
 30
0.0
 10
99.438980
 20
103.390025
 30
0.0
  0
SPLINE
  5
1ab
100
AcDbEntity
  8
0
 62
7
100
AcDbSpline
 70
8
 71
3
 72
8
 73
4
 74
0
 40
0
 40
0
 40
0
 40
0
 40
1
 40
1
 40
1
 40
1
 10
99.438980
 20
103.390025
 30
0.0
 10
99.525245
 20
103.479775
 30
0.0
 10
99.568377
 20
103.604379
 30
0.0
 10
99.568377
 20
103.763838
 30
0.0
  0
SPLINE
  5
1ac
100
AcDbEntity
  8
0
 62
7
100
AcDbSpline
 70
8
 71
3
 72
8
 73
4
 74
0
 40
0
 40
0
 40
0
 40
0
 40
1
 40
1
 40
1
 40
1
 10
99.568377
 20
103.763838
 30
0.0
 10
99.568377
 20
103.856202
 30
0.0
 10
99.557049
 20
103.945517
 30
0.0
 10
99.534392
 20
104.031782
 30
0.0
  0
SPLINE
  5
1ad
100
AcDbEntity
  8
0
 62
7
100
AcDbSpline
 70
8
 71
3
 72
8
 73
4
 74
0
 40
0
 40
0
 40
0
 40
0
 40
1
 40
1
 40
1
 40
1
 10
99.534392
 20
104.031782
 30
0.0
 10
99.511737
 20
104.118918
 30
0.0
 10
99.477754
 20
104.205182
 30
0.0
 10
99.432444
 20
104.290576
 30
0.0
  0
LWPOLYLINE
  5
1ae
100
AcDbEntity
  8
0
 62
7
100
AcDbPolyline
 90
3
 70
0
 10
98.942304
 20
104.346778
 30
0.0
 10
99.059938
 20
104.346778
 30
0.0
 10
99.059938
 20
103.241022
 30
0.0
  0
SPLINE
  5
1af
100
AcDbEntity
  8
0
 62
7
100
AcDbSpline
 70
8
 71
3
 72
8
 73
4
 74
0
 40
0
 40
0
 40
0
 40
0
 40
1
 40
1
 40
1
 40
1
 10
99.659869
 20
104.290576
 30
0.0
 10
99.696466
 20
104.204311
 30
0.0
 10
99.724350
 20
104.115868
 30
0.0
 10
99.743520
 20
104.025246
 30
0.0
  0
SPLINE
  5
1b0
100
AcDbEntity
  8
0
 62
7
100
AcDbSpline
 70
8
 71
3
 72
8
 73
4
 74
0
 40
0
 40
0
 40
0
 40
0
 40
1
 40
1
 40
1
 40
1
 10
99.743520
 20
104.025246
 30
0.0
 10
99.762689
 20
103.934625
 30
0.0
 10
99.772274
 20
103.842696
 30
0.0
 10
99.772274
 20
103.749461
 30
0.0
  0
SPLINE
  5
1b1
100
AcDbEntity
  8
0
 62
7
100
AcDbSpline
 70
8
 71
3
 72
8
 73
4
 74
0
 40
0
 40
0
 40
0
 40
0
 40
1
 40
1
 40
1
 40
1
 10
99.772274
 20
103.749461
 30
0.0
 10
99.772274
 20
103.515936
 30
0.0
 10
99.704308
 20
103.330772
 30
0.0
 10
99.568377
 20
103.193968
 30
0.0
  0
SPLINE
  5
1b2
100
AcDbEntity
  8
0
 62
7
100
AcDbSpline
 70
8
 71
3
 72
8
 73
4
 74
0
 40
0
 40
0
 40
0
 40
0
 40
1
 40
1
 40
1
 40
1
 10
99.568377
 20
103.193968
 30
0.0
 10
99.432445
 20
103.058036
 30
0.0
 10
99.248588
 20
102.990070
 30
0.0
 10
99.016805
 20
102.990070
 30
0.0
  0
SPLINE
  5
1b3
100
AcDbEntity
  8
0
 62
7
100
AcDbSpline
 70
8
 71
3
 72
8
 73
4
 74
0
 40
0
 40
0
 40
0
 40
0
 40
1
 40
1
 40
1
 40
1
 10
99.016805
 20
102.990070
 30
0.0
 10
98.777181
 20
102.990070
 30
0.0
 10
98.587224
 20
103.054551
 30
0.0
 10
98.446934
 20
103.183512
 30
0.0
  0
SPLINE
  5
1b4
100
AcDbEntity
  8
0
 62
7
100
AcDbSpline
 70
8
 71
3
 72
8
 73
4
 74
0
 40
0
 40
0
 40
0
 40
0
 40
1
 40
1
 40
1
 40
1
 10
98.446934
 20
103.183512
 30
0.0
 10
98.305774
 20
103.313345
 30
0.0
 10
98.235194
 20
103.488053
 30
0.0
 10
98.235194
 20
103.707635
 30
0.0
  0
SPLINE
  5
1b5
100
AcDbEntity
  8
0
 62
7
100
AcDbSpline
 70
8
 71
3
 72
8
 73
4
 74
0
 40
0
 40
0
 40
0
 40
0
 40
1
 40
1
 40
1
 40
1
 10
98.235194
 20
103.707635
 30
0.0
 10
98.235194
 20
103.904563
 30
0.0
 10
98.298804
 20
104.060101
 30
0.0
 10
98.426023
 20
104.174249
 30
0.0
  0
SPLINE
  5
1b6
100
AcDbEntity
  8
0
 62
7
100
AcDbSpline
 70
8
 71
3
 72
8
 73
4
 74
0
 40
0
 40
0
 40
0
 40
0
 40
1
 40
1
 40
1
 40
1
 10
98.426023
 20
104.174249
 30
0.0
 10
98.552370
 20
104.289269
 30
0.0
 10
98.724464
 20
104.346778
 30
0.0
 10
98.942304
 20
104.346778
 30
0.0
  0
LWPOLYLINE
  5
1b7
100
AcDbEntity
  8
0
 62
7
100
AcDbPolyline
 90
2
 70
0
 10
99.432444
 20
104.290576
 30
0.0
 10
99.659869
 20
104.290576
 30
0.0
  0
SPLINE
  5
1b8
100
AcDbEntity
  8
0
 62
7
100
AcDbSpline
 70
8
 71
3
 72
8
 73
4
 74
0
 40
0
 40
0
 40
0
 40
0
 40
1
 40
1
 40
1
 40
1
 10
98.871724
 20
104.106283
 30
0.0
 10
98.740149
 20
104.104540
 30
0.0
 10
98.635150
 20
104.067507
 30
0.0
 10
98.556727
 20
103.995184
 30
0.0
  0
SPLINE
  5
1b9
100
AcDbEntity
  8
0
 62
7
100
AcDbSpline
 70
8
 71
3
 72
8
 73
4
 74
0
 40
0
 40
0
 40
0
 40
0
 40
1
 40
1
 40
1
 40
1
 10
98.556727
 20
103.995184
 30
0.0
 10
98.478304
 20
103.923733
 30
0.0
 10
98.439092
 20
103.828754
 30
0.0
 10
98.439092
 20
103.710249
 30
0.0
  0
SPLINE
  5
1ba
100
AcDbEntity
  8
0
 62
7
100
AcDbSpline
 70
8
 71
3
 72
8
 73
4
 74
0
 40
0
 40
0
 40
0
 40
0
 40
1
 40
1
 40
1
 40
1
 10
98.439092
 20
103.710249
 30
0.0
 10
98.439092
 20
103.576060
 30
0.0
 10
98.476997
 20
103.468447
 30
0.0
 10
98.552806
 20
103.387411
 30
0.0
  0
SPLINE
  5
1bb
100
AcDbEntity
  8
0
 62
7
100
AcDbSpline
 70
8
 71
3
 72
8
 73
4
 74
0
 40
0
 40
0
 40
0
 40
0
 40
1
 40
1
 40
1
 40
1
 10
98.552806
 20
103.387411
 30
0.0
 10
98.628615
 20
103.307245
 30
0.0
 10
98.735356
 20
103.261063
 30
0.0
 10
98.873030
 20
103.248864
 30
0.0
  0
LWPOLYLINE
  5
1bc
100
AcDbEntity
  8
0
 62
7
100
AcDbPolyline
 90
1
 70
1
 10
98.942304
 20
104.346778
 30
0.0
  0
LWPOLYLINE
  5
1bd
100
AcDbEntity
  8
0
 62
7
100
AcDbPolyline
 90
2
 70
0
 10
98.873030
 20
103.248864
 30
0.0
 10
98.871724
 20
104.106283
 30
0.0
  0
SPLINE
  5
1be
100
AcDbEntity
  8
0
 62
7
100
AcDbSpline
 70
8
 71
3
 72
8
 73
4
 74
0
 40
0
 40
0
 40
0
 40
0
 40
1
 40
1
 40
1
 40
1
 10
98.541043
 20
105.674732
 30
0.0
 10
98.506188
 20
105.606766
 30
0.0
 10
98.480048
 20
105.536185
 30
0.0
 10
98.462620
 20
105.462991
 30
0.0
  0
SPLINE
  5
1bf
100
AcDbEntity
  8
0
 62
7
100
AcDbSpline
 70
8
 71
3
 72
8
 73
4
 74
0
 40
0
 40
0
 40
0
 40
0
 40
1
 40
1
 40
1
 40
1
 10
98.462620
 20
105.462991
 30
0.0
 10
98.445193
 20
105.389797
 30
0.0
 10
98.436480
 20
105.313988
 30
0.0
 10
98.436480
 20
105.235566
 30
0.0
  0
SPLINE
  5
1c0
100
AcDbEntity
  8
0
 62
7
100
AcDbSpline
 70
8
 71
3
 72
8
 73
4
 74
0
 40
0
 40
0
 40
0
 40
0
 40
1
 40
1
 40
1
 40
1
 10
98.436480
 20
105.235566
 30
0.0
 10
98.436480
 20
105.116190
 30
0.0
 10
98.454778
 20
105.026440
 30
0.0
 10
98.491374
 20
104.966316
 30
0.0
  0
SPLINE
  5
1c1
100
AcDbEntity
  8
0
 62
7
100
AcDbSpline
 70
8
 71
3
 72
8
 73
4
 74
0
 40
0
 40
0
 40
0
 40
0
 40
1
 40
1
 40
1
 40
1
 10
98.491374
 20
104.966316
 30
0.0
 10
98.527971
 20
104.907063
 30
0.0
 10
98.582867
 20
104.877437
 30
0.0
 10
98.656062
 20
104.877437
 30
0.0
  0
SPLINE
  5
1c2
100
AcDbEntity
  8
0
 62
7
100
AcDbSpline
 70
8
 71
3
 72
8
 73
4
 74
0
 40
0
 40
0
 40
0
 40
0
 40
1
 40
1
 40
1
 40
1
 10
98.656062
 20
104.877437
 30
0.0
 10
98.711829
 20
104.877437
 30
0.0
 10
98.755832
 20
104.898785
 30
0.0
 10
98.788072
 20
104.941482
 30
0.0
  0
SPLINE
  5
1c3
100
AcDbEntity
  8
0
 62
7
100
AcDbSpline
 70
8
 71
3
 72
8
 73
4
 74
0
 40
0
 40
0
 40
0
 40
0
 40
1
 40
1
 40
1
 40
1
 10
98.788072
 20
104.941482
 30
0.0
 10
98.819442
 20
104.984179
 30
0.0
 10
98.849504
 20
105.070008
 30
0.0
 10
98.878260
 20
105.198969
 30
0.0
  0
LWPOLYLINE
  5
1c4
100
AcDbEntity
  8
0
 62
7
100
AcDbPolyline
 90
2
 70
0
 10
98.313618
 20
105.674732
 30
0.0
 10
98.541043
 20
105.674732
 30
0.0
  0
SPLINE
  5
1c5
100
AcDbEntity
  8
0
 62
7
100
AcDbSpline
 70
8
 71
3
 72
8
 73
4
 74
0
 40
0
 40
0
 40
0
 40
0
 40
1
 40
1
 40
1
 40
1
 10
98.896548
 20
105.281313
 30
0.0
 10
98.933144
 20
105.452099
 30
0.0
 10
98.984989
 20
105.573218
 30
0.0
 10
99.052083
 20
105.644670
 30
0.0
  0
SPLINE
  5
1c6
100
AcDbEntity
  8
0
 62
7
100
AcDbSpline
 70
8
 71
3
 72
8
 73
4
 74
0
 40
0
 40
0
 40
0
 40
0
 40
1
 40
1
 40
1
 40
1
 10
99.052083
 20
105.644670
 30
0.0
 10
99.118307
 20
105.716993
 30
0.0
 10
99.211107
 20
105.753154
 30
0.0
 10
99.330483
 20
105.753154
 30
0.0
  0
SPLINE
  5
1c7
100
AcDbEntity
  8
0
 62
7
100
AcDbSpline
 70
8
 71
3
 72
8
 73
4
 74
0
 40
0
 40
0
 40
0
 40
0
 40
1
 40
1
 40
1
 40
1
 10
99.330483
 20
105.753154
 30
0.0
 10
99.466415
 20
105.753154
 30
0.0
 10
99.574029
 20
105.699130
 30
0.0
 10
99.653322
 20
105.591081
 30
0.0
  0
SPLINE
  5
1c8
100
AcDbEntity
  8
0
 62
7
100
AcDbSpline
 70
8
 71
3
 72
8
 73
4
 74
0
 40
0
 40
0
 40
0
 40
0
 40
1
 40
1
 40
1
 40
1
 10
99.653322
 20
105.591081
 30
0.0
 10
99.732616
 20
105.483904
 30
0.0
 10
99.772263
 20
105.336208
 30
0.0
 10
99.772263
 20
105.147994
 30
0.0
  0
SPLINE
  5
1c9
100
AcDbEntity
  8
0
 62
7
100
AcDbSpline
 70
8
 71
3
 72
8
 73
4
 74
0
 40
0
 40
0
 40
0
 40
0
 40
1
 40
1
 40
1
 40
1
 10
99.772263
 20
105.147994
 30
0.0
 10
99.772263
 20
105.069572
 30
0.0
 10
99.764421
 20
104.987664
 30
0.0
 10
99.748737
 20
104.902271
 30
0.0
  0
SPLINE
  5
1ca
100
AcDbEntity
  8
0
 62
7
100
AcDbSpline
 70
8
 71
3
 72
8
 73
4
 74
0
 40
0
 40
0
 40
0
 40
0
 40
1
 40
1
 40
1
 40
1
 10
99.748737
 20
104.902271
 30
0.0
 10
99.733924
 20
104.817749
 30
0.0
 10
99.711269
 20
104.728434
 30
0.0
 10
99.680771
 20
104.634327
 30
0.0
  0
LWPOLYLINE
  5
1cb
100
AcDbEntity
  8
0
 62
7
100
AcDbPolyline
 90
2
 70
0
 10
98.878260
 20
105.198969
 30
0.0
 10
98.896548
 20
105.281313
 30
0.0
  0
SPLINE
  5
1cc
100
AcDbEntity
  8
0
 62
7
100
AcDbSpline
 70
8
 71
3
 72
8
 73
4
 74
0
 40
0
 40
0
 40
0
 40
0
 40
1
 40
1
 40
1
 40
1
 10
99.432433
 20
104.634327
 30
0.0
 10
99.478616
 20
104.723206
 30
0.0
 10
99.513470
 20
104.810778
 30
0.0
 10
99.536996
 20
104.897042
 30
0.0
  0
SPLINE
  5
1cd
100
AcDbEntity
  8
0
 62
7
100
AcDbSpline
 70
8
 71
3
 72
8
 73
4
 74
0
 40
0
 40
0
 40
0
 40
0
 40
1
 40
1
 40
1
 40
1
 10
99.536996
 20
104.897042
 30
0.0
 10
99.559652
 20
104.983307
 30
0.0
 10
99.570979
 20
105.068701
 30
0.0
 10
99.570979
 20
105.153223
 30
0.0
  0
SPLINE
  5
1ce
100
AcDbEntity
  8
0
 62
7
100
AcDbSpline
 70
8
 71
3
 72
8
 73
4
 74
0
 40
0
 40
0
 40
0
 40
0
 40
1
 40
1
 40
1
 40
1
 10
99.570979
 20
105.153223
 30
0.0
 10
99.570979
 20
105.266499
 30
0.0
 10
99.551810
 20
105.353635
 30
0.0
 10
99.513470
 20
105.414631
 30
0.0
  0
SPLINE
  5
1cf
100
AcDbEntity
  8
0
 62
7
100
AcDbSpline
 70
8
 71
3
 72
8
 73
4
 74
0
 40
0
 40
0
 40
0
 40
0
 40
1
 40
1
 40
1
 40
1
 10
99.513470
 20
105.414631
 30
0.0
 10
99.474259
 20
105.475626
 30
0.0
 10
99.419363
 20
105.506123
 30
0.0
 10
99.348782
 20
105.506123
 30
0.0
  0
SPLINE
  5
1d0
100
AcDbEntity
  8
0
 62
7
100
AcDbSpline
 70
8
 71
3
 72
8
 73
4
 74
0
 40
0
 40
0
 40
0
 40
0
 40
1
 40
1
 40
1
 40
1
 10
99.348782
 20
105.506123
 30
0.0
 10
99.283430
 20
105.506123
 30
0.0
 10
99.233328
 20
105.483904
 30
0.0
 10
99.198473
 20
105.439465
 30
0.0
  0
SPLINE
  5
1d1
100
AcDbEntity
  8
0
 62
7
100
AcDbSpline
 70
8
 71
3
 72
8
 73
4
 74
0
 40
0
 40
0
 40
0
 40
0
 40
1
 40
1
 40
1
 40
1
 10
99.198473
 20
105.439465
 30
0.0
 10
99.163619
 20
105.395896
 30
0.0
 10
99.130072
 20
105.299611
 30
0.0
 10
99.097831
 20
105.150608
 30
0.0
  0
LWPOLYLINE
  5
1d2
100
AcDbEntity
  8
0
 62
7
100
AcDbPolyline
 90
2
 70
0
 10
99.680771
 20
104.634327
 30
0.0
 10
99.432433
 20
104.634327
 30
0.0
  0
SPLINE
  5
1d3
100
AcDbEntity
  8
0
 62
7
100
AcDbSpline
 70
8
 71
3
 72
8
 73
4
 74
0
 40
0
 40
0
 40
0
 40
0
 40
1
 40
1
 40
1
 40
1
 10
99.078216
 20
105.066958
 30
0.0
 10
99.046848
 20
104.917955
 30
0.0
 10
98.998923
 20
104.810342
 30
0.0
 10
98.934443
 20
104.744119
 30
0.0
  0
SPLINE
  5
1d4
100
AcDbEntity
  8
0
 62
7
100
AcDbSpline
 70
8
 71
3
 72
8
 73
4
 74
0
 40
0
 40
0
 40
0
 40
0
 40
1
 40
1
 40
1
 40
1
 10
98.934443
 20
104.744119
 30
0.0
 10
98.869090
 20
104.677895
 30
0.0
 10
98.779776
 20
104.644784
 30
0.0
 10
98.666500
 20
104.644784
 30
0.0
  0
SPLINE
  5
1d5
100
AcDbEntity
  8
0
 62
7
100
AcDbSpline
 70
8
 71
3
 72
8
 73
4
 74
0
 40
0
 40
0
 40
0
 40
0
 40
1
 40
1
 40
1
 40
1
 10
98.666500
 20
104.644784
 30
0.0
 10
98.528824
 20
104.644784
 30
0.0
 10
98.422518
 20
104.693580
 30
0.0
 10
98.347582
 20
104.791172
 30
0.0
  0
SPLINE
  5
1d6
100
AcDbEntity
  8
0
 62
7
100
AcDbSpline
 70
8
 71
3
 72
8
 73
4
 74
0
 40
0
 40
0
 40
0
 40
0
 40
1
 40
1
 40
1
 40
1
 10
98.347582
 20
104.791172
 30
0.0
 10
98.272644
 20
104.888765
 30
0.0
 10
98.235175
 20
105.027311
 30
0.0
 10
98.235175
 20
105.206811
 30
0.0
  0
SPLINE
  5
1d7
100
AcDbEntity
  8
0
 62
7
100
AcDbSpline
 70
8
 71
3
 72
8
 73
4
 74
0
 40
0
 40
0
 40
0
 40
0
 40
1
 40
1
 40
1
 40
1
 10
98.235175
 20
105.206811
 30
0.0
 10
98.235175
 20
105.295690
 30
0.0
 10
98.241713
 20
105.379341
 30
0.0
 10
98.254790
 20
105.457763
 30
0.0
  0
SPLINE
  5
1d8
100
AcDbEntity
  8
0
 62
7
100
AcDbSpline
 70
8
 71
3
 72
8
 73
4
 74
0
 40
0
 40
0
 40
0
 40
0
 40
1
 40
1
 40
1
 40
1
 10
98.254790
 20
105.457763
 30
0.0
 10
98.267853
 20
105.536185
 30
0.0
 10
98.287459
 20
105.608508
 30
0.0
 10
98.313607
 20
105.674732
 30
0.0
  0
LWPOLYLINE
  5
1d9
100
AcDbEntity
  8
0
 62
7
100
AcDbPolyline
 90
2
 70
0
 10
99.097831
 20
105.150608
 30
0.0
 10
99.078216
 20
105.066958
 30
0.0
  0
LWPOLYLINE
  5
1da
100
AcDbEntity
  8
0
 62
7
100
AcDbPolyline
 90
1
 70
1
 10
98.313607
 20
105.674732
 30
0.0
  0
SPLINE
  5
1db
100
AcDbEntity
  8
0
 62
7
100
AcDbSpline
 70
8
 71
3
 72
8
 73
4
 74
0
 40
0
 40
0
 40
0
 40
0
 40
1
 40
1
 40
1
 40
1
 10
98.858652
 20
107.113784
 30
0.0
 10
98.720106
 20
107.113784
 30
0.0
 10
98.616415
 20
107.086771
 30
0.0
 10
98.547578
 20
107.032747
 30
0.0
  0
SPLINE
  5
1dc
100
AcDbEntity
  8
0
 62
7
100
AcDbSpline
 70
8
 71
3
 72
8
 73
4
 74
0
 40
0
 40
0
 40
0
 40
0
 40
1
 40
1
 40
1
 40
1
 10
98.547578
 20
107.032747
 30
0.0
 10
98.478741
 20
106.978723
 30
0.0
 10
98.444322
 20
106.897686
 30
0.0
 10
98.444322
 20
106.789638
 30
0.0
  0
SPLINE
  5
1dd
100
AcDbEntity
  8
0
 62
7
100
AcDbSpline
 70
8
 71
3
 72
8
 73
4
 74
0
 40
0
 40
0
 40
0
 40
0
 40
1
 40
1
 40
1
 40
1
 10
98.444322
 20
106.789638
 30
0.0
 10
98.444322
 20
106.659805
 30
0.0
 10
98.485711
 20
106.557420
 30
0.0
 10
98.568490
 20
106.482483
 30
0.0
  0
SPLINE
  5
1de
100
AcDbEntity
  8
0
 62
7
100
AcDbSpline
 70
8
 71
3
 72
8
 73
4
 74
0
 40
0
 40
0
 40
0
 40
0
 40
1
 40
1
 40
1
 40
1
 10
98.568490
 20
106.482483
 30
0.0
 10
98.651270
 20
106.407546
 30
0.0
 10
98.764111
 20
106.370078
 30
0.0
 10
98.907013
 20
106.370078
 30
0.0
  0
LWPOLYLINE
  5
1df
100
AcDbEntity
  8
0
 62
7
100
AcDbPolyline
 90
4
 70
0
 10
98.850810
 20
107.354279
 30
0.0
 10
99.734370
 20
107.354279
 30
0.0
 10
99.734370
 20
107.113784
 30
0.0
 10
98.858652
 20
107.113784
 30
0.0
  0
SPLINE
  5
1e0
100
AcDbEntity
  8
0
 62
7
100
AcDbSpline
 70
8
 71
3
 72
8
 73
4
 74
0
 40
0
 40
0
 40
0
 40
0
 40
1
 40
1
 40
1
 40
1
 10
98.497910
 20
106.370078
 30
0.0
 10
98.409903
 20
106.427587
 30
0.0
 10
98.344115
 20
106.495118
 30
0.0
 10
98.300547
 20
106.572669
 30
0.0
  0
SPLINE
  5
1e1
100
AcDbEntity
  8
0
 62
7
100
AcDbSpline
 70
8
 71
3
 72
8
 73
4
 74
0
 40
0
 40
0
 40
0
 40
0
 40
1
 40
1
 40
1
 40
1
 10
98.300547
 20
106.572669
 30
0.0
 10
98.256978
 20
106.651091
 30
0.0
 10
98.235194
 20
106.741277
 30
0.0
 10
98.235194
 20
106.843226
 30
0.0
  0
SPLINE
  5
1e2
100
AcDbEntity
  8
0
 62
7
100
AcDbSpline
 70
8
 71
3
 72
8
 73
4
 74
0
 40
0
 40
0
 40
0
 40
0
 40
1
 40
1
 40
1
 40
1
 10
98.235194
 20
106.843226
 30
0.0
 10
98.235194
 20
107.011399
 30
0.0
 10
98.287476
 20
107.138617
 30
0.0
 10
98.392040
 20
107.224882
 30
0.0
  0
SPLINE
  5
1e3
100
AcDbEntity
  8
0
 62
7
100
AcDbSpline
 70
8
 71
3
 72
8
 73
4
 74
0
 40
0
 40
0
 40
0
 40
0
 40
1
 40
1
 40
1
 40
1
 10
98.392040
 20
107.224882
 30
0.0
 10
98.495732
 20
107.311147
 30
0.0
 10
98.648656
 20
107.354279
 30
0.0
 10
98.850810
 20
107.354279
 30
0.0
  0
LWPOLYLINE
  5
1e4
100
AcDbEntity
  8
0
 62
7
100
AcDbPolyline
 90
6
 70
0
 10
98.907013
 20
106.370078
 30
0.0
 10
99.734370
 20
106.370078
 30
0.0
 10
99.734370
 20
106.128275
 30
0.0
 10
97.700614
 20
106.128275
 30
0.0
 10
97.700614
 20
106.370078
 30
0.0
 10
98.497910
 20
106.370078
 30
0.0
  0
LWPOLYLINE
  5
1e5
100
AcDbEntity
  8
0
 62
7
100
AcDbPolyline
 90
1
 70
1
 10
98.850810
 20
107.354279
 30
0.0
  0
LWPOLYLINE
  5
1e6
100
AcDbEntity
  8
0
 62
7
100
AcDbPolyline
 90
4
 70
1
 10
7.093788
 20
97.149428
 30
0.0
 10
11.447402
 20
97.149428
 30
0.0
 10
11.447402
 20
92.541180
 30
0.0
 10
7.093788
 20
92.541180
 30
0.0
  0
ENDSEC
  0
SECTION
  2
OBJECTS
  0
DICTIONARY
  5
C
330
0
100
AcDbDictionary
  3
ACAD_GROUP
350
D
  3
ACAD_MLINESTYLE
350
17
  0
DICTIONARY
  5
D
330
C
100
AcDbDictionary
  0
DICTIONARY
  5
1A
330
C
100
AcDbDictionary
  0
DICTIONARY
  5
17
330
C
100
AcDbDictionary
  3
STANDARD
350
18
  0
DICTIONARY
  5
19
330
C
100
AcDbDictionary
  0
ENDSEC
  0
EOF
