G04 #@! TF.GenerationSoftware,KiCad,Pcbnew,5.0.1*
G04 #@! TF.CreationDate,2019-04-16T11:18:19+02:00*
G04 #@! TF.ProjectId,wasserschaden_smd,7761737365727363686164656E5F736D,rev?*
G04 #@! TF.SameCoordinates,Original*
G04 #@! TF.FileFunction,Soldermask,Bot*
G04 #@! TF.FilePolarity,Negative*
%FSLAX46Y46*%
G04 Gerber Fmt 4.6, Leading zero omitted, Abs format (unit mm)*
G04 Created by KiCad (PCBNEW 5.0.1) date Di 16 Apr 2019 11:18:19 CEST*
%MOMM*%
%LPD*%
G01*
G04 APERTURE LIST*
%ADD10C,0.100000*%
G04 APERTURE END LIST*
D10*
G36*
X147635770Y-135055372D02*
X147751689Y-135078429D01*
X147933678Y-135153811D01*
X148097463Y-135263249D01*
X148236751Y-135402537D01*
X148346189Y-135566322D01*
X148421571Y-135748311D01*
X148437565Y-135828720D01*
X148460000Y-135941507D01*
X148460000Y-136138493D01*
X148444628Y-136215770D01*
X148421571Y-136331689D01*
X148346189Y-136513678D01*
X148236751Y-136677463D01*
X148097463Y-136816751D01*
X147933678Y-136926189D01*
X147751689Y-137001571D01*
X147635770Y-137024628D01*
X147558493Y-137040000D01*
X147361507Y-137040000D01*
X147284230Y-137024628D01*
X147168311Y-137001571D01*
X146986322Y-136926189D01*
X146822537Y-136816751D01*
X146683249Y-136677463D01*
X146573811Y-136513678D01*
X146498429Y-136331689D01*
X146475372Y-136215770D01*
X146460000Y-136138493D01*
X146460000Y-135941507D01*
X146482435Y-135828720D01*
X146498429Y-135748311D01*
X146573811Y-135566322D01*
X146683249Y-135402537D01*
X146822537Y-135263249D01*
X146986322Y-135153811D01*
X147168311Y-135078429D01*
X147284230Y-135055372D01*
X147361507Y-135040000D01*
X147558493Y-135040000D01*
X147635770Y-135055372D01*
X147635770Y-135055372D01*
G37*
G36*
X150175770Y-135055372D02*
X150291689Y-135078429D01*
X150473678Y-135153811D01*
X150637463Y-135263249D01*
X150776751Y-135402537D01*
X150886189Y-135566322D01*
X150961571Y-135748311D01*
X150977565Y-135828720D01*
X151000000Y-135941507D01*
X151000000Y-136138493D01*
X150984628Y-136215770D01*
X150961571Y-136331689D01*
X150886189Y-136513678D01*
X150776751Y-136677463D01*
X150637463Y-136816751D01*
X150473678Y-136926189D01*
X150291689Y-137001571D01*
X150175770Y-137024628D01*
X150098493Y-137040000D01*
X149901507Y-137040000D01*
X149824230Y-137024628D01*
X149708311Y-137001571D01*
X149526322Y-136926189D01*
X149362537Y-136816751D01*
X149223249Y-136677463D01*
X149113811Y-136513678D01*
X149038429Y-136331689D01*
X149015372Y-136215770D01*
X149000000Y-136138493D01*
X149000000Y-135941507D01*
X149022435Y-135828720D01*
X149038429Y-135748311D01*
X149113811Y-135566322D01*
X149223249Y-135402537D01*
X149362537Y-135263249D01*
X149526322Y-135153811D01*
X149708311Y-135078429D01*
X149824230Y-135055372D01*
X149901507Y-135040000D01*
X150098493Y-135040000D01*
X150175770Y-135055372D01*
X150175770Y-135055372D01*
G37*
G36*
X152715770Y-135055372D02*
X152831689Y-135078429D01*
X153013678Y-135153811D01*
X153177463Y-135263249D01*
X153316751Y-135402537D01*
X153426189Y-135566322D01*
X153501571Y-135748311D01*
X153517565Y-135828720D01*
X153540000Y-135941507D01*
X153540000Y-136138493D01*
X153524628Y-136215770D01*
X153501571Y-136331689D01*
X153426189Y-136513678D01*
X153316751Y-136677463D01*
X153177463Y-136816751D01*
X153013678Y-136926189D01*
X152831689Y-137001571D01*
X152715770Y-137024628D01*
X152638493Y-137040000D01*
X152441507Y-137040000D01*
X152364230Y-137024628D01*
X152248311Y-137001571D01*
X152066322Y-136926189D01*
X151902537Y-136816751D01*
X151763249Y-136677463D01*
X151653811Y-136513678D01*
X151578429Y-136331689D01*
X151555372Y-136215770D01*
X151540000Y-136138493D01*
X151540000Y-135941507D01*
X151562435Y-135828720D01*
X151578429Y-135748311D01*
X151653811Y-135566322D01*
X151763249Y-135402537D01*
X151902537Y-135263249D01*
X152066322Y-135153811D01*
X152248311Y-135078429D01*
X152364230Y-135055372D01*
X152441507Y-135040000D01*
X152638493Y-135040000D01*
X152715770Y-135055372D01*
X152715770Y-135055372D01*
G37*
G36*
X197165770Y-135055372D02*
X197281689Y-135078429D01*
X197463678Y-135153811D01*
X197627463Y-135263249D01*
X197766751Y-135402537D01*
X197876189Y-135566322D01*
X197951571Y-135748311D01*
X197967565Y-135828720D01*
X197990000Y-135941507D01*
X197990000Y-136138493D01*
X197974628Y-136215770D01*
X197951571Y-136331689D01*
X197876189Y-136513678D01*
X197766751Y-136677463D01*
X197627463Y-136816751D01*
X197463678Y-136926189D01*
X197281689Y-137001571D01*
X197165770Y-137024628D01*
X197088493Y-137040000D01*
X196891507Y-137040000D01*
X196814230Y-137024628D01*
X196698311Y-137001571D01*
X196516322Y-136926189D01*
X196352537Y-136816751D01*
X196213249Y-136677463D01*
X196103811Y-136513678D01*
X196028429Y-136331689D01*
X196005372Y-136215770D01*
X195990000Y-136138493D01*
X195990000Y-135941507D01*
X196012435Y-135828720D01*
X196028429Y-135748311D01*
X196103811Y-135566322D01*
X196213249Y-135402537D01*
X196352537Y-135263249D01*
X196516322Y-135153811D01*
X196698311Y-135078429D01*
X196814230Y-135055372D01*
X196891507Y-135040000D01*
X197088493Y-135040000D01*
X197165770Y-135055372D01*
X197165770Y-135055372D01*
G37*
G36*
X202245770Y-135055372D02*
X202361689Y-135078429D01*
X202543678Y-135153811D01*
X202707463Y-135263249D01*
X202846751Y-135402537D01*
X202956189Y-135566322D01*
X203031571Y-135748311D01*
X203047565Y-135828720D01*
X203070000Y-135941507D01*
X203070000Y-136138493D01*
X203054628Y-136215770D01*
X203031571Y-136331689D01*
X202956189Y-136513678D01*
X202846751Y-136677463D01*
X202707463Y-136816751D01*
X202543678Y-136926189D01*
X202361689Y-137001571D01*
X202245770Y-137024628D01*
X202168493Y-137040000D01*
X201971507Y-137040000D01*
X201894230Y-137024628D01*
X201778311Y-137001571D01*
X201596322Y-136926189D01*
X201432537Y-136816751D01*
X201293249Y-136677463D01*
X201183811Y-136513678D01*
X201108429Y-136331689D01*
X201085372Y-136215770D01*
X201070000Y-136138493D01*
X201070000Y-135941507D01*
X201092435Y-135828720D01*
X201108429Y-135748311D01*
X201183811Y-135566322D01*
X201293249Y-135402537D01*
X201432537Y-135263249D01*
X201596322Y-135153811D01*
X201778311Y-135078429D01*
X201894230Y-135055372D01*
X201971507Y-135040000D01*
X202168493Y-135040000D01*
X202245770Y-135055372D01*
X202245770Y-135055372D01*
G37*
G36*
X199705770Y-135055372D02*
X199821689Y-135078429D01*
X200003678Y-135153811D01*
X200167463Y-135263249D01*
X200306751Y-135402537D01*
X200416189Y-135566322D01*
X200491571Y-135748311D01*
X200507565Y-135828720D01*
X200530000Y-135941507D01*
X200530000Y-136138493D01*
X200514628Y-136215770D01*
X200491571Y-136331689D01*
X200416189Y-136513678D01*
X200306751Y-136677463D01*
X200167463Y-136816751D01*
X200003678Y-136926189D01*
X199821689Y-137001571D01*
X199705770Y-137024628D01*
X199628493Y-137040000D01*
X199431507Y-137040000D01*
X199354230Y-137024628D01*
X199238311Y-137001571D01*
X199056322Y-136926189D01*
X198892537Y-136816751D01*
X198753249Y-136677463D01*
X198643811Y-136513678D01*
X198568429Y-136331689D01*
X198545372Y-136215770D01*
X198530000Y-136138493D01*
X198530000Y-135941507D01*
X198552435Y-135828720D01*
X198568429Y-135748311D01*
X198643811Y-135566322D01*
X198753249Y-135402537D01*
X198892537Y-135263249D01*
X199056322Y-135153811D01*
X199238311Y-135078429D01*
X199354230Y-135055372D01*
X199431507Y-135040000D01*
X199628493Y-135040000D01*
X199705770Y-135055372D01*
X199705770Y-135055372D01*
G37*
G36*
X128318770Y-134270372D02*
X128434689Y-134293429D01*
X128616678Y-134368811D01*
X128780463Y-134478249D01*
X128919751Y-134617537D01*
X129029189Y-134781322D01*
X129104571Y-134963311D01*
X129110373Y-134992480D01*
X129142464Y-135153811D01*
X129143000Y-135156509D01*
X129143000Y-135353491D01*
X129104571Y-135546689D01*
X129029189Y-135728678D01*
X128919751Y-135892463D01*
X128780463Y-136031751D01*
X128616678Y-136141189D01*
X128434689Y-136216571D01*
X128318770Y-136239628D01*
X128241493Y-136255000D01*
X128044507Y-136255000D01*
X127967230Y-136239628D01*
X127851311Y-136216571D01*
X127669322Y-136141189D01*
X127505537Y-136031751D01*
X127366249Y-135892463D01*
X127256811Y-135728678D01*
X127181429Y-135546689D01*
X127143000Y-135353491D01*
X127143000Y-135156509D01*
X127143537Y-135153811D01*
X127175627Y-134992480D01*
X127181429Y-134963311D01*
X127256811Y-134781322D01*
X127366249Y-134617537D01*
X127505537Y-134478249D01*
X127669322Y-134368811D01*
X127851311Y-134293429D01*
X127967230Y-134270372D01*
X128044507Y-134255000D01*
X128241493Y-134255000D01*
X128318770Y-134270372D01*
X128318770Y-134270372D01*
G37*
G36*
X177848770Y-134270372D02*
X177964689Y-134293429D01*
X178146678Y-134368811D01*
X178310463Y-134478249D01*
X178449751Y-134617537D01*
X178559189Y-134781322D01*
X178634571Y-134963311D01*
X178640373Y-134992480D01*
X178672464Y-135153811D01*
X178673000Y-135156509D01*
X178673000Y-135353491D01*
X178634571Y-135546689D01*
X178559189Y-135728678D01*
X178449751Y-135892463D01*
X178310463Y-136031751D01*
X178146678Y-136141189D01*
X177964689Y-136216571D01*
X177848770Y-136239628D01*
X177771493Y-136255000D01*
X177574507Y-136255000D01*
X177497230Y-136239628D01*
X177381311Y-136216571D01*
X177199322Y-136141189D01*
X177035537Y-136031751D01*
X176896249Y-135892463D01*
X176786811Y-135728678D01*
X176711429Y-135546689D01*
X176673000Y-135353491D01*
X176673000Y-135156509D01*
X176673537Y-135153811D01*
X176705627Y-134992480D01*
X176711429Y-134963311D01*
X176786811Y-134781322D01*
X176896249Y-134617537D01*
X177035537Y-134478249D01*
X177199322Y-134368811D01*
X177381311Y-134293429D01*
X177497230Y-134270372D01*
X177574507Y-134255000D01*
X177771493Y-134255000D01*
X177848770Y-134270372D01*
X177848770Y-134270372D01*
G37*
G36*
X174800770Y-134270372D02*
X174916689Y-134293429D01*
X175098678Y-134368811D01*
X175262463Y-134478249D01*
X175401751Y-134617537D01*
X175511189Y-134781322D01*
X175586571Y-134963311D01*
X175592373Y-134992480D01*
X175624464Y-135153811D01*
X175625000Y-135156509D01*
X175625000Y-135353491D01*
X175586571Y-135546689D01*
X175511189Y-135728678D01*
X175401751Y-135892463D01*
X175262463Y-136031751D01*
X175098678Y-136141189D01*
X174916689Y-136216571D01*
X174800770Y-136239628D01*
X174723493Y-136255000D01*
X174526507Y-136255000D01*
X174449230Y-136239628D01*
X174333311Y-136216571D01*
X174151322Y-136141189D01*
X173987537Y-136031751D01*
X173848249Y-135892463D01*
X173738811Y-135728678D01*
X173663429Y-135546689D01*
X173625000Y-135353491D01*
X173625000Y-135156509D01*
X173625537Y-135153811D01*
X173657627Y-134992480D01*
X173663429Y-134963311D01*
X173738811Y-134781322D01*
X173848249Y-134617537D01*
X173987537Y-134478249D01*
X174151322Y-134368811D01*
X174333311Y-134293429D01*
X174449230Y-134270372D01*
X174526507Y-134255000D01*
X174723493Y-134255000D01*
X174800770Y-134270372D01*
X174800770Y-134270372D01*
G37*
G36*
X125270770Y-134270372D02*
X125386689Y-134293429D01*
X125568678Y-134368811D01*
X125732463Y-134478249D01*
X125871751Y-134617537D01*
X125981189Y-134781322D01*
X126056571Y-134963311D01*
X126062373Y-134992480D01*
X126094464Y-135153811D01*
X126095000Y-135156509D01*
X126095000Y-135353491D01*
X126056571Y-135546689D01*
X125981189Y-135728678D01*
X125871751Y-135892463D01*
X125732463Y-136031751D01*
X125568678Y-136141189D01*
X125386689Y-136216571D01*
X125270770Y-136239628D01*
X125193493Y-136255000D01*
X124996507Y-136255000D01*
X124919230Y-136239628D01*
X124803311Y-136216571D01*
X124621322Y-136141189D01*
X124457537Y-136031751D01*
X124318249Y-135892463D01*
X124208811Y-135728678D01*
X124133429Y-135546689D01*
X124095000Y-135353491D01*
X124095000Y-135156509D01*
X124095537Y-135153811D01*
X124127627Y-134992480D01*
X124133429Y-134963311D01*
X124208811Y-134781322D01*
X124318249Y-134617537D01*
X124457537Y-134478249D01*
X124621322Y-134368811D01*
X124803311Y-134293429D01*
X124919230Y-134270372D01*
X124996507Y-134255000D01*
X125193493Y-134255000D01*
X125270770Y-134270372D01*
X125270770Y-134270372D01*
G37*
G36*
X122222770Y-134270372D02*
X122338689Y-134293429D01*
X122520678Y-134368811D01*
X122684463Y-134478249D01*
X122823751Y-134617537D01*
X122933189Y-134781322D01*
X123008571Y-134963311D01*
X123014373Y-134992480D01*
X123046464Y-135153811D01*
X123047000Y-135156509D01*
X123047000Y-135353491D01*
X123008571Y-135546689D01*
X122933189Y-135728678D01*
X122823751Y-135892463D01*
X122684463Y-136031751D01*
X122520678Y-136141189D01*
X122338689Y-136216571D01*
X122222770Y-136239628D01*
X122145493Y-136255000D01*
X121948507Y-136255000D01*
X121871230Y-136239628D01*
X121755311Y-136216571D01*
X121573322Y-136141189D01*
X121409537Y-136031751D01*
X121270249Y-135892463D01*
X121160811Y-135728678D01*
X121085429Y-135546689D01*
X121047000Y-135353491D01*
X121047000Y-135156509D01*
X121047537Y-135153811D01*
X121079627Y-134992480D01*
X121085429Y-134963311D01*
X121160811Y-134781322D01*
X121270249Y-134617537D01*
X121409537Y-134478249D01*
X121573322Y-134368811D01*
X121755311Y-134293429D01*
X121871230Y-134270372D01*
X121948507Y-134255000D01*
X122145493Y-134255000D01*
X122222770Y-134270372D01*
X122222770Y-134270372D01*
G37*
G36*
X171752770Y-134270372D02*
X171868689Y-134293429D01*
X172050678Y-134368811D01*
X172214463Y-134478249D01*
X172353751Y-134617537D01*
X172463189Y-134781322D01*
X172538571Y-134963311D01*
X172544373Y-134992480D01*
X172576464Y-135153811D01*
X172577000Y-135156509D01*
X172577000Y-135353491D01*
X172538571Y-135546689D01*
X172463189Y-135728678D01*
X172353751Y-135892463D01*
X172214463Y-136031751D01*
X172050678Y-136141189D01*
X171868689Y-136216571D01*
X171752770Y-136239628D01*
X171675493Y-136255000D01*
X171478507Y-136255000D01*
X171401230Y-136239628D01*
X171285311Y-136216571D01*
X171103322Y-136141189D01*
X170939537Y-136031751D01*
X170800249Y-135892463D01*
X170690811Y-135728678D01*
X170615429Y-135546689D01*
X170577000Y-135353491D01*
X170577000Y-135156509D01*
X170577537Y-135153811D01*
X170609627Y-134992480D01*
X170615429Y-134963311D01*
X170690811Y-134781322D01*
X170800249Y-134617537D01*
X170939537Y-134478249D01*
X171103322Y-134368811D01*
X171285311Y-134293429D01*
X171401230Y-134270372D01*
X171478507Y-134255000D01*
X171675493Y-134255000D01*
X171752770Y-134270372D01*
X171752770Y-134270372D01*
G37*
G36*
X193937521Y-134389586D02*
X194101309Y-134457429D01*
X194248720Y-134555926D01*
X194374074Y-134681280D01*
X194472571Y-134828691D01*
X194540414Y-134992479D01*
X194575000Y-135166356D01*
X194575000Y-135343644D01*
X194540414Y-135517521D01*
X194472571Y-135681309D01*
X194374074Y-135828720D01*
X194248720Y-135954074D01*
X194101309Y-136052571D01*
X193937521Y-136120414D01*
X193763644Y-136155000D01*
X193586356Y-136155000D01*
X193412479Y-136120414D01*
X193248691Y-136052571D01*
X193101280Y-135954074D01*
X192975926Y-135828720D01*
X192877429Y-135681309D01*
X192809586Y-135517521D01*
X192775000Y-135343644D01*
X192775000Y-135166356D01*
X192809586Y-134992479D01*
X192877429Y-134828691D01*
X192975926Y-134681280D01*
X193101280Y-134555926D01*
X193248691Y-134457429D01*
X193412479Y-134389586D01*
X193586356Y-134355000D01*
X193763644Y-134355000D01*
X193937521Y-134389586D01*
X193937521Y-134389586D01*
G37*
G36*
X144407521Y-134389586D02*
X144571309Y-134457429D01*
X144718720Y-134555926D01*
X144844074Y-134681280D01*
X144942571Y-134828691D01*
X145010414Y-134992479D01*
X145045000Y-135166356D01*
X145045000Y-135343644D01*
X145010414Y-135517521D01*
X144942571Y-135681309D01*
X144844074Y-135828720D01*
X144718720Y-135954074D01*
X144571309Y-136052571D01*
X144407521Y-136120414D01*
X144233644Y-136155000D01*
X144056356Y-136155000D01*
X143882479Y-136120414D01*
X143718691Y-136052571D01*
X143571280Y-135954074D01*
X143445926Y-135828720D01*
X143347429Y-135681309D01*
X143279586Y-135517521D01*
X143245000Y-135343644D01*
X143245000Y-135166356D01*
X143279586Y-134992479D01*
X143347429Y-134828691D01*
X143445926Y-134681280D01*
X143571280Y-134555926D01*
X143718691Y-134457429D01*
X143882479Y-134389586D01*
X144056356Y-134355000D01*
X144233644Y-134355000D01*
X144407521Y-134389586D01*
X144407521Y-134389586D01*
G37*
G36*
X188857521Y-134389586D02*
X189021309Y-134457429D01*
X189168720Y-134555926D01*
X189294074Y-134681280D01*
X189392571Y-134828691D01*
X189460414Y-134992479D01*
X189495000Y-135166356D01*
X189495000Y-135343644D01*
X189460414Y-135517521D01*
X189392571Y-135681309D01*
X189294074Y-135828720D01*
X189168720Y-135954074D01*
X189021309Y-136052571D01*
X188857521Y-136120414D01*
X188683644Y-136155000D01*
X188506356Y-136155000D01*
X188332479Y-136120414D01*
X188168691Y-136052571D01*
X188021280Y-135954074D01*
X187895926Y-135828720D01*
X187797429Y-135681309D01*
X187729586Y-135517521D01*
X187695000Y-135343644D01*
X187695000Y-135166356D01*
X187729586Y-134992479D01*
X187797429Y-134828691D01*
X187895926Y-134681280D01*
X188021280Y-134555926D01*
X188168691Y-134457429D01*
X188332479Y-134389586D01*
X188506356Y-134355000D01*
X188683644Y-134355000D01*
X188857521Y-134389586D01*
X188857521Y-134389586D01*
G37*
G36*
X142505000Y-136155000D02*
X140705000Y-136155000D01*
X140705000Y-134355000D01*
X142505000Y-134355000D01*
X142505000Y-136155000D01*
X142505000Y-136155000D01*
G37*
G36*
X139327521Y-134389586D02*
X139491309Y-134457429D01*
X139638720Y-134555926D01*
X139764074Y-134681280D01*
X139862571Y-134828691D01*
X139930414Y-134992479D01*
X139965000Y-135166356D01*
X139965000Y-135343644D01*
X139930414Y-135517521D01*
X139862571Y-135681309D01*
X139764074Y-135828720D01*
X139638720Y-135954074D01*
X139491309Y-136052571D01*
X139327521Y-136120414D01*
X139153644Y-136155000D01*
X138976356Y-136155000D01*
X138802479Y-136120414D01*
X138638691Y-136052571D01*
X138491280Y-135954074D01*
X138365926Y-135828720D01*
X138267429Y-135681309D01*
X138199586Y-135517521D01*
X138165000Y-135343644D01*
X138165000Y-135166356D01*
X138199586Y-134992479D01*
X138267429Y-134828691D01*
X138365926Y-134681280D01*
X138491280Y-134555926D01*
X138638691Y-134457429D01*
X138802479Y-134389586D01*
X138976356Y-134355000D01*
X139153644Y-134355000D01*
X139327521Y-134389586D01*
X139327521Y-134389586D01*
G37*
G36*
X137425000Y-136155000D02*
X135625000Y-136155000D01*
X135625000Y-134355000D01*
X137425000Y-134355000D01*
X137425000Y-136155000D01*
X137425000Y-136155000D01*
G37*
G36*
X192035000Y-136155000D02*
X190235000Y-136155000D01*
X190235000Y-134355000D01*
X192035000Y-134355000D01*
X192035000Y-136155000D01*
X192035000Y-136155000D01*
G37*
G36*
X181875000Y-136155000D02*
X180075000Y-136155000D01*
X180075000Y-134355000D01*
X181875000Y-134355000D01*
X181875000Y-136155000D01*
X181875000Y-136155000D01*
G37*
G36*
X183777521Y-134389586D02*
X183941309Y-134457429D01*
X184088720Y-134555926D01*
X184214074Y-134681280D01*
X184312571Y-134828691D01*
X184380414Y-134992479D01*
X184415000Y-135166356D01*
X184415000Y-135343644D01*
X184380414Y-135517521D01*
X184312571Y-135681309D01*
X184214074Y-135828720D01*
X184088720Y-135954074D01*
X183941309Y-136052571D01*
X183777521Y-136120414D01*
X183603644Y-136155000D01*
X183426356Y-136155000D01*
X183252479Y-136120414D01*
X183088691Y-136052571D01*
X182941280Y-135954074D01*
X182815926Y-135828720D01*
X182717429Y-135681309D01*
X182649586Y-135517521D01*
X182615000Y-135343644D01*
X182615000Y-135166356D01*
X182649586Y-134992479D01*
X182717429Y-134828691D01*
X182815926Y-134681280D01*
X182941280Y-134555926D01*
X183088691Y-134457429D01*
X183252479Y-134389586D01*
X183426356Y-134355000D01*
X183603644Y-134355000D01*
X183777521Y-134389586D01*
X183777521Y-134389586D01*
G37*
G36*
X132345000Y-136155000D02*
X130545000Y-136155000D01*
X130545000Y-134355000D01*
X132345000Y-134355000D01*
X132345000Y-136155000D01*
X132345000Y-136155000D01*
G37*
G36*
X134247521Y-134389586D02*
X134411309Y-134457429D01*
X134558720Y-134555926D01*
X134684074Y-134681280D01*
X134782571Y-134828691D01*
X134850414Y-134992479D01*
X134885000Y-135166356D01*
X134885000Y-135343644D01*
X134850414Y-135517521D01*
X134782571Y-135681309D01*
X134684074Y-135828720D01*
X134558720Y-135954074D01*
X134411309Y-136052571D01*
X134247521Y-136120414D01*
X134073644Y-136155000D01*
X133896356Y-136155000D01*
X133722479Y-136120414D01*
X133558691Y-136052571D01*
X133411280Y-135954074D01*
X133285926Y-135828720D01*
X133187429Y-135681309D01*
X133119586Y-135517521D01*
X133085000Y-135343644D01*
X133085000Y-135166356D01*
X133119586Y-134992479D01*
X133187429Y-134828691D01*
X133285926Y-134681280D01*
X133411280Y-134555926D01*
X133558691Y-134457429D01*
X133722479Y-134389586D01*
X133896356Y-134355000D01*
X134073644Y-134355000D01*
X134247521Y-134389586D01*
X134247521Y-134389586D01*
G37*
G36*
X186955000Y-136155000D02*
X185155000Y-136155000D01*
X185155000Y-134355000D01*
X186955000Y-134355000D01*
X186955000Y-136155000D01*
X186955000Y-136155000D01*
G37*
G36*
X212800000Y-135610000D02*
X208840000Y-135610000D01*
X208840000Y-133630000D01*
X212800000Y-133630000D01*
X212800000Y-135610000D01*
X212800000Y-135610000D01*
G37*
G36*
X163270000Y-135610000D02*
X159310000Y-135610000D01*
X159310000Y-133630000D01*
X163270000Y-133630000D01*
X163270000Y-135610000D01*
X163270000Y-135610000D01*
G37*
G36*
X138692521Y-129944586D02*
X138856309Y-130012429D01*
X139003720Y-130110926D01*
X139129074Y-130236280D01*
X139227571Y-130383691D01*
X139295414Y-130547479D01*
X139330000Y-130721356D01*
X139330000Y-130898644D01*
X139295414Y-131072521D01*
X139227571Y-131236309D01*
X139129074Y-131383720D01*
X139003720Y-131509074D01*
X138856309Y-131607571D01*
X138692521Y-131675414D01*
X138518644Y-131710000D01*
X138341356Y-131710000D01*
X138167479Y-131675414D01*
X138003691Y-131607571D01*
X137856280Y-131509074D01*
X137730926Y-131383720D01*
X137632429Y-131236309D01*
X137564586Y-131072521D01*
X137530000Y-130898644D01*
X137530000Y-130721356D01*
X137564586Y-130547479D01*
X137632429Y-130383691D01*
X137730926Y-130236280D01*
X137856280Y-130110926D01*
X138003691Y-130012429D01*
X138167479Y-129944586D01*
X138341356Y-129910000D01*
X138518644Y-129910000D01*
X138692521Y-129944586D01*
X138692521Y-129944586D01*
G37*
G36*
X185682521Y-129944586D02*
X185846309Y-130012429D01*
X185993720Y-130110926D01*
X186119074Y-130236280D01*
X186217571Y-130383691D01*
X186285414Y-130547479D01*
X186320000Y-130721356D01*
X186320000Y-130898644D01*
X186285414Y-131072521D01*
X186217571Y-131236309D01*
X186119074Y-131383720D01*
X185993720Y-131509074D01*
X185846309Y-131607571D01*
X185682521Y-131675414D01*
X185508644Y-131710000D01*
X185331356Y-131710000D01*
X185157479Y-131675414D01*
X184993691Y-131607571D01*
X184846280Y-131509074D01*
X184720926Y-131383720D01*
X184622429Y-131236309D01*
X184554586Y-131072521D01*
X184520000Y-130898644D01*
X184520000Y-130721356D01*
X184554586Y-130547479D01*
X184622429Y-130383691D01*
X184720926Y-130236280D01*
X184846280Y-130110926D01*
X184993691Y-130012429D01*
X185157479Y-129944586D01*
X185331356Y-129910000D01*
X185508644Y-129910000D01*
X185682521Y-129944586D01*
X185682521Y-129944586D01*
G37*
G36*
X188222521Y-129944586D02*
X188386309Y-130012429D01*
X188533720Y-130110926D01*
X188659074Y-130236280D01*
X188757571Y-130383691D01*
X188825414Y-130547479D01*
X188860000Y-130721356D01*
X188860000Y-130898644D01*
X188825414Y-131072521D01*
X188757571Y-131236309D01*
X188659074Y-131383720D01*
X188533720Y-131509074D01*
X188386309Y-131607571D01*
X188222521Y-131675414D01*
X188048644Y-131710000D01*
X187871356Y-131710000D01*
X187697479Y-131675414D01*
X187533691Y-131607571D01*
X187386280Y-131509074D01*
X187260926Y-131383720D01*
X187162429Y-131236309D01*
X187094586Y-131072521D01*
X187060000Y-130898644D01*
X187060000Y-130721356D01*
X187094586Y-130547479D01*
X187162429Y-130383691D01*
X187260926Y-130236280D01*
X187386280Y-130110926D01*
X187533691Y-130012429D01*
X187697479Y-129944586D01*
X187871356Y-129910000D01*
X188048644Y-129910000D01*
X188222521Y-129944586D01*
X188222521Y-129944586D01*
G37*
G36*
X190762521Y-129944586D02*
X190926309Y-130012429D01*
X191073720Y-130110926D01*
X191199074Y-130236280D01*
X191297571Y-130383691D01*
X191365414Y-130547479D01*
X191400000Y-130721356D01*
X191400000Y-130898644D01*
X191365414Y-131072521D01*
X191297571Y-131236309D01*
X191199074Y-131383720D01*
X191073720Y-131509074D01*
X190926309Y-131607571D01*
X190762521Y-131675414D01*
X190588644Y-131710000D01*
X190411356Y-131710000D01*
X190237479Y-131675414D01*
X190073691Y-131607571D01*
X189926280Y-131509074D01*
X189800926Y-131383720D01*
X189702429Y-131236309D01*
X189634586Y-131072521D01*
X189600000Y-130898644D01*
X189600000Y-130721356D01*
X189634586Y-130547479D01*
X189702429Y-130383691D01*
X189800926Y-130236280D01*
X189926280Y-130110926D01*
X190073691Y-130012429D01*
X190237479Y-129944586D01*
X190411356Y-129910000D01*
X190588644Y-129910000D01*
X190762521Y-129944586D01*
X190762521Y-129944586D01*
G37*
G36*
X193302521Y-129944586D02*
X193466309Y-130012429D01*
X193613720Y-130110926D01*
X193739074Y-130236280D01*
X193837571Y-130383691D01*
X193905414Y-130547479D01*
X193940000Y-130721356D01*
X193940000Y-130898644D01*
X193905414Y-131072521D01*
X193837571Y-131236309D01*
X193739074Y-131383720D01*
X193613720Y-131509074D01*
X193466309Y-131607571D01*
X193302521Y-131675414D01*
X193128644Y-131710000D01*
X192951356Y-131710000D01*
X192777479Y-131675414D01*
X192613691Y-131607571D01*
X192466280Y-131509074D01*
X192340926Y-131383720D01*
X192242429Y-131236309D01*
X192174586Y-131072521D01*
X192140000Y-130898644D01*
X192140000Y-130721356D01*
X192174586Y-130547479D01*
X192242429Y-130383691D01*
X192340926Y-130236280D01*
X192466280Y-130110926D01*
X192613691Y-130012429D01*
X192777479Y-129944586D01*
X192951356Y-129910000D01*
X193128644Y-129910000D01*
X193302521Y-129944586D01*
X193302521Y-129944586D01*
G37*
G36*
X195842521Y-129944586D02*
X196006309Y-130012429D01*
X196153720Y-130110926D01*
X196279074Y-130236280D01*
X196377571Y-130383691D01*
X196445414Y-130547479D01*
X196480000Y-130721356D01*
X196480000Y-130898644D01*
X196445414Y-131072521D01*
X196377571Y-131236309D01*
X196279074Y-131383720D01*
X196153720Y-131509074D01*
X196006309Y-131607571D01*
X195842521Y-131675414D01*
X195668644Y-131710000D01*
X195491356Y-131710000D01*
X195317479Y-131675414D01*
X195153691Y-131607571D01*
X195006280Y-131509074D01*
X194880926Y-131383720D01*
X194782429Y-131236309D01*
X194714586Y-131072521D01*
X194680000Y-130898644D01*
X194680000Y-130721356D01*
X194714586Y-130547479D01*
X194782429Y-130383691D01*
X194880926Y-130236280D01*
X195006280Y-130110926D01*
X195153691Y-130012429D01*
X195317479Y-129944586D01*
X195491356Y-129910000D01*
X195668644Y-129910000D01*
X195842521Y-129944586D01*
X195842521Y-129944586D01*
G37*
G36*
X180602521Y-129944586D02*
X180766309Y-130012429D01*
X180913720Y-130110926D01*
X181039074Y-130236280D01*
X181137571Y-130383691D01*
X181205414Y-130547479D01*
X181240000Y-130721356D01*
X181240000Y-130898644D01*
X181205414Y-131072521D01*
X181137571Y-131236309D01*
X181039074Y-131383720D01*
X180913720Y-131509074D01*
X180766309Y-131607571D01*
X180602521Y-131675414D01*
X180428644Y-131710000D01*
X180251356Y-131710000D01*
X180077479Y-131675414D01*
X179913691Y-131607571D01*
X179766280Y-131509074D01*
X179640926Y-131383720D01*
X179542429Y-131236309D01*
X179474586Y-131072521D01*
X179440000Y-130898644D01*
X179440000Y-130721356D01*
X179474586Y-130547479D01*
X179542429Y-130383691D01*
X179640926Y-130236280D01*
X179766280Y-130110926D01*
X179913691Y-130012429D01*
X180077479Y-129944586D01*
X180251356Y-129910000D01*
X180428644Y-129910000D01*
X180602521Y-129944586D01*
X180602521Y-129944586D01*
G37*
G36*
X183142521Y-129944586D02*
X183306309Y-130012429D01*
X183453720Y-130110926D01*
X183579074Y-130236280D01*
X183677571Y-130383691D01*
X183745414Y-130547479D01*
X183780000Y-130721356D01*
X183780000Y-130898644D01*
X183745414Y-131072521D01*
X183677571Y-131236309D01*
X183579074Y-131383720D01*
X183453720Y-131509074D01*
X183306309Y-131607571D01*
X183142521Y-131675414D01*
X182968644Y-131710000D01*
X182791356Y-131710000D01*
X182617479Y-131675414D01*
X182453691Y-131607571D01*
X182306280Y-131509074D01*
X182180926Y-131383720D01*
X182082429Y-131236309D01*
X182014586Y-131072521D01*
X181980000Y-130898644D01*
X181980000Y-130721356D01*
X182014586Y-130547479D01*
X182082429Y-130383691D01*
X182180926Y-130236280D01*
X182306280Y-130110926D01*
X182453691Y-130012429D01*
X182617479Y-129944586D01*
X182791356Y-129910000D01*
X182968644Y-129910000D01*
X183142521Y-129944586D01*
X183142521Y-129944586D01*
G37*
G36*
X178062521Y-129944586D02*
X178226309Y-130012429D01*
X178373720Y-130110926D01*
X178499074Y-130236280D01*
X178597571Y-130383691D01*
X178665414Y-130547479D01*
X178700000Y-130721356D01*
X178700000Y-130898644D01*
X178665414Y-131072521D01*
X178597571Y-131236309D01*
X178499074Y-131383720D01*
X178373720Y-131509074D01*
X178226309Y-131607571D01*
X178062521Y-131675414D01*
X177888644Y-131710000D01*
X177711356Y-131710000D01*
X177537479Y-131675414D01*
X177373691Y-131607571D01*
X177226280Y-131509074D01*
X177100926Y-131383720D01*
X177002429Y-131236309D01*
X176934586Y-131072521D01*
X176900000Y-130898644D01*
X176900000Y-130721356D01*
X176934586Y-130547479D01*
X177002429Y-130383691D01*
X177100926Y-130236280D01*
X177226280Y-130110926D01*
X177373691Y-130012429D01*
X177537479Y-129944586D01*
X177711356Y-129910000D01*
X177888644Y-129910000D01*
X178062521Y-129944586D01*
X178062521Y-129944586D01*
G37*
G36*
X128532521Y-129944586D02*
X128696309Y-130012429D01*
X128843720Y-130110926D01*
X128969074Y-130236280D01*
X129067571Y-130383691D01*
X129135414Y-130547479D01*
X129170000Y-130721356D01*
X129170000Y-130898644D01*
X129135414Y-131072521D01*
X129067571Y-131236309D01*
X128969074Y-131383720D01*
X128843720Y-131509074D01*
X128696309Y-131607571D01*
X128532521Y-131675414D01*
X128358644Y-131710000D01*
X128181356Y-131710000D01*
X128007479Y-131675414D01*
X127843691Y-131607571D01*
X127696280Y-131509074D01*
X127570926Y-131383720D01*
X127472429Y-131236309D01*
X127404586Y-131072521D01*
X127370000Y-130898644D01*
X127370000Y-130721356D01*
X127404586Y-130547479D01*
X127472429Y-130383691D01*
X127570926Y-130236280D01*
X127696280Y-130110926D01*
X127843691Y-130012429D01*
X128007479Y-129944586D01*
X128181356Y-129910000D01*
X128358644Y-129910000D01*
X128532521Y-129944586D01*
X128532521Y-129944586D01*
G37*
G36*
X131072521Y-129944586D02*
X131236309Y-130012429D01*
X131383720Y-130110926D01*
X131509074Y-130236280D01*
X131607571Y-130383691D01*
X131675414Y-130547479D01*
X131710000Y-130721356D01*
X131710000Y-130898644D01*
X131675414Y-131072521D01*
X131607571Y-131236309D01*
X131509074Y-131383720D01*
X131383720Y-131509074D01*
X131236309Y-131607571D01*
X131072521Y-131675414D01*
X130898644Y-131710000D01*
X130721356Y-131710000D01*
X130547479Y-131675414D01*
X130383691Y-131607571D01*
X130236280Y-131509074D01*
X130110926Y-131383720D01*
X130012429Y-131236309D01*
X129944586Y-131072521D01*
X129910000Y-130898644D01*
X129910000Y-130721356D01*
X129944586Y-130547479D01*
X130012429Y-130383691D01*
X130110926Y-130236280D01*
X130236280Y-130110926D01*
X130383691Y-130012429D01*
X130547479Y-129944586D01*
X130721356Y-129910000D01*
X130898644Y-129910000D01*
X131072521Y-129944586D01*
X131072521Y-129944586D01*
G37*
G36*
X133612521Y-129944586D02*
X133776309Y-130012429D01*
X133923720Y-130110926D01*
X134049074Y-130236280D01*
X134147571Y-130383691D01*
X134215414Y-130547479D01*
X134250000Y-130721356D01*
X134250000Y-130898644D01*
X134215414Y-131072521D01*
X134147571Y-131236309D01*
X134049074Y-131383720D01*
X133923720Y-131509074D01*
X133776309Y-131607571D01*
X133612521Y-131675414D01*
X133438644Y-131710000D01*
X133261356Y-131710000D01*
X133087479Y-131675414D01*
X132923691Y-131607571D01*
X132776280Y-131509074D01*
X132650926Y-131383720D01*
X132552429Y-131236309D01*
X132484586Y-131072521D01*
X132450000Y-130898644D01*
X132450000Y-130721356D01*
X132484586Y-130547479D01*
X132552429Y-130383691D01*
X132650926Y-130236280D01*
X132776280Y-130110926D01*
X132923691Y-130012429D01*
X133087479Y-129944586D01*
X133261356Y-129910000D01*
X133438644Y-129910000D01*
X133612521Y-129944586D01*
X133612521Y-129944586D01*
G37*
G36*
X136152521Y-129944586D02*
X136316309Y-130012429D01*
X136463720Y-130110926D01*
X136589074Y-130236280D01*
X136687571Y-130383691D01*
X136755414Y-130547479D01*
X136790000Y-130721356D01*
X136790000Y-130898644D01*
X136755414Y-131072521D01*
X136687571Y-131236309D01*
X136589074Y-131383720D01*
X136463720Y-131509074D01*
X136316309Y-131607571D01*
X136152521Y-131675414D01*
X135978644Y-131710000D01*
X135801356Y-131710000D01*
X135627479Y-131675414D01*
X135463691Y-131607571D01*
X135316280Y-131509074D01*
X135190926Y-131383720D01*
X135092429Y-131236309D01*
X135024586Y-131072521D01*
X134990000Y-130898644D01*
X134990000Y-130721356D01*
X135024586Y-130547479D01*
X135092429Y-130383691D01*
X135190926Y-130236280D01*
X135316280Y-130110926D01*
X135463691Y-130012429D01*
X135627479Y-129944586D01*
X135801356Y-129910000D01*
X135978644Y-129910000D01*
X136152521Y-129944586D01*
X136152521Y-129944586D01*
G37*
G36*
X143772521Y-129944586D02*
X143936309Y-130012429D01*
X144083720Y-130110926D01*
X144209074Y-130236280D01*
X144307571Y-130383691D01*
X144375414Y-130547479D01*
X144410000Y-130721356D01*
X144410000Y-130898644D01*
X144375414Y-131072521D01*
X144307571Y-131236309D01*
X144209074Y-131383720D01*
X144083720Y-131509074D01*
X143936309Y-131607571D01*
X143772521Y-131675414D01*
X143598644Y-131710000D01*
X143421356Y-131710000D01*
X143247479Y-131675414D01*
X143083691Y-131607571D01*
X142936280Y-131509074D01*
X142810926Y-131383720D01*
X142712429Y-131236309D01*
X142644586Y-131072521D01*
X142610000Y-130898644D01*
X142610000Y-130721356D01*
X142644586Y-130547479D01*
X142712429Y-130383691D01*
X142810926Y-130236280D01*
X142936280Y-130110926D01*
X143083691Y-130012429D01*
X143247479Y-129944586D01*
X143421356Y-129910000D01*
X143598644Y-129910000D01*
X143772521Y-129944586D01*
X143772521Y-129944586D01*
G37*
G36*
X141232521Y-129944586D02*
X141396309Y-130012429D01*
X141543720Y-130110926D01*
X141669074Y-130236280D01*
X141767571Y-130383691D01*
X141835414Y-130547479D01*
X141870000Y-130721356D01*
X141870000Y-130898644D01*
X141835414Y-131072521D01*
X141767571Y-131236309D01*
X141669074Y-131383720D01*
X141543720Y-131509074D01*
X141396309Y-131607571D01*
X141232521Y-131675414D01*
X141058644Y-131710000D01*
X140881356Y-131710000D01*
X140707479Y-131675414D01*
X140543691Y-131607571D01*
X140396280Y-131509074D01*
X140270926Y-131383720D01*
X140172429Y-131236309D01*
X140104586Y-131072521D01*
X140070000Y-130898644D01*
X140070000Y-130721356D01*
X140104586Y-130547479D01*
X140172429Y-130383691D01*
X140270926Y-130236280D01*
X140396280Y-130110926D01*
X140543691Y-130012429D01*
X140707479Y-129944586D01*
X140881356Y-129910000D01*
X141058644Y-129910000D01*
X141232521Y-129944586D01*
X141232521Y-129944586D01*
G37*
G36*
X146312521Y-129944586D02*
X146476309Y-130012429D01*
X146623720Y-130110926D01*
X146749074Y-130236280D01*
X146847571Y-130383691D01*
X146915414Y-130547479D01*
X146950000Y-130721356D01*
X146950000Y-130898644D01*
X146915414Y-131072521D01*
X146847571Y-131236309D01*
X146749074Y-131383720D01*
X146623720Y-131509074D01*
X146476309Y-131607571D01*
X146312521Y-131675414D01*
X146138644Y-131710000D01*
X145961356Y-131710000D01*
X145787479Y-131675414D01*
X145623691Y-131607571D01*
X145476280Y-131509074D01*
X145350926Y-131383720D01*
X145252429Y-131236309D01*
X145184586Y-131072521D01*
X145150000Y-130898644D01*
X145150000Y-130721356D01*
X145184586Y-130547479D01*
X145252429Y-130383691D01*
X145350926Y-130236280D01*
X145476280Y-130110926D01*
X145623691Y-130012429D01*
X145787479Y-129944586D01*
X145961356Y-129910000D01*
X146138644Y-129910000D01*
X146312521Y-129944586D01*
X146312521Y-129944586D01*
G37*
G36*
X212004070Y-128644324D02*
X212004073Y-128644325D01*
X212004074Y-128644325D01*
X212190690Y-128700934D01*
X212362676Y-128792862D01*
X212513423Y-128916577D01*
X212637138Y-129067324D01*
X212724930Y-129231573D01*
X212729065Y-129239308D01*
X212785676Y-129425930D01*
X212804790Y-129620000D01*
X212785676Y-129814070D01*
X212785675Y-129814073D01*
X212785675Y-129814074D01*
X212729066Y-130000690D01*
X212637138Y-130172676D01*
X212513423Y-130323423D01*
X212362676Y-130447138D01*
X212190690Y-130539066D01*
X212004074Y-130595675D01*
X212004073Y-130595675D01*
X212004070Y-130595676D01*
X211858636Y-130610000D01*
X209781364Y-130610000D01*
X209635930Y-130595676D01*
X209635927Y-130595675D01*
X209635926Y-130595675D01*
X209449310Y-130539066D01*
X209277324Y-130447138D01*
X209126577Y-130323423D01*
X209002862Y-130172676D01*
X208910934Y-130000690D01*
X208854325Y-129814074D01*
X208854325Y-129814073D01*
X208854324Y-129814070D01*
X208835210Y-129620000D01*
X208854324Y-129425930D01*
X208910935Y-129239308D01*
X208915070Y-129231573D01*
X209002862Y-129067324D01*
X209126577Y-128916577D01*
X209277324Y-128792862D01*
X209449310Y-128700934D01*
X209635926Y-128644325D01*
X209635927Y-128644325D01*
X209635930Y-128644324D01*
X209781364Y-128630000D01*
X211858636Y-128630000D01*
X212004070Y-128644324D01*
X212004070Y-128644324D01*
G37*
G36*
X162474070Y-128644324D02*
X162474073Y-128644325D01*
X162474074Y-128644325D01*
X162660690Y-128700934D01*
X162832676Y-128792862D01*
X162983423Y-128916577D01*
X163107138Y-129067324D01*
X163194930Y-129231573D01*
X163199065Y-129239308D01*
X163255676Y-129425930D01*
X163274790Y-129620000D01*
X163255676Y-129814070D01*
X163255675Y-129814073D01*
X163255675Y-129814074D01*
X163199066Y-130000690D01*
X163107138Y-130172676D01*
X162983423Y-130323423D01*
X162832676Y-130447138D01*
X162660690Y-130539066D01*
X162474074Y-130595675D01*
X162474073Y-130595675D01*
X162474070Y-130595676D01*
X162328636Y-130610000D01*
X160251364Y-130610000D01*
X160105930Y-130595676D01*
X160105927Y-130595675D01*
X160105926Y-130595675D01*
X159919310Y-130539066D01*
X159747324Y-130447138D01*
X159596577Y-130323423D01*
X159472862Y-130172676D01*
X159380934Y-130000690D01*
X159324325Y-129814074D01*
X159324325Y-129814073D01*
X159324324Y-129814070D01*
X159305210Y-129620000D01*
X159324324Y-129425930D01*
X159380935Y-129239308D01*
X159385070Y-129231573D01*
X159472862Y-129067324D01*
X159596577Y-128916577D01*
X159747324Y-128792862D01*
X159919310Y-128700934D01*
X160105926Y-128644325D01*
X160105927Y-128644325D01*
X160105930Y-128644324D01*
X160251364Y-128630000D01*
X162328636Y-128630000D01*
X162474070Y-128644324D01*
X162474070Y-128644324D01*
G37*
G36*
X163270000Y-125450000D02*
X159310000Y-125450000D01*
X159310000Y-123470000D01*
X163270000Y-123470000D01*
X163270000Y-125450000D01*
X163270000Y-125450000D01*
G37*
G36*
X212800000Y-125450000D02*
X208840000Y-125450000D01*
X208840000Y-123470000D01*
X212800000Y-123470000D01*
X212800000Y-125450000D01*
X212800000Y-125450000D01*
G37*
G36*
X199690000Y-123755000D02*
X197690000Y-123755000D01*
X197690000Y-119755000D01*
X199690000Y-119755000D01*
X199690000Y-123755000D01*
X199690000Y-123755000D01*
G37*
G36*
X150160000Y-123755000D02*
X148160000Y-123755000D01*
X148160000Y-119755000D01*
X150160000Y-119755000D01*
X150160000Y-123755000D01*
X150160000Y-123755000D01*
G37*
G36*
X179370000Y-123628000D02*
X177370000Y-123628000D01*
X177370000Y-119628000D01*
X179370000Y-119628000D01*
X179370000Y-123628000D01*
X179370000Y-123628000D01*
G37*
G36*
X129840000Y-123628000D02*
X127840000Y-123628000D01*
X127840000Y-119628000D01*
X129840000Y-119628000D01*
X129840000Y-123628000D01*
X129840000Y-123628000D01*
G37*
G36*
X212004070Y-118484324D02*
X212004073Y-118484325D01*
X212004074Y-118484325D01*
X212190690Y-118540934D01*
X212362676Y-118632862D01*
X212513423Y-118756577D01*
X212637138Y-118907324D01*
X212724930Y-119071573D01*
X212729065Y-119079308D01*
X212785676Y-119265930D01*
X212804790Y-119460000D01*
X212785676Y-119654070D01*
X212785675Y-119654073D01*
X212785675Y-119654074D01*
X212729066Y-119840690D01*
X212637138Y-120012676D01*
X212513423Y-120163423D01*
X212362676Y-120287138D01*
X212190690Y-120379066D01*
X212004074Y-120435675D01*
X212004073Y-120435675D01*
X212004070Y-120435676D01*
X211858636Y-120450000D01*
X209781364Y-120450000D01*
X209635930Y-120435676D01*
X209635927Y-120435675D01*
X209635926Y-120435675D01*
X209449310Y-120379066D01*
X209277324Y-120287138D01*
X209126577Y-120163423D01*
X209002862Y-120012676D01*
X208910934Y-119840690D01*
X208854325Y-119654074D01*
X208854325Y-119654073D01*
X208854324Y-119654070D01*
X208835210Y-119460000D01*
X208854324Y-119265930D01*
X208910935Y-119079308D01*
X208915070Y-119071573D01*
X209002862Y-118907324D01*
X209126577Y-118756577D01*
X209277324Y-118632862D01*
X209449310Y-118540934D01*
X209635926Y-118484325D01*
X209635927Y-118484325D01*
X209635930Y-118484324D01*
X209781364Y-118470000D01*
X211858636Y-118470000D01*
X212004070Y-118484324D01*
X212004070Y-118484324D01*
G37*
G36*
X162474070Y-118484324D02*
X162474073Y-118484325D01*
X162474074Y-118484325D01*
X162660690Y-118540934D01*
X162832676Y-118632862D01*
X162983423Y-118756577D01*
X163107138Y-118907324D01*
X163194930Y-119071573D01*
X163199065Y-119079308D01*
X163255676Y-119265930D01*
X163274790Y-119460000D01*
X163255676Y-119654070D01*
X163255675Y-119654073D01*
X163255675Y-119654074D01*
X163199066Y-119840690D01*
X163107138Y-120012676D01*
X162983423Y-120163423D01*
X162832676Y-120287138D01*
X162660690Y-120379066D01*
X162474074Y-120435675D01*
X162474073Y-120435675D01*
X162474070Y-120435676D01*
X162328636Y-120450000D01*
X160251364Y-120450000D01*
X160105930Y-120435676D01*
X160105927Y-120435675D01*
X160105926Y-120435675D01*
X159919310Y-120379066D01*
X159747324Y-120287138D01*
X159596577Y-120163423D01*
X159472862Y-120012676D01*
X159380934Y-119840690D01*
X159324325Y-119654074D01*
X159324325Y-119654073D01*
X159324324Y-119654070D01*
X159305210Y-119460000D01*
X159324324Y-119265930D01*
X159380935Y-119079308D01*
X159385070Y-119071573D01*
X159472862Y-118907324D01*
X159596577Y-118756577D01*
X159747324Y-118632862D01*
X159919310Y-118540934D01*
X160105926Y-118484325D01*
X160105927Y-118484325D01*
X160105930Y-118484324D01*
X160251364Y-118470000D01*
X162328636Y-118470000D01*
X162474070Y-118484324D01*
X162474070Y-118484324D01*
G37*
G36*
X163270000Y-115290000D02*
X159310000Y-115290000D01*
X159310000Y-113310000D01*
X163270000Y-113310000D01*
X163270000Y-115290000D01*
X163270000Y-115290000D01*
G37*
G36*
X212800000Y-115290000D02*
X208840000Y-115290000D01*
X208840000Y-113310000D01*
X212800000Y-113310000D01*
X212800000Y-115290000D01*
X212800000Y-115290000D01*
G37*
G36*
X129840000Y-114325000D02*
X127840000Y-114325000D01*
X127840000Y-110325000D01*
X129840000Y-110325000D01*
X129840000Y-114325000D01*
X129840000Y-114325000D01*
G37*
G36*
X179370000Y-114325000D02*
X177370000Y-114325000D01*
X177370000Y-110325000D01*
X179370000Y-110325000D01*
X179370000Y-114325000D01*
X179370000Y-114325000D01*
G37*
G36*
X150160000Y-114325000D02*
X148160000Y-114325000D01*
X148160000Y-110325000D01*
X150160000Y-110325000D01*
X150160000Y-114325000D01*
X150160000Y-114325000D01*
G37*
G36*
X199690000Y-114325000D02*
X197690000Y-114325000D01*
X197690000Y-110325000D01*
X199690000Y-110325000D01*
X199690000Y-114325000D01*
X199690000Y-114325000D01*
G37*
G36*
X162474070Y-108324324D02*
X162474073Y-108324325D01*
X162474074Y-108324325D01*
X162660690Y-108380934D01*
X162832676Y-108472862D01*
X162983423Y-108596577D01*
X163107138Y-108747324D01*
X163162019Y-108850000D01*
X163199065Y-108919308D01*
X163255676Y-109105930D01*
X163274790Y-109300000D01*
X163255676Y-109494070D01*
X163255675Y-109494073D01*
X163255675Y-109494074D01*
X163199066Y-109680690D01*
X163107138Y-109852676D01*
X162983423Y-110003423D01*
X162832676Y-110127138D01*
X162660690Y-110219066D01*
X162474074Y-110275675D01*
X162474073Y-110275675D01*
X162474070Y-110275676D01*
X162328636Y-110290000D01*
X160251364Y-110290000D01*
X160105930Y-110275676D01*
X160105927Y-110275675D01*
X160105926Y-110275675D01*
X159919310Y-110219066D01*
X159747324Y-110127138D01*
X159596577Y-110003423D01*
X159472862Y-109852676D01*
X159380934Y-109680690D01*
X159324325Y-109494074D01*
X159324325Y-109494073D01*
X159324324Y-109494070D01*
X159305210Y-109300000D01*
X159324324Y-109105930D01*
X159380935Y-108919308D01*
X159417981Y-108850000D01*
X159472862Y-108747324D01*
X159596577Y-108596577D01*
X159747324Y-108472862D01*
X159919310Y-108380934D01*
X160105926Y-108324325D01*
X160105927Y-108324325D01*
X160105930Y-108324324D01*
X160251364Y-108310000D01*
X162328636Y-108310000D01*
X162474070Y-108324324D01*
X162474070Y-108324324D01*
G37*
G36*
X212004070Y-108324324D02*
X212004073Y-108324325D01*
X212004074Y-108324325D01*
X212190690Y-108380934D01*
X212362676Y-108472862D01*
X212513423Y-108596577D01*
X212637138Y-108747324D01*
X212692019Y-108850000D01*
X212729065Y-108919308D01*
X212785676Y-109105930D01*
X212804790Y-109300000D01*
X212785676Y-109494070D01*
X212785675Y-109494073D01*
X212785675Y-109494074D01*
X212729066Y-109680690D01*
X212637138Y-109852676D01*
X212513423Y-110003423D01*
X212362676Y-110127138D01*
X212190690Y-110219066D01*
X212004074Y-110275675D01*
X212004073Y-110275675D01*
X212004070Y-110275676D01*
X211858636Y-110290000D01*
X209781364Y-110290000D01*
X209635930Y-110275676D01*
X209635927Y-110275675D01*
X209635926Y-110275675D01*
X209449310Y-110219066D01*
X209277324Y-110127138D01*
X209126577Y-110003423D01*
X209002862Y-109852676D01*
X208910934Y-109680690D01*
X208854325Y-109494074D01*
X208854325Y-109494073D01*
X208854324Y-109494070D01*
X208835210Y-109300000D01*
X208854324Y-109105930D01*
X208910935Y-108919308D01*
X208947981Y-108850000D01*
X209002862Y-108747324D01*
X209126577Y-108596577D01*
X209277324Y-108472862D01*
X209449310Y-108380934D01*
X209635926Y-108324325D01*
X209635927Y-108324325D01*
X209635930Y-108324324D01*
X209781364Y-108310000D01*
X211858636Y-108310000D01*
X212004070Y-108324324D01*
X212004070Y-108324324D01*
G37*
G36*
X141232521Y-107084586D02*
X141396309Y-107152429D01*
X141543720Y-107250926D01*
X141669074Y-107376280D01*
X141767571Y-107523691D01*
X141835414Y-107687479D01*
X141870000Y-107861356D01*
X141870000Y-108038644D01*
X141835414Y-108212521D01*
X141767571Y-108376309D01*
X141669074Y-108523720D01*
X141543720Y-108649074D01*
X141396309Y-108747571D01*
X141232521Y-108815414D01*
X141058644Y-108850000D01*
X140881356Y-108850000D01*
X140707479Y-108815414D01*
X140543691Y-108747571D01*
X140396280Y-108649074D01*
X140270926Y-108523720D01*
X140172429Y-108376309D01*
X140104586Y-108212521D01*
X140070000Y-108038644D01*
X140070000Y-107861356D01*
X140104586Y-107687479D01*
X140172429Y-107523691D01*
X140270926Y-107376280D01*
X140396280Y-107250926D01*
X140543691Y-107152429D01*
X140707479Y-107084586D01*
X140881356Y-107050000D01*
X141058644Y-107050000D01*
X141232521Y-107084586D01*
X141232521Y-107084586D01*
G37*
G36*
X180602521Y-107084586D02*
X180766309Y-107152429D01*
X180913720Y-107250926D01*
X181039074Y-107376280D01*
X181137571Y-107523691D01*
X181205414Y-107687479D01*
X181240000Y-107861356D01*
X181240000Y-108038644D01*
X181205414Y-108212521D01*
X181137571Y-108376309D01*
X181039074Y-108523720D01*
X180913720Y-108649074D01*
X180766309Y-108747571D01*
X180602521Y-108815414D01*
X180428644Y-108850000D01*
X180251356Y-108850000D01*
X180077479Y-108815414D01*
X179913691Y-108747571D01*
X179766280Y-108649074D01*
X179640926Y-108523720D01*
X179542429Y-108376309D01*
X179474586Y-108212521D01*
X179440000Y-108038644D01*
X179440000Y-107861356D01*
X179474586Y-107687479D01*
X179542429Y-107523691D01*
X179640926Y-107376280D01*
X179766280Y-107250926D01*
X179913691Y-107152429D01*
X180077479Y-107084586D01*
X180251356Y-107050000D01*
X180428644Y-107050000D01*
X180602521Y-107084586D01*
X180602521Y-107084586D01*
G37*
G36*
X178062521Y-107084586D02*
X178226309Y-107152429D01*
X178373720Y-107250926D01*
X178499074Y-107376280D01*
X178597571Y-107523691D01*
X178665414Y-107687479D01*
X178700000Y-107861356D01*
X178700000Y-108038644D01*
X178665414Y-108212521D01*
X178597571Y-108376309D01*
X178499074Y-108523720D01*
X178373720Y-108649074D01*
X178226309Y-108747571D01*
X178062521Y-108815414D01*
X177888644Y-108850000D01*
X177711356Y-108850000D01*
X177537479Y-108815414D01*
X177373691Y-108747571D01*
X177226280Y-108649074D01*
X177100926Y-108523720D01*
X177002429Y-108376309D01*
X176934586Y-108212521D01*
X176900000Y-108038644D01*
X176900000Y-107861356D01*
X176934586Y-107687479D01*
X177002429Y-107523691D01*
X177100926Y-107376280D01*
X177226280Y-107250926D01*
X177373691Y-107152429D01*
X177537479Y-107084586D01*
X177711356Y-107050000D01*
X177888644Y-107050000D01*
X178062521Y-107084586D01*
X178062521Y-107084586D01*
G37*
G36*
X146312521Y-107084586D02*
X146476309Y-107152429D01*
X146623720Y-107250926D01*
X146749074Y-107376280D01*
X146847571Y-107523691D01*
X146915414Y-107687479D01*
X146950000Y-107861356D01*
X146950000Y-108038644D01*
X146915414Y-108212521D01*
X146847571Y-108376309D01*
X146749074Y-108523720D01*
X146623720Y-108649074D01*
X146476309Y-108747571D01*
X146312521Y-108815414D01*
X146138644Y-108850000D01*
X145961356Y-108850000D01*
X145787479Y-108815414D01*
X145623691Y-108747571D01*
X145476280Y-108649074D01*
X145350926Y-108523720D01*
X145252429Y-108376309D01*
X145184586Y-108212521D01*
X145150000Y-108038644D01*
X145150000Y-107861356D01*
X145184586Y-107687479D01*
X145252429Y-107523691D01*
X145350926Y-107376280D01*
X145476280Y-107250926D01*
X145623691Y-107152429D01*
X145787479Y-107084586D01*
X145961356Y-107050000D01*
X146138644Y-107050000D01*
X146312521Y-107084586D01*
X146312521Y-107084586D01*
G37*
G36*
X143772521Y-107084586D02*
X143936309Y-107152429D01*
X144083720Y-107250926D01*
X144209074Y-107376280D01*
X144307571Y-107523691D01*
X144375414Y-107687479D01*
X144410000Y-107861356D01*
X144410000Y-108038644D01*
X144375414Y-108212521D01*
X144307571Y-108376309D01*
X144209074Y-108523720D01*
X144083720Y-108649074D01*
X143936309Y-108747571D01*
X143772521Y-108815414D01*
X143598644Y-108850000D01*
X143421356Y-108850000D01*
X143247479Y-108815414D01*
X143083691Y-108747571D01*
X142936280Y-108649074D01*
X142810926Y-108523720D01*
X142712429Y-108376309D01*
X142644586Y-108212521D01*
X142610000Y-108038644D01*
X142610000Y-107861356D01*
X142644586Y-107687479D01*
X142712429Y-107523691D01*
X142810926Y-107376280D01*
X142936280Y-107250926D01*
X143083691Y-107152429D01*
X143247479Y-107084586D01*
X143421356Y-107050000D01*
X143598644Y-107050000D01*
X143772521Y-107084586D01*
X143772521Y-107084586D01*
G37*
G36*
X138692521Y-107084586D02*
X138856309Y-107152429D01*
X139003720Y-107250926D01*
X139129074Y-107376280D01*
X139227571Y-107523691D01*
X139295414Y-107687479D01*
X139330000Y-107861356D01*
X139330000Y-108038644D01*
X139295414Y-108212521D01*
X139227571Y-108376309D01*
X139129074Y-108523720D01*
X139003720Y-108649074D01*
X138856309Y-108747571D01*
X138692521Y-108815414D01*
X138518644Y-108850000D01*
X138341356Y-108850000D01*
X138167479Y-108815414D01*
X138003691Y-108747571D01*
X137856280Y-108649074D01*
X137730926Y-108523720D01*
X137632429Y-108376309D01*
X137564586Y-108212521D01*
X137530000Y-108038644D01*
X137530000Y-107861356D01*
X137564586Y-107687479D01*
X137632429Y-107523691D01*
X137730926Y-107376280D01*
X137856280Y-107250926D01*
X138003691Y-107152429D01*
X138167479Y-107084586D01*
X138341356Y-107050000D01*
X138518644Y-107050000D01*
X138692521Y-107084586D01*
X138692521Y-107084586D01*
G37*
G36*
X136152521Y-107084586D02*
X136316309Y-107152429D01*
X136463720Y-107250926D01*
X136589074Y-107376280D01*
X136687571Y-107523691D01*
X136755414Y-107687479D01*
X136790000Y-107861356D01*
X136790000Y-108038644D01*
X136755414Y-108212521D01*
X136687571Y-108376309D01*
X136589074Y-108523720D01*
X136463720Y-108649074D01*
X136316309Y-108747571D01*
X136152521Y-108815414D01*
X135978644Y-108850000D01*
X135801356Y-108850000D01*
X135627479Y-108815414D01*
X135463691Y-108747571D01*
X135316280Y-108649074D01*
X135190926Y-108523720D01*
X135092429Y-108376309D01*
X135024586Y-108212521D01*
X134990000Y-108038644D01*
X134990000Y-107861356D01*
X135024586Y-107687479D01*
X135092429Y-107523691D01*
X135190926Y-107376280D01*
X135316280Y-107250926D01*
X135463691Y-107152429D01*
X135627479Y-107084586D01*
X135801356Y-107050000D01*
X135978644Y-107050000D01*
X136152521Y-107084586D01*
X136152521Y-107084586D01*
G37*
G36*
X133612521Y-107084586D02*
X133776309Y-107152429D01*
X133923720Y-107250926D01*
X134049074Y-107376280D01*
X134147571Y-107523691D01*
X134215414Y-107687479D01*
X134250000Y-107861356D01*
X134250000Y-108038644D01*
X134215414Y-108212521D01*
X134147571Y-108376309D01*
X134049074Y-108523720D01*
X133923720Y-108649074D01*
X133776309Y-108747571D01*
X133612521Y-108815414D01*
X133438644Y-108850000D01*
X133261356Y-108850000D01*
X133087479Y-108815414D01*
X132923691Y-108747571D01*
X132776280Y-108649074D01*
X132650926Y-108523720D01*
X132552429Y-108376309D01*
X132484586Y-108212521D01*
X132450000Y-108038644D01*
X132450000Y-107861356D01*
X132484586Y-107687479D01*
X132552429Y-107523691D01*
X132650926Y-107376280D01*
X132776280Y-107250926D01*
X132923691Y-107152429D01*
X133087479Y-107084586D01*
X133261356Y-107050000D01*
X133438644Y-107050000D01*
X133612521Y-107084586D01*
X133612521Y-107084586D01*
G37*
G36*
X128532521Y-107084586D02*
X128696309Y-107152429D01*
X128843720Y-107250926D01*
X128969074Y-107376280D01*
X129067571Y-107523691D01*
X129135414Y-107687479D01*
X129170000Y-107861356D01*
X129170000Y-108038644D01*
X129135414Y-108212521D01*
X129067571Y-108376309D01*
X128969074Y-108523720D01*
X128843720Y-108649074D01*
X128696309Y-108747571D01*
X128532521Y-108815414D01*
X128358644Y-108850000D01*
X128181356Y-108850000D01*
X128007479Y-108815414D01*
X127843691Y-108747571D01*
X127696280Y-108649074D01*
X127570926Y-108523720D01*
X127472429Y-108376309D01*
X127404586Y-108212521D01*
X127370000Y-108038644D01*
X127370000Y-107861356D01*
X127404586Y-107687479D01*
X127472429Y-107523691D01*
X127570926Y-107376280D01*
X127696280Y-107250926D01*
X127843691Y-107152429D01*
X128007479Y-107084586D01*
X128181356Y-107050000D01*
X128358644Y-107050000D01*
X128532521Y-107084586D01*
X128532521Y-107084586D01*
G37*
G36*
X183142521Y-107084586D02*
X183306309Y-107152429D01*
X183453720Y-107250926D01*
X183579074Y-107376280D01*
X183677571Y-107523691D01*
X183745414Y-107687479D01*
X183780000Y-107861356D01*
X183780000Y-108038644D01*
X183745414Y-108212521D01*
X183677571Y-108376309D01*
X183579074Y-108523720D01*
X183453720Y-108649074D01*
X183306309Y-108747571D01*
X183142521Y-108815414D01*
X182968644Y-108850000D01*
X182791356Y-108850000D01*
X182617479Y-108815414D01*
X182453691Y-108747571D01*
X182306280Y-108649074D01*
X182180926Y-108523720D01*
X182082429Y-108376309D01*
X182014586Y-108212521D01*
X181980000Y-108038644D01*
X181980000Y-107861356D01*
X182014586Y-107687479D01*
X182082429Y-107523691D01*
X182180926Y-107376280D01*
X182306280Y-107250926D01*
X182453691Y-107152429D01*
X182617479Y-107084586D01*
X182791356Y-107050000D01*
X182968644Y-107050000D01*
X183142521Y-107084586D01*
X183142521Y-107084586D01*
G37*
G36*
X185682521Y-107084586D02*
X185846309Y-107152429D01*
X185993720Y-107250926D01*
X186119074Y-107376280D01*
X186217571Y-107523691D01*
X186285414Y-107687479D01*
X186320000Y-107861356D01*
X186320000Y-108038644D01*
X186285414Y-108212521D01*
X186217571Y-108376309D01*
X186119074Y-108523720D01*
X185993720Y-108649074D01*
X185846309Y-108747571D01*
X185682521Y-108815414D01*
X185508644Y-108850000D01*
X185331356Y-108850000D01*
X185157479Y-108815414D01*
X184993691Y-108747571D01*
X184846280Y-108649074D01*
X184720926Y-108523720D01*
X184622429Y-108376309D01*
X184554586Y-108212521D01*
X184520000Y-108038644D01*
X184520000Y-107861356D01*
X184554586Y-107687479D01*
X184622429Y-107523691D01*
X184720926Y-107376280D01*
X184846280Y-107250926D01*
X184993691Y-107152429D01*
X185157479Y-107084586D01*
X185331356Y-107050000D01*
X185508644Y-107050000D01*
X185682521Y-107084586D01*
X185682521Y-107084586D01*
G37*
G36*
X195842521Y-107084586D02*
X196006309Y-107152429D01*
X196153720Y-107250926D01*
X196279074Y-107376280D01*
X196377571Y-107523691D01*
X196445414Y-107687479D01*
X196480000Y-107861356D01*
X196480000Y-108038644D01*
X196445414Y-108212521D01*
X196377571Y-108376309D01*
X196279074Y-108523720D01*
X196153720Y-108649074D01*
X196006309Y-108747571D01*
X195842521Y-108815414D01*
X195668644Y-108850000D01*
X195491356Y-108850000D01*
X195317479Y-108815414D01*
X195153691Y-108747571D01*
X195006280Y-108649074D01*
X194880926Y-108523720D01*
X194782429Y-108376309D01*
X194714586Y-108212521D01*
X194680000Y-108038644D01*
X194680000Y-107861356D01*
X194714586Y-107687479D01*
X194782429Y-107523691D01*
X194880926Y-107376280D01*
X195006280Y-107250926D01*
X195153691Y-107152429D01*
X195317479Y-107084586D01*
X195491356Y-107050000D01*
X195668644Y-107050000D01*
X195842521Y-107084586D01*
X195842521Y-107084586D01*
G37*
G36*
X193302521Y-107084586D02*
X193466309Y-107152429D01*
X193613720Y-107250926D01*
X193739074Y-107376280D01*
X193837571Y-107523691D01*
X193905414Y-107687479D01*
X193940000Y-107861356D01*
X193940000Y-108038644D01*
X193905414Y-108212521D01*
X193837571Y-108376309D01*
X193739074Y-108523720D01*
X193613720Y-108649074D01*
X193466309Y-108747571D01*
X193302521Y-108815414D01*
X193128644Y-108850000D01*
X192951356Y-108850000D01*
X192777479Y-108815414D01*
X192613691Y-108747571D01*
X192466280Y-108649074D01*
X192340926Y-108523720D01*
X192242429Y-108376309D01*
X192174586Y-108212521D01*
X192140000Y-108038644D01*
X192140000Y-107861356D01*
X192174586Y-107687479D01*
X192242429Y-107523691D01*
X192340926Y-107376280D01*
X192466280Y-107250926D01*
X192613691Y-107152429D01*
X192777479Y-107084586D01*
X192951356Y-107050000D01*
X193128644Y-107050000D01*
X193302521Y-107084586D01*
X193302521Y-107084586D01*
G37*
G36*
X190762521Y-107084586D02*
X190926309Y-107152429D01*
X191073720Y-107250926D01*
X191199074Y-107376280D01*
X191297571Y-107523691D01*
X191365414Y-107687479D01*
X191400000Y-107861356D01*
X191400000Y-108038644D01*
X191365414Y-108212521D01*
X191297571Y-108376309D01*
X191199074Y-108523720D01*
X191073720Y-108649074D01*
X190926309Y-108747571D01*
X190762521Y-108815414D01*
X190588644Y-108850000D01*
X190411356Y-108850000D01*
X190237479Y-108815414D01*
X190073691Y-108747571D01*
X189926280Y-108649074D01*
X189800926Y-108523720D01*
X189702429Y-108376309D01*
X189634586Y-108212521D01*
X189600000Y-108038644D01*
X189600000Y-107861356D01*
X189634586Y-107687479D01*
X189702429Y-107523691D01*
X189800926Y-107376280D01*
X189926280Y-107250926D01*
X190073691Y-107152429D01*
X190237479Y-107084586D01*
X190411356Y-107050000D01*
X190588644Y-107050000D01*
X190762521Y-107084586D01*
X190762521Y-107084586D01*
G37*
G36*
X188222521Y-107084586D02*
X188386309Y-107152429D01*
X188533720Y-107250926D01*
X188659074Y-107376280D01*
X188757571Y-107523691D01*
X188825414Y-107687479D01*
X188860000Y-107861356D01*
X188860000Y-108038644D01*
X188825414Y-108212521D01*
X188757571Y-108376309D01*
X188659074Y-108523720D01*
X188533720Y-108649074D01*
X188386309Y-108747571D01*
X188222521Y-108815414D01*
X188048644Y-108850000D01*
X187871356Y-108850000D01*
X187697479Y-108815414D01*
X187533691Y-108747571D01*
X187386280Y-108649074D01*
X187260926Y-108523720D01*
X187162429Y-108376309D01*
X187094586Y-108212521D01*
X187060000Y-108038644D01*
X187060000Y-107861356D01*
X187094586Y-107687479D01*
X187162429Y-107523691D01*
X187260926Y-107376280D01*
X187386280Y-107250926D01*
X187533691Y-107152429D01*
X187697479Y-107084586D01*
X187871356Y-107050000D01*
X188048644Y-107050000D01*
X188222521Y-107084586D01*
X188222521Y-107084586D01*
G37*
G36*
X131072521Y-107084586D02*
X131236309Y-107152429D01*
X131383720Y-107250926D01*
X131509074Y-107376280D01*
X131607571Y-107523691D01*
X131675414Y-107687479D01*
X131710000Y-107861356D01*
X131710000Y-108038644D01*
X131675414Y-108212521D01*
X131607571Y-108376309D01*
X131509074Y-108523720D01*
X131383720Y-108649074D01*
X131236309Y-108747571D01*
X131072521Y-108815414D01*
X130898644Y-108850000D01*
X130721356Y-108850000D01*
X130547479Y-108815414D01*
X130383691Y-108747571D01*
X130236280Y-108649074D01*
X130110926Y-108523720D01*
X130012429Y-108376309D01*
X129944586Y-108212521D01*
X129910000Y-108038644D01*
X129910000Y-107861356D01*
X129944586Y-107687479D01*
X130012429Y-107523691D01*
X130110926Y-107376280D01*
X130236280Y-107250926D01*
X130383691Y-107152429D01*
X130547479Y-107084586D01*
X130721356Y-107050000D01*
X130898644Y-107050000D01*
X131072521Y-107084586D01*
X131072521Y-107084586D01*
G37*
G36*
X150175770Y-102035372D02*
X150291689Y-102058429D01*
X150473678Y-102133811D01*
X150637463Y-102243249D01*
X150776751Y-102382537D01*
X150886189Y-102546322D01*
X150961571Y-102728311D01*
X150977565Y-102808720D01*
X151000000Y-102921507D01*
X151000000Y-103118493D01*
X150984628Y-103195770D01*
X150961571Y-103311689D01*
X150886189Y-103493678D01*
X150776751Y-103657463D01*
X150637463Y-103796751D01*
X150473678Y-103906189D01*
X150291689Y-103981571D01*
X150175770Y-104004628D01*
X150098493Y-104020000D01*
X149901507Y-104020000D01*
X149824230Y-104004628D01*
X149708311Y-103981571D01*
X149526322Y-103906189D01*
X149362537Y-103796751D01*
X149223249Y-103657463D01*
X149113811Y-103493678D01*
X149038429Y-103311689D01*
X149015372Y-103195770D01*
X149000000Y-103118493D01*
X149000000Y-102921507D01*
X149022435Y-102808720D01*
X149038429Y-102728311D01*
X149113811Y-102546322D01*
X149223249Y-102382537D01*
X149362537Y-102243249D01*
X149526322Y-102133811D01*
X149708311Y-102058429D01*
X149824230Y-102035372D01*
X149901507Y-102020000D01*
X150098493Y-102020000D01*
X150175770Y-102035372D01*
X150175770Y-102035372D01*
G37*
G36*
X147635770Y-102035372D02*
X147751689Y-102058429D01*
X147933678Y-102133811D01*
X148097463Y-102243249D01*
X148236751Y-102382537D01*
X148346189Y-102546322D01*
X148421571Y-102728311D01*
X148437565Y-102808720D01*
X148460000Y-102921507D01*
X148460000Y-103118493D01*
X148444628Y-103195770D01*
X148421571Y-103311689D01*
X148346189Y-103493678D01*
X148236751Y-103657463D01*
X148097463Y-103796751D01*
X147933678Y-103906189D01*
X147751689Y-103981571D01*
X147635770Y-104004628D01*
X147558493Y-104020000D01*
X147361507Y-104020000D01*
X147284230Y-104004628D01*
X147168311Y-103981571D01*
X146986322Y-103906189D01*
X146822537Y-103796751D01*
X146683249Y-103657463D01*
X146573811Y-103493678D01*
X146498429Y-103311689D01*
X146475372Y-103195770D01*
X146460000Y-103118493D01*
X146460000Y-102921507D01*
X146482435Y-102808720D01*
X146498429Y-102728311D01*
X146573811Y-102546322D01*
X146683249Y-102382537D01*
X146822537Y-102243249D01*
X146986322Y-102133811D01*
X147168311Y-102058429D01*
X147284230Y-102035372D01*
X147361507Y-102020000D01*
X147558493Y-102020000D01*
X147635770Y-102035372D01*
X147635770Y-102035372D01*
G37*
G36*
X152715770Y-102035372D02*
X152831689Y-102058429D01*
X153013678Y-102133811D01*
X153177463Y-102243249D01*
X153316751Y-102382537D01*
X153426189Y-102546322D01*
X153501571Y-102728311D01*
X153517565Y-102808720D01*
X153540000Y-102921507D01*
X153540000Y-103118493D01*
X153524628Y-103195770D01*
X153501571Y-103311689D01*
X153426189Y-103493678D01*
X153316751Y-103657463D01*
X153177463Y-103796751D01*
X153013678Y-103906189D01*
X152831689Y-103981571D01*
X152715770Y-104004628D01*
X152638493Y-104020000D01*
X152441507Y-104020000D01*
X152364230Y-104004628D01*
X152248311Y-103981571D01*
X152066322Y-103906189D01*
X151902537Y-103796751D01*
X151763249Y-103657463D01*
X151653811Y-103493678D01*
X151578429Y-103311689D01*
X151555372Y-103195770D01*
X151540000Y-103118493D01*
X151540000Y-102921507D01*
X151562435Y-102808720D01*
X151578429Y-102728311D01*
X151653811Y-102546322D01*
X151763249Y-102382537D01*
X151902537Y-102243249D01*
X152066322Y-102133811D01*
X152248311Y-102058429D01*
X152364230Y-102035372D01*
X152441507Y-102020000D01*
X152638493Y-102020000D01*
X152715770Y-102035372D01*
X152715770Y-102035372D01*
G37*
G36*
X197165770Y-102035372D02*
X197281689Y-102058429D01*
X197463678Y-102133811D01*
X197627463Y-102243249D01*
X197766751Y-102382537D01*
X197876189Y-102546322D01*
X197951571Y-102728311D01*
X197967565Y-102808720D01*
X197990000Y-102921507D01*
X197990000Y-103118493D01*
X197974628Y-103195770D01*
X197951571Y-103311689D01*
X197876189Y-103493678D01*
X197766751Y-103657463D01*
X197627463Y-103796751D01*
X197463678Y-103906189D01*
X197281689Y-103981571D01*
X197165770Y-104004628D01*
X197088493Y-104020000D01*
X196891507Y-104020000D01*
X196814230Y-104004628D01*
X196698311Y-103981571D01*
X196516322Y-103906189D01*
X196352537Y-103796751D01*
X196213249Y-103657463D01*
X196103811Y-103493678D01*
X196028429Y-103311689D01*
X196005372Y-103195770D01*
X195990000Y-103118493D01*
X195990000Y-102921507D01*
X196012435Y-102808720D01*
X196028429Y-102728311D01*
X196103811Y-102546322D01*
X196213249Y-102382537D01*
X196352537Y-102243249D01*
X196516322Y-102133811D01*
X196698311Y-102058429D01*
X196814230Y-102035372D01*
X196891507Y-102020000D01*
X197088493Y-102020000D01*
X197165770Y-102035372D01*
X197165770Y-102035372D01*
G37*
G36*
X199705770Y-102035372D02*
X199821689Y-102058429D01*
X200003678Y-102133811D01*
X200167463Y-102243249D01*
X200306751Y-102382537D01*
X200416189Y-102546322D01*
X200491571Y-102728311D01*
X200507565Y-102808720D01*
X200530000Y-102921507D01*
X200530000Y-103118493D01*
X200514628Y-103195770D01*
X200491571Y-103311689D01*
X200416189Y-103493678D01*
X200306751Y-103657463D01*
X200167463Y-103796751D01*
X200003678Y-103906189D01*
X199821689Y-103981571D01*
X199705770Y-104004628D01*
X199628493Y-104020000D01*
X199431507Y-104020000D01*
X199354230Y-104004628D01*
X199238311Y-103981571D01*
X199056322Y-103906189D01*
X198892537Y-103796751D01*
X198753249Y-103657463D01*
X198643811Y-103493678D01*
X198568429Y-103311689D01*
X198545372Y-103195770D01*
X198530000Y-103118493D01*
X198530000Y-102921507D01*
X198552435Y-102808720D01*
X198568429Y-102728311D01*
X198643811Y-102546322D01*
X198753249Y-102382537D01*
X198892537Y-102243249D01*
X199056322Y-102133811D01*
X199238311Y-102058429D01*
X199354230Y-102035372D01*
X199431507Y-102020000D01*
X199628493Y-102020000D01*
X199705770Y-102035372D01*
X199705770Y-102035372D01*
G37*
G36*
X202245770Y-102035372D02*
X202361689Y-102058429D01*
X202543678Y-102133811D01*
X202707463Y-102243249D01*
X202846751Y-102382537D01*
X202956189Y-102546322D01*
X203031571Y-102728311D01*
X203047565Y-102808720D01*
X203070000Y-102921507D01*
X203070000Y-103118493D01*
X203054628Y-103195770D01*
X203031571Y-103311689D01*
X202956189Y-103493678D01*
X202846751Y-103657463D01*
X202707463Y-103796751D01*
X202543678Y-103906189D01*
X202361689Y-103981571D01*
X202245770Y-104004628D01*
X202168493Y-104020000D01*
X201971507Y-104020000D01*
X201894230Y-104004628D01*
X201778311Y-103981571D01*
X201596322Y-103906189D01*
X201432537Y-103796751D01*
X201293249Y-103657463D01*
X201183811Y-103493678D01*
X201108429Y-103311689D01*
X201085372Y-103195770D01*
X201070000Y-103118493D01*
X201070000Y-102921507D01*
X201092435Y-102808720D01*
X201108429Y-102728311D01*
X201183811Y-102546322D01*
X201293249Y-102382537D01*
X201432537Y-102243249D01*
X201596322Y-102133811D01*
X201778311Y-102058429D01*
X201894230Y-102035372D01*
X201971507Y-102020000D01*
X202168493Y-102020000D01*
X202245770Y-102035372D01*
X202245770Y-102035372D01*
G37*
G36*
X174800770Y-101250372D02*
X174916689Y-101273429D01*
X175098678Y-101348811D01*
X175262463Y-101458249D01*
X175401751Y-101597537D01*
X175511189Y-101761322D01*
X175586571Y-101943311D01*
X175592373Y-101972480D01*
X175624464Y-102133811D01*
X175625000Y-102136509D01*
X175625000Y-102333491D01*
X175586571Y-102526689D01*
X175511189Y-102708678D01*
X175401751Y-102872463D01*
X175262463Y-103011751D01*
X175098678Y-103121189D01*
X174916689Y-103196571D01*
X174800770Y-103219628D01*
X174723493Y-103235000D01*
X174526507Y-103235000D01*
X174449230Y-103219628D01*
X174333311Y-103196571D01*
X174151322Y-103121189D01*
X173987537Y-103011751D01*
X173848249Y-102872463D01*
X173738811Y-102708678D01*
X173663429Y-102526689D01*
X173625000Y-102333491D01*
X173625000Y-102136509D01*
X173625537Y-102133811D01*
X173657627Y-101972480D01*
X173663429Y-101943311D01*
X173738811Y-101761322D01*
X173848249Y-101597537D01*
X173987537Y-101458249D01*
X174151322Y-101348811D01*
X174333311Y-101273429D01*
X174449230Y-101250372D01*
X174526507Y-101235000D01*
X174723493Y-101235000D01*
X174800770Y-101250372D01*
X174800770Y-101250372D01*
G37*
G36*
X122222770Y-101250372D02*
X122338689Y-101273429D01*
X122520678Y-101348811D01*
X122684463Y-101458249D01*
X122823751Y-101597537D01*
X122933189Y-101761322D01*
X123008571Y-101943311D01*
X123014373Y-101972480D01*
X123046464Y-102133811D01*
X123047000Y-102136509D01*
X123047000Y-102333491D01*
X123008571Y-102526689D01*
X122933189Y-102708678D01*
X122823751Y-102872463D01*
X122684463Y-103011751D01*
X122520678Y-103121189D01*
X122338689Y-103196571D01*
X122222770Y-103219628D01*
X122145493Y-103235000D01*
X121948507Y-103235000D01*
X121871230Y-103219628D01*
X121755311Y-103196571D01*
X121573322Y-103121189D01*
X121409537Y-103011751D01*
X121270249Y-102872463D01*
X121160811Y-102708678D01*
X121085429Y-102526689D01*
X121047000Y-102333491D01*
X121047000Y-102136509D01*
X121047537Y-102133811D01*
X121079627Y-101972480D01*
X121085429Y-101943311D01*
X121160811Y-101761322D01*
X121270249Y-101597537D01*
X121409537Y-101458249D01*
X121573322Y-101348811D01*
X121755311Y-101273429D01*
X121871230Y-101250372D01*
X121948507Y-101235000D01*
X122145493Y-101235000D01*
X122222770Y-101250372D01*
X122222770Y-101250372D01*
G37*
G36*
X125270770Y-101250372D02*
X125386689Y-101273429D01*
X125568678Y-101348811D01*
X125732463Y-101458249D01*
X125871751Y-101597537D01*
X125981189Y-101761322D01*
X126056571Y-101943311D01*
X126062373Y-101972480D01*
X126094464Y-102133811D01*
X126095000Y-102136509D01*
X126095000Y-102333491D01*
X126056571Y-102526689D01*
X125981189Y-102708678D01*
X125871751Y-102872463D01*
X125732463Y-103011751D01*
X125568678Y-103121189D01*
X125386689Y-103196571D01*
X125270770Y-103219628D01*
X125193493Y-103235000D01*
X124996507Y-103235000D01*
X124919230Y-103219628D01*
X124803311Y-103196571D01*
X124621322Y-103121189D01*
X124457537Y-103011751D01*
X124318249Y-102872463D01*
X124208811Y-102708678D01*
X124133429Y-102526689D01*
X124095000Y-102333491D01*
X124095000Y-102136509D01*
X124095537Y-102133811D01*
X124127627Y-101972480D01*
X124133429Y-101943311D01*
X124208811Y-101761322D01*
X124318249Y-101597537D01*
X124457537Y-101458249D01*
X124621322Y-101348811D01*
X124803311Y-101273429D01*
X124919230Y-101250372D01*
X124996507Y-101235000D01*
X125193493Y-101235000D01*
X125270770Y-101250372D01*
X125270770Y-101250372D01*
G37*
G36*
X171752770Y-101250372D02*
X171868689Y-101273429D01*
X172050678Y-101348811D01*
X172214463Y-101458249D01*
X172353751Y-101597537D01*
X172463189Y-101761322D01*
X172538571Y-101943311D01*
X172544373Y-101972480D01*
X172576464Y-102133811D01*
X172577000Y-102136509D01*
X172577000Y-102333491D01*
X172538571Y-102526689D01*
X172463189Y-102708678D01*
X172353751Y-102872463D01*
X172214463Y-103011751D01*
X172050678Y-103121189D01*
X171868689Y-103196571D01*
X171752770Y-103219628D01*
X171675493Y-103235000D01*
X171478507Y-103235000D01*
X171401230Y-103219628D01*
X171285311Y-103196571D01*
X171103322Y-103121189D01*
X170939537Y-103011751D01*
X170800249Y-102872463D01*
X170690811Y-102708678D01*
X170615429Y-102526689D01*
X170577000Y-102333491D01*
X170577000Y-102136509D01*
X170577537Y-102133811D01*
X170609627Y-101972480D01*
X170615429Y-101943311D01*
X170690811Y-101761322D01*
X170800249Y-101597537D01*
X170939537Y-101458249D01*
X171103322Y-101348811D01*
X171285311Y-101273429D01*
X171401230Y-101250372D01*
X171478507Y-101235000D01*
X171675493Y-101235000D01*
X171752770Y-101250372D01*
X171752770Y-101250372D01*
G37*
G36*
X177848770Y-101250372D02*
X177964689Y-101273429D01*
X178146678Y-101348811D01*
X178310463Y-101458249D01*
X178449751Y-101597537D01*
X178559189Y-101761322D01*
X178634571Y-101943311D01*
X178640373Y-101972480D01*
X178672464Y-102133811D01*
X178673000Y-102136509D01*
X178673000Y-102333491D01*
X178634571Y-102526689D01*
X178559189Y-102708678D01*
X178449751Y-102872463D01*
X178310463Y-103011751D01*
X178146678Y-103121189D01*
X177964689Y-103196571D01*
X177848770Y-103219628D01*
X177771493Y-103235000D01*
X177574507Y-103235000D01*
X177497230Y-103219628D01*
X177381311Y-103196571D01*
X177199322Y-103121189D01*
X177035537Y-103011751D01*
X176896249Y-102872463D01*
X176786811Y-102708678D01*
X176711429Y-102526689D01*
X176673000Y-102333491D01*
X176673000Y-102136509D01*
X176673537Y-102133811D01*
X176705627Y-101972480D01*
X176711429Y-101943311D01*
X176786811Y-101761322D01*
X176896249Y-101597537D01*
X177035537Y-101458249D01*
X177199322Y-101348811D01*
X177381311Y-101273429D01*
X177497230Y-101250372D01*
X177574507Y-101235000D01*
X177771493Y-101235000D01*
X177848770Y-101250372D01*
X177848770Y-101250372D01*
G37*
G36*
X128318770Y-101250372D02*
X128434689Y-101273429D01*
X128616678Y-101348811D01*
X128780463Y-101458249D01*
X128919751Y-101597537D01*
X129029189Y-101761322D01*
X129104571Y-101943311D01*
X129110373Y-101972480D01*
X129142464Y-102133811D01*
X129143000Y-102136509D01*
X129143000Y-102333491D01*
X129104571Y-102526689D01*
X129029189Y-102708678D01*
X128919751Y-102872463D01*
X128780463Y-103011751D01*
X128616678Y-103121189D01*
X128434689Y-103196571D01*
X128318770Y-103219628D01*
X128241493Y-103235000D01*
X128044507Y-103235000D01*
X127967230Y-103219628D01*
X127851311Y-103196571D01*
X127669322Y-103121189D01*
X127505537Y-103011751D01*
X127366249Y-102872463D01*
X127256811Y-102708678D01*
X127181429Y-102526689D01*
X127143000Y-102333491D01*
X127143000Y-102136509D01*
X127143537Y-102133811D01*
X127175627Y-101972480D01*
X127181429Y-101943311D01*
X127256811Y-101761322D01*
X127366249Y-101597537D01*
X127505537Y-101458249D01*
X127669322Y-101348811D01*
X127851311Y-101273429D01*
X127967230Y-101250372D01*
X128044507Y-101235000D01*
X128241493Y-101235000D01*
X128318770Y-101250372D01*
X128318770Y-101250372D01*
G37*
G36*
X139327521Y-101369586D02*
X139491309Y-101437429D01*
X139638720Y-101535926D01*
X139764074Y-101661280D01*
X139862571Y-101808691D01*
X139930414Y-101972479D01*
X139965000Y-102146356D01*
X139965000Y-102323644D01*
X139930414Y-102497521D01*
X139862571Y-102661309D01*
X139764074Y-102808720D01*
X139638720Y-102934074D01*
X139491309Y-103032571D01*
X139327521Y-103100414D01*
X139153644Y-103135000D01*
X138976356Y-103135000D01*
X138802479Y-103100414D01*
X138638691Y-103032571D01*
X138491280Y-102934074D01*
X138365926Y-102808720D01*
X138267429Y-102661309D01*
X138199586Y-102497521D01*
X138165000Y-102323644D01*
X138165000Y-102146356D01*
X138199586Y-101972479D01*
X138267429Y-101808691D01*
X138365926Y-101661280D01*
X138491280Y-101535926D01*
X138638691Y-101437429D01*
X138802479Y-101369586D01*
X138976356Y-101335000D01*
X139153644Y-101335000D01*
X139327521Y-101369586D01*
X139327521Y-101369586D01*
G37*
G36*
X134247521Y-101369586D02*
X134411309Y-101437429D01*
X134558720Y-101535926D01*
X134684074Y-101661280D01*
X134782571Y-101808691D01*
X134850414Y-101972479D01*
X134885000Y-102146356D01*
X134885000Y-102323644D01*
X134850414Y-102497521D01*
X134782571Y-102661309D01*
X134684074Y-102808720D01*
X134558720Y-102934074D01*
X134411309Y-103032571D01*
X134247521Y-103100414D01*
X134073644Y-103135000D01*
X133896356Y-103135000D01*
X133722479Y-103100414D01*
X133558691Y-103032571D01*
X133411280Y-102934074D01*
X133285926Y-102808720D01*
X133187429Y-102661309D01*
X133119586Y-102497521D01*
X133085000Y-102323644D01*
X133085000Y-102146356D01*
X133119586Y-101972479D01*
X133187429Y-101808691D01*
X133285926Y-101661280D01*
X133411280Y-101535926D01*
X133558691Y-101437429D01*
X133722479Y-101369586D01*
X133896356Y-101335000D01*
X134073644Y-101335000D01*
X134247521Y-101369586D01*
X134247521Y-101369586D01*
G37*
G36*
X132345000Y-103135000D02*
X130545000Y-103135000D01*
X130545000Y-101335000D01*
X132345000Y-101335000D01*
X132345000Y-103135000D01*
X132345000Y-103135000D01*
G37*
G36*
X142505000Y-103135000D02*
X140705000Y-103135000D01*
X140705000Y-101335000D01*
X142505000Y-101335000D01*
X142505000Y-103135000D01*
X142505000Y-103135000D01*
G37*
G36*
X144407521Y-101369586D02*
X144571309Y-101437429D01*
X144718720Y-101535926D01*
X144844074Y-101661280D01*
X144942571Y-101808691D01*
X145010414Y-101972479D01*
X145045000Y-102146356D01*
X145045000Y-102323644D01*
X145010414Y-102497521D01*
X144942571Y-102661309D01*
X144844074Y-102808720D01*
X144718720Y-102934074D01*
X144571309Y-103032571D01*
X144407521Y-103100414D01*
X144233644Y-103135000D01*
X144056356Y-103135000D01*
X143882479Y-103100414D01*
X143718691Y-103032571D01*
X143571280Y-102934074D01*
X143445926Y-102808720D01*
X143347429Y-102661309D01*
X143279586Y-102497521D01*
X143245000Y-102323644D01*
X143245000Y-102146356D01*
X143279586Y-101972479D01*
X143347429Y-101808691D01*
X143445926Y-101661280D01*
X143571280Y-101535926D01*
X143718691Y-101437429D01*
X143882479Y-101369586D01*
X144056356Y-101335000D01*
X144233644Y-101335000D01*
X144407521Y-101369586D01*
X144407521Y-101369586D01*
G37*
G36*
X137425000Y-103135000D02*
X135625000Y-103135000D01*
X135625000Y-101335000D01*
X137425000Y-101335000D01*
X137425000Y-103135000D01*
X137425000Y-103135000D01*
G37*
G36*
X181875000Y-103135000D02*
X180075000Y-103135000D01*
X180075000Y-101335000D01*
X181875000Y-101335000D01*
X181875000Y-103135000D01*
X181875000Y-103135000D01*
G37*
G36*
X183777521Y-101369586D02*
X183941309Y-101437429D01*
X184088720Y-101535926D01*
X184214074Y-101661280D01*
X184312571Y-101808691D01*
X184380414Y-101972479D01*
X184415000Y-102146356D01*
X184415000Y-102323644D01*
X184380414Y-102497521D01*
X184312571Y-102661309D01*
X184214074Y-102808720D01*
X184088720Y-102934074D01*
X183941309Y-103032571D01*
X183777521Y-103100414D01*
X183603644Y-103135000D01*
X183426356Y-103135000D01*
X183252479Y-103100414D01*
X183088691Y-103032571D01*
X182941280Y-102934074D01*
X182815926Y-102808720D01*
X182717429Y-102661309D01*
X182649586Y-102497521D01*
X182615000Y-102323644D01*
X182615000Y-102146356D01*
X182649586Y-101972479D01*
X182717429Y-101808691D01*
X182815926Y-101661280D01*
X182941280Y-101535926D01*
X183088691Y-101437429D01*
X183252479Y-101369586D01*
X183426356Y-101335000D01*
X183603644Y-101335000D01*
X183777521Y-101369586D01*
X183777521Y-101369586D01*
G37*
G36*
X186955000Y-103135000D02*
X185155000Y-103135000D01*
X185155000Y-101335000D01*
X186955000Y-101335000D01*
X186955000Y-103135000D01*
X186955000Y-103135000D01*
G37*
G36*
X193937521Y-101369586D02*
X194101309Y-101437429D01*
X194248720Y-101535926D01*
X194374074Y-101661280D01*
X194472571Y-101808691D01*
X194540414Y-101972479D01*
X194575000Y-102146356D01*
X194575000Y-102323644D01*
X194540414Y-102497521D01*
X194472571Y-102661309D01*
X194374074Y-102808720D01*
X194248720Y-102934074D01*
X194101309Y-103032571D01*
X193937521Y-103100414D01*
X193763644Y-103135000D01*
X193586356Y-103135000D01*
X193412479Y-103100414D01*
X193248691Y-103032571D01*
X193101280Y-102934074D01*
X192975926Y-102808720D01*
X192877429Y-102661309D01*
X192809586Y-102497521D01*
X192775000Y-102323644D01*
X192775000Y-102146356D01*
X192809586Y-101972479D01*
X192877429Y-101808691D01*
X192975926Y-101661280D01*
X193101280Y-101535926D01*
X193248691Y-101437429D01*
X193412479Y-101369586D01*
X193586356Y-101335000D01*
X193763644Y-101335000D01*
X193937521Y-101369586D01*
X193937521Y-101369586D01*
G37*
G36*
X192035000Y-103135000D02*
X190235000Y-103135000D01*
X190235000Y-101335000D01*
X192035000Y-101335000D01*
X192035000Y-103135000D01*
X192035000Y-103135000D01*
G37*
G36*
X188857521Y-101369586D02*
X189021309Y-101437429D01*
X189168720Y-101535926D01*
X189294074Y-101661280D01*
X189392571Y-101808691D01*
X189460414Y-101972479D01*
X189495000Y-102146356D01*
X189495000Y-102323644D01*
X189460414Y-102497521D01*
X189392571Y-102661309D01*
X189294074Y-102808720D01*
X189168720Y-102934074D01*
X189021309Y-103032571D01*
X188857521Y-103100414D01*
X188683644Y-103135000D01*
X188506356Y-103135000D01*
X188332479Y-103100414D01*
X188168691Y-103032571D01*
X188021280Y-102934074D01*
X187895926Y-102808720D01*
X187797429Y-102661309D01*
X187729586Y-102497521D01*
X187695000Y-102323644D01*
X187695000Y-102146356D01*
X187729586Y-101972479D01*
X187797429Y-101808691D01*
X187895926Y-101661280D01*
X188021280Y-101535926D01*
X188168691Y-101437429D01*
X188332479Y-101369586D01*
X188506356Y-101335000D01*
X188683644Y-101335000D01*
X188857521Y-101369586D01*
X188857521Y-101369586D01*
G37*
G36*
X212800000Y-102590000D02*
X208840000Y-102590000D01*
X208840000Y-100610000D01*
X212800000Y-100610000D01*
X212800000Y-102590000D01*
X212800000Y-102590000D01*
G37*
G36*
X163270000Y-102590000D02*
X159310000Y-102590000D01*
X159310000Y-100610000D01*
X163270000Y-100610000D01*
X163270000Y-102590000D01*
X163270000Y-102590000D01*
G37*
G36*
X136152521Y-96924586D02*
X136316309Y-96992429D01*
X136463720Y-97090926D01*
X136589074Y-97216280D01*
X136687571Y-97363691D01*
X136755414Y-97527479D01*
X136790000Y-97701356D01*
X136790000Y-97878644D01*
X136755414Y-98052521D01*
X136687571Y-98216309D01*
X136589074Y-98363720D01*
X136463720Y-98489074D01*
X136316309Y-98587571D01*
X136152521Y-98655414D01*
X135978644Y-98690000D01*
X135801356Y-98690000D01*
X135627479Y-98655414D01*
X135463691Y-98587571D01*
X135316280Y-98489074D01*
X135190926Y-98363720D01*
X135092429Y-98216309D01*
X135024586Y-98052521D01*
X134990000Y-97878644D01*
X134990000Y-97701356D01*
X135024586Y-97527479D01*
X135092429Y-97363691D01*
X135190926Y-97216280D01*
X135316280Y-97090926D01*
X135463691Y-96992429D01*
X135627479Y-96924586D01*
X135801356Y-96890000D01*
X135978644Y-96890000D01*
X136152521Y-96924586D01*
X136152521Y-96924586D01*
G37*
G36*
X143772521Y-96924586D02*
X143936309Y-96992429D01*
X144083720Y-97090926D01*
X144209074Y-97216280D01*
X144307571Y-97363691D01*
X144375414Y-97527479D01*
X144410000Y-97701356D01*
X144410000Y-97878644D01*
X144375414Y-98052521D01*
X144307571Y-98216309D01*
X144209074Y-98363720D01*
X144083720Y-98489074D01*
X143936309Y-98587571D01*
X143772521Y-98655414D01*
X143598644Y-98690000D01*
X143421356Y-98690000D01*
X143247479Y-98655414D01*
X143083691Y-98587571D01*
X142936280Y-98489074D01*
X142810926Y-98363720D01*
X142712429Y-98216309D01*
X142644586Y-98052521D01*
X142610000Y-97878644D01*
X142610000Y-97701356D01*
X142644586Y-97527479D01*
X142712429Y-97363691D01*
X142810926Y-97216280D01*
X142936280Y-97090926D01*
X143083691Y-96992429D01*
X143247479Y-96924586D01*
X143421356Y-96890000D01*
X143598644Y-96890000D01*
X143772521Y-96924586D01*
X143772521Y-96924586D01*
G37*
G36*
X146312521Y-96924586D02*
X146476309Y-96992429D01*
X146623720Y-97090926D01*
X146749074Y-97216280D01*
X146847571Y-97363691D01*
X146915414Y-97527479D01*
X146950000Y-97701356D01*
X146950000Y-97878644D01*
X146915414Y-98052521D01*
X146847571Y-98216309D01*
X146749074Y-98363720D01*
X146623720Y-98489074D01*
X146476309Y-98587571D01*
X146312521Y-98655414D01*
X146138644Y-98690000D01*
X145961356Y-98690000D01*
X145787479Y-98655414D01*
X145623691Y-98587571D01*
X145476280Y-98489074D01*
X145350926Y-98363720D01*
X145252429Y-98216309D01*
X145184586Y-98052521D01*
X145150000Y-97878644D01*
X145150000Y-97701356D01*
X145184586Y-97527479D01*
X145252429Y-97363691D01*
X145350926Y-97216280D01*
X145476280Y-97090926D01*
X145623691Y-96992429D01*
X145787479Y-96924586D01*
X145961356Y-96890000D01*
X146138644Y-96890000D01*
X146312521Y-96924586D01*
X146312521Y-96924586D01*
G37*
G36*
X190762521Y-96924586D02*
X190926309Y-96992429D01*
X191073720Y-97090926D01*
X191199074Y-97216280D01*
X191297571Y-97363691D01*
X191365414Y-97527479D01*
X191400000Y-97701356D01*
X191400000Y-97878644D01*
X191365414Y-98052521D01*
X191297571Y-98216309D01*
X191199074Y-98363720D01*
X191073720Y-98489074D01*
X190926309Y-98587571D01*
X190762521Y-98655414D01*
X190588644Y-98690000D01*
X190411356Y-98690000D01*
X190237479Y-98655414D01*
X190073691Y-98587571D01*
X189926280Y-98489074D01*
X189800926Y-98363720D01*
X189702429Y-98216309D01*
X189634586Y-98052521D01*
X189600000Y-97878644D01*
X189600000Y-97701356D01*
X189634586Y-97527479D01*
X189702429Y-97363691D01*
X189800926Y-97216280D01*
X189926280Y-97090926D01*
X190073691Y-96992429D01*
X190237479Y-96924586D01*
X190411356Y-96890000D01*
X190588644Y-96890000D01*
X190762521Y-96924586D01*
X190762521Y-96924586D01*
G37*
G36*
X131072521Y-96924586D02*
X131236309Y-96992429D01*
X131383720Y-97090926D01*
X131509074Y-97216280D01*
X131607571Y-97363691D01*
X131675414Y-97527479D01*
X131710000Y-97701356D01*
X131710000Y-97878644D01*
X131675414Y-98052521D01*
X131607571Y-98216309D01*
X131509074Y-98363720D01*
X131383720Y-98489074D01*
X131236309Y-98587571D01*
X131072521Y-98655414D01*
X130898644Y-98690000D01*
X130721356Y-98690000D01*
X130547479Y-98655414D01*
X130383691Y-98587571D01*
X130236280Y-98489074D01*
X130110926Y-98363720D01*
X130012429Y-98216309D01*
X129944586Y-98052521D01*
X129910000Y-97878644D01*
X129910000Y-97701356D01*
X129944586Y-97527479D01*
X130012429Y-97363691D01*
X130110926Y-97216280D01*
X130236280Y-97090926D01*
X130383691Y-96992429D01*
X130547479Y-96924586D01*
X130721356Y-96890000D01*
X130898644Y-96890000D01*
X131072521Y-96924586D01*
X131072521Y-96924586D01*
G37*
G36*
X128532521Y-96924586D02*
X128696309Y-96992429D01*
X128843720Y-97090926D01*
X128969074Y-97216280D01*
X129067571Y-97363691D01*
X129135414Y-97527479D01*
X129170000Y-97701356D01*
X129170000Y-97878644D01*
X129135414Y-98052521D01*
X129067571Y-98216309D01*
X128969074Y-98363720D01*
X128843720Y-98489074D01*
X128696309Y-98587571D01*
X128532521Y-98655414D01*
X128358644Y-98690000D01*
X128181356Y-98690000D01*
X128007479Y-98655414D01*
X127843691Y-98587571D01*
X127696280Y-98489074D01*
X127570926Y-98363720D01*
X127472429Y-98216309D01*
X127404586Y-98052521D01*
X127370000Y-97878644D01*
X127370000Y-97701356D01*
X127404586Y-97527479D01*
X127472429Y-97363691D01*
X127570926Y-97216280D01*
X127696280Y-97090926D01*
X127843691Y-96992429D01*
X128007479Y-96924586D01*
X128181356Y-96890000D01*
X128358644Y-96890000D01*
X128532521Y-96924586D01*
X128532521Y-96924586D01*
G37*
G36*
X188222521Y-96924586D02*
X188386309Y-96992429D01*
X188533720Y-97090926D01*
X188659074Y-97216280D01*
X188757571Y-97363691D01*
X188825414Y-97527479D01*
X188860000Y-97701356D01*
X188860000Y-97878644D01*
X188825414Y-98052521D01*
X188757571Y-98216309D01*
X188659074Y-98363720D01*
X188533720Y-98489074D01*
X188386309Y-98587571D01*
X188222521Y-98655414D01*
X188048644Y-98690000D01*
X187871356Y-98690000D01*
X187697479Y-98655414D01*
X187533691Y-98587571D01*
X187386280Y-98489074D01*
X187260926Y-98363720D01*
X187162429Y-98216309D01*
X187094586Y-98052521D01*
X187060000Y-97878644D01*
X187060000Y-97701356D01*
X187094586Y-97527479D01*
X187162429Y-97363691D01*
X187260926Y-97216280D01*
X187386280Y-97090926D01*
X187533691Y-96992429D01*
X187697479Y-96924586D01*
X187871356Y-96890000D01*
X188048644Y-96890000D01*
X188222521Y-96924586D01*
X188222521Y-96924586D01*
G37*
G36*
X133612521Y-96924586D02*
X133776309Y-96992429D01*
X133923720Y-97090926D01*
X134049074Y-97216280D01*
X134147571Y-97363691D01*
X134215414Y-97527479D01*
X134250000Y-97701356D01*
X134250000Y-97878644D01*
X134215414Y-98052521D01*
X134147571Y-98216309D01*
X134049074Y-98363720D01*
X133923720Y-98489074D01*
X133776309Y-98587571D01*
X133612521Y-98655414D01*
X133438644Y-98690000D01*
X133261356Y-98690000D01*
X133087479Y-98655414D01*
X132923691Y-98587571D01*
X132776280Y-98489074D01*
X132650926Y-98363720D01*
X132552429Y-98216309D01*
X132484586Y-98052521D01*
X132450000Y-97878644D01*
X132450000Y-97701356D01*
X132484586Y-97527479D01*
X132552429Y-97363691D01*
X132650926Y-97216280D01*
X132776280Y-97090926D01*
X132923691Y-96992429D01*
X133087479Y-96924586D01*
X133261356Y-96890000D01*
X133438644Y-96890000D01*
X133612521Y-96924586D01*
X133612521Y-96924586D01*
G37*
G36*
X141232521Y-96924586D02*
X141396309Y-96992429D01*
X141543720Y-97090926D01*
X141669074Y-97216280D01*
X141767571Y-97363691D01*
X141835414Y-97527479D01*
X141870000Y-97701356D01*
X141870000Y-97878644D01*
X141835414Y-98052521D01*
X141767571Y-98216309D01*
X141669074Y-98363720D01*
X141543720Y-98489074D01*
X141396309Y-98587571D01*
X141232521Y-98655414D01*
X141058644Y-98690000D01*
X140881356Y-98690000D01*
X140707479Y-98655414D01*
X140543691Y-98587571D01*
X140396280Y-98489074D01*
X140270926Y-98363720D01*
X140172429Y-98216309D01*
X140104586Y-98052521D01*
X140070000Y-97878644D01*
X140070000Y-97701356D01*
X140104586Y-97527479D01*
X140172429Y-97363691D01*
X140270926Y-97216280D01*
X140396280Y-97090926D01*
X140543691Y-96992429D01*
X140707479Y-96924586D01*
X140881356Y-96890000D01*
X141058644Y-96890000D01*
X141232521Y-96924586D01*
X141232521Y-96924586D01*
G37*
G36*
X138692521Y-96924586D02*
X138856309Y-96992429D01*
X139003720Y-97090926D01*
X139129074Y-97216280D01*
X139227571Y-97363691D01*
X139295414Y-97527479D01*
X139330000Y-97701356D01*
X139330000Y-97878644D01*
X139295414Y-98052521D01*
X139227571Y-98216309D01*
X139129074Y-98363720D01*
X139003720Y-98489074D01*
X138856309Y-98587571D01*
X138692521Y-98655414D01*
X138518644Y-98690000D01*
X138341356Y-98690000D01*
X138167479Y-98655414D01*
X138003691Y-98587571D01*
X137856280Y-98489074D01*
X137730926Y-98363720D01*
X137632429Y-98216309D01*
X137564586Y-98052521D01*
X137530000Y-97878644D01*
X137530000Y-97701356D01*
X137564586Y-97527479D01*
X137632429Y-97363691D01*
X137730926Y-97216280D01*
X137856280Y-97090926D01*
X138003691Y-96992429D01*
X138167479Y-96924586D01*
X138341356Y-96890000D01*
X138518644Y-96890000D01*
X138692521Y-96924586D01*
X138692521Y-96924586D01*
G37*
G36*
X195842521Y-96924586D02*
X196006309Y-96992429D01*
X196153720Y-97090926D01*
X196279074Y-97216280D01*
X196377571Y-97363691D01*
X196445414Y-97527479D01*
X196480000Y-97701356D01*
X196480000Y-97878644D01*
X196445414Y-98052521D01*
X196377571Y-98216309D01*
X196279074Y-98363720D01*
X196153720Y-98489074D01*
X196006309Y-98587571D01*
X195842521Y-98655414D01*
X195668644Y-98690000D01*
X195491356Y-98690000D01*
X195317479Y-98655414D01*
X195153691Y-98587571D01*
X195006280Y-98489074D01*
X194880926Y-98363720D01*
X194782429Y-98216309D01*
X194714586Y-98052521D01*
X194680000Y-97878644D01*
X194680000Y-97701356D01*
X194714586Y-97527479D01*
X194782429Y-97363691D01*
X194880926Y-97216280D01*
X195006280Y-97090926D01*
X195153691Y-96992429D01*
X195317479Y-96924586D01*
X195491356Y-96890000D01*
X195668644Y-96890000D01*
X195842521Y-96924586D01*
X195842521Y-96924586D01*
G37*
G36*
X185682521Y-96924586D02*
X185846309Y-96992429D01*
X185993720Y-97090926D01*
X186119074Y-97216280D01*
X186217571Y-97363691D01*
X186285414Y-97527479D01*
X186320000Y-97701356D01*
X186320000Y-97878644D01*
X186285414Y-98052521D01*
X186217571Y-98216309D01*
X186119074Y-98363720D01*
X185993720Y-98489074D01*
X185846309Y-98587571D01*
X185682521Y-98655414D01*
X185508644Y-98690000D01*
X185331356Y-98690000D01*
X185157479Y-98655414D01*
X184993691Y-98587571D01*
X184846280Y-98489074D01*
X184720926Y-98363720D01*
X184622429Y-98216309D01*
X184554586Y-98052521D01*
X184520000Y-97878644D01*
X184520000Y-97701356D01*
X184554586Y-97527479D01*
X184622429Y-97363691D01*
X184720926Y-97216280D01*
X184846280Y-97090926D01*
X184993691Y-96992429D01*
X185157479Y-96924586D01*
X185331356Y-96890000D01*
X185508644Y-96890000D01*
X185682521Y-96924586D01*
X185682521Y-96924586D01*
G37*
G36*
X183142521Y-96924586D02*
X183306309Y-96992429D01*
X183453720Y-97090926D01*
X183579074Y-97216280D01*
X183677571Y-97363691D01*
X183745414Y-97527479D01*
X183780000Y-97701356D01*
X183780000Y-97878644D01*
X183745414Y-98052521D01*
X183677571Y-98216309D01*
X183579074Y-98363720D01*
X183453720Y-98489074D01*
X183306309Y-98587571D01*
X183142521Y-98655414D01*
X182968644Y-98690000D01*
X182791356Y-98690000D01*
X182617479Y-98655414D01*
X182453691Y-98587571D01*
X182306280Y-98489074D01*
X182180926Y-98363720D01*
X182082429Y-98216309D01*
X182014586Y-98052521D01*
X181980000Y-97878644D01*
X181980000Y-97701356D01*
X182014586Y-97527479D01*
X182082429Y-97363691D01*
X182180926Y-97216280D01*
X182306280Y-97090926D01*
X182453691Y-96992429D01*
X182617479Y-96924586D01*
X182791356Y-96890000D01*
X182968644Y-96890000D01*
X183142521Y-96924586D01*
X183142521Y-96924586D01*
G37*
G36*
X178062521Y-96924586D02*
X178226309Y-96992429D01*
X178373720Y-97090926D01*
X178499074Y-97216280D01*
X178597571Y-97363691D01*
X178665414Y-97527479D01*
X178700000Y-97701356D01*
X178700000Y-97878644D01*
X178665414Y-98052521D01*
X178597571Y-98216309D01*
X178499074Y-98363720D01*
X178373720Y-98489074D01*
X178226309Y-98587571D01*
X178062521Y-98655414D01*
X177888644Y-98690000D01*
X177711356Y-98690000D01*
X177537479Y-98655414D01*
X177373691Y-98587571D01*
X177226280Y-98489074D01*
X177100926Y-98363720D01*
X177002429Y-98216309D01*
X176934586Y-98052521D01*
X176900000Y-97878644D01*
X176900000Y-97701356D01*
X176934586Y-97527479D01*
X177002429Y-97363691D01*
X177100926Y-97216280D01*
X177226280Y-97090926D01*
X177373691Y-96992429D01*
X177537479Y-96924586D01*
X177711356Y-96890000D01*
X177888644Y-96890000D01*
X178062521Y-96924586D01*
X178062521Y-96924586D01*
G37*
G36*
X193302521Y-96924586D02*
X193466309Y-96992429D01*
X193613720Y-97090926D01*
X193739074Y-97216280D01*
X193837571Y-97363691D01*
X193905414Y-97527479D01*
X193940000Y-97701356D01*
X193940000Y-97878644D01*
X193905414Y-98052521D01*
X193837571Y-98216309D01*
X193739074Y-98363720D01*
X193613720Y-98489074D01*
X193466309Y-98587571D01*
X193302521Y-98655414D01*
X193128644Y-98690000D01*
X192951356Y-98690000D01*
X192777479Y-98655414D01*
X192613691Y-98587571D01*
X192466280Y-98489074D01*
X192340926Y-98363720D01*
X192242429Y-98216309D01*
X192174586Y-98052521D01*
X192140000Y-97878644D01*
X192140000Y-97701356D01*
X192174586Y-97527479D01*
X192242429Y-97363691D01*
X192340926Y-97216280D01*
X192466280Y-97090926D01*
X192613691Y-96992429D01*
X192777479Y-96924586D01*
X192951356Y-96890000D01*
X193128644Y-96890000D01*
X193302521Y-96924586D01*
X193302521Y-96924586D01*
G37*
G36*
X180602521Y-96924586D02*
X180766309Y-96992429D01*
X180913720Y-97090926D01*
X181039074Y-97216280D01*
X181137571Y-97363691D01*
X181205414Y-97527479D01*
X181240000Y-97701356D01*
X181240000Y-97878644D01*
X181205414Y-98052521D01*
X181137571Y-98216309D01*
X181039074Y-98363720D01*
X180913720Y-98489074D01*
X180766309Y-98587571D01*
X180602521Y-98655414D01*
X180428644Y-98690000D01*
X180251356Y-98690000D01*
X180077479Y-98655414D01*
X179913691Y-98587571D01*
X179766280Y-98489074D01*
X179640926Y-98363720D01*
X179542429Y-98216309D01*
X179474586Y-98052521D01*
X179440000Y-97878644D01*
X179440000Y-97701356D01*
X179474586Y-97527479D01*
X179542429Y-97363691D01*
X179640926Y-97216280D01*
X179766280Y-97090926D01*
X179913691Y-96992429D01*
X180077479Y-96924586D01*
X180251356Y-96890000D01*
X180428644Y-96890000D01*
X180602521Y-96924586D01*
X180602521Y-96924586D01*
G37*
G36*
X212004070Y-95624324D02*
X212004073Y-95624325D01*
X212004074Y-95624325D01*
X212190690Y-95680934D01*
X212362676Y-95772862D01*
X212513423Y-95896577D01*
X212637138Y-96047324D01*
X212724930Y-96211573D01*
X212729065Y-96219308D01*
X212785676Y-96405930D01*
X212804790Y-96600000D01*
X212785676Y-96794070D01*
X212785675Y-96794073D01*
X212785675Y-96794074D01*
X212729066Y-96980690D01*
X212637138Y-97152676D01*
X212513423Y-97303423D01*
X212362676Y-97427138D01*
X212190690Y-97519066D01*
X212004074Y-97575675D01*
X212004073Y-97575675D01*
X212004070Y-97575676D01*
X211858636Y-97590000D01*
X209781364Y-97590000D01*
X209635930Y-97575676D01*
X209635927Y-97575675D01*
X209635926Y-97575675D01*
X209449310Y-97519066D01*
X209277324Y-97427138D01*
X209126577Y-97303423D01*
X209002862Y-97152676D01*
X208910934Y-96980690D01*
X208854325Y-96794074D01*
X208854325Y-96794073D01*
X208854324Y-96794070D01*
X208835210Y-96600000D01*
X208854324Y-96405930D01*
X208910935Y-96219308D01*
X208915070Y-96211573D01*
X209002862Y-96047324D01*
X209126577Y-95896577D01*
X209277324Y-95772862D01*
X209449310Y-95680934D01*
X209635926Y-95624325D01*
X209635927Y-95624325D01*
X209635930Y-95624324D01*
X209781364Y-95610000D01*
X211858636Y-95610000D01*
X212004070Y-95624324D01*
X212004070Y-95624324D01*
G37*
G36*
X162474070Y-95624324D02*
X162474073Y-95624325D01*
X162474074Y-95624325D01*
X162660690Y-95680934D01*
X162832676Y-95772862D01*
X162983423Y-95896577D01*
X163107138Y-96047324D01*
X163194930Y-96211573D01*
X163199065Y-96219308D01*
X163255676Y-96405930D01*
X163274790Y-96600000D01*
X163255676Y-96794070D01*
X163255675Y-96794073D01*
X163255675Y-96794074D01*
X163199066Y-96980690D01*
X163107138Y-97152676D01*
X162983423Y-97303423D01*
X162832676Y-97427138D01*
X162660690Y-97519066D01*
X162474074Y-97575675D01*
X162474073Y-97575675D01*
X162474070Y-97575676D01*
X162328636Y-97590000D01*
X160251364Y-97590000D01*
X160105930Y-97575676D01*
X160105927Y-97575675D01*
X160105926Y-97575675D01*
X159919310Y-97519066D01*
X159747324Y-97427138D01*
X159596577Y-97303423D01*
X159472862Y-97152676D01*
X159380934Y-96980690D01*
X159324325Y-96794074D01*
X159324325Y-96794073D01*
X159324324Y-96794070D01*
X159305210Y-96600000D01*
X159324324Y-96405930D01*
X159380935Y-96219308D01*
X159385070Y-96211573D01*
X159472862Y-96047324D01*
X159596577Y-95896577D01*
X159747324Y-95772862D01*
X159919310Y-95680934D01*
X160105926Y-95624325D01*
X160105927Y-95624325D01*
X160105930Y-95624324D01*
X160251364Y-95610000D01*
X162328636Y-95610000D01*
X162474070Y-95624324D01*
X162474070Y-95624324D01*
G37*
G36*
X212800000Y-92430000D02*
X208840000Y-92430000D01*
X208840000Y-90450000D01*
X212800000Y-90450000D01*
X212800000Y-92430000D01*
X212800000Y-92430000D01*
G37*
G36*
X163270000Y-92430000D02*
X159310000Y-92430000D01*
X159310000Y-90450000D01*
X163270000Y-90450000D01*
X163270000Y-92430000D01*
X163270000Y-92430000D01*
G37*
G36*
X199690000Y-90735000D02*
X197690000Y-90735000D01*
X197690000Y-86735000D01*
X199690000Y-86735000D01*
X199690000Y-90735000D01*
X199690000Y-90735000D01*
G37*
G36*
X150160000Y-90735000D02*
X148160000Y-90735000D01*
X148160000Y-86735000D01*
X150160000Y-86735000D01*
X150160000Y-90735000D01*
X150160000Y-90735000D01*
G37*
G36*
X179370000Y-90608000D02*
X177370000Y-90608000D01*
X177370000Y-86608000D01*
X179370000Y-86608000D01*
X179370000Y-90608000D01*
X179370000Y-90608000D01*
G37*
G36*
X129840000Y-90608000D02*
X127840000Y-90608000D01*
X127840000Y-86608000D01*
X129840000Y-86608000D01*
X129840000Y-90608000D01*
X129840000Y-90608000D01*
G37*
G36*
X162474070Y-85464324D02*
X162474073Y-85464325D01*
X162474074Y-85464325D01*
X162660690Y-85520934D01*
X162832676Y-85612862D01*
X162983423Y-85736577D01*
X163107138Y-85887324D01*
X163194930Y-86051573D01*
X163199065Y-86059308D01*
X163255676Y-86245930D01*
X163274790Y-86440000D01*
X163255676Y-86634070D01*
X163255675Y-86634073D01*
X163255675Y-86634074D01*
X163199066Y-86820690D01*
X163107138Y-86992676D01*
X162983423Y-87143423D01*
X162832676Y-87267138D01*
X162660690Y-87359066D01*
X162474074Y-87415675D01*
X162474073Y-87415675D01*
X162474070Y-87415676D01*
X162328636Y-87430000D01*
X160251364Y-87430000D01*
X160105930Y-87415676D01*
X160105927Y-87415675D01*
X160105926Y-87415675D01*
X159919310Y-87359066D01*
X159747324Y-87267138D01*
X159596577Y-87143423D01*
X159472862Y-86992676D01*
X159380934Y-86820690D01*
X159324325Y-86634074D01*
X159324325Y-86634073D01*
X159324324Y-86634070D01*
X159305210Y-86440000D01*
X159324324Y-86245930D01*
X159380935Y-86059308D01*
X159385070Y-86051573D01*
X159472862Y-85887324D01*
X159596577Y-85736577D01*
X159747324Y-85612862D01*
X159919310Y-85520934D01*
X160105926Y-85464325D01*
X160105927Y-85464325D01*
X160105930Y-85464324D01*
X160251364Y-85450000D01*
X162328636Y-85450000D01*
X162474070Y-85464324D01*
X162474070Y-85464324D01*
G37*
G36*
X212004070Y-85464324D02*
X212004073Y-85464325D01*
X212004074Y-85464325D01*
X212190690Y-85520934D01*
X212362676Y-85612862D01*
X212513423Y-85736577D01*
X212637138Y-85887324D01*
X212724930Y-86051573D01*
X212729065Y-86059308D01*
X212785676Y-86245930D01*
X212804790Y-86440000D01*
X212785676Y-86634070D01*
X212785675Y-86634073D01*
X212785675Y-86634074D01*
X212729066Y-86820690D01*
X212637138Y-86992676D01*
X212513423Y-87143423D01*
X212362676Y-87267138D01*
X212190690Y-87359066D01*
X212004074Y-87415675D01*
X212004073Y-87415675D01*
X212004070Y-87415676D01*
X211858636Y-87430000D01*
X209781364Y-87430000D01*
X209635930Y-87415676D01*
X209635927Y-87415675D01*
X209635926Y-87415675D01*
X209449310Y-87359066D01*
X209277324Y-87267138D01*
X209126577Y-87143423D01*
X209002862Y-86992676D01*
X208910934Y-86820690D01*
X208854325Y-86634074D01*
X208854325Y-86634073D01*
X208854324Y-86634070D01*
X208835210Y-86440000D01*
X208854324Y-86245930D01*
X208910935Y-86059308D01*
X208915070Y-86051573D01*
X209002862Y-85887324D01*
X209126577Y-85736577D01*
X209277324Y-85612862D01*
X209449310Y-85520934D01*
X209635926Y-85464325D01*
X209635927Y-85464325D01*
X209635930Y-85464324D01*
X209781364Y-85450000D01*
X211858636Y-85450000D01*
X212004070Y-85464324D01*
X212004070Y-85464324D01*
G37*
G36*
X163270000Y-82270000D02*
X159310000Y-82270000D01*
X159310000Y-80290000D01*
X163270000Y-80290000D01*
X163270000Y-82270000D01*
X163270000Y-82270000D01*
G37*
G36*
X212800000Y-82270000D02*
X208840000Y-82270000D01*
X208840000Y-80290000D01*
X212800000Y-80290000D01*
X212800000Y-82270000D01*
X212800000Y-82270000D01*
G37*
G36*
X129840000Y-81305000D02*
X127840000Y-81305000D01*
X127840000Y-77305000D01*
X129840000Y-77305000D01*
X129840000Y-81305000D01*
X129840000Y-81305000D01*
G37*
G36*
X150160000Y-81305000D02*
X148160000Y-81305000D01*
X148160000Y-77305000D01*
X150160000Y-77305000D01*
X150160000Y-81305000D01*
X150160000Y-81305000D01*
G37*
G36*
X179370000Y-81305000D02*
X177370000Y-81305000D01*
X177370000Y-77305000D01*
X179370000Y-77305000D01*
X179370000Y-81305000D01*
X179370000Y-81305000D01*
G37*
G36*
X199690000Y-81305000D02*
X197690000Y-81305000D01*
X197690000Y-77305000D01*
X199690000Y-77305000D01*
X199690000Y-81305000D01*
X199690000Y-81305000D01*
G37*
G36*
X162474070Y-75304324D02*
X162474073Y-75304325D01*
X162474074Y-75304325D01*
X162660690Y-75360934D01*
X162832676Y-75452862D01*
X162983423Y-75576577D01*
X163107138Y-75727324D01*
X163162019Y-75830000D01*
X163199065Y-75899308D01*
X163255676Y-76085930D01*
X163274790Y-76280000D01*
X163255676Y-76474070D01*
X163255675Y-76474073D01*
X163255675Y-76474074D01*
X163199066Y-76660690D01*
X163107138Y-76832676D01*
X162983423Y-76983423D01*
X162832676Y-77107138D01*
X162660690Y-77199066D01*
X162474074Y-77255675D01*
X162474073Y-77255675D01*
X162474070Y-77255676D01*
X162328636Y-77270000D01*
X160251364Y-77270000D01*
X160105930Y-77255676D01*
X160105927Y-77255675D01*
X160105926Y-77255675D01*
X159919310Y-77199066D01*
X159747324Y-77107138D01*
X159596577Y-76983423D01*
X159472862Y-76832676D01*
X159380934Y-76660690D01*
X159324325Y-76474074D01*
X159324325Y-76474073D01*
X159324324Y-76474070D01*
X159305210Y-76280000D01*
X159324324Y-76085930D01*
X159380935Y-75899308D01*
X159417981Y-75830000D01*
X159472862Y-75727324D01*
X159596577Y-75576577D01*
X159747324Y-75452862D01*
X159919310Y-75360934D01*
X160105926Y-75304325D01*
X160105927Y-75304325D01*
X160105930Y-75304324D01*
X160251364Y-75290000D01*
X162328636Y-75290000D01*
X162474070Y-75304324D01*
X162474070Y-75304324D01*
G37*
G36*
X212004070Y-75304324D02*
X212004073Y-75304325D01*
X212004074Y-75304325D01*
X212190690Y-75360934D01*
X212362676Y-75452862D01*
X212513423Y-75576577D01*
X212637138Y-75727324D01*
X212692019Y-75830000D01*
X212729065Y-75899308D01*
X212785676Y-76085930D01*
X212804790Y-76280000D01*
X212785676Y-76474070D01*
X212785675Y-76474073D01*
X212785675Y-76474074D01*
X212729066Y-76660690D01*
X212637138Y-76832676D01*
X212513423Y-76983423D01*
X212362676Y-77107138D01*
X212190690Y-77199066D01*
X212004074Y-77255675D01*
X212004073Y-77255675D01*
X212004070Y-77255676D01*
X211858636Y-77270000D01*
X209781364Y-77270000D01*
X209635930Y-77255676D01*
X209635927Y-77255675D01*
X209635926Y-77255675D01*
X209449310Y-77199066D01*
X209277324Y-77107138D01*
X209126577Y-76983423D01*
X209002862Y-76832676D01*
X208910934Y-76660690D01*
X208854325Y-76474074D01*
X208854325Y-76474073D01*
X208854324Y-76474070D01*
X208835210Y-76280000D01*
X208854324Y-76085930D01*
X208910935Y-75899308D01*
X208947981Y-75830000D01*
X209002862Y-75727324D01*
X209126577Y-75576577D01*
X209277324Y-75452862D01*
X209449310Y-75360934D01*
X209635926Y-75304325D01*
X209635927Y-75304325D01*
X209635930Y-75304324D01*
X209781364Y-75290000D01*
X211858636Y-75290000D01*
X212004070Y-75304324D01*
X212004070Y-75304324D01*
G37*
G36*
X128532521Y-74064586D02*
X128696309Y-74132429D01*
X128843720Y-74230926D01*
X128969074Y-74356280D01*
X129067571Y-74503691D01*
X129135414Y-74667479D01*
X129170000Y-74841356D01*
X129170000Y-75018644D01*
X129135414Y-75192521D01*
X129067571Y-75356309D01*
X128969074Y-75503720D01*
X128843720Y-75629074D01*
X128696309Y-75727571D01*
X128532521Y-75795414D01*
X128358644Y-75830000D01*
X128181356Y-75830000D01*
X128007479Y-75795414D01*
X127843691Y-75727571D01*
X127696280Y-75629074D01*
X127570926Y-75503720D01*
X127472429Y-75356309D01*
X127404586Y-75192521D01*
X127370000Y-75018644D01*
X127370000Y-74841356D01*
X127404586Y-74667479D01*
X127472429Y-74503691D01*
X127570926Y-74356280D01*
X127696280Y-74230926D01*
X127843691Y-74132429D01*
X128007479Y-74064586D01*
X128181356Y-74030000D01*
X128358644Y-74030000D01*
X128532521Y-74064586D01*
X128532521Y-74064586D01*
G37*
G36*
X180602521Y-74064586D02*
X180766309Y-74132429D01*
X180913720Y-74230926D01*
X181039074Y-74356280D01*
X181137571Y-74503691D01*
X181205414Y-74667479D01*
X181240000Y-74841356D01*
X181240000Y-75018644D01*
X181205414Y-75192521D01*
X181137571Y-75356309D01*
X181039074Y-75503720D01*
X180913720Y-75629074D01*
X180766309Y-75727571D01*
X180602521Y-75795414D01*
X180428644Y-75830000D01*
X180251356Y-75830000D01*
X180077479Y-75795414D01*
X179913691Y-75727571D01*
X179766280Y-75629074D01*
X179640926Y-75503720D01*
X179542429Y-75356309D01*
X179474586Y-75192521D01*
X179440000Y-75018644D01*
X179440000Y-74841356D01*
X179474586Y-74667479D01*
X179542429Y-74503691D01*
X179640926Y-74356280D01*
X179766280Y-74230926D01*
X179913691Y-74132429D01*
X180077479Y-74064586D01*
X180251356Y-74030000D01*
X180428644Y-74030000D01*
X180602521Y-74064586D01*
X180602521Y-74064586D01*
G37*
G36*
X178062521Y-74064586D02*
X178226309Y-74132429D01*
X178373720Y-74230926D01*
X178499074Y-74356280D01*
X178597571Y-74503691D01*
X178665414Y-74667479D01*
X178700000Y-74841356D01*
X178700000Y-75018644D01*
X178665414Y-75192521D01*
X178597571Y-75356309D01*
X178499074Y-75503720D01*
X178373720Y-75629074D01*
X178226309Y-75727571D01*
X178062521Y-75795414D01*
X177888644Y-75830000D01*
X177711356Y-75830000D01*
X177537479Y-75795414D01*
X177373691Y-75727571D01*
X177226280Y-75629074D01*
X177100926Y-75503720D01*
X177002429Y-75356309D01*
X176934586Y-75192521D01*
X176900000Y-75018644D01*
X176900000Y-74841356D01*
X176934586Y-74667479D01*
X177002429Y-74503691D01*
X177100926Y-74356280D01*
X177226280Y-74230926D01*
X177373691Y-74132429D01*
X177537479Y-74064586D01*
X177711356Y-74030000D01*
X177888644Y-74030000D01*
X178062521Y-74064586D01*
X178062521Y-74064586D01*
G37*
G36*
X146312521Y-74064586D02*
X146476309Y-74132429D01*
X146623720Y-74230926D01*
X146749074Y-74356280D01*
X146847571Y-74503691D01*
X146915414Y-74667479D01*
X146950000Y-74841356D01*
X146950000Y-75018644D01*
X146915414Y-75192521D01*
X146847571Y-75356309D01*
X146749074Y-75503720D01*
X146623720Y-75629074D01*
X146476309Y-75727571D01*
X146312521Y-75795414D01*
X146138644Y-75830000D01*
X145961356Y-75830000D01*
X145787479Y-75795414D01*
X145623691Y-75727571D01*
X145476280Y-75629074D01*
X145350926Y-75503720D01*
X145252429Y-75356309D01*
X145184586Y-75192521D01*
X145150000Y-75018644D01*
X145150000Y-74841356D01*
X145184586Y-74667479D01*
X145252429Y-74503691D01*
X145350926Y-74356280D01*
X145476280Y-74230926D01*
X145623691Y-74132429D01*
X145787479Y-74064586D01*
X145961356Y-74030000D01*
X146138644Y-74030000D01*
X146312521Y-74064586D01*
X146312521Y-74064586D01*
G37*
G36*
X143772521Y-74064586D02*
X143936309Y-74132429D01*
X144083720Y-74230926D01*
X144209074Y-74356280D01*
X144307571Y-74503691D01*
X144375414Y-74667479D01*
X144410000Y-74841356D01*
X144410000Y-75018644D01*
X144375414Y-75192521D01*
X144307571Y-75356309D01*
X144209074Y-75503720D01*
X144083720Y-75629074D01*
X143936309Y-75727571D01*
X143772521Y-75795414D01*
X143598644Y-75830000D01*
X143421356Y-75830000D01*
X143247479Y-75795414D01*
X143083691Y-75727571D01*
X142936280Y-75629074D01*
X142810926Y-75503720D01*
X142712429Y-75356309D01*
X142644586Y-75192521D01*
X142610000Y-75018644D01*
X142610000Y-74841356D01*
X142644586Y-74667479D01*
X142712429Y-74503691D01*
X142810926Y-74356280D01*
X142936280Y-74230926D01*
X143083691Y-74132429D01*
X143247479Y-74064586D01*
X143421356Y-74030000D01*
X143598644Y-74030000D01*
X143772521Y-74064586D01*
X143772521Y-74064586D01*
G37*
G36*
X141232521Y-74064586D02*
X141396309Y-74132429D01*
X141543720Y-74230926D01*
X141669074Y-74356280D01*
X141767571Y-74503691D01*
X141835414Y-74667479D01*
X141870000Y-74841356D01*
X141870000Y-75018644D01*
X141835414Y-75192521D01*
X141767571Y-75356309D01*
X141669074Y-75503720D01*
X141543720Y-75629074D01*
X141396309Y-75727571D01*
X141232521Y-75795414D01*
X141058644Y-75830000D01*
X140881356Y-75830000D01*
X140707479Y-75795414D01*
X140543691Y-75727571D01*
X140396280Y-75629074D01*
X140270926Y-75503720D01*
X140172429Y-75356309D01*
X140104586Y-75192521D01*
X140070000Y-75018644D01*
X140070000Y-74841356D01*
X140104586Y-74667479D01*
X140172429Y-74503691D01*
X140270926Y-74356280D01*
X140396280Y-74230926D01*
X140543691Y-74132429D01*
X140707479Y-74064586D01*
X140881356Y-74030000D01*
X141058644Y-74030000D01*
X141232521Y-74064586D01*
X141232521Y-74064586D01*
G37*
G36*
X138692521Y-74064586D02*
X138856309Y-74132429D01*
X139003720Y-74230926D01*
X139129074Y-74356280D01*
X139227571Y-74503691D01*
X139295414Y-74667479D01*
X139330000Y-74841356D01*
X139330000Y-75018644D01*
X139295414Y-75192521D01*
X139227571Y-75356309D01*
X139129074Y-75503720D01*
X139003720Y-75629074D01*
X138856309Y-75727571D01*
X138692521Y-75795414D01*
X138518644Y-75830000D01*
X138341356Y-75830000D01*
X138167479Y-75795414D01*
X138003691Y-75727571D01*
X137856280Y-75629074D01*
X137730926Y-75503720D01*
X137632429Y-75356309D01*
X137564586Y-75192521D01*
X137530000Y-75018644D01*
X137530000Y-74841356D01*
X137564586Y-74667479D01*
X137632429Y-74503691D01*
X137730926Y-74356280D01*
X137856280Y-74230926D01*
X138003691Y-74132429D01*
X138167479Y-74064586D01*
X138341356Y-74030000D01*
X138518644Y-74030000D01*
X138692521Y-74064586D01*
X138692521Y-74064586D01*
G37*
G36*
X136152521Y-74064586D02*
X136316309Y-74132429D01*
X136463720Y-74230926D01*
X136589074Y-74356280D01*
X136687571Y-74503691D01*
X136755414Y-74667479D01*
X136790000Y-74841356D01*
X136790000Y-75018644D01*
X136755414Y-75192521D01*
X136687571Y-75356309D01*
X136589074Y-75503720D01*
X136463720Y-75629074D01*
X136316309Y-75727571D01*
X136152521Y-75795414D01*
X135978644Y-75830000D01*
X135801356Y-75830000D01*
X135627479Y-75795414D01*
X135463691Y-75727571D01*
X135316280Y-75629074D01*
X135190926Y-75503720D01*
X135092429Y-75356309D01*
X135024586Y-75192521D01*
X134990000Y-75018644D01*
X134990000Y-74841356D01*
X135024586Y-74667479D01*
X135092429Y-74503691D01*
X135190926Y-74356280D01*
X135316280Y-74230926D01*
X135463691Y-74132429D01*
X135627479Y-74064586D01*
X135801356Y-74030000D01*
X135978644Y-74030000D01*
X136152521Y-74064586D01*
X136152521Y-74064586D01*
G37*
G36*
X131072521Y-74064586D02*
X131236309Y-74132429D01*
X131383720Y-74230926D01*
X131509074Y-74356280D01*
X131607571Y-74503691D01*
X131675414Y-74667479D01*
X131710000Y-74841356D01*
X131710000Y-75018644D01*
X131675414Y-75192521D01*
X131607571Y-75356309D01*
X131509074Y-75503720D01*
X131383720Y-75629074D01*
X131236309Y-75727571D01*
X131072521Y-75795414D01*
X130898644Y-75830000D01*
X130721356Y-75830000D01*
X130547479Y-75795414D01*
X130383691Y-75727571D01*
X130236280Y-75629074D01*
X130110926Y-75503720D01*
X130012429Y-75356309D01*
X129944586Y-75192521D01*
X129910000Y-75018644D01*
X129910000Y-74841356D01*
X129944586Y-74667479D01*
X130012429Y-74503691D01*
X130110926Y-74356280D01*
X130236280Y-74230926D01*
X130383691Y-74132429D01*
X130547479Y-74064586D01*
X130721356Y-74030000D01*
X130898644Y-74030000D01*
X131072521Y-74064586D01*
X131072521Y-74064586D01*
G37*
G36*
X185682521Y-74064586D02*
X185846309Y-74132429D01*
X185993720Y-74230926D01*
X186119074Y-74356280D01*
X186217571Y-74503691D01*
X186285414Y-74667479D01*
X186320000Y-74841356D01*
X186320000Y-75018644D01*
X186285414Y-75192521D01*
X186217571Y-75356309D01*
X186119074Y-75503720D01*
X185993720Y-75629074D01*
X185846309Y-75727571D01*
X185682521Y-75795414D01*
X185508644Y-75830000D01*
X185331356Y-75830000D01*
X185157479Y-75795414D01*
X184993691Y-75727571D01*
X184846280Y-75629074D01*
X184720926Y-75503720D01*
X184622429Y-75356309D01*
X184554586Y-75192521D01*
X184520000Y-75018644D01*
X184520000Y-74841356D01*
X184554586Y-74667479D01*
X184622429Y-74503691D01*
X184720926Y-74356280D01*
X184846280Y-74230926D01*
X184993691Y-74132429D01*
X185157479Y-74064586D01*
X185331356Y-74030000D01*
X185508644Y-74030000D01*
X185682521Y-74064586D01*
X185682521Y-74064586D01*
G37*
G36*
X195842521Y-74064586D02*
X196006309Y-74132429D01*
X196153720Y-74230926D01*
X196279074Y-74356280D01*
X196377571Y-74503691D01*
X196445414Y-74667479D01*
X196480000Y-74841356D01*
X196480000Y-75018644D01*
X196445414Y-75192521D01*
X196377571Y-75356309D01*
X196279074Y-75503720D01*
X196153720Y-75629074D01*
X196006309Y-75727571D01*
X195842521Y-75795414D01*
X195668644Y-75830000D01*
X195491356Y-75830000D01*
X195317479Y-75795414D01*
X195153691Y-75727571D01*
X195006280Y-75629074D01*
X194880926Y-75503720D01*
X194782429Y-75356309D01*
X194714586Y-75192521D01*
X194680000Y-75018644D01*
X194680000Y-74841356D01*
X194714586Y-74667479D01*
X194782429Y-74503691D01*
X194880926Y-74356280D01*
X195006280Y-74230926D01*
X195153691Y-74132429D01*
X195317479Y-74064586D01*
X195491356Y-74030000D01*
X195668644Y-74030000D01*
X195842521Y-74064586D01*
X195842521Y-74064586D01*
G37*
G36*
X183142521Y-74064586D02*
X183306309Y-74132429D01*
X183453720Y-74230926D01*
X183579074Y-74356280D01*
X183677571Y-74503691D01*
X183745414Y-74667479D01*
X183780000Y-74841356D01*
X183780000Y-75018644D01*
X183745414Y-75192521D01*
X183677571Y-75356309D01*
X183579074Y-75503720D01*
X183453720Y-75629074D01*
X183306309Y-75727571D01*
X183142521Y-75795414D01*
X182968644Y-75830000D01*
X182791356Y-75830000D01*
X182617479Y-75795414D01*
X182453691Y-75727571D01*
X182306280Y-75629074D01*
X182180926Y-75503720D01*
X182082429Y-75356309D01*
X182014586Y-75192521D01*
X181980000Y-75018644D01*
X181980000Y-74841356D01*
X182014586Y-74667479D01*
X182082429Y-74503691D01*
X182180926Y-74356280D01*
X182306280Y-74230926D01*
X182453691Y-74132429D01*
X182617479Y-74064586D01*
X182791356Y-74030000D01*
X182968644Y-74030000D01*
X183142521Y-74064586D01*
X183142521Y-74064586D01*
G37*
G36*
X188222521Y-74064586D02*
X188386309Y-74132429D01*
X188533720Y-74230926D01*
X188659074Y-74356280D01*
X188757571Y-74503691D01*
X188825414Y-74667479D01*
X188860000Y-74841356D01*
X188860000Y-75018644D01*
X188825414Y-75192521D01*
X188757571Y-75356309D01*
X188659074Y-75503720D01*
X188533720Y-75629074D01*
X188386309Y-75727571D01*
X188222521Y-75795414D01*
X188048644Y-75830000D01*
X187871356Y-75830000D01*
X187697479Y-75795414D01*
X187533691Y-75727571D01*
X187386280Y-75629074D01*
X187260926Y-75503720D01*
X187162429Y-75356309D01*
X187094586Y-75192521D01*
X187060000Y-75018644D01*
X187060000Y-74841356D01*
X187094586Y-74667479D01*
X187162429Y-74503691D01*
X187260926Y-74356280D01*
X187386280Y-74230926D01*
X187533691Y-74132429D01*
X187697479Y-74064586D01*
X187871356Y-74030000D01*
X188048644Y-74030000D01*
X188222521Y-74064586D01*
X188222521Y-74064586D01*
G37*
G36*
X193302521Y-74064586D02*
X193466309Y-74132429D01*
X193613720Y-74230926D01*
X193739074Y-74356280D01*
X193837571Y-74503691D01*
X193905414Y-74667479D01*
X193940000Y-74841356D01*
X193940000Y-75018644D01*
X193905414Y-75192521D01*
X193837571Y-75356309D01*
X193739074Y-75503720D01*
X193613720Y-75629074D01*
X193466309Y-75727571D01*
X193302521Y-75795414D01*
X193128644Y-75830000D01*
X192951356Y-75830000D01*
X192777479Y-75795414D01*
X192613691Y-75727571D01*
X192466280Y-75629074D01*
X192340926Y-75503720D01*
X192242429Y-75356309D01*
X192174586Y-75192521D01*
X192140000Y-75018644D01*
X192140000Y-74841356D01*
X192174586Y-74667479D01*
X192242429Y-74503691D01*
X192340926Y-74356280D01*
X192466280Y-74230926D01*
X192613691Y-74132429D01*
X192777479Y-74064586D01*
X192951356Y-74030000D01*
X193128644Y-74030000D01*
X193302521Y-74064586D01*
X193302521Y-74064586D01*
G37*
G36*
X190762521Y-74064586D02*
X190926309Y-74132429D01*
X191073720Y-74230926D01*
X191199074Y-74356280D01*
X191297571Y-74503691D01*
X191365414Y-74667479D01*
X191400000Y-74841356D01*
X191400000Y-75018644D01*
X191365414Y-75192521D01*
X191297571Y-75356309D01*
X191199074Y-75503720D01*
X191073720Y-75629074D01*
X190926309Y-75727571D01*
X190762521Y-75795414D01*
X190588644Y-75830000D01*
X190411356Y-75830000D01*
X190237479Y-75795414D01*
X190073691Y-75727571D01*
X189926280Y-75629074D01*
X189800926Y-75503720D01*
X189702429Y-75356309D01*
X189634586Y-75192521D01*
X189600000Y-75018644D01*
X189600000Y-74841356D01*
X189634586Y-74667479D01*
X189702429Y-74503691D01*
X189800926Y-74356280D01*
X189926280Y-74230926D01*
X190073691Y-74132429D01*
X190237479Y-74064586D01*
X190411356Y-74030000D01*
X190588644Y-74030000D01*
X190762521Y-74064586D01*
X190762521Y-74064586D01*
G37*
G36*
X133612521Y-74064586D02*
X133776309Y-74132429D01*
X133923720Y-74230926D01*
X134049074Y-74356280D01*
X134147571Y-74503691D01*
X134215414Y-74667479D01*
X134250000Y-74841356D01*
X134250000Y-75018644D01*
X134215414Y-75192521D01*
X134147571Y-75356309D01*
X134049074Y-75503720D01*
X133923720Y-75629074D01*
X133776309Y-75727571D01*
X133612521Y-75795414D01*
X133438644Y-75830000D01*
X133261356Y-75830000D01*
X133087479Y-75795414D01*
X132923691Y-75727571D01*
X132776280Y-75629074D01*
X132650926Y-75503720D01*
X132552429Y-75356309D01*
X132484586Y-75192521D01*
X132450000Y-75018644D01*
X132450000Y-74841356D01*
X132484586Y-74667479D01*
X132552429Y-74503691D01*
X132650926Y-74356280D01*
X132776280Y-74230926D01*
X132923691Y-74132429D01*
X133087479Y-74064586D01*
X133261356Y-74030000D01*
X133438644Y-74030000D01*
X133612521Y-74064586D01*
X133612521Y-74064586D01*
G37*
G36*
X202245770Y-69015372D02*
X202361689Y-69038429D01*
X202543678Y-69113811D01*
X202707463Y-69223249D01*
X202846751Y-69362537D01*
X202956189Y-69526322D01*
X203031571Y-69708311D01*
X203047565Y-69788720D01*
X203070000Y-69901507D01*
X203070000Y-70098493D01*
X203054628Y-70175770D01*
X203031571Y-70291689D01*
X202956189Y-70473678D01*
X202846751Y-70637463D01*
X202707463Y-70776751D01*
X202543678Y-70886189D01*
X202361689Y-70961571D01*
X202245770Y-70984628D01*
X202168493Y-71000000D01*
X201971507Y-71000000D01*
X201894230Y-70984628D01*
X201778311Y-70961571D01*
X201596322Y-70886189D01*
X201432537Y-70776751D01*
X201293249Y-70637463D01*
X201183811Y-70473678D01*
X201108429Y-70291689D01*
X201085372Y-70175770D01*
X201070000Y-70098493D01*
X201070000Y-69901507D01*
X201092435Y-69788720D01*
X201108429Y-69708311D01*
X201183811Y-69526322D01*
X201293249Y-69362537D01*
X201432537Y-69223249D01*
X201596322Y-69113811D01*
X201778311Y-69038429D01*
X201894230Y-69015372D01*
X201971507Y-69000000D01*
X202168493Y-69000000D01*
X202245770Y-69015372D01*
X202245770Y-69015372D01*
G37*
G36*
X199705770Y-69015372D02*
X199821689Y-69038429D01*
X200003678Y-69113811D01*
X200167463Y-69223249D01*
X200306751Y-69362537D01*
X200416189Y-69526322D01*
X200491571Y-69708311D01*
X200507565Y-69788720D01*
X200530000Y-69901507D01*
X200530000Y-70098493D01*
X200514628Y-70175770D01*
X200491571Y-70291689D01*
X200416189Y-70473678D01*
X200306751Y-70637463D01*
X200167463Y-70776751D01*
X200003678Y-70886189D01*
X199821689Y-70961571D01*
X199705770Y-70984628D01*
X199628493Y-71000000D01*
X199431507Y-71000000D01*
X199354230Y-70984628D01*
X199238311Y-70961571D01*
X199056322Y-70886189D01*
X198892537Y-70776751D01*
X198753249Y-70637463D01*
X198643811Y-70473678D01*
X198568429Y-70291689D01*
X198545372Y-70175770D01*
X198530000Y-70098493D01*
X198530000Y-69901507D01*
X198552435Y-69788720D01*
X198568429Y-69708311D01*
X198643811Y-69526322D01*
X198753249Y-69362537D01*
X198892537Y-69223249D01*
X199056322Y-69113811D01*
X199238311Y-69038429D01*
X199354230Y-69015372D01*
X199431507Y-69000000D01*
X199628493Y-69000000D01*
X199705770Y-69015372D01*
X199705770Y-69015372D01*
G37*
G36*
X197165770Y-69015372D02*
X197281689Y-69038429D01*
X197463678Y-69113811D01*
X197627463Y-69223249D01*
X197766751Y-69362537D01*
X197876189Y-69526322D01*
X197951571Y-69708311D01*
X197967565Y-69788720D01*
X197990000Y-69901507D01*
X197990000Y-70098493D01*
X197974628Y-70175770D01*
X197951571Y-70291689D01*
X197876189Y-70473678D01*
X197766751Y-70637463D01*
X197627463Y-70776751D01*
X197463678Y-70886189D01*
X197281689Y-70961571D01*
X197165770Y-70984628D01*
X197088493Y-71000000D01*
X196891507Y-71000000D01*
X196814230Y-70984628D01*
X196698311Y-70961571D01*
X196516322Y-70886189D01*
X196352537Y-70776751D01*
X196213249Y-70637463D01*
X196103811Y-70473678D01*
X196028429Y-70291689D01*
X196005372Y-70175770D01*
X195990000Y-70098493D01*
X195990000Y-69901507D01*
X196012435Y-69788720D01*
X196028429Y-69708311D01*
X196103811Y-69526322D01*
X196213249Y-69362537D01*
X196352537Y-69223249D01*
X196516322Y-69113811D01*
X196698311Y-69038429D01*
X196814230Y-69015372D01*
X196891507Y-69000000D01*
X197088493Y-69000000D01*
X197165770Y-69015372D01*
X197165770Y-69015372D01*
G37*
G36*
X152715770Y-69015372D02*
X152831689Y-69038429D01*
X153013678Y-69113811D01*
X153177463Y-69223249D01*
X153316751Y-69362537D01*
X153426189Y-69526322D01*
X153501571Y-69708311D01*
X153517565Y-69788720D01*
X153540000Y-69901507D01*
X153540000Y-70098493D01*
X153524628Y-70175770D01*
X153501571Y-70291689D01*
X153426189Y-70473678D01*
X153316751Y-70637463D01*
X153177463Y-70776751D01*
X153013678Y-70886189D01*
X152831689Y-70961571D01*
X152715770Y-70984628D01*
X152638493Y-71000000D01*
X152441507Y-71000000D01*
X152364230Y-70984628D01*
X152248311Y-70961571D01*
X152066322Y-70886189D01*
X151902537Y-70776751D01*
X151763249Y-70637463D01*
X151653811Y-70473678D01*
X151578429Y-70291689D01*
X151555372Y-70175770D01*
X151540000Y-70098493D01*
X151540000Y-69901507D01*
X151562435Y-69788720D01*
X151578429Y-69708311D01*
X151653811Y-69526322D01*
X151763249Y-69362537D01*
X151902537Y-69223249D01*
X152066322Y-69113811D01*
X152248311Y-69038429D01*
X152364230Y-69015372D01*
X152441507Y-69000000D01*
X152638493Y-69000000D01*
X152715770Y-69015372D01*
X152715770Y-69015372D01*
G37*
G36*
X150175770Y-69015372D02*
X150291689Y-69038429D01*
X150473678Y-69113811D01*
X150637463Y-69223249D01*
X150776751Y-69362537D01*
X150886189Y-69526322D01*
X150961571Y-69708311D01*
X150977565Y-69788720D01*
X151000000Y-69901507D01*
X151000000Y-70098493D01*
X150984628Y-70175770D01*
X150961571Y-70291689D01*
X150886189Y-70473678D01*
X150776751Y-70637463D01*
X150637463Y-70776751D01*
X150473678Y-70886189D01*
X150291689Y-70961571D01*
X150175770Y-70984628D01*
X150098493Y-71000000D01*
X149901507Y-71000000D01*
X149824230Y-70984628D01*
X149708311Y-70961571D01*
X149526322Y-70886189D01*
X149362537Y-70776751D01*
X149223249Y-70637463D01*
X149113811Y-70473678D01*
X149038429Y-70291689D01*
X149015372Y-70175770D01*
X149000000Y-70098493D01*
X149000000Y-69901507D01*
X149022435Y-69788720D01*
X149038429Y-69708311D01*
X149113811Y-69526322D01*
X149223249Y-69362537D01*
X149362537Y-69223249D01*
X149526322Y-69113811D01*
X149708311Y-69038429D01*
X149824230Y-69015372D01*
X149901507Y-69000000D01*
X150098493Y-69000000D01*
X150175770Y-69015372D01*
X150175770Y-69015372D01*
G37*
G36*
X147635770Y-69015372D02*
X147751689Y-69038429D01*
X147933678Y-69113811D01*
X148097463Y-69223249D01*
X148236751Y-69362537D01*
X148346189Y-69526322D01*
X148421571Y-69708311D01*
X148437565Y-69788720D01*
X148460000Y-69901507D01*
X148460000Y-70098493D01*
X148444628Y-70175770D01*
X148421571Y-70291689D01*
X148346189Y-70473678D01*
X148236751Y-70637463D01*
X148097463Y-70776751D01*
X147933678Y-70886189D01*
X147751689Y-70961571D01*
X147635770Y-70984628D01*
X147558493Y-71000000D01*
X147361507Y-71000000D01*
X147284230Y-70984628D01*
X147168311Y-70961571D01*
X146986322Y-70886189D01*
X146822537Y-70776751D01*
X146683249Y-70637463D01*
X146573811Y-70473678D01*
X146498429Y-70291689D01*
X146475372Y-70175770D01*
X146460000Y-70098493D01*
X146460000Y-69901507D01*
X146482435Y-69788720D01*
X146498429Y-69708311D01*
X146573811Y-69526322D01*
X146683249Y-69362537D01*
X146822537Y-69223249D01*
X146986322Y-69113811D01*
X147168311Y-69038429D01*
X147284230Y-69015372D01*
X147361507Y-69000000D01*
X147558493Y-69000000D01*
X147635770Y-69015372D01*
X147635770Y-69015372D01*
G37*
G36*
X125270770Y-68230372D02*
X125386689Y-68253429D01*
X125568678Y-68328811D01*
X125732463Y-68438249D01*
X125871751Y-68577537D01*
X125981189Y-68741322D01*
X126056571Y-68923311D01*
X126062373Y-68952480D01*
X126094464Y-69113811D01*
X126095000Y-69116509D01*
X126095000Y-69313491D01*
X126056571Y-69506689D01*
X125981189Y-69688678D01*
X125871751Y-69852463D01*
X125732463Y-69991751D01*
X125568678Y-70101189D01*
X125386689Y-70176571D01*
X125270770Y-70199628D01*
X125193493Y-70215000D01*
X124996507Y-70215000D01*
X124919230Y-70199628D01*
X124803311Y-70176571D01*
X124621322Y-70101189D01*
X124457537Y-69991751D01*
X124318249Y-69852463D01*
X124208811Y-69688678D01*
X124133429Y-69506689D01*
X124095000Y-69313491D01*
X124095000Y-69116509D01*
X124095537Y-69113811D01*
X124127627Y-68952480D01*
X124133429Y-68923311D01*
X124208811Y-68741322D01*
X124318249Y-68577537D01*
X124457537Y-68438249D01*
X124621322Y-68328811D01*
X124803311Y-68253429D01*
X124919230Y-68230372D01*
X124996507Y-68215000D01*
X125193493Y-68215000D01*
X125270770Y-68230372D01*
X125270770Y-68230372D01*
G37*
G36*
X177848770Y-68230372D02*
X177964689Y-68253429D01*
X178146678Y-68328811D01*
X178310463Y-68438249D01*
X178449751Y-68577537D01*
X178559189Y-68741322D01*
X178634571Y-68923311D01*
X178640373Y-68952480D01*
X178672464Y-69113811D01*
X178673000Y-69116509D01*
X178673000Y-69313491D01*
X178634571Y-69506689D01*
X178559189Y-69688678D01*
X178449751Y-69852463D01*
X178310463Y-69991751D01*
X178146678Y-70101189D01*
X177964689Y-70176571D01*
X177848770Y-70199628D01*
X177771493Y-70215000D01*
X177574507Y-70215000D01*
X177497230Y-70199628D01*
X177381311Y-70176571D01*
X177199322Y-70101189D01*
X177035537Y-69991751D01*
X176896249Y-69852463D01*
X176786811Y-69688678D01*
X176711429Y-69506689D01*
X176673000Y-69313491D01*
X176673000Y-69116509D01*
X176673537Y-69113811D01*
X176705627Y-68952480D01*
X176711429Y-68923311D01*
X176786811Y-68741322D01*
X176896249Y-68577537D01*
X177035537Y-68438249D01*
X177199322Y-68328811D01*
X177381311Y-68253429D01*
X177497230Y-68230372D01*
X177574507Y-68215000D01*
X177771493Y-68215000D01*
X177848770Y-68230372D01*
X177848770Y-68230372D01*
G37*
G36*
X122222770Y-68230372D02*
X122338689Y-68253429D01*
X122520678Y-68328811D01*
X122684463Y-68438249D01*
X122823751Y-68577537D01*
X122933189Y-68741322D01*
X123008571Y-68923311D01*
X123014373Y-68952480D01*
X123046464Y-69113811D01*
X123047000Y-69116509D01*
X123047000Y-69313491D01*
X123008571Y-69506689D01*
X122933189Y-69688678D01*
X122823751Y-69852463D01*
X122684463Y-69991751D01*
X122520678Y-70101189D01*
X122338689Y-70176571D01*
X122222770Y-70199628D01*
X122145493Y-70215000D01*
X121948507Y-70215000D01*
X121871230Y-70199628D01*
X121755311Y-70176571D01*
X121573322Y-70101189D01*
X121409537Y-69991751D01*
X121270249Y-69852463D01*
X121160811Y-69688678D01*
X121085429Y-69506689D01*
X121047000Y-69313491D01*
X121047000Y-69116509D01*
X121047537Y-69113811D01*
X121079627Y-68952480D01*
X121085429Y-68923311D01*
X121160811Y-68741322D01*
X121270249Y-68577537D01*
X121409537Y-68438249D01*
X121573322Y-68328811D01*
X121755311Y-68253429D01*
X121871230Y-68230372D01*
X121948507Y-68215000D01*
X122145493Y-68215000D01*
X122222770Y-68230372D01*
X122222770Y-68230372D01*
G37*
G36*
X128318770Y-68230372D02*
X128434689Y-68253429D01*
X128616678Y-68328811D01*
X128780463Y-68438249D01*
X128919751Y-68577537D01*
X129029189Y-68741322D01*
X129104571Y-68923311D01*
X129110373Y-68952480D01*
X129142464Y-69113811D01*
X129143000Y-69116509D01*
X129143000Y-69313491D01*
X129104571Y-69506689D01*
X129029189Y-69688678D01*
X128919751Y-69852463D01*
X128780463Y-69991751D01*
X128616678Y-70101189D01*
X128434689Y-70176571D01*
X128318770Y-70199628D01*
X128241493Y-70215000D01*
X128044507Y-70215000D01*
X127967230Y-70199628D01*
X127851311Y-70176571D01*
X127669322Y-70101189D01*
X127505537Y-69991751D01*
X127366249Y-69852463D01*
X127256811Y-69688678D01*
X127181429Y-69506689D01*
X127143000Y-69313491D01*
X127143000Y-69116509D01*
X127143537Y-69113811D01*
X127175627Y-68952480D01*
X127181429Y-68923311D01*
X127256811Y-68741322D01*
X127366249Y-68577537D01*
X127505537Y-68438249D01*
X127669322Y-68328811D01*
X127851311Y-68253429D01*
X127967230Y-68230372D01*
X128044507Y-68215000D01*
X128241493Y-68215000D01*
X128318770Y-68230372D01*
X128318770Y-68230372D01*
G37*
G36*
X171752770Y-68230372D02*
X171868689Y-68253429D01*
X172050678Y-68328811D01*
X172214463Y-68438249D01*
X172353751Y-68577537D01*
X172463189Y-68741322D01*
X172538571Y-68923311D01*
X172544373Y-68952480D01*
X172576464Y-69113811D01*
X172577000Y-69116509D01*
X172577000Y-69313491D01*
X172538571Y-69506689D01*
X172463189Y-69688678D01*
X172353751Y-69852463D01*
X172214463Y-69991751D01*
X172050678Y-70101189D01*
X171868689Y-70176571D01*
X171752770Y-70199628D01*
X171675493Y-70215000D01*
X171478507Y-70215000D01*
X171401230Y-70199628D01*
X171285311Y-70176571D01*
X171103322Y-70101189D01*
X170939537Y-69991751D01*
X170800249Y-69852463D01*
X170690811Y-69688678D01*
X170615429Y-69506689D01*
X170577000Y-69313491D01*
X170577000Y-69116509D01*
X170577537Y-69113811D01*
X170609627Y-68952480D01*
X170615429Y-68923311D01*
X170690811Y-68741322D01*
X170800249Y-68577537D01*
X170939537Y-68438249D01*
X171103322Y-68328811D01*
X171285311Y-68253429D01*
X171401230Y-68230372D01*
X171478507Y-68215000D01*
X171675493Y-68215000D01*
X171752770Y-68230372D01*
X171752770Y-68230372D01*
G37*
G36*
X174800770Y-68230372D02*
X174916689Y-68253429D01*
X175098678Y-68328811D01*
X175262463Y-68438249D01*
X175401751Y-68577537D01*
X175511189Y-68741322D01*
X175586571Y-68923311D01*
X175592373Y-68952480D01*
X175624464Y-69113811D01*
X175625000Y-69116509D01*
X175625000Y-69313491D01*
X175586571Y-69506689D01*
X175511189Y-69688678D01*
X175401751Y-69852463D01*
X175262463Y-69991751D01*
X175098678Y-70101189D01*
X174916689Y-70176571D01*
X174800770Y-70199628D01*
X174723493Y-70215000D01*
X174526507Y-70215000D01*
X174449230Y-70199628D01*
X174333311Y-70176571D01*
X174151322Y-70101189D01*
X173987537Y-69991751D01*
X173848249Y-69852463D01*
X173738811Y-69688678D01*
X173663429Y-69506689D01*
X173625000Y-69313491D01*
X173625000Y-69116509D01*
X173625537Y-69113811D01*
X173657627Y-68952480D01*
X173663429Y-68923311D01*
X173738811Y-68741322D01*
X173848249Y-68577537D01*
X173987537Y-68438249D01*
X174151322Y-68328811D01*
X174333311Y-68253429D01*
X174449230Y-68230372D01*
X174526507Y-68215000D01*
X174723493Y-68215000D01*
X174800770Y-68230372D01*
X174800770Y-68230372D01*
G37*
G36*
X193937521Y-68349586D02*
X194101309Y-68417429D01*
X194248720Y-68515926D01*
X194374074Y-68641280D01*
X194472571Y-68788691D01*
X194540414Y-68952479D01*
X194575000Y-69126356D01*
X194575000Y-69303644D01*
X194540414Y-69477521D01*
X194472571Y-69641309D01*
X194374074Y-69788720D01*
X194248720Y-69914074D01*
X194101309Y-70012571D01*
X193937521Y-70080414D01*
X193763644Y-70115000D01*
X193586356Y-70115000D01*
X193412479Y-70080414D01*
X193248691Y-70012571D01*
X193101280Y-69914074D01*
X192975926Y-69788720D01*
X192877429Y-69641309D01*
X192809586Y-69477521D01*
X192775000Y-69303644D01*
X192775000Y-69126356D01*
X192809586Y-68952479D01*
X192877429Y-68788691D01*
X192975926Y-68641280D01*
X193101280Y-68515926D01*
X193248691Y-68417429D01*
X193412479Y-68349586D01*
X193586356Y-68315000D01*
X193763644Y-68315000D01*
X193937521Y-68349586D01*
X193937521Y-68349586D01*
G37*
G36*
X142505000Y-70115000D02*
X140705000Y-70115000D01*
X140705000Y-68315000D01*
X142505000Y-68315000D01*
X142505000Y-70115000D01*
X142505000Y-70115000D01*
G37*
G36*
X139327521Y-68349586D02*
X139491309Y-68417429D01*
X139638720Y-68515926D01*
X139764074Y-68641280D01*
X139862571Y-68788691D01*
X139930414Y-68952479D01*
X139965000Y-69126356D01*
X139965000Y-69303644D01*
X139930414Y-69477521D01*
X139862571Y-69641309D01*
X139764074Y-69788720D01*
X139638720Y-69914074D01*
X139491309Y-70012571D01*
X139327521Y-70080414D01*
X139153644Y-70115000D01*
X138976356Y-70115000D01*
X138802479Y-70080414D01*
X138638691Y-70012571D01*
X138491280Y-69914074D01*
X138365926Y-69788720D01*
X138267429Y-69641309D01*
X138199586Y-69477521D01*
X138165000Y-69303644D01*
X138165000Y-69126356D01*
X138199586Y-68952479D01*
X138267429Y-68788691D01*
X138365926Y-68641280D01*
X138491280Y-68515926D01*
X138638691Y-68417429D01*
X138802479Y-68349586D01*
X138976356Y-68315000D01*
X139153644Y-68315000D01*
X139327521Y-68349586D01*
X139327521Y-68349586D01*
G37*
G36*
X137425000Y-70115000D02*
X135625000Y-70115000D01*
X135625000Y-68315000D01*
X137425000Y-68315000D01*
X137425000Y-70115000D01*
X137425000Y-70115000D01*
G37*
G36*
X134247521Y-68349586D02*
X134411309Y-68417429D01*
X134558720Y-68515926D01*
X134684074Y-68641280D01*
X134782571Y-68788691D01*
X134850414Y-68952479D01*
X134885000Y-69126356D01*
X134885000Y-69303644D01*
X134850414Y-69477521D01*
X134782571Y-69641309D01*
X134684074Y-69788720D01*
X134558720Y-69914074D01*
X134411309Y-70012571D01*
X134247521Y-70080414D01*
X134073644Y-70115000D01*
X133896356Y-70115000D01*
X133722479Y-70080414D01*
X133558691Y-70012571D01*
X133411280Y-69914074D01*
X133285926Y-69788720D01*
X133187429Y-69641309D01*
X133119586Y-69477521D01*
X133085000Y-69303644D01*
X133085000Y-69126356D01*
X133119586Y-68952479D01*
X133187429Y-68788691D01*
X133285926Y-68641280D01*
X133411280Y-68515926D01*
X133558691Y-68417429D01*
X133722479Y-68349586D01*
X133896356Y-68315000D01*
X134073644Y-68315000D01*
X134247521Y-68349586D01*
X134247521Y-68349586D01*
G37*
G36*
X183777521Y-68349586D02*
X183941309Y-68417429D01*
X184088720Y-68515926D01*
X184214074Y-68641280D01*
X184312571Y-68788691D01*
X184380414Y-68952479D01*
X184415000Y-69126356D01*
X184415000Y-69303644D01*
X184380414Y-69477521D01*
X184312571Y-69641309D01*
X184214074Y-69788720D01*
X184088720Y-69914074D01*
X183941309Y-70012571D01*
X183777521Y-70080414D01*
X183603644Y-70115000D01*
X183426356Y-70115000D01*
X183252479Y-70080414D01*
X183088691Y-70012571D01*
X182941280Y-69914074D01*
X182815926Y-69788720D01*
X182717429Y-69641309D01*
X182649586Y-69477521D01*
X182615000Y-69303644D01*
X182615000Y-69126356D01*
X182649586Y-68952479D01*
X182717429Y-68788691D01*
X182815926Y-68641280D01*
X182941280Y-68515926D01*
X183088691Y-68417429D01*
X183252479Y-68349586D01*
X183426356Y-68315000D01*
X183603644Y-68315000D01*
X183777521Y-68349586D01*
X183777521Y-68349586D01*
G37*
G36*
X181875000Y-70115000D02*
X180075000Y-70115000D01*
X180075000Y-68315000D01*
X181875000Y-68315000D01*
X181875000Y-70115000D01*
X181875000Y-70115000D01*
G37*
G36*
X132345000Y-70115000D02*
X130545000Y-70115000D01*
X130545000Y-68315000D01*
X132345000Y-68315000D01*
X132345000Y-70115000D01*
X132345000Y-70115000D01*
G37*
G36*
X144407521Y-68349586D02*
X144571309Y-68417429D01*
X144718720Y-68515926D01*
X144844074Y-68641280D01*
X144942571Y-68788691D01*
X145010414Y-68952479D01*
X145045000Y-69126356D01*
X145045000Y-69303644D01*
X145010414Y-69477521D01*
X144942571Y-69641309D01*
X144844074Y-69788720D01*
X144718720Y-69914074D01*
X144571309Y-70012571D01*
X144407521Y-70080414D01*
X144233644Y-70115000D01*
X144056356Y-70115000D01*
X143882479Y-70080414D01*
X143718691Y-70012571D01*
X143571280Y-69914074D01*
X143445926Y-69788720D01*
X143347429Y-69641309D01*
X143279586Y-69477521D01*
X143245000Y-69303644D01*
X143245000Y-69126356D01*
X143279586Y-68952479D01*
X143347429Y-68788691D01*
X143445926Y-68641280D01*
X143571280Y-68515926D01*
X143718691Y-68417429D01*
X143882479Y-68349586D01*
X144056356Y-68315000D01*
X144233644Y-68315000D01*
X144407521Y-68349586D01*
X144407521Y-68349586D01*
G37*
G36*
X188857521Y-68349586D02*
X189021309Y-68417429D01*
X189168720Y-68515926D01*
X189294074Y-68641280D01*
X189392571Y-68788691D01*
X189460414Y-68952479D01*
X189495000Y-69126356D01*
X189495000Y-69303644D01*
X189460414Y-69477521D01*
X189392571Y-69641309D01*
X189294074Y-69788720D01*
X189168720Y-69914074D01*
X189021309Y-70012571D01*
X188857521Y-70080414D01*
X188683644Y-70115000D01*
X188506356Y-70115000D01*
X188332479Y-70080414D01*
X188168691Y-70012571D01*
X188021280Y-69914074D01*
X187895926Y-69788720D01*
X187797429Y-69641309D01*
X187729586Y-69477521D01*
X187695000Y-69303644D01*
X187695000Y-69126356D01*
X187729586Y-68952479D01*
X187797429Y-68788691D01*
X187895926Y-68641280D01*
X188021280Y-68515926D01*
X188168691Y-68417429D01*
X188332479Y-68349586D01*
X188506356Y-68315000D01*
X188683644Y-68315000D01*
X188857521Y-68349586D01*
X188857521Y-68349586D01*
G37*
G36*
X192035000Y-70115000D02*
X190235000Y-70115000D01*
X190235000Y-68315000D01*
X192035000Y-68315000D01*
X192035000Y-70115000D01*
X192035000Y-70115000D01*
G37*
G36*
X186955000Y-70115000D02*
X185155000Y-70115000D01*
X185155000Y-68315000D01*
X186955000Y-68315000D01*
X186955000Y-70115000D01*
X186955000Y-70115000D01*
G37*
G36*
X212800000Y-69570000D02*
X208840000Y-69570000D01*
X208840000Y-67590000D01*
X212800000Y-67590000D01*
X212800000Y-69570000D01*
X212800000Y-69570000D01*
G37*
G36*
X163270000Y-69570000D02*
X159310000Y-69570000D01*
X159310000Y-67590000D01*
X163270000Y-67590000D01*
X163270000Y-69570000D01*
X163270000Y-69570000D01*
G37*
G36*
X146312521Y-63904586D02*
X146476309Y-63972429D01*
X146623720Y-64070926D01*
X146749074Y-64196280D01*
X146847571Y-64343691D01*
X146915414Y-64507479D01*
X146950000Y-64681356D01*
X146950000Y-64858644D01*
X146915414Y-65032521D01*
X146847571Y-65196309D01*
X146749074Y-65343720D01*
X146623720Y-65469074D01*
X146476309Y-65567571D01*
X146312521Y-65635414D01*
X146138644Y-65670000D01*
X145961356Y-65670000D01*
X145787479Y-65635414D01*
X145623691Y-65567571D01*
X145476280Y-65469074D01*
X145350926Y-65343720D01*
X145252429Y-65196309D01*
X145184586Y-65032521D01*
X145150000Y-64858644D01*
X145150000Y-64681356D01*
X145184586Y-64507479D01*
X145252429Y-64343691D01*
X145350926Y-64196280D01*
X145476280Y-64070926D01*
X145623691Y-63972429D01*
X145787479Y-63904586D01*
X145961356Y-63870000D01*
X146138644Y-63870000D01*
X146312521Y-63904586D01*
X146312521Y-63904586D01*
G37*
G36*
X141232521Y-63904586D02*
X141396309Y-63972429D01*
X141543720Y-64070926D01*
X141669074Y-64196280D01*
X141767571Y-64343691D01*
X141835414Y-64507479D01*
X141870000Y-64681356D01*
X141870000Y-64858644D01*
X141835414Y-65032521D01*
X141767571Y-65196309D01*
X141669074Y-65343720D01*
X141543720Y-65469074D01*
X141396309Y-65567571D01*
X141232521Y-65635414D01*
X141058644Y-65670000D01*
X140881356Y-65670000D01*
X140707479Y-65635414D01*
X140543691Y-65567571D01*
X140396280Y-65469074D01*
X140270926Y-65343720D01*
X140172429Y-65196309D01*
X140104586Y-65032521D01*
X140070000Y-64858644D01*
X140070000Y-64681356D01*
X140104586Y-64507479D01*
X140172429Y-64343691D01*
X140270926Y-64196280D01*
X140396280Y-64070926D01*
X140543691Y-63972429D01*
X140707479Y-63904586D01*
X140881356Y-63870000D01*
X141058644Y-63870000D01*
X141232521Y-63904586D01*
X141232521Y-63904586D01*
G37*
G36*
X138692521Y-63904586D02*
X138856309Y-63972429D01*
X139003720Y-64070926D01*
X139129074Y-64196280D01*
X139227571Y-64343691D01*
X139295414Y-64507479D01*
X139330000Y-64681356D01*
X139330000Y-64858644D01*
X139295414Y-65032521D01*
X139227571Y-65196309D01*
X139129074Y-65343720D01*
X139003720Y-65469074D01*
X138856309Y-65567571D01*
X138692521Y-65635414D01*
X138518644Y-65670000D01*
X138341356Y-65670000D01*
X138167479Y-65635414D01*
X138003691Y-65567571D01*
X137856280Y-65469074D01*
X137730926Y-65343720D01*
X137632429Y-65196309D01*
X137564586Y-65032521D01*
X137530000Y-64858644D01*
X137530000Y-64681356D01*
X137564586Y-64507479D01*
X137632429Y-64343691D01*
X137730926Y-64196280D01*
X137856280Y-64070926D01*
X138003691Y-63972429D01*
X138167479Y-63904586D01*
X138341356Y-63870000D01*
X138518644Y-63870000D01*
X138692521Y-63904586D01*
X138692521Y-63904586D01*
G37*
G36*
X136152521Y-63904586D02*
X136316309Y-63972429D01*
X136463720Y-64070926D01*
X136589074Y-64196280D01*
X136687571Y-64343691D01*
X136755414Y-64507479D01*
X136790000Y-64681356D01*
X136790000Y-64858644D01*
X136755414Y-65032521D01*
X136687571Y-65196309D01*
X136589074Y-65343720D01*
X136463720Y-65469074D01*
X136316309Y-65567571D01*
X136152521Y-65635414D01*
X135978644Y-65670000D01*
X135801356Y-65670000D01*
X135627479Y-65635414D01*
X135463691Y-65567571D01*
X135316280Y-65469074D01*
X135190926Y-65343720D01*
X135092429Y-65196309D01*
X135024586Y-65032521D01*
X134990000Y-64858644D01*
X134990000Y-64681356D01*
X135024586Y-64507479D01*
X135092429Y-64343691D01*
X135190926Y-64196280D01*
X135316280Y-64070926D01*
X135463691Y-63972429D01*
X135627479Y-63904586D01*
X135801356Y-63870000D01*
X135978644Y-63870000D01*
X136152521Y-63904586D01*
X136152521Y-63904586D01*
G37*
G36*
X133612521Y-63904586D02*
X133776309Y-63972429D01*
X133923720Y-64070926D01*
X134049074Y-64196280D01*
X134147571Y-64343691D01*
X134215414Y-64507479D01*
X134250000Y-64681356D01*
X134250000Y-64858644D01*
X134215414Y-65032521D01*
X134147571Y-65196309D01*
X134049074Y-65343720D01*
X133923720Y-65469074D01*
X133776309Y-65567571D01*
X133612521Y-65635414D01*
X133438644Y-65670000D01*
X133261356Y-65670000D01*
X133087479Y-65635414D01*
X132923691Y-65567571D01*
X132776280Y-65469074D01*
X132650926Y-65343720D01*
X132552429Y-65196309D01*
X132484586Y-65032521D01*
X132450000Y-64858644D01*
X132450000Y-64681356D01*
X132484586Y-64507479D01*
X132552429Y-64343691D01*
X132650926Y-64196280D01*
X132776280Y-64070926D01*
X132923691Y-63972429D01*
X133087479Y-63904586D01*
X133261356Y-63870000D01*
X133438644Y-63870000D01*
X133612521Y-63904586D01*
X133612521Y-63904586D01*
G37*
G36*
X131072521Y-63904586D02*
X131236309Y-63972429D01*
X131383720Y-64070926D01*
X131509074Y-64196280D01*
X131607571Y-64343691D01*
X131675414Y-64507479D01*
X131710000Y-64681356D01*
X131710000Y-64858644D01*
X131675414Y-65032521D01*
X131607571Y-65196309D01*
X131509074Y-65343720D01*
X131383720Y-65469074D01*
X131236309Y-65567571D01*
X131072521Y-65635414D01*
X130898644Y-65670000D01*
X130721356Y-65670000D01*
X130547479Y-65635414D01*
X130383691Y-65567571D01*
X130236280Y-65469074D01*
X130110926Y-65343720D01*
X130012429Y-65196309D01*
X129944586Y-65032521D01*
X129910000Y-64858644D01*
X129910000Y-64681356D01*
X129944586Y-64507479D01*
X130012429Y-64343691D01*
X130110926Y-64196280D01*
X130236280Y-64070926D01*
X130383691Y-63972429D01*
X130547479Y-63904586D01*
X130721356Y-63870000D01*
X130898644Y-63870000D01*
X131072521Y-63904586D01*
X131072521Y-63904586D01*
G37*
G36*
X128532521Y-63904586D02*
X128696309Y-63972429D01*
X128843720Y-64070926D01*
X128969074Y-64196280D01*
X129067571Y-64343691D01*
X129135414Y-64507479D01*
X129170000Y-64681356D01*
X129170000Y-64858644D01*
X129135414Y-65032521D01*
X129067571Y-65196309D01*
X128969074Y-65343720D01*
X128843720Y-65469074D01*
X128696309Y-65567571D01*
X128532521Y-65635414D01*
X128358644Y-65670000D01*
X128181356Y-65670000D01*
X128007479Y-65635414D01*
X127843691Y-65567571D01*
X127696280Y-65469074D01*
X127570926Y-65343720D01*
X127472429Y-65196309D01*
X127404586Y-65032521D01*
X127370000Y-64858644D01*
X127370000Y-64681356D01*
X127404586Y-64507479D01*
X127472429Y-64343691D01*
X127570926Y-64196280D01*
X127696280Y-64070926D01*
X127843691Y-63972429D01*
X128007479Y-63904586D01*
X128181356Y-63870000D01*
X128358644Y-63870000D01*
X128532521Y-63904586D01*
X128532521Y-63904586D01*
G37*
G36*
X143772521Y-63904586D02*
X143936309Y-63972429D01*
X144083720Y-64070926D01*
X144209074Y-64196280D01*
X144307571Y-64343691D01*
X144375414Y-64507479D01*
X144410000Y-64681356D01*
X144410000Y-64858644D01*
X144375414Y-65032521D01*
X144307571Y-65196309D01*
X144209074Y-65343720D01*
X144083720Y-65469074D01*
X143936309Y-65567571D01*
X143772521Y-65635414D01*
X143598644Y-65670000D01*
X143421356Y-65670000D01*
X143247479Y-65635414D01*
X143083691Y-65567571D01*
X142936280Y-65469074D01*
X142810926Y-65343720D01*
X142712429Y-65196309D01*
X142644586Y-65032521D01*
X142610000Y-64858644D01*
X142610000Y-64681356D01*
X142644586Y-64507479D01*
X142712429Y-64343691D01*
X142810926Y-64196280D01*
X142936280Y-64070926D01*
X143083691Y-63972429D01*
X143247479Y-63904586D01*
X143421356Y-63870000D01*
X143598644Y-63870000D01*
X143772521Y-63904586D01*
X143772521Y-63904586D01*
G37*
G36*
X195842521Y-63904586D02*
X196006309Y-63972429D01*
X196153720Y-64070926D01*
X196279074Y-64196280D01*
X196377571Y-64343691D01*
X196445414Y-64507479D01*
X196480000Y-64681356D01*
X196480000Y-64858644D01*
X196445414Y-65032521D01*
X196377571Y-65196309D01*
X196279074Y-65343720D01*
X196153720Y-65469074D01*
X196006309Y-65567571D01*
X195842521Y-65635414D01*
X195668644Y-65670000D01*
X195491356Y-65670000D01*
X195317479Y-65635414D01*
X195153691Y-65567571D01*
X195006280Y-65469074D01*
X194880926Y-65343720D01*
X194782429Y-65196309D01*
X194714586Y-65032521D01*
X194680000Y-64858644D01*
X194680000Y-64681356D01*
X194714586Y-64507479D01*
X194782429Y-64343691D01*
X194880926Y-64196280D01*
X195006280Y-64070926D01*
X195153691Y-63972429D01*
X195317479Y-63904586D01*
X195491356Y-63870000D01*
X195668644Y-63870000D01*
X195842521Y-63904586D01*
X195842521Y-63904586D01*
G37*
G36*
X193302521Y-63904586D02*
X193466309Y-63972429D01*
X193613720Y-64070926D01*
X193739074Y-64196280D01*
X193837571Y-64343691D01*
X193905414Y-64507479D01*
X193940000Y-64681356D01*
X193940000Y-64858644D01*
X193905414Y-65032521D01*
X193837571Y-65196309D01*
X193739074Y-65343720D01*
X193613720Y-65469074D01*
X193466309Y-65567571D01*
X193302521Y-65635414D01*
X193128644Y-65670000D01*
X192951356Y-65670000D01*
X192777479Y-65635414D01*
X192613691Y-65567571D01*
X192466280Y-65469074D01*
X192340926Y-65343720D01*
X192242429Y-65196309D01*
X192174586Y-65032521D01*
X192140000Y-64858644D01*
X192140000Y-64681356D01*
X192174586Y-64507479D01*
X192242429Y-64343691D01*
X192340926Y-64196280D01*
X192466280Y-64070926D01*
X192613691Y-63972429D01*
X192777479Y-63904586D01*
X192951356Y-63870000D01*
X193128644Y-63870000D01*
X193302521Y-63904586D01*
X193302521Y-63904586D01*
G37*
G36*
X178062521Y-63904586D02*
X178226309Y-63972429D01*
X178373720Y-64070926D01*
X178499074Y-64196280D01*
X178597571Y-64343691D01*
X178665414Y-64507479D01*
X178700000Y-64681356D01*
X178700000Y-64858644D01*
X178665414Y-65032521D01*
X178597571Y-65196309D01*
X178499074Y-65343720D01*
X178373720Y-65469074D01*
X178226309Y-65567571D01*
X178062521Y-65635414D01*
X177888644Y-65670000D01*
X177711356Y-65670000D01*
X177537479Y-65635414D01*
X177373691Y-65567571D01*
X177226280Y-65469074D01*
X177100926Y-65343720D01*
X177002429Y-65196309D01*
X176934586Y-65032521D01*
X176900000Y-64858644D01*
X176900000Y-64681356D01*
X176934586Y-64507479D01*
X177002429Y-64343691D01*
X177100926Y-64196280D01*
X177226280Y-64070926D01*
X177373691Y-63972429D01*
X177537479Y-63904586D01*
X177711356Y-63870000D01*
X177888644Y-63870000D01*
X178062521Y-63904586D01*
X178062521Y-63904586D01*
G37*
G36*
X190762521Y-63904586D02*
X190926309Y-63972429D01*
X191073720Y-64070926D01*
X191199074Y-64196280D01*
X191297571Y-64343691D01*
X191365414Y-64507479D01*
X191400000Y-64681356D01*
X191400000Y-64858644D01*
X191365414Y-65032521D01*
X191297571Y-65196309D01*
X191199074Y-65343720D01*
X191073720Y-65469074D01*
X190926309Y-65567571D01*
X190762521Y-65635414D01*
X190588644Y-65670000D01*
X190411356Y-65670000D01*
X190237479Y-65635414D01*
X190073691Y-65567571D01*
X189926280Y-65469074D01*
X189800926Y-65343720D01*
X189702429Y-65196309D01*
X189634586Y-65032521D01*
X189600000Y-64858644D01*
X189600000Y-64681356D01*
X189634586Y-64507479D01*
X189702429Y-64343691D01*
X189800926Y-64196280D01*
X189926280Y-64070926D01*
X190073691Y-63972429D01*
X190237479Y-63904586D01*
X190411356Y-63870000D01*
X190588644Y-63870000D01*
X190762521Y-63904586D01*
X190762521Y-63904586D01*
G37*
G36*
X188222521Y-63904586D02*
X188386309Y-63972429D01*
X188533720Y-64070926D01*
X188659074Y-64196280D01*
X188757571Y-64343691D01*
X188825414Y-64507479D01*
X188860000Y-64681356D01*
X188860000Y-64858644D01*
X188825414Y-65032521D01*
X188757571Y-65196309D01*
X188659074Y-65343720D01*
X188533720Y-65469074D01*
X188386309Y-65567571D01*
X188222521Y-65635414D01*
X188048644Y-65670000D01*
X187871356Y-65670000D01*
X187697479Y-65635414D01*
X187533691Y-65567571D01*
X187386280Y-65469074D01*
X187260926Y-65343720D01*
X187162429Y-65196309D01*
X187094586Y-65032521D01*
X187060000Y-64858644D01*
X187060000Y-64681356D01*
X187094586Y-64507479D01*
X187162429Y-64343691D01*
X187260926Y-64196280D01*
X187386280Y-64070926D01*
X187533691Y-63972429D01*
X187697479Y-63904586D01*
X187871356Y-63870000D01*
X188048644Y-63870000D01*
X188222521Y-63904586D01*
X188222521Y-63904586D01*
G37*
G36*
X185682521Y-63904586D02*
X185846309Y-63972429D01*
X185993720Y-64070926D01*
X186119074Y-64196280D01*
X186217571Y-64343691D01*
X186285414Y-64507479D01*
X186320000Y-64681356D01*
X186320000Y-64858644D01*
X186285414Y-65032521D01*
X186217571Y-65196309D01*
X186119074Y-65343720D01*
X185993720Y-65469074D01*
X185846309Y-65567571D01*
X185682521Y-65635414D01*
X185508644Y-65670000D01*
X185331356Y-65670000D01*
X185157479Y-65635414D01*
X184993691Y-65567571D01*
X184846280Y-65469074D01*
X184720926Y-65343720D01*
X184622429Y-65196309D01*
X184554586Y-65032521D01*
X184520000Y-64858644D01*
X184520000Y-64681356D01*
X184554586Y-64507479D01*
X184622429Y-64343691D01*
X184720926Y-64196280D01*
X184846280Y-64070926D01*
X184993691Y-63972429D01*
X185157479Y-63904586D01*
X185331356Y-63870000D01*
X185508644Y-63870000D01*
X185682521Y-63904586D01*
X185682521Y-63904586D01*
G37*
G36*
X183142521Y-63904586D02*
X183306309Y-63972429D01*
X183453720Y-64070926D01*
X183579074Y-64196280D01*
X183677571Y-64343691D01*
X183745414Y-64507479D01*
X183780000Y-64681356D01*
X183780000Y-64858644D01*
X183745414Y-65032521D01*
X183677571Y-65196309D01*
X183579074Y-65343720D01*
X183453720Y-65469074D01*
X183306309Y-65567571D01*
X183142521Y-65635414D01*
X182968644Y-65670000D01*
X182791356Y-65670000D01*
X182617479Y-65635414D01*
X182453691Y-65567571D01*
X182306280Y-65469074D01*
X182180926Y-65343720D01*
X182082429Y-65196309D01*
X182014586Y-65032521D01*
X181980000Y-64858644D01*
X181980000Y-64681356D01*
X182014586Y-64507479D01*
X182082429Y-64343691D01*
X182180926Y-64196280D01*
X182306280Y-64070926D01*
X182453691Y-63972429D01*
X182617479Y-63904586D01*
X182791356Y-63870000D01*
X182968644Y-63870000D01*
X183142521Y-63904586D01*
X183142521Y-63904586D01*
G37*
G36*
X180602521Y-63904586D02*
X180766309Y-63972429D01*
X180913720Y-64070926D01*
X181039074Y-64196280D01*
X181137571Y-64343691D01*
X181205414Y-64507479D01*
X181240000Y-64681356D01*
X181240000Y-64858644D01*
X181205414Y-65032521D01*
X181137571Y-65196309D01*
X181039074Y-65343720D01*
X180913720Y-65469074D01*
X180766309Y-65567571D01*
X180602521Y-65635414D01*
X180428644Y-65670000D01*
X180251356Y-65670000D01*
X180077479Y-65635414D01*
X179913691Y-65567571D01*
X179766280Y-65469074D01*
X179640926Y-65343720D01*
X179542429Y-65196309D01*
X179474586Y-65032521D01*
X179440000Y-64858644D01*
X179440000Y-64681356D01*
X179474586Y-64507479D01*
X179542429Y-64343691D01*
X179640926Y-64196280D01*
X179766280Y-64070926D01*
X179913691Y-63972429D01*
X180077479Y-63904586D01*
X180251356Y-63870000D01*
X180428644Y-63870000D01*
X180602521Y-63904586D01*
X180602521Y-63904586D01*
G37*
G36*
X212004070Y-62604324D02*
X212004073Y-62604325D01*
X212004074Y-62604325D01*
X212190690Y-62660934D01*
X212362676Y-62752862D01*
X212513423Y-62876577D01*
X212637138Y-63027324D01*
X212724930Y-63191573D01*
X212729065Y-63199308D01*
X212785676Y-63385930D01*
X212804790Y-63580000D01*
X212785676Y-63774070D01*
X212785675Y-63774073D01*
X212785675Y-63774074D01*
X212729066Y-63960690D01*
X212637138Y-64132676D01*
X212513423Y-64283423D01*
X212362676Y-64407138D01*
X212190690Y-64499066D01*
X212004074Y-64555675D01*
X212004073Y-64555675D01*
X212004070Y-64555676D01*
X211858636Y-64570000D01*
X209781364Y-64570000D01*
X209635930Y-64555676D01*
X209635927Y-64555675D01*
X209635926Y-64555675D01*
X209449310Y-64499066D01*
X209277324Y-64407138D01*
X209126577Y-64283423D01*
X209002862Y-64132676D01*
X208910934Y-63960690D01*
X208854325Y-63774074D01*
X208854325Y-63774073D01*
X208854324Y-63774070D01*
X208835210Y-63580000D01*
X208854324Y-63385930D01*
X208910935Y-63199308D01*
X208915070Y-63191573D01*
X209002862Y-63027324D01*
X209126577Y-62876577D01*
X209277324Y-62752862D01*
X209449310Y-62660934D01*
X209635926Y-62604325D01*
X209635927Y-62604325D01*
X209635930Y-62604324D01*
X209781364Y-62590000D01*
X211858636Y-62590000D01*
X212004070Y-62604324D01*
X212004070Y-62604324D01*
G37*
G36*
X162474070Y-62604324D02*
X162474073Y-62604325D01*
X162474074Y-62604325D01*
X162660690Y-62660934D01*
X162832676Y-62752862D01*
X162983423Y-62876577D01*
X163107138Y-63027324D01*
X163194930Y-63191573D01*
X163199065Y-63199308D01*
X163255676Y-63385930D01*
X163274790Y-63580000D01*
X163255676Y-63774070D01*
X163255675Y-63774073D01*
X163255675Y-63774074D01*
X163199066Y-63960690D01*
X163107138Y-64132676D01*
X162983423Y-64283423D01*
X162832676Y-64407138D01*
X162660690Y-64499066D01*
X162474074Y-64555675D01*
X162474073Y-64555675D01*
X162474070Y-64555676D01*
X162328636Y-64570000D01*
X160251364Y-64570000D01*
X160105930Y-64555676D01*
X160105927Y-64555675D01*
X160105926Y-64555675D01*
X159919310Y-64499066D01*
X159747324Y-64407138D01*
X159596577Y-64283423D01*
X159472862Y-64132676D01*
X159380934Y-63960690D01*
X159324325Y-63774074D01*
X159324325Y-63774073D01*
X159324324Y-63774070D01*
X159305210Y-63580000D01*
X159324324Y-63385930D01*
X159380935Y-63199308D01*
X159385070Y-63191573D01*
X159472862Y-63027324D01*
X159596577Y-62876577D01*
X159747324Y-62752862D01*
X159919310Y-62660934D01*
X160105926Y-62604325D01*
X160105927Y-62604325D01*
X160105930Y-62604324D01*
X160251364Y-62590000D01*
X162328636Y-62590000D01*
X162474070Y-62604324D01*
X162474070Y-62604324D01*
G37*
G36*
X212800000Y-59410000D02*
X208840000Y-59410000D01*
X208840000Y-57430000D01*
X212800000Y-57430000D01*
X212800000Y-59410000D01*
X212800000Y-59410000D01*
G37*
G36*
X163270000Y-59410000D02*
X159310000Y-59410000D01*
X159310000Y-57430000D01*
X163270000Y-57430000D01*
X163270000Y-59410000D01*
X163270000Y-59410000D01*
G37*
G36*
X150160000Y-57715000D02*
X148160000Y-57715000D01*
X148160000Y-53715000D01*
X150160000Y-53715000D01*
X150160000Y-57715000D01*
X150160000Y-57715000D01*
G37*
G36*
X199690000Y-57715000D02*
X197690000Y-57715000D01*
X197690000Y-53715000D01*
X199690000Y-53715000D01*
X199690000Y-57715000D01*
X199690000Y-57715000D01*
G37*
G36*
X129840000Y-57588000D02*
X127840000Y-57588000D01*
X127840000Y-53588000D01*
X129840000Y-53588000D01*
X129840000Y-57588000D01*
X129840000Y-57588000D01*
G37*
G36*
X179370000Y-57588000D02*
X177370000Y-57588000D01*
X177370000Y-53588000D01*
X179370000Y-53588000D01*
X179370000Y-57588000D01*
X179370000Y-57588000D01*
G37*
G36*
X162474070Y-52444324D02*
X162474073Y-52444325D01*
X162474074Y-52444325D01*
X162660690Y-52500934D01*
X162832676Y-52592862D01*
X162983423Y-52716577D01*
X163107138Y-52867324D01*
X163194930Y-53031573D01*
X163199065Y-53039308D01*
X163255676Y-53225930D01*
X163274790Y-53420000D01*
X163255676Y-53614070D01*
X163255675Y-53614073D01*
X163255675Y-53614074D01*
X163199066Y-53800690D01*
X163107138Y-53972676D01*
X162983423Y-54123423D01*
X162832676Y-54247138D01*
X162660690Y-54339066D01*
X162474074Y-54395675D01*
X162474073Y-54395675D01*
X162474070Y-54395676D01*
X162328636Y-54410000D01*
X160251364Y-54410000D01*
X160105930Y-54395676D01*
X160105927Y-54395675D01*
X160105926Y-54395675D01*
X159919310Y-54339066D01*
X159747324Y-54247138D01*
X159596577Y-54123423D01*
X159472862Y-53972676D01*
X159380934Y-53800690D01*
X159324325Y-53614074D01*
X159324325Y-53614073D01*
X159324324Y-53614070D01*
X159305210Y-53420000D01*
X159324324Y-53225930D01*
X159380935Y-53039308D01*
X159385070Y-53031573D01*
X159472862Y-52867324D01*
X159596577Y-52716577D01*
X159747324Y-52592862D01*
X159919310Y-52500934D01*
X160105926Y-52444325D01*
X160105927Y-52444325D01*
X160105930Y-52444324D01*
X160251364Y-52430000D01*
X162328636Y-52430000D01*
X162474070Y-52444324D01*
X162474070Y-52444324D01*
G37*
G36*
X212004070Y-52444324D02*
X212004073Y-52444325D01*
X212004074Y-52444325D01*
X212190690Y-52500934D01*
X212362676Y-52592862D01*
X212513423Y-52716577D01*
X212637138Y-52867324D01*
X212724930Y-53031573D01*
X212729065Y-53039308D01*
X212785676Y-53225930D01*
X212804790Y-53420000D01*
X212785676Y-53614070D01*
X212785675Y-53614073D01*
X212785675Y-53614074D01*
X212729066Y-53800690D01*
X212637138Y-53972676D01*
X212513423Y-54123423D01*
X212362676Y-54247138D01*
X212190690Y-54339066D01*
X212004074Y-54395675D01*
X212004073Y-54395675D01*
X212004070Y-54395676D01*
X211858636Y-54410000D01*
X209781364Y-54410000D01*
X209635930Y-54395676D01*
X209635927Y-54395675D01*
X209635926Y-54395675D01*
X209449310Y-54339066D01*
X209277324Y-54247138D01*
X209126577Y-54123423D01*
X209002862Y-53972676D01*
X208910934Y-53800690D01*
X208854325Y-53614074D01*
X208854325Y-53614073D01*
X208854324Y-53614070D01*
X208835210Y-53420000D01*
X208854324Y-53225930D01*
X208910935Y-53039308D01*
X208915070Y-53031573D01*
X209002862Y-52867324D01*
X209126577Y-52716577D01*
X209277324Y-52592862D01*
X209449310Y-52500934D01*
X209635926Y-52444325D01*
X209635927Y-52444325D01*
X209635930Y-52444324D01*
X209781364Y-52430000D01*
X211858636Y-52430000D01*
X212004070Y-52444324D01*
X212004070Y-52444324D01*
G37*
G36*
X163270000Y-49250000D02*
X159310000Y-49250000D01*
X159310000Y-47270000D01*
X163270000Y-47270000D01*
X163270000Y-49250000D01*
X163270000Y-49250000D01*
G37*
G36*
X212800000Y-49250000D02*
X208840000Y-49250000D01*
X208840000Y-47270000D01*
X212800000Y-47270000D01*
X212800000Y-49250000D01*
X212800000Y-49250000D01*
G37*
G36*
X179370000Y-48285000D02*
X177370000Y-48285000D01*
X177370000Y-44285000D01*
X179370000Y-44285000D01*
X179370000Y-48285000D01*
X179370000Y-48285000D01*
G37*
G36*
X199690000Y-48285000D02*
X197690000Y-48285000D01*
X197690000Y-44285000D01*
X199690000Y-44285000D01*
X199690000Y-48285000D01*
X199690000Y-48285000D01*
G37*
G36*
X129840000Y-48285000D02*
X127840000Y-48285000D01*
X127840000Y-44285000D01*
X129840000Y-44285000D01*
X129840000Y-48285000D01*
X129840000Y-48285000D01*
G37*
G36*
X150160000Y-48285000D02*
X148160000Y-48285000D01*
X148160000Y-44285000D01*
X150160000Y-44285000D01*
X150160000Y-48285000D01*
X150160000Y-48285000D01*
G37*
G36*
X212004070Y-42284324D02*
X212004073Y-42284325D01*
X212004074Y-42284325D01*
X212190690Y-42340934D01*
X212362676Y-42432862D01*
X212513423Y-42556577D01*
X212637138Y-42707324D01*
X212692019Y-42810000D01*
X212729065Y-42879308D01*
X212785676Y-43065930D01*
X212804790Y-43260000D01*
X212785676Y-43454070D01*
X212785675Y-43454073D01*
X212785675Y-43454074D01*
X212729066Y-43640690D01*
X212637138Y-43812676D01*
X212513423Y-43963423D01*
X212362676Y-44087138D01*
X212190690Y-44179066D01*
X212004074Y-44235675D01*
X212004073Y-44235675D01*
X212004070Y-44235676D01*
X211858636Y-44250000D01*
X209781364Y-44250000D01*
X209635930Y-44235676D01*
X209635927Y-44235675D01*
X209635926Y-44235675D01*
X209449310Y-44179066D01*
X209277324Y-44087138D01*
X209126577Y-43963423D01*
X209002862Y-43812676D01*
X208910934Y-43640690D01*
X208854325Y-43454074D01*
X208854325Y-43454073D01*
X208854324Y-43454070D01*
X208835210Y-43260000D01*
X208854324Y-43065930D01*
X208910935Y-42879308D01*
X208947981Y-42810000D01*
X209002862Y-42707324D01*
X209126577Y-42556577D01*
X209277324Y-42432862D01*
X209449310Y-42340934D01*
X209635926Y-42284325D01*
X209635927Y-42284325D01*
X209635930Y-42284324D01*
X209781364Y-42270000D01*
X211858636Y-42270000D01*
X212004070Y-42284324D01*
X212004070Y-42284324D01*
G37*
G36*
X162474070Y-42284324D02*
X162474073Y-42284325D01*
X162474074Y-42284325D01*
X162660690Y-42340934D01*
X162832676Y-42432862D01*
X162983423Y-42556577D01*
X163107138Y-42707324D01*
X163162019Y-42810000D01*
X163199065Y-42879308D01*
X163255676Y-43065930D01*
X163274790Y-43260000D01*
X163255676Y-43454070D01*
X163255675Y-43454073D01*
X163255675Y-43454074D01*
X163199066Y-43640690D01*
X163107138Y-43812676D01*
X162983423Y-43963423D01*
X162832676Y-44087138D01*
X162660690Y-44179066D01*
X162474074Y-44235675D01*
X162474073Y-44235675D01*
X162474070Y-44235676D01*
X162328636Y-44250000D01*
X160251364Y-44250000D01*
X160105930Y-44235676D01*
X160105927Y-44235675D01*
X160105926Y-44235675D01*
X159919310Y-44179066D01*
X159747324Y-44087138D01*
X159596577Y-43963423D01*
X159472862Y-43812676D01*
X159380934Y-43640690D01*
X159324325Y-43454074D01*
X159324325Y-43454073D01*
X159324324Y-43454070D01*
X159305210Y-43260000D01*
X159324324Y-43065930D01*
X159380935Y-42879308D01*
X159417981Y-42810000D01*
X159472862Y-42707324D01*
X159596577Y-42556577D01*
X159747324Y-42432862D01*
X159919310Y-42340934D01*
X160105926Y-42284325D01*
X160105927Y-42284325D01*
X160105930Y-42284324D01*
X160251364Y-42270000D01*
X162328636Y-42270000D01*
X162474070Y-42284324D01*
X162474070Y-42284324D01*
G37*
G36*
X185682521Y-41044586D02*
X185846309Y-41112429D01*
X185993720Y-41210926D01*
X186119074Y-41336280D01*
X186217571Y-41483691D01*
X186285414Y-41647479D01*
X186320000Y-41821356D01*
X186320000Y-41998644D01*
X186285414Y-42172521D01*
X186217571Y-42336309D01*
X186119074Y-42483720D01*
X185993720Y-42609074D01*
X185846309Y-42707571D01*
X185682521Y-42775414D01*
X185508644Y-42810000D01*
X185331356Y-42810000D01*
X185157479Y-42775414D01*
X184993691Y-42707571D01*
X184846280Y-42609074D01*
X184720926Y-42483720D01*
X184622429Y-42336309D01*
X184554586Y-42172521D01*
X184520000Y-41998644D01*
X184520000Y-41821356D01*
X184554586Y-41647479D01*
X184622429Y-41483691D01*
X184720926Y-41336280D01*
X184846280Y-41210926D01*
X184993691Y-41112429D01*
X185157479Y-41044586D01*
X185331356Y-41010000D01*
X185508644Y-41010000D01*
X185682521Y-41044586D01*
X185682521Y-41044586D01*
G37*
G36*
X178062521Y-41044586D02*
X178226309Y-41112429D01*
X178373720Y-41210926D01*
X178499074Y-41336280D01*
X178597571Y-41483691D01*
X178665414Y-41647479D01*
X178700000Y-41821356D01*
X178700000Y-41998644D01*
X178665414Y-42172521D01*
X178597571Y-42336309D01*
X178499074Y-42483720D01*
X178373720Y-42609074D01*
X178226309Y-42707571D01*
X178062521Y-42775414D01*
X177888644Y-42810000D01*
X177711356Y-42810000D01*
X177537479Y-42775414D01*
X177373691Y-42707571D01*
X177226280Y-42609074D01*
X177100926Y-42483720D01*
X177002429Y-42336309D01*
X176934586Y-42172521D01*
X176900000Y-41998644D01*
X176900000Y-41821356D01*
X176934586Y-41647479D01*
X177002429Y-41483691D01*
X177100926Y-41336280D01*
X177226280Y-41210926D01*
X177373691Y-41112429D01*
X177537479Y-41044586D01*
X177711356Y-41010000D01*
X177888644Y-41010000D01*
X178062521Y-41044586D01*
X178062521Y-41044586D01*
G37*
G36*
X180602521Y-41044586D02*
X180766309Y-41112429D01*
X180913720Y-41210926D01*
X181039074Y-41336280D01*
X181137571Y-41483691D01*
X181205414Y-41647479D01*
X181240000Y-41821356D01*
X181240000Y-41998644D01*
X181205414Y-42172521D01*
X181137571Y-42336309D01*
X181039074Y-42483720D01*
X180913720Y-42609074D01*
X180766309Y-42707571D01*
X180602521Y-42775414D01*
X180428644Y-42810000D01*
X180251356Y-42810000D01*
X180077479Y-42775414D01*
X179913691Y-42707571D01*
X179766280Y-42609074D01*
X179640926Y-42483720D01*
X179542429Y-42336309D01*
X179474586Y-42172521D01*
X179440000Y-41998644D01*
X179440000Y-41821356D01*
X179474586Y-41647479D01*
X179542429Y-41483691D01*
X179640926Y-41336280D01*
X179766280Y-41210926D01*
X179913691Y-41112429D01*
X180077479Y-41044586D01*
X180251356Y-41010000D01*
X180428644Y-41010000D01*
X180602521Y-41044586D01*
X180602521Y-41044586D01*
G37*
G36*
X193302521Y-41044586D02*
X193466309Y-41112429D01*
X193613720Y-41210926D01*
X193739074Y-41336280D01*
X193837571Y-41483691D01*
X193905414Y-41647479D01*
X193940000Y-41821356D01*
X193940000Y-41998644D01*
X193905414Y-42172521D01*
X193837571Y-42336309D01*
X193739074Y-42483720D01*
X193613720Y-42609074D01*
X193466309Y-42707571D01*
X193302521Y-42775414D01*
X193128644Y-42810000D01*
X192951356Y-42810000D01*
X192777479Y-42775414D01*
X192613691Y-42707571D01*
X192466280Y-42609074D01*
X192340926Y-42483720D01*
X192242429Y-42336309D01*
X192174586Y-42172521D01*
X192140000Y-41998644D01*
X192140000Y-41821356D01*
X192174586Y-41647479D01*
X192242429Y-41483691D01*
X192340926Y-41336280D01*
X192466280Y-41210926D01*
X192613691Y-41112429D01*
X192777479Y-41044586D01*
X192951356Y-41010000D01*
X193128644Y-41010000D01*
X193302521Y-41044586D01*
X193302521Y-41044586D01*
G37*
G36*
X190762521Y-41044586D02*
X190926309Y-41112429D01*
X191073720Y-41210926D01*
X191199074Y-41336280D01*
X191297571Y-41483691D01*
X191365414Y-41647479D01*
X191400000Y-41821356D01*
X191400000Y-41998644D01*
X191365414Y-42172521D01*
X191297571Y-42336309D01*
X191199074Y-42483720D01*
X191073720Y-42609074D01*
X190926309Y-42707571D01*
X190762521Y-42775414D01*
X190588644Y-42810000D01*
X190411356Y-42810000D01*
X190237479Y-42775414D01*
X190073691Y-42707571D01*
X189926280Y-42609074D01*
X189800926Y-42483720D01*
X189702429Y-42336309D01*
X189634586Y-42172521D01*
X189600000Y-41998644D01*
X189600000Y-41821356D01*
X189634586Y-41647479D01*
X189702429Y-41483691D01*
X189800926Y-41336280D01*
X189926280Y-41210926D01*
X190073691Y-41112429D01*
X190237479Y-41044586D01*
X190411356Y-41010000D01*
X190588644Y-41010000D01*
X190762521Y-41044586D01*
X190762521Y-41044586D01*
G37*
G36*
X183142521Y-41044586D02*
X183306309Y-41112429D01*
X183453720Y-41210926D01*
X183579074Y-41336280D01*
X183677571Y-41483691D01*
X183745414Y-41647479D01*
X183780000Y-41821356D01*
X183780000Y-41998644D01*
X183745414Y-42172521D01*
X183677571Y-42336309D01*
X183579074Y-42483720D01*
X183453720Y-42609074D01*
X183306309Y-42707571D01*
X183142521Y-42775414D01*
X182968644Y-42810000D01*
X182791356Y-42810000D01*
X182617479Y-42775414D01*
X182453691Y-42707571D01*
X182306280Y-42609074D01*
X182180926Y-42483720D01*
X182082429Y-42336309D01*
X182014586Y-42172521D01*
X181980000Y-41998644D01*
X181980000Y-41821356D01*
X182014586Y-41647479D01*
X182082429Y-41483691D01*
X182180926Y-41336280D01*
X182306280Y-41210926D01*
X182453691Y-41112429D01*
X182617479Y-41044586D01*
X182791356Y-41010000D01*
X182968644Y-41010000D01*
X183142521Y-41044586D01*
X183142521Y-41044586D01*
G37*
G36*
X136152521Y-41044586D02*
X136316309Y-41112429D01*
X136463720Y-41210926D01*
X136589074Y-41336280D01*
X136687571Y-41483691D01*
X136755414Y-41647479D01*
X136790000Y-41821356D01*
X136790000Y-41998644D01*
X136755414Y-42172521D01*
X136687571Y-42336309D01*
X136589074Y-42483720D01*
X136463720Y-42609074D01*
X136316309Y-42707571D01*
X136152521Y-42775414D01*
X135978644Y-42810000D01*
X135801356Y-42810000D01*
X135627479Y-42775414D01*
X135463691Y-42707571D01*
X135316280Y-42609074D01*
X135190926Y-42483720D01*
X135092429Y-42336309D01*
X135024586Y-42172521D01*
X134990000Y-41998644D01*
X134990000Y-41821356D01*
X135024586Y-41647479D01*
X135092429Y-41483691D01*
X135190926Y-41336280D01*
X135316280Y-41210926D01*
X135463691Y-41112429D01*
X135627479Y-41044586D01*
X135801356Y-41010000D01*
X135978644Y-41010000D01*
X136152521Y-41044586D01*
X136152521Y-41044586D01*
G37*
G36*
X138692521Y-41044586D02*
X138856309Y-41112429D01*
X139003720Y-41210926D01*
X139129074Y-41336280D01*
X139227571Y-41483691D01*
X139295414Y-41647479D01*
X139330000Y-41821356D01*
X139330000Y-41998644D01*
X139295414Y-42172521D01*
X139227571Y-42336309D01*
X139129074Y-42483720D01*
X139003720Y-42609074D01*
X138856309Y-42707571D01*
X138692521Y-42775414D01*
X138518644Y-42810000D01*
X138341356Y-42810000D01*
X138167479Y-42775414D01*
X138003691Y-42707571D01*
X137856280Y-42609074D01*
X137730926Y-42483720D01*
X137632429Y-42336309D01*
X137564586Y-42172521D01*
X137530000Y-41998644D01*
X137530000Y-41821356D01*
X137564586Y-41647479D01*
X137632429Y-41483691D01*
X137730926Y-41336280D01*
X137856280Y-41210926D01*
X138003691Y-41112429D01*
X138167479Y-41044586D01*
X138341356Y-41010000D01*
X138518644Y-41010000D01*
X138692521Y-41044586D01*
X138692521Y-41044586D01*
G37*
G36*
X141232521Y-41044586D02*
X141396309Y-41112429D01*
X141543720Y-41210926D01*
X141669074Y-41336280D01*
X141767571Y-41483691D01*
X141835414Y-41647479D01*
X141870000Y-41821356D01*
X141870000Y-41998644D01*
X141835414Y-42172521D01*
X141767571Y-42336309D01*
X141669074Y-42483720D01*
X141543720Y-42609074D01*
X141396309Y-42707571D01*
X141232521Y-42775414D01*
X141058644Y-42810000D01*
X140881356Y-42810000D01*
X140707479Y-42775414D01*
X140543691Y-42707571D01*
X140396280Y-42609074D01*
X140270926Y-42483720D01*
X140172429Y-42336309D01*
X140104586Y-42172521D01*
X140070000Y-41998644D01*
X140070000Y-41821356D01*
X140104586Y-41647479D01*
X140172429Y-41483691D01*
X140270926Y-41336280D01*
X140396280Y-41210926D01*
X140543691Y-41112429D01*
X140707479Y-41044586D01*
X140881356Y-41010000D01*
X141058644Y-41010000D01*
X141232521Y-41044586D01*
X141232521Y-41044586D01*
G37*
G36*
X133612521Y-41044586D02*
X133776309Y-41112429D01*
X133923720Y-41210926D01*
X134049074Y-41336280D01*
X134147571Y-41483691D01*
X134215414Y-41647479D01*
X134250000Y-41821356D01*
X134250000Y-41998644D01*
X134215414Y-42172521D01*
X134147571Y-42336309D01*
X134049074Y-42483720D01*
X133923720Y-42609074D01*
X133776309Y-42707571D01*
X133612521Y-42775414D01*
X133438644Y-42810000D01*
X133261356Y-42810000D01*
X133087479Y-42775414D01*
X132923691Y-42707571D01*
X132776280Y-42609074D01*
X132650926Y-42483720D01*
X132552429Y-42336309D01*
X132484586Y-42172521D01*
X132450000Y-41998644D01*
X132450000Y-41821356D01*
X132484586Y-41647479D01*
X132552429Y-41483691D01*
X132650926Y-41336280D01*
X132776280Y-41210926D01*
X132923691Y-41112429D01*
X133087479Y-41044586D01*
X133261356Y-41010000D01*
X133438644Y-41010000D01*
X133612521Y-41044586D01*
X133612521Y-41044586D01*
G37*
G36*
X131072521Y-41044586D02*
X131236309Y-41112429D01*
X131383720Y-41210926D01*
X131509074Y-41336280D01*
X131607571Y-41483691D01*
X131675414Y-41647479D01*
X131710000Y-41821356D01*
X131710000Y-41998644D01*
X131675414Y-42172521D01*
X131607571Y-42336309D01*
X131509074Y-42483720D01*
X131383720Y-42609074D01*
X131236309Y-42707571D01*
X131072521Y-42775414D01*
X130898644Y-42810000D01*
X130721356Y-42810000D01*
X130547479Y-42775414D01*
X130383691Y-42707571D01*
X130236280Y-42609074D01*
X130110926Y-42483720D01*
X130012429Y-42336309D01*
X129944586Y-42172521D01*
X129910000Y-41998644D01*
X129910000Y-41821356D01*
X129944586Y-41647479D01*
X130012429Y-41483691D01*
X130110926Y-41336280D01*
X130236280Y-41210926D01*
X130383691Y-41112429D01*
X130547479Y-41044586D01*
X130721356Y-41010000D01*
X130898644Y-41010000D01*
X131072521Y-41044586D01*
X131072521Y-41044586D01*
G37*
G36*
X143772521Y-41044586D02*
X143936309Y-41112429D01*
X144083720Y-41210926D01*
X144209074Y-41336280D01*
X144307571Y-41483691D01*
X144375414Y-41647479D01*
X144410000Y-41821356D01*
X144410000Y-41998644D01*
X144375414Y-42172521D01*
X144307571Y-42336309D01*
X144209074Y-42483720D01*
X144083720Y-42609074D01*
X143936309Y-42707571D01*
X143772521Y-42775414D01*
X143598644Y-42810000D01*
X143421356Y-42810000D01*
X143247479Y-42775414D01*
X143083691Y-42707571D01*
X142936280Y-42609074D01*
X142810926Y-42483720D01*
X142712429Y-42336309D01*
X142644586Y-42172521D01*
X142610000Y-41998644D01*
X142610000Y-41821356D01*
X142644586Y-41647479D01*
X142712429Y-41483691D01*
X142810926Y-41336280D01*
X142936280Y-41210926D01*
X143083691Y-41112429D01*
X143247479Y-41044586D01*
X143421356Y-41010000D01*
X143598644Y-41010000D01*
X143772521Y-41044586D01*
X143772521Y-41044586D01*
G37*
G36*
X128532521Y-41044586D02*
X128696309Y-41112429D01*
X128843720Y-41210926D01*
X128969074Y-41336280D01*
X129067571Y-41483691D01*
X129135414Y-41647479D01*
X129170000Y-41821356D01*
X129170000Y-41998644D01*
X129135414Y-42172521D01*
X129067571Y-42336309D01*
X128969074Y-42483720D01*
X128843720Y-42609074D01*
X128696309Y-42707571D01*
X128532521Y-42775414D01*
X128358644Y-42810000D01*
X128181356Y-42810000D01*
X128007479Y-42775414D01*
X127843691Y-42707571D01*
X127696280Y-42609074D01*
X127570926Y-42483720D01*
X127472429Y-42336309D01*
X127404586Y-42172521D01*
X127370000Y-41998644D01*
X127370000Y-41821356D01*
X127404586Y-41647479D01*
X127472429Y-41483691D01*
X127570926Y-41336280D01*
X127696280Y-41210926D01*
X127843691Y-41112429D01*
X128007479Y-41044586D01*
X128181356Y-41010000D01*
X128358644Y-41010000D01*
X128532521Y-41044586D01*
X128532521Y-41044586D01*
G37*
G36*
X146312521Y-41044586D02*
X146476309Y-41112429D01*
X146623720Y-41210926D01*
X146749074Y-41336280D01*
X146847571Y-41483691D01*
X146915414Y-41647479D01*
X146950000Y-41821356D01*
X146950000Y-41998644D01*
X146915414Y-42172521D01*
X146847571Y-42336309D01*
X146749074Y-42483720D01*
X146623720Y-42609074D01*
X146476309Y-42707571D01*
X146312521Y-42775414D01*
X146138644Y-42810000D01*
X145961356Y-42810000D01*
X145787479Y-42775414D01*
X145623691Y-42707571D01*
X145476280Y-42609074D01*
X145350926Y-42483720D01*
X145252429Y-42336309D01*
X145184586Y-42172521D01*
X145150000Y-41998644D01*
X145150000Y-41821356D01*
X145184586Y-41647479D01*
X145252429Y-41483691D01*
X145350926Y-41336280D01*
X145476280Y-41210926D01*
X145623691Y-41112429D01*
X145787479Y-41044586D01*
X145961356Y-41010000D01*
X146138644Y-41010000D01*
X146312521Y-41044586D01*
X146312521Y-41044586D01*
G37*
G36*
X195842521Y-41044586D02*
X196006309Y-41112429D01*
X196153720Y-41210926D01*
X196279074Y-41336280D01*
X196377571Y-41483691D01*
X196445414Y-41647479D01*
X196480000Y-41821356D01*
X196480000Y-41998644D01*
X196445414Y-42172521D01*
X196377571Y-42336309D01*
X196279074Y-42483720D01*
X196153720Y-42609074D01*
X196006309Y-42707571D01*
X195842521Y-42775414D01*
X195668644Y-42810000D01*
X195491356Y-42810000D01*
X195317479Y-42775414D01*
X195153691Y-42707571D01*
X195006280Y-42609074D01*
X194880926Y-42483720D01*
X194782429Y-42336309D01*
X194714586Y-42172521D01*
X194680000Y-41998644D01*
X194680000Y-41821356D01*
X194714586Y-41647479D01*
X194782429Y-41483691D01*
X194880926Y-41336280D01*
X195006280Y-41210926D01*
X195153691Y-41112429D01*
X195317479Y-41044586D01*
X195491356Y-41010000D01*
X195668644Y-41010000D01*
X195842521Y-41044586D01*
X195842521Y-41044586D01*
G37*
G36*
X188222521Y-41044586D02*
X188386309Y-41112429D01*
X188533720Y-41210926D01*
X188659074Y-41336280D01*
X188757571Y-41483691D01*
X188825414Y-41647479D01*
X188860000Y-41821356D01*
X188860000Y-41998644D01*
X188825414Y-42172521D01*
X188757571Y-42336309D01*
X188659074Y-42483720D01*
X188533720Y-42609074D01*
X188386309Y-42707571D01*
X188222521Y-42775414D01*
X188048644Y-42810000D01*
X187871356Y-42810000D01*
X187697479Y-42775414D01*
X187533691Y-42707571D01*
X187386280Y-42609074D01*
X187260926Y-42483720D01*
X187162429Y-42336309D01*
X187094586Y-42172521D01*
X187060000Y-41998644D01*
X187060000Y-41821356D01*
X187094586Y-41647479D01*
X187162429Y-41483691D01*
X187260926Y-41336280D01*
X187386280Y-41210926D01*
X187533691Y-41112429D01*
X187697479Y-41044586D01*
X187871356Y-41010000D01*
X188048644Y-41010000D01*
X188222521Y-41044586D01*
X188222521Y-41044586D01*
G37*
M02*
