G04 #@! TF.GenerationSoftware,KiCad,Pcbnew,5.0.1*
G04 #@! TF.CreationDate,2019-04-16T11:18:19+02:00*
G04 #@! TF.ProjectId,wasserschaden_smd,7761737365727363686164656E5F736D,rev?*
G04 #@! TF.SameCoordinates,Original*
G04 #@! TF.FileFunction,Legend,Top*
G04 #@! TF.FilePolarity,Positive*
%FSLAX46Y46*%
G04 Gerber Fmt 4.6, Leading zero omitted, Abs format (unit mm)*
G04 Created by KiCad (PCBNEW 5.0.1) date Di 16 Apr 2019 11:18:19 CEST*
%MOMM*%
%LPD*%
G01*
G04 APERTURE LIST*
%ADD10C,0.300000*%
%ADD11C,0.050000*%
%ADD12C,0.200000*%
%ADD13C,0.120000*%
%ADD14C,0.150000*%
G04 APERTURE END LIST*
D10*
X171521500Y-106366571D02*
X172521500Y-106366571D01*
X171878642Y-107866571D01*
X121991500Y-106366571D02*
X122991500Y-106366571D01*
X122348642Y-107866571D01*
X171521500Y-73346571D02*
X172521500Y-73346571D01*
X171878642Y-74846571D01*
X121991500Y-73346571D02*
X122991500Y-73346571D01*
X122348642Y-74846571D01*
X171521500Y-40326571D02*
X172521500Y-40326571D01*
X171878642Y-41826571D01*
D11*
X171131714Y-107881642D02*
X171331714Y-107810214D01*
X171131714Y-107738785D01*
X171317428Y-107510214D02*
X171331714Y-107538785D01*
X171331714Y-107595928D01*
X171317428Y-107624500D01*
X171288857Y-107638785D01*
X171174571Y-107638785D01*
X171146000Y-107624500D01*
X171131714Y-107595928D01*
X171131714Y-107538785D01*
X171146000Y-107510214D01*
X171174571Y-107495928D01*
X171203142Y-107495928D01*
X171231714Y-107638785D01*
X171331714Y-107367357D02*
X171131714Y-107367357D01*
X171188857Y-107367357D02*
X171160285Y-107353071D01*
X171146000Y-107338785D01*
X171131714Y-107310214D01*
X171131714Y-107281642D01*
X171317428Y-107195928D02*
X171331714Y-107167357D01*
X171331714Y-107110214D01*
X171317428Y-107081642D01*
X171288857Y-107067357D01*
X171274571Y-107067357D01*
X171246000Y-107081642D01*
X171231714Y-107110214D01*
X171231714Y-107153071D01*
X171217428Y-107181642D01*
X171188857Y-107195928D01*
X171174571Y-107195928D01*
X171146000Y-107181642D01*
X171131714Y-107153071D01*
X171131714Y-107110214D01*
X171146000Y-107081642D01*
X171331714Y-106938785D02*
X171131714Y-106938785D01*
X171031714Y-106938785D02*
X171046000Y-106953071D01*
X171060285Y-106938785D01*
X171046000Y-106924500D01*
X171031714Y-106938785D01*
X171060285Y-106938785D01*
X171331714Y-106753071D02*
X171317428Y-106781642D01*
X171303142Y-106795928D01*
X171274571Y-106810214D01*
X171188857Y-106810214D01*
X171160285Y-106795928D01*
X171146000Y-106781642D01*
X171131714Y-106753071D01*
X171131714Y-106710214D01*
X171146000Y-106681642D01*
X171160285Y-106667357D01*
X171188857Y-106653071D01*
X171274571Y-106653071D01*
X171303142Y-106667357D01*
X171317428Y-106681642D01*
X171331714Y-106710214D01*
X171331714Y-106753071D01*
X171131714Y-106524500D02*
X171331714Y-106524500D01*
X171160285Y-106524500D02*
X171146000Y-106510214D01*
X171131714Y-106481642D01*
X171131714Y-106438785D01*
X171146000Y-106410214D01*
X171174571Y-106395928D01*
X171331714Y-106395928D01*
X121601714Y-107881642D02*
X121801714Y-107810214D01*
X121601714Y-107738785D01*
X121787428Y-107510214D02*
X121801714Y-107538785D01*
X121801714Y-107595928D01*
X121787428Y-107624500D01*
X121758857Y-107638785D01*
X121644571Y-107638785D01*
X121616000Y-107624500D01*
X121601714Y-107595928D01*
X121601714Y-107538785D01*
X121616000Y-107510214D01*
X121644571Y-107495928D01*
X121673142Y-107495928D01*
X121701714Y-107638785D01*
X121801714Y-107367357D02*
X121601714Y-107367357D01*
X121658857Y-107367357D02*
X121630285Y-107353071D01*
X121616000Y-107338785D01*
X121601714Y-107310214D01*
X121601714Y-107281642D01*
X121787428Y-107195928D02*
X121801714Y-107167357D01*
X121801714Y-107110214D01*
X121787428Y-107081642D01*
X121758857Y-107067357D01*
X121744571Y-107067357D01*
X121716000Y-107081642D01*
X121701714Y-107110214D01*
X121701714Y-107153071D01*
X121687428Y-107181642D01*
X121658857Y-107195928D01*
X121644571Y-107195928D01*
X121616000Y-107181642D01*
X121601714Y-107153071D01*
X121601714Y-107110214D01*
X121616000Y-107081642D01*
X121801714Y-106938785D02*
X121601714Y-106938785D01*
X121501714Y-106938785D02*
X121516000Y-106953071D01*
X121530285Y-106938785D01*
X121516000Y-106924500D01*
X121501714Y-106938785D01*
X121530285Y-106938785D01*
X121801714Y-106753071D02*
X121787428Y-106781642D01*
X121773142Y-106795928D01*
X121744571Y-106810214D01*
X121658857Y-106810214D01*
X121630285Y-106795928D01*
X121616000Y-106781642D01*
X121601714Y-106753071D01*
X121601714Y-106710214D01*
X121616000Y-106681642D01*
X121630285Y-106667357D01*
X121658857Y-106653071D01*
X121744571Y-106653071D01*
X121773142Y-106667357D01*
X121787428Y-106681642D01*
X121801714Y-106710214D01*
X121801714Y-106753071D01*
X121601714Y-106524500D02*
X121801714Y-106524500D01*
X121630285Y-106524500D02*
X121616000Y-106510214D01*
X121601714Y-106481642D01*
X121601714Y-106438785D01*
X121616000Y-106410214D01*
X121644571Y-106395928D01*
X121801714Y-106395928D01*
X171131714Y-74861642D02*
X171331714Y-74790214D01*
X171131714Y-74718785D01*
X171317428Y-74490214D02*
X171331714Y-74518785D01*
X171331714Y-74575928D01*
X171317428Y-74604500D01*
X171288857Y-74618785D01*
X171174571Y-74618785D01*
X171146000Y-74604500D01*
X171131714Y-74575928D01*
X171131714Y-74518785D01*
X171146000Y-74490214D01*
X171174571Y-74475928D01*
X171203142Y-74475928D01*
X171231714Y-74618785D01*
X171331714Y-74347357D02*
X171131714Y-74347357D01*
X171188857Y-74347357D02*
X171160285Y-74333071D01*
X171146000Y-74318785D01*
X171131714Y-74290214D01*
X171131714Y-74261642D01*
X171317428Y-74175928D02*
X171331714Y-74147357D01*
X171331714Y-74090214D01*
X171317428Y-74061642D01*
X171288857Y-74047357D01*
X171274571Y-74047357D01*
X171246000Y-74061642D01*
X171231714Y-74090214D01*
X171231714Y-74133071D01*
X171217428Y-74161642D01*
X171188857Y-74175928D01*
X171174571Y-74175928D01*
X171146000Y-74161642D01*
X171131714Y-74133071D01*
X171131714Y-74090214D01*
X171146000Y-74061642D01*
X171331714Y-73918785D02*
X171131714Y-73918785D01*
X171031714Y-73918785D02*
X171046000Y-73933071D01*
X171060285Y-73918785D01*
X171046000Y-73904500D01*
X171031714Y-73918785D01*
X171060285Y-73918785D01*
X171331714Y-73733071D02*
X171317428Y-73761642D01*
X171303142Y-73775928D01*
X171274571Y-73790214D01*
X171188857Y-73790214D01*
X171160285Y-73775928D01*
X171146000Y-73761642D01*
X171131714Y-73733071D01*
X171131714Y-73690214D01*
X171146000Y-73661642D01*
X171160285Y-73647357D01*
X171188857Y-73633071D01*
X171274571Y-73633071D01*
X171303142Y-73647357D01*
X171317428Y-73661642D01*
X171331714Y-73690214D01*
X171331714Y-73733071D01*
X171131714Y-73504500D02*
X171331714Y-73504500D01*
X171160285Y-73504500D02*
X171146000Y-73490214D01*
X171131714Y-73461642D01*
X171131714Y-73418785D01*
X171146000Y-73390214D01*
X171174571Y-73375928D01*
X171331714Y-73375928D01*
X121601714Y-74861642D02*
X121801714Y-74790214D01*
X121601714Y-74718785D01*
X121787428Y-74490214D02*
X121801714Y-74518785D01*
X121801714Y-74575928D01*
X121787428Y-74604500D01*
X121758857Y-74618785D01*
X121644571Y-74618785D01*
X121616000Y-74604500D01*
X121601714Y-74575928D01*
X121601714Y-74518785D01*
X121616000Y-74490214D01*
X121644571Y-74475928D01*
X121673142Y-74475928D01*
X121701714Y-74618785D01*
X121801714Y-74347357D02*
X121601714Y-74347357D01*
X121658857Y-74347357D02*
X121630285Y-74333071D01*
X121616000Y-74318785D01*
X121601714Y-74290214D01*
X121601714Y-74261642D01*
X121787428Y-74175928D02*
X121801714Y-74147357D01*
X121801714Y-74090214D01*
X121787428Y-74061642D01*
X121758857Y-74047357D01*
X121744571Y-74047357D01*
X121716000Y-74061642D01*
X121701714Y-74090214D01*
X121701714Y-74133071D01*
X121687428Y-74161642D01*
X121658857Y-74175928D01*
X121644571Y-74175928D01*
X121616000Y-74161642D01*
X121601714Y-74133071D01*
X121601714Y-74090214D01*
X121616000Y-74061642D01*
X121801714Y-73918785D02*
X121601714Y-73918785D01*
X121501714Y-73918785D02*
X121516000Y-73933071D01*
X121530285Y-73918785D01*
X121516000Y-73904500D01*
X121501714Y-73918785D01*
X121530285Y-73918785D01*
X121801714Y-73733071D02*
X121787428Y-73761642D01*
X121773142Y-73775928D01*
X121744571Y-73790214D01*
X121658857Y-73790214D01*
X121630285Y-73775928D01*
X121616000Y-73761642D01*
X121601714Y-73733071D01*
X121601714Y-73690214D01*
X121616000Y-73661642D01*
X121630285Y-73647357D01*
X121658857Y-73633071D01*
X121744571Y-73633071D01*
X121773142Y-73647357D01*
X121787428Y-73661642D01*
X121801714Y-73690214D01*
X121801714Y-73733071D01*
X121601714Y-73504500D02*
X121801714Y-73504500D01*
X121630285Y-73504500D02*
X121616000Y-73490214D01*
X121601714Y-73461642D01*
X121601714Y-73418785D01*
X121616000Y-73390214D01*
X121644571Y-73375928D01*
X121801714Y-73375928D01*
X171131714Y-41841642D02*
X171331714Y-41770214D01*
X171131714Y-41698785D01*
X171317428Y-41470214D02*
X171331714Y-41498785D01*
X171331714Y-41555928D01*
X171317428Y-41584500D01*
X171288857Y-41598785D01*
X171174571Y-41598785D01*
X171146000Y-41584500D01*
X171131714Y-41555928D01*
X171131714Y-41498785D01*
X171146000Y-41470214D01*
X171174571Y-41455928D01*
X171203142Y-41455928D01*
X171231714Y-41598785D01*
X171331714Y-41327357D02*
X171131714Y-41327357D01*
X171188857Y-41327357D02*
X171160285Y-41313071D01*
X171146000Y-41298785D01*
X171131714Y-41270214D01*
X171131714Y-41241642D01*
X171317428Y-41155928D02*
X171331714Y-41127357D01*
X171331714Y-41070214D01*
X171317428Y-41041642D01*
X171288857Y-41027357D01*
X171274571Y-41027357D01*
X171246000Y-41041642D01*
X171231714Y-41070214D01*
X171231714Y-41113071D01*
X171217428Y-41141642D01*
X171188857Y-41155928D01*
X171174571Y-41155928D01*
X171146000Y-41141642D01*
X171131714Y-41113071D01*
X171131714Y-41070214D01*
X171146000Y-41041642D01*
X171331714Y-40898785D02*
X171131714Y-40898785D01*
X171031714Y-40898785D02*
X171046000Y-40913071D01*
X171060285Y-40898785D01*
X171046000Y-40884500D01*
X171031714Y-40898785D01*
X171060285Y-40898785D01*
X171331714Y-40713071D02*
X171317428Y-40741642D01*
X171303142Y-40755928D01*
X171274571Y-40770214D01*
X171188857Y-40770214D01*
X171160285Y-40755928D01*
X171146000Y-40741642D01*
X171131714Y-40713071D01*
X171131714Y-40670214D01*
X171146000Y-40641642D01*
X171160285Y-40627357D01*
X171188857Y-40613071D01*
X171274571Y-40613071D01*
X171303142Y-40627357D01*
X171317428Y-40641642D01*
X171331714Y-40670214D01*
X171331714Y-40713071D01*
X171131714Y-40484500D02*
X171331714Y-40484500D01*
X171160285Y-40484500D02*
X171146000Y-40470214D01*
X171131714Y-40441642D01*
X171131714Y-40398785D01*
X171146000Y-40370214D01*
X171174571Y-40355928D01*
X171331714Y-40355928D01*
D10*
X214737142Y-125134285D02*
X214737142Y-123991428D01*
X214737142Y-119848571D02*
X214737142Y-118705714D01*
X215308571Y-119277142D02*
X214165714Y-119277142D01*
X165207142Y-125134285D02*
X165207142Y-123991428D01*
X165207142Y-119848571D02*
X165207142Y-118705714D01*
X165778571Y-119277142D02*
X164635714Y-119277142D01*
X214737142Y-92114285D02*
X214737142Y-90971428D01*
X214737142Y-86828571D02*
X214737142Y-85685714D01*
X215308571Y-86257142D02*
X214165714Y-86257142D01*
X165207142Y-92114285D02*
X165207142Y-90971428D01*
X165207142Y-86828571D02*
X165207142Y-85685714D01*
X165778571Y-86257142D02*
X164635714Y-86257142D01*
X214737142Y-59094285D02*
X214737142Y-57951428D01*
X214737142Y-53808571D02*
X214737142Y-52665714D01*
X215308571Y-53237142D02*
X214165714Y-53237142D01*
X214737142Y-114974285D02*
X214737142Y-113831428D01*
X214737142Y-109688571D02*
X214737142Y-108545714D01*
X215308571Y-109117142D02*
X214165714Y-109117142D01*
X165207142Y-114974285D02*
X165207142Y-113831428D01*
X165207142Y-109688571D02*
X165207142Y-108545714D01*
X165778571Y-109117142D02*
X164635714Y-109117142D01*
X214737142Y-81954285D02*
X214737142Y-80811428D01*
X214737142Y-76668571D02*
X214737142Y-75525714D01*
X215308571Y-76097142D02*
X214165714Y-76097142D01*
X165207142Y-81954285D02*
X165207142Y-80811428D01*
X165207142Y-76668571D02*
X165207142Y-75525714D01*
X165778571Y-76097142D02*
X164635714Y-76097142D01*
X214737142Y-48934285D02*
X214737142Y-47791428D01*
X214737142Y-43648571D02*
X214737142Y-42505714D01*
X215308571Y-43077142D02*
X214165714Y-43077142D01*
D12*
X190476428Y-136945714D02*
X190476428Y-137945714D01*
X190476428Y-136993333D02*
X190571666Y-136945714D01*
X190762142Y-136945714D01*
X190857380Y-136993333D01*
X190905000Y-137040952D01*
X190952619Y-137136190D01*
X190952619Y-137421904D01*
X190905000Y-137517142D01*
X190857380Y-137564761D01*
X190762142Y-137612380D01*
X190571666Y-137612380D01*
X190476428Y-137564761D01*
X191524047Y-137612380D02*
X191428809Y-137564761D01*
X191381190Y-137517142D01*
X191333571Y-137421904D01*
X191333571Y-137136190D01*
X191381190Y-137040952D01*
X191428809Y-136993333D01*
X191524047Y-136945714D01*
X191666904Y-136945714D01*
X191762142Y-136993333D01*
X191809761Y-137040952D01*
X191857380Y-137136190D01*
X191857380Y-137421904D01*
X191809761Y-137517142D01*
X191762142Y-137564761D01*
X191666904Y-137612380D01*
X191524047Y-137612380D01*
X192190714Y-136945714D02*
X192381190Y-137612380D01*
X192571666Y-137136190D01*
X192762142Y-137612380D01*
X192952619Y-136945714D01*
X193714523Y-137564761D02*
X193619285Y-137612380D01*
X193428809Y-137612380D01*
X193333571Y-137564761D01*
X193285952Y-137469523D01*
X193285952Y-137088571D01*
X193333571Y-136993333D01*
X193428809Y-136945714D01*
X193619285Y-136945714D01*
X193714523Y-136993333D01*
X193762142Y-137088571D01*
X193762142Y-137183809D01*
X193285952Y-137279047D01*
X194190714Y-137612380D02*
X194190714Y-136945714D01*
X194190714Y-137136190D02*
X194238333Y-137040952D01*
X194285952Y-136993333D01*
X194381190Y-136945714D01*
X194476428Y-136945714D01*
X140946428Y-136945714D02*
X140946428Y-137945714D01*
X140946428Y-136993333D02*
X141041666Y-136945714D01*
X141232142Y-136945714D01*
X141327380Y-136993333D01*
X141375000Y-137040952D01*
X141422619Y-137136190D01*
X141422619Y-137421904D01*
X141375000Y-137517142D01*
X141327380Y-137564761D01*
X141232142Y-137612380D01*
X141041666Y-137612380D01*
X140946428Y-137564761D01*
X141994047Y-137612380D02*
X141898809Y-137564761D01*
X141851190Y-137517142D01*
X141803571Y-137421904D01*
X141803571Y-137136190D01*
X141851190Y-137040952D01*
X141898809Y-136993333D01*
X141994047Y-136945714D01*
X142136904Y-136945714D01*
X142232142Y-136993333D01*
X142279761Y-137040952D01*
X142327380Y-137136190D01*
X142327380Y-137421904D01*
X142279761Y-137517142D01*
X142232142Y-137564761D01*
X142136904Y-137612380D01*
X141994047Y-137612380D01*
X142660714Y-136945714D02*
X142851190Y-137612380D01*
X143041666Y-137136190D01*
X143232142Y-137612380D01*
X143422619Y-136945714D01*
X144184523Y-137564761D02*
X144089285Y-137612380D01*
X143898809Y-137612380D01*
X143803571Y-137564761D01*
X143755952Y-137469523D01*
X143755952Y-137088571D01*
X143803571Y-136993333D01*
X143898809Y-136945714D01*
X144089285Y-136945714D01*
X144184523Y-136993333D01*
X144232142Y-137088571D01*
X144232142Y-137183809D01*
X143755952Y-137279047D01*
X144660714Y-137612380D02*
X144660714Y-136945714D01*
X144660714Y-137136190D02*
X144708333Y-137040952D01*
X144755952Y-136993333D01*
X144851190Y-136945714D01*
X144946428Y-136945714D01*
X190476428Y-103925714D02*
X190476428Y-104925714D01*
X190476428Y-103973333D02*
X190571666Y-103925714D01*
X190762142Y-103925714D01*
X190857380Y-103973333D01*
X190905000Y-104020952D01*
X190952619Y-104116190D01*
X190952619Y-104401904D01*
X190905000Y-104497142D01*
X190857380Y-104544761D01*
X190762142Y-104592380D01*
X190571666Y-104592380D01*
X190476428Y-104544761D01*
X191524047Y-104592380D02*
X191428809Y-104544761D01*
X191381190Y-104497142D01*
X191333571Y-104401904D01*
X191333571Y-104116190D01*
X191381190Y-104020952D01*
X191428809Y-103973333D01*
X191524047Y-103925714D01*
X191666904Y-103925714D01*
X191762142Y-103973333D01*
X191809761Y-104020952D01*
X191857380Y-104116190D01*
X191857380Y-104401904D01*
X191809761Y-104497142D01*
X191762142Y-104544761D01*
X191666904Y-104592380D01*
X191524047Y-104592380D01*
X192190714Y-103925714D02*
X192381190Y-104592380D01*
X192571666Y-104116190D01*
X192762142Y-104592380D01*
X192952619Y-103925714D01*
X193714523Y-104544761D02*
X193619285Y-104592380D01*
X193428809Y-104592380D01*
X193333571Y-104544761D01*
X193285952Y-104449523D01*
X193285952Y-104068571D01*
X193333571Y-103973333D01*
X193428809Y-103925714D01*
X193619285Y-103925714D01*
X193714523Y-103973333D01*
X193762142Y-104068571D01*
X193762142Y-104163809D01*
X193285952Y-104259047D01*
X194190714Y-104592380D02*
X194190714Y-103925714D01*
X194190714Y-104116190D02*
X194238333Y-104020952D01*
X194285952Y-103973333D01*
X194381190Y-103925714D01*
X194476428Y-103925714D01*
X140946428Y-103925714D02*
X140946428Y-104925714D01*
X140946428Y-103973333D02*
X141041666Y-103925714D01*
X141232142Y-103925714D01*
X141327380Y-103973333D01*
X141375000Y-104020952D01*
X141422619Y-104116190D01*
X141422619Y-104401904D01*
X141375000Y-104497142D01*
X141327380Y-104544761D01*
X141232142Y-104592380D01*
X141041666Y-104592380D01*
X140946428Y-104544761D01*
X141994047Y-104592380D02*
X141898809Y-104544761D01*
X141851190Y-104497142D01*
X141803571Y-104401904D01*
X141803571Y-104116190D01*
X141851190Y-104020952D01*
X141898809Y-103973333D01*
X141994047Y-103925714D01*
X142136904Y-103925714D01*
X142232142Y-103973333D01*
X142279761Y-104020952D01*
X142327380Y-104116190D01*
X142327380Y-104401904D01*
X142279761Y-104497142D01*
X142232142Y-104544761D01*
X142136904Y-104592380D01*
X141994047Y-104592380D01*
X142660714Y-103925714D02*
X142851190Y-104592380D01*
X143041666Y-104116190D01*
X143232142Y-104592380D01*
X143422619Y-103925714D01*
X144184523Y-104544761D02*
X144089285Y-104592380D01*
X143898809Y-104592380D01*
X143803571Y-104544761D01*
X143755952Y-104449523D01*
X143755952Y-104068571D01*
X143803571Y-103973333D01*
X143898809Y-103925714D01*
X144089285Y-103925714D01*
X144184523Y-103973333D01*
X144232142Y-104068571D01*
X144232142Y-104163809D01*
X143755952Y-104259047D01*
X144660714Y-104592380D02*
X144660714Y-103925714D01*
X144660714Y-104116190D02*
X144708333Y-104020952D01*
X144755952Y-103973333D01*
X144851190Y-103925714D01*
X144946428Y-103925714D01*
X190476428Y-70905714D02*
X190476428Y-71905714D01*
X190476428Y-70953333D02*
X190571666Y-70905714D01*
X190762142Y-70905714D01*
X190857380Y-70953333D01*
X190905000Y-71000952D01*
X190952619Y-71096190D01*
X190952619Y-71381904D01*
X190905000Y-71477142D01*
X190857380Y-71524761D01*
X190762142Y-71572380D01*
X190571666Y-71572380D01*
X190476428Y-71524761D01*
X191524047Y-71572380D02*
X191428809Y-71524761D01*
X191381190Y-71477142D01*
X191333571Y-71381904D01*
X191333571Y-71096190D01*
X191381190Y-71000952D01*
X191428809Y-70953333D01*
X191524047Y-70905714D01*
X191666904Y-70905714D01*
X191762142Y-70953333D01*
X191809761Y-71000952D01*
X191857380Y-71096190D01*
X191857380Y-71381904D01*
X191809761Y-71477142D01*
X191762142Y-71524761D01*
X191666904Y-71572380D01*
X191524047Y-71572380D01*
X192190714Y-70905714D02*
X192381190Y-71572380D01*
X192571666Y-71096190D01*
X192762142Y-71572380D01*
X192952619Y-70905714D01*
X193714523Y-71524761D02*
X193619285Y-71572380D01*
X193428809Y-71572380D01*
X193333571Y-71524761D01*
X193285952Y-71429523D01*
X193285952Y-71048571D01*
X193333571Y-70953333D01*
X193428809Y-70905714D01*
X193619285Y-70905714D01*
X193714523Y-70953333D01*
X193762142Y-71048571D01*
X193762142Y-71143809D01*
X193285952Y-71239047D01*
X194190714Y-71572380D02*
X194190714Y-70905714D01*
X194190714Y-71096190D02*
X194238333Y-71000952D01*
X194285952Y-70953333D01*
X194381190Y-70905714D01*
X194476428Y-70905714D01*
X186134523Y-137612380D02*
X186134523Y-136945714D01*
X186134523Y-136612380D02*
X186086904Y-136660000D01*
X186134523Y-136707619D01*
X186182142Y-136660000D01*
X186134523Y-136612380D01*
X186134523Y-136707619D01*
X186610714Y-136945714D02*
X186610714Y-137612380D01*
X186610714Y-137040952D02*
X186658333Y-136993333D01*
X186753571Y-136945714D01*
X186896428Y-136945714D01*
X186991666Y-136993333D01*
X187039285Y-137088571D01*
X187039285Y-137612380D01*
X187372619Y-136945714D02*
X187753571Y-136945714D01*
X187515476Y-137612380D02*
X187515476Y-136755238D01*
X187563095Y-136660000D01*
X187658333Y-136612380D01*
X187753571Y-136612380D01*
X188229761Y-137612380D02*
X188134523Y-137564761D01*
X188086904Y-137517142D01*
X188039285Y-137421904D01*
X188039285Y-137136190D01*
X188086904Y-137040952D01*
X188134523Y-136993333D01*
X188229761Y-136945714D01*
X188372619Y-136945714D01*
X188467857Y-136993333D01*
X188515476Y-137040952D01*
X188563095Y-137136190D01*
X188563095Y-137421904D01*
X188515476Y-137517142D01*
X188467857Y-137564761D01*
X188372619Y-137612380D01*
X188229761Y-137612380D01*
X136604523Y-137612380D02*
X136604523Y-136945714D01*
X136604523Y-136612380D02*
X136556904Y-136660000D01*
X136604523Y-136707619D01*
X136652142Y-136660000D01*
X136604523Y-136612380D01*
X136604523Y-136707619D01*
X137080714Y-136945714D02*
X137080714Y-137612380D01*
X137080714Y-137040952D02*
X137128333Y-136993333D01*
X137223571Y-136945714D01*
X137366428Y-136945714D01*
X137461666Y-136993333D01*
X137509285Y-137088571D01*
X137509285Y-137612380D01*
X137842619Y-136945714D02*
X138223571Y-136945714D01*
X137985476Y-137612380D02*
X137985476Y-136755238D01*
X138033095Y-136660000D01*
X138128333Y-136612380D01*
X138223571Y-136612380D01*
X138699761Y-137612380D02*
X138604523Y-137564761D01*
X138556904Y-137517142D01*
X138509285Y-137421904D01*
X138509285Y-137136190D01*
X138556904Y-137040952D01*
X138604523Y-136993333D01*
X138699761Y-136945714D01*
X138842619Y-136945714D01*
X138937857Y-136993333D01*
X138985476Y-137040952D01*
X139033095Y-137136190D01*
X139033095Y-137421904D01*
X138985476Y-137517142D01*
X138937857Y-137564761D01*
X138842619Y-137612380D01*
X138699761Y-137612380D01*
X186134523Y-104592380D02*
X186134523Y-103925714D01*
X186134523Y-103592380D02*
X186086904Y-103640000D01*
X186134523Y-103687619D01*
X186182142Y-103640000D01*
X186134523Y-103592380D01*
X186134523Y-103687619D01*
X186610714Y-103925714D02*
X186610714Y-104592380D01*
X186610714Y-104020952D02*
X186658333Y-103973333D01*
X186753571Y-103925714D01*
X186896428Y-103925714D01*
X186991666Y-103973333D01*
X187039285Y-104068571D01*
X187039285Y-104592380D01*
X187372619Y-103925714D02*
X187753571Y-103925714D01*
X187515476Y-104592380D02*
X187515476Y-103735238D01*
X187563095Y-103640000D01*
X187658333Y-103592380D01*
X187753571Y-103592380D01*
X188229761Y-104592380D02*
X188134523Y-104544761D01*
X188086904Y-104497142D01*
X188039285Y-104401904D01*
X188039285Y-104116190D01*
X188086904Y-104020952D01*
X188134523Y-103973333D01*
X188229761Y-103925714D01*
X188372619Y-103925714D01*
X188467857Y-103973333D01*
X188515476Y-104020952D01*
X188563095Y-104116190D01*
X188563095Y-104401904D01*
X188515476Y-104497142D01*
X188467857Y-104544761D01*
X188372619Y-104592380D01*
X188229761Y-104592380D01*
X136604523Y-104592380D02*
X136604523Y-103925714D01*
X136604523Y-103592380D02*
X136556904Y-103640000D01*
X136604523Y-103687619D01*
X136652142Y-103640000D01*
X136604523Y-103592380D01*
X136604523Y-103687619D01*
X137080714Y-103925714D02*
X137080714Y-104592380D01*
X137080714Y-104020952D02*
X137128333Y-103973333D01*
X137223571Y-103925714D01*
X137366428Y-103925714D01*
X137461666Y-103973333D01*
X137509285Y-104068571D01*
X137509285Y-104592380D01*
X137842619Y-103925714D02*
X138223571Y-103925714D01*
X137985476Y-104592380D02*
X137985476Y-103735238D01*
X138033095Y-103640000D01*
X138128333Y-103592380D01*
X138223571Y-103592380D01*
X138699761Y-104592380D02*
X138604523Y-104544761D01*
X138556904Y-104497142D01*
X138509285Y-104401904D01*
X138509285Y-104116190D01*
X138556904Y-104020952D01*
X138604523Y-103973333D01*
X138699761Y-103925714D01*
X138842619Y-103925714D01*
X138937857Y-103973333D01*
X138985476Y-104020952D01*
X139033095Y-104116190D01*
X139033095Y-104401904D01*
X138985476Y-104497142D01*
X138937857Y-104544761D01*
X138842619Y-104592380D01*
X138699761Y-104592380D01*
X186134523Y-71572380D02*
X186134523Y-70905714D01*
X186134523Y-70572380D02*
X186086904Y-70620000D01*
X186134523Y-70667619D01*
X186182142Y-70620000D01*
X186134523Y-70572380D01*
X186134523Y-70667619D01*
X186610714Y-70905714D02*
X186610714Y-71572380D01*
X186610714Y-71000952D02*
X186658333Y-70953333D01*
X186753571Y-70905714D01*
X186896428Y-70905714D01*
X186991666Y-70953333D01*
X187039285Y-71048571D01*
X187039285Y-71572380D01*
X187372619Y-70905714D02*
X187753571Y-70905714D01*
X187515476Y-71572380D02*
X187515476Y-70715238D01*
X187563095Y-70620000D01*
X187658333Y-70572380D01*
X187753571Y-70572380D01*
X188229761Y-71572380D02*
X188134523Y-71524761D01*
X188086904Y-71477142D01*
X188039285Y-71381904D01*
X188039285Y-71096190D01*
X188086904Y-71000952D01*
X188134523Y-70953333D01*
X188229761Y-70905714D01*
X188372619Y-70905714D01*
X188467857Y-70953333D01*
X188515476Y-71000952D01*
X188563095Y-71096190D01*
X188563095Y-71381904D01*
X188515476Y-71477142D01*
X188467857Y-71524761D01*
X188372619Y-71572380D01*
X188229761Y-71572380D01*
X180483095Y-136945714D02*
X180721190Y-137612380D01*
X180959285Y-136945714D01*
X181768809Y-137612380D02*
X181768809Y-137088571D01*
X181721190Y-136993333D01*
X181625952Y-136945714D01*
X181435476Y-136945714D01*
X181340238Y-136993333D01*
X181768809Y-137564761D02*
X181673571Y-137612380D01*
X181435476Y-137612380D01*
X181340238Y-137564761D01*
X181292619Y-137469523D01*
X181292619Y-137374285D01*
X181340238Y-137279047D01*
X181435476Y-137231428D01*
X181673571Y-137231428D01*
X181768809Y-137183809D01*
X182387857Y-137612380D02*
X182292619Y-137564761D01*
X182245000Y-137469523D01*
X182245000Y-136612380D01*
X182673571Y-136945714D02*
X182911666Y-137612380D01*
X183149761Y-136945714D01*
X183911666Y-137564761D02*
X183816428Y-137612380D01*
X183625952Y-137612380D01*
X183530714Y-137564761D01*
X183483095Y-137469523D01*
X183483095Y-137088571D01*
X183530714Y-136993333D01*
X183625952Y-136945714D01*
X183816428Y-136945714D01*
X183911666Y-136993333D01*
X183959285Y-137088571D01*
X183959285Y-137183809D01*
X183483095Y-137279047D01*
X130953095Y-136945714D02*
X131191190Y-137612380D01*
X131429285Y-136945714D01*
X132238809Y-137612380D02*
X132238809Y-137088571D01*
X132191190Y-136993333D01*
X132095952Y-136945714D01*
X131905476Y-136945714D01*
X131810238Y-136993333D01*
X132238809Y-137564761D02*
X132143571Y-137612380D01*
X131905476Y-137612380D01*
X131810238Y-137564761D01*
X131762619Y-137469523D01*
X131762619Y-137374285D01*
X131810238Y-137279047D01*
X131905476Y-137231428D01*
X132143571Y-137231428D01*
X132238809Y-137183809D01*
X132857857Y-137612380D02*
X132762619Y-137564761D01*
X132715000Y-137469523D01*
X132715000Y-136612380D01*
X133143571Y-136945714D02*
X133381666Y-137612380D01*
X133619761Y-136945714D01*
X134381666Y-137564761D02*
X134286428Y-137612380D01*
X134095952Y-137612380D01*
X134000714Y-137564761D01*
X133953095Y-137469523D01*
X133953095Y-137088571D01*
X134000714Y-136993333D01*
X134095952Y-136945714D01*
X134286428Y-136945714D01*
X134381666Y-136993333D01*
X134429285Y-137088571D01*
X134429285Y-137183809D01*
X133953095Y-137279047D01*
X180483095Y-103925714D02*
X180721190Y-104592380D01*
X180959285Y-103925714D01*
X181768809Y-104592380D02*
X181768809Y-104068571D01*
X181721190Y-103973333D01*
X181625952Y-103925714D01*
X181435476Y-103925714D01*
X181340238Y-103973333D01*
X181768809Y-104544761D02*
X181673571Y-104592380D01*
X181435476Y-104592380D01*
X181340238Y-104544761D01*
X181292619Y-104449523D01*
X181292619Y-104354285D01*
X181340238Y-104259047D01*
X181435476Y-104211428D01*
X181673571Y-104211428D01*
X181768809Y-104163809D01*
X182387857Y-104592380D02*
X182292619Y-104544761D01*
X182245000Y-104449523D01*
X182245000Y-103592380D01*
X182673571Y-103925714D02*
X182911666Y-104592380D01*
X183149761Y-103925714D01*
X183911666Y-104544761D02*
X183816428Y-104592380D01*
X183625952Y-104592380D01*
X183530714Y-104544761D01*
X183483095Y-104449523D01*
X183483095Y-104068571D01*
X183530714Y-103973333D01*
X183625952Y-103925714D01*
X183816428Y-103925714D01*
X183911666Y-103973333D01*
X183959285Y-104068571D01*
X183959285Y-104163809D01*
X183483095Y-104259047D01*
X130953095Y-103925714D02*
X131191190Y-104592380D01*
X131429285Y-103925714D01*
X132238809Y-104592380D02*
X132238809Y-104068571D01*
X132191190Y-103973333D01*
X132095952Y-103925714D01*
X131905476Y-103925714D01*
X131810238Y-103973333D01*
X132238809Y-104544761D02*
X132143571Y-104592380D01*
X131905476Y-104592380D01*
X131810238Y-104544761D01*
X131762619Y-104449523D01*
X131762619Y-104354285D01*
X131810238Y-104259047D01*
X131905476Y-104211428D01*
X132143571Y-104211428D01*
X132238809Y-104163809D01*
X132857857Y-104592380D02*
X132762619Y-104544761D01*
X132715000Y-104449523D01*
X132715000Y-103592380D01*
X133143571Y-103925714D02*
X133381666Y-104592380D01*
X133619761Y-103925714D01*
X134381666Y-104544761D02*
X134286428Y-104592380D01*
X134095952Y-104592380D01*
X134000714Y-104544761D01*
X133953095Y-104449523D01*
X133953095Y-104068571D01*
X134000714Y-103973333D01*
X134095952Y-103925714D01*
X134286428Y-103925714D01*
X134381666Y-103973333D01*
X134429285Y-104068571D01*
X134429285Y-104163809D01*
X133953095Y-104259047D01*
X180483095Y-70905714D02*
X180721190Y-71572380D01*
X180959285Y-70905714D01*
X181768809Y-71572380D02*
X181768809Y-71048571D01*
X181721190Y-70953333D01*
X181625952Y-70905714D01*
X181435476Y-70905714D01*
X181340238Y-70953333D01*
X181768809Y-71524761D02*
X181673571Y-71572380D01*
X181435476Y-71572380D01*
X181340238Y-71524761D01*
X181292619Y-71429523D01*
X181292619Y-71334285D01*
X181340238Y-71239047D01*
X181435476Y-71191428D01*
X181673571Y-71191428D01*
X181768809Y-71143809D01*
X182387857Y-71572380D02*
X182292619Y-71524761D01*
X182245000Y-71429523D01*
X182245000Y-70572380D01*
X182673571Y-70905714D02*
X182911666Y-71572380D01*
X183149761Y-70905714D01*
X183911666Y-71524761D02*
X183816428Y-71572380D01*
X183625952Y-71572380D01*
X183530714Y-71524761D01*
X183483095Y-71429523D01*
X183483095Y-71048571D01*
X183530714Y-70953333D01*
X183625952Y-70905714D01*
X183816428Y-70905714D01*
X183911666Y-70953333D01*
X183959285Y-71048571D01*
X183959285Y-71143809D01*
X183483095Y-71239047D01*
D10*
X185253571Y-133457142D02*
X186396428Y-133457142D01*
X188253571Y-133457142D02*
X189396428Y-133457142D01*
X188825000Y-134028571D02*
X188825000Y-132885714D01*
X135723571Y-133457142D02*
X136866428Y-133457142D01*
X138723571Y-133457142D02*
X139866428Y-133457142D01*
X139295000Y-134028571D02*
X139295000Y-132885714D01*
X185253571Y-100437142D02*
X186396428Y-100437142D01*
X188253571Y-100437142D02*
X189396428Y-100437142D01*
X188825000Y-101008571D02*
X188825000Y-99865714D01*
X135723571Y-100437142D02*
X136866428Y-100437142D01*
X138723571Y-100437142D02*
X139866428Y-100437142D01*
X139295000Y-101008571D02*
X139295000Y-99865714D01*
X185253571Y-67417142D02*
X186396428Y-67417142D01*
X188253571Y-67417142D02*
X189396428Y-67417142D01*
X188825000Y-67988571D02*
X188825000Y-66845714D01*
D11*
X121601714Y-41841642D02*
X121801714Y-41770214D01*
X121601714Y-41698785D01*
X121787428Y-41470214D02*
X121801714Y-41498785D01*
X121801714Y-41555928D01*
X121787428Y-41584500D01*
X121758857Y-41598785D01*
X121644571Y-41598785D01*
X121616000Y-41584500D01*
X121601714Y-41555928D01*
X121601714Y-41498785D01*
X121616000Y-41470214D01*
X121644571Y-41455928D01*
X121673142Y-41455928D01*
X121701714Y-41598785D01*
X121801714Y-41327357D02*
X121601714Y-41327357D01*
X121658857Y-41327357D02*
X121630285Y-41313071D01*
X121616000Y-41298785D01*
X121601714Y-41270214D01*
X121601714Y-41241642D01*
X121787428Y-41155928D02*
X121801714Y-41127357D01*
X121801714Y-41070214D01*
X121787428Y-41041642D01*
X121758857Y-41027357D01*
X121744571Y-41027357D01*
X121716000Y-41041642D01*
X121701714Y-41070214D01*
X121701714Y-41113071D01*
X121687428Y-41141642D01*
X121658857Y-41155928D01*
X121644571Y-41155928D01*
X121616000Y-41141642D01*
X121601714Y-41113071D01*
X121601714Y-41070214D01*
X121616000Y-41041642D01*
X121801714Y-40898785D02*
X121601714Y-40898785D01*
X121501714Y-40898785D02*
X121516000Y-40913071D01*
X121530285Y-40898785D01*
X121516000Y-40884500D01*
X121501714Y-40898785D01*
X121530285Y-40898785D01*
X121801714Y-40713071D02*
X121787428Y-40741642D01*
X121773142Y-40755928D01*
X121744571Y-40770214D01*
X121658857Y-40770214D01*
X121630285Y-40755928D01*
X121616000Y-40741642D01*
X121601714Y-40713071D01*
X121601714Y-40670214D01*
X121616000Y-40641642D01*
X121630285Y-40627357D01*
X121658857Y-40613071D01*
X121744571Y-40613071D01*
X121773142Y-40627357D01*
X121787428Y-40641642D01*
X121801714Y-40670214D01*
X121801714Y-40713071D01*
X121601714Y-40484500D02*
X121801714Y-40484500D01*
X121630285Y-40484500D02*
X121616000Y-40470214D01*
X121601714Y-40441642D01*
X121601714Y-40398785D01*
X121616000Y-40370214D01*
X121644571Y-40355928D01*
X121801714Y-40355928D01*
D10*
X135723571Y-67417142D02*
X136866428Y-67417142D01*
X138723571Y-67417142D02*
X139866428Y-67417142D01*
X139295000Y-67988571D02*
X139295000Y-66845714D01*
D12*
X140946428Y-70905714D02*
X140946428Y-71905714D01*
X140946428Y-70953333D02*
X141041666Y-70905714D01*
X141232142Y-70905714D01*
X141327380Y-70953333D01*
X141375000Y-71000952D01*
X141422619Y-71096190D01*
X141422619Y-71381904D01*
X141375000Y-71477142D01*
X141327380Y-71524761D01*
X141232142Y-71572380D01*
X141041666Y-71572380D01*
X140946428Y-71524761D01*
X141994047Y-71572380D02*
X141898809Y-71524761D01*
X141851190Y-71477142D01*
X141803571Y-71381904D01*
X141803571Y-71096190D01*
X141851190Y-71000952D01*
X141898809Y-70953333D01*
X141994047Y-70905714D01*
X142136904Y-70905714D01*
X142232142Y-70953333D01*
X142279761Y-71000952D01*
X142327380Y-71096190D01*
X142327380Y-71381904D01*
X142279761Y-71477142D01*
X142232142Y-71524761D01*
X142136904Y-71572380D01*
X141994047Y-71572380D01*
X142660714Y-70905714D02*
X142851190Y-71572380D01*
X143041666Y-71096190D01*
X143232142Y-71572380D01*
X143422619Y-70905714D01*
X144184523Y-71524761D02*
X144089285Y-71572380D01*
X143898809Y-71572380D01*
X143803571Y-71524761D01*
X143755952Y-71429523D01*
X143755952Y-71048571D01*
X143803571Y-70953333D01*
X143898809Y-70905714D01*
X144089285Y-70905714D01*
X144184523Y-70953333D01*
X144232142Y-71048571D01*
X144232142Y-71143809D01*
X143755952Y-71239047D01*
X144660714Y-71572380D02*
X144660714Y-70905714D01*
X144660714Y-71096190D02*
X144708333Y-71000952D01*
X144755952Y-70953333D01*
X144851190Y-70905714D01*
X144946428Y-70905714D01*
X136604523Y-71572380D02*
X136604523Y-70905714D01*
X136604523Y-70572380D02*
X136556904Y-70620000D01*
X136604523Y-70667619D01*
X136652142Y-70620000D01*
X136604523Y-70572380D01*
X136604523Y-70667619D01*
X137080714Y-70905714D02*
X137080714Y-71572380D01*
X137080714Y-71000952D02*
X137128333Y-70953333D01*
X137223571Y-70905714D01*
X137366428Y-70905714D01*
X137461666Y-70953333D01*
X137509285Y-71048571D01*
X137509285Y-71572380D01*
X137842619Y-70905714D02*
X138223571Y-70905714D01*
X137985476Y-71572380D02*
X137985476Y-70715238D01*
X138033095Y-70620000D01*
X138128333Y-70572380D01*
X138223571Y-70572380D01*
X138699761Y-71572380D02*
X138604523Y-71524761D01*
X138556904Y-71477142D01*
X138509285Y-71381904D01*
X138509285Y-71096190D01*
X138556904Y-71000952D01*
X138604523Y-70953333D01*
X138699761Y-70905714D01*
X138842619Y-70905714D01*
X138937857Y-70953333D01*
X138985476Y-71000952D01*
X139033095Y-71096190D01*
X139033095Y-71381904D01*
X138985476Y-71477142D01*
X138937857Y-71524761D01*
X138842619Y-71572380D01*
X138699761Y-71572380D01*
X130953095Y-70905714D02*
X131191190Y-71572380D01*
X131429285Y-70905714D01*
X132238809Y-71572380D02*
X132238809Y-71048571D01*
X132191190Y-70953333D01*
X132095952Y-70905714D01*
X131905476Y-70905714D01*
X131810238Y-70953333D01*
X132238809Y-71524761D02*
X132143571Y-71572380D01*
X131905476Y-71572380D01*
X131810238Y-71524761D01*
X131762619Y-71429523D01*
X131762619Y-71334285D01*
X131810238Y-71239047D01*
X131905476Y-71191428D01*
X132143571Y-71191428D01*
X132238809Y-71143809D01*
X132857857Y-71572380D02*
X132762619Y-71524761D01*
X132715000Y-71429523D01*
X132715000Y-70572380D01*
X133143571Y-70905714D02*
X133381666Y-71572380D01*
X133619761Y-70905714D01*
X134381666Y-71524761D02*
X134286428Y-71572380D01*
X134095952Y-71572380D01*
X134000714Y-71524761D01*
X133953095Y-71429523D01*
X133953095Y-71048571D01*
X134000714Y-70953333D01*
X134095952Y-70905714D01*
X134286428Y-70905714D01*
X134381666Y-70953333D01*
X134429285Y-71048571D01*
X134429285Y-71143809D01*
X133953095Y-71239047D01*
D10*
X121991500Y-40326571D02*
X122991500Y-40326571D01*
X122348642Y-41826571D01*
X165207142Y-48934285D02*
X165207142Y-47791428D01*
X165207142Y-43648571D02*
X165207142Y-42505714D01*
X165778571Y-43077142D02*
X164635714Y-43077142D01*
X165207142Y-59094285D02*
X165207142Y-57951428D01*
X165207142Y-53808571D02*
X165207142Y-52665714D01*
X165778571Y-53237142D02*
X164635714Y-53237142D01*
D13*
G04 #@! TO.C,R1*
X172220000Y-109810000D02*
X173220000Y-109810000D01*
X173220000Y-111170000D02*
X172220000Y-111170000D01*
X122690000Y-109810000D02*
X123690000Y-109810000D01*
X123690000Y-111170000D02*
X122690000Y-111170000D01*
X172220000Y-76790000D02*
X173220000Y-76790000D01*
X173220000Y-78150000D02*
X172220000Y-78150000D01*
X122690000Y-76790000D02*
X123690000Y-76790000D01*
X123690000Y-78150000D02*
X122690000Y-78150000D01*
X172220000Y-43770000D02*
X173220000Y-43770000D01*
X173220000Y-45130000D02*
X172220000Y-45130000D01*
D14*
G04 #@! TO.C,IRFZ44N1*
G36*
X203086000Y-134389000D02*
X195974000Y-134389000D01*
X195974000Y-135024000D01*
X203086000Y-135024000D01*
X203086000Y-134389000D01*
G37*
X203086000Y-134389000D02*
X195974000Y-134389000D01*
X195974000Y-135024000D01*
X203086000Y-135024000D01*
X203086000Y-134389000D01*
G36*
X153556000Y-134389000D02*
X146444000Y-134389000D01*
X146444000Y-135024000D01*
X153556000Y-135024000D01*
X153556000Y-134389000D01*
G37*
X153556000Y-134389000D02*
X146444000Y-134389000D01*
X146444000Y-135024000D01*
X153556000Y-135024000D01*
X153556000Y-134389000D01*
G36*
X203086000Y-101369000D02*
X195974000Y-101369000D01*
X195974000Y-102004000D01*
X203086000Y-102004000D01*
X203086000Y-101369000D01*
G37*
X203086000Y-101369000D02*
X195974000Y-101369000D01*
X195974000Y-102004000D01*
X203086000Y-102004000D01*
X203086000Y-101369000D01*
G36*
X153556000Y-101369000D02*
X146444000Y-101369000D01*
X146444000Y-102004000D01*
X153556000Y-102004000D01*
X153556000Y-101369000D01*
G37*
X153556000Y-101369000D02*
X146444000Y-101369000D01*
X146444000Y-102004000D01*
X153556000Y-102004000D01*
X153556000Y-101369000D01*
G36*
X203086000Y-68349000D02*
X195974000Y-68349000D01*
X195974000Y-68984000D01*
X203086000Y-68984000D01*
X203086000Y-68349000D01*
G37*
X203086000Y-68349000D02*
X195974000Y-68349000D01*
X195974000Y-68984000D01*
X203086000Y-68984000D01*
X203086000Y-68349000D01*
D13*
G04 #@! TO.C,D1*
X193130000Y-125390000D02*
X193130000Y-128690000D01*
X193130000Y-128690000D02*
X200030000Y-128690000D01*
X193130000Y-125390000D02*
X200030000Y-125390000D01*
X143600000Y-125390000D02*
X143600000Y-128690000D01*
X143600000Y-128690000D02*
X150500000Y-128690000D01*
X143600000Y-125390000D02*
X150500000Y-125390000D01*
X193130000Y-92370000D02*
X193130000Y-95670000D01*
X193130000Y-95670000D02*
X200030000Y-95670000D01*
X193130000Y-92370000D02*
X200030000Y-92370000D01*
X143600000Y-92370000D02*
X143600000Y-95670000D01*
X143600000Y-95670000D02*
X150500000Y-95670000D01*
X143600000Y-92370000D02*
X150500000Y-92370000D01*
X193130000Y-59350000D02*
X193130000Y-62650000D01*
X193130000Y-62650000D02*
X200030000Y-62650000D01*
X193130000Y-59350000D02*
X200030000Y-59350000D01*
G04 #@! TO.C,R3*
X173220000Y-118790000D02*
X172220000Y-118790000D01*
X172220000Y-117430000D02*
X173220000Y-117430000D01*
X123690000Y-118790000D02*
X122690000Y-118790000D01*
X122690000Y-117430000D02*
X123690000Y-117430000D01*
X173220000Y-85770000D02*
X172220000Y-85770000D01*
X172220000Y-84410000D02*
X173220000Y-84410000D01*
X123690000Y-85770000D02*
X122690000Y-85770000D01*
X122690000Y-84410000D02*
X123690000Y-84410000D01*
X173220000Y-52750000D02*
X172220000Y-52750000D01*
X172220000Y-51390000D02*
X173220000Y-51390000D01*
G04 #@! TO.C,J1*
X204520000Y-116950000D02*
X217120000Y-116950000D01*
X217120000Y-116950000D02*
X217120000Y-106600000D01*
X217120000Y-106600000D02*
X216170000Y-106600000D01*
X216170000Y-106600000D02*
X216420000Y-106100000D01*
X216420000Y-106100000D02*
X214520000Y-106100000D01*
X214520000Y-106100000D02*
X214470000Y-106100000D01*
X214470000Y-106100000D02*
X214720000Y-106600000D01*
X214720000Y-106600000D02*
X209320000Y-106600000D01*
X209320000Y-106600000D02*
X209620000Y-106100000D01*
X209620000Y-106100000D02*
X204520000Y-106100000D01*
X204520000Y-106100000D02*
X204520000Y-116950000D01*
X154990000Y-116950000D02*
X167590000Y-116950000D01*
X167590000Y-116950000D02*
X167590000Y-106600000D01*
X167590000Y-106600000D02*
X166640000Y-106600000D01*
X166640000Y-106600000D02*
X166890000Y-106100000D01*
X166890000Y-106100000D02*
X164990000Y-106100000D01*
X164990000Y-106100000D02*
X164940000Y-106100000D01*
X164940000Y-106100000D02*
X165190000Y-106600000D01*
X165190000Y-106600000D02*
X159790000Y-106600000D01*
X159790000Y-106600000D02*
X160090000Y-106100000D01*
X160090000Y-106100000D02*
X154990000Y-106100000D01*
X154990000Y-106100000D02*
X154990000Y-116950000D01*
X204520000Y-83930000D02*
X217120000Y-83930000D01*
X217120000Y-83930000D02*
X217120000Y-73580000D01*
X217120000Y-73580000D02*
X216170000Y-73580000D01*
X216170000Y-73580000D02*
X216420000Y-73080000D01*
X216420000Y-73080000D02*
X214520000Y-73080000D01*
X214520000Y-73080000D02*
X214470000Y-73080000D01*
X214470000Y-73080000D02*
X214720000Y-73580000D01*
X214720000Y-73580000D02*
X209320000Y-73580000D01*
X209320000Y-73580000D02*
X209620000Y-73080000D01*
X209620000Y-73080000D02*
X204520000Y-73080000D01*
X204520000Y-73080000D02*
X204520000Y-83930000D01*
X154990000Y-83930000D02*
X167590000Y-83930000D01*
X167590000Y-83930000D02*
X167590000Y-73580000D01*
X167590000Y-73580000D02*
X166640000Y-73580000D01*
X166640000Y-73580000D02*
X166890000Y-73080000D01*
X166890000Y-73080000D02*
X164990000Y-73080000D01*
X164990000Y-73080000D02*
X164940000Y-73080000D01*
X164940000Y-73080000D02*
X165190000Y-73580000D01*
X165190000Y-73580000D02*
X159790000Y-73580000D01*
X159790000Y-73580000D02*
X160090000Y-73080000D01*
X160090000Y-73080000D02*
X154990000Y-73080000D01*
X154990000Y-73080000D02*
X154990000Y-83930000D01*
X204520000Y-50910000D02*
X217120000Y-50910000D01*
X217120000Y-50910000D02*
X217120000Y-40560000D01*
X217120000Y-40560000D02*
X216170000Y-40560000D01*
X216170000Y-40560000D02*
X216420000Y-40060000D01*
X216420000Y-40060000D02*
X214520000Y-40060000D01*
X214520000Y-40060000D02*
X214470000Y-40060000D01*
X214470000Y-40060000D02*
X214720000Y-40560000D01*
X214720000Y-40560000D02*
X209320000Y-40560000D01*
X209320000Y-40560000D02*
X209620000Y-40060000D01*
X209620000Y-40060000D02*
X204520000Y-40060000D01*
X204520000Y-40060000D02*
X204520000Y-50910000D01*
G04 #@! TO.C,D3*
X194077335Y-134176392D02*
G75*
G03X190845000Y-134019484I-1672335J-1078608D01*
G01*
X194077335Y-136333608D02*
G75*
G02X190845000Y-136490516I-1672335J1078608D01*
G01*
X193446130Y-134175163D02*
G75*
G03X191364039Y-134175000I-1041130J-1079837D01*
G01*
X193446130Y-136334837D02*
G75*
G02X191364039Y-136335000I-1041130J1079837D01*
G01*
X190845000Y-134019000D02*
X190845000Y-134175000D01*
X190845000Y-136335000D02*
X190845000Y-136491000D01*
X144547335Y-134176392D02*
G75*
G03X141315000Y-134019484I-1672335J-1078608D01*
G01*
X144547335Y-136333608D02*
G75*
G02X141315000Y-136490516I-1672335J1078608D01*
G01*
X143916130Y-134175163D02*
G75*
G03X141834039Y-134175000I-1041130J-1079837D01*
G01*
X143916130Y-136334837D02*
G75*
G02X141834039Y-136335000I-1041130J1079837D01*
G01*
X141315000Y-134019000D02*
X141315000Y-134175000D01*
X141315000Y-136335000D02*
X141315000Y-136491000D01*
X194077335Y-101156392D02*
G75*
G03X190845000Y-100999484I-1672335J-1078608D01*
G01*
X194077335Y-103313608D02*
G75*
G02X190845000Y-103470516I-1672335J1078608D01*
G01*
X193446130Y-101155163D02*
G75*
G03X191364039Y-101155000I-1041130J-1079837D01*
G01*
X193446130Y-103314837D02*
G75*
G02X191364039Y-103315000I-1041130J1079837D01*
G01*
X190845000Y-100999000D02*
X190845000Y-101155000D01*
X190845000Y-103315000D02*
X190845000Y-103471000D01*
X144547335Y-101156392D02*
G75*
G03X141315000Y-100999484I-1672335J-1078608D01*
G01*
X144547335Y-103313608D02*
G75*
G02X141315000Y-103470516I-1672335J1078608D01*
G01*
X143916130Y-101155163D02*
G75*
G03X141834039Y-101155000I-1041130J-1079837D01*
G01*
X143916130Y-103314837D02*
G75*
G02X141834039Y-103315000I-1041130J1079837D01*
G01*
X141315000Y-100999000D02*
X141315000Y-101155000D01*
X141315000Y-103315000D02*
X141315000Y-103471000D01*
X194077335Y-68136392D02*
G75*
G03X190845000Y-67979484I-1672335J-1078608D01*
G01*
X194077335Y-70293608D02*
G75*
G02X190845000Y-70450516I-1672335J1078608D01*
G01*
X193446130Y-68135163D02*
G75*
G03X191364039Y-68135000I-1041130J-1079837D01*
G01*
X193446130Y-70294837D02*
G75*
G02X191364039Y-70295000I-1041130J1079837D01*
G01*
X190845000Y-67979000D02*
X190845000Y-68135000D01*
X190845000Y-70295000D02*
X190845000Y-70451000D01*
D14*
G04 #@! TO.C,U2*
X175390000Y-106050000D02*
X175390000Y-106050000D01*
X175390000Y-107210000D02*
X175390000Y-106050000D01*
X174390000Y-108200000D02*
G75*
G03X175390000Y-107200000I0J1000000D01*
G01*
X168390000Y-108200000D02*
X174390000Y-108200000D01*
X201470000Y-132710000D02*
G75*
G03X203470000Y-130710000I0J2000000D01*
G01*
X203470000Y-108050000D02*
G75*
G03X201470000Y-106050000I-2000000J0D01*
G01*
X168390000Y-124280000D02*
X168390000Y-132709999D01*
X169390000Y-124280000D02*
X168390000Y-124280000D01*
X169390000Y-116060000D02*
X169390000Y-124280000D01*
X168390000Y-116060000D02*
X169390000Y-116060000D01*
X168390000Y-108200000D02*
X168390000Y-116060000D01*
X201470000Y-106050000D02*
X175390000Y-106050000D01*
X203470000Y-130710000D02*
X203470000Y-108050000D01*
X168390000Y-132710000D02*
X201470000Y-132710000D01*
X125860000Y-106050000D02*
X125860000Y-106050000D01*
X125860000Y-107210000D02*
X125860000Y-106050000D01*
X124860000Y-108200000D02*
G75*
G03X125860000Y-107200000I0J1000000D01*
G01*
X118860000Y-108200000D02*
X124860000Y-108200000D01*
X151940000Y-132710000D02*
G75*
G03X153940000Y-130710000I0J2000000D01*
G01*
X153940000Y-108050000D02*
G75*
G03X151940000Y-106050000I-2000000J0D01*
G01*
X118860000Y-124280000D02*
X118860000Y-132709999D01*
X119860000Y-124280000D02*
X118860000Y-124280000D01*
X119860000Y-116060000D02*
X119860000Y-124280000D01*
X118860000Y-116060000D02*
X119860000Y-116060000D01*
X118860000Y-108200000D02*
X118860000Y-116060000D01*
X151940000Y-106050000D02*
X125860000Y-106050000D01*
X153940000Y-130710000D02*
X153940000Y-108050000D01*
X118860000Y-132710000D02*
X151940000Y-132710000D01*
X175390000Y-73030000D02*
X175390000Y-73030000D01*
X175390000Y-74190000D02*
X175390000Y-73030000D01*
X174390000Y-75180000D02*
G75*
G03X175390000Y-74180000I0J1000000D01*
G01*
X168390000Y-75180000D02*
X174390000Y-75180000D01*
X201470000Y-99690000D02*
G75*
G03X203470000Y-97690000I0J2000000D01*
G01*
X203470000Y-75030000D02*
G75*
G03X201470000Y-73030000I-2000000J0D01*
G01*
X168390000Y-91260000D02*
X168390000Y-99689999D01*
X169390000Y-91260000D02*
X168390000Y-91260000D01*
X169390000Y-83040000D02*
X169390000Y-91260000D01*
X168390000Y-83040000D02*
X169390000Y-83040000D01*
X168390000Y-75180000D02*
X168390000Y-83040000D01*
X201470000Y-73030000D02*
X175390000Y-73030000D01*
X203470000Y-97690000D02*
X203470000Y-75030000D01*
X168390000Y-99690000D02*
X201470000Y-99690000D01*
X125860000Y-73030000D02*
X125860000Y-73030000D01*
X125860000Y-74190000D02*
X125860000Y-73030000D01*
X124860000Y-75180000D02*
G75*
G03X125860000Y-74180000I0J1000000D01*
G01*
X118860000Y-75180000D02*
X124860000Y-75180000D01*
X151940000Y-99690000D02*
G75*
G03X153940000Y-97690000I0J2000000D01*
G01*
X153940000Y-75030000D02*
G75*
G03X151940000Y-73030000I-2000000J0D01*
G01*
X118860000Y-91260000D02*
X118860000Y-99689999D01*
X119860000Y-91260000D02*
X118860000Y-91260000D01*
X119860000Y-83040000D02*
X119860000Y-91260000D01*
X118860000Y-83040000D02*
X119860000Y-83040000D01*
X118860000Y-75180000D02*
X118860000Y-83040000D01*
X151940000Y-73030000D02*
X125860000Y-73030000D01*
X153940000Y-97690000D02*
X153940000Y-75030000D01*
X118860000Y-99690000D02*
X151940000Y-99690000D01*
X175390000Y-40010000D02*
X175390000Y-40010000D01*
X175390000Y-41170000D02*
X175390000Y-40010000D01*
X174390000Y-42160000D02*
G75*
G03X175390000Y-41160000I0J1000000D01*
G01*
X168390000Y-42160000D02*
X174390000Y-42160000D01*
X201470000Y-66670000D02*
G75*
G03X203470000Y-64670000I0J2000000D01*
G01*
X203470000Y-42010000D02*
G75*
G03X201470000Y-40010000I-2000000J0D01*
G01*
X168390000Y-58240000D02*
X168390000Y-66669999D01*
X169390000Y-58240000D02*
X168390000Y-58240000D01*
X169390000Y-50020000D02*
X169390000Y-58240000D01*
X168390000Y-50020000D02*
X169390000Y-50020000D01*
X168390000Y-42160000D02*
X168390000Y-50020000D01*
X201470000Y-40010000D02*
X175390000Y-40010000D01*
X203470000Y-64670000D02*
X203470000Y-42010000D01*
X168390000Y-66670000D02*
X201470000Y-66670000D01*
D13*
G04 #@! TO.C,J3*
X204520000Y-137270000D02*
X217120000Y-137270000D01*
X217120000Y-137270000D02*
X217120000Y-126920000D01*
X217120000Y-126920000D02*
X216170000Y-126920000D01*
X216170000Y-126920000D02*
X216420000Y-126420000D01*
X216420000Y-126420000D02*
X214520000Y-126420000D01*
X214520000Y-126420000D02*
X214470000Y-126420000D01*
X214470000Y-126420000D02*
X214720000Y-126920000D01*
X214720000Y-126920000D02*
X209320000Y-126920000D01*
X209320000Y-126920000D02*
X209620000Y-126420000D01*
X209620000Y-126420000D02*
X204520000Y-126420000D01*
X204520000Y-126420000D02*
X204520000Y-137270000D01*
X154990000Y-137270000D02*
X167590000Y-137270000D01*
X167590000Y-137270000D02*
X167590000Y-126920000D01*
X167590000Y-126920000D02*
X166640000Y-126920000D01*
X166640000Y-126920000D02*
X166890000Y-126420000D01*
X166890000Y-126420000D02*
X164990000Y-126420000D01*
X164990000Y-126420000D02*
X164940000Y-126420000D01*
X164940000Y-126420000D02*
X165190000Y-126920000D01*
X165190000Y-126920000D02*
X159790000Y-126920000D01*
X159790000Y-126920000D02*
X160090000Y-126420000D01*
X160090000Y-126420000D02*
X154990000Y-126420000D01*
X154990000Y-126420000D02*
X154990000Y-137270000D01*
X204520000Y-104250000D02*
X217120000Y-104250000D01*
X217120000Y-104250000D02*
X217120000Y-93900000D01*
X217120000Y-93900000D02*
X216170000Y-93900000D01*
X216170000Y-93900000D02*
X216420000Y-93400000D01*
X216420000Y-93400000D02*
X214520000Y-93400000D01*
X214520000Y-93400000D02*
X214470000Y-93400000D01*
X214470000Y-93400000D02*
X214720000Y-93900000D01*
X214720000Y-93900000D02*
X209320000Y-93900000D01*
X209320000Y-93900000D02*
X209620000Y-93400000D01*
X209620000Y-93400000D02*
X204520000Y-93400000D01*
X204520000Y-93400000D02*
X204520000Y-104250000D01*
X154990000Y-104250000D02*
X167590000Y-104250000D01*
X167590000Y-104250000D02*
X167590000Y-93900000D01*
X167590000Y-93900000D02*
X166640000Y-93900000D01*
X166640000Y-93900000D02*
X166890000Y-93400000D01*
X166890000Y-93400000D02*
X164990000Y-93400000D01*
X164990000Y-93400000D02*
X164940000Y-93400000D01*
X164940000Y-93400000D02*
X165190000Y-93900000D01*
X165190000Y-93900000D02*
X159790000Y-93900000D01*
X159790000Y-93900000D02*
X160090000Y-93400000D01*
X160090000Y-93400000D02*
X154990000Y-93400000D01*
X154990000Y-93400000D02*
X154990000Y-104250000D01*
X204520000Y-71230000D02*
X217120000Y-71230000D01*
X217120000Y-71230000D02*
X217120000Y-60880000D01*
X217120000Y-60880000D02*
X216170000Y-60880000D01*
X216170000Y-60880000D02*
X216420000Y-60380000D01*
X216420000Y-60380000D02*
X214520000Y-60380000D01*
X214520000Y-60380000D02*
X214470000Y-60380000D01*
X214470000Y-60380000D02*
X214720000Y-60880000D01*
X214720000Y-60880000D02*
X209320000Y-60880000D01*
X209320000Y-60880000D02*
X209620000Y-60380000D01*
X209620000Y-60380000D02*
X204520000Y-60380000D01*
X204520000Y-60380000D02*
X204520000Y-71230000D01*
G04 #@! TO.C,J2*
X204520000Y-116260000D02*
X204520000Y-127110000D01*
X209620000Y-116260000D02*
X204520000Y-116260000D01*
X209320000Y-116760000D02*
X209620000Y-116260000D01*
X214720000Y-116760000D02*
X209320000Y-116760000D01*
X214470000Y-116260000D02*
X214720000Y-116760000D01*
X214520000Y-116260000D02*
X214470000Y-116260000D01*
X216420000Y-116260000D02*
X214520000Y-116260000D01*
X216170000Y-116760000D02*
X216420000Y-116260000D01*
X217120000Y-116760000D02*
X216170000Y-116760000D01*
X217120000Y-127110000D02*
X217120000Y-116760000D01*
X204520000Y-127110000D02*
X217120000Y-127110000D01*
X154990000Y-116260000D02*
X154990000Y-127110000D01*
X160090000Y-116260000D02*
X154990000Y-116260000D01*
X159790000Y-116760000D02*
X160090000Y-116260000D01*
X165190000Y-116760000D02*
X159790000Y-116760000D01*
X164940000Y-116260000D02*
X165190000Y-116760000D01*
X164990000Y-116260000D02*
X164940000Y-116260000D01*
X166890000Y-116260000D02*
X164990000Y-116260000D01*
X166640000Y-116760000D02*
X166890000Y-116260000D01*
X167590000Y-116760000D02*
X166640000Y-116760000D01*
X167590000Y-127110000D02*
X167590000Y-116760000D01*
X154990000Y-127110000D02*
X167590000Y-127110000D01*
X204520000Y-83240000D02*
X204520000Y-94090000D01*
X209620000Y-83240000D02*
X204520000Y-83240000D01*
X209320000Y-83740000D02*
X209620000Y-83240000D01*
X214720000Y-83740000D02*
X209320000Y-83740000D01*
X214470000Y-83240000D02*
X214720000Y-83740000D01*
X214520000Y-83240000D02*
X214470000Y-83240000D01*
X216420000Y-83240000D02*
X214520000Y-83240000D01*
X216170000Y-83740000D02*
X216420000Y-83240000D01*
X217120000Y-83740000D02*
X216170000Y-83740000D01*
X217120000Y-94090000D02*
X217120000Y-83740000D01*
X204520000Y-94090000D02*
X217120000Y-94090000D01*
X154990000Y-83240000D02*
X154990000Y-94090000D01*
X160090000Y-83240000D02*
X154990000Y-83240000D01*
X159790000Y-83740000D02*
X160090000Y-83240000D01*
X165190000Y-83740000D02*
X159790000Y-83740000D01*
X164940000Y-83240000D02*
X165190000Y-83740000D01*
X164990000Y-83240000D02*
X164940000Y-83240000D01*
X166890000Y-83240000D02*
X164990000Y-83240000D01*
X166640000Y-83740000D02*
X166890000Y-83240000D01*
X167590000Y-83740000D02*
X166640000Y-83740000D01*
X167590000Y-94090000D02*
X167590000Y-83740000D01*
X154990000Y-94090000D02*
X167590000Y-94090000D01*
X204520000Y-50220000D02*
X204520000Y-61070000D01*
X209620000Y-50220000D02*
X204520000Y-50220000D01*
X209320000Y-50720000D02*
X209620000Y-50220000D01*
X214720000Y-50720000D02*
X209320000Y-50720000D01*
X214470000Y-50220000D02*
X214720000Y-50720000D01*
X214520000Y-50220000D02*
X214470000Y-50220000D01*
X216420000Y-50220000D02*
X214520000Y-50220000D01*
X216170000Y-50720000D02*
X216420000Y-50220000D01*
X217120000Y-50720000D02*
X216170000Y-50720000D01*
X217120000Y-61070000D02*
X217120000Y-50720000D01*
X204520000Y-61070000D02*
X217120000Y-61070000D01*
G04 #@! TO.C,R6*
X172220000Y-128860000D02*
X173220000Y-128860000D01*
X173220000Y-130220000D02*
X172220000Y-130220000D01*
X122690000Y-128860000D02*
X123690000Y-128860000D01*
X123690000Y-130220000D02*
X122690000Y-130220000D01*
X172220000Y-95840000D02*
X173220000Y-95840000D01*
X173220000Y-97200000D02*
X172220000Y-97200000D01*
X122690000Y-95840000D02*
X123690000Y-95840000D01*
X123690000Y-97200000D02*
X122690000Y-97200000D01*
X172220000Y-62820000D02*
X173220000Y-62820000D01*
X173220000Y-64180000D02*
X172220000Y-64180000D01*
G04 #@! TO.C,R4*
X173220000Y-122600000D02*
X172220000Y-122600000D01*
X172220000Y-121240000D02*
X173220000Y-121240000D01*
X123690000Y-122600000D02*
X122690000Y-122600000D01*
X122690000Y-121240000D02*
X123690000Y-121240000D01*
X173220000Y-89580000D02*
X172220000Y-89580000D01*
X172220000Y-88220000D02*
X173220000Y-88220000D01*
X123690000Y-89580000D02*
X122690000Y-89580000D01*
X122690000Y-88220000D02*
X123690000Y-88220000D01*
X173220000Y-56560000D02*
X172220000Y-56560000D01*
X172220000Y-55200000D02*
X173220000Y-55200000D01*
G04 #@! TO.C,R2*
X173220000Y-114980000D02*
X172220000Y-114980000D01*
X172220000Y-113620000D02*
X173220000Y-113620000D01*
X123690000Y-114980000D02*
X122690000Y-114980000D01*
X122690000Y-113620000D02*
X123690000Y-113620000D01*
X173220000Y-81960000D02*
X172220000Y-81960000D01*
X172220000Y-80600000D02*
X173220000Y-80600000D01*
X123690000Y-81960000D02*
X122690000Y-81960000D01*
X122690000Y-80600000D02*
X123690000Y-80600000D01*
X173220000Y-48940000D02*
X172220000Y-48940000D01*
X172220000Y-47580000D02*
X173220000Y-47580000D01*
G04 #@! TO.C,R5*
X173220000Y-126410000D02*
X172220000Y-126410000D01*
X172220000Y-125050000D02*
X173220000Y-125050000D01*
X123690000Y-126410000D02*
X122690000Y-126410000D01*
X122690000Y-125050000D02*
X123690000Y-125050000D01*
X173220000Y-93390000D02*
X172220000Y-93390000D01*
X172220000Y-92030000D02*
X173220000Y-92030000D01*
X123690000Y-93390000D02*
X122690000Y-93390000D01*
X122690000Y-92030000D02*
X123690000Y-92030000D01*
X173220000Y-60370000D02*
X172220000Y-60370000D01*
X172220000Y-59010000D02*
X173220000Y-59010000D01*
G04 #@! TO.C,D4*
X185765000Y-136335000D02*
X185765000Y-136491000D01*
X185765000Y-134019000D02*
X185765000Y-134175000D01*
X188366130Y-136334837D02*
G75*
G02X186284039Y-136335000I-1041130J1079837D01*
G01*
X188366130Y-134175163D02*
G75*
G03X186284039Y-134175000I-1041130J-1079837D01*
G01*
X188997335Y-136333608D02*
G75*
G02X185765000Y-136490516I-1672335J1078608D01*
G01*
X188997335Y-134176392D02*
G75*
G03X185765000Y-134019484I-1672335J-1078608D01*
G01*
X136235000Y-136335000D02*
X136235000Y-136491000D01*
X136235000Y-134019000D02*
X136235000Y-134175000D01*
X138836130Y-136334837D02*
G75*
G02X136754039Y-136335000I-1041130J1079837D01*
G01*
X138836130Y-134175163D02*
G75*
G03X136754039Y-134175000I-1041130J-1079837D01*
G01*
X139467335Y-136333608D02*
G75*
G02X136235000Y-136490516I-1672335J1078608D01*
G01*
X139467335Y-134176392D02*
G75*
G03X136235000Y-134019484I-1672335J-1078608D01*
G01*
X185765000Y-103315000D02*
X185765000Y-103471000D01*
X185765000Y-100999000D02*
X185765000Y-101155000D01*
X188366130Y-103314837D02*
G75*
G02X186284039Y-103315000I-1041130J1079837D01*
G01*
X188366130Y-101155163D02*
G75*
G03X186284039Y-101155000I-1041130J-1079837D01*
G01*
X188997335Y-103313608D02*
G75*
G02X185765000Y-103470516I-1672335J1078608D01*
G01*
X188997335Y-101156392D02*
G75*
G03X185765000Y-100999484I-1672335J-1078608D01*
G01*
X136235000Y-103315000D02*
X136235000Y-103471000D01*
X136235000Y-100999000D02*
X136235000Y-101155000D01*
X138836130Y-103314837D02*
G75*
G02X136754039Y-103315000I-1041130J1079837D01*
G01*
X138836130Y-101155163D02*
G75*
G03X136754039Y-101155000I-1041130J-1079837D01*
G01*
X139467335Y-103313608D02*
G75*
G02X136235000Y-103470516I-1672335J1078608D01*
G01*
X139467335Y-101156392D02*
G75*
G03X136235000Y-100999484I-1672335J-1078608D01*
G01*
X185765000Y-70295000D02*
X185765000Y-70451000D01*
X185765000Y-67979000D02*
X185765000Y-68135000D01*
X188366130Y-70294837D02*
G75*
G02X186284039Y-70295000I-1041130J1079837D01*
G01*
X188366130Y-68135163D02*
G75*
G03X186284039Y-68135000I-1041130J-1079837D01*
G01*
X188997335Y-70293608D02*
G75*
G02X185765000Y-70450516I-1672335J1078608D01*
G01*
X188997335Y-68136392D02*
G75*
G03X185765000Y-67979484I-1672335J-1078608D01*
G01*
D14*
G04 #@! TO.C,U3*
X169545000Y-136525000D02*
X169545000Y-132715000D01*
X179705000Y-136525000D02*
X169545000Y-136525000D01*
X179705000Y-132715000D02*
X179705000Y-136525000D01*
X169545000Y-132715000D02*
X179705000Y-132715000D01*
X120015000Y-136525000D02*
X120015000Y-132715000D01*
X130175000Y-136525000D02*
X120015000Y-136525000D01*
X130175000Y-132715000D02*
X130175000Y-136525000D01*
X120015000Y-132715000D02*
X130175000Y-132715000D01*
X169545000Y-103505000D02*
X169545000Y-99695000D01*
X179705000Y-103505000D02*
X169545000Y-103505000D01*
X179705000Y-99695000D02*
X179705000Y-103505000D01*
X169545000Y-99695000D02*
X179705000Y-99695000D01*
X120015000Y-103505000D02*
X120015000Y-99695000D01*
X130175000Y-103505000D02*
X120015000Y-103505000D01*
X130175000Y-99695000D02*
X130175000Y-103505000D01*
X120015000Y-99695000D02*
X130175000Y-99695000D01*
X169545000Y-70485000D02*
X169545000Y-66675000D01*
X179705000Y-70485000D02*
X169545000Y-70485000D01*
X179705000Y-66675000D02*
X179705000Y-70485000D01*
X169545000Y-66675000D02*
X179705000Y-66675000D01*
D13*
G04 #@! TO.C,D2*
X183917335Y-134176392D02*
G75*
G03X180685000Y-134019484I-1672335J-1078608D01*
G01*
X183917335Y-136333608D02*
G75*
G02X180685000Y-136490516I-1672335J1078608D01*
G01*
X183286130Y-134175163D02*
G75*
G03X181204039Y-134175000I-1041130J-1079837D01*
G01*
X183286130Y-136334837D02*
G75*
G02X181204039Y-136335000I-1041130J1079837D01*
G01*
X180685000Y-134019000D02*
X180685000Y-134175000D01*
X180685000Y-136335000D02*
X180685000Y-136491000D01*
X134387335Y-134176392D02*
G75*
G03X131155000Y-134019484I-1672335J-1078608D01*
G01*
X134387335Y-136333608D02*
G75*
G02X131155000Y-136490516I-1672335J1078608D01*
G01*
X133756130Y-134175163D02*
G75*
G03X131674039Y-134175000I-1041130J-1079837D01*
G01*
X133756130Y-136334837D02*
G75*
G02X131674039Y-136335000I-1041130J1079837D01*
G01*
X131155000Y-134019000D02*
X131155000Y-134175000D01*
X131155000Y-136335000D02*
X131155000Y-136491000D01*
X183917335Y-101156392D02*
G75*
G03X180685000Y-100999484I-1672335J-1078608D01*
G01*
X183917335Y-103313608D02*
G75*
G02X180685000Y-103470516I-1672335J1078608D01*
G01*
X183286130Y-101155163D02*
G75*
G03X181204039Y-101155000I-1041130J-1079837D01*
G01*
X183286130Y-103314837D02*
G75*
G02X181204039Y-103315000I-1041130J1079837D01*
G01*
X180685000Y-100999000D02*
X180685000Y-101155000D01*
X180685000Y-103315000D02*
X180685000Y-103471000D01*
X134387335Y-101156392D02*
G75*
G03X131155000Y-100999484I-1672335J-1078608D01*
G01*
X134387335Y-103313608D02*
G75*
G02X131155000Y-103470516I-1672335J1078608D01*
G01*
X133756130Y-101155163D02*
G75*
G03X131674039Y-101155000I-1041130J-1079837D01*
G01*
X133756130Y-103314837D02*
G75*
G02X131674039Y-103315000I-1041130J1079837D01*
G01*
X131155000Y-100999000D02*
X131155000Y-101155000D01*
X131155000Y-103315000D02*
X131155000Y-103471000D01*
X183917335Y-68136392D02*
G75*
G03X180685000Y-67979484I-1672335J-1078608D01*
G01*
X183917335Y-70293608D02*
G75*
G02X180685000Y-70450516I-1672335J1078608D01*
G01*
X183286130Y-68135163D02*
G75*
G03X181204039Y-68135000I-1041130J-1079837D01*
G01*
X183286130Y-70294837D02*
G75*
G02X181204039Y-70295000I-1041130J1079837D01*
G01*
X180685000Y-67979000D02*
X180685000Y-68135000D01*
X180685000Y-70295000D02*
X180685000Y-70451000D01*
D14*
G04 #@! TO.C,U1*
X200341000Y-124152000D02*
X176719000Y-124152000D01*
X176719000Y-124152000D02*
X176719000Y-109928000D01*
X176719000Y-109928000D02*
X200341000Y-109928000D01*
X200341000Y-109928000D02*
X200341000Y-124152000D01*
X180402000Y-114754000D02*
X180402000Y-123390000D01*
X180402000Y-123390000D02*
X188403000Y-123390000D01*
X188403000Y-123390000D02*
X188403000Y-114754000D01*
X188403000Y-114754000D02*
X180402000Y-114754000D01*
X197039000Y-123644000D02*
X191705000Y-123644000D01*
X191705000Y-123644000D02*
X191705000Y-121739000D01*
X191705000Y-121739000D02*
X197039000Y-121739000D01*
X197039000Y-121739000D02*
X197039000Y-123644000D01*
X190054000Y-114881000D02*
X195896000Y-114881000D01*
X195896000Y-114881000D02*
X195896000Y-118564000D01*
X195896000Y-118564000D02*
X190054000Y-118564000D01*
X190054000Y-118564000D02*
X190054000Y-114881000D01*
X150811000Y-124152000D02*
X127189000Y-124152000D01*
X127189000Y-124152000D02*
X127189000Y-109928000D01*
X127189000Y-109928000D02*
X150811000Y-109928000D01*
X150811000Y-109928000D02*
X150811000Y-124152000D01*
X130872000Y-114754000D02*
X130872000Y-123390000D01*
X130872000Y-123390000D02*
X138873000Y-123390000D01*
X138873000Y-123390000D02*
X138873000Y-114754000D01*
X138873000Y-114754000D02*
X130872000Y-114754000D01*
X147509000Y-123644000D02*
X142175000Y-123644000D01*
X142175000Y-123644000D02*
X142175000Y-121739000D01*
X142175000Y-121739000D02*
X147509000Y-121739000D01*
X147509000Y-121739000D02*
X147509000Y-123644000D01*
X140524000Y-114881000D02*
X146366000Y-114881000D01*
X146366000Y-114881000D02*
X146366000Y-118564000D01*
X146366000Y-118564000D02*
X140524000Y-118564000D01*
X140524000Y-118564000D02*
X140524000Y-114881000D01*
X200341000Y-91132000D02*
X176719000Y-91132000D01*
X176719000Y-91132000D02*
X176719000Y-76908000D01*
X176719000Y-76908000D02*
X200341000Y-76908000D01*
X200341000Y-76908000D02*
X200341000Y-91132000D01*
X180402000Y-81734000D02*
X180402000Y-90370000D01*
X180402000Y-90370000D02*
X188403000Y-90370000D01*
X188403000Y-90370000D02*
X188403000Y-81734000D01*
X188403000Y-81734000D02*
X180402000Y-81734000D01*
X197039000Y-90624000D02*
X191705000Y-90624000D01*
X191705000Y-90624000D02*
X191705000Y-88719000D01*
X191705000Y-88719000D02*
X197039000Y-88719000D01*
X197039000Y-88719000D02*
X197039000Y-90624000D01*
X190054000Y-81861000D02*
X195896000Y-81861000D01*
X195896000Y-81861000D02*
X195896000Y-85544000D01*
X195896000Y-85544000D02*
X190054000Y-85544000D01*
X190054000Y-85544000D02*
X190054000Y-81861000D01*
X150811000Y-91132000D02*
X127189000Y-91132000D01*
X127189000Y-91132000D02*
X127189000Y-76908000D01*
X127189000Y-76908000D02*
X150811000Y-76908000D01*
X150811000Y-76908000D02*
X150811000Y-91132000D01*
X130872000Y-81734000D02*
X130872000Y-90370000D01*
X130872000Y-90370000D02*
X138873000Y-90370000D01*
X138873000Y-90370000D02*
X138873000Y-81734000D01*
X138873000Y-81734000D02*
X130872000Y-81734000D01*
X147509000Y-90624000D02*
X142175000Y-90624000D01*
X142175000Y-90624000D02*
X142175000Y-88719000D01*
X142175000Y-88719000D02*
X147509000Y-88719000D01*
X147509000Y-88719000D02*
X147509000Y-90624000D01*
X140524000Y-81861000D02*
X146366000Y-81861000D01*
X146366000Y-81861000D02*
X146366000Y-85544000D01*
X146366000Y-85544000D02*
X140524000Y-85544000D01*
X140524000Y-85544000D02*
X140524000Y-81861000D01*
X200341000Y-58112000D02*
X176719000Y-58112000D01*
X176719000Y-58112000D02*
X176719000Y-43888000D01*
X176719000Y-43888000D02*
X200341000Y-43888000D01*
X200341000Y-43888000D02*
X200341000Y-58112000D01*
X180402000Y-48714000D02*
X180402000Y-57350000D01*
X180402000Y-57350000D02*
X188403000Y-57350000D01*
X188403000Y-57350000D02*
X188403000Y-48714000D01*
X188403000Y-48714000D02*
X180402000Y-48714000D01*
X197039000Y-57604000D02*
X191705000Y-57604000D01*
X191705000Y-57604000D02*
X191705000Y-55699000D01*
X191705000Y-55699000D02*
X197039000Y-55699000D01*
X197039000Y-55699000D02*
X197039000Y-57604000D01*
X190054000Y-48841000D02*
X195896000Y-48841000D01*
X195896000Y-48841000D02*
X195896000Y-52524000D01*
X195896000Y-52524000D02*
X190054000Y-52524000D01*
X190054000Y-52524000D02*
X190054000Y-48841000D01*
D13*
G04 #@! TO.C,D4*
X139467335Y-68136392D02*
G75*
G03X136235000Y-67979484I-1672335J-1078608D01*
G01*
X139467335Y-70293608D02*
G75*
G02X136235000Y-70450516I-1672335J1078608D01*
G01*
X138836130Y-68135163D02*
G75*
G03X136754039Y-68135000I-1041130J-1079837D01*
G01*
X138836130Y-70294837D02*
G75*
G02X136754039Y-70295000I-1041130J1079837D01*
G01*
X136235000Y-67979000D02*
X136235000Y-68135000D01*
X136235000Y-70295000D02*
X136235000Y-70451000D01*
D14*
G04 #@! TO.C,U3*
X120015000Y-66675000D02*
X130175000Y-66675000D01*
X130175000Y-66675000D02*
X130175000Y-70485000D01*
X130175000Y-70485000D02*
X120015000Y-70485000D01*
X120015000Y-70485000D02*
X120015000Y-66675000D01*
D13*
G04 #@! TO.C,D2*
X131155000Y-70295000D02*
X131155000Y-70451000D01*
X131155000Y-67979000D02*
X131155000Y-68135000D01*
X133756130Y-70294837D02*
G75*
G02X131674039Y-70295000I-1041130J1079837D01*
G01*
X133756130Y-68135163D02*
G75*
G03X131674039Y-68135000I-1041130J-1079837D01*
G01*
X134387335Y-70293608D02*
G75*
G02X131155000Y-70450516I-1672335J1078608D01*
G01*
X134387335Y-68136392D02*
G75*
G03X131155000Y-67979484I-1672335J-1078608D01*
G01*
G04 #@! TO.C,D3*
X141315000Y-70295000D02*
X141315000Y-70451000D01*
X141315000Y-67979000D02*
X141315000Y-68135000D01*
X143916130Y-70294837D02*
G75*
G02X141834039Y-70295000I-1041130J1079837D01*
G01*
X143916130Y-68135163D02*
G75*
G03X141834039Y-68135000I-1041130J-1079837D01*
G01*
X144547335Y-70293608D02*
G75*
G02X141315000Y-70450516I-1672335J1078608D01*
G01*
X144547335Y-68136392D02*
G75*
G03X141315000Y-67979484I-1672335J-1078608D01*
G01*
G04 #@! TO.C,J1*
X154990000Y-40060000D02*
X154990000Y-50910000D01*
X160090000Y-40060000D02*
X154990000Y-40060000D01*
X159790000Y-40560000D02*
X160090000Y-40060000D01*
X165190000Y-40560000D02*
X159790000Y-40560000D01*
X164940000Y-40060000D02*
X165190000Y-40560000D01*
X164990000Y-40060000D02*
X164940000Y-40060000D01*
X166890000Y-40060000D02*
X164990000Y-40060000D01*
X166640000Y-40560000D02*
X166890000Y-40060000D01*
X167590000Y-40560000D02*
X166640000Y-40560000D01*
X167590000Y-50910000D02*
X167590000Y-40560000D01*
X154990000Y-50910000D02*
X167590000Y-50910000D01*
G04 #@! TO.C,J2*
X154990000Y-61070000D02*
X167590000Y-61070000D01*
X167590000Y-61070000D02*
X167590000Y-50720000D01*
X167590000Y-50720000D02*
X166640000Y-50720000D01*
X166640000Y-50720000D02*
X166890000Y-50220000D01*
X166890000Y-50220000D02*
X164990000Y-50220000D01*
X164990000Y-50220000D02*
X164940000Y-50220000D01*
X164940000Y-50220000D02*
X165190000Y-50720000D01*
X165190000Y-50720000D02*
X159790000Y-50720000D01*
X159790000Y-50720000D02*
X160090000Y-50220000D01*
X160090000Y-50220000D02*
X154990000Y-50220000D01*
X154990000Y-50220000D02*
X154990000Y-61070000D01*
G04 #@! TO.C,J3*
X154990000Y-60380000D02*
X154990000Y-71230000D01*
X160090000Y-60380000D02*
X154990000Y-60380000D01*
X159790000Y-60880000D02*
X160090000Y-60380000D01*
X165190000Y-60880000D02*
X159790000Y-60880000D01*
X164940000Y-60380000D02*
X165190000Y-60880000D01*
X164990000Y-60380000D02*
X164940000Y-60380000D01*
X166890000Y-60380000D02*
X164990000Y-60380000D01*
X166640000Y-60880000D02*
X166890000Y-60380000D01*
X167590000Y-60880000D02*
X166640000Y-60880000D01*
X167590000Y-71230000D02*
X167590000Y-60880000D01*
X154990000Y-71230000D02*
X167590000Y-71230000D01*
G04 #@! TO.C,R1*
X123690000Y-45130000D02*
X122690000Y-45130000D01*
X122690000Y-43770000D02*
X123690000Y-43770000D01*
G04 #@! TO.C,R2*
X122690000Y-47580000D02*
X123690000Y-47580000D01*
X123690000Y-48940000D02*
X122690000Y-48940000D01*
G04 #@! TO.C,R3*
X122690000Y-51390000D02*
X123690000Y-51390000D01*
X123690000Y-52750000D02*
X122690000Y-52750000D01*
G04 #@! TO.C,R4*
X122690000Y-55200000D02*
X123690000Y-55200000D01*
X123690000Y-56560000D02*
X122690000Y-56560000D01*
G04 #@! TO.C,R5*
X122690000Y-59010000D02*
X123690000Y-59010000D01*
X123690000Y-60370000D02*
X122690000Y-60370000D01*
G04 #@! TO.C,R6*
X123690000Y-64180000D02*
X122690000Y-64180000D01*
X122690000Y-62820000D02*
X123690000Y-62820000D01*
D14*
G04 #@! TO.C,U1*
X140524000Y-52524000D02*
X140524000Y-48841000D01*
X146366000Y-52524000D02*
X140524000Y-52524000D01*
X146366000Y-48841000D02*
X146366000Y-52524000D01*
X140524000Y-48841000D02*
X146366000Y-48841000D01*
X147509000Y-55699000D02*
X147509000Y-57604000D01*
X142175000Y-55699000D02*
X147509000Y-55699000D01*
X142175000Y-57604000D02*
X142175000Y-55699000D01*
X147509000Y-57604000D02*
X142175000Y-57604000D01*
X138873000Y-48714000D02*
X130872000Y-48714000D01*
X138873000Y-57350000D02*
X138873000Y-48714000D01*
X130872000Y-57350000D02*
X138873000Y-57350000D01*
X130872000Y-48714000D02*
X130872000Y-57350000D01*
X150811000Y-43888000D02*
X150811000Y-58112000D01*
X127189000Y-43888000D02*
X150811000Y-43888000D01*
X127189000Y-58112000D02*
X127189000Y-43888000D01*
X150811000Y-58112000D02*
X127189000Y-58112000D01*
G04 #@! TO.C,U2*
X118860000Y-66670000D02*
X151940000Y-66670000D01*
X153940000Y-64670000D02*
X153940000Y-42010000D01*
X151940000Y-40010000D02*
X125860000Y-40010000D01*
X118860000Y-42160000D02*
X118860000Y-50020000D01*
X118860000Y-50020000D02*
X119860000Y-50020000D01*
X119860000Y-50020000D02*
X119860000Y-58240000D01*
X119860000Y-58240000D02*
X118860000Y-58240000D01*
X118860000Y-58240000D02*
X118860000Y-66669999D01*
X153940000Y-42010000D02*
G75*
G03X151940000Y-40010000I-2000000J0D01*
G01*
X151940000Y-66670000D02*
G75*
G03X153940000Y-64670000I0J2000000D01*
G01*
X118860000Y-42160000D02*
X124860000Y-42160000D01*
X124860000Y-42160000D02*
G75*
G03X125860000Y-41160000I0J1000000D01*
G01*
X125860000Y-41170000D02*
X125860000Y-40010000D01*
X125860000Y-40010000D02*
X125860000Y-40010000D01*
D13*
G04 #@! TO.C,D1*
X143600000Y-59350000D02*
X150500000Y-59350000D01*
X143600000Y-62650000D02*
X150500000Y-62650000D01*
X143600000Y-59350000D02*
X143600000Y-62650000D01*
D14*
G04 #@! TO.C,IRFZ44N1*
G36*
X153556000Y-68349000D02*
X146444000Y-68349000D01*
X146444000Y-68984000D01*
X153556000Y-68984000D01*
X153556000Y-68349000D01*
G37*
X153556000Y-68349000D02*
X146444000Y-68349000D01*
X146444000Y-68984000D01*
X153556000Y-68984000D01*
X153556000Y-68349000D01*
G04 #@! TO.C,R1*
X172553333Y-112212380D02*
X172220000Y-111736190D01*
X171981904Y-112212380D02*
X171981904Y-111212380D01*
X172362857Y-111212380D01*
X172458095Y-111260000D01*
X172505714Y-111307619D01*
X172553333Y-111402857D01*
X172553333Y-111545714D01*
X172505714Y-111640952D01*
X172458095Y-111688571D01*
X172362857Y-111736190D01*
X171981904Y-111736190D01*
X173505714Y-112212380D02*
X172934285Y-112212380D01*
X173220000Y-112212380D02*
X173220000Y-111212380D01*
X173124761Y-111355238D01*
X173029523Y-111450476D01*
X172934285Y-111498095D01*
X123023333Y-112212380D02*
X122690000Y-111736190D01*
X122451904Y-112212380D02*
X122451904Y-111212380D01*
X122832857Y-111212380D01*
X122928095Y-111260000D01*
X122975714Y-111307619D01*
X123023333Y-111402857D01*
X123023333Y-111545714D01*
X122975714Y-111640952D01*
X122928095Y-111688571D01*
X122832857Y-111736190D01*
X122451904Y-111736190D01*
X123975714Y-112212380D02*
X123404285Y-112212380D01*
X123690000Y-112212380D02*
X123690000Y-111212380D01*
X123594761Y-111355238D01*
X123499523Y-111450476D01*
X123404285Y-111498095D01*
X172553333Y-79192380D02*
X172220000Y-78716190D01*
X171981904Y-79192380D02*
X171981904Y-78192380D01*
X172362857Y-78192380D01*
X172458095Y-78240000D01*
X172505714Y-78287619D01*
X172553333Y-78382857D01*
X172553333Y-78525714D01*
X172505714Y-78620952D01*
X172458095Y-78668571D01*
X172362857Y-78716190D01*
X171981904Y-78716190D01*
X173505714Y-79192380D02*
X172934285Y-79192380D01*
X173220000Y-79192380D02*
X173220000Y-78192380D01*
X173124761Y-78335238D01*
X173029523Y-78430476D01*
X172934285Y-78478095D01*
X123023333Y-79192380D02*
X122690000Y-78716190D01*
X122451904Y-79192380D02*
X122451904Y-78192380D01*
X122832857Y-78192380D01*
X122928095Y-78240000D01*
X122975714Y-78287619D01*
X123023333Y-78382857D01*
X123023333Y-78525714D01*
X122975714Y-78620952D01*
X122928095Y-78668571D01*
X122832857Y-78716190D01*
X122451904Y-78716190D01*
X123975714Y-79192380D02*
X123404285Y-79192380D01*
X123690000Y-79192380D02*
X123690000Y-78192380D01*
X123594761Y-78335238D01*
X123499523Y-78430476D01*
X123404285Y-78478095D01*
X172553333Y-46172380D02*
X172220000Y-45696190D01*
X171981904Y-46172380D02*
X171981904Y-45172380D01*
X172362857Y-45172380D01*
X172458095Y-45220000D01*
X172505714Y-45267619D01*
X172553333Y-45362857D01*
X172553333Y-45505714D01*
X172505714Y-45600952D01*
X172458095Y-45648571D01*
X172362857Y-45696190D01*
X171981904Y-45696190D01*
X173505714Y-46172380D02*
X172934285Y-46172380D01*
X173220000Y-46172380D02*
X173220000Y-45172380D01*
X173124761Y-45315238D01*
X173029523Y-45410476D01*
X172934285Y-45458095D01*
G04 #@! TO.C,IRFZ44N1*
X196172857Y-138143380D02*
X196172857Y-137143380D01*
X197220476Y-138143380D02*
X196887142Y-137667190D01*
X196649047Y-138143380D02*
X196649047Y-137143380D01*
X197030000Y-137143380D01*
X197125238Y-137191000D01*
X197172857Y-137238619D01*
X197220476Y-137333857D01*
X197220476Y-137476714D01*
X197172857Y-137571952D01*
X197125238Y-137619571D01*
X197030000Y-137667190D01*
X196649047Y-137667190D01*
X197982380Y-137619571D02*
X197649047Y-137619571D01*
X197649047Y-138143380D02*
X197649047Y-137143380D01*
X198125238Y-137143380D01*
X198410952Y-137143380D02*
X199077619Y-137143380D01*
X198410952Y-138143380D01*
X199077619Y-138143380D01*
X199887142Y-137476714D02*
X199887142Y-138143380D01*
X199649047Y-137095761D02*
X199410952Y-137810047D01*
X200030000Y-137810047D01*
X200839523Y-137476714D02*
X200839523Y-138143380D01*
X200601428Y-137095761D02*
X200363333Y-137810047D01*
X200982380Y-137810047D01*
X201363333Y-138143380D02*
X201363333Y-137143380D01*
X201934761Y-138143380D01*
X201934761Y-137143380D01*
X202934761Y-138143380D02*
X202363333Y-138143380D01*
X202649047Y-138143380D02*
X202649047Y-137143380D01*
X202553809Y-137286238D01*
X202458571Y-137381476D01*
X202363333Y-137429095D01*
X146642857Y-138143380D02*
X146642857Y-137143380D01*
X147690476Y-138143380D02*
X147357142Y-137667190D01*
X147119047Y-138143380D02*
X147119047Y-137143380D01*
X147500000Y-137143380D01*
X147595238Y-137191000D01*
X147642857Y-137238619D01*
X147690476Y-137333857D01*
X147690476Y-137476714D01*
X147642857Y-137571952D01*
X147595238Y-137619571D01*
X147500000Y-137667190D01*
X147119047Y-137667190D01*
X148452380Y-137619571D02*
X148119047Y-137619571D01*
X148119047Y-138143380D02*
X148119047Y-137143380D01*
X148595238Y-137143380D01*
X148880952Y-137143380D02*
X149547619Y-137143380D01*
X148880952Y-138143380D01*
X149547619Y-138143380D01*
X150357142Y-137476714D02*
X150357142Y-138143380D01*
X150119047Y-137095761D02*
X149880952Y-137810047D01*
X150500000Y-137810047D01*
X151309523Y-137476714D02*
X151309523Y-138143380D01*
X151071428Y-137095761D02*
X150833333Y-137810047D01*
X151452380Y-137810047D01*
X151833333Y-138143380D02*
X151833333Y-137143380D01*
X152404761Y-138143380D01*
X152404761Y-137143380D01*
X153404761Y-138143380D02*
X152833333Y-138143380D01*
X153119047Y-138143380D02*
X153119047Y-137143380D01*
X153023809Y-137286238D01*
X152928571Y-137381476D01*
X152833333Y-137429095D01*
X196172857Y-105123380D02*
X196172857Y-104123380D01*
X197220476Y-105123380D02*
X196887142Y-104647190D01*
X196649047Y-105123380D02*
X196649047Y-104123380D01*
X197030000Y-104123380D01*
X197125238Y-104171000D01*
X197172857Y-104218619D01*
X197220476Y-104313857D01*
X197220476Y-104456714D01*
X197172857Y-104551952D01*
X197125238Y-104599571D01*
X197030000Y-104647190D01*
X196649047Y-104647190D01*
X197982380Y-104599571D02*
X197649047Y-104599571D01*
X197649047Y-105123380D02*
X197649047Y-104123380D01*
X198125238Y-104123380D01*
X198410952Y-104123380D02*
X199077619Y-104123380D01*
X198410952Y-105123380D01*
X199077619Y-105123380D01*
X199887142Y-104456714D02*
X199887142Y-105123380D01*
X199649047Y-104075761D02*
X199410952Y-104790047D01*
X200030000Y-104790047D01*
X200839523Y-104456714D02*
X200839523Y-105123380D01*
X200601428Y-104075761D02*
X200363333Y-104790047D01*
X200982380Y-104790047D01*
X201363333Y-105123380D02*
X201363333Y-104123380D01*
X201934761Y-105123380D01*
X201934761Y-104123380D01*
X202934761Y-105123380D02*
X202363333Y-105123380D01*
X202649047Y-105123380D02*
X202649047Y-104123380D01*
X202553809Y-104266238D01*
X202458571Y-104361476D01*
X202363333Y-104409095D01*
X146642857Y-105123380D02*
X146642857Y-104123380D01*
X147690476Y-105123380D02*
X147357142Y-104647190D01*
X147119047Y-105123380D02*
X147119047Y-104123380D01*
X147500000Y-104123380D01*
X147595238Y-104171000D01*
X147642857Y-104218619D01*
X147690476Y-104313857D01*
X147690476Y-104456714D01*
X147642857Y-104551952D01*
X147595238Y-104599571D01*
X147500000Y-104647190D01*
X147119047Y-104647190D01*
X148452380Y-104599571D02*
X148119047Y-104599571D01*
X148119047Y-105123380D02*
X148119047Y-104123380D01*
X148595238Y-104123380D01*
X148880952Y-104123380D02*
X149547619Y-104123380D01*
X148880952Y-105123380D01*
X149547619Y-105123380D01*
X150357142Y-104456714D02*
X150357142Y-105123380D01*
X150119047Y-104075761D02*
X149880952Y-104790047D01*
X150500000Y-104790047D01*
X151309523Y-104456714D02*
X151309523Y-105123380D01*
X151071428Y-104075761D02*
X150833333Y-104790047D01*
X151452380Y-104790047D01*
X151833333Y-105123380D02*
X151833333Y-104123380D01*
X152404761Y-105123380D01*
X152404761Y-104123380D01*
X153404761Y-105123380D02*
X152833333Y-105123380D01*
X153119047Y-105123380D02*
X153119047Y-104123380D01*
X153023809Y-104266238D01*
X152928571Y-104361476D01*
X152833333Y-104409095D01*
X196172857Y-72103380D02*
X196172857Y-71103380D01*
X197220476Y-72103380D02*
X196887142Y-71627190D01*
X196649047Y-72103380D02*
X196649047Y-71103380D01*
X197030000Y-71103380D01*
X197125238Y-71151000D01*
X197172857Y-71198619D01*
X197220476Y-71293857D01*
X197220476Y-71436714D01*
X197172857Y-71531952D01*
X197125238Y-71579571D01*
X197030000Y-71627190D01*
X196649047Y-71627190D01*
X197982380Y-71579571D02*
X197649047Y-71579571D01*
X197649047Y-72103380D02*
X197649047Y-71103380D01*
X198125238Y-71103380D01*
X198410952Y-71103380D02*
X199077619Y-71103380D01*
X198410952Y-72103380D01*
X199077619Y-72103380D01*
X199887142Y-71436714D02*
X199887142Y-72103380D01*
X199649047Y-71055761D02*
X199410952Y-71770047D01*
X200030000Y-71770047D01*
X200839523Y-71436714D02*
X200839523Y-72103380D01*
X200601428Y-71055761D02*
X200363333Y-71770047D01*
X200982380Y-71770047D01*
X201363333Y-72103380D02*
X201363333Y-71103380D01*
X201934761Y-72103380D01*
X201934761Y-71103380D01*
X202934761Y-72103380D02*
X202363333Y-72103380D01*
X202649047Y-72103380D02*
X202649047Y-71103380D01*
X202553809Y-71246238D01*
X202458571Y-71341476D01*
X202363333Y-71389095D01*
G04 #@! TO.C,D1*
X196791904Y-124992380D02*
X196791904Y-123992380D01*
X197030000Y-123992380D01*
X197172857Y-124040000D01*
X197268095Y-124135238D01*
X197315714Y-124230476D01*
X197363333Y-124420952D01*
X197363333Y-124563809D01*
X197315714Y-124754285D01*
X197268095Y-124849523D01*
X197172857Y-124944761D01*
X197030000Y-124992380D01*
X196791904Y-124992380D01*
X198315714Y-124992380D02*
X197744285Y-124992380D01*
X198030000Y-124992380D02*
X198030000Y-123992380D01*
X197934761Y-124135238D01*
X197839523Y-124230476D01*
X197744285Y-124278095D01*
X147261904Y-124992380D02*
X147261904Y-123992380D01*
X147500000Y-123992380D01*
X147642857Y-124040000D01*
X147738095Y-124135238D01*
X147785714Y-124230476D01*
X147833333Y-124420952D01*
X147833333Y-124563809D01*
X147785714Y-124754285D01*
X147738095Y-124849523D01*
X147642857Y-124944761D01*
X147500000Y-124992380D01*
X147261904Y-124992380D01*
X148785714Y-124992380D02*
X148214285Y-124992380D01*
X148500000Y-124992380D02*
X148500000Y-123992380D01*
X148404761Y-124135238D01*
X148309523Y-124230476D01*
X148214285Y-124278095D01*
X196791904Y-91972380D02*
X196791904Y-90972380D01*
X197030000Y-90972380D01*
X197172857Y-91020000D01*
X197268095Y-91115238D01*
X197315714Y-91210476D01*
X197363333Y-91400952D01*
X197363333Y-91543809D01*
X197315714Y-91734285D01*
X197268095Y-91829523D01*
X197172857Y-91924761D01*
X197030000Y-91972380D01*
X196791904Y-91972380D01*
X198315714Y-91972380D02*
X197744285Y-91972380D01*
X198030000Y-91972380D02*
X198030000Y-90972380D01*
X197934761Y-91115238D01*
X197839523Y-91210476D01*
X197744285Y-91258095D01*
X147261904Y-91972380D02*
X147261904Y-90972380D01*
X147500000Y-90972380D01*
X147642857Y-91020000D01*
X147738095Y-91115238D01*
X147785714Y-91210476D01*
X147833333Y-91400952D01*
X147833333Y-91543809D01*
X147785714Y-91734285D01*
X147738095Y-91829523D01*
X147642857Y-91924761D01*
X147500000Y-91972380D01*
X147261904Y-91972380D01*
X148785714Y-91972380D02*
X148214285Y-91972380D01*
X148500000Y-91972380D02*
X148500000Y-90972380D01*
X148404761Y-91115238D01*
X148309523Y-91210476D01*
X148214285Y-91258095D01*
X196791904Y-58952380D02*
X196791904Y-57952380D01*
X197030000Y-57952380D01*
X197172857Y-58000000D01*
X197268095Y-58095238D01*
X197315714Y-58190476D01*
X197363333Y-58380952D01*
X197363333Y-58523809D01*
X197315714Y-58714285D01*
X197268095Y-58809523D01*
X197172857Y-58904761D01*
X197030000Y-58952380D01*
X196791904Y-58952380D01*
X198315714Y-58952380D02*
X197744285Y-58952380D01*
X198030000Y-58952380D02*
X198030000Y-57952380D01*
X197934761Y-58095238D01*
X197839523Y-58190476D01*
X197744285Y-58238095D01*
G04 #@! TO.C,R3*
X172553333Y-119832380D02*
X172220000Y-119356190D01*
X171981904Y-119832380D02*
X171981904Y-118832380D01*
X172362857Y-118832380D01*
X172458095Y-118880000D01*
X172505714Y-118927619D01*
X172553333Y-119022857D01*
X172553333Y-119165714D01*
X172505714Y-119260952D01*
X172458095Y-119308571D01*
X172362857Y-119356190D01*
X171981904Y-119356190D01*
X172886666Y-118832380D02*
X173505714Y-118832380D01*
X173172380Y-119213333D01*
X173315238Y-119213333D01*
X173410476Y-119260952D01*
X173458095Y-119308571D01*
X173505714Y-119403809D01*
X173505714Y-119641904D01*
X173458095Y-119737142D01*
X173410476Y-119784761D01*
X173315238Y-119832380D01*
X173029523Y-119832380D01*
X172934285Y-119784761D01*
X172886666Y-119737142D01*
X123023333Y-119832380D02*
X122690000Y-119356190D01*
X122451904Y-119832380D02*
X122451904Y-118832380D01*
X122832857Y-118832380D01*
X122928095Y-118880000D01*
X122975714Y-118927619D01*
X123023333Y-119022857D01*
X123023333Y-119165714D01*
X122975714Y-119260952D01*
X122928095Y-119308571D01*
X122832857Y-119356190D01*
X122451904Y-119356190D01*
X123356666Y-118832380D02*
X123975714Y-118832380D01*
X123642380Y-119213333D01*
X123785238Y-119213333D01*
X123880476Y-119260952D01*
X123928095Y-119308571D01*
X123975714Y-119403809D01*
X123975714Y-119641904D01*
X123928095Y-119737142D01*
X123880476Y-119784761D01*
X123785238Y-119832380D01*
X123499523Y-119832380D01*
X123404285Y-119784761D01*
X123356666Y-119737142D01*
X172553333Y-86812380D02*
X172220000Y-86336190D01*
X171981904Y-86812380D02*
X171981904Y-85812380D01*
X172362857Y-85812380D01*
X172458095Y-85860000D01*
X172505714Y-85907619D01*
X172553333Y-86002857D01*
X172553333Y-86145714D01*
X172505714Y-86240952D01*
X172458095Y-86288571D01*
X172362857Y-86336190D01*
X171981904Y-86336190D01*
X172886666Y-85812380D02*
X173505714Y-85812380D01*
X173172380Y-86193333D01*
X173315238Y-86193333D01*
X173410476Y-86240952D01*
X173458095Y-86288571D01*
X173505714Y-86383809D01*
X173505714Y-86621904D01*
X173458095Y-86717142D01*
X173410476Y-86764761D01*
X173315238Y-86812380D01*
X173029523Y-86812380D01*
X172934285Y-86764761D01*
X172886666Y-86717142D01*
X123023333Y-86812380D02*
X122690000Y-86336190D01*
X122451904Y-86812380D02*
X122451904Y-85812380D01*
X122832857Y-85812380D01*
X122928095Y-85860000D01*
X122975714Y-85907619D01*
X123023333Y-86002857D01*
X123023333Y-86145714D01*
X122975714Y-86240952D01*
X122928095Y-86288571D01*
X122832857Y-86336190D01*
X122451904Y-86336190D01*
X123356666Y-85812380D02*
X123975714Y-85812380D01*
X123642380Y-86193333D01*
X123785238Y-86193333D01*
X123880476Y-86240952D01*
X123928095Y-86288571D01*
X123975714Y-86383809D01*
X123975714Y-86621904D01*
X123928095Y-86717142D01*
X123880476Y-86764761D01*
X123785238Y-86812380D01*
X123499523Y-86812380D01*
X123404285Y-86764761D01*
X123356666Y-86717142D01*
X172553333Y-53792380D02*
X172220000Y-53316190D01*
X171981904Y-53792380D02*
X171981904Y-52792380D01*
X172362857Y-52792380D01*
X172458095Y-52840000D01*
X172505714Y-52887619D01*
X172553333Y-52982857D01*
X172553333Y-53125714D01*
X172505714Y-53220952D01*
X172458095Y-53268571D01*
X172362857Y-53316190D01*
X171981904Y-53316190D01*
X172886666Y-52792380D02*
X173505714Y-52792380D01*
X173172380Y-53173333D01*
X173315238Y-53173333D01*
X173410476Y-53220952D01*
X173458095Y-53268571D01*
X173505714Y-53363809D01*
X173505714Y-53601904D01*
X173458095Y-53697142D01*
X173410476Y-53744761D01*
X173315238Y-53792380D01*
X173029523Y-53792380D01*
X172934285Y-53744761D01*
X172886666Y-53697142D01*
G04 #@! TO.C,J1*
X203282380Y-116553333D02*
X203996666Y-116553333D01*
X204139523Y-116600952D01*
X204234761Y-116696190D01*
X204282380Y-116839047D01*
X204282380Y-116934285D01*
X204282380Y-115553333D02*
X204282380Y-116124761D01*
X204282380Y-115839047D02*
X203282380Y-115839047D01*
X203425238Y-115934285D01*
X203520476Y-116029523D01*
X203568095Y-116124761D01*
X153752380Y-116553333D02*
X154466666Y-116553333D01*
X154609523Y-116600952D01*
X154704761Y-116696190D01*
X154752380Y-116839047D01*
X154752380Y-116934285D01*
X154752380Y-115553333D02*
X154752380Y-116124761D01*
X154752380Y-115839047D02*
X153752380Y-115839047D01*
X153895238Y-115934285D01*
X153990476Y-116029523D01*
X154038095Y-116124761D01*
X203282380Y-83533333D02*
X203996666Y-83533333D01*
X204139523Y-83580952D01*
X204234761Y-83676190D01*
X204282380Y-83819047D01*
X204282380Y-83914285D01*
X204282380Y-82533333D02*
X204282380Y-83104761D01*
X204282380Y-82819047D02*
X203282380Y-82819047D01*
X203425238Y-82914285D01*
X203520476Y-83009523D01*
X203568095Y-83104761D01*
X153752380Y-83533333D02*
X154466666Y-83533333D01*
X154609523Y-83580952D01*
X154704761Y-83676190D01*
X154752380Y-83819047D01*
X154752380Y-83914285D01*
X154752380Y-82533333D02*
X154752380Y-83104761D01*
X154752380Y-82819047D02*
X153752380Y-82819047D01*
X153895238Y-82914285D01*
X153990476Y-83009523D01*
X154038095Y-83104761D01*
X203282380Y-50513333D02*
X203996666Y-50513333D01*
X204139523Y-50560952D01*
X204234761Y-50656190D01*
X204282380Y-50799047D01*
X204282380Y-50894285D01*
X204282380Y-49513333D02*
X204282380Y-50084761D01*
X204282380Y-49799047D02*
X203282380Y-49799047D01*
X203425238Y-49894285D01*
X203520476Y-49989523D01*
X203568095Y-50084761D01*
G04 #@! TO.C,D3*
X191666904Y-134437380D02*
X191666904Y-133437380D01*
X191905000Y-133437380D01*
X192047857Y-133485000D01*
X192143095Y-133580238D01*
X192190714Y-133675476D01*
X192238333Y-133865952D01*
X192238333Y-134008809D01*
X192190714Y-134199285D01*
X192143095Y-134294523D01*
X192047857Y-134389761D01*
X191905000Y-134437380D01*
X191666904Y-134437380D01*
X192571666Y-133437380D02*
X193190714Y-133437380D01*
X192857380Y-133818333D01*
X193000238Y-133818333D01*
X193095476Y-133865952D01*
X193143095Y-133913571D01*
X193190714Y-134008809D01*
X193190714Y-134246904D01*
X193143095Y-134342142D01*
X193095476Y-134389761D01*
X193000238Y-134437380D01*
X192714523Y-134437380D01*
X192619285Y-134389761D01*
X192571666Y-134342142D01*
X142136904Y-134437380D02*
X142136904Y-133437380D01*
X142375000Y-133437380D01*
X142517857Y-133485000D01*
X142613095Y-133580238D01*
X142660714Y-133675476D01*
X142708333Y-133865952D01*
X142708333Y-134008809D01*
X142660714Y-134199285D01*
X142613095Y-134294523D01*
X142517857Y-134389761D01*
X142375000Y-134437380D01*
X142136904Y-134437380D01*
X143041666Y-133437380D02*
X143660714Y-133437380D01*
X143327380Y-133818333D01*
X143470238Y-133818333D01*
X143565476Y-133865952D01*
X143613095Y-133913571D01*
X143660714Y-134008809D01*
X143660714Y-134246904D01*
X143613095Y-134342142D01*
X143565476Y-134389761D01*
X143470238Y-134437380D01*
X143184523Y-134437380D01*
X143089285Y-134389761D01*
X143041666Y-134342142D01*
X191666904Y-101417380D02*
X191666904Y-100417380D01*
X191905000Y-100417380D01*
X192047857Y-100465000D01*
X192143095Y-100560238D01*
X192190714Y-100655476D01*
X192238333Y-100845952D01*
X192238333Y-100988809D01*
X192190714Y-101179285D01*
X192143095Y-101274523D01*
X192047857Y-101369761D01*
X191905000Y-101417380D01*
X191666904Y-101417380D01*
X192571666Y-100417380D02*
X193190714Y-100417380D01*
X192857380Y-100798333D01*
X193000238Y-100798333D01*
X193095476Y-100845952D01*
X193143095Y-100893571D01*
X193190714Y-100988809D01*
X193190714Y-101226904D01*
X193143095Y-101322142D01*
X193095476Y-101369761D01*
X193000238Y-101417380D01*
X192714523Y-101417380D01*
X192619285Y-101369761D01*
X192571666Y-101322142D01*
X142136904Y-101417380D02*
X142136904Y-100417380D01*
X142375000Y-100417380D01*
X142517857Y-100465000D01*
X142613095Y-100560238D01*
X142660714Y-100655476D01*
X142708333Y-100845952D01*
X142708333Y-100988809D01*
X142660714Y-101179285D01*
X142613095Y-101274523D01*
X142517857Y-101369761D01*
X142375000Y-101417380D01*
X142136904Y-101417380D01*
X143041666Y-100417380D02*
X143660714Y-100417380D01*
X143327380Y-100798333D01*
X143470238Y-100798333D01*
X143565476Y-100845952D01*
X143613095Y-100893571D01*
X143660714Y-100988809D01*
X143660714Y-101226904D01*
X143613095Y-101322142D01*
X143565476Y-101369761D01*
X143470238Y-101417380D01*
X143184523Y-101417380D01*
X143089285Y-101369761D01*
X143041666Y-101322142D01*
X191666904Y-68397380D02*
X191666904Y-67397380D01*
X191905000Y-67397380D01*
X192047857Y-67445000D01*
X192143095Y-67540238D01*
X192190714Y-67635476D01*
X192238333Y-67825952D01*
X192238333Y-67968809D01*
X192190714Y-68159285D01*
X192143095Y-68254523D01*
X192047857Y-68349761D01*
X191905000Y-68397380D01*
X191666904Y-68397380D01*
X192571666Y-67397380D02*
X193190714Y-67397380D01*
X192857380Y-67778333D01*
X193000238Y-67778333D01*
X193095476Y-67825952D01*
X193143095Y-67873571D01*
X193190714Y-67968809D01*
X193190714Y-68206904D01*
X193143095Y-68302142D01*
X193095476Y-68349761D01*
X193000238Y-68397380D01*
X192714523Y-68397380D01*
X192619285Y-68349761D01*
X192571666Y-68302142D01*
G04 #@! TO.C,U2*
X169632380Y-120776904D02*
X170441904Y-120776904D01*
X170537142Y-120729285D01*
X170584761Y-120681666D01*
X170632380Y-120586428D01*
X170632380Y-120395952D01*
X170584761Y-120300714D01*
X170537142Y-120253095D01*
X170441904Y-120205476D01*
X169632380Y-120205476D01*
X169727619Y-119776904D02*
X169680000Y-119729285D01*
X169632380Y-119634047D01*
X169632380Y-119395952D01*
X169680000Y-119300714D01*
X169727619Y-119253095D01*
X169822857Y-119205476D01*
X169918095Y-119205476D01*
X170060952Y-119253095D01*
X170632380Y-119824523D01*
X170632380Y-119205476D01*
X168362380Y-124149904D02*
X169362380Y-123911809D01*
X168648095Y-123721333D01*
X169362380Y-123530857D01*
X168362380Y-123292761D01*
X169314761Y-122530857D02*
X169362380Y-122626095D01*
X169362380Y-122816571D01*
X169314761Y-122911809D01*
X169219523Y-122959428D01*
X168838571Y-122959428D01*
X168743333Y-122911809D01*
X168695714Y-122816571D01*
X168695714Y-122626095D01*
X168743333Y-122530857D01*
X168838571Y-122483238D01*
X168933809Y-122483238D01*
X169029047Y-122959428D01*
X169362380Y-122054666D02*
X168362380Y-122054666D01*
X169076666Y-121721333D01*
X168362380Y-121388000D01*
X169362380Y-121388000D01*
X169362380Y-120768952D02*
X169314761Y-120864190D01*
X169267142Y-120911809D01*
X169171904Y-120959428D01*
X168886190Y-120959428D01*
X168790952Y-120911809D01*
X168743333Y-120864190D01*
X168695714Y-120768952D01*
X168695714Y-120626095D01*
X168743333Y-120530857D01*
X168790952Y-120483238D01*
X168886190Y-120435619D01*
X169171904Y-120435619D01*
X169267142Y-120483238D01*
X169314761Y-120530857D01*
X169362380Y-120626095D01*
X169362380Y-120768952D01*
X169314761Y-120054666D02*
X169362380Y-119959428D01*
X169362380Y-119768952D01*
X169314761Y-119673714D01*
X169219523Y-119626095D01*
X169171904Y-119626095D01*
X169076666Y-119673714D01*
X169029047Y-119768952D01*
X169029047Y-119911809D01*
X168981428Y-120007047D01*
X168886190Y-120054666D01*
X168838571Y-120054666D01*
X168743333Y-120007047D01*
X168695714Y-119911809D01*
X168695714Y-119768952D01*
X168743333Y-119673714D01*
X169457619Y-119435619D02*
X169457619Y-118673714D01*
X169362380Y-118435619D02*
X168695714Y-118435619D01*
X168790952Y-118435619D02*
X168743333Y-118388000D01*
X168695714Y-118292761D01*
X168695714Y-118149904D01*
X168743333Y-118054666D01*
X168838571Y-118007047D01*
X169362380Y-118007047D01*
X168838571Y-118007047D02*
X168743333Y-117959428D01*
X168695714Y-117864190D01*
X168695714Y-117721333D01*
X168743333Y-117626095D01*
X168838571Y-117578476D01*
X169362380Y-117578476D01*
X169362380Y-117102285D02*
X168695714Y-117102285D01*
X168362380Y-117102285D02*
X168410000Y-117149904D01*
X168457619Y-117102285D01*
X168410000Y-117054666D01*
X168362380Y-117102285D01*
X168457619Y-117102285D01*
X168695714Y-116626095D02*
X169362380Y-116626095D01*
X168790952Y-116626095D02*
X168743333Y-116578476D01*
X168695714Y-116483238D01*
X168695714Y-116340380D01*
X168743333Y-116245142D01*
X168838571Y-116197523D01*
X169362380Y-116197523D01*
X169362380Y-115721333D02*
X168695714Y-115721333D01*
X168362380Y-115721333D02*
X168410000Y-115768952D01*
X168457619Y-115721333D01*
X168410000Y-115673714D01*
X168362380Y-115721333D01*
X168457619Y-115721333D01*
X120102380Y-120776904D02*
X120911904Y-120776904D01*
X121007142Y-120729285D01*
X121054761Y-120681666D01*
X121102380Y-120586428D01*
X121102380Y-120395952D01*
X121054761Y-120300714D01*
X121007142Y-120253095D01*
X120911904Y-120205476D01*
X120102380Y-120205476D01*
X120197619Y-119776904D02*
X120150000Y-119729285D01*
X120102380Y-119634047D01*
X120102380Y-119395952D01*
X120150000Y-119300714D01*
X120197619Y-119253095D01*
X120292857Y-119205476D01*
X120388095Y-119205476D01*
X120530952Y-119253095D01*
X121102380Y-119824523D01*
X121102380Y-119205476D01*
X118832380Y-124149904D02*
X119832380Y-123911809D01*
X119118095Y-123721333D01*
X119832380Y-123530857D01*
X118832380Y-123292761D01*
X119784761Y-122530857D02*
X119832380Y-122626095D01*
X119832380Y-122816571D01*
X119784761Y-122911809D01*
X119689523Y-122959428D01*
X119308571Y-122959428D01*
X119213333Y-122911809D01*
X119165714Y-122816571D01*
X119165714Y-122626095D01*
X119213333Y-122530857D01*
X119308571Y-122483238D01*
X119403809Y-122483238D01*
X119499047Y-122959428D01*
X119832380Y-122054666D02*
X118832380Y-122054666D01*
X119546666Y-121721333D01*
X118832380Y-121388000D01*
X119832380Y-121388000D01*
X119832380Y-120768952D02*
X119784761Y-120864190D01*
X119737142Y-120911809D01*
X119641904Y-120959428D01*
X119356190Y-120959428D01*
X119260952Y-120911809D01*
X119213333Y-120864190D01*
X119165714Y-120768952D01*
X119165714Y-120626095D01*
X119213333Y-120530857D01*
X119260952Y-120483238D01*
X119356190Y-120435619D01*
X119641904Y-120435619D01*
X119737142Y-120483238D01*
X119784761Y-120530857D01*
X119832380Y-120626095D01*
X119832380Y-120768952D01*
X119784761Y-120054666D02*
X119832380Y-119959428D01*
X119832380Y-119768952D01*
X119784761Y-119673714D01*
X119689523Y-119626095D01*
X119641904Y-119626095D01*
X119546666Y-119673714D01*
X119499047Y-119768952D01*
X119499047Y-119911809D01*
X119451428Y-120007047D01*
X119356190Y-120054666D01*
X119308571Y-120054666D01*
X119213333Y-120007047D01*
X119165714Y-119911809D01*
X119165714Y-119768952D01*
X119213333Y-119673714D01*
X119927619Y-119435619D02*
X119927619Y-118673714D01*
X119832380Y-118435619D02*
X119165714Y-118435619D01*
X119260952Y-118435619D02*
X119213333Y-118388000D01*
X119165714Y-118292761D01*
X119165714Y-118149904D01*
X119213333Y-118054666D01*
X119308571Y-118007047D01*
X119832380Y-118007047D01*
X119308571Y-118007047D02*
X119213333Y-117959428D01*
X119165714Y-117864190D01*
X119165714Y-117721333D01*
X119213333Y-117626095D01*
X119308571Y-117578476D01*
X119832380Y-117578476D01*
X119832380Y-117102285D02*
X119165714Y-117102285D01*
X118832380Y-117102285D02*
X118880000Y-117149904D01*
X118927619Y-117102285D01*
X118880000Y-117054666D01*
X118832380Y-117102285D01*
X118927619Y-117102285D01*
X119165714Y-116626095D02*
X119832380Y-116626095D01*
X119260952Y-116626095D02*
X119213333Y-116578476D01*
X119165714Y-116483238D01*
X119165714Y-116340380D01*
X119213333Y-116245142D01*
X119308571Y-116197523D01*
X119832380Y-116197523D01*
X119832380Y-115721333D02*
X119165714Y-115721333D01*
X118832380Y-115721333D02*
X118880000Y-115768952D01*
X118927619Y-115721333D01*
X118880000Y-115673714D01*
X118832380Y-115721333D01*
X118927619Y-115721333D01*
X169632380Y-87756904D02*
X170441904Y-87756904D01*
X170537142Y-87709285D01*
X170584761Y-87661666D01*
X170632380Y-87566428D01*
X170632380Y-87375952D01*
X170584761Y-87280714D01*
X170537142Y-87233095D01*
X170441904Y-87185476D01*
X169632380Y-87185476D01*
X169727619Y-86756904D02*
X169680000Y-86709285D01*
X169632380Y-86614047D01*
X169632380Y-86375952D01*
X169680000Y-86280714D01*
X169727619Y-86233095D01*
X169822857Y-86185476D01*
X169918095Y-86185476D01*
X170060952Y-86233095D01*
X170632380Y-86804523D01*
X170632380Y-86185476D01*
X168362380Y-91129904D02*
X169362380Y-90891809D01*
X168648095Y-90701333D01*
X169362380Y-90510857D01*
X168362380Y-90272761D01*
X169314761Y-89510857D02*
X169362380Y-89606095D01*
X169362380Y-89796571D01*
X169314761Y-89891809D01*
X169219523Y-89939428D01*
X168838571Y-89939428D01*
X168743333Y-89891809D01*
X168695714Y-89796571D01*
X168695714Y-89606095D01*
X168743333Y-89510857D01*
X168838571Y-89463238D01*
X168933809Y-89463238D01*
X169029047Y-89939428D01*
X169362380Y-89034666D02*
X168362380Y-89034666D01*
X169076666Y-88701333D01*
X168362380Y-88368000D01*
X169362380Y-88368000D01*
X169362380Y-87748952D02*
X169314761Y-87844190D01*
X169267142Y-87891809D01*
X169171904Y-87939428D01*
X168886190Y-87939428D01*
X168790952Y-87891809D01*
X168743333Y-87844190D01*
X168695714Y-87748952D01*
X168695714Y-87606095D01*
X168743333Y-87510857D01*
X168790952Y-87463238D01*
X168886190Y-87415619D01*
X169171904Y-87415619D01*
X169267142Y-87463238D01*
X169314761Y-87510857D01*
X169362380Y-87606095D01*
X169362380Y-87748952D01*
X169314761Y-87034666D02*
X169362380Y-86939428D01*
X169362380Y-86748952D01*
X169314761Y-86653714D01*
X169219523Y-86606095D01*
X169171904Y-86606095D01*
X169076666Y-86653714D01*
X169029047Y-86748952D01*
X169029047Y-86891809D01*
X168981428Y-86987047D01*
X168886190Y-87034666D01*
X168838571Y-87034666D01*
X168743333Y-86987047D01*
X168695714Y-86891809D01*
X168695714Y-86748952D01*
X168743333Y-86653714D01*
X169457619Y-86415619D02*
X169457619Y-85653714D01*
X169362380Y-85415619D02*
X168695714Y-85415619D01*
X168790952Y-85415619D02*
X168743333Y-85368000D01*
X168695714Y-85272761D01*
X168695714Y-85129904D01*
X168743333Y-85034666D01*
X168838571Y-84987047D01*
X169362380Y-84987047D01*
X168838571Y-84987047D02*
X168743333Y-84939428D01*
X168695714Y-84844190D01*
X168695714Y-84701333D01*
X168743333Y-84606095D01*
X168838571Y-84558476D01*
X169362380Y-84558476D01*
X169362380Y-84082285D02*
X168695714Y-84082285D01*
X168362380Y-84082285D02*
X168410000Y-84129904D01*
X168457619Y-84082285D01*
X168410000Y-84034666D01*
X168362380Y-84082285D01*
X168457619Y-84082285D01*
X168695714Y-83606095D02*
X169362380Y-83606095D01*
X168790952Y-83606095D02*
X168743333Y-83558476D01*
X168695714Y-83463238D01*
X168695714Y-83320380D01*
X168743333Y-83225142D01*
X168838571Y-83177523D01*
X169362380Y-83177523D01*
X169362380Y-82701333D02*
X168695714Y-82701333D01*
X168362380Y-82701333D02*
X168410000Y-82748952D01*
X168457619Y-82701333D01*
X168410000Y-82653714D01*
X168362380Y-82701333D01*
X168457619Y-82701333D01*
X120102380Y-87756904D02*
X120911904Y-87756904D01*
X121007142Y-87709285D01*
X121054761Y-87661666D01*
X121102380Y-87566428D01*
X121102380Y-87375952D01*
X121054761Y-87280714D01*
X121007142Y-87233095D01*
X120911904Y-87185476D01*
X120102380Y-87185476D01*
X120197619Y-86756904D02*
X120150000Y-86709285D01*
X120102380Y-86614047D01*
X120102380Y-86375952D01*
X120150000Y-86280714D01*
X120197619Y-86233095D01*
X120292857Y-86185476D01*
X120388095Y-86185476D01*
X120530952Y-86233095D01*
X121102380Y-86804523D01*
X121102380Y-86185476D01*
X118832380Y-91129904D02*
X119832380Y-90891809D01*
X119118095Y-90701333D01*
X119832380Y-90510857D01*
X118832380Y-90272761D01*
X119784761Y-89510857D02*
X119832380Y-89606095D01*
X119832380Y-89796571D01*
X119784761Y-89891809D01*
X119689523Y-89939428D01*
X119308571Y-89939428D01*
X119213333Y-89891809D01*
X119165714Y-89796571D01*
X119165714Y-89606095D01*
X119213333Y-89510857D01*
X119308571Y-89463238D01*
X119403809Y-89463238D01*
X119499047Y-89939428D01*
X119832380Y-89034666D02*
X118832380Y-89034666D01*
X119546666Y-88701333D01*
X118832380Y-88368000D01*
X119832380Y-88368000D01*
X119832380Y-87748952D02*
X119784761Y-87844190D01*
X119737142Y-87891809D01*
X119641904Y-87939428D01*
X119356190Y-87939428D01*
X119260952Y-87891809D01*
X119213333Y-87844190D01*
X119165714Y-87748952D01*
X119165714Y-87606095D01*
X119213333Y-87510857D01*
X119260952Y-87463238D01*
X119356190Y-87415619D01*
X119641904Y-87415619D01*
X119737142Y-87463238D01*
X119784761Y-87510857D01*
X119832380Y-87606095D01*
X119832380Y-87748952D01*
X119784761Y-87034666D02*
X119832380Y-86939428D01*
X119832380Y-86748952D01*
X119784761Y-86653714D01*
X119689523Y-86606095D01*
X119641904Y-86606095D01*
X119546666Y-86653714D01*
X119499047Y-86748952D01*
X119499047Y-86891809D01*
X119451428Y-86987047D01*
X119356190Y-87034666D01*
X119308571Y-87034666D01*
X119213333Y-86987047D01*
X119165714Y-86891809D01*
X119165714Y-86748952D01*
X119213333Y-86653714D01*
X119927619Y-86415619D02*
X119927619Y-85653714D01*
X119832380Y-85415619D02*
X119165714Y-85415619D01*
X119260952Y-85415619D02*
X119213333Y-85368000D01*
X119165714Y-85272761D01*
X119165714Y-85129904D01*
X119213333Y-85034666D01*
X119308571Y-84987047D01*
X119832380Y-84987047D01*
X119308571Y-84987047D02*
X119213333Y-84939428D01*
X119165714Y-84844190D01*
X119165714Y-84701333D01*
X119213333Y-84606095D01*
X119308571Y-84558476D01*
X119832380Y-84558476D01*
X119832380Y-84082285D02*
X119165714Y-84082285D01*
X118832380Y-84082285D02*
X118880000Y-84129904D01*
X118927619Y-84082285D01*
X118880000Y-84034666D01*
X118832380Y-84082285D01*
X118927619Y-84082285D01*
X119165714Y-83606095D02*
X119832380Y-83606095D01*
X119260952Y-83606095D02*
X119213333Y-83558476D01*
X119165714Y-83463238D01*
X119165714Y-83320380D01*
X119213333Y-83225142D01*
X119308571Y-83177523D01*
X119832380Y-83177523D01*
X119832380Y-82701333D02*
X119165714Y-82701333D01*
X118832380Y-82701333D02*
X118880000Y-82748952D01*
X118927619Y-82701333D01*
X118880000Y-82653714D01*
X118832380Y-82701333D01*
X118927619Y-82701333D01*
X169632380Y-54736904D02*
X170441904Y-54736904D01*
X170537142Y-54689285D01*
X170584761Y-54641666D01*
X170632380Y-54546428D01*
X170632380Y-54355952D01*
X170584761Y-54260714D01*
X170537142Y-54213095D01*
X170441904Y-54165476D01*
X169632380Y-54165476D01*
X169727619Y-53736904D02*
X169680000Y-53689285D01*
X169632380Y-53594047D01*
X169632380Y-53355952D01*
X169680000Y-53260714D01*
X169727619Y-53213095D01*
X169822857Y-53165476D01*
X169918095Y-53165476D01*
X170060952Y-53213095D01*
X170632380Y-53784523D01*
X170632380Y-53165476D01*
X168362380Y-58109904D02*
X169362380Y-57871809D01*
X168648095Y-57681333D01*
X169362380Y-57490857D01*
X168362380Y-57252761D01*
X169314761Y-56490857D02*
X169362380Y-56586095D01*
X169362380Y-56776571D01*
X169314761Y-56871809D01*
X169219523Y-56919428D01*
X168838571Y-56919428D01*
X168743333Y-56871809D01*
X168695714Y-56776571D01*
X168695714Y-56586095D01*
X168743333Y-56490857D01*
X168838571Y-56443238D01*
X168933809Y-56443238D01*
X169029047Y-56919428D01*
X169362380Y-56014666D02*
X168362380Y-56014666D01*
X169076666Y-55681333D01*
X168362380Y-55348000D01*
X169362380Y-55348000D01*
X169362380Y-54728952D02*
X169314761Y-54824190D01*
X169267142Y-54871809D01*
X169171904Y-54919428D01*
X168886190Y-54919428D01*
X168790952Y-54871809D01*
X168743333Y-54824190D01*
X168695714Y-54728952D01*
X168695714Y-54586095D01*
X168743333Y-54490857D01*
X168790952Y-54443238D01*
X168886190Y-54395619D01*
X169171904Y-54395619D01*
X169267142Y-54443238D01*
X169314761Y-54490857D01*
X169362380Y-54586095D01*
X169362380Y-54728952D01*
X169314761Y-54014666D02*
X169362380Y-53919428D01*
X169362380Y-53728952D01*
X169314761Y-53633714D01*
X169219523Y-53586095D01*
X169171904Y-53586095D01*
X169076666Y-53633714D01*
X169029047Y-53728952D01*
X169029047Y-53871809D01*
X168981428Y-53967047D01*
X168886190Y-54014666D01*
X168838571Y-54014666D01*
X168743333Y-53967047D01*
X168695714Y-53871809D01*
X168695714Y-53728952D01*
X168743333Y-53633714D01*
X169457619Y-53395619D02*
X169457619Y-52633714D01*
X169362380Y-52395619D02*
X168695714Y-52395619D01*
X168790952Y-52395619D02*
X168743333Y-52348000D01*
X168695714Y-52252761D01*
X168695714Y-52109904D01*
X168743333Y-52014666D01*
X168838571Y-51967047D01*
X169362380Y-51967047D01*
X168838571Y-51967047D02*
X168743333Y-51919428D01*
X168695714Y-51824190D01*
X168695714Y-51681333D01*
X168743333Y-51586095D01*
X168838571Y-51538476D01*
X169362380Y-51538476D01*
X169362380Y-51062285D02*
X168695714Y-51062285D01*
X168362380Y-51062285D02*
X168410000Y-51109904D01*
X168457619Y-51062285D01*
X168410000Y-51014666D01*
X168362380Y-51062285D01*
X168457619Y-51062285D01*
X168695714Y-50586095D02*
X169362380Y-50586095D01*
X168790952Y-50586095D02*
X168743333Y-50538476D01*
X168695714Y-50443238D01*
X168695714Y-50300380D01*
X168743333Y-50205142D01*
X168838571Y-50157523D01*
X169362380Y-50157523D01*
X169362380Y-49681333D02*
X168695714Y-49681333D01*
X168362380Y-49681333D02*
X168410000Y-49728952D01*
X168457619Y-49681333D01*
X168410000Y-49633714D01*
X168362380Y-49681333D01*
X168457619Y-49681333D01*
G04 #@! TO.C,J3*
X203282380Y-136873333D02*
X203996666Y-136873333D01*
X204139523Y-136920952D01*
X204234761Y-137016190D01*
X204282380Y-137159047D01*
X204282380Y-137254285D01*
X203282380Y-136492380D02*
X203282380Y-135873333D01*
X203663333Y-136206666D01*
X203663333Y-136063809D01*
X203710952Y-135968571D01*
X203758571Y-135920952D01*
X203853809Y-135873333D01*
X204091904Y-135873333D01*
X204187142Y-135920952D01*
X204234761Y-135968571D01*
X204282380Y-136063809D01*
X204282380Y-136349523D01*
X204234761Y-136444761D01*
X204187142Y-136492380D01*
X153752380Y-136873333D02*
X154466666Y-136873333D01*
X154609523Y-136920952D01*
X154704761Y-137016190D01*
X154752380Y-137159047D01*
X154752380Y-137254285D01*
X153752380Y-136492380D02*
X153752380Y-135873333D01*
X154133333Y-136206666D01*
X154133333Y-136063809D01*
X154180952Y-135968571D01*
X154228571Y-135920952D01*
X154323809Y-135873333D01*
X154561904Y-135873333D01*
X154657142Y-135920952D01*
X154704761Y-135968571D01*
X154752380Y-136063809D01*
X154752380Y-136349523D01*
X154704761Y-136444761D01*
X154657142Y-136492380D01*
X203282380Y-103853333D02*
X203996666Y-103853333D01*
X204139523Y-103900952D01*
X204234761Y-103996190D01*
X204282380Y-104139047D01*
X204282380Y-104234285D01*
X203282380Y-103472380D02*
X203282380Y-102853333D01*
X203663333Y-103186666D01*
X203663333Y-103043809D01*
X203710952Y-102948571D01*
X203758571Y-102900952D01*
X203853809Y-102853333D01*
X204091904Y-102853333D01*
X204187142Y-102900952D01*
X204234761Y-102948571D01*
X204282380Y-103043809D01*
X204282380Y-103329523D01*
X204234761Y-103424761D01*
X204187142Y-103472380D01*
X153752380Y-103853333D02*
X154466666Y-103853333D01*
X154609523Y-103900952D01*
X154704761Y-103996190D01*
X154752380Y-104139047D01*
X154752380Y-104234285D01*
X153752380Y-103472380D02*
X153752380Y-102853333D01*
X154133333Y-103186666D01*
X154133333Y-103043809D01*
X154180952Y-102948571D01*
X154228571Y-102900952D01*
X154323809Y-102853333D01*
X154561904Y-102853333D01*
X154657142Y-102900952D01*
X154704761Y-102948571D01*
X154752380Y-103043809D01*
X154752380Y-103329523D01*
X154704761Y-103424761D01*
X154657142Y-103472380D01*
X203282380Y-70833333D02*
X203996666Y-70833333D01*
X204139523Y-70880952D01*
X204234761Y-70976190D01*
X204282380Y-71119047D01*
X204282380Y-71214285D01*
X203282380Y-70452380D02*
X203282380Y-69833333D01*
X203663333Y-70166666D01*
X203663333Y-70023809D01*
X203710952Y-69928571D01*
X203758571Y-69880952D01*
X203853809Y-69833333D01*
X204091904Y-69833333D01*
X204187142Y-69880952D01*
X204234761Y-69928571D01*
X204282380Y-70023809D01*
X204282380Y-70309523D01*
X204234761Y-70404761D01*
X204187142Y-70452380D01*
G04 #@! TO.C,J2*
X203282380Y-126713333D02*
X203996666Y-126713333D01*
X204139523Y-126760952D01*
X204234761Y-126856190D01*
X204282380Y-126999047D01*
X204282380Y-127094285D01*
X203377619Y-126284761D02*
X203330000Y-126237142D01*
X203282380Y-126141904D01*
X203282380Y-125903809D01*
X203330000Y-125808571D01*
X203377619Y-125760952D01*
X203472857Y-125713333D01*
X203568095Y-125713333D01*
X203710952Y-125760952D01*
X204282380Y-126332380D01*
X204282380Y-125713333D01*
X153752380Y-126713333D02*
X154466666Y-126713333D01*
X154609523Y-126760952D01*
X154704761Y-126856190D01*
X154752380Y-126999047D01*
X154752380Y-127094285D01*
X153847619Y-126284761D02*
X153800000Y-126237142D01*
X153752380Y-126141904D01*
X153752380Y-125903809D01*
X153800000Y-125808571D01*
X153847619Y-125760952D01*
X153942857Y-125713333D01*
X154038095Y-125713333D01*
X154180952Y-125760952D01*
X154752380Y-126332380D01*
X154752380Y-125713333D01*
X203282380Y-93693333D02*
X203996666Y-93693333D01*
X204139523Y-93740952D01*
X204234761Y-93836190D01*
X204282380Y-93979047D01*
X204282380Y-94074285D01*
X203377619Y-93264761D02*
X203330000Y-93217142D01*
X203282380Y-93121904D01*
X203282380Y-92883809D01*
X203330000Y-92788571D01*
X203377619Y-92740952D01*
X203472857Y-92693333D01*
X203568095Y-92693333D01*
X203710952Y-92740952D01*
X204282380Y-93312380D01*
X204282380Y-92693333D01*
X153752380Y-93693333D02*
X154466666Y-93693333D01*
X154609523Y-93740952D01*
X154704761Y-93836190D01*
X154752380Y-93979047D01*
X154752380Y-94074285D01*
X153847619Y-93264761D02*
X153800000Y-93217142D01*
X153752380Y-93121904D01*
X153752380Y-92883809D01*
X153800000Y-92788571D01*
X153847619Y-92740952D01*
X153942857Y-92693333D01*
X154038095Y-92693333D01*
X154180952Y-92740952D01*
X154752380Y-93312380D01*
X154752380Y-92693333D01*
X203282380Y-60673333D02*
X203996666Y-60673333D01*
X204139523Y-60720952D01*
X204234761Y-60816190D01*
X204282380Y-60959047D01*
X204282380Y-61054285D01*
X203377619Y-60244761D02*
X203330000Y-60197142D01*
X203282380Y-60101904D01*
X203282380Y-59863809D01*
X203330000Y-59768571D01*
X203377619Y-59720952D01*
X203472857Y-59673333D01*
X203568095Y-59673333D01*
X203710952Y-59720952D01*
X204282380Y-60292380D01*
X204282380Y-59673333D01*
G04 #@! TO.C,R6*
X172553333Y-131262380D02*
X172220000Y-130786190D01*
X171981904Y-131262380D02*
X171981904Y-130262380D01*
X172362857Y-130262380D01*
X172458095Y-130310000D01*
X172505714Y-130357619D01*
X172553333Y-130452857D01*
X172553333Y-130595714D01*
X172505714Y-130690952D01*
X172458095Y-130738571D01*
X172362857Y-130786190D01*
X171981904Y-130786190D01*
X173410476Y-130262380D02*
X173220000Y-130262380D01*
X173124761Y-130310000D01*
X173077142Y-130357619D01*
X172981904Y-130500476D01*
X172934285Y-130690952D01*
X172934285Y-131071904D01*
X172981904Y-131167142D01*
X173029523Y-131214761D01*
X173124761Y-131262380D01*
X173315238Y-131262380D01*
X173410476Y-131214761D01*
X173458095Y-131167142D01*
X173505714Y-131071904D01*
X173505714Y-130833809D01*
X173458095Y-130738571D01*
X173410476Y-130690952D01*
X173315238Y-130643333D01*
X173124761Y-130643333D01*
X173029523Y-130690952D01*
X172981904Y-130738571D01*
X172934285Y-130833809D01*
X123023333Y-131262380D02*
X122690000Y-130786190D01*
X122451904Y-131262380D02*
X122451904Y-130262380D01*
X122832857Y-130262380D01*
X122928095Y-130310000D01*
X122975714Y-130357619D01*
X123023333Y-130452857D01*
X123023333Y-130595714D01*
X122975714Y-130690952D01*
X122928095Y-130738571D01*
X122832857Y-130786190D01*
X122451904Y-130786190D01*
X123880476Y-130262380D02*
X123690000Y-130262380D01*
X123594761Y-130310000D01*
X123547142Y-130357619D01*
X123451904Y-130500476D01*
X123404285Y-130690952D01*
X123404285Y-131071904D01*
X123451904Y-131167142D01*
X123499523Y-131214761D01*
X123594761Y-131262380D01*
X123785238Y-131262380D01*
X123880476Y-131214761D01*
X123928095Y-131167142D01*
X123975714Y-131071904D01*
X123975714Y-130833809D01*
X123928095Y-130738571D01*
X123880476Y-130690952D01*
X123785238Y-130643333D01*
X123594761Y-130643333D01*
X123499523Y-130690952D01*
X123451904Y-130738571D01*
X123404285Y-130833809D01*
X172553333Y-98242380D02*
X172220000Y-97766190D01*
X171981904Y-98242380D02*
X171981904Y-97242380D01*
X172362857Y-97242380D01*
X172458095Y-97290000D01*
X172505714Y-97337619D01*
X172553333Y-97432857D01*
X172553333Y-97575714D01*
X172505714Y-97670952D01*
X172458095Y-97718571D01*
X172362857Y-97766190D01*
X171981904Y-97766190D01*
X173410476Y-97242380D02*
X173220000Y-97242380D01*
X173124761Y-97290000D01*
X173077142Y-97337619D01*
X172981904Y-97480476D01*
X172934285Y-97670952D01*
X172934285Y-98051904D01*
X172981904Y-98147142D01*
X173029523Y-98194761D01*
X173124761Y-98242380D01*
X173315238Y-98242380D01*
X173410476Y-98194761D01*
X173458095Y-98147142D01*
X173505714Y-98051904D01*
X173505714Y-97813809D01*
X173458095Y-97718571D01*
X173410476Y-97670952D01*
X173315238Y-97623333D01*
X173124761Y-97623333D01*
X173029523Y-97670952D01*
X172981904Y-97718571D01*
X172934285Y-97813809D01*
X123023333Y-98242380D02*
X122690000Y-97766190D01*
X122451904Y-98242380D02*
X122451904Y-97242380D01*
X122832857Y-97242380D01*
X122928095Y-97290000D01*
X122975714Y-97337619D01*
X123023333Y-97432857D01*
X123023333Y-97575714D01*
X122975714Y-97670952D01*
X122928095Y-97718571D01*
X122832857Y-97766190D01*
X122451904Y-97766190D01*
X123880476Y-97242380D02*
X123690000Y-97242380D01*
X123594761Y-97290000D01*
X123547142Y-97337619D01*
X123451904Y-97480476D01*
X123404285Y-97670952D01*
X123404285Y-98051904D01*
X123451904Y-98147142D01*
X123499523Y-98194761D01*
X123594761Y-98242380D01*
X123785238Y-98242380D01*
X123880476Y-98194761D01*
X123928095Y-98147142D01*
X123975714Y-98051904D01*
X123975714Y-97813809D01*
X123928095Y-97718571D01*
X123880476Y-97670952D01*
X123785238Y-97623333D01*
X123594761Y-97623333D01*
X123499523Y-97670952D01*
X123451904Y-97718571D01*
X123404285Y-97813809D01*
X172553333Y-65222380D02*
X172220000Y-64746190D01*
X171981904Y-65222380D02*
X171981904Y-64222380D01*
X172362857Y-64222380D01*
X172458095Y-64270000D01*
X172505714Y-64317619D01*
X172553333Y-64412857D01*
X172553333Y-64555714D01*
X172505714Y-64650952D01*
X172458095Y-64698571D01*
X172362857Y-64746190D01*
X171981904Y-64746190D01*
X173410476Y-64222380D02*
X173220000Y-64222380D01*
X173124761Y-64270000D01*
X173077142Y-64317619D01*
X172981904Y-64460476D01*
X172934285Y-64650952D01*
X172934285Y-65031904D01*
X172981904Y-65127142D01*
X173029523Y-65174761D01*
X173124761Y-65222380D01*
X173315238Y-65222380D01*
X173410476Y-65174761D01*
X173458095Y-65127142D01*
X173505714Y-65031904D01*
X173505714Y-64793809D01*
X173458095Y-64698571D01*
X173410476Y-64650952D01*
X173315238Y-64603333D01*
X173124761Y-64603333D01*
X173029523Y-64650952D01*
X172981904Y-64698571D01*
X172934285Y-64793809D01*
G04 #@! TO.C,R4*
X172553333Y-123642380D02*
X172220000Y-123166190D01*
X171981904Y-123642380D02*
X171981904Y-122642380D01*
X172362857Y-122642380D01*
X172458095Y-122690000D01*
X172505714Y-122737619D01*
X172553333Y-122832857D01*
X172553333Y-122975714D01*
X172505714Y-123070952D01*
X172458095Y-123118571D01*
X172362857Y-123166190D01*
X171981904Y-123166190D01*
X173410476Y-122975714D02*
X173410476Y-123642380D01*
X173172380Y-122594761D02*
X172934285Y-123309047D01*
X173553333Y-123309047D01*
X123023333Y-123642380D02*
X122690000Y-123166190D01*
X122451904Y-123642380D02*
X122451904Y-122642380D01*
X122832857Y-122642380D01*
X122928095Y-122690000D01*
X122975714Y-122737619D01*
X123023333Y-122832857D01*
X123023333Y-122975714D01*
X122975714Y-123070952D01*
X122928095Y-123118571D01*
X122832857Y-123166190D01*
X122451904Y-123166190D01*
X123880476Y-122975714D02*
X123880476Y-123642380D01*
X123642380Y-122594761D02*
X123404285Y-123309047D01*
X124023333Y-123309047D01*
X172553333Y-90622380D02*
X172220000Y-90146190D01*
X171981904Y-90622380D02*
X171981904Y-89622380D01*
X172362857Y-89622380D01*
X172458095Y-89670000D01*
X172505714Y-89717619D01*
X172553333Y-89812857D01*
X172553333Y-89955714D01*
X172505714Y-90050952D01*
X172458095Y-90098571D01*
X172362857Y-90146190D01*
X171981904Y-90146190D01*
X173410476Y-89955714D02*
X173410476Y-90622380D01*
X173172380Y-89574761D02*
X172934285Y-90289047D01*
X173553333Y-90289047D01*
X123023333Y-90622380D02*
X122690000Y-90146190D01*
X122451904Y-90622380D02*
X122451904Y-89622380D01*
X122832857Y-89622380D01*
X122928095Y-89670000D01*
X122975714Y-89717619D01*
X123023333Y-89812857D01*
X123023333Y-89955714D01*
X122975714Y-90050952D01*
X122928095Y-90098571D01*
X122832857Y-90146190D01*
X122451904Y-90146190D01*
X123880476Y-89955714D02*
X123880476Y-90622380D01*
X123642380Y-89574761D02*
X123404285Y-90289047D01*
X124023333Y-90289047D01*
X172553333Y-57602380D02*
X172220000Y-57126190D01*
X171981904Y-57602380D02*
X171981904Y-56602380D01*
X172362857Y-56602380D01*
X172458095Y-56650000D01*
X172505714Y-56697619D01*
X172553333Y-56792857D01*
X172553333Y-56935714D01*
X172505714Y-57030952D01*
X172458095Y-57078571D01*
X172362857Y-57126190D01*
X171981904Y-57126190D01*
X173410476Y-56935714D02*
X173410476Y-57602380D01*
X173172380Y-56554761D02*
X172934285Y-57269047D01*
X173553333Y-57269047D01*
G04 #@! TO.C,R2*
X172553333Y-116022380D02*
X172220000Y-115546190D01*
X171981904Y-116022380D02*
X171981904Y-115022380D01*
X172362857Y-115022380D01*
X172458095Y-115070000D01*
X172505714Y-115117619D01*
X172553333Y-115212857D01*
X172553333Y-115355714D01*
X172505714Y-115450952D01*
X172458095Y-115498571D01*
X172362857Y-115546190D01*
X171981904Y-115546190D01*
X172934285Y-115117619D02*
X172981904Y-115070000D01*
X173077142Y-115022380D01*
X173315238Y-115022380D01*
X173410476Y-115070000D01*
X173458095Y-115117619D01*
X173505714Y-115212857D01*
X173505714Y-115308095D01*
X173458095Y-115450952D01*
X172886666Y-116022380D01*
X173505714Y-116022380D01*
X123023333Y-116022380D02*
X122690000Y-115546190D01*
X122451904Y-116022380D02*
X122451904Y-115022380D01*
X122832857Y-115022380D01*
X122928095Y-115070000D01*
X122975714Y-115117619D01*
X123023333Y-115212857D01*
X123023333Y-115355714D01*
X122975714Y-115450952D01*
X122928095Y-115498571D01*
X122832857Y-115546190D01*
X122451904Y-115546190D01*
X123404285Y-115117619D02*
X123451904Y-115070000D01*
X123547142Y-115022380D01*
X123785238Y-115022380D01*
X123880476Y-115070000D01*
X123928095Y-115117619D01*
X123975714Y-115212857D01*
X123975714Y-115308095D01*
X123928095Y-115450952D01*
X123356666Y-116022380D01*
X123975714Y-116022380D01*
X172553333Y-83002380D02*
X172220000Y-82526190D01*
X171981904Y-83002380D02*
X171981904Y-82002380D01*
X172362857Y-82002380D01*
X172458095Y-82050000D01*
X172505714Y-82097619D01*
X172553333Y-82192857D01*
X172553333Y-82335714D01*
X172505714Y-82430952D01*
X172458095Y-82478571D01*
X172362857Y-82526190D01*
X171981904Y-82526190D01*
X172934285Y-82097619D02*
X172981904Y-82050000D01*
X173077142Y-82002380D01*
X173315238Y-82002380D01*
X173410476Y-82050000D01*
X173458095Y-82097619D01*
X173505714Y-82192857D01*
X173505714Y-82288095D01*
X173458095Y-82430952D01*
X172886666Y-83002380D01*
X173505714Y-83002380D01*
X123023333Y-83002380D02*
X122690000Y-82526190D01*
X122451904Y-83002380D02*
X122451904Y-82002380D01*
X122832857Y-82002380D01*
X122928095Y-82050000D01*
X122975714Y-82097619D01*
X123023333Y-82192857D01*
X123023333Y-82335714D01*
X122975714Y-82430952D01*
X122928095Y-82478571D01*
X122832857Y-82526190D01*
X122451904Y-82526190D01*
X123404285Y-82097619D02*
X123451904Y-82050000D01*
X123547142Y-82002380D01*
X123785238Y-82002380D01*
X123880476Y-82050000D01*
X123928095Y-82097619D01*
X123975714Y-82192857D01*
X123975714Y-82288095D01*
X123928095Y-82430952D01*
X123356666Y-83002380D01*
X123975714Y-83002380D01*
X172553333Y-49982380D02*
X172220000Y-49506190D01*
X171981904Y-49982380D02*
X171981904Y-48982380D01*
X172362857Y-48982380D01*
X172458095Y-49030000D01*
X172505714Y-49077619D01*
X172553333Y-49172857D01*
X172553333Y-49315714D01*
X172505714Y-49410952D01*
X172458095Y-49458571D01*
X172362857Y-49506190D01*
X171981904Y-49506190D01*
X172934285Y-49077619D02*
X172981904Y-49030000D01*
X173077142Y-48982380D01*
X173315238Y-48982380D01*
X173410476Y-49030000D01*
X173458095Y-49077619D01*
X173505714Y-49172857D01*
X173505714Y-49268095D01*
X173458095Y-49410952D01*
X172886666Y-49982380D01*
X173505714Y-49982380D01*
G04 #@! TO.C,R5*
X172553333Y-127632380D02*
X172220000Y-127156190D01*
X171981904Y-127632380D02*
X171981904Y-126632380D01*
X172362857Y-126632380D01*
X172458095Y-126680000D01*
X172505714Y-126727619D01*
X172553333Y-126822857D01*
X172553333Y-126965714D01*
X172505714Y-127060952D01*
X172458095Y-127108571D01*
X172362857Y-127156190D01*
X171981904Y-127156190D01*
X173458095Y-126632380D02*
X172981904Y-126632380D01*
X172934285Y-127108571D01*
X172981904Y-127060952D01*
X173077142Y-127013333D01*
X173315238Y-127013333D01*
X173410476Y-127060952D01*
X173458095Y-127108571D01*
X173505714Y-127203809D01*
X173505714Y-127441904D01*
X173458095Y-127537142D01*
X173410476Y-127584761D01*
X173315238Y-127632380D01*
X173077142Y-127632380D01*
X172981904Y-127584761D01*
X172934285Y-127537142D01*
X123023333Y-127632380D02*
X122690000Y-127156190D01*
X122451904Y-127632380D02*
X122451904Y-126632380D01*
X122832857Y-126632380D01*
X122928095Y-126680000D01*
X122975714Y-126727619D01*
X123023333Y-126822857D01*
X123023333Y-126965714D01*
X122975714Y-127060952D01*
X122928095Y-127108571D01*
X122832857Y-127156190D01*
X122451904Y-127156190D01*
X123928095Y-126632380D02*
X123451904Y-126632380D01*
X123404285Y-127108571D01*
X123451904Y-127060952D01*
X123547142Y-127013333D01*
X123785238Y-127013333D01*
X123880476Y-127060952D01*
X123928095Y-127108571D01*
X123975714Y-127203809D01*
X123975714Y-127441904D01*
X123928095Y-127537142D01*
X123880476Y-127584761D01*
X123785238Y-127632380D01*
X123547142Y-127632380D01*
X123451904Y-127584761D01*
X123404285Y-127537142D01*
X172553333Y-94612380D02*
X172220000Y-94136190D01*
X171981904Y-94612380D02*
X171981904Y-93612380D01*
X172362857Y-93612380D01*
X172458095Y-93660000D01*
X172505714Y-93707619D01*
X172553333Y-93802857D01*
X172553333Y-93945714D01*
X172505714Y-94040952D01*
X172458095Y-94088571D01*
X172362857Y-94136190D01*
X171981904Y-94136190D01*
X173458095Y-93612380D02*
X172981904Y-93612380D01*
X172934285Y-94088571D01*
X172981904Y-94040952D01*
X173077142Y-93993333D01*
X173315238Y-93993333D01*
X173410476Y-94040952D01*
X173458095Y-94088571D01*
X173505714Y-94183809D01*
X173505714Y-94421904D01*
X173458095Y-94517142D01*
X173410476Y-94564761D01*
X173315238Y-94612380D01*
X173077142Y-94612380D01*
X172981904Y-94564761D01*
X172934285Y-94517142D01*
X123023333Y-94612380D02*
X122690000Y-94136190D01*
X122451904Y-94612380D02*
X122451904Y-93612380D01*
X122832857Y-93612380D01*
X122928095Y-93660000D01*
X122975714Y-93707619D01*
X123023333Y-93802857D01*
X123023333Y-93945714D01*
X122975714Y-94040952D01*
X122928095Y-94088571D01*
X122832857Y-94136190D01*
X122451904Y-94136190D01*
X123928095Y-93612380D02*
X123451904Y-93612380D01*
X123404285Y-94088571D01*
X123451904Y-94040952D01*
X123547142Y-93993333D01*
X123785238Y-93993333D01*
X123880476Y-94040952D01*
X123928095Y-94088571D01*
X123975714Y-94183809D01*
X123975714Y-94421904D01*
X123928095Y-94517142D01*
X123880476Y-94564761D01*
X123785238Y-94612380D01*
X123547142Y-94612380D01*
X123451904Y-94564761D01*
X123404285Y-94517142D01*
X172553333Y-61592380D02*
X172220000Y-61116190D01*
X171981904Y-61592380D02*
X171981904Y-60592380D01*
X172362857Y-60592380D01*
X172458095Y-60640000D01*
X172505714Y-60687619D01*
X172553333Y-60782857D01*
X172553333Y-60925714D01*
X172505714Y-61020952D01*
X172458095Y-61068571D01*
X172362857Y-61116190D01*
X171981904Y-61116190D01*
X173458095Y-60592380D02*
X172981904Y-60592380D01*
X172934285Y-61068571D01*
X172981904Y-61020952D01*
X173077142Y-60973333D01*
X173315238Y-60973333D01*
X173410476Y-61020952D01*
X173458095Y-61068571D01*
X173505714Y-61163809D01*
X173505714Y-61401904D01*
X173458095Y-61497142D01*
X173410476Y-61544761D01*
X173315238Y-61592380D01*
X173077142Y-61592380D01*
X172981904Y-61544761D01*
X172934285Y-61497142D01*
G04 #@! TO.C,D4*
X186586904Y-134437380D02*
X186586904Y-133437380D01*
X186825000Y-133437380D01*
X186967857Y-133485000D01*
X187063095Y-133580238D01*
X187110714Y-133675476D01*
X187158333Y-133865952D01*
X187158333Y-134008809D01*
X187110714Y-134199285D01*
X187063095Y-134294523D01*
X186967857Y-134389761D01*
X186825000Y-134437380D01*
X186586904Y-134437380D01*
X188015476Y-133770714D02*
X188015476Y-134437380D01*
X187777380Y-133389761D02*
X187539285Y-134104047D01*
X188158333Y-134104047D01*
X137056904Y-134437380D02*
X137056904Y-133437380D01*
X137295000Y-133437380D01*
X137437857Y-133485000D01*
X137533095Y-133580238D01*
X137580714Y-133675476D01*
X137628333Y-133865952D01*
X137628333Y-134008809D01*
X137580714Y-134199285D01*
X137533095Y-134294523D01*
X137437857Y-134389761D01*
X137295000Y-134437380D01*
X137056904Y-134437380D01*
X138485476Y-133770714D02*
X138485476Y-134437380D01*
X138247380Y-133389761D02*
X138009285Y-134104047D01*
X138628333Y-134104047D01*
X186586904Y-101417380D02*
X186586904Y-100417380D01*
X186825000Y-100417380D01*
X186967857Y-100465000D01*
X187063095Y-100560238D01*
X187110714Y-100655476D01*
X187158333Y-100845952D01*
X187158333Y-100988809D01*
X187110714Y-101179285D01*
X187063095Y-101274523D01*
X186967857Y-101369761D01*
X186825000Y-101417380D01*
X186586904Y-101417380D01*
X188015476Y-100750714D02*
X188015476Y-101417380D01*
X187777380Y-100369761D02*
X187539285Y-101084047D01*
X188158333Y-101084047D01*
X137056904Y-101417380D02*
X137056904Y-100417380D01*
X137295000Y-100417380D01*
X137437857Y-100465000D01*
X137533095Y-100560238D01*
X137580714Y-100655476D01*
X137628333Y-100845952D01*
X137628333Y-100988809D01*
X137580714Y-101179285D01*
X137533095Y-101274523D01*
X137437857Y-101369761D01*
X137295000Y-101417380D01*
X137056904Y-101417380D01*
X138485476Y-100750714D02*
X138485476Y-101417380D01*
X138247380Y-100369761D02*
X138009285Y-101084047D01*
X138628333Y-101084047D01*
X186586904Y-68397380D02*
X186586904Y-67397380D01*
X186825000Y-67397380D01*
X186967857Y-67445000D01*
X187063095Y-67540238D01*
X187110714Y-67635476D01*
X187158333Y-67825952D01*
X187158333Y-67968809D01*
X187110714Y-68159285D01*
X187063095Y-68254523D01*
X186967857Y-68349761D01*
X186825000Y-68397380D01*
X186586904Y-68397380D01*
X188015476Y-67730714D02*
X188015476Y-68397380D01*
X187777380Y-67349761D02*
X187539285Y-68064047D01*
X188158333Y-68064047D01*
G04 #@! TO.C,U3*
X168783095Y-133183380D02*
X168783095Y-133992904D01*
X168830714Y-134088142D01*
X168878333Y-134135761D01*
X168973571Y-134183380D01*
X169164047Y-134183380D01*
X169259285Y-134135761D01*
X169306904Y-134088142D01*
X169354523Y-133992904D01*
X169354523Y-133183380D01*
X169735476Y-133183380D02*
X170354523Y-133183380D01*
X170021190Y-133564333D01*
X170164047Y-133564333D01*
X170259285Y-133611952D01*
X170306904Y-133659571D01*
X170354523Y-133754809D01*
X170354523Y-133992904D01*
X170306904Y-134088142D01*
X170259285Y-134135761D01*
X170164047Y-134183380D01*
X169878333Y-134183380D01*
X169783095Y-134135761D01*
X169735476Y-134088142D01*
X176466666Y-133056380D02*
X176800000Y-134056380D01*
X177133333Y-133056380D01*
X178038095Y-133961142D02*
X177990476Y-134008761D01*
X177847619Y-134056380D01*
X177752380Y-134056380D01*
X177609523Y-134008761D01*
X177514285Y-133913523D01*
X177466666Y-133818285D01*
X177419047Y-133627809D01*
X177419047Y-133484952D01*
X177466666Y-133294476D01*
X177514285Y-133199238D01*
X177609523Y-133104000D01*
X177752380Y-133056380D01*
X177847619Y-133056380D01*
X177990476Y-133104000D01*
X178038095Y-133151619D01*
X179038095Y-133961142D02*
X178990476Y-134008761D01*
X178847619Y-134056380D01*
X178752380Y-134056380D01*
X178609523Y-134008761D01*
X178514285Y-133913523D01*
X178466666Y-133818285D01*
X178419047Y-133627809D01*
X178419047Y-133484952D01*
X178466666Y-133294476D01*
X178514285Y-133199238D01*
X178609523Y-133104000D01*
X178752380Y-133056380D01*
X178847619Y-133056380D01*
X178990476Y-133104000D01*
X179038095Y-133151619D01*
X174363095Y-133929380D02*
X174363095Y-132929380D01*
X174601190Y-132929380D01*
X174744047Y-132977000D01*
X174839285Y-133072238D01*
X174886904Y-133167476D01*
X174934523Y-133357952D01*
X174934523Y-133500809D01*
X174886904Y-133691285D01*
X174839285Y-133786523D01*
X174744047Y-133881761D01*
X174601190Y-133929380D01*
X174363095Y-133929380D01*
X170942095Y-132977000D02*
X170846857Y-132929380D01*
X170704000Y-132929380D01*
X170561142Y-132977000D01*
X170465904Y-133072238D01*
X170418285Y-133167476D01*
X170370666Y-133357952D01*
X170370666Y-133500809D01*
X170418285Y-133691285D01*
X170465904Y-133786523D01*
X170561142Y-133881761D01*
X170704000Y-133929380D01*
X170799238Y-133929380D01*
X170942095Y-133881761D01*
X170989714Y-133834142D01*
X170989714Y-133500809D01*
X170799238Y-133500809D01*
X171418285Y-133929380D02*
X171418285Y-132929380D01*
X171989714Y-133929380D01*
X171989714Y-132929380D01*
X172465904Y-133929380D02*
X172465904Y-132929380D01*
X172704000Y-132929380D01*
X172846857Y-132977000D01*
X172942095Y-133072238D01*
X172989714Y-133167476D01*
X173037333Y-133357952D01*
X173037333Y-133500809D01*
X172989714Y-133691285D01*
X172942095Y-133786523D01*
X172846857Y-133881761D01*
X172704000Y-133929380D01*
X172465904Y-133929380D01*
X119253095Y-133183380D02*
X119253095Y-133992904D01*
X119300714Y-134088142D01*
X119348333Y-134135761D01*
X119443571Y-134183380D01*
X119634047Y-134183380D01*
X119729285Y-134135761D01*
X119776904Y-134088142D01*
X119824523Y-133992904D01*
X119824523Y-133183380D01*
X120205476Y-133183380D02*
X120824523Y-133183380D01*
X120491190Y-133564333D01*
X120634047Y-133564333D01*
X120729285Y-133611952D01*
X120776904Y-133659571D01*
X120824523Y-133754809D01*
X120824523Y-133992904D01*
X120776904Y-134088142D01*
X120729285Y-134135761D01*
X120634047Y-134183380D01*
X120348333Y-134183380D01*
X120253095Y-134135761D01*
X120205476Y-134088142D01*
X126936666Y-133056380D02*
X127270000Y-134056380D01*
X127603333Y-133056380D01*
X128508095Y-133961142D02*
X128460476Y-134008761D01*
X128317619Y-134056380D01*
X128222380Y-134056380D01*
X128079523Y-134008761D01*
X127984285Y-133913523D01*
X127936666Y-133818285D01*
X127889047Y-133627809D01*
X127889047Y-133484952D01*
X127936666Y-133294476D01*
X127984285Y-133199238D01*
X128079523Y-133104000D01*
X128222380Y-133056380D01*
X128317619Y-133056380D01*
X128460476Y-133104000D01*
X128508095Y-133151619D01*
X129508095Y-133961142D02*
X129460476Y-134008761D01*
X129317619Y-134056380D01*
X129222380Y-134056380D01*
X129079523Y-134008761D01*
X128984285Y-133913523D01*
X128936666Y-133818285D01*
X128889047Y-133627809D01*
X128889047Y-133484952D01*
X128936666Y-133294476D01*
X128984285Y-133199238D01*
X129079523Y-133104000D01*
X129222380Y-133056380D01*
X129317619Y-133056380D01*
X129460476Y-133104000D01*
X129508095Y-133151619D01*
X124833095Y-133929380D02*
X124833095Y-132929380D01*
X125071190Y-132929380D01*
X125214047Y-132977000D01*
X125309285Y-133072238D01*
X125356904Y-133167476D01*
X125404523Y-133357952D01*
X125404523Y-133500809D01*
X125356904Y-133691285D01*
X125309285Y-133786523D01*
X125214047Y-133881761D01*
X125071190Y-133929380D01*
X124833095Y-133929380D01*
X121412095Y-132977000D02*
X121316857Y-132929380D01*
X121174000Y-132929380D01*
X121031142Y-132977000D01*
X120935904Y-133072238D01*
X120888285Y-133167476D01*
X120840666Y-133357952D01*
X120840666Y-133500809D01*
X120888285Y-133691285D01*
X120935904Y-133786523D01*
X121031142Y-133881761D01*
X121174000Y-133929380D01*
X121269238Y-133929380D01*
X121412095Y-133881761D01*
X121459714Y-133834142D01*
X121459714Y-133500809D01*
X121269238Y-133500809D01*
X121888285Y-133929380D02*
X121888285Y-132929380D01*
X122459714Y-133929380D01*
X122459714Y-132929380D01*
X122935904Y-133929380D02*
X122935904Y-132929380D01*
X123174000Y-132929380D01*
X123316857Y-132977000D01*
X123412095Y-133072238D01*
X123459714Y-133167476D01*
X123507333Y-133357952D01*
X123507333Y-133500809D01*
X123459714Y-133691285D01*
X123412095Y-133786523D01*
X123316857Y-133881761D01*
X123174000Y-133929380D01*
X122935904Y-133929380D01*
X168783095Y-100163380D02*
X168783095Y-100972904D01*
X168830714Y-101068142D01*
X168878333Y-101115761D01*
X168973571Y-101163380D01*
X169164047Y-101163380D01*
X169259285Y-101115761D01*
X169306904Y-101068142D01*
X169354523Y-100972904D01*
X169354523Y-100163380D01*
X169735476Y-100163380D02*
X170354523Y-100163380D01*
X170021190Y-100544333D01*
X170164047Y-100544333D01*
X170259285Y-100591952D01*
X170306904Y-100639571D01*
X170354523Y-100734809D01*
X170354523Y-100972904D01*
X170306904Y-101068142D01*
X170259285Y-101115761D01*
X170164047Y-101163380D01*
X169878333Y-101163380D01*
X169783095Y-101115761D01*
X169735476Y-101068142D01*
X176466666Y-100036380D02*
X176800000Y-101036380D01*
X177133333Y-100036380D01*
X178038095Y-100941142D02*
X177990476Y-100988761D01*
X177847619Y-101036380D01*
X177752380Y-101036380D01*
X177609523Y-100988761D01*
X177514285Y-100893523D01*
X177466666Y-100798285D01*
X177419047Y-100607809D01*
X177419047Y-100464952D01*
X177466666Y-100274476D01*
X177514285Y-100179238D01*
X177609523Y-100084000D01*
X177752380Y-100036380D01*
X177847619Y-100036380D01*
X177990476Y-100084000D01*
X178038095Y-100131619D01*
X179038095Y-100941142D02*
X178990476Y-100988761D01*
X178847619Y-101036380D01*
X178752380Y-101036380D01*
X178609523Y-100988761D01*
X178514285Y-100893523D01*
X178466666Y-100798285D01*
X178419047Y-100607809D01*
X178419047Y-100464952D01*
X178466666Y-100274476D01*
X178514285Y-100179238D01*
X178609523Y-100084000D01*
X178752380Y-100036380D01*
X178847619Y-100036380D01*
X178990476Y-100084000D01*
X179038095Y-100131619D01*
X174363095Y-100909380D02*
X174363095Y-99909380D01*
X174601190Y-99909380D01*
X174744047Y-99957000D01*
X174839285Y-100052238D01*
X174886904Y-100147476D01*
X174934523Y-100337952D01*
X174934523Y-100480809D01*
X174886904Y-100671285D01*
X174839285Y-100766523D01*
X174744047Y-100861761D01*
X174601190Y-100909380D01*
X174363095Y-100909380D01*
X170942095Y-99957000D02*
X170846857Y-99909380D01*
X170704000Y-99909380D01*
X170561142Y-99957000D01*
X170465904Y-100052238D01*
X170418285Y-100147476D01*
X170370666Y-100337952D01*
X170370666Y-100480809D01*
X170418285Y-100671285D01*
X170465904Y-100766523D01*
X170561142Y-100861761D01*
X170704000Y-100909380D01*
X170799238Y-100909380D01*
X170942095Y-100861761D01*
X170989714Y-100814142D01*
X170989714Y-100480809D01*
X170799238Y-100480809D01*
X171418285Y-100909380D02*
X171418285Y-99909380D01*
X171989714Y-100909380D01*
X171989714Y-99909380D01*
X172465904Y-100909380D02*
X172465904Y-99909380D01*
X172704000Y-99909380D01*
X172846857Y-99957000D01*
X172942095Y-100052238D01*
X172989714Y-100147476D01*
X173037333Y-100337952D01*
X173037333Y-100480809D01*
X172989714Y-100671285D01*
X172942095Y-100766523D01*
X172846857Y-100861761D01*
X172704000Y-100909380D01*
X172465904Y-100909380D01*
X119253095Y-100163380D02*
X119253095Y-100972904D01*
X119300714Y-101068142D01*
X119348333Y-101115761D01*
X119443571Y-101163380D01*
X119634047Y-101163380D01*
X119729285Y-101115761D01*
X119776904Y-101068142D01*
X119824523Y-100972904D01*
X119824523Y-100163380D01*
X120205476Y-100163380D02*
X120824523Y-100163380D01*
X120491190Y-100544333D01*
X120634047Y-100544333D01*
X120729285Y-100591952D01*
X120776904Y-100639571D01*
X120824523Y-100734809D01*
X120824523Y-100972904D01*
X120776904Y-101068142D01*
X120729285Y-101115761D01*
X120634047Y-101163380D01*
X120348333Y-101163380D01*
X120253095Y-101115761D01*
X120205476Y-101068142D01*
X126936666Y-100036380D02*
X127270000Y-101036380D01*
X127603333Y-100036380D01*
X128508095Y-100941142D02*
X128460476Y-100988761D01*
X128317619Y-101036380D01*
X128222380Y-101036380D01*
X128079523Y-100988761D01*
X127984285Y-100893523D01*
X127936666Y-100798285D01*
X127889047Y-100607809D01*
X127889047Y-100464952D01*
X127936666Y-100274476D01*
X127984285Y-100179238D01*
X128079523Y-100084000D01*
X128222380Y-100036380D01*
X128317619Y-100036380D01*
X128460476Y-100084000D01*
X128508095Y-100131619D01*
X129508095Y-100941142D02*
X129460476Y-100988761D01*
X129317619Y-101036380D01*
X129222380Y-101036380D01*
X129079523Y-100988761D01*
X128984285Y-100893523D01*
X128936666Y-100798285D01*
X128889047Y-100607809D01*
X128889047Y-100464952D01*
X128936666Y-100274476D01*
X128984285Y-100179238D01*
X129079523Y-100084000D01*
X129222380Y-100036380D01*
X129317619Y-100036380D01*
X129460476Y-100084000D01*
X129508095Y-100131619D01*
X124833095Y-100909380D02*
X124833095Y-99909380D01*
X125071190Y-99909380D01*
X125214047Y-99957000D01*
X125309285Y-100052238D01*
X125356904Y-100147476D01*
X125404523Y-100337952D01*
X125404523Y-100480809D01*
X125356904Y-100671285D01*
X125309285Y-100766523D01*
X125214047Y-100861761D01*
X125071190Y-100909380D01*
X124833095Y-100909380D01*
X121412095Y-99957000D02*
X121316857Y-99909380D01*
X121174000Y-99909380D01*
X121031142Y-99957000D01*
X120935904Y-100052238D01*
X120888285Y-100147476D01*
X120840666Y-100337952D01*
X120840666Y-100480809D01*
X120888285Y-100671285D01*
X120935904Y-100766523D01*
X121031142Y-100861761D01*
X121174000Y-100909380D01*
X121269238Y-100909380D01*
X121412095Y-100861761D01*
X121459714Y-100814142D01*
X121459714Y-100480809D01*
X121269238Y-100480809D01*
X121888285Y-100909380D02*
X121888285Y-99909380D01*
X122459714Y-100909380D01*
X122459714Y-99909380D01*
X122935904Y-100909380D02*
X122935904Y-99909380D01*
X123174000Y-99909380D01*
X123316857Y-99957000D01*
X123412095Y-100052238D01*
X123459714Y-100147476D01*
X123507333Y-100337952D01*
X123507333Y-100480809D01*
X123459714Y-100671285D01*
X123412095Y-100766523D01*
X123316857Y-100861761D01*
X123174000Y-100909380D01*
X122935904Y-100909380D01*
X168783095Y-67143380D02*
X168783095Y-67952904D01*
X168830714Y-68048142D01*
X168878333Y-68095761D01*
X168973571Y-68143380D01*
X169164047Y-68143380D01*
X169259285Y-68095761D01*
X169306904Y-68048142D01*
X169354523Y-67952904D01*
X169354523Y-67143380D01*
X169735476Y-67143380D02*
X170354523Y-67143380D01*
X170021190Y-67524333D01*
X170164047Y-67524333D01*
X170259285Y-67571952D01*
X170306904Y-67619571D01*
X170354523Y-67714809D01*
X170354523Y-67952904D01*
X170306904Y-68048142D01*
X170259285Y-68095761D01*
X170164047Y-68143380D01*
X169878333Y-68143380D01*
X169783095Y-68095761D01*
X169735476Y-68048142D01*
X176466666Y-67016380D02*
X176800000Y-68016380D01*
X177133333Y-67016380D01*
X178038095Y-67921142D02*
X177990476Y-67968761D01*
X177847619Y-68016380D01*
X177752380Y-68016380D01*
X177609523Y-67968761D01*
X177514285Y-67873523D01*
X177466666Y-67778285D01*
X177419047Y-67587809D01*
X177419047Y-67444952D01*
X177466666Y-67254476D01*
X177514285Y-67159238D01*
X177609523Y-67064000D01*
X177752380Y-67016380D01*
X177847619Y-67016380D01*
X177990476Y-67064000D01*
X178038095Y-67111619D01*
X179038095Y-67921142D02*
X178990476Y-67968761D01*
X178847619Y-68016380D01*
X178752380Y-68016380D01*
X178609523Y-67968761D01*
X178514285Y-67873523D01*
X178466666Y-67778285D01*
X178419047Y-67587809D01*
X178419047Y-67444952D01*
X178466666Y-67254476D01*
X178514285Y-67159238D01*
X178609523Y-67064000D01*
X178752380Y-67016380D01*
X178847619Y-67016380D01*
X178990476Y-67064000D01*
X179038095Y-67111619D01*
X174363095Y-67889380D02*
X174363095Y-66889380D01*
X174601190Y-66889380D01*
X174744047Y-66937000D01*
X174839285Y-67032238D01*
X174886904Y-67127476D01*
X174934523Y-67317952D01*
X174934523Y-67460809D01*
X174886904Y-67651285D01*
X174839285Y-67746523D01*
X174744047Y-67841761D01*
X174601190Y-67889380D01*
X174363095Y-67889380D01*
X170942095Y-66937000D02*
X170846857Y-66889380D01*
X170704000Y-66889380D01*
X170561142Y-66937000D01*
X170465904Y-67032238D01*
X170418285Y-67127476D01*
X170370666Y-67317952D01*
X170370666Y-67460809D01*
X170418285Y-67651285D01*
X170465904Y-67746523D01*
X170561142Y-67841761D01*
X170704000Y-67889380D01*
X170799238Y-67889380D01*
X170942095Y-67841761D01*
X170989714Y-67794142D01*
X170989714Y-67460809D01*
X170799238Y-67460809D01*
X171418285Y-67889380D02*
X171418285Y-66889380D01*
X171989714Y-67889380D01*
X171989714Y-66889380D01*
X172465904Y-67889380D02*
X172465904Y-66889380D01*
X172704000Y-66889380D01*
X172846857Y-66937000D01*
X172942095Y-67032238D01*
X172989714Y-67127476D01*
X173037333Y-67317952D01*
X173037333Y-67460809D01*
X172989714Y-67651285D01*
X172942095Y-67746523D01*
X172846857Y-67841761D01*
X172704000Y-67889380D01*
X172465904Y-67889380D01*
G04 #@! TO.C,D2*
X181506904Y-134437380D02*
X181506904Y-133437380D01*
X181745000Y-133437380D01*
X181887857Y-133485000D01*
X181983095Y-133580238D01*
X182030714Y-133675476D01*
X182078333Y-133865952D01*
X182078333Y-134008809D01*
X182030714Y-134199285D01*
X181983095Y-134294523D01*
X181887857Y-134389761D01*
X181745000Y-134437380D01*
X181506904Y-134437380D01*
X182459285Y-133532619D02*
X182506904Y-133485000D01*
X182602142Y-133437380D01*
X182840238Y-133437380D01*
X182935476Y-133485000D01*
X182983095Y-133532619D01*
X183030714Y-133627857D01*
X183030714Y-133723095D01*
X182983095Y-133865952D01*
X182411666Y-134437380D01*
X183030714Y-134437380D01*
X131976904Y-134437380D02*
X131976904Y-133437380D01*
X132215000Y-133437380D01*
X132357857Y-133485000D01*
X132453095Y-133580238D01*
X132500714Y-133675476D01*
X132548333Y-133865952D01*
X132548333Y-134008809D01*
X132500714Y-134199285D01*
X132453095Y-134294523D01*
X132357857Y-134389761D01*
X132215000Y-134437380D01*
X131976904Y-134437380D01*
X132929285Y-133532619D02*
X132976904Y-133485000D01*
X133072142Y-133437380D01*
X133310238Y-133437380D01*
X133405476Y-133485000D01*
X133453095Y-133532619D01*
X133500714Y-133627857D01*
X133500714Y-133723095D01*
X133453095Y-133865952D01*
X132881666Y-134437380D01*
X133500714Y-134437380D01*
X181506904Y-101417380D02*
X181506904Y-100417380D01*
X181745000Y-100417380D01*
X181887857Y-100465000D01*
X181983095Y-100560238D01*
X182030714Y-100655476D01*
X182078333Y-100845952D01*
X182078333Y-100988809D01*
X182030714Y-101179285D01*
X181983095Y-101274523D01*
X181887857Y-101369761D01*
X181745000Y-101417380D01*
X181506904Y-101417380D01*
X182459285Y-100512619D02*
X182506904Y-100465000D01*
X182602142Y-100417380D01*
X182840238Y-100417380D01*
X182935476Y-100465000D01*
X182983095Y-100512619D01*
X183030714Y-100607857D01*
X183030714Y-100703095D01*
X182983095Y-100845952D01*
X182411666Y-101417380D01*
X183030714Y-101417380D01*
X131976904Y-101417380D02*
X131976904Y-100417380D01*
X132215000Y-100417380D01*
X132357857Y-100465000D01*
X132453095Y-100560238D01*
X132500714Y-100655476D01*
X132548333Y-100845952D01*
X132548333Y-100988809D01*
X132500714Y-101179285D01*
X132453095Y-101274523D01*
X132357857Y-101369761D01*
X132215000Y-101417380D01*
X131976904Y-101417380D01*
X132929285Y-100512619D02*
X132976904Y-100465000D01*
X133072142Y-100417380D01*
X133310238Y-100417380D01*
X133405476Y-100465000D01*
X133453095Y-100512619D01*
X133500714Y-100607857D01*
X133500714Y-100703095D01*
X133453095Y-100845952D01*
X132881666Y-101417380D01*
X133500714Y-101417380D01*
X181506904Y-68397380D02*
X181506904Y-67397380D01*
X181745000Y-67397380D01*
X181887857Y-67445000D01*
X181983095Y-67540238D01*
X182030714Y-67635476D01*
X182078333Y-67825952D01*
X182078333Y-67968809D01*
X182030714Y-68159285D01*
X181983095Y-68254523D01*
X181887857Y-68349761D01*
X181745000Y-68397380D01*
X181506904Y-68397380D01*
X182459285Y-67492619D02*
X182506904Y-67445000D01*
X182602142Y-67397380D01*
X182840238Y-67397380D01*
X182935476Y-67445000D01*
X182983095Y-67492619D01*
X183030714Y-67587857D01*
X183030714Y-67683095D01*
X182983095Y-67825952D01*
X182411666Y-68397380D01*
X183030714Y-68397380D01*
G04 #@! TO.C,U1*
X187514095Y-112174380D02*
X187514095Y-112983904D01*
X187561714Y-113079142D01*
X187609333Y-113126761D01*
X187704571Y-113174380D01*
X187895047Y-113174380D01*
X187990285Y-113126761D01*
X188037904Y-113079142D01*
X188085523Y-112983904D01*
X188085523Y-112174380D01*
X189085523Y-113174380D02*
X188514095Y-113174380D01*
X188799809Y-113174380D02*
X188799809Y-112174380D01*
X188704571Y-112317238D01*
X188609333Y-112412476D01*
X188514095Y-112460095D01*
X137984095Y-112174380D02*
X137984095Y-112983904D01*
X138031714Y-113079142D01*
X138079333Y-113126761D01*
X138174571Y-113174380D01*
X138365047Y-113174380D01*
X138460285Y-113126761D01*
X138507904Y-113079142D01*
X138555523Y-112983904D01*
X138555523Y-112174380D01*
X139555523Y-113174380D02*
X138984095Y-113174380D01*
X139269809Y-113174380D02*
X139269809Y-112174380D01*
X139174571Y-112317238D01*
X139079333Y-112412476D01*
X138984095Y-112460095D01*
X187514095Y-79154380D02*
X187514095Y-79963904D01*
X187561714Y-80059142D01*
X187609333Y-80106761D01*
X187704571Y-80154380D01*
X187895047Y-80154380D01*
X187990285Y-80106761D01*
X188037904Y-80059142D01*
X188085523Y-79963904D01*
X188085523Y-79154380D01*
X189085523Y-80154380D02*
X188514095Y-80154380D01*
X188799809Y-80154380D02*
X188799809Y-79154380D01*
X188704571Y-79297238D01*
X188609333Y-79392476D01*
X188514095Y-79440095D01*
X137984095Y-79154380D02*
X137984095Y-79963904D01*
X138031714Y-80059142D01*
X138079333Y-80106761D01*
X138174571Y-80154380D01*
X138365047Y-80154380D01*
X138460285Y-80106761D01*
X138507904Y-80059142D01*
X138555523Y-79963904D01*
X138555523Y-79154380D01*
X139555523Y-80154380D02*
X138984095Y-80154380D01*
X139269809Y-80154380D02*
X139269809Y-79154380D01*
X139174571Y-79297238D01*
X139079333Y-79392476D01*
X138984095Y-79440095D01*
X187514095Y-46134380D02*
X187514095Y-46943904D01*
X187561714Y-47039142D01*
X187609333Y-47086761D01*
X187704571Y-47134380D01*
X187895047Y-47134380D01*
X187990285Y-47086761D01*
X188037904Y-47039142D01*
X188085523Y-46943904D01*
X188085523Y-46134380D01*
X189085523Y-47134380D02*
X188514095Y-47134380D01*
X188799809Y-47134380D02*
X188799809Y-46134380D01*
X188704571Y-46277238D01*
X188609333Y-46372476D01*
X188514095Y-46420095D01*
G04 #@! TO.C,JP1*
X202652380Y-109240533D02*
X203366666Y-109240533D01*
X203509523Y-109288152D01*
X203604761Y-109383390D01*
X203652380Y-109526247D01*
X203652380Y-109621485D01*
X203652380Y-108764342D02*
X202652380Y-108764342D01*
X202652380Y-108383390D01*
X202700000Y-108288152D01*
X202747619Y-108240533D01*
X202842857Y-108192914D01*
X202985714Y-108192914D01*
X203080952Y-108240533D01*
X203128571Y-108288152D01*
X203176190Y-108383390D01*
X203176190Y-108764342D01*
X203652380Y-107240533D02*
X203652380Y-107811961D01*
X203652380Y-107526247D02*
X202652380Y-107526247D01*
X202795238Y-107621485D01*
X202890476Y-107716723D01*
X202938095Y-107811961D01*
X153122380Y-109240533D02*
X153836666Y-109240533D01*
X153979523Y-109288152D01*
X154074761Y-109383390D01*
X154122380Y-109526247D01*
X154122380Y-109621485D01*
X154122380Y-108764342D02*
X153122380Y-108764342D01*
X153122380Y-108383390D01*
X153170000Y-108288152D01*
X153217619Y-108240533D01*
X153312857Y-108192914D01*
X153455714Y-108192914D01*
X153550952Y-108240533D01*
X153598571Y-108288152D01*
X153646190Y-108383390D01*
X153646190Y-108764342D01*
X154122380Y-107240533D02*
X154122380Y-107811961D01*
X154122380Y-107526247D02*
X153122380Y-107526247D01*
X153265238Y-107621485D01*
X153360476Y-107716723D01*
X153408095Y-107811961D01*
X202652380Y-76220533D02*
X203366666Y-76220533D01*
X203509523Y-76268152D01*
X203604761Y-76363390D01*
X203652380Y-76506247D01*
X203652380Y-76601485D01*
X203652380Y-75744342D02*
X202652380Y-75744342D01*
X202652380Y-75363390D01*
X202700000Y-75268152D01*
X202747619Y-75220533D01*
X202842857Y-75172914D01*
X202985714Y-75172914D01*
X203080952Y-75220533D01*
X203128571Y-75268152D01*
X203176190Y-75363390D01*
X203176190Y-75744342D01*
X203652380Y-74220533D02*
X203652380Y-74791961D01*
X203652380Y-74506247D02*
X202652380Y-74506247D01*
X202795238Y-74601485D01*
X202890476Y-74696723D01*
X202938095Y-74791961D01*
X153122380Y-76220533D02*
X153836666Y-76220533D01*
X153979523Y-76268152D01*
X154074761Y-76363390D01*
X154122380Y-76506247D01*
X154122380Y-76601485D01*
X154122380Y-75744342D02*
X153122380Y-75744342D01*
X153122380Y-75363390D01*
X153170000Y-75268152D01*
X153217619Y-75220533D01*
X153312857Y-75172914D01*
X153455714Y-75172914D01*
X153550952Y-75220533D01*
X153598571Y-75268152D01*
X153646190Y-75363390D01*
X153646190Y-75744342D01*
X154122380Y-74220533D02*
X154122380Y-74791961D01*
X154122380Y-74506247D02*
X153122380Y-74506247D01*
X153265238Y-74601485D01*
X153360476Y-74696723D01*
X153408095Y-74791961D01*
X202652380Y-43200533D02*
X203366666Y-43200533D01*
X203509523Y-43248152D01*
X203604761Y-43343390D01*
X203652380Y-43486247D01*
X203652380Y-43581485D01*
X203652380Y-42724342D02*
X202652380Y-42724342D01*
X202652380Y-42343390D01*
X202700000Y-42248152D01*
X202747619Y-42200533D01*
X202842857Y-42152914D01*
X202985714Y-42152914D01*
X203080952Y-42200533D01*
X203128571Y-42248152D01*
X203176190Y-42343390D01*
X203176190Y-42724342D01*
X203652380Y-41200533D02*
X203652380Y-41771961D01*
X203652380Y-41486247D02*
X202652380Y-41486247D01*
X202795238Y-41581485D01*
X202890476Y-41676723D01*
X202938095Y-41771961D01*
G04 #@! TO.C,*
X166774761Y-67968571D02*
X166822380Y-67873333D01*
X166822380Y-67682857D01*
X166774761Y-67587619D01*
X166679523Y-67540000D01*
X166631904Y-67540000D01*
X166536666Y-67587619D01*
X166489047Y-67682857D01*
X166489047Y-67825714D01*
X166441428Y-67920952D01*
X166346190Y-67968571D01*
X166298571Y-67968571D01*
X166203333Y-67920952D01*
X166155714Y-67825714D01*
X166155714Y-67682857D01*
X166203333Y-67587619D01*
X166774761Y-66730476D02*
X166822380Y-66825714D01*
X166822380Y-67016190D01*
X166774761Y-67111428D01*
X166679523Y-67159047D01*
X166298571Y-67159047D01*
X166203333Y-67111428D01*
X166155714Y-67016190D01*
X166155714Y-66825714D01*
X166203333Y-66730476D01*
X166298571Y-66682857D01*
X166393809Y-66682857D01*
X166489047Y-67159047D01*
X166155714Y-66254285D02*
X166822380Y-66254285D01*
X166250952Y-66254285D02*
X166203333Y-66206666D01*
X166155714Y-66111428D01*
X166155714Y-65968571D01*
X166203333Y-65873333D01*
X166298571Y-65825714D01*
X166822380Y-65825714D01*
X166774761Y-65397142D02*
X166822380Y-65301904D01*
X166822380Y-65111428D01*
X166774761Y-65016190D01*
X166679523Y-64968571D01*
X166631904Y-64968571D01*
X166536666Y-65016190D01*
X166489047Y-65111428D01*
X166489047Y-65254285D01*
X166441428Y-65349523D01*
X166346190Y-65397142D01*
X166298571Y-65397142D01*
X166203333Y-65349523D01*
X166155714Y-65254285D01*
X166155714Y-65111428D01*
X166203333Y-65016190D01*
X166774761Y-64159047D02*
X166822380Y-64254285D01*
X166822380Y-64444761D01*
X166774761Y-64540000D01*
X166679523Y-64587619D01*
X166298571Y-64587619D01*
X166203333Y-64540000D01*
X166155714Y-64444761D01*
X166155714Y-64254285D01*
X166203333Y-64159047D01*
X166298571Y-64111428D01*
X166393809Y-64111428D01*
X166489047Y-64587619D01*
X166155714Y-49053333D02*
X166822380Y-48815238D01*
X166155714Y-48577142D01*
X166822380Y-47767619D02*
X166298571Y-47767619D01*
X166203333Y-47815238D01*
X166155714Y-47910476D01*
X166155714Y-48100952D01*
X166203333Y-48196190D01*
X166774761Y-47767619D02*
X166822380Y-47862857D01*
X166822380Y-48100952D01*
X166774761Y-48196190D01*
X166679523Y-48243809D01*
X166584285Y-48243809D01*
X166489047Y-48196190D01*
X166441428Y-48100952D01*
X166441428Y-47862857D01*
X166393809Y-47767619D01*
X166822380Y-47148571D02*
X166774761Y-47243809D01*
X166679523Y-47291428D01*
X165822380Y-47291428D01*
X166155714Y-46862857D02*
X166822380Y-46624761D01*
X166155714Y-46386666D01*
X166774761Y-45624761D02*
X166822380Y-45720000D01*
X166822380Y-45910476D01*
X166774761Y-46005714D01*
X166679523Y-46053333D01*
X166298571Y-46053333D01*
X166203333Y-46005714D01*
X166155714Y-45910476D01*
X166155714Y-45720000D01*
X166203333Y-45624761D01*
X166298571Y-45577142D01*
X166393809Y-45577142D01*
X166489047Y-46053333D01*
X166822380Y-44243809D02*
X166774761Y-44339047D01*
X166727142Y-44386666D01*
X166631904Y-44434285D01*
X166346190Y-44434285D01*
X166250952Y-44386666D01*
X166203333Y-44339047D01*
X166155714Y-44243809D01*
X166155714Y-44100952D01*
X166203333Y-44005714D01*
X166250952Y-43958095D01*
X166346190Y-43910476D01*
X166631904Y-43910476D01*
X166727142Y-43958095D01*
X166774761Y-44005714D01*
X166822380Y-44100952D01*
X166822380Y-44243809D01*
X166155714Y-43053333D02*
X166822380Y-43053333D01*
X166155714Y-43481904D02*
X166679523Y-43481904D01*
X166774761Y-43434285D01*
X166822380Y-43339047D01*
X166822380Y-43196190D01*
X166774761Y-43100952D01*
X166727142Y-43053333D01*
X166155714Y-42720000D02*
X166155714Y-42339047D01*
X165822380Y-42577142D02*
X166679523Y-42577142D01*
X166774761Y-42529523D01*
X166822380Y-42434285D01*
X166822380Y-42339047D01*
X166822380Y-57570476D02*
X166822380Y-58141904D01*
X166822380Y-57856190D02*
X165822380Y-57856190D01*
X165965238Y-57951428D01*
X166060476Y-58046666D01*
X166108095Y-58141904D01*
X165917619Y-57189523D02*
X165870000Y-57141904D01*
X165822380Y-57046666D01*
X165822380Y-56808571D01*
X165870000Y-56713333D01*
X165917619Y-56665714D01*
X166012857Y-56618095D01*
X166108095Y-56618095D01*
X166250952Y-56665714D01*
X166822380Y-57237142D01*
X166822380Y-56618095D01*
X165822380Y-56332380D02*
X166822380Y-55999047D01*
X165822380Y-55665714D01*
X166822380Y-54570476D02*
X166155714Y-54570476D01*
X165822380Y-54570476D02*
X165870000Y-54618095D01*
X165917619Y-54570476D01*
X165870000Y-54522857D01*
X165822380Y-54570476D01*
X165917619Y-54570476D01*
X166155714Y-54094285D02*
X166822380Y-54094285D01*
X166250952Y-54094285D02*
X166203333Y-54046666D01*
X166155714Y-53951428D01*
X166155714Y-53808571D01*
X166203333Y-53713333D01*
X166298571Y-53665714D01*
X166822380Y-53665714D01*
G04 #@! TO.C,D4*
X137056904Y-68397380D02*
X137056904Y-67397380D01*
X137295000Y-67397380D01*
X137437857Y-67445000D01*
X137533095Y-67540238D01*
X137580714Y-67635476D01*
X137628333Y-67825952D01*
X137628333Y-67968809D01*
X137580714Y-68159285D01*
X137533095Y-68254523D01*
X137437857Y-68349761D01*
X137295000Y-68397380D01*
X137056904Y-68397380D01*
X138485476Y-67730714D02*
X138485476Y-68397380D01*
X138247380Y-67349761D02*
X138009285Y-68064047D01*
X138628333Y-68064047D01*
G04 #@! TO.C,U3*
X119253095Y-67143380D02*
X119253095Y-67952904D01*
X119300714Y-68048142D01*
X119348333Y-68095761D01*
X119443571Y-68143380D01*
X119634047Y-68143380D01*
X119729285Y-68095761D01*
X119776904Y-68048142D01*
X119824523Y-67952904D01*
X119824523Y-67143380D01*
X120205476Y-67143380D02*
X120824523Y-67143380D01*
X120491190Y-67524333D01*
X120634047Y-67524333D01*
X120729285Y-67571952D01*
X120776904Y-67619571D01*
X120824523Y-67714809D01*
X120824523Y-67952904D01*
X120776904Y-68048142D01*
X120729285Y-68095761D01*
X120634047Y-68143380D01*
X120348333Y-68143380D01*
X120253095Y-68095761D01*
X120205476Y-68048142D01*
X121412095Y-66937000D02*
X121316857Y-66889380D01*
X121174000Y-66889380D01*
X121031142Y-66937000D01*
X120935904Y-67032238D01*
X120888285Y-67127476D01*
X120840666Y-67317952D01*
X120840666Y-67460809D01*
X120888285Y-67651285D01*
X120935904Y-67746523D01*
X121031142Y-67841761D01*
X121174000Y-67889380D01*
X121269238Y-67889380D01*
X121412095Y-67841761D01*
X121459714Y-67794142D01*
X121459714Y-67460809D01*
X121269238Y-67460809D01*
X121888285Y-67889380D02*
X121888285Y-66889380D01*
X122459714Y-67889380D01*
X122459714Y-66889380D01*
X122935904Y-67889380D02*
X122935904Y-66889380D01*
X123174000Y-66889380D01*
X123316857Y-66937000D01*
X123412095Y-67032238D01*
X123459714Y-67127476D01*
X123507333Y-67317952D01*
X123507333Y-67460809D01*
X123459714Y-67651285D01*
X123412095Y-67746523D01*
X123316857Y-67841761D01*
X123174000Y-67889380D01*
X122935904Y-67889380D01*
X124833095Y-67889380D02*
X124833095Y-66889380D01*
X125071190Y-66889380D01*
X125214047Y-66937000D01*
X125309285Y-67032238D01*
X125356904Y-67127476D01*
X125404523Y-67317952D01*
X125404523Y-67460809D01*
X125356904Y-67651285D01*
X125309285Y-67746523D01*
X125214047Y-67841761D01*
X125071190Y-67889380D01*
X124833095Y-67889380D01*
X126936666Y-67016380D02*
X127270000Y-68016380D01*
X127603333Y-67016380D01*
X128508095Y-67921142D02*
X128460476Y-67968761D01*
X128317619Y-68016380D01*
X128222380Y-68016380D01*
X128079523Y-67968761D01*
X127984285Y-67873523D01*
X127936666Y-67778285D01*
X127889047Y-67587809D01*
X127889047Y-67444952D01*
X127936666Y-67254476D01*
X127984285Y-67159238D01*
X128079523Y-67064000D01*
X128222380Y-67016380D01*
X128317619Y-67016380D01*
X128460476Y-67064000D01*
X128508095Y-67111619D01*
X129508095Y-67921142D02*
X129460476Y-67968761D01*
X129317619Y-68016380D01*
X129222380Y-68016380D01*
X129079523Y-67968761D01*
X128984285Y-67873523D01*
X128936666Y-67778285D01*
X128889047Y-67587809D01*
X128889047Y-67444952D01*
X128936666Y-67254476D01*
X128984285Y-67159238D01*
X129079523Y-67064000D01*
X129222380Y-67016380D01*
X129317619Y-67016380D01*
X129460476Y-67064000D01*
X129508095Y-67111619D01*
G04 #@! TO.C,D2*
X131976904Y-68397380D02*
X131976904Y-67397380D01*
X132215000Y-67397380D01*
X132357857Y-67445000D01*
X132453095Y-67540238D01*
X132500714Y-67635476D01*
X132548333Y-67825952D01*
X132548333Y-67968809D01*
X132500714Y-68159285D01*
X132453095Y-68254523D01*
X132357857Y-68349761D01*
X132215000Y-68397380D01*
X131976904Y-68397380D01*
X132929285Y-67492619D02*
X132976904Y-67445000D01*
X133072142Y-67397380D01*
X133310238Y-67397380D01*
X133405476Y-67445000D01*
X133453095Y-67492619D01*
X133500714Y-67587857D01*
X133500714Y-67683095D01*
X133453095Y-67825952D01*
X132881666Y-68397380D01*
X133500714Y-68397380D01*
G04 #@! TO.C,D3*
X142136904Y-68397380D02*
X142136904Y-67397380D01*
X142375000Y-67397380D01*
X142517857Y-67445000D01*
X142613095Y-67540238D01*
X142660714Y-67635476D01*
X142708333Y-67825952D01*
X142708333Y-67968809D01*
X142660714Y-68159285D01*
X142613095Y-68254523D01*
X142517857Y-68349761D01*
X142375000Y-68397380D01*
X142136904Y-68397380D01*
X143041666Y-67397380D02*
X143660714Y-67397380D01*
X143327380Y-67778333D01*
X143470238Y-67778333D01*
X143565476Y-67825952D01*
X143613095Y-67873571D01*
X143660714Y-67968809D01*
X143660714Y-68206904D01*
X143613095Y-68302142D01*
X143565476Y-68349761D01*
X143470238Y-68397380D01*
X143184523Y-68397380D01*
X143089285Y-68349761D01*
X143041666Y-68302142D01*
G04 #@! TO.C,J1*
X153752380Y-50513333D02*
X154466666Y-50513333D01*
X154609523Y-50560952D01*
X154704761Y-50656190D01*
X154752380Y-50799047D01*
X154752380Y-50894285D01*
X154752380Y-49513333D02*
X154752380Y-50084761D01*
X154752380Y-49799047D02*
X153752380Y-49799047D01*
X153895238Y-49894285D01*
X153990476Y-49989523D01*
X154038095Y-50084761D01*
G04 #@! TO.C,J2*
X153752380Y-60673333D02*
X154466666Y-60673333D01*
X154609523Y-60720952D01*
X154704761Y-60816190D01*
X154752380Y-60959047D01*
X154752380Y-61054285D01*
X153847619Y-60244761D02*
X153800000Y-60197142D01*
X153752380Y-60101904D01*
X153752380Y-59863809D01*
X153800000Y-59768571D01*
X153847619Y-59720952D01*
X153942857Y-59673333D01*
X154038095Y-59673333D01*
X154180952Y-59720952D01*
X154752380Y-60292380D01*
X154752380Y-59673333D01*
G04 #@! TO.C,J3*
X153752380Y-70833333D02*
X154466666Y-70833333D01*
X154609523Y-70880952D01*
X154704761Y-70976190D01*
X154752380Y-71119047D01*
X154752380Y-71214285D01*
X153752380Y-70452380D02*
X153752380Y-69833333D01*
X154133333Y-70166666D01*
X154133333Y-70023809D01*
X154180952Y-69928571D01*
X154228571Y-69880952D01*
X154323809Y-69833333D01*
X154561904Y-69833333D01*
X154657142Y-69880952D01*
X154704761Y-69928571D01*
X154752380Y-70023809D01*
X154752380Y-70309523D01*
X154704761Y-70404761D01*
X154657142Y-70452380D01*
G04 #@! TO.C,JP1*
X153122380Y-43200533D02*
X153836666Y-43200533D01*
X153979523Y-43248152D01*
X154074761Y-43343390D01*
X154122380Y-43486247D01*
X154122380Y-43581485D01*
X154122380Y-42724342D02*
X153122380Y-42724342D01*
X153122380Y-42343390D01*
X153170000Y-42248152D01*
X153217619Y-42200533D01*
X153312857Y-42152914D01*
X153455714Y-42152914D01*
X153550952Y-42200533D01*
X153598571Y-42248152D01*
X153646190Y-42343390D01*
X153646190Y-42724342D01*
X154122380Y-41200533D02*
X154122380Y-41771961D01*
X154122380Y-41486247D02*
X153122380Y-41486247D01*
X153265238Y-41581485D01*
X153360476Y-41676723D01*
X153408095Y-41771961D01*
G04 #@! TO.C,R1*
X123023333Y-46172380D02*
X122690000Y-45696190D01*
X122451904Y-46172380D02*
X122451904Y-45172380D01*
X122832857Y-45172380D01*
X122928095Y-45220000D01*
X122975714Y-45267619D01*
X123023333Y-45362857D01*
X123023333Y-45505714D01*
X122975714Y-45600952D01*
X122928095Y-45648571D01*
X122832857Y-45696190D01*
X122451904Y-45696190D01*
X123975714Y-46172380D02*
X123404285Y-46172380D01*
X123690000Y-46172380D02*
X123690000Y-45172380D01*
X123594761Y-45315238D01*
X123499523Y-45410476D01*
X123404285Y-45458095D01*
G04 #@! TO.C,R2*
X123023333Y-49982380D02*
X122690000Y-49506190D01*
X122451904Y-49982380D02*
X122451904Y-48982380D01*
X122832857Y-48982380D01*
X122928095Y-49030000D01*
X122975714Y-49077619D01*
X123023333Y-49172857D01*
X123023333Y-49315714D01*
X122975714Y-49410952D01*
X122928095Y-49458571D01*
X122832857Y-49506190D01*
X122451904Y-49506190D01*
X123404285Y-49077619D02*
X123451904Y-49030000D01*
X123547142Y-48982380D01*
X123785238Y-48982380D01*
X123880476Y-49030000D01*
X123928095Y-49077619D01*
X123975714Y-49172857D01*
X123975714Y-49268095D01*
X123928095Y-49410952D01*
X123356666Y-49982380D01*
X123975714Y-49982380D01*
G04 #@! TO.C,R3*
X123023333Y-53792380D02*
X122690000Y-53316190D01*
X122451904Y-53792380D02*
X122451904Y-52792380D01*
X122832857Y-52792380D01*
X122928095Y-52840000D01*
X122975714Y-52887619D01*
X123023333Y-52982857D01*
X123023333Y-53125714D01*
X122975714Y-53220952D01*
X122928095Y-53268571D01*
X122832857Y-53316190D01*
X122451904Y-53316190D01*
X123356666Y-52792380D02*
X123975714Y-52792380D01*
X123642380Y-53173333D01*
X123785238Y-53173333D01*
X123880476Y-53220952D01*
X123928095Y-53268571D01*
X123975714Y-53363809D01*
X123975714Y-53601904D01*
X123928095Y-53697142D01*
X123880476Y-53744761D01*
X123785238Y-53792380D01*
X123499523Y-53792380D01*
X123404285Y-53744761D01*
X123356666Y-53697142D01*
G04 #@! TO.C,R4*
X123023333Y-57602380D02*
X122690000Y-57126190D01*
X122451904Y-57602380D02*
X122451904Y-56602380D01*
X122832857Y-56602380D01*
X122928095Y-56650000D01*
X122975714Y-56697619D01*
X123023333Y-56792857D01*
X123023333Y-56935714D01*
X122975714Y-57030952D01*
X122928095Y-57078571D01*
X122832857Y-57126190D01*
X122451904Y-57126190D01*
X123880476Y-56935714D02*
X123880476Y-57602380D01*
X123642380Y-56554761D02*
X123404285Y-57269047D01*
X124023333Y-57269047D01*
G04 #@! TO.C,R5*
X123023333Y-61592380D02*
X122690000Y-61116190D01*
X122451904Y-61592380D02*
X122451904Y-60592380D01*
X122832857Y-60592380D01*
X122928095Y-60640000D01*
X122975714Y-60687619D01*
X123023333Y-60782857D01*
X123023333Y-60925714D01*
X122975714Y-61020952D01*
X122928095Y-61068571D01*
X122832857Y-61116190D01*
X122451904Y-61116190D01*
X123928095Y-60592380D02*
X123451904Y-60592380D01*
X123404285Y-61068571D01*
X123451904Y-61020952D01*
X123547142Y-60973333D01*
X123785238Y-60973333D01*
X123880476Y-61020952D01*
X123928095Y-61068571D01*
X123975714Y-61163809D01*
X123975714Y-61401904D01*
X123928095Y-61497142D01*
X123880476Y-61544761D01*
X123785238Y-61592380D01*
X123547142Y-61592380D01*
X123451904Y-61544761D01*
X123404285Y-61497142D01*
G04 #@! TO.C,R6*
X123023333Y-65222380D02*
X122690000Y-64746190D01*
X122451904Y-65222380D02*
X122451904Y-64222380D01*
X122832857Y-64222380D01*
X122928095Y-64270000D01*
X122975714Y-64317619D01*
X123023333Y-64412857D01*
X123023333Y-64555714D01*
X122975714Y-64650952D01*
X122928095Y-64698571D01*
X122832857Y-64746190D01*
X122451904Y-64746190D01*
X123880476Y-64222380D02*
X123690000Y-64222380D01*
X123594761Y-64270000D01*
X123547142Y-64317619D01*
X123451904Y-64460476D01*
X123404285Y-64650952D01*
X123404285Y-65031904D01*
X123451904Y-65127142D01*
X123499523Y-65174761D01*
X123594761Y-65222380D01*
X123785238Y-65222380D01*
X123880476Y-65174761D01*
X123928095Y-65127142D01*
X123975714Y-65031904D01*
X123975714Y-64793809D01*
X123928095Y-64698571D01*
X123880476Y-64650952D01*
X123785238Y-64603333D01*
X123594761Y-64603333D01*
X123499523Y-64650952D01*
X123451904Y-64698571D01*
X123404285Y-64793809D01*
G04 #@! TO.C,U1*
X137984095Y-46134380D02*
X137984095Y-46943904D01*
X138031714Y-47039142D01*
X138079333Y-47086761D01*
X138174571Y-47134380D01*
X138365047Y-47134380D01*
X138460285Y-47086761D01*
X138507904Y-47039142D01*
X138555523Y-46943904D01*
X138555523Y-46134380D01*
X139555523Y-47134380D02*
X138984095Y-47134380D01*
X139269809Y-47134380D02*
X139269809Y-46134380D01*
X139174571Y-46277238D01*
X139079333Y-46372476D01*
X138984095Y-46420095D01*
G04 #@! TO.C,U2*
X120102380Y-54736904D02*
X120911904Y-54736904D01*
X121007142Y-54689285D01*
X121054761Y-54641666D01*
X121102380Y-54546428D01*
X121102380Y-54355952D01*
X121054761Y-54260714D01*
X121007142Y-54213095D01*
X120911904Y-54165476D01*
X120102380Y-54165476D01*
X120197619Y-53736904D02*
X120150000Y-53689285D01*
X120102380Y-53594047D01*
X120102380Y-53355952D01*
X120150000Y-53260714D01*
X120197619Y-53213095D01*
X120292857Y-53165476D01*
X120388095Y-53165476D01*
X120530952Y-53213095D01*
X121102380Y-53784523D01*
X121102380Y-53165476D01*
X118832380Y-58109904D02*
X119832380Y-57871809D01*
X119118095Y-57681333D01*
X119832380Y-57490857D01*
X118832380Y-57252761D01*
X119784761Y-56490857D02*
X119832380Y-56586095D01*
X119832380Y-56776571D01*
X119784761Y-56871809D01*
X119689523Y-56919428D01*
X119308571Y-56919428D01*
X119213333Y-56871809D01*
X119165714Y-56776571D01*
X119165714Y-56586095D01*
X119213333Y-56490857D01*
X119308571Y-56443238D01*
X119403809Y-56443238D01*
X119499047Y-56919428D01*
X119832380Y-56014666D02*
X118832380Y-56014666D01*
X119546666Y-55681333D01*
X118832380Y-55348000D01*
X119832380Y-55348000D01*
X119832380Y-54728952D02*
X119784761Y-54824190D01*
X119737142Y-54871809D01*
X119641904Y-54919428D01*
X119356190Y-54919428D01*
X119260952Y-54871809D01*
X119213333Y-54824190D01*
X119165714Y-54728952D01*
X119165714Y-54586095D01*
X119213333Y-54490857D01*
X119260952Y-54443238D01*
X119356190Y-54395619D01*
X119641904Y-54395619D01*
X119737142Y-54443238D01*
X119784761Y-54490857D01*
X119832380Y-54586095D01*
X119832380Y-54728952D01*
X119784761Y-54014666D02*
X119832380Y-53919428D01*
X119832380Y-53728952D01*
X119784761Y-53633714D01*
X119689523Y-53586095D01*
X119641904Y-53586095D01*
X119546666Y-53633714D01*
X119499047Y-53728952D01*
X119499047Y-53871809D01*
X119451428Y-53967047D01*
X119356190Y-54014666D01*
X119308571Y-54014666D01*
X119213333Y-53967047D01*
X119165714Y-53871809D01*
X119165714Y-53728952D01*
X119213333Y-53633714D01*
X119927619Y-53395619D02*
X119927619Y-52633714D01*
X119832380Y-52395619D02*
X119165714Y-52395619D01*
X119260952Y-52395619D02*
X119213333Y-52348000D01*
X119165714Y-52252761D01*
X119165714Y-52109904D01*
X119213333Y-52014666D01*
X119308571Y-51967047D01*
X119832380Y-51967047D01*
X119308571Y-51967047D02*
X119213333Y-51919428D01*
X119165714Y-51824190D01*
X119165714Y-51681333D01*
X119213333Y-51586095D01*
X119308571Y-51538476D01*
X119832380Y-51538476D01*
X119832380Y-51062285D02*
X119165714Y-51062285D01*
X118832380Y-51062285D02*
X118880000Y-51109904D01*
X118927619Y-51062285D01*
X118880000Y-51014666D01*
X118832380Y-51062285D01*
X118927619Y-51062285D01*
X119165714Y-50586095D02*
X119832380Y-50586095D01*
X119260952Y-50586095D02*
X119213333Y-50538476D01*
X119165714Y-50443238D01*
X119165714Y-50300380D01*
X119213333Y-50205142D01*
X119308571Y-50157523D01*
X119832380Y-50157523D01*
X119832380Y-49681333D02*
X119165714Y-49681333D01*
X118832380Y-49681333D02*
X118880000Y-49728952D01*
X118927619Y-49681333D01*
X118880000Y-49633714D01*
X118832380Y-49681333D01*
X118927619Y-49681333D01*
G04 #@! TO.C,D1*
X147261904Y-58952380D02*
X147261904Y-57952380D01*
X147500000Y-57952380D01*
X147642857Y-58000000D01*
X147738095Y-58095238D01*
X147785714Y-58190476D01*
X147833333Y-58380952D01*
X147833333Y-58523809D01*
X147785714Y-58714285D01*
X147738095Y-58809523D01*
X147642857Y-58904761D01*
X147500000Y-58952380D01*
X147261904Y-58952380D01*
X148785714Y-58952380D02*
X148214285Y-58952380D01*
X148500000Y-58952380D02*
X148500000Y-57952380D01*
X148404761Y-58095238D01*
X148309523Y-58190476D01*
X148214285Y-58238095D01*
G04 #@! TO.C,IRFZ44N1*
X146642857Y-72103380D02*
X146642857Y-71103380D01*
X147690476Y-72103380D02*
X147357142Y-71627190D01*
X147119047Y-72103380D02*
X147119047Y-71103380D01*
X147500000Y-71103380D01*
X147595238Y-71151000D01*
X147642857Y-71198619D01*
X147690476Y-71293857D01*
X147690476Y-71436714D01*
X147642857Y-71531952D01*
X147595238Y-71579571D01*
X147500000Y-71627190D01*
X147119047Y-71627190D01*
X148452380Y-71579571D02*
X148119047Y-71579571D01*
X148119047Y-72103380D02*
X148119047Y-71103380D01*
X148595238Y-71103380D01*
X148880952Y-71103380D02*
X149547619Y-71103380D01*
X148880952Y-72103380D01*
X149547619Y-72103380D01*
X150357142Y-71436714D02*
X150357142Y-72103380D01*
X150119047Y-71055761D02*
X149880952Y-71770047D01*
X150500000Y-71770047D01*
X151309523Y-71436714D02*
X151309523Y-72103380D01*
X151071428Y-71055761D02*
X150833333Y-71770047D01*
X151452380Y-71770047D01*
X151833333Y-72103380D02*
X151833333Y-71103380D01*
X152404761Y-72103380D01*
X152404761Y-71103380D01*
X153404761Y-72103380D02*
X152833333Y-72103380D01*
X153119047Y-72103380D02*
X153119047Y-71103380D01*
X153023809Y-71246238D01*
X152928571Y-71341476D01*
X152833333Y-71389095D01*
G04 #@! TD*
M02*
