G04 #@! TF.GenerationSoftware,KiCad,Pcbnew,5.0.1*
G04 #@! TF.CreationDate,2019-02-08T19:01:01+01:00*
G04 #@! TF.ProjectId,wasserschaden_smd,7761737365727363686164656E5F736D,rev?*
G04 #@! TF.SameCoordinates,Original*
G04 #@! TF.FileFunction,Soldermask,Top*
G04 #@! TF.FilePolarity,Negative*
%FSLAX46Y46*%
G04 Gerber Fmt 4.6, Leading zero omitted, Abs format (unit mm)*
G04 Created by KiCad (PCBNEW 5.0.1) date Fr 08 Feb 2019 19:01:01 CET*
%MOMM*%
%LPD*%
G01*
G04 APERTURE LIST*
%ADD10R,2.000000X4.000000*%
%ADD11R,3.960000X1.980000*%
%ADD12O,3.960000X1.980000*%
%ADD13R,1.200000X0.900000*%
%ADD14C,1.800000*%
%ADD15R,1.800000X1.800000*%
%ADD16C,1.274184*%
%ADD17C,0.100000*%
%ADD18C,2.000000*%
%ADD19O,1.800000X1.800000*%
G04 APERTURE END LIST*
D10*
G04 #@! TO.C,U1*
X100330000Y-122825000D03*
X100330000Y-113395000D03*
X80010000Y-122698000D03*
X80010000Y-113395000D03*
G04 #@! TD*
D11*
G04 #@! TO.C,J1*
X111760000Y-114300000D03*
D12*
X111760000Y-109300000D03*
G04 #@! TD*
D13*
G04 #@! TO.C,R6*
X74760000Y-129540000D03*
X72560000Y-129540000D03*
G04 #@! TD*
G04 #@! TO.C,R2*
X72560000Y-114300000D03*
X74760000Y-114300000D03*
G04 #@! TD*
D14*
G04 #@! TO.C,D4*
X89535000Y-135255000D03*
D15*
X86995000Y-135255000D03*
G04 #@! TD*
D13*
G04 #@! TO.C,R1*
X74760000Y-110490000D03*
X72560000Y-110490000D03*
G04 #@! TD*
G04 #@! TO.C,R5*
X72560000Y-125730000D03*
X74760000Y-125730000D03*
G04 #@! TD*
G04 #@! TO.C,R6*
X122090000Y-129540000D03*
X124290000Y-129540000D03*
G04 #@! TD*
G04 #@! TO.C,R2*
X124290000Y-114300000D03*
X122090000Y-114300000D03*
G04 #@! TD*
D16*
G04 #@! TO.C,JP1*
X151130000Y-109220000D03*
D17*
G36*
X151392000Y-109982000D02*
X150868000Y-109982000D01*
X149868000Y-108458000D01*
X152392000Y-108458000D01*
X151392000Y-109982000D01*
X151392000Y-109982000D01*
G37*
D16*
X151130000Y-107594400D03*
D17*
G36*
X152392000Y-108356400D02*
X149868000Y-108356400D01*
X150868000Y-106832400D01*
X151392000Y-106832400D01*
X152392000Y-108356400D01*
X152392000Y-108356400D01*
G37*
G04 #@! TD*
D12*
G04 #@! TO.C,J3*
X161290000Y-129620000D03*
D11*
X161290000Y-134620000D03*
G04 #@! TD*
D13*
G04 #@! TO.C,R4*
X124290000Y-121920000D03*
X122090000Y-121920000D03*
G04 #@! TD*
G04 #@! TO.C,R4*
X72560000Y-121920000D03*
X74760000Y-121920000D03*
G04 #@! TD*
D18*
G04 #@! TO.C,U3*
X78613000Y-135255000D03*
X75565000Y-135255000D03*
X72517000Y-135255000D03*
G04 #@! TD*
D12*
G04 #@! TO.C,J2*
X111760000Y-119460000D03*
D11*
X111760000Y-124460000D03*
G04 #@! TD*
D18*
G04 #@! TO.C,U3*
X122047000Y-135255000D03*
X125095000Y-135255000D03*
X128143000Y-135255000D03*
G04 #@! TD*
D14*
G04 #@! TO.C,U2*
X96520000Y-130810000D03*
X96520000Y-107950000D03*
X93980000Y-130810000D03*
X93980000Y-107950000D03*
X91440000Y-130810000D03*
X91440000Y-107950000D03*
X88900000Y-130810000D03*
X88900000Y-107950000D03*
X86360000Y-130810000D03*
X86360000Y-107950000D03*
X83820000Y-130810000D03*
X83820000Y-107950000D03*
X81280000Y-130810000D03*
X81280000Y-107950000D03*
X78740000Y-130810000D03*
X78740000Y-107950000D03*
G04 #@! TD*
D11*
G04 #@! TO.C,J3*
X111760000Y-134620000D03*
D12*
X111760000Y-129620000D03*
G04 #@! TD*
D15*
G04 #@! TO.C,D1*
X95885000Y-127000000D03*
D19*
X103505000Y-127000000D03*
G04 #@! TD*
D13*
G04 #@! TO.C,R3*
X72560000Y-118110000D03*
X74760000Y-118110000D03*
G04 #@! TD*
D18*
G04 #@! TO.C,IRFZ44N1*
X97790000Y-135890000D03*
X100330000Y-135890000D03*
X102870000Y-135890000D03*
G04 #@! TD*
D15*
G04 #@! TO.C,D3*
X92075000Y-135255000D03*
D14*
X94615000Y-135255000D03*
G04 #@! TD*
D15*
G04 #@! TO.C,D2*
X81915000Y-135255000D03*
D14*
X84455000Y-135255000D03*
G04 #@! TD*
D16*
G04 #@! TO.C,JP1*
X101600000Y-107594400D03*
D17*
G36*
X102862000Y-108356400D02*
X100338000Y-108356400D01*
X101338000Y-106832400D01*
X101862000Y-106832400D01*
X102862000Y-108356400D01*
X102862000Y-108356400D01*
G37*
D16*
X101600000Y-109220000D03*
D17*
G36*
X101862000Y-109982000D02*
X101338000Y-109982000D01*
X100338000Y-108458000D01*
X102862000Y-108458000D01*
X101862000Y-109982000D01*
X101862000Y-109982000D01*
G37*
G04 #@! TD*
D19*
G04 #@! TO.C,D1*
X153035000Y-127000000D03*
D15*
X145415000Y-127000000D03*
G04 #@! TD*
D18*
G04 #@! TO.C,IRFZ44N1*
X152400000Y-135890000D03*
X149860000Y-135890000D03*
X147320000Y-135890000D03*
G04 #@! TD*
D11*
G04 #@! TO.C,J2*
X161290000Y-124460000D03*
D12*
X161290000Y-119460000D03*
G04 #@! TD*
D13*
G04 #@! TO.C,R5*
X124290000Y-125730000D03*
X122090000Y-125730000D03*
G04 #@! TD*
D15*
G04 #@! TO.C,D4*
X136525000Y-135255000D03*
D14*
X139065000Y-135255000D03*
G04 #@! TD*
G04 #@! TO.C,D2*
X133985000Y-135255000D03*
D15*
X131445000Y-135255000D03*
G04 #@! TD*
D13*
G04 #@! TO.C,R3*
X124290000Y-118110000D03*
X122090000Y-118110000D03*
G04 #@! TD*
D14*
G04 #@! TO.C,D3*
X144145000Y-135255000D03*
D15*
X141605000Y-135255000D03*
G04 #@! TD*
D12*
G04 #@! TO.C,J1*
X161290000Y-109300000D03*
D11*
X161290000Y-114300000D03*
G04 #@! TD*
D13*
G04 #@! TO.C,R1*
X122090000Y-110490000D03*
X124290000Y-110490000D03*
G04 #@! TD*
D14*
G04 #@! TO.C,U2*
X128270000Y-107950000D03*
X128270000Y-130810000D03*
X130810000Y-107950000D03*
X130810000Y-130810000D03*
X133350000Y-107950000D03*
X133350000Y-130810000D03*
X135890000Y-107950000D03*
X135890000Y-130810000D03*
X138430000Y-107950000D03*
X138430000Y-130810000D03*
X140970000Y-107950000D03*
X140970000Y-130810000D03*
X143510000Y-107950000D03*
X143510000Y-130810000D03*
X146050000Y-107950000D03*
X146050000Y-130810000D03*
G04 #@! TD*
D10*
G04 #@! TO.C,U1*
X129540000Y-113395000D03*
X129540000Y-122698000D03*
X149860000Y-113395000D03*
X149860000Y-122825000D03*
G04 #@! TD*
D13*
G04 #@! TO.C,R4*
X74760000Y-88900000D03*
X72560000Y-88900000D03*
G04 #@! TD*
D18*
G04 #@! TO.C,U3*
X72517000Y-102235000D03*
X75565000Y-102235000D03*
X78613000Y-102235000D03*
G04 #@! TD*
D11*
G04 #@! TO.C,J2*
X111760000Y-91440000D03*
D12*
X111760000Y-86440000D03*
G04 #@! TD*
D18*
G04 #@! TO.C,U3*
X128143000Y-102235000D03*
X125095000Y-102235000D03*
X122047000Y-102235000D03*
G04 #@! TD*
D14*
G04 #@! TO.C,U2*
X78740000Y-74930000D03*
X78740000Y-97790000D03*
X81280000Y-74930000D03*
X81280000Y-97790000D03*
X83820000Y-74930000D03*
X83820000Y-97790000D03*
X86360000Y-74930000D03*
X86360000Y-97790000D03*
X88900000Y-74930000D03*
X88900000Y-97790000D03*
X91440000Y-74930000D03*
X91440000Y-97790000D03*
X93980000Y-74930000D03*
X93980000Y-97790000D03*
X96520000Y-74930000D03*
X96520000Y-97790000D03*
G04 #@! TD*
D12*
G04 #@! TO.C,J3*
X111760000Y-96600000D03*
D11*
X111760000Y-101600000D03*
G04 #@! TD*
D19*
G04 #@! TO.C,D1*
X103505000Y-93980000D03*
D15*
X95885000Y-93980000D03*
G04 #@! TD*
D13*
G04 #@! TO.C,R3*
X74760000Y-85090000D03*
X72560000Y-85090000D03*
G04 #@! TD*
D18*
G04 #@! TO.C,IRFZ44N1*
X102870000Y-102870000D03*
X100330000Y-102870000D03*
X97790000Y-102870000D03*
G04 #@! TD*
D14*
G04 #@! TO.C,D3*
X94615000Y-102235000D03*
D15*
X92075000Y-102235000D03*
G04 #@! TD*
D14*
G04 #@! TO.C,D2*
X84455000Y-102235000D03*
D15*
X81915000Y-102235000D03*
G04 #@! TD*
D16*
G04 #@! TO.C,JP1*
X101600000Y-76200000D03*
D17*
G36*
X101862000Y-76962000D02*
X101338000Y-76962000D01*
X100338000Y-75438000D01*
X102862000Y-75438000D01*
X101862000Y-76962000D01*
X101862000Y-76962000D01*
G37*
D16*
X101600000Y-74574400D03*
D17*
G36*
X102862000Y-75336400D02*
X100338000Y-75336400D01*
X101338000Y-73812400D01*
X101862000Y-73812400D01*
X102862000Y-75336400D01*
X102862000Y-75336400D01*
G37*
G04 #@! TD*
D10*
G04 #@! TO.C,U1*
X80010000Y-80375000D03*
X80010000Y-89678000D03*
X100330000Y-80375000D03*
X100330000Y-89805000D03*
G04 #@! TD*
D12*
G04 #@! TO.C,J1*
X111760000Y-76280000D03*
D11*
X111760000Y-81280000D03*
G04 #@! TD*
D13*
G04 #@! TO.C,R6*
X72560000Y-96520000D03*
X74760000Y-96520000D03*
G04 #@! TD*
G04 #@! TO.C,R2*
X74760000Y-81280000D03*
X72560000Y-81280000D03*
G04 #@! TD*
D15*
G04 #@! TO.C,D4*
X86995000Y-102235000D03*
D14*
X89535000Y-102235000D03*
G04 #@! TD*
D13*
G04 #@! TO.C,R1*
X72560000Y-77470000D03*
X74760000Y-77470000D03*
G04 #@! TD*
G04 #@! TO.C,R5*
X74760000Y-92710000D03*
X72560000Y-92710000D03*
G04 #@! TD*
G04 #@! TO.C,R6*
X124290000Y-96520000D03*
X122090000Y-96520000D03*
G04 #@! TD*
G04 #@! TO.C,R2*
X122090000Y-81280000D03*
X124290000Y-81280000D03*
G04 #@! TD*
D10*
G04 #@! TO.C,U1*
X149860000Y-89805000D03*
X149860000Y-80375000D03*
X129540000Y-89678000D03*
X129540000Y-80375000D03*
G04 #@! TD*
D13*
G04 #@! TO.C,R4*
X122090000Y-88900000D03*
X124290000Y-88900000D03*
G04 #@! TD*
D11*
G04 #@! TO.C,J1*
X161290000Y-81280000D03*
D12*
X161290000Y-76280000D03*
G04 #@! TD*
D15*
G04 #@! TO.C,D2*
X131445000Y-102235000D03*
D14*
X133985000Y-102235000D03*
G04 #@! TD*
D15*
G04 #@! TO.C,D1*
X145415000Y-93980000D03*
D19*
X153035000Y-93980000D03*
G04 #@! TD*
D16*
G04 #@! TO.C,JP1*
X151130000Y-74574400D03*
D17*
G36*
X152392000Y-75336400D02*
X149868000Y-75336400D01*
X150868000Y-73812400D01*
X151392000Y-73812400D01*
X152392000Y-75336400D01*
X152392000Y-75336400D01*
G37*
D16*
X151130000Y-76200000D03*
D17*
G36*
X151392000Y-76962000D02*
X150868000Y-76962000D01*
X149868000Y-75438000D01*
X152392000Y-75438000D01*
X151392000Y-76962000D01*
X151392000Y-76962000D01*
G37*
G04 #@! TD*
D14*
G04 #@! TO.C,D4*
X139065000Y-102235000D03*
D15*
X136525000Y-102235000D03*
G04 #@! TD*
D13*
G04 #@! TO.C,R1*
X124290000Y-77470000D03*
X122090000Y-77470000D03*
G04 #@! TD*
D12*
G04 #@! TO.C,J2*
X161290000Y-86440000D03*
D11*
X161290000Y-91440000D03*
G04 #@! TD*
G04 #@! TO.C,J3*
X161290000Y-101600000D03*
D12*
X161290000Y-96600000D03*
G04 #@! TD*
D13*
G04 #@! TO.C,R3*
X122090000Y-85090000D03*
X124290000Y-85090000D03*
G04 #@! TD*
D14*
G04 #@! TO.C,U2*
X146050000Y-97790000D03*
X146050000Y-74930000D03*
X143510000Y-97790000D03*
X143510000Y-74930000D03*
X140970000Y-97790000D03*
X140970000Y-74930000D03*
X138430000Y-97790000D03*
X138430000Y-74930000D03*
X135890000Y-97790000D03*
X135890000Y-74930000D03*
X133350000Y-97790000D03*
X133350000Y-74930000D03*
X130810000Y-97790000D03*
X130810000Y-74930000D03*
X128270000Y-97790000D03*
X128270000Y-74930000D03*
G04 #@! TD*
D13*
G04 #@! TO.C,R5*
X122090000Y-92710000D03*
X124290000Y-92710000D03*
G04 #@! TD*
D15*
G04 #@! TO.C,D3*
X141605000Y-102235000D03*
D14*
X144145000Y-102235000D03*
G04 #@! TD*
D18*
G04 #@! TO.C,IRFZ44N1*
X147320000Y-102870000D03*
X149860000Y-102870000D03*
X152400000Y-102870000D03*
G04 #@! TD*
G04 #@! TO.C,U3*
X78613000Y-69215000D03*
X75565000Y-69215000D03*
X72517000Y-69215000D03*
G04 #@! TD*
D13*
G04 #@! TO.C,R6*
X74760000Y-63500000D03*
X72560000Y-63500000D03*
G04 #@! TD*
G04 #@! TO.C,R2*
X72560000Y-48260000D03*
X74760000Y-48260000D03*
G04 #@! TD*
D10*
G04 #@! TO.C,U1*
X100330000Y-56785000D03*
X100330000Y-47355000D03*
X80010000Y-56658000D03*
X80010000Y-47355000D03*
G04 #@! TD*
D13*
G04 #@! TO.C,R4*
X72560000Y-55880000D03*
X74760000Y-55880000D03*
G04 #@! TD*
D11*
G04 #@! TO.C,J1*
X111760000Y-48260000D03*
D12*
X111760000Y-43260000D03*
G04 #@! TD*
D15*
G04 #@! TO.C,D2*
X81915000Y-69215000D03*
D14*
X84455000Y-69215000D03*
G04 #@! TD*
D15*
G04 #@! TO.C,D1*
X95885000Y-60960000D03*
D19*
X103505000Y-60960000D03*
G04 #@! TD*
D16*
G04 #@! TO.C,JP1*
X101600000Y-41554400D03*
D17*
G36*
X102862000Y-42316400D02*
X100338000Y-42316400D01*
X101338000Y-40792400D01*
X101862000Y-40792400D01*
X102862000Y-42316400D01*
X102862000Y-42316400D01*
G37*
D16*
X101600000Y-43180000D03*
D17*
G36*
X101862000Y-43942000D02*
X101338000Y-43942000D01*
X100338000Y-42418000D01*
X102862000Y-42418000D01*
X101862000Y-43942000D01*
X101862000Y-43942000D01*
G37*
G04 #@! TD*
D14*
G04 #@! TO.C,D4*
X89535000Y-69215000D03*
D15*
X86995000Y-69215000D03*
G04 #@! TD*
D13*
G04 #@! TO.C,R1*
X74760000Y-44450000D03*
X72560000Y-44450000D03*
G04 #@! TD*
D12*
G04 #@! TO.C,J2*
X111760000Y-53420000D03*
D11*
X111760000Y-58420000D03*
G04 #@! TD*
G04 #@! TO.C,J3*
X111760000Y-68580000D03*
D12*
X111760000Y-63580000D03*
G04 #@! TD*
D13*
G04 #@! TO.C,R3*
X72560000Y-52070000D03*
X74760000Y-52070000D03*
G04 #@! TD*
D14*
G04 #@! TO.C,U2*
X96520000Y-64770000D03*
X96520000Y-41910000D03*
X93980000Y-64770000D03*
X93980000Y-41910000D03*
X91440000Y-64770000D03*
X91440000Y-41910000D03*
X88900000Y-64770000D03*
X88900000Y-41910000D03*
X86360000Y-64770000D03*
X86360000Y-41910000D03*
X83820000Y-64770000D03*
X83820000Y-41910000D03*
X81280000Y-64770000D03*
X81280000Y-41910000D03*
X78740000Y-64770000D03*
X78740000Y-41910000D03*
G04 #@! TD*
D13*
G04 #@! TO.C,R5*
X72560000Y-59690000D03*
X74760000Y-59690000D03*
G04 #@! TD*
D15*
G04 #@! TO.C,D3*
X92075000Y-69215000D03*
D14*
X94615000Y-69215000D03*
G04 #@! TD*
D18*
G04 #@! TO.C,IRFZ44N1*
X97790000Y-69850000D03*
X100330000Y-69850000D03*
X102870000Y-69850000D03*
G04 #@! TD*
D15*
G04 #@! TO.C,D4*
X136525000Y-69215000D03*
D14*
X139065000Y-69215000D03*
G04 #@! TD*
D18*
G04 #@! TO.C,U3*
X122047000Y-69215000D03*
X125095000Y-69215000D03*
X128143000Y-69215000D03*
G04 #@! TD*
G04 #@! TO.C,IRFZ44N1*
X152400000Y-69850000D03*
X149860000Y-69850000D03*
X147320000Y-69850000D03*
G04 #@! TD*
D19*
G04 #@! TO.C,D1*
X153035000Y-60960000D03*
D15*
X145415000Y-60960000D03*
G04 #@! TD*
D14*
G04 #@! TO.C,D2*
X133985000Y-69215000D03*
D15*
X131445000Y-69215000D03*
G04 #@! TD*
D14*
G04 #@! TO.C,D3*
X144145000Y-69215000D03*
D15*
X141605000Y-69215000D03*
G04 #@! TD*
D12*
G04 #@! TO.C,J1*
X161290000Y-43260000D03*
D11*
X161290000Y-48260000D03*
G04 #@! TD*
G04 #@! TO.C,J2*
X161290000Y-58420000D03*
D12*
X161290000Y-53420000D03*
G04 #@! TD*
G04 #@! TO.C,J3*
X161290000Y-63580000D03*
D11*
X161290000Y-68580000D03*
G04 #@! TD*
D16*
G04 #@! TO.C,JP1*
X151130000Y-43180000D03*
D17*
G36*
X151392000Y-43942000D02*
X150868000Y-43942000D01*
X149868000Y-42418000D01*
X152392000Y-42418000D01*
X151392000Y-43942000D01*
X151392000Y-43942000D01*
G37*
D16*
X151130000Y-41554400D03*
D17*
G36*
X152392000Y-42316400D02*
X149868000Y-42316400D01*
X150868000Y-40792400D01*
X151392000Y-40792400D01*
X152392000Y-42316400D01*
X152392000Y-42316400D01*
G37*
G04 #@! TD*
D13*
G04 #@! TO.C,R1*
X122090000Y-44450000D03*
X124290000Y-44450000D03*
G04 #@! TD*
G04 #@! TO.C,R2*
X124290000Y-48260000D03*
X122090000Y-48260000D03*
G04 #@! TD*
G04 #@! TO.C,R3*
X124290000Y-52070000D03*
X122090000Y-52070000D03*
G04 #@! TD*
G04 #@! TO.C,R4*
X124290000Y-55880000D03*
X122090000Y-55880000D03*
G04 #@! TD*
G04 #@! TO.C,R5*
X124290000Y-59690000D03*
X122090000Y-59690000D03*
G04 #@! TD*
G04 #@! TO.C,R6*
X122090000Y-63500000D03*
X124290000Y-63500000D03*
G04 #@! TD*
D10*
G04 #@! TO.C,U1*
X129540000Y-47355000D03*
X129540000Y-56658000D03*
X149860000Y-47355000D03*
X149860000Y-56785000D03*
G04 #@! TD*
D14*
G04 #@! TO.C,U2*
X128270000Y-41910000D03*
X128270000Y-64770000D03*
X130810000Y-41910000D03*
X130810000Y-64770000D03*
X133350000Y-41910000D03*
X133350000Y-64770000D03*
X135890000Y-41910000D03*
X135890000Y-64770000D03*
X138430000Y-41910000D03*
X138430000Y-64770000D03*
X140970000Y-41910000D03*
X140970000Y-64770000D03*
X143510000Y-41910000D03*
X143510000Y-64770000D03*
X146050000Y-41910000D03*
X146050000Y-64770000D03*
G04 #@! TD*
M02*
