G04 #@! TF.GenerationSoftware,KiCad,Pcbnew,5.0.1*
G04 #@! TF.CreationDate,2019-02-08T19:01:01+01:00*
G04 #@! TF.ProjectId,wasserschaden_smd,7761737365727363686164656E5F736D,rev?*
G04 #@! TF.SameCoordinates,Original*
G04 #@! TF.FileFunction,Profile,NP*
%FSLAX46Y46*%
G04 Gerber Fmt 4.6, Leading zero omitted, Abs format (unit mm)*
G04 Created by KiCad (PCBNEW 5.0.1) date Fr 08 Feb 2019 19:01:01 CET*
%MOMM*%
%LPD*%
G01*
G04 APERTURE LIST*
%ADD10C,0.100000*%
G04 APERTURE END LIST*
D10*
X121920000Y-105410000D02*
X163830000Y-105410000D01*
X163830000Y-105410000D02*
G75*
G02X167640000Y-109220000I0J-3810000D01*
G01*
X167640000Y-134620000D02*
G75*
G02X163830000Y-138430000I-3810000J0D01*
G01*
X72390000Y-138430000D02*
G75*
G02X68580000Y-134620000I0J3810000D01*
G01*
X163830000Y-138430000D02*
X121920000Y-138430000D01*
X118110000Y-109220000D02*
X118110000Y-134620000D01*
X167640000Y-109220000D02*
X167640000Y-134620000D01*
X72390000Y-105410000D02*
X114300000Y-105410000D01*
X114300000Y-105410000D02*
G75*
G02X118110000Y-109220000I0J-3810000D01*
G01*
X114300000Y-138430000D02*
X72390000Y-138430000D01*
X118110000Y-109220000D02*
G75*
G02X121920000Y-105410000I3810000J0D01*
G01*
X68580000Y-109220000D02*
G75*
G02X72390000Y-105410000I3810000J0D01*
G01*
X121920000Y-138430000D02*
G75*
G02X118110000Y-134620000I0J3810000D01*
G01*
X118110000Y-134620000D02*
G75*
G02X114300000Y-138430000I-3810000J0D01*
G01*
X118110000Y-109220000D02*
X118110000Y-134620000D01*
X68580000Y-109220000D02*
X68580000Y-134620000D01*
X72390000Y-105410000D02*
G75*
G02X68580000Y-101600000I0J3810000D01*
G01*
X167640000Y-101600000D02*
G75*
G02X163830000Y-105410000I-3810000J0D01*
G01*
X114300000Y-105410000D02*
X72390000Y-105410000D01*
X118110000Y-101600000D02*
G75*
G02X114300000Y-105410000I-3810000J0D01*
G01*
X118110000Y-76200000D02*
G75*
G02X121920000Y-72390000I3810000J0D01*
G01*
X72390000Y-72390000D02*
X114300000Y-72390000D01*
X121920000Y-105410000D02*
G75*
G02X118110000Y-101600000I0J3810000D01*
G01*
X68580000Y-76200000D02*
G75*
G02X72390000Y-72390000I3810000J0D01*
G01*
X114300000Y-72390000D02*
G75*
G02X118110000Y-76200000I0J-3810000D01*
G01*
X163830000Y-72390000D02*
G75*
G02X167640000Y-76200000I0J-3810000D01*
G01*
X118110000Y-76200000D02*
X118110000Y-101600000D01*
X68580000Y-76200000D02*
X68580000Y-101600000D01*
X121920000Y-72390000D02*
X163830000Y-72390000D01*
X167640000Y-76200000D02*
X167640000Y-101600000D01*
X118110000Y-76200000D02*
X118110000Y-101600000D01*
X163830000Y-105410000D02*
X121920000Y-105410000D01*
X118110000Y-68580000D02*
G75*
G02X114300000Y-72390000I-3810000J0D01*
G01*
X68580000Y-43180000D02*
G75*
G02X72390000Y-39370000I3810000J0D01*
G01*
X72390000Y-72390000D02*
G75*
G02X68580000Y-68580000I0J3810000D01*
G01*
X114300000Y-39370000D02*
G75*
G02X118110000Y-43180000I0J-3810000D01*
G01*
X72390000Y-39370000D02*
X114300000Y-39370000D01*
X118110000Y-43180000D02*
X118110000Y-68580000D01*
X68580000Y-43180000D02*
X68580000Y-68580000D01*
X114300000Y-72390000D02*
X72390000Y-72390000D01*
X163830000Y-72390000D02*
X121920000Y-72390000D01*
X121920000Y-39370000D02*
X163830000Y-39370000D01*
X118110000Y-43180000D02*
X118110000Y-68580000D01*
X167640000Y-43180000D02*
X167640000Y-68580000D01*
X121920000Y-72390000D02*
G75*
G02X118110000Y-68580000I0J3810000D01*
G01*
X167640000Y-68580000D02*
G75*
G02X163830000Y-72390000I-3810000J0D01*
G01*
X163830000Y-39370000D02*
G75*
G02X167640000Y-43180000I0J-3810000D01*
G01*
X118110000Y-43180000D02*
G75*
G02X121920000Y-39370000I3810000J0D01*
G01*
M02*
