M48
;DRILL file {KiCad 5.0.1} date Fr 08 Feb 2019 19:00:53 CET
;FORMAT={-:-/ absolute / inch / decimal}
FMAT,2
INCH,TZ
T1C0.0157
T2C0.0300
T3C0.0354
T4C0.0394
T5C0.0400
T6C0.0472
T7C0.0520
%
G90
G05
M72
T1
X2.8567Y-1.975
X2.8567Y-3.275
X2.8567Y-4.575
X3.Y-1.95
X3.Y-3.25
X3.Y-4.55
X4.8067Y-1.975
X4.8067Y-3.275
X4.8067Y-4.575
X4.95Y-1.95
X4.95Y-3.25
X4.95Y-4.55
T3
X5.175Y-2.725
X5.275Y-2.725
X5.175Y-5.325
X5.275Y-5.325
X5.375Y-5.325
X5.475Y-5.325
X3.425Y-5.325
X3.525Y-5.325
X3.775Y-5.
X4.075Y-5.
X5.575Y-4.025
X5.675Y-4.025
X3.225Y-5.325
X3.325Y-5.325
X5.725Y-2.4
X6.025Y-2.4
X5.375Y-2.725
X5.475Y-2.725
X3.625Y-4.025
X3.725Y-4.025
X3.775Y-2.4
X4.075Y-2.4
X5.575Y-5.325
X5.675Y-5.325
X3.225Y-2.725
X3.325Y-2.725
X5.725Y-3.7
X6.025Y-3.7
X3.625Y-2.725
X3.725Y-2.725
X3.225Y-4.025
X3.325Y-4.025
X3.775Y-3.7
X4.075Y-3.7
X5.575Y-2.725
X5.675Y-2.725
X3.625Y-5.325
X3.725Y-5.325
X3.425Y-4.025
X3.525Y-4.025
X5.725Y-5.
X6.025Y-5.
X5.175Y-4.025
X5.275Y-4.025
X5.375Y-4.025
X5.475Y-4.025
X3.425Y-2.725
X3.525Y-2.725
T4
X5.1Y-3.125
X5.1Y-3.57
X5.9Y-3.125
X5.9Y-3.575
X3.15Y-4.425
X3.15Y-4.87
X3.95Y-4.425
X3.95Y-4.875
X5.1Y-4.425
X5.1Y-4.87
X5.9Y-4.425
X5.9Y-4.875
X3.15Y-1.825
X3.15Y-2.27
X3.95Y-1.825
X3.95Y-2.275
X5.1Y-1.825
X5.1Y-2.27
X5.9Y-1.825
X5.9Y-2.275
X3.15Y-3.125
X3.15Y-3.57
X3.95Y-3.125
X3.95Y-3.575
T5
X3.1Y-4.25
X3.1Y-5.15
X3.2Y-4.25
X3.2Y-5.15
X3.3Y-4.25
X3.3Y-5.15
X3.4Y-4.25
X3.4Y-5.15
X3.5Y-4.25
X3.5Y-5.15
X3.6Y-4.25
X3.6Y-5.15
X3.7Y-4.25
X3.7Y-5.15
X3.8Y-4.25
X3.8Y-5.15
X5.05Y-1.65
X5.05Y-2.55
X5.15Y-1.65
X5.15Y-2.55
X5.25Y-1.65
X5.25Y-2.55
X5.35Y-1.65
X5.35Y-2.55
X5.45Y-1.65
X5.45Y-2.55
X5.55Y-1.65
X5.55Y-2.55
X5.65Y-1.65
X5.65Y-2.55
X5.75Y-1.65
X5.75Y-2.55
X3.1Y-1.65
X3.1Y-2.55
X3.2Y-1.65
X3.2Y-2.55
X3.3Y-1.65
X3.3Y-2.55
X3.4Y-1.65
X3.4Y-2.55
X3.5Y-1.65
X3.5Y-2.55
X3.6Y-1.65
X3.6Y-2.55
X3.7Y-1.65
X3.7Y-2.55
X3.8Y-1.65
X3.8Y-2.55
X5.05Y-2.95
X5.05Y-3.85
X5.15Y-2.95
X5.15Y-3.85
X5.25Y-2.95
X5.25Y-3.85
X5.35Y-2.95
X5.35Y-3.85
X5.45Y-2.95
X5.45Y-3.85
X5.55Y-2.95
X5.55Y-3.85
X5.65Y-2.95
X5.65Y-3.85
X5.75Y-2.95
X5.75Y-3.85
X3.1Y-2.95
X3.1Y-3.85
X3.2Y-2.95
X3.2Y-3.85
X3.3Y-2.95
X3.3Y-3.85
X3.4Y-2.95
X3.4Y-3.85
X3.5Y-2.95
X3.5Y-3.85
X3.6Y-2.95
X3.6Y-3.85
X3.7Y-2.95
X3.7Y-3.85
X3.8Y-2.95
X3.8Y-3.85
X5.05Y-4.25
X5.05Y-5.15
X5.15Y-4.25
X5.15Y-5.15
X5.25Y-4.25
X5.25Y-5.15
X5.35Y-4.25
X5.35Y-5.15
X5.45Y-4.25
X5.45Y-5.15
X5.55Y-4.25
X5.55Y-5.15
X5.65Y-4.25
X5.65Y-5.15
X5.75Y-4.25
X5.75Y-5.15
T6
X4.805Y-2.725
X4.925Y-2.725
X5.045Y-2.725
X2.855Y-5.325
X2.975Y-5.325
X3.095Y-5.325
X4.805Y-4.025
X4.925Y-4.025
X5.045Y-4.025
X2.855Y-2.725
X2.975Y-2.725
X3.095Y-2.725
X2.855Y-4.025
X2.975Y-4.025
X3.095Y-4.025
X4.805Y-5.325
X4.925Y-5.325
X5.045Y-5.325
T7
X6.35Y-1.7031
X6.35Y-1.9
X4.4Y-4.3031
X4.4Y-4.5
X4.4Y-4.7031
X4.4Y-4.9
X6.35Y-2.5031
X6.35Y-2.7
X4.4Y-3.0031
X4.4Y-3.2
X4.4Y-2.1031
X4.4Y-2.3
X4.4Y-1.7031
X4.4Y-1.9
X4.4Y-3.8031
X4.4Y-4.
X6.35Y-3.4031
X6.35Y-3.6
X4.4Y-5.1031
X4.4Y-5.3
X4.4Y-2.5031
X4.4Y-2.7
X6.35Y-4.7031
X6.35Y-4.9
X6.35Y-3.8031
X6.35Y-4.
X4.4Y-3.4031
X4.4Y-3.6
X6.35Y-5.1031
X6.35Y-5.3
X6.35Y-4.3031
X6.35Y-4.5
X6.35Y-2.1031
X6.35Y-2.3
X6.35Y-3.0031
X6.35Y-3.2
T2
X3.8547Y-5.35G85X3.8453Y-5.35
G05
X3.9547Y-5.35G85X3.9453Y-5.35
G05
X4.0547Y-5.35G85X4.0453Y-5.35
G05
X5.8047Y-5.35G85X5.7953Y-5.35
G05
X5.9047Y-5.35G85X5.8953Y-5.35
G05
X6.0047Y-5.35G85X5.9953Y-5.35
G05
X3.8547Y-4.05G85X3.8453Y-4.05
G05
X3.9547Y-4.05G85X3.9453Y-4.05
G05
X4.0547Y-4.05G85X4.0453Y-4.05
G05
X3.8547Y-2.75G85X3.8453Y-2.75
G05
X3.9547Y-2.75G85X3.9453Y-2.75
G05
X4.0547Y-2.75G85X4.0453Y-2.75
G05
X5.8047Y-4.05G85X5.7953Y-4.05
G05
X5.9047Y-4.05G85X5.8953Y-4.05
G05
X6.0047Y-4.05G85X5.9953Y-4.05
G05
X5.8047Y-2.75G85X5.7953Y-2.75
G05
X5.9047Y-2.75G85X5.8953Y-2.75
G05
X6.0047Y-2.75G85X5.9953Y-2.75
G05
T0
M30
