G04 #@! TF.GenerationSoftware,KiCad,Pcbnew,5.0.1*
G04 #@! TF.CreationDate,2019-02-07T17:41:49+01:00*
G04 #@! TF.ProjectId,wasserschaden,7761737365727363686164656E2E6B69,rev?*
G04 #@! TF.SameCoordinates,Original*
G04 #@! TF.FileFunction,Copper,L1,Top,Signal*
G04 #@! TF.FilePolarity,Positive*
%FSLAX46Y46*%
G04 Gerber Fmt 4.6, Leading zero omitted, Abs format (unit mm)*
G04 Created by KiCad (PCBNEW 5.0.1) date Do 07 Feb 2019 17:41:49 CET*
%MOMM*%
%LPD*%
G01*
G04 APERTURE LIST*
G04 #@! TA.AperFunction,ComponentPad*
%ADD10C,2.000000*%
G04 #@! TD*
G04 #@! TA.AperFunction,ComponentPad*
%ADD11C,1.800000*%
G04 #@! TD*
G04 #@! TA.AperFunction,SMDPad,CuDef*
%ADD12R,12.000000X9.500000*%
G04 #@! TD*
G04 #@! TA.AperFunction,ComponentPad*
%ADD13R,2.000000X4.000000*%
G04 #@! TD*
G04 #@! TA.AperFunction,ComponentPad*
%ADD14C,1.600000*%
G04 #@! TD*
G04 #@! TA.AperFunction,ComponentPad*
%ADD15O,1.600000X1.600000*%
G04 #@! TD*
G04 #@! TA.AperFunction,ComponentPad*
%ADD16R,1.800000X1.800000*%
G04 #@! TD*
G04 #@! TA.AperFunction,ComponentPad*
%ADD17O,1.800000X1.800000*%
G04 #@! TD*
G04 #@! TA.AperFunction,ComponentPad*
%ADD18R,3.960000X1.980000*%
G04 #@! TD*
G04 #@! TA.AperFunction,ComponentPad*
%ADD19O,3.960000X1.980000*%
G04 #@! TD*
G04 #@! TA.AperFunction,SMDPad,CuDef*
%ADD20C,1.274184*%
G04 #@! TD*
G04 #@! TA.AperFunction,Conductor*
%ADD21C,0.100000*%
G04 #@! TD*
G04 #@! TA.AperFunction,Conductor*
%ADD22C,0.500000*%
G04 #@! TD*
G04 #@! TA.AperFunction,Conductor*
%ADD23C,1.500000*%
G04 #@! TD*
G04 #@! TA.AperFunction,Conductor*
%ADD24C,0.254000*%
G04 #@! TD*
G04 APERTURE END LIST*
D10*
G04 #@! TO.P,U3,3*
G04 #@! TO.N,+3V3*
X173228000Y-97155000D03*
G04 #@! TO.P,U3,2*
G04 #@! TO.N,Net-(R6-Pad2)*
X170180000Y-97155000D03*
G04 #@! TO.P,U3,1*
G04 #@! TO.N,GND*
X167132000Y-97155000D03*
G04 #@! TD*
D11*
G04 #@! TO.P,U2,8*
G04 #@! TO.N,Net-(U2-Pad8)*
X153670000Y-98425000D03*
G04 #@! TO.P,U2,9*
G04 #@! TO.N,Net-(JP1-Pad2)*
X153670000Y-75565000D03*
G04 #@! TO.P,U2,7*
G04 #@! TO.N,Net-(U2-Pad7)*
X151130000Y-98425000D03*
G04 #@! TO.P,U2,10*
G04 #@! TO.N,Net-(U2-Pad10)*
X151130000Y-75565000D03*
G04 #@! TO.P,U2,6*
G04 #@! TO.N,Net-(D2-Pad2)*
X148590000Y-98425000D03*
G04 #@! TO.P,U2,11*
G04 #@! TO.N,Net-(JP1-Pad1)*
X148590000Y-75565000D03*
G04 #@! TO.P,U2,5*
G04 #@! TO.N,Net-(D4-Pad2)*
X146050000Y-98425000D03*
G04 #@! TO.P,U2,12*
G04 #@! TO.N,Net-(U2-Pad12)*
X146050000Y-75565000D03*
G04 #@! TO.P,U2,4*
G04 #@! TO.N,Net-(J3-Pad1)*
X143510000Y-98425000D03*
G04 #@! TO.P,U2,13*
G04 #@! TO.N,Net-(U2-Pad13)*
X143510000Y-75565000D03*
G04 #@! TO.P,U2,3*
G04 #@! TO.N,Net-(U2-Pad3)*
X140970000Y-98425000D03*
G04 #@! TO.P,U2,14*
G04 #@! TO.N,Net-(R6-Pad2)*
X140970000Y-75565000D03*
G04 #@! TO.P,U2,2*
G04 #@! TO.N,GND*
X138430000Y-98425000D03*
G04 #@! TO.P,U2,15*
G04 #@! TO.N,Net-(U2-Pad15)*
X138430000Y-75565000D03*
G04 #@! TO.P,U2,1*
G04 #@! TO.N,Net-(U2-Pad1)*
X135890000Y-98425000D03*
G04 #@! TO.P,U2,16*
G04 #@! TO.N,+3V3*
X135890000Y-75565000D03*
G04 #@! TD*
D12*
G04 #@! TO.P,IRFZ44N1,3*
G04 #@! TO.N,Net-(D1-Pad2)*
X139700000Y-88900000D03*
D10*
G04 #@! TO.P,IRFZ44N1,1*
G04 #@! TO.N,GND*
X153670000Y-86360000D03*
G04 #@! TO.P,IRFZ44N1,3*
G04 #@! TO.N,Net-(D1-Pad2)*
X153670000Y-88900000D03*
G04 #@! TO.P,IRFZ44N1,2*
G04 #@! TO.N,Net-(D2-Pad2)*
X153670000Y-91440000D03*
G04 #@! TD*
D13*
G04 #@! TO.P,U1,1*
G04 #@! TO.N,GND*
X149860000Y-70755000D03*
G04 #@! TO.P,U1,3*
G04 #@! TO.N,+12V*
X149860000Y-61325000D03*
G04 #@! TO.P,U1,2*
G04 #@! TO.N,GND*
X129540000Y-70628000D03*
G04 #@! TO.P,U1,4*
G04 #@! TO.N,+3V3*
X129540000Y-61325000D03*
G04 #@! TD*
D14*
G04 #@! TO.P,R3,1*
G04 #@! TO.N,Net-(D3-Pad1)*
X147574000Y-105410000D03*
D15*
G04 #@! TO.P,R3,2*
G04 #@! TO.N,GND*
X139954000Y-105410000D03*
G04 #@! TD*
D16*
G04 #@! TO.P,D1,1*
G04 #@! TO.N,+12V*
X157480000Y-60960000D03*
D17*
G04 #@! TO.P,D1,2*
G04 #@! TO.N,Net-(D1-Pad2)*
X157480000Y-68580000D03*
G04 #@! TD*
D16*
G04 #@! TO.P,D4,1*
G04 #@! TO.N,Net-(D4-Pad1)*
X167005000Y-104140000D03*
D11*
G04 #@! TO.P,D4,2*
G04 #@! TO.N,Net-(D4-Pad2)*
X169545000Y-104140000D03*
G04 #@! TD*
D16*
G04 #@! TO.P,D3,1*
G04 #@! TO.N,Net-(D3-Pad1)*
X172085000Y-104140000D03*
D11*
G04 #@! TO.P,D3,2*
G04 #@! TO.N,+3V3*
X174625000Y-104140000D03*
G04 #@! TD*
D16*
G04 #@! TO.P,D2,1*
G04 #@! TO.N,Net-(D2-Pad1)*
X161925000Y-104140000D03*
D11*
G04 #@! TO.P,D2,2*
G04 #@! TO.N,Net-(D2-Pad2)*
X164465000Y-104140000D03*
G04 #@! TD*
D14*
G04 #@! TO.P,R1,1*
G04 #@! TO.N,GND*
X150876000Y-102108000D03*
D15*
G04 #@! TO.P,R1,2*
G04 #@! TO.N,Net-(D2-Pad2)*
X158496000Y-102108000D03*
G04 #@! TD*
D18*
G04 #@! TO.P,J2,1*
G04 #@! TO.N,GND*
X168910000Y-77470000D03*
D19*
G04 #@! TO.P,J2,2*
G04 #@! TO.N,+12V*
X168910000Y-72470000D03*
G04 #@! TD*
D18*
G04 #@! TO.P,J1,1*
G04 #@! TO.N,Net-(D1-Pad2)*
X168910000Y-67310000D03*
D19*
G04 #@! TO.P,J1,2*
G04 #@! TO.N,+12V*
X168910000Y-62310000D03*
G04 #@! TD*
D14*
G04 #@! TO.P,R2,1*
G04 #@! TO.N,GND*
X139954000Y-102108000D03*
D15*
G04 #@! TO.P,R2,2*
G04 #@! TO.N,Net-(D2-Pad1)*
X147574000Y-102108000D03*
G04 #@! TD*
D14*
G04 #@! TO.P,R4,1*
G04 #@! TO.N,GND*
X150876000Y-105410000D03*
D15*
G04 #@! TO.P,R4,2*
G04 #@! TO.N,Net-(D4-Pad1)*
X158496000Y-105410000D03*
G04 #@! TD*
D18*
G04 #@! TO.P,J3,1*
G04 #@! TO.N,Net-(J3-Pad1)*
X168910000Y-87630000D03*
D19*
G04 #@! TO.P,J3,2*
G04 #@! TO.N,GND*
X168910000Y-82630000D03*
G04 #@! TD*
D14*
G04 #@! TO.P,R5,1*
G04 #@! TO.N,Net-(J3-Pad1)*
X136652000Y-102108000D03*
D15*
G04 #@! TO.P,R5,2*
G04 #@! TO.N,+3V3*
X129032000Y-102108000D03*
G04 #@! TD*
D20*
G04 #@! TO.P,JP1,2*
G04 #@! TO.N,Net-(JP1-Pad2)*
X151942800Y-80010000D03*
D21*
G04 #@! TD*
G04 #@! TO.N,Net-(JP1-Pad2)*
G04 #@! TO.C,JP1*
G36*
X151180800Y-81272000D02*
X151180800Y-78748000D01*
X152704800Y-79748000D01*
X152704800Y-80272000D01*
X151180800Y-81272000D01*
X151180800Y-81272000D01*
G37*
D20*
G04 #@! TO.P,JP1,1*
G04 #@! TO.N,Net-(JP1-Pad1)*
X150317200Y-80010000D03*
D21*
G04 #@! TD*
G04 #@! TO.N,Net-(JP1-Pad1)*
G04 #@! TO.C,JP1*
G36*
X149555200Y-80272000D02*
X149555200Y-79748000D01*
X151079200Y-78748000D01*
X151079200Y-81272000D01*
X149555200Y-80272000D01*
X149555200Y-80272000D01*
G37*
D14*
G04 #@! TO.P,R6,1*
G04 #@! TO.N,+3V3*
X136652000Y-105410000D03*
D15*
G04 #@! TO.P,R6,2*
G04 #@! TO.N,Net-(R6-Pad2)*
X129032000Y-105410000D03*
G04 #@! TD*
D22*
G04 #@! TO.N,+12V*
X149860000Y-60325000D02*
X149860000Y-62230000D01*
D23*
X150368000Y-60960000D02*
X149860000Y-60452000D01*
X150495000Y-60960000D02*
X149860000Y-60325000D01*
G04 #@! TO.N,Net-(D1-Pad2)*
X158750000Y-67310000D02*
X157480000Y-68580000D01*
X168910000Y-67310000D02*
X158750000Y-67310000D01*
X139700000Y-88900000D02*
X153670000Y-88900000D01*
X155084213Y-88900000D02*
X153670000Y-88900000D01*
X157480000Y-86504213D02*
X155084213Y-88900000D01*
X157480000Y-68580000D02*
X157480000Y-86504213D01*
G04 #@! TO.N,GND*
X129540000Y-69850000D02*
X129540000Y-71755000D01*
D22*
X149860000Y-69850000D02*
X149860000Y-71755000D01*
G04 #@! TO.N,Net-(D2-Pad1)*
X159769000Y-100584000D02*
X161925000Y-102740000D01*
X147574000Y-102108000D02*
X149098000Y-100584000D01*
X161925000Y-102740000D02*
X161925000Y-104140000D01*
X149098000Y-100584000D02*
X159769000Y-100584000D01*
G04 #@! TO.N,Net-(D2-Pad2)*
X148590000Y-99060000D02*
X148590000Y-98425000D01*
X153670000Y-91440000D02*
X153670000Y-90550001D01*
X153670000Y-90550001D02*
X154462001Y-90550001D01*
G04 #@! TO.N,Net-(D3-Pad1)*
X172085000Y-105540000D02*
X172085000Y-104140000D01*
X170437000Y-107188000D02*
X172085000Y-105540000D01*
X149352000Y-107188000D02*
X170437000Y-107188000D01*
X147574000Y-105410000D02*
X149352000Y-107188000D01*
G04 #@! TO.N,Net-(D4-Pad2)*
X169545000Y-104140000D02*
X161925000Y-96520000D01*
X147955000Y-96520000D02*
X146050000Y-98425000D01*
X161925000Y-96520000D02*
X147955000Y-96520000D01*
G04 #@! TO.N,+3V3*
X129540000Y-62230000D02*
X129540000Y-60325000D01*
G04 #@! TO.N,Net-(JP1-Pad1)*
X148590000Y-75565000D02*
X148590000Y-78282800D01*
X150317200Y-80010000D02*
X148590000Y-78282800D01*
G04 #@! TO.N,Net-(JP1-Pad2)*
X153670000Y-78282800D02*
X153670000Y-75565000D01*
X151942800Y-80010000D02*
X153670000Y-78282800D01*
G04 #@! TO.N,Net-(J3-Pad1)*
X143510000Y-98425000D02*
X141605000Y-100330000D01*
X141605000Y-100330000D02*
X138430000Y-100330000D01*
X138430000Y-100330000D02*
X136652000Y-102108000D01*
X166430000Y-87630000D02*
X168910000Y-87630000D01*
X158475001Y-95584999D02*
X166430000Y-87630000D01*
X146350001Y-95584999D02*
X158475001Y-95584999D01*
X143510000Y-98425000D02*
X146350001Y-95584999D01*
G04 #@! TO.N,Net-(R6-Pad2)*
X132080000Y-84455000D02*
X140070001Y-76464999D01*
X132080000Y-102362000D02*
X132080000Y-84455000D01*
X140070001Y-76464999D02*
X140970000Y-75565000D01*
X129032000Y-105410000D02*
X132080000Y-102362000D01*
G04 #@! TD*
D24*
G04 #@! TO.N,+3V3*
G36*
X127905000Y-59198690D02*
X127905000Y-61039250D01*
X128063750Y-61198000D01*
X129413000Y-61198000D01*
X129413000Y-61178000D01*
X129667000Y-61178000D01*
X129667000Y-61198000D01*
X131016250Y-61198000D01*
X131175000Y-61039250D01*
X131175000Y-59198690D01*
X131168087Y-59182000D01*
X140843000Y-59182000D01*
X140843000Y-73025000D01*
X140852667Y-73073601D01*
X140880197Y-73114803D01*
X140921399Y-73142333D01*
X140970000Y-73152000D01*
X148361559Y-73152000D01*
X148402191Y-73212809D01*
X148612235Y-73353157D01*
X148860000Y-73402440D01*
X150860000Y-73402440D01*
X151107765Y-73353157D01*
X151317809Y-73212809D01*
X151358441Y-73152000D01*
X155448000Y-73152000D01*
X155448000Y-80645000D01*
X155457667Y-80693601D01*
X155485197Y-80734803D01*
X155526399Y-80762333D01*
X155575000Y-80772000D01*
X156095001Y-80772000D01*
X156095001Y-85930527D01*
X155280035Y-86745493D01*
X155305000Y-86685222D01*
X155305000Y-86034778D01*
X155056086Y-85433847D01*
X154596153Y-84973914D01*
X153995222Y-84725000D01*
X153344778Y-84725000D01*
X152743847Y-84973914D01*
X152283914Y-85433847D01*
X152035000Y-86034778D01*
X152035000Y-86685222D01*
X152283914Y-87286153D01*
X152512761Y-87515000D01*
X146347440Y-87515000D01*
X146347440Y-84150000D01*
X146298157Y-83902235D01*
X146157809Y-83692191D01*
X145947765Y-83551843D01*
X145700000Y-83502560D01*
X134284018Y-83502560D01*
X140686579Y-77100000D01*
X141275330Y-77100000D01*
X141839507Y-76866310D01*
X142240000Y-76465817D01*
X142640493Y-76866310D01*
X143204670Y-77100000D01*
X143815330Y-77100000D01*
X144379507Y-76866310D01*
X144780000Y-76465817D01*
X145180493Y-76866310D01*
X145744670Y-77100000D01*
X146355330Y-77100000D01*
X146919507Y-76866310D01*
X147320000Y-76465817D01*
X147705000Y-76850817D01*
X147705001Y-78195635D01*
X147687663Y-78282800D01*
X147756348Y-78628109D01*
X147902576Y-78846954D01*
X147902577Y-78846955D01*
X147951952Y-78920849D01*
X148025845Y-78970223D01*
X148907760Y-79852139D01*
X148907760Y-80272000D01*
X148921277Y-80403607D01*
X149019895Y-80636181D01*
X149200009Y-80813311D01*
X150724009Y-81813311D01*
X151079200Y-81919440D01*
X151143209Y-81906708D01*
X151301803Y-81908032D01*
X151535991Y-81813311D01*
X153059991Y-80813311D01*
X153162609Y-80729809D01*
X153302957Y-80519765D01*
X153352240Y-80272000D01*
X153352240Y-79852138D01*
X154234156Y-78970223D01*
X154308049Y-78920849D01*
X154357425Y-78846954D01*
X154503652Y-78628110D01*
X154503652Y-78628109D01*
X154555000Y-78369965D01*
X154555000Y-78369961D01*
X154572337Y-78282800D01*
X154555000Y-78195639D01*
X154555000Y-76850817D01*
X154971310Y-76434507D01*
X155205000Y-75870330D01*
X155205000Y-75259670D01*
X154971310Y-74695493D01*
X154539507Y-74263690D01*
X153975330Y-74030000D01*
X153364670Y-74030000D01*
X152800493Y-74263690D01*
X152400000Y-74664183D01*
X151999507Y-74263690D01*
X151435330Y-74030000D01*
X150824670Y-74030000D01*
X150260493Y-74263690D01*
X149860000Y-74664183D01*
X149459507Y-74263690D01*
X148895330Y-74030000D01*
X148284670Y-74030000D01*
X147720493Y-74263690D01*
X147320000Y-74664183D01*
X146919507Y-74263690D01*
X146355330Y-74030000D01*
X145744670Y-74030000D01*
X145180493Y-74263690D01*
X144780000Y-74664183D01*
X144379507Y-74263690D01*
X143815330Y-74030000D01*
X143204670Y-74030000D01*
X142640493Y-74263690D01*
X142240000Y-74664183D01*
X141839507Y-74263690D01*
X141275330Y-74030000D01*
X140664670Y-74030000D01*
X140100493Y-74263690D01*
X139700000Y-74664183D01*
X139299507Y-74263690D01*
X138735330Y-74030000D01*
X138124670Y-74030000D01*
X137560493Y-74263690D01*
X137128690Y-74695493D01*
X137120562Y-74715115D01*
X136970159Y-74664446D01*
X136069605Y-75565000D01*
X136970159Y-76465554D01*
X137120562Y-76414885D01*
X137128690Y-76434507D01*
X137560493Y-76866310D01*
X138124670Y-77100000D01*
X138183421Y-77100000D01*
X131515845Y-83767577D01*
X131441952Y-83816951D01*
X131392578Y-83890844D01*
X131392576Y-83890846D01*
X131246348Y-84109691D01*
X131177663Y-84455000D01*
X131195001Y-84542166D01*
X131195000Y-101995421D01*
X129208439Y-103981983D01*
X129173333Y-103975000D01*
X128890667Y-103975000D01*
X128472091Y-104058260D01*
X127997423Y-104375423D01*
X127680260Y-104850091D01*
X127568887Y-105410000D01*
X127680260Y-105969909D01*
X127997423Y-106444577D01*
X128472091Y-106761740D01*
X128890667Y-106845000D01*
X129173333Y-106845000D01*
X129591909Y-106761740D01*
X130066577Y-106444577D01*
X130084505Y-106417745D01*
X135823861Y-106417745D01*
X135897995Y-106663864D01*
X136435223Y-106856965D01*
X137005454Y-106829778D01*
X137406005Y-106663864D01*
X137480139Y-106417745D01*
X136652000Y-105589605D01*
X135823861Y-106417745D01*
X130084505Y-106417745D01*
X130383740Y-105969909D01*
X130495113Y-105410000D01*
X130460017Y-105233561D01*
X130500355Y-105193223D01*
X135205035Y-105193223D01*
X135232222Y-105763454D01*
X135398136Y-106164005D01*
X135644255Y-106238139D01*
X136472395Y-105410000D01*
X136831605Y-105410000D01*
X137659745Y-106238139D01*
X137905864Y-106164005D01*
X138098965Y-105626777D01*
X138088630Y-105410000D01*
X138490887Y-105410000D01*
X138602260Y-105969909D01*
X138919423Y-106444577D01*
X139394091Y-106761740D01*
X139812667Y-106845000D01*
X140095333Y-106845000D01*
X140513909Y-106761740D01*
X140988577Y-106444577D01*
X141305740Y-105969909D01*
X141417113Y-105410000D01*
X141305740Y-104850091D01*
X140988577Y-104375423D01*
X140513909Y-104058260D01*
X140095333Y-103975000D01*
X139812667Y-103975000D01*
X139394091Y-104058260D01*
X138919423Y-104375423D01*
X138602260Y-104850091D01*
X138490887Y-105410000D01*
X138088630Y-105410000D01*
X138071778Y-105056546D01*
X137905864Y-104655995D01*
X137659745Y-104581861D01*
X136831605Y-105410000D01*
X136472395Y-105410000D01*
X135644255Y-104581861D01*
X135398136Y-104655995D01*
X135205035Y-105193223D01*
X130500355Y-105193223D01*
X131291323Y-104402255D01*
X135823861Y-104402255D01*
X136652000Y-105230395D01*
X137480139Y-104402255D01*
X137406005Y-104156136D01*
X136868777Y-103963035D01*
X136298546Y-103990222D01*
X135897995Y-104156136D01*
X135823861Y-104402255D01*
X131291323Y-104402255D01*
X132644156Y-103049423D01*
X132718049Y-103000049D01*
X132770961Y-102920862D01*
X132913652Y-102707310D01*
X132921489Y-102667909D01*
X132965000Y-102449165D01*
X132965000Y-102449161D01*
X132982337Y-102362000D01*
X132965000Y-102274839D01*
X132965000Y-84821578D01*
X133052560Y-84734018D01*
X133052560Y-93650000D01*
X133101843Y-93897765D01*
X133242191Y-94107809D01*
X133452235Y-94248157D01*
X133700000Y-94297440D01*
X145700000Y-94297440D01*
X145947765Y-94248157D01*
X146157809Y-94107809D01*
X146298157Y-93897765D01*
X146347440Y-93650000D01*
X146347440Y-90285000D01*
X152512761Y-90285000D01*
X152283914Y-90513847D01*
X152035000Y-91114778D01*
X152035000Y-91765222D01*
X152283914Y-92366153D01*
X152743847Y-92826086D01*
X153344778Y-93075000D01*
X153995222Y-93075000D01*
X154596153Y-92826086D01*
X155056086Y-92366153D01*
X155305000Y-91765222D01*
X155305000Y-91114778D01*
X155245305Y-90970662D01*
X155295653Y-90895311D01*
X155364339Y-90550001D01*
X155308164Y-90267587D01*
X155624613Y-90204641D01*
X156082742Y-89898529D01*
X156160013Y-89782885D01*
X158362885Y-87580013D01*
X158478529Y-87502742D01*
X158784641Y-87044613D01*
X158865000Y-86640620D01*
X158865000Y-86640616D01*
X158892132Y-86504214D01*
X158865000Y-86367812D01*
X158865000Y-82630000D01*
X166263165Y-82630000D01*
X166389284Y-83264043D01*
X166748441Y-83801559D01*
X167285957Y-84160716D01*
X167759955Y-84255000D01*
X170060045Y-84255000D01*
X170534043Y-84160716D01*
X171071559Y-83801559D01*
X171430716Y-83264043D01*
X171556835Y-82630000D01*
X171430716Y-81995957D01*
X171071559Y-81458441D01*
X170534043Y-81099284D01*
X170060045Y-81005000D01*
X167759955Y-81005000D01*
X167285957Y-81099284D01*
X166748441Y-81458441D01*
X166389284Y-81995957D01*
X166263165Y-82630000D01*
X158865000Y-82630000D01*
X158865000Y-80772000D01*
X175768000Y-80772000D01*
X175768000Y-103260616D01*
X175705159Y-103239446D01*
X174804605Y-104140000D01*
X175705159Y-105040554D01*
X175768000Y-105019384D01*
X175768000Y-106357521D01*
X175765015Y-106378364D01*
X175625628Y-106684928D01*
X175405804Y-106940047D01*
X175123207Y-107123218D01*
X174906591Y-107188000D01*
X171688578Y-107188000D01*
X172649156Y-106227423D01*
X172723049Y-106178049D01*
X172776922Y-106097424D01*
X172918652Y-105885310D01*
X172936462Y-105795772D01*
X172958011Y-105687440D01*
X172985000Y-105687440D01*
X173232765Y-105638157D01*
X173442809Y-105497809D01*
X173575058Y-105299886D01*
X173609890Y-105334718D01*
X173724447Y-105220161D01*
X173810852Y-105476643D01*
X174384336Y-105686458D01*
X174994460Y-105660839D01*
X175439148Y-105476643D01*
X175525554Y-105220159D01*
X174625000Y-104319605D01*
X174610858Y-104333748D01*
X174431253Y-104154143D01*
X174445395Y-104140000D01*
X174431253Y-104125858D01*
X174610858Y-103946253D01*
X174625000Y-103960395D01*
X175525554Y-103059841D01*
X175439148Y-102803357D01*
X174865664Y-102593542D01*
X174255540Y-102619161D01*
X173810852Y-102803357D01*
X173724447Y-103059839D01*
X173609890Y-102945282D01*
X173575058Y-102980114D01*
X173442809Y-102782191D01*
X173232765Y-102641843D01*
X172985000Y-102592560D01*
X171185000Y-102592560D01*
X170937235Y-102641843D01*
X170727191Y-102782191D01*
X170586843Y-102992235D01*
X170583725Y-103007908D01*
X170414507Y-102838690D01*
X169850330Y-102605000D01*
X169261579Y-102605000D01*
X163486357Y-96829778D01*
X165497000Y-96829778D01*
X165497000Y-97480222D01*
X165745914Y-98081153D01*
X166205847Y-98541086D01*
X166806778Y-98790000D01*
X167457222Y-98790000D01*
X168058153Y-98541086D01*
X168518086Y-98081153D01*
X168656000Y-97748199D01*
X168793914Y-98081153D01*
X169253847Y-98541086D01*
X169854778Y-98790000D01*
X170505222Y-98790000D01*
X171106153Y-98541086D01*
X171339707Y-98307532D01*
X172255073Y-98307532D01*
X172353736Y-98574387D01*
X172963461Y-98800908D01*
X173613460Y-98776856D01*
X174102264Y-98574387D01*
X174200927Y-98307532D01*
X173228000Y-97334605D01*
X172255073Y-98307532D01*
X171339707Y-98307532D01*
X171566086Y-98081153D01*
X171698096Y-97762452D01*
X171808613Y-98029264D01*
X172075468Y-98127927D01*
X173048395Y-97155000D01*
X173407605Y-97155000D01*
X174380532Y-98127927D01*
X174647387Y-98029264D01*
X174873908Y-97419539D01*
X174849856Y-96769540D01*
X174647387Y-96280736D01*
X174380532Y-96182073D01*
X173407605Y-97155000D01*
X173048395Y-97155000D01*
X172075468Y-96182073D01*
X171808613Y-96280736D01*
X171704102Y-96562047D01*
X171566086Y-96228847D01*
X171339707Y-96002468D01*
X172255073Y-96002468D01*
X173228000Y-96975395D01*
X174200927Y-96002468D01*
X174102264Y-95735613D01*
X173492539Y-95509092D01*
X172842540Y-95533144D01*
X172353736Y-95735613D01*
X172255073Y-96002468D01*
X171339707Y-96002468D01*
X171106153Y-95768914D01*
X170505222Y-95520000D01*
X169854778Y-95520000D01*
X169253847Y-95768914D01*
X168793914Y-96228847D01*
X168656000Y-96561801D01*
X168518086Y-96228847D01*
X168058153Y-95768914D01*
X167457222Y-95520000D01*
X166806778Y-95520000D01*
X166205847Y-95768914D01*
X165745914Y-96228847D01*
X165497000Y-96829778D01*
X163486357Y-96829778D01*
X162612425Y-95955847D01*
X162563049Y-95881951D01*
X162270310Y-95686348D01*
X162012165Y-95635000D01*
X162012161Y-95635000D01*
X161925000Y-95617663D01*
X161837839Y-95635000D01*
X159676578Y-95635000D01*
X166376692Y-88934886D01*
X166472191Y-89077809D01*
X166682235Y-89218157D01*
X166930000Y-89267440D01*
X170890000Y-89267440D01*
X171137765Y-89218157D01*
X171347809Y-89077809D01*
X171488157Y-88867765D01*
X171537440Y-88620000D01*
X171537440Y-86640000D01*
X171488157Y-86392235D01*
X171347809Y-86182191D01*
X171137765Y-86041843D01*
X170890000Y-85992560D01*
X166930000Y-85992560D01*
X166682235Y-86041843D01*
X166472191Y-86182191D01*
X166331843Y-86392235D01*
X166282560Y-86640000D01*
X166282560Y-86756989D01*
X166084690Y-86796348D01*
X166084688Y-86796349D01*
X166084689Y-86796349D01*
X165865845Y-86942576D01*
X165865844Y-86942577D01*
X165791951Y-86991951D01*
X165742577Y-87065844D01*
X158108423Y-94699999D01*
X146437162Y-94699999D01*
X146350001Y-94682662D01*
X146262840Y-94699999D01*
X146262836Y-94699999D01*
X146004691Y-94751347D01*
X145785846Y-94897575D01*
X145785845Y-94897576D01*
X145711952Y-94946950D01*
X145662578Y-95020843D01*
X143793422Y-96890000D01*
X143204670Y-96890000D01*
X142640493Y-97123690D01*
X142240000Y-97524183D01*
X141839507Y-97123690D01*
X141275330Y-96890000D01*
X140664670Y-96890000D01*
X140100493Y-97123690D01*
X139700000Y-97524183D01*
X139299507Y-97123690D01*
X138735330Y-96890000D01*
X138124670Y-96890000D01*
X137560493Y-97123690D01*
X137160000Y-97524183D01*
X136759507Y-97123690D01*
X136195330Y-96890000D01*
X135584670Y-96890000D01*
X135020493Y-97123690D01*
X134588690Y-97555493D01*
X134355000Y-98119670D01*
X134355000Y-98730330D01*
X134588690Y-99294507D01*
X135020493Y-99726310D01*
X135584670Y-99960000D01*
X136195330Y-99960000D01*
X136759507Y-99726310D01*
X137160000Y-99325817D01*
X137560493Y-99726310D01*
X137717201Y-99791220D01*
X136835422Y-100673000D01*
X136366561Y-100673000D01*
X135839138Y-100891466D01*
X135435466Y-101295138D01*
X135217000Y-101822561D01*
X135217000Y-102393439D01*
X135435466Y-102920862D01*
X135839138Y-103324534D01*
X136366561Y-103543000D01*
X136937439Y-103543000D01*
X137464862Y-103324534D01*
X137868534Y-102920862D01*
X138087000Y-102393439D01*
X138087000Y-101924578D01*
X138796579Y-101215000D01*
X138817604Y-101215000D01*
X138737466Y-101295138D01*
X138519000Y-101822561D01*
X138519000Y-102393439D01*
X138737466Y-102920862D01*
X139141138Y-103324534D01*
X139668561Y-103543000D01*
X140239439Y-103543000D01*
X140766862Y-103324534D01*
X141170534Y-102920862D01*
X141389000Y-102393439D01*
X141389000Y-101822561D01*
X141170534Y-101295138D01*
X141090396Y-101215000D01*
X141517839Y-101215000D01*
X141605000Y-101232337D01*
X141692161Y-101215000D01*
X141692165Y-101215000D01*
X141950310Y-101163652D01*
X142243049Y-100968049D01*
X142292425Y-100894153D01*
X143226579Y-99960000D01*
X143815330Y-99960000D01*
X144379507Y-99726310D01*
X144780000Y-99325817D01*
X145180493Y-99726310D01*
X145744670Y-99960000D01*
X146355330Y-99960000D01*
X146919507Y-99726310D01*
X147320000Y-99325817D01*
X147720493Y-99726310D01*
X148284670Y-99960000D01*
X148450564Y-99960000D01*
X148410577Y-100019844D01*
X147750439Y-100679983D01*
X147715333Y-100673000D01*
X147432667Y-100673000D01*
X147014091Y-100756260D01*
X146539423Y-101073423D01*
X146222260Y-101548091D01*
X146110887Y-102108000D01*
X146222260Y-102667909D01*
X146539423Y-103142577D01*
X147014091Y-103459740D01*
X147432667Y-103543000D01*
X147715333Y-103543000D01*
X148133909Y-103459740D01*
X148608577Y-103142577D01*
X148925740Y-102667909D01*
X149037113Y-102108000D01*
X149002017Y-101931561D01*
X149464579Y-101469000D01*
X149587450Y-101469000D01*
X149441000Y-101822561D01*
X149441000Y-102393439D01*
X149659466Y-102920862D01*
X150063138Y-103324534D01*
X150590561Y-103543000D01*
X151161439Y-103543000D01*
X151688862Y-103324534D01*
X152092534Y-102920862D01*
X152311000Y-102393439D01*
X152311000Y-101822561D01*
X152164550Y-101469000D01*
X157197107Y-101469000D01*
X157144260Y-101548091D01*
X157032887Y-102108000D01*
X157144260Y-102667909D01*
X157461423Y-103142577D01*
X157936091Y-103459740D01*
X158354667Y-103543000D01*
X158637333Y-103543000D01*
X159055909Y-103459740D01*
X159530577Y-103142577D01*
X159847740Y-102667909D01*
X159959113Y-102108000D01*
X159938675Y-102005254D01*
X160656163Y-102722741D01*
X160567191Y-102782191D01*
X160426843Y-102992235D01*
X160377560Y-103240000D01*
X160377560Y-105040000D01*
X160426843Y-105287765D01*
X160567191Y-105497809D01*
X160777235Y-105638157D01*
X161025000Y-105687440D01*
X162825000Y-105687440D01*
X163072765Y-105638157D01*
X163282809Y-105497809D01*
X163423157Y-105287765D01*
X163426275Y-105272092D01*
X163595493Y-105441310D01*
X164159670Y-105675000D01*
X164770330Y-105675000D01*
X165334507Y-105441310D01*
X165503725Y-105272092D01*
X165506843Y-105287765D01*
X165647191Y-105497809D01*
X165857235Y-105638157D01*
X166105000Y-105687440D01*
X167905000Y-105687440D01*
X168152765Y-105638157D01*
X168362809Y-105497809D01*
X168503157Y-105287765D01*
X168506275Y-105272092D01*
X168675493Y-105441310D01*
X169239670Y-105675000D01*
X169850330Y-105675000D01*
X170414507Y-105441310D01*
X170583725Y-105272092D01*
X170586843Y-105287765D01*
X170727191Y-105497809D01*
X170816163Y-105557259D01*
X170070422Y-106303000D01*
X159625176Y-106303000D01*
X159847740Y-105969909D01*
X159959113Y-105410000D01*
X159847740Y-104850091D01*
X159530577Y-104375423D01*
X159055909Y-104058260D01*
X158637333Y-103975000D01*
X158354667Y-103975000D01*
X157936091Y-104058260D01*
X157461423Y-104375423D01*
X157144260Y-104850091D01*
X157032887Y-105410000D01*
X157144260Y-105969909D01*
X157366824Y-106303000D01*
X152012396Y-106303000D01*
X152092534Y-106222862D01*
X152311000Y-105695439D01*
X152311000Y-105124561D01*
X152092534Y-104597138D01*
X151688862Y-104193466D01*
X151161439Y-103975000D01*
X150590561Y-103975000D01*
X150063138Y-104193466D01*
X149659466Y-104597138D01*
X149441000Y-105124561D01*
X149441000Y-105695439D01*
X149659466Y-106222862D01*
X149739604Y-106303000D01*
X149718579Y-106303000D01*
X149009000Y-105593422D01*
X149009000Y-105124561D01*
X148790534Y-104597138D01*
X148386862Y-104193466D01*
X147859439Y-103975000D01*
X147288561Y-103975000D01*
X146761138Y-104193466D01*
X146357466Y-104597138D01*
X146139000Y-105124561D01*
X146139000Y-105695439D01*
X146357466Y-106222862D01*
X146761138Y-106626534D01*
X147288561Y-106845000D01*
X147757422Y-106845000D01*
X148100421Y-107188000D01*
X127322479Y-107188000D01*
X127301636Y-107185015D01*
X126995072Y-107045628D01*
X126739953Y-106825804D01*
X126556782Y-106543207D01*
X126492000Y-106326591D01*
X126492000Y-102457039D01*
X127640096Y-102457039D01*
X127800959Y-102845423D01*
X128176866Y-103260389D01*
X128682959Y-103499914D01*
X128905000Y-103378629D01*
X128905000Y-102235000D01*
X129159000Y-102235000D01*
X129159000Y-103378629D01*
X129381041Y-103499914D01*
X129887134Y-103260389D01*
X130263041Y-102845423D01*
X130423904Y-102457039D01*
X130301915Y-102235000D01*
X129159000Y-102235000D01*
X128905000Y-102235000D01*
X127762085Y-102235000D01*
X127640096Y-102457039D01*
X126492000Y-102457039D01*
X126492000Y-101758961D01*
X127640096Y-101758961D01*
X127762085Y-101981000D01*
X128905000Y-101981000D01*
X128905000Y-100837371D01*
X129159000Y-100837371D01*
X129159000Y-101981000D01*
X130301915Y-101981000D01*
X130423904Y-101758961D01*
X130263041Y-101370577D01*
X129887134Y-100955611D01*
X129381041Y-100716086D01*
X129159000Y-100837371D01*
X128905000Y-100837371D01*
X128682959Y-100716086D01*
X128176866Y-100955611D01*
X127800959Y-101370577D01*
X127640096Y-101758961D01*
X126492000Y-101758961D01*
X126492000Y-76645159D01*
X134989446Y-76645159D01*
X135075852Y-76901643D01*
X135649336Y-77111458D01*
X136259460Y-77085839D01*
X136704148Y-76901643D01*
X136790554Y-76645159D01*
X135890000Y-75744605D01*
X134989446Y-76645159D01*
X126492000Y-76645159D01*
X126492000Y-75324336D01*
X134343542Y-75324336D01*
X134369161Y-75934460D01*
X134553357Y-76379148D01*
X134809841Y-76465554D01*
X135710395Y-75565000D01*
X134809841Y-74664446D01*
X134553357Y-74750852D01*
X134343542Y-75324336D01*
X126492000Y-75324336D01*
X126492000Y-74484841D01*
X134989446Y-74484841D01*
X135890000Y-75385395D01*
X136790554Y-74484841D01*
X136704148Y-74228357D01*
X136130664Y-74018542D01*
X135520540Y-74044161D01*
X135075852Y-74228357D01*
X134989446Y-74484841D01*
X126492000Y-74484841D01*
X126492000Y-68628000D01*
X127892560Y-68628000D01*
X127892560Y-72628000D01*
X127941843Y-72875765D01*
X128082191Y-73085809D01*
X128292235Y-73226157D01*
X128540000Y-73275440D01*
X130540000Y-73275440D01*
X130787765Y-73226157D01*
X130997809Y-73085809D01*
X131138157Y-72875765D01*
X131187440Y-72628000D01*
X131187440Y-68628000D01*
X131138157Y-68380235D01*
X130997809Y-68170191D01*
X130787765Y-68029843D01*
X130540000Y-67980560D01*
X128540000Y-67980560D01*
X128292235Y-68029843D01*
X128082191Y-68170191D01*
X127941843Y-68380235D01*
X127892560Y-68628000D01*
X126492000Y-68628000D01*
X126492000Y-61610750D01*
X127905000Y-61610750D01*
X127905000Y-63451310D01*
X128001673Y-63684699D01*
X128180302Y-63863327D01*
X128413691Y-63960000D01*
X129254250Y-63960000D01*
X129413000Y-63801250D01*
X129413000Y-61452000D01*
X129667000Y-61452000D01*
X129667000Y-63801250D01*
X129825750Y-63960000D01*
X130666309Y-63960000D01*
X130899698Y-63863327D01*
X131078327Y-63684699D01*
X131175000Y-63451310D01*
X131175000Y-61610750D01*
X131016250Y-61452000D01*
X129667000Y-61452000D01*
X129413000Y-61452000D01*
X128063750Y-61452000D01*
X127905000Y-61610750D01*
X126492000Y-61610750D01*
X126492000Y-60012479D01*
X126494985Y-59991636D01*
X126634372Y-59685072D01*
X126854199Y-59429950D01*
X127136792Y-59246782D01*
X127353410Y-59182000D01*
X127911913Y-59182000D01*
X127905000Y-59198690D01*
X127905000Y-59198690D01*
G37*
X127905000Y-59198690D02*
X127905000Y-61039250D01*
X128063750Y-61198000D01*
X129413000Y-61198000D01*
X129413000Y-61178000D01*
X129667000Y-61178000D01*
X129667000Y-61198000D01*
X131016250Y-61198000D01*
X131175000Y-61039250D01*
X131175000Y-59198690D01*
X131168087Y-59182000D01*
X140843000Y-59182000D01*
X140843000Y-73025000D01*
X140852667Y-73073601D01*
X140880197Y-73114803D01*
X140921399Y-73142333D01*
X140970000Y-73152000D01*
X148361559Y-73152000D01*
X148402191Y-73212809D01*
X148612235Y-73353157D01*
X148860000Y-73402440D01*
X150860000Y-73402440D01*
X151107765Y-73353157D01*
X151317809Y-73212809D01*
X151358441Y-73152000D01*
X155448000Y-73152000D01*
X155448000Y-80645000D01*
X155457667Y-80693601D01*
X155485197Y-80734803D01*
X155526399Y-80762333D01*
X155575000Y-80772000D01*
X156095001Y-80772000D01*
X156095001Y-85930527D01*
X155280035Y-86745493D01*
X155305000Y-86685222D01*
X155305000Y-86034778D01*
X155056086Y-85433847D01*
X154596153Y-84973914D01*
X153995222Y-84725000D01*
X153344778Y-84725000D01*
X152743847Y-84973914D01*
X152283914Y-85433847D01*
X152035000Y-86034778D01*
X152035000Y-86685222D01*
X152283914Y-87286153D01*
X152512761Y-87515000D01*
X146347440Y-87515000D01*
X146347440Y-84150000D01*
X146298157Y-83902235D01*
X146157809Y-83692191D01*
X145947765Y-83551843D01*
X145700000Y-83502560D01*
X134284018Y-83502560D01*
X140686579Y-77100000D01*
X141275330Y-77100000D01*
X141839507Y-76866310D01*
X142240000Y-76465817D01*
X142640493Y-76866310D01*
X143204670Y-77100000D01*
X143815330Y-77100000D01*
X144379507Y-76866310D01*
X144780000Y-76465817D01*
X145180493Y-76866310D01*
X145744670Y-77100000D01*
X146355330Y-77100000D01*
X146919507Y-76866310D01*
X147320000Y-76465817D01*
X147705000Y-76850817D01*
X147705001Y-78195635D01*
X147687663Y-78282800D01*
X147756348Y-78628109D01*
X147902576Y-78846954D01*
X147902577Y-78846955D01*
X147951952Y-78920849D01*
X148025845Y-78970223D01*
X148907760Y-79852139D01*
X148907760Y-80272000D01*
X148921277Y-80403607D01*
X149019895Y-80636181D01*
X149200009Y-80813311D01*
X150724009Y-81813311D01*
X151079200Y-81919440D01*
X151143209Y-81906708D01*
X151301803Y-81908032D01*
X151535991Y-81813311D01*
X153059991Y-80813311D01*
X153162609Y-80729809D01*
X153302957Y-80519765D01*
X153352240Y-80272000D01*
X153352240Y-79852138D01*
X154234156Y-78970223D01*
X154308049Y-78920849D01*
X154357425Y-78846954D01*
X154503652Y-78628110D01*
X154503652Y-78628109D01*
X154555000Y-78369965D01*
X154555000Y-78369961D01*
X154572337Y-78282800D01*
X154555000Y-78195639D01*
X154555000Y-76850817D01*
X154971310Y-76434507D01*
X155205000Y-75870330D01*
X155205000Y-75259670D01*
X154971310Y-74695493D01*
X154539507Y-74263690D01*
X153975330Y-74030000D01*
X153364670Y-74030000D01*
X152800493Y-74263690D01*
X152400000Y-74664183D01*
X151999507Y-74263690D01*
X151435330Y-74030000D01*
X150824670Y-74030000D01*
X150260493Y-74263690D01*
X149860000Y-74664183D01*
X149459507Y-74263690D01*
X148895330Y-74030000D01*
X148284670Y-74030000D01*
X147720493Y-74263690D01*
X147320000Y-74664183D01*
X146919507Y-74263690D01*
X146355330Y-74030000D01*
X145744670Y-74030000D01*
X145180493Y-74263690D01*
X144780000Y-74664183D01*
X144379507Y-74263690D01*
X143815330Y-74030000D01*
X143204670Y-74030000D01*
X142640493Y-74263690D01*
X142240000Y-74664183D01*
X141839507Y-74263690D01*
X141275330Y-74030000D01*
X140664670Y-74030000D01*
X140100493Y-74263690D01*
X139700000Y-74664183D01*
X139299507Y-74263690D01*
X138735330Y-74030000D01*
X138124670Y-74030000D01*
X137560493Y-74263690D01*
X137128690Y-74695493D01*
X137120562Y-74715115D01*
X136970159Y-74664446D01*
X136069605Y-75565000D01*
X136970159Y-76465554D01*
X137120562Y-76414885D01*
X137128690Y-76434507D01*
X137560493Y-76866310D01*
X138124670Y-77100000D01*
X138183421Y-77100000D01*
X131515845Y-83767577D01*
X131441952Y-83816951D01*
X131392578Y-83890844D01*
X131392576Y-83890846D01*
X131246348Y-84109691D01*
X131177663Y-84455000D01*
X131195001Y-84542166D01*
X131195000Y-101995421D01*
X129208439Y-103981983D01*
X129173333Y-103975000D01*
X128890667Y-103975000D01*
X128472091Y-104058260D01*
X127997423Y-104375423D01*
X127680260Y-104850091D01*
X127568887Y-105410000D01*
X127680260Y-105969909D01*
X127997423Y-106444577D01*
X128472091Y-106761740D01*
X128890667Y-106845000D01*
X129173333Y-106845000D01*
X129591909Y-106761740D01*
X130066577Y-106444577D01*
X130084505Y-106417745D01*
X135823861Y-106417745D01*
X135897995Y-106663864D01*
X136435223Y-106856965D01*
X137005454Y-106829778D01*
X137406005Y-106663864D01*
X137480139Y-106417745D01*
X136652000Y-105589605D01*
X135823861Y-106417745D01*
X130084505Y-106417745D01*
X130383740Y-105969909D01*
X130495113Y-105410000D01*
X130460017Y-105233561D01*
X130500355Y-105193223D01*
X135205035Y-105193223D01*
X135232222Y-105763454D01*
X135398136Y-106164005D01*
X135644255Y-106238139D01*
X136472395Y-105410000D01*
X136831605Y-105410000D01*
X137659745Y-106238139D01*
X137905864Y-106164005D01*
X138098965Y-105626777D01*
X138088630Y-105410000D01*
X138490887Y-105410000D01*
X138602260Y-105969909D01*
X138919423Y-106444577D01*
X139394091Y-106761740D01*
X139812667Y-106845000D01*
X140095333Y-106845000D01*
X140513909Y-106761740D01*
X140988577Y-106444577D01*
X141305740Y-105969909D01*
X141417113Y-105410000D01*
X141305740Y-104850091D01*
X140988577Y-104375423D01*
X140513909Y-104058260D01*
X140095333Y-103975000D01*
X139812667Y-103975000D01*
X139394091Y-104058260D01*
X138919423Y-104375423D01*
X138602260Y-104850091D01*
X138490887Y-105410000D01*
X138088630Y-105410000D01*
X138071778Y-105056546D01*
X137905864Y-104655995D01*
X137659745Y-104581861D01*
X136831605Y-105410000D01*
X136472395Y-105410000D01*
X135644255Y-104581861D01*
X135398136Y-104655995D01*
X135205035Y-105193223D01*
X130500355Y-105193223D01*
X131291323Y-104402255D01*
X135823861Y-104402255D01*
X136652000Y-105230395D01*
X137480139Y-104402255D01*
X137406005Y-104156136D01*
X136868777Y-103963035D01*
X136298546Y-103990222D01*
X135897995Y-104156136D01*
X135823861Y-104402255D01*
X131291323Y-104402255D01*
X132644156Y-103049423D01*
X132718049Y-103000049D01*
X132770961Y-102920862D01*
X132913652Y-102707310D01*
X132921489Y-102667909D01*
X132965000Y-102449165D01*
X132965000Y-102449161D01*
X132982337Y-102362000D01*
X132965000Y-102274839D01*
X132965000Y-84821578D01*
X133052560Y-84734018D01*
X133052560Y-93650000D01*
X133101843Y-93897765D01*
X133242191Y-94107809D01*
X133452235Y-94248157D01*
X133700000Y-94297440D01*
X145700000Y-94297440D01*
X145947765Y-94248157D01*
X146157809Y-94107809D01*
X146298157Y-93897765D01*
X146347440Y-93650000D01*
X146347440Y-90285000D01*
X152512761Y-90285000D01*
X152283914Y-90513847D01*
X152035000Y-91114778D01*
X152035000Y-91765222D01*
X152283914Y-92366153D01*
X152743847Y-92826086D01*
X153344778Y-93075000D01*
X153995222Y-93075000D01*
X154596153Y-92826086D01*
X155056086Y-92366153D01*
X155305000Y-91765222D01*
X155305000Y-91114778D01*
X155245305Y-90970662D01*
X155295653Y-90895311D01*
X155364339Y-90550001D01*
X155308164Y-90267587D01*
X155624613Y-90204641D01*
X156082742Y-89898529D01*
X156160013Y-89782885D01*
X158362885Y-87580013D01*
X158478529Y-87502742D01*
X158784641Y-87044613D01*
X158865000Y-86640620D01*
X158865000Y-86640616D01*
X158892132Y-86504214D01*
X158865000Y-86367812D01*
X158865000Y-82630000D01*
X166263165Y-82630000D01*
X166389284Y-83264043D01*
X166748441Y-83801559D01*
X167285957Y-84160716D01*
X167759955Y-84255000D01*
X170060045Y-84255000D01*
X170534043Y-84160716D01*
X171071559Y-83801559D01*
X171430716Y-83264043D01*
X171556835Y-82630000D01*
X171430716Y-81995957D01*
X171071559Y-81458441D01*
X170534043Y-81099284D01*
X170060045Y-81005000D01*
X167759955Y-81005000D01*
X167285957Y-81099284D01*
X166748441Y-81458441D01*
X166389284Y-81995957D01*
X166263165Y-82630000D01*
X158865000Y-82630000D01*
X158865000Y-80772000D01*
X175768000Y-80772000D01*
X175768000Y-103260616D01*
X175705159Y-103239446D01*
X174804605Y-104140000D01*
X175705159Y-105040554D01*
X175768000Y-105019384D01*
X175768000Y-106357521D01*
X175765015Y-106378364D01*
X175625628Y-106684928D01*
X175405804Y-106940047D01*
X175123207Y-107123218D01*
X174906591Y-107188000D01*
X171688578Y-107188000D01*
X172649156Y-106227423D01*
X172723049Y-106178049D01*
X172776922Y-106097424D01*
X172918652Y-105885310D01*
X172936462Y-105795772D01*
X172958011Y-105687440D01*
X172985000Y-105687440D01*
X173232765Y-105638157D01*
X173442809Y-105497809D01*
X173575058Y-105299886D01*
X173609890Y-105334718D01*
X173724447Y-105220161D01*
X173810852Y-105476643D01*
X174384336Y-105686458D01*
X174994460Y-105660839D01*
X175439148Y-105476643D01*
X175525554Y-105220159D01*
X174625000Y-104319605D01*
X174610858Y-104333748D01*
X174431253Y-104154143D01*
X174445395Y-104140000D01*
X174431253Y-104125858D01*
X174610858Y-103946253D01*
X174625000Y-103960395D01*
X175525554Y-103059841D01*
X175439148Y-102803357D01*
X174865664Y-102593542D01*
X174255540Y-102619161D01*
X173810852Y-102803357D01*
X173724447Y-103059839D01*
X173609890Y-102945282D01*
X173575058Y-102980114D01*
X173442809Y-102782191D01*
X173232765Y-102641843D01*
X172985000Y-102592560D01*
X171185000Y-102592560D01*
X170937235Y-102641843D01*
X170727191Y-102782191D01*
X170586843Y-102992235D01*
X170583725Y-103007908D01*
X170414507Y-102838690D01*
X169850330Y-102605000D01*
X169261579Y-102605000D01*
X163486357Y-96829778D01*
X165497000Y-96829778D01*
X165497000Y-97480222D01*
X165745914Y-98081153D01*
X166205847Y-98541086D01*
X166806778Y-98790000D01*
X167457222Y-98790000D01*
X168058153Y-98541086D01*
X168518086Y-98081153D01*
X168656000Y-97748199D01*
X168793914Y-98081153D01*
X169253847Y-98541086D01*
X169854778Y-98790000D01*
X170505222Y-98790000D01*
X171106153Y-98541086D01*
X171339707Y-98307532D01*
X172255073Y-98307532D01*
X172353736Y-98574387D01*
X172963461Y-98800908D01*
X173613460Y-98776856D01*
X174102264Y-98574387D01*
X174200927Y-98307532D01*
X173228000Y-97334605D01*
X172255073Y-98307532D01*
X171339707Y-98307532D01*
X171566086Y-98081153D01*
X171698096Y-97762452D01*
X171808613Y-98029264D01*
X172075468Y-98127927D01*
X173048395Y-97155000D01*
X173407605Y-97155000D01*
X174380532Y-98127927D01*
X174647387Y-98029264D01*
X174873908Y-97419539D01*
X174849856Y-96769540D01*
X174647387Y-96280736D01*
X174380532Y-96182073D01*
X173407605Y-97155000D01*
X173048395Y-97155000D01*
X172075468Y-96182073D01*
X171808613Y-96280736D01*
X171704102Y-96562047D01*
X171566086Y-96228847D01*
X171339707Y-96002468D01*
X172255073Y-96002468D01*
X173228000Y-96975395D01*
X174200927Y-96002468D01*
X174102264Y-95735613D01*
X173492539Y-95509092D01*
X172842540Y-95533144D01*
X172353736Y-95735613D01*
X172255073Y-96002468D01*
X171339707Y-96002468D01*
X171106153Y-95768914D01*
X170505222Y-95520000D01*
X169854778Y-95520000D01*
X169253847Y-95768914D01*
X168793914Y-96228847D01*
X168656000Y-96561801D01*
X168518086Y-96228847D01*
X168058153Y-95768914D01*
X167457222Y-95520000D01*
X166806778Y-95520000D01*
X166205847Y-95768914D01*
X165745914Y-96228847D01*
X165497000Y-96829778D01*
X163486357Y-96829778D01*
X162612425Y-95955847D01*
X162563049Y-95881951D01*
X162270310Y-95686348D01*
X162012165Y-95635000D01*
X162012161Y-95635000D01*
X161925000Y-95617663D01*
X161837839Y-95635000D01*
X159676578Y-95635000D01*
X166376692Y-88934886D01*
X166472191Y-89077809D01*
X166682235Y-89218157D01*
X166930000Y-89267440D01*
X170890000Y-89267440D01*
X171137765Y-89218157D01*
X171347809Y-89077809D01*
X171488157Y-88867765D01*
X171537440Y-88620000D01*
X171537440Y-86640000D01*
X171488157Y-86392235D01*
X171347809Y-86182191D01*
X171137765Y-86041843D01*
X170890000Y-85992560D01*
X166930000Y-85992560D01*
X166682235Y-86041843D01*
X166472191Y-86182191D01*
X166331843Y-86392235D01*
X166282560Y-86640000D01*
X166282560Y-86756989D01*
X166084690Y-86796348D01*
X166084688Y-86796349D01*
X166084689Y-86796349D01*
X165865845Y-86942576D01*
X165865844Y-86942577D01*
X165791951Y-86991951D01*
X165742577Y-87065844D01*
X158108423Y-94699999D01*
X146437162Y-94699999D01*
X146350001Y-94682662D01*
X146262840Y-94699999D01*
X146262836Y-94699999D01*
X146004691Y-94751347D01*
X145785846Y-94897575D01*
X145785845Y-94897576D01*
X145711952Y-94946950D01*
X145662578Y-95020843D01*
X143793422Y-96890000D01*
X143204670Y-96890000D01*
X142640493Y-97123690D01*
X142240000Y-97524183D01*
X141839507Y-97123690D01*
X141275330Y-96890000D01*
X140664670Y-96890000D01*
X140100493Y-97123690D01*
X139700000Y-97524183D01*
X139299507Y-97123690D01*
X138735330Y-96890000D01*
X138124670Y-96890000D01*
X137560493Y-97123690D01*
X137160000Y-97524183D01*
X136759507Y-97123690D01*
X136195330Y-96890000D01*
X135584670Y-96890000D01*
X135020493Y-97123690D01*
X134588690Y-97555493D01*
X134355000Y-98119670D01*
X134355000Y-98730330D01*
X134588690Y-99294507D01*
X135020493Y-99726310D01*
X135584670Y-99960000D01*
X136195330Y-99960000D01*
X136759507Y-99726310D01*
X137160000Y-99325817D01*
X137560493Y-99726310D01*
X137717201Y-99791220D01*
X136835422Y-100673000D01*
X136366561Y-100673000D01*
X135839138Y-100891466D01*
X135435466Y-101295138D01*
X135217000Y-101822561D01*
X135217000Y-102393439D01*
X135435466Y-102920862D01*
X135839138Y-103324534D01*
X136366561Y-103543000D01*
X136937439Y-103543000D01*
X137464862Y-103324534D01*
X137868534Y-102920862D01*
X138087000Y-102393439D01*
X138087000Y-101924578D01*
X138796579Y-101215000D01*
X138817604Y-101215000D01*
X138737466Y-101295138D01*
X138519000Y-101822561D01*
X138519000Y-102393439D01*
X138737466Y-102920862D01*
X139141138Y-103324534D01*
X139668561Y-103543000D01*
X140239439Y-103543000D01*
X140766862Y-103324534D01*
X141170534Y-102920862D01*
X141389000Y-102393439D01*
X141389000Y-101822561D01*
X141170534Y-101295138D01*
X141090396Y-101215000D01*
X141517839Y-101215000D01*
X141605000Y-101232337D01*
X141692161Y-101215000D01*
X141692165Y-101215000D01*
X141950310Y-101163652D01*
X142243049Y-100968049D01*
X142292425Y-100894153D01*
X143226579Y-99960000D01*
X143815330Y-99960000D01*
X144379507Y-99726310D01*
X144780000Y-99325817D01*
X145180493Y-99726310D01*
X145744670Y-99960000D01*
X146355330Y-99960000D01*
X146919507Y-99726310D01*
X147320000Y-99325817D01*
X147720493Y-99726310D01*
X148284670Y-99960000D01*
X148450564Y-99960000D01*
X148410577Y-100019844D01*
X147750439Y-100679983D01*
X147715333Y-100673000D01*
X147432667Y-100673000D01*
X147014091Y-100756260D01*
X146539423Y-101073423D01*
X146222260Y-101548091D01*
X146110887Y-102108000D01*
X146222260Y-102667909D01*
X146539423Y-103142577D01*
X147014091Y-103459740D01*
X147432667Y-103543000D01*
X147715333Y-103543000D01*
X148133909Y-103459740D01*
X148608577Y-103142577D01*
X148925740Y-102667909D01*
X149037113Y-102108000D01*
X149002017Y-101931561D01*
X149464579Y-101469000D01*
X149587450Y-101469000D01*
X149441000Y-101822561D01*
X149441000Y-102393439D01*
X149659466Y-102920862D01*
X150063138Y-103324534D01*
X150590561Y-103543000D01*
X151161439Y-103543000D01*
X151688862Y-103324534D01*
X152092534Y-102920862D01*
X152311000Y-102393439D01*
X152311000Y-101822561D01*
X152164550Y-101469000D01*
X157197107Y-101469000D01*
X157144260Y-101548091D01*
X157032887Y-102108000D01*
X157144260Y-102667909D01*
X157461423Y-103142577D01*
X157936091Y-103459740D01*
X158354667Y-103543000D01*
X158637333Y-103543000D01*
X159055909Y-103459740D01*
X159530577Y-103142577D01*
X159847740Y-102667909D01*
X159959113Y-102108000D01*
X159938675Y-102005254D01*
X160656163Y-102722741D01*
X160567191Y-102782191D01*
X160426843Y-102992235D01*
X160377560Y-103240000D01*
X160377560Y-105040000D01*
X160426843Y-105287765D01*
X160567191Y-105497809D01*
X160777235Y-105638157D01*
X161025000Y-105687440D01*
X162825000Y-105687440D01*
X163072765Y-105638157D01*
X163282809Y-105497809D01*
X163423157Y-105287765D01*
X163426275Y-105272092D01*
X163595493Y-105441310D01*
X164159670Y-105675000D01*
X164770330Y-105675000D01*
X165334507Y-105441310D01*
X165503725Y-105272092D01*
X165506843Y-105287765D01*
X165647191Y-105497809D01*
X165857235Y-105638157D01*
X166105000Y-105687440D01*
X167905000Y-105687440D01*
X168152765Y-105638157D01*
X168362809Y-105497809D01*
X168503157Y-105287765D01*
X168506275Y-105272092D01*
X168675493Y-105441310D01*
X169239670Y-105675000D01*
X169850330Y-105675000D01*
X170414507Y-105441310D01*
X170583725Y-105272092D01*
X170586843Y-105287765D01*
X170727191Y-105497809D01*
X170816163Y-105557259D01*
X170070422Y-106303000D01*
X159625176Y-106303000D01*
X159847740Y-105969909D01*
X159959113Y-105410000D01*
X159847740Y-104850091D01*
X159530577Y-104375423D01*
X159055909Y-104058260D01*
X158637333Y-103975000D01*
X158354667Y-103975000D01*
X157936091Y-104058260D01*
X157461423Y-104375423D01*
X157144260Y-104850091D01*
X157032887Y-105410000D01*
X157144260Y-105969909D01*
X157366824Y-106303000D01*
X152012396Y-106303000D01*
X152092534Y-106222862D01*
X152311000Y-105695439D01*
X152311000Y-105124561D01*
X152092534Y-104597138D01*
X151688862Y-104193466D01*
X151161439Y-103975000D01*
X150590561Y-103975000D01*
X150063138Y-104193466D01*
X149659466Y-104597138D01*
X149441000Y-105124561D01*
X149441000Y-105695439D01*
X149659466Y-106222862D01*
X149739604Y-106303000D01*
X149718579Y-106303000D01*
X149009000Y-105593422D01*
X149009000Y-105124561D01*
X148790534Y-104597138D01*
X148386862Y-104193466D01*
X147859439Y-103975000D01*
X147288561Y-103975000D01*
X146761138Y-104193466D01*
X146357466Y-104597138D01*
X146139000Y-105124561D01*
X146139000Y-105695439D01*
X146357466Y-106222862D01*
X146761138Y-106626534D01*
X147288561Y-106845000D01*
X147757422Y-106845000D01*
X148100421Y-107188000D01*
X127322479Y-107188000D01*
X127301636Y-107185015D01*
X126995072Y-107045628D01*
X126739953Y-106825804D01*
X126556782Y-106543207D01*
X126492000Y-106326591D01*
X126492000Y-102457039D01*
X127640096Y-102457039D01*
X127800959Y-102845423D01*
X128176866Y-103260389D01*
X128682959Y-103499914D01*
X128905000Y-103378629D01*
X128905000Y-102235000D01*
X129159000Y-102235000D01*
X129159000Y-103378629D01*
X129381041Y-103499914D01*
X129887134Y-103260389D01*
X130263041Y-102845423D01*
X130423904Y-102457039D01*
X130301915Y-102235000D01*
X129159000Y-102235000D01*
X128905000Y-102235000D01*
X127762085Y-102235000D01*
X127640096Y-102457039D01*
X126492000Y-102457039D01*
X126492000Y-101758961D01*
X127640096Y-101758961D01*
X127762085Y-101981000D01*
X128905000Y-101981000D01*
X128905000Y-100837371D01*
X129159000Y-100837371D01*
X129159000Y-101981000D01*
X130301915Y-101981000D01*
X130423904Y-101758961D01*
X130263041Y-101370577D01*
X129887134Y-100955611D01*
X129381041Y-100716086D01*
X129159000Y-100837371D01*
X128905000Y-100837371D01*
X128682959Y-100716086D01*
X128176866Y-100955611D01*
X127800959Y-101370577D01*
X127640096Y-101758961D01*
X126492000Y-101758961D01*
X126492000Y-76645159D01*
X134989446Y-76645159D01*
X135075852Y-76901643D01*
X135649336Y-77111458D01*
X136259460Y-77085839D01*
X136704148Y-76901643D01*
X136790554Y-76645159D01*
X135890000Y-75744605D01*
X134989446Y-76645159D01*
X126492000Y-76645159D01*
X126492000Y-75324336D01*
X134343542Y-75324336D01*
X134369161Y-75934460D01*
X134553357Y-76379148D01*
X134809841Y-76465554D01*
X135710395Y-75565000D01*
X134809841Y-74664446D01*
X134553357Y-74750852D01*
X134343542Y-75324336D01*
X126492000Y-75324336D01*
X126492000Y-74484841D01*
X134989446Y-74484841D01*
X135890000Y-75385395D01*
X136790554Y-74484841D01*
X136704148Y-74228357D01*
X136130664Y-74018542D01*
X135520540Y-74044161D01*
X135075852Y-74228357D01*
X134989446Y-74484841D01*
X126492000Y-74484841D01*
X126492000Y-68628000D01*
X127892560Y-68628000D01*
X127892560Y-72628000D01*
X127941843Y-72875765D01*
X128082191Y-73085809D01*
X128292235Y-73226157D01*
X128540000Y-73275440D01*
X130540000Y-73275440D01*
X130787765Y-73226157D01*
X130997809Y-73085809D01*
X131138157Y-72875765D01*
X131187440Y-72628000D01*
X131187440Y-68628000D01*
X131138157Y-68380235D01*
X130997809Y-68170191D01*
X130787765Y-68029843D01*
X130540000Y-67980560D01*
X128540000Y-67980560D01*
X128292235Y-68029843D01*
X128082191Y-68170191D01*
X127941843Y-68380235D01*
X127892560Y-68628000D01*
X126492000Y-68628000D01*
X126492000Y-61610750D01*
X127905000Y-61610750D01*
X127905000Y-63451310D01*
X128001673Y-63684699D01*
X128180302Y-63863327D01*
X128413691Y-63960000D01*
X129254250Y-63960000D01*
X129413000Y-63801250D01*
X129413000Y-61452000D01*
X129667000Y-61452000D01*
X129667000Y-63801250D01*
X129825750Y-63960000D01*
X130666309Y-63960000D01*
X130899698Y-63863327D01*
X131078327Y-63684699D01*
X131175000Y-63451310D01*
X131175000Y-61610750D01*
X131016250Y-61452000D01*
X129667000Y-61452000D01*
X129413000Y-61452000D01*
X128063750Y-61452000D01*
X127905000Y-61610750D01*
X126492000Y-61610750D01*
X126492000Y-60012479D01*
X126494985Y-59991636D01*
X126634372Y-59685072D01*
X126854199Y-59429950D01*
X127136792Y-59246782D01*
X127353410Y-59182000D01*
X127911913Y-59182000D01*
X127905000Y-59198690D01*
G04 #@! TO.N,+12V*
G36*
X148225000Y-59198690D02*
X148225000Y-61039250D01*
X148383750Y-61198000D01*
X149733000Y-61198000D01*
X149733000Y-61178000D01*
X149987000Y-61178000D01*
X149987000Y-61198000D01*
X151336250Y-61198000D01*
X151495000Y-61039250D01*
X151495000Y-59933691D01*
X155945000Y-59933691D01*
X155945000Y-60674250D01*
X156103750Y-60833000D01*
X157353000Y-60833000D01*
X157353000Y-59583750D01*
X157607000Y-59583750D01*
X157607000Y-60833000D01*
X158856250Y-60833000D01*
X159015000Y-60674250D01*
X159015000Y-59933691D01*
X158918327Y-59700302D01*
X158739699Y-59521673D01*
X158506310Y-59425000D01*
X157765750Y-59425000D01*
X157607000Y-59583750D01*
X157353000Y-59583750D01*
X157194250Y-59425000D01*
X156453690Y-59425000D01*
X156220301Y-59521673D01*
X156041673Y-59700302D01*
X155945000Y-59933691D01*
X151495000Y-59933691D01*
X151495000Y-59198690D01*
X151488087Y-59182000D01*
X174937521Y-59182000D01*
X174958364Y-59184985D01*
X175264928Y-59324372D01*
X175520050Y-59544199D01*
X175703218Y-59826792D01*
X175768000Y-60043410D01*
X175768000Y-79248000D01*
X158865000Y-79248000D01*
X158865000Y-76480000D01*
X166282560Y-76480000D01*
X166282560Y-78460000D01*
X166331843Y-78707765D01*
X166472191Y-78917809D01*
X166682235Y-79058157D01*
X166930000Y-79107440D01*
X170890000Y-79107440D01*
X171137765Y-79058157D01*
X171347809Y-78917809D01*
X171488157Y-78707765D01*
X171537440Y-78460000D01*
X171537440Y-76480000D01*
X171488157Y-76232235D01*
X171347809Y-76022191D01*
X171137765Y-75881843D01*
X170890000Y-75832560D01*
X166930000Y-75832560D01*
X166682235Y-75881843D01*
X166472191Y-76022191D01*
X166331843Y-76232235D01*
X166282560Y-76480000D01*
X158865000Y-76480000D01*
X158865000Y-72848865D01*
X166339782Y-72848865D01*
X166370095Y-72974528D01*
X166681149Y-73529246D01*
X167180807Y-73922703D01*
X167793000Y-74095000D01*
X168783000Y-74095000D01*
X168783000Y-72597000D01*
X169037000Y-72597000D01*
X169037000Y-74095000D01*
X170027000Y-74095000D01*
X170639193Y-73922703D01*
X171138851Y-73529246D01*
X171449905Y-72974528D01*
X171480218Y-72848865D01*
X171360740Y-72597000D01*
X169037000Y-72597000D01*
X168783000Y-72597000D01*
X166459260Y-72597000D01*
X166339782Y-72848865D01*
X158865000Y-72848865D01*
X158865000Y-72091135D01*
X166339782Y-72091135D01*
X166459260Y-72343000D01*
X168783000Y-72343000D01*
X168783000Y-70845000D01*
X169037000Y-70845000D01*
X169037000Y-72343000D01*
X171360740Y-72343000D01*
X171480218Y-72091135D01*
X171449905Y-71965472D01*
X171138851Y-71410754D01*
X170639193Y-71017297D01*
X170027000Y-70845000D01*
X169037000Y-70845000D01*
X168783000Y-70845000D01*
X167793000Y-70845000D01*
X167180807Y-71017297D01*
X166681149Y-71410754D01*
X166370095Y-71965472D01*
X166339782Y-72091135D01*
X158865000Y-72091135D01*
X158865000Y-69270127D01*
X158925938Y-69178927D01*
X158947337Y-69071349D01*
X159323686Y-68695000D01*
X166430223Y-68695000D01*
X166472191Y-68757809D01*
X166682235Y-68898157D01*
X166930000Y-68947440D01*
X170890000Y-68947440D01*
X171137765Y-68898157D01*
X171347809Y-68757809D01*
X171488157Y-68547765D01*
X171537440Y-68300000D01*
X171537440Y-66320000D01*
X171488157Y-66072235D01*
X171347809Y-65862191D01*
X171137765Y-65721843D01*
X170890000Y-65672560D01*
X166930000Y-65672560D01*
X166682235Y-65721843D01*
X166472191Y-65862191D01*
X166430223Y-65925000D01*
X158886405Y-65925000D01*
X158749999Y-65897867D01*
X158613593Y-65925000D01*
X158209600Y-66005359D01*
X157751471Y-66311471D01*
X157674202Y-66427112D01*
X156988651Y-67112663D01*
X156881073Y-67134062D01*
X156373327Y-67473327D01*
X156034062Y-67981073D01*
X155914928Y-68580000D01*
X156034062Y-69178927D01*
X156095000Y-69270127D01*
X156095000Y-71628000D01*
X151507440Y-71628000D01*
X151507440Y-68755000D01*
X151458157Y-68507235D01*
X151317809Y-68297191D01*
X151107765Y-68156843D01*
X150860000Y-68107560D01*
X148860000Y-68107560D01*
X148612235Y-68156843D01*
X148402191Y-68297191D01*
X148261843Y-68507235D01*
X148212560Y-68755000D01*
X148212560Y-71628000D01*
X142367000Y-71628000D01*
X142367000Y-61610750D01*
X148225000Y-61610750D01*
X148225000Y-63451310D01*
X148321673Y-63684699D01*
X148500302Y-63863327D01*
X148733691Y-63960000D01*
X149574250Y-63960000D01*
X149733000Y-63801250D01*
X149733000Y-61452000D01*
X149987000Y-61452000D01*
X149987000Y-63801250D01*
X150145750Y-63960000D01*
X150986309Y-63960000D01*
X151219698Y-63863327D01*
X151398327Y-63684699D01*
X151495000Y-63451310D01*
X151495000Y-62688865D01*
X166339782Y-62688865D01*
X166370095Y-62814528D01*
X166681149Y-63369246D01*
X167180807Y-63762703D01*
X167793000Y-63935000D01*
X168783000Y-63935000D01*
X168783000Y-62437000D01*
X169037000Y-62437000D01*
X169037000Y-63935000D01*
X170027000Y-63935000D01*
X170639193Y-63762703D01*
X171138851Y-63369246D01*
X171449905Y-62814528D01*
X171480218Y-62688865D01*
X171360740Y-62437000D01*
X169037000Y-62437000D01*
X168783000Y-62437000D01*
X166459260Y-62437000D01*
X166339782Y-62688865D01*
X151495000Y-62688865D01*
X151495000Y-61610750D01*
X151336250Y-61452000D01*
X149987000Y-61452000D01*
X149733000Y-61452000D01*
X148383750Y-61452000D01*
X148225000Y-61610750D01*
X142367000Y-61610750D01*
X142367000Y-61245750D01*
X155945000Y-61245750D01*
X155945000Y-61986309D01*
X156041673Y-62219698D01*
X156220301Y-62398327D01*
X156453690Y-62495000D01*
X157194250Y-62495000D01*
X157353000Y-62336250D01*
X157353000Y-61087000D01*
X157607000Y-61087000D01*
X157607000Y-62336250D01*
X157765750Y-62495000D01*
X158506310Y-62495000D01*
X158739699Y-62398327D01*
X158918327Y-62219698D01*
X159015000Y-61986309D01*
X159015000Y-61931135D01*
X166339782Y-61931135D01*
X166459260Y-62183000D01*
X168783000Y-62183000D01*
X168783000Y-60685000D01*
X169037000Y-60685000D01*
X169037000Y-62183000D01*
X171360740Y-62183000D01*
X171480218Y-61931135D01*
X171449905Y-61805472D01*
X171138851Y-61250754D01*
X170639193Y-60857297D01*
X170027000Y-60685000D01*
X169037000Y-60685000D01*
X168783000Y-60685000D01*
X167793000Y-60685000D01*
X167180807Y-60857297D01*
X166681149Y-61250754D01*
X166370095Y-61805472D01*
X166339782Y-61931135D01*
X159015000Y-61931135D01*
X159015000Y-61245750D01*
X158856250Y-61087000D01*
X157607000Y-61087000D01*
X157353000Y-61087000D01*
X156103750Y-61087000D01*
X155945000Y-61245750D01*
X142367000Y-61245750D01*
X142367000Y-59182000D01*
X148231913Y-59182000D01*
X148225000Y-59198690D01*
X148225000Y-59198690D01*
G37*
X148225000Y-59198690D02*
X148225000Y-61039250D01*
X148383750Y-61198000D01*
X149733000Y-61198000D01*
X149733000Y-61178000D01*
X149987000Y-61178000D01*
X149987000Y-61198000D01*
X151336250Y-61198000D01*
X151495000Y-61039250D01*
X151495000Y-59933691D01*
X155945000Y-59933691D01*
X155945000Y-60674250D01*
X156103750Y-60833000D01*
X157353000Y-60833000D01*
X157353000Y-59583750D01*
X157607000Y-59583750D01*
X157607000Y-60833000D01*
X158856250Y-60833000D01*
X159015000Y-60674250D01*
X159015000Y-59933691D01*
X158918327Y-59700302D01*
X158739699Y-59521673D01*
X158506310Y-59425000D01*
X157765750Y-59425000D01*
X157607000Y-59583750D01*
X157353000Y-59583750D01*
X157194250Y-59425000D01*
X156453690Y-59425000D01*
X156220301Y-59521673D01*
X156041673Y-59700302D01*
X155945000Y-59933691D01*
X151495000Y-59933691D01*
X151495000Y-59198690D01*
X151488087Y-59182000D01*
X174937521Y-59182000D01*
X174958364Y-59184985D01*
X175264928Y-59324372D01*
X175520050Y-59544199D01*
X175703218Y-59826792D01*
X175768000Y-60043410D01*
X175768000Y-79248000D01*
X158865000Y-79248000D01*
X158865000Y-76480000D01*
X166282560Y-76480000D01*
X166282560Y-78460000D01*
X166331843Y-78707765D01*
X166472191Y-78917809D01*
X166682235Y-79058157D01*
X166930000Y-79107440D01*
X170890000Y-79107440D01*
X171137765Y-79058157D01*
X171347809Y-78917809D01*
X171488157Y-78707765D01*
X171537440Y-78460000D01*
X171537440Y-76480000D01*
X171488157Y-76232235D01*
X171347809Y-76022191D01*
X171137765Y-75881843D01*
X170890000Y-75832560D01*
X166930000Y-75832560D01*
X166682235Y-75881843D01*
X166472191Y-76022191D01*
X166331843Y-76232235D01*
X166282560Y-76480000D01*
X158865000Y-76480000D01*
X158865000Y-72848865D01*
X166339782Y-72848865D01*
X166370095Y-72974528D01*
X166681149Y-73529246D01*
X167180807Y-73922703D01*
X167793000Y-74095000D01*
X168783000Y-74095000D01*
X168783000Y-72597000D01*
X169037000Y-72597000D01*
X169037000Y-74095000D01*
X170027000Y-74095000D01*
X170639193Y-73922703D01*
X171138851Y-73529246D01*
X171449905Y-72974528D01*
X171480218Y-72848865D01*
X171360740Y-72597000D01*
X169037000Y-72597000D01*
X168783000Y-72597000D01*
X166459260Y-72597000D01*
X166339782Y-72848865D01*
X158865000Y-72848865D01*
X158865000Y-72091135D01*
X166339782Y-72091135D01*
X166459260Y-72343000D01*
X168783000Y-72343000D01*
X168783000Y-70845000D01*
X169037000Y-70845000D01*
X169037000Y-72343000D01*
X171360740Y-72343000D01*
X171480218Y-72091135D01*
X171449905Y-71965472D01*
X171138851Y-71410754D01*
X170639193Y-71017297D01*
X170027000Y-70845000D01*
X169037000Y-70845000D01*
X168783000Y-70845000D01*
X167793000Y-70845000D01*
X167180807Y-71017297D01*
X166681149Y-71410754D01*
X166370095Y-71965472D01*
X166339782Y-72091135D01*
X158865000Y-72091135D01*
X158865000Y-69270127D01*
X158925938Y-69178927D01*
X158947337Y-69071349D01*
X159323686Y-68695000D01*
X166430223Y-68695000D01*
X166472191Y-68757809D01*
X166682235Y-68898157D01*
X166930000Y-68947440D01*
X170890000Y-68947440D01*
X171137765Y-68898157D01*
X171347809Y-68757809D01*
X171488157Y-68547765D01*
X171537440Y-68300000D01*
X171537440Y-66320000D01*
X171488157Y-66072235D01*
X171347809Y-65862191D01*
X171137765Y-65721843D01*
X170890000Y-65672560D01*
X166930000Y-65672560D01*
X166682235Y-65721843D01*
X166472191Y-65862191D01*
X166430223Y-65925000D01*
X158886405Y-65925000D01*
X158749999Y-65897867D01*
X158613593Y-65925000D01*
X158209600Y-66005359D01*
X157751471Y-66311471D01*
X157674202Y-66427112D01*
X156988651Y-67112663D01*
X156881073Y-67134062D01*
X156373327Y-67473327D01*
X156034062Y-67981073D01*
X155914928Y-68580000D01*
X156034062Y-69178927D01*
X156095000Y-69270127D01*
X156095000Y-71628000D01*
X151507440Y-71628000D01*
X151507440Y-68755000D01*
X151458157Y-68507235D01*
X151317809Y-68297191D01*
X151107765Y-68156843D01*
X150860000Y-68107560D01*
X148860000Y-68107560D01*
X148612235Y-68156843D01*
X148402191Y-68297191D01*
X148261843Y-68507235D01*
X148212560Y-68755000D01*
X148212560Y-71628000D01*
X142367000Y-71628000D01*
X142367000Y-61610750D01*
X148225000Y-61610750D01*
X148225000Y-63451310D01*
X148321673Y-63684699D01*
X148500302Y-63863327D01*
X148733691Y-63960000D01*
X149574250Y-63960000D01*
X149733000Y-63801250D01*
X149733000Y-61452000D01*
X149987000Y-61452000D01*
X149987000Y-63801250D01*
X150145750Y-63960000D01*
X150986309Y-63960000D01*
X151219698Y-63863327D01*
X151398327Y-63684699D01*
X151495000Y-63451310D01*
X151495000Y-62688865D01*
X166339782Y-62688865D01*
X166370095Y-62814528D01*
X166681149Y-63369246D01*
X167180807Y-63762703D01*
X167793000Y-63935000D01*
X168783000Y-63935000D01*
X168783000Y-62437000D01*
X169037000Y-62437000D01*
X169037000Y-63935000D01*
X170027000Y-63935000D01*
X170639193Y-63762703D01*
X171138851Y-63369246D01*
X171449905Y-62814528D01*
X171480218Y-62688865D01*
X171360740Y-62437000D01*
X169037000Y-62437000D01*
X168783000Y-62437000D01*
X166459260Y-62437000D01*
X166339782Y-62688865D01*
X151495000Y-62688865D01*
X151495000Y-61610750D01*
X151336250Y-61452000D01*
X149987000Y-61452000D01*
X149733000Y-61452000D01*
X148383750Y-61452000D01*
X148225000Y-61610750D01*
X142367000Y-61610750D01*
X142367000Y-61245750D01*
X155945000Y-61245750D01*
X155945000Y-61986309D01*
X156041673Y-62219698D01*
X156220301Y-62398327D01*
X156453690Y-62495000D01*
X157194250Y-62495000D01*
X157353000Y-62336250D01*
X157353000Y-61087000D01*
X157607000Y-61087000D01*
X157607000Y-62336250D01*
X157765750Y-62495000D01*
X158506310Y-62495000D01*
X158739699Y-62398327D01*
X158918327Y-62219698D01*
X159015000Y-61986309D01*
X159015000Y-61931135D01*
X166339782Y-61931135D01*
X166459260Y-62183000D01*
X168783000Y-62183000D01*
X168783000Y-60685000D01*
X169037000Y-60685000D01*
X169037000Y-62183000D01*
X171360740Y-62183000D01*
X171480218Y-61931135D01*
X171449905Y-61805472D01*
X171138851Y-61250754D01*
X170639193Y-60857297D01*
X170027000Y-60685000D01*
X169037000Y-60685000D01*
X168783000Y-60685000D01*
X167793000Y-60685000D01*
X167180807Y-60857297D01*
X166681149Y-61250754D01*
X166370095Y-61805472D01*
X166339782Y-61931135D01*
X159015000Y-61931135D01*
X159015000Y-61245750D01*
X158856250Y-61087000D01*
X157607000Y-61087000D01*
X157353000Y-61087000D01*
X156103750Y-61087000D01*
X155945000Y-61245750D01*
X142367000Y-61245750D01*
X142367000Y-59182000D01*
X148231913Y-59182000D01*
X148225000Y-59198690D01*
G04 #@! TD*
M02*
