M48
;DRILL file {KiCad 5.0.1} date So 09 Dez 2018 15:11:42 CET
;FORMAT={-:-/ absolute / inch / decimal}
FMAT,2
INCH,TZ
T1C0.0300
T2C0.0315
T3C0.0354
T4C0.0394
T5C0.0400
T6C0.0520
%
G90
G05
M72
T1
X8.59Y-5.79
X8.69Y-5.79
X8.79Y-5.79
X6.59Y-5.79
X6.69Y-5.79
X6.79Y-5.79
X8.59Y-3.84
X8.69Y-3.84
X8.79Y-3.84
X6.59Y-3.84
X6.69Y-3.84
X6.79Y-3.84
T2
X5.08Y-4.02
X5.38Y-4.02
X5.94Y-4.15
X6.24Y-4.15
X5.94Y-4.02
X6.24Y-4.02
X5.08Y-5.97
X5.38Y-5.97
X5.08Y-4.15
X5.38Y-4.15
X7.08Y-4.02
X7.38Y-4.02
X7.94Y-4.15
X8.24Y-4.15
X7.51Y-4.02
X7.81Y-4.02
X5.94Y-5.97
X6.24Y-5.97
X7.08Y-5.97
X7.38Y-5.97
X5.08Y-6.1
X5.38Y-6.1
X5.51Y-4.15
X5.81Y-4.15
X5.51Y-4.02
X5.81Y-4.02
X7.94Y-4.02
X8.24Y-4.02
X7.94Y-5.97
X8.24Y-5.97
X7.08Y-4.15
X7.38Y-4.15
X7.51Y-4.15
X7.81Y-4.15
X5.94Y-6.1
X6.24Y-6.1
X5.51Y-6.1
X5.81Y-6.1
X7.51Y-6.1
X7.81Y-6.1
X5.51Y-5.97
X5.81Y-5.97
X7.08Y-6.1
X7.38Y-6.1
X7.51Y-5.97
X7.81Y-5.97
X7.94Y-6.1
X8.24Y-6.1
T3
X8.575Y-4.1
X8.675Y-4.1
X8.375Y-4.1
X8.475Y-4.1
X6.575Y-4.1
X6.675Y-4.1
X6.775Y-6.05
X6.875Y-6.05
X8.2Y-4.35
X8.2Y-4.65
X8.775Y-4.1
X8.875Y-4.1
X6.375Y-4.1
X6.475Y-4.1
X6.2Y-4.35
X6.2Y-4.65
X6.375Y-6.05
X6.475Y-6.05
X8.575Y-6.05
X8.675Y-6.05
X8.375Y-6.05
X8.475Y-6.05
X6.575Y-6.05
X6.675Y-6.05
X8.2Y-2.4
X8.2Y-2.7
X6.775Y-4.1
X6.875Y-4.1
X8.775Y-6.05
X8.875Y-6.05
X6.2Y-2.4
X6.2Y-2.7
T4
X7.1Y-4.325
X7.1Y-4.77
X7.9Y-4.325
X7.9Y-4.775
X5.1Y-2.375
X5.1Y-2.82
X5.9Y-2.375
X5.9Y-2.825
X7.1Y-2.375
X7.1Y-2.82
X7.9Y-2.375
X7.9Y-2.825
X5.1Y-4.325
X5.1Y-4.77
X5.9Y-4.325
X5.9Y-4.775
T5
X5.35Y-2.975
X5.35Y-3.875
X5.45Y-2.975
X5.45Y-3.875
X5.55Y-2.975
X5.55Y-3.875
X5.65Y-2.975
X5.65Y-3.875
X5.75Y-2.975
X5.75Y-3.875
X5.85Y-2.975
X5.85Y-3.875
X5.95Y-2.975
X5.95Y-3.875
X6.05Y-2.975
X6.05Y-3.875
X7.35Y-4.925
X7.35Y-5.825
X7.45Y-4.925
X7.45Y-5.825
X7.55Y-4.925
X7.55Y-5.825
X7.65Y-4.925
X7.65Y-5.825
X7.75Y-4.925
X7.75Y-5.825
X7.85Y-4.925
X7.85Y-5.825
X7.95Y-4.925
X7.95Y-5.825
X8.05Y-4.925
X8.05Y-5.825
X5.35Y-4.925
X5.35Y-5.825
X5.45Y-4.925
X5.45Y-5.825
X5.55Y-4.925
X5.55Y-5.825
X5.65Y-4.925
X5.65Y-5.825
X5.75Y-4.925
X5.75Y-5.825
X5.85Y-4.925
X5.85Y-5.825
X5.95Y-4.925
X5.95Y-5.825
X6.05Y-4.925
X6.05Y-5.825
X7.35Y-2.975
X7.35Y-3.875
X7.45Y-2.975
X7.45Y-3.875
X7.55Y-2.975
X7.55Y-3.875
X7.65Y-2.975
X7.65Y-3.875
X7.75Y-2.975
X7.75Y-3.875
X7.85Y-2.975
X7.85Y-3.875
X7.95Y-2.975
X7.95Y-3.875
X8.05Y-2.975
X8.05Y-3.875
T6
X6.65Y-4.8531
X6.65Y-5.05
X6.65Y-3.3531
X6.65Y-3.55
X8.65Y-4.4031
X8.65Y-4.6
X8.65Y-3.3531
X8.65Y-3.55
X6.65Y-5.3031
X6.65Y-5.5
X8.65Y-5.3031
X8.65Y-5.5
X6.65Y-4.4031
X6.65Y-4.6
X6.65Y-2.4531
X6.65Y-2.65
X8.65Y-2.9031
X8.65Y-3.1
X6.65Y-2.9031
X6.65Y-3.1
X8.65Y-2.4531
X8.65Y-2.65
X8.65Y-4.8531
X8.65Y-5.05
T1
X8.05Y-3.3953G85X8.05Y-3.4047
G05
X8.05Y-3.4953G85X8.05Y-3.5047
G05
X8.05Y-3.5953G85X8.05Y-3.6047
G05
X6.05Y-5.3453G85X6.05Y-5.3547
G05
X6.05Y-5.4453G85X6.05Y-5.4547
G05
X6.05Y-5.5453G85X6.05Y-5.5547
G05
X6.05Y-3.3953G85X6.05Y-3.4047
G05
X6.05Y-3.4953G85X6.05Y-3.5047
G05
X6.05Y-3.5953G85X6.05Y-3.6047
G05
X8.05Y-5.3453G85X8.05Y-5.3547
G05
X8.05Y-5.4453G85X8.05Y-5.4547
G05
X8.05Y-5.5453G85X8.05Y-5.5547
G05
T0
M30
