G04 #@! TF.GenerationSoftware,KiCad,Pcbnew,5.0.1*
G04 #@! TF.CreationDate,2019-02-07T17:41:49+01:00*
G04 #@! TF.ProjectId,wasserschaden,7761737365727363686164656E2E6B69,rev?*
G04 #@! TF.SameCoordinates,Original*
G04 #@! TF.FileFunction,Copper,L2,Bot,Signal*
G04 #@! TF.FilePolarity,Positive*
%FSLAX46Y46*%
G04 Gerber Fmt 4.6, Leading zero omitted, Abs format (unit mm)*
G04 Created by KiCad (PCBNEW 5.0.1) date Do 07 Feb 2019 17:41:49 CET*
%MOMM*%
%LPD*%
G01*
G04 APERTURE LIST*
G04 #@! TA.AperFunction,ComponentPad*
%ADD10C,2.000000*%
G04 #@! TD*
G04 #@! TA.AperFunction,ComponentPad*
%ADD11C,1.800000*%
G04 #@! TD*
G04 #@! TA.AperFunction,ComponentPad*
%ADD12R,2.000000X4.000000*%
G04 #@! TD*
G04 #@! TA.AperFunction,ComponentPad*
%ADD13C,1.600000*%
G04 #@! TD*
G04 #@! TA.AperFunction,ComponentPad*
%ADD14O,1.600000X1.600000*%
G04 #@! TD*
G04 #@! TA.AperFunction,ComponentPad*
%ADD15R,1.800000X1.800000*%
G04 #@! TD*
G04 #@! TA.AperFunction,ComponentPad*
%ADD16O,1.800000X1.800000*%
G04 #@! TD*
G04 #@! TA.AperFunction,ComponentPad*
%ADD17R,3.960000X1.980000*%
G04 #@! TD*
G04 #@! TA.AperFunction,ComponentPad*
%ADD18O,3.960000X1.980000*%
G04 #@! TD*
G04 #@! TA.AperFunction,Conductor*
%ADD19C,0.500000*%
G04 #@! TD*
G04 #@! TA.AperFunction,Conductor*
%ADD20C,0.254000*%
G04 #@! TD*
G04 APERTURE END LIST*
D10*
G04 #@! TO.P,U3,3*
G04 #@! TO.N,+3V3*
X173228000Y-97155000D03*
G04 #@! TO.P,U3,2*
G04 #@! TO.N,Net-(R6-Pad2)*
X170180000Y-97155000D03*
G04 #@! TO.P,U3,1*
G04 #@! TO.N,GND*
X167132000Y-97155000D03*
G04 #@! TD*
D11*
G04 #@! TO.P,U2,8*
G04 #@! TO.N,Net-(U2-Pad8)*
X153670000Y-98425000D03*
G04 #@! TO.P,U2,9*
G04 #@! TO.N,Net-(JP1-Pad2)*
X153670000Y-75565000D03*
G04 #@! TO.P,U2,7*
G04 #@! TO.N,Net-(U2-Pad7)*
X151130000Y-98425000D03*
G04 #@! TO.P,U2,10*
G04 #@! TO.N,Net-(U2-Pad10)*
X151130000Y-75565000D03*
G04 #@! TO.P,U2,6*
G04 #@! TO.N,Net-(D2-Pad2)*
X148590000Y-98425000D03*
G04 #@! TO.P,U2,11*
G04 #@! TO.N,Net-(JP1-Pad1)*
X148590000Y-75565000D03*
G04 #@! TO.P,U2,5*
G04 #@! TO.N,Net-(D4-Pad2)*
X146050000Y-98425000D03*
G04 #@! TO.P,U2,12*
G04 #@! TO.N,Net-(U2-Pad12)*
X146050000Y-75565000D03*
G04 #@! TO.P,U2,4*
G04 #@! TO.N,Net-(J3-Pad1)*
X143510000Y-98425000D03*
G04 #@! TO.P,U2,13*
G04 #@! TO.N,Net-(U2-Pad13)*
X143510000Y-75565000D03*
G04 #@! TO.P,U2,3*
G04 #@! TO.N,Net-(U2-Pad3)*
X140970000Y-98425000D03*
G04 #@! TO.P,U2,14*
G04 #@! TO.N,Net-(R6-Pad2)*
X140970000Y-75565000D03*
G04 #@! TO.P,U2,2*
G04 #@! TO.N,GND*
X138430000Y-98425000D03*
G04 #@! TO.P,U2,15*
G04 #@! TO.N,Net-(U2-Pad15)*
X138430000Y-75565000D03*
G04 #@! TO.P,U2,1*
G04 #@! TO.N,Net-(U2-Pad1)*
X135890000Y-98425000D03*
G04 #@! TO.P,U2,16*
G04 #@! TO.N,+3V3*
X135890000Y-75565000D03*
G04 #@! TD*
D10*
G04 #@! TO.P,IRFZ44N1,1*
G04 #@! TO.N,GND*
X153670000Y-86360000D03*
G04 #@! TO.P,IRFZ44N1,3*
G04 #@! TO.N,Net-(D1-Pad2)*
X153670000Y-88900000D03*
G04 #@! TO.P,IRFZ44N1,2*
G04 #@! TO.N,Net-(D2-Pad2)*
X153670000Y-91440000D03*
G04 #@! TD*
D12*
G04 #@! TO.P,U1,1*
G04 #@! TO.N,GND*
X149860000Y-70755000D03*
G04 #@! TO.P,U1,3*
G04 #@! TO.N,+12V*
X149860000Y-61325000D03*
G04 #@! TO.P,U1,2*
G04 #@! TO.N,GND*
X129540000Y-70628000D03*
G04 #@! TO.P,U1,4*
G04 #@! TO.N,+3V3*
X129540000Y-61325000D03*
G04 #@! TD*
D13*
G04 #@! TO.P,R3,1*
G04 #@! TO.N,Net-(D3-Pad1)*
X147574000Y-105410000D03*
D14*
G04 #@! TO.P,R3,2*
G04 #@! TO.N,GND*
X139954000Y-105410000D03*
G04 #@! TD*
D15*
G04 #@! TO.P,D1,1*
G04 #@! TO.N,+12V*
X157480000Y-60960000D03*
D16*
G04 #@! TO.P,D1,2*
G04 #@! TO.N,Net-(D1-Pad2)*
X157480000Y-68580000D03*
G04 #@! TD*
D15*
G04 #@! TO.P,D4,1*
G04 #@! TO.N,Net-(D4-Pad1)*
X167005000Y-104140000D03*
D11*
G04 #@! TO.P,D4,2*
G04 #@! TO.N,Net-(D4-Pad2)*
X169545000Y-104140000D03*
G04 #@! TD*
D15*
G04 #@! TO.P,D3,1*
G04 #@! TO.N,Net-(D3-Pad1)*
X172085000Y-104140000D03*
D11*
G04 #@! TO.P,D3,2*
G04 #@! TO.N,+3V3*
X174625000Y-104140000D03*
G04 #@! TD*
D15*
G04 #@! TO.P,D2,1*
G04 #@! TO.N,Net-(D2-Pad1)*
X161925000Y-104140000D03*
D11*
G04 #@! TO.P,D2,2*
G04 #@! TO.N,Net-(D2-Pad2)*
X164465000Y-104140000D03*
G04 #@! TD*
D13*
G04 #@! TO.P,R1,1*
G04 #@! TO.N,GND*
X150876000Y-102108000D03*
D14*
G04 #@! TO.P,R1,2*
G04 #@! TO.N,Net-(D2-Pad2)*
X158496000Y-102108000D03*
G04 #@! TD*
D17*
G04 #@! TO.P,J2,1*
G04 #@! TO.N,GND*
X168910000Y-77470000D03*
D18*
G04 #@! TO.P,J2,2*
G04 #@! TO.N,+12V*
X168910000Y-72470000D03*
G04 #@! TD*
D17*
G04 #@! TO.P,J1,1*
G04 #@! TO.N,Net-(D1-Pad2)*
X168910000Y-67310000D03*
D18*
G04 #@! TO.P,J1,2*
G04 #@! TO.N,+12V*
X168910000Y-62310000D03*
G04 #@! TD*
D13*
G04 #@! TO.P,R2,1*
G04 #@! TO.N,GND*
X139954000Y-102108000D03*
D14*
G04 #@! TO.P,R2,2*
G04 #@! TO.N,Net-(D2-Pad1)*
X147574000Y-102108000D03*
G04 #@! TD*
D13*
G04 #@! TO.P,R4,1*
G04 #@! TO.N,GND*
X150876000Y-105410000D03*
D14*
G04 #@! TO.P,R4,2*
G04 #@! TO.N,Net-(D4-Pad1)*
X158496000Y-105410000D03*
G04 #@! TD*
D17*
G04 #@! TO.P,J3,1*
G04 #@! TO.N,Net-(J3-Pad1)*
X168910000Y-87630000D03*
D18*
G04 #@! TO.P,J3,2*
G04 #@! TO.N,GND*
X168910000Y-82630000D03*
G04 #@! TD*
D13*
G04 #@! TO.P,R5,1*
G04 #@! TO.N,Net-(J3-Pad1)*
X136652000Y-102108000D03*
D14*
G04 #@! TO.P,R5,2*
G04 #@! TO.N,+3V3*
X129032000Y-102108000D03*
G04 #@! TD*
D13*
G04 #@! TO.P,R6,1*
G04 #@! TO.N,+3V3*
X136652000Y-105410000D03*
D14*
G04 #@! TO.P,R6,2*
G04 #@! TO.N,Net-(R6-Pad2)*
X129032000Y-105410000D03*
G04 #@! TD*
D19*
G04 #@! TO.N,Net-(D2-Pad2)*
X158496000Y-102235000D02*
X162560000Y-102235000D01*
X164465000Y-104140000D02*
X164465000Y-103251000D01*
X163449000Y-102235000D02*
X162560000Y-102235000D01*
X164465000Y-103251000D02*
X163449000Y-102235000D01*
X148590000Y-99697792D02*
X149222208Y-100330000D01*
X148590000Y-98425000D02*
X148590000Y-99697792D01*
X156591000Y-100330000D02*
X158496000Y-102235000D01*
X149222208Y-100330000D02*
X156591000Y-100330000D01*
X148590000Y-93980000D02*
X148590000Y-98425000D01*
X151130000Y-91440000D02*
X148590000Y-93980000D01*
X153670000Y-91440000D02*
X151130000Y-91440000D01*
G04 #@! TO.N,Net-(D4-Pad1)*
X167005000Y-105540000D02*
X167005000Y-104140000D01*
X165865000Y-106680000D02*
X167005000Y-105540000D01*
X158496000Y-105410000D02*
X159766000Y-106680000D01*
X159766000Y-106680000D02*
X165865000Y-106680000D01*
G04 #@! TO.N,Net-(R6-Pad2)*
X140970000Y-75565000D02*
X147447000Y-82042000D01*
X155067000Y-82042000D02*
X170180000Y-97155000D01*
X147447000Y-82042000D02*
X155067000Y-82042000D01*
G04 #@! TD*
D20*
G04 #@! TO.N,GND*
G36*
X127892560Y-59325000D02*
X127892560Y-63325000D01*
X127941843Y-63572765D01*
X128082191Y-63782809D01*
X128292235Y-63923157D01*
X128540000Y-63972440D01*
X130540000Y-63972440D01*
X130787765Y-63923157D01*
X130997809Y-63782809D01*
X131138157Y-63572765D01*
X131187440Y-63325000D01*
X131187440Y-59325000D01*
X131158995Y-59182000D01*
X148241005Y-59182000D01*
X148212560Y-59325000D01*
X148212560Y-63325000D01*
X148261843Y-63572765D01*
X148402191Y-63782809D01*
X148612235Y-63923157D01*
X148860000Y-63972440D01*
X150860000Y-63972440D01*
X151107765Y-63923157D01*
X151317809Y-63782809D01*
X151458157Y-63572765D01*
X151507440Y-63325000D01*
X151507440Y-60060000D01*
X155932560Y-60060000D01*
X155932560Y-61860000D01*
X155981843Y-62107765D01*
X156122191Y-62317809D01*
X156332235Y-62458157D01*
X156580000Y-62507440D01*
X158380000Y-62507440D01*
X158627765Y-62458157D01*
X158837809Y-62317809D01*
X158843026Y-62310000D01*
X166263165Y-62310000D01*
X166389284Y-62944043D01*
X166748441Y-63481559D01*
X167285957Y-63840716D01*
X167759955Y-63935000D01*
X170060045Y-63935000D01*
X170534043Y-63840716D01*
X171071559Y-63481559D01*
X171430716Y-62944043D01*
X171556835Y-62310000D01*
X171430716Y-61675957D01*
X171071559Y-61138441D01*
X170534043Y-60779284D01*
X170060045Y-60685000D01*
X167759955Y-60685000D01*
X167285957Y-60779284D01*
X166748441Y-61138441D01*
X166389284Y-61675957D01*
X166263165Y-62310000D01*
X158843026Y-62310000D01*
X158978157Y-62107765D01*
X159027440Y-61860000D01*
X159027440Y-60060000D01*
X158978157Y-59812235D01*
X158837809Y-59602191D01*
X158627765Y-59461843D01*
X158380000Y-59412560D01*
X156580000Y-59412560D01*
X156332235Y-59461843D01*
X156122191Y-59602191D01*
X155981843Y-59812235D01*
X155932560Y-60060000D01*
X151507440Y-60060000D01*
X151507440Y-59325000D01*
X151478995Y-59182000D01*
X174937521Y-59182000D01*
X174958364Y-59184985D01*
X175264928Y-59324372D01*
X175520050Y-59544199D01*
X175703218Y-59826792D01*
X175768000Y-60043410D01*
X175768000Y-103112183D01*
X175494507Y-102838690D01*
X174930330Y-102605000D01*
X174319670Y-102605000D01*
X173755493Y-102838690D01*
X173586275Y-103007908D01*
X173583157Y-102992235D01*
X173442809Y-102782191D01*
X173232765Y-102641843D01*
X172985000Y-102592560D01*
X171185000Y-102592560D01*
X170937235Y-102641843D01*
X170727191Y-102782191D01*
X170586843Y-102992235D01*
X170583725Y-103007908D01*
X170414507Y-102838690D01*
X169850330Y-102605000D01*
X169239670Y-102605000D01*
X168675493Y-102838690D01*
X168506275Y-103007908D01*
X168503157Y-102992235D01*
X168362809Y-102782191D01*
X168152765Y-102641843D01*
X167905000Y-102592560D01*
X166105000Y-102592560D01*
X165857235Y-102641843D01*
X165647191Y-102782191D01*
X165506843Y-102992235D01*
X165503725Y-103007908D01*
X165334507Y-102838690D01*
X165223031Y-102792515D01*
X165152424Y-102686845D01*
X165152423Y-102686844D01*
X165103049Y-102612951D01*
X165029156Y-102563577D01*
X164136425Y-101670847D01*
X164087049Y-101596951D01*
X163794310Y-101401348D01*
X163536165Y-101350000D01*
X163536161Y-101350000D01*
X163449000Y-101332663D01*
X163361839Y-101350000D01*
X159715380Y-101350000D01*
X159530577Y-101073423D01*
X159055909Y-100756260D01*
X158637333Y-100673000D01*
X158354667Y-100673000D01*
X158213632Y-100701054D01*
X157278425Y-99765847D01*
X157229049Y-99691951D01*
X156936310Y-99496348D01*
X156678165Y-99445000D01*
X156678161Y-99445000D01*
X156591000Y-99427663D01*
X156503839Y-99445000D01*
X154820817Y-99445000D01*
X154971310Y-99294507D01*
X155205000Y-98730330D01*
X155205000Y-98307532D01*
X166159073Y-98307532D01*
X166257736Y-98574387D01*
X166867461Y-98800908D01*
X167517460Y-98776856D01*
X168006264Y-98574387D01*
X168104927Y-98307532D01*
X167132000Y-97334605D01*
X166159073Y-98307532D01*
X155205000Y-98307532D01*
X155205000Y-98119670D01*
X154971310Y-97555493D01*
X154539507Y-97123690D01*
X153976443Y-96890461D01*
X165486092Y-96890461D01*
X165510144Y-97540460D01*
X165712613Y-98029264D01*
X165979468Y-98127927D01*
X166952395Y-97155000D01*
X165979468Y-96182073D01*
X165712613Y-96280736D01*
X165486092Y-96890461D01*
X153976443Y-96890461D01*
X153975330Y-96890000D01*
X153364670Y-96890000D01*
X152800493Y-97123690D01*
X152400000Y-97524183D01*
X151999507Y-97123690D01*
X151435330Y-96890000D01*
X150824670Y-96890000D01*
X150260493Y-97123690D01*
X149860000Y-97524183D01*
X149475000Y-97139183D01*
X149475000Y-94346578D01*
X151496579Y-92325000D01*
X152266868Y-92325000D01*
X152283914Y-92366153D01*
X152743847Y-92826086D01*
X153344778Y-93075000D01*
X153995222Y-93075000D01*
X154596153Y-92826086D01*
X155056086Y-92366153D01*
X155305000Y-91765222D01*
X155305000Y-91114778D01*
X155056086Y-90513847D01*
X154712239Y-90170000D01*
X155056086Y-89826153D01*
X155305000Y-89225222D01*
X155305000Y-88574778D01*
X155056086Y-87973847D01*
X154629928Y-87547689D01*
X154642927Y-87512532D01*
X153670000Y-86539605D01*
X152697073Y-87512532D01*
X152710072Y-87547689D01*
X152283914Y-87973847D01*
X152035000Y-88574778D01*
X152035000Y-89225222D01*
X152283914Y-89826153D01*
X152627761Y-90170000D01*
X152283914Y-90513847D01*
X152266868Y-90555000D01*
X151217159Y-90555000D01*
X151129999Y-90537663D01*
X151042839Y-90555000D01*
X151042835Y-90555000D01*
X150784690Y-90606348D01*
X150784688Y-90606349D01*
X150784689Y-90606349D01*
X150565845Y-90752576D01*
X150565844Y-90752577D01*
X150491951Y-90801951D01*
X150442577Y-90875844D01*
X148025847Y-93292575D01*
X147951951Y-93341951D01*
X147756348Y-93634691D01*
X147705000Y-93892836D01*
X147705000Y-93892839D01*
X147687663Y-93980000D01*
X147705000Y-94067161D01*
X147705001Y-97139182D01*
X147320000Y-97524183D01*
X146919507Y-97123690D01*
X146355330Y-96890000D01*
X145744670Y-96890000D01*
X145180493Y-97123690D01*
X144780000Y-97524183D01*
X144379507Y-97123690D01*
X143815330Y-96890000D01*
X143204670Y-96890000D01*
X142640493Y-97123690D01*
X142240000Y-97524183D01*
X141839507Y-97123690D01*
X141275330Y-96890000D01*
X140664670Y-96890000D01*
X140100493Y-97123690D01*
X139668690Y-97555493D01*
X139660562Y-97575115D01*
X139510159Y-97524446D01*
X138609605Y-98425000D01*
X139510159Y-99325554D01*
X139660562Y-99274885D01*
X139668690Y-99294507D01*
X140100493Y-99726310D01*
X140664670Y-99960000D01*
X141275330Y-99960000D01*
X141839507Y-99726310D01*
X142240000Y-99325817D01*
X142640493Y-99726310D01*
X143204670Y-99960000D01*
X143815330Y-99960000D01*
X144379507Y-99726310D01*
X144780000Y-99325817D01*
X145180493Y-99726310D01*
X145744670Y-99960000D01*
X146355330Y-99960000D01*
X146919507Y-99726310D01*
X147320000Y-99325817D01*
X147688378Y-99694195D01*
X147687663Y-99697792D01*
X147756348Y-100043101D01*
X147902576Y-100261946D01*
X147902578Y-100261948D01*
X147951952Y-100335841D01*
X148025844Y-100385215D01*
X148534785Y-100894156D01*
X148584159Y-100968049D01*
X148658052Y-101017423D01*
X148658053Y-101017424D01*
X148741861Y-101073423D01*
X148876898Y-101163652D01*
X149135043Y-101215000D01*
X149135047Y-101215000D01*
X149222207Y-101232337D01*
X149309367Y-101215000D01*
X149803392Y-101215000D01*
X149868253Y-101279861D01*
X149622136Y-101353995D01*
X149429035Y-101891223D01*
X149456222Y-102461454D01*
X149622136Y-102862005D01*
X149868255Y-102936139D01*
X150696395Y-102108000D01*
X150682252Y-102093858D01*
X150861858Y-101914252D01*
X150876000Y-101928395D01*
X150890142Y-101914252D01*
X151069748Y-102093858D01*
X151055605Y-102108000D01*
X151883745Y-102936139D01*
X152129864Y-102862005D01*
X152322965Y-102324777D01*
X152295778Y-101754546D01*
X152129864Y-101353995D01*
X151883747Y-101279861D01*
X151948608Y-101215000D01*
X156224422Y-101215000D01*
X157046912Y-102037491D01*
X157032887Y-102108000D01*
X157144260Y-102667909D01*
X157461423Y-103142577D01*
X157936091Y-103459740D01*
X158354667Y-103543000D01*
X158637333Y-103543000D01*
X159055909Y-103459740D01*
X159530577Y-103142577D01*
X159545662Y-103120000D01*
X160401429Y-103120000D01*
X160377560Y-103240000D01*
X160377560Y-105040000D01*
X160426843Y-105287765D01*
X160567191Y-105497809D01*
X160777235Y-105638157D01*
X161025000Y-105687440D01*
X162825000Y-105687440D01*
X163072765Y-105638157D01*
X163282809Y-105497809D01*
X163423157Y-105287765D01*
X163426275Y-105272092D01*
X163595493Y-105441310D01*
X164159670Y-105675000D01*
X164770330Y-105675000D01*
X165334507Y-105441310D01*
X165503725Y-105272092D01*
X165506843Y-105287765D01*
X165647191Y-105497809D01*
X165736163Y-105557259D01*
X165498422Y-105795000D01*
X160132579Y-105795000D01*
X159924017Y-105586439D01*
X159959113Y-105410000D01*
X159847740Y-104850091D01*
X159530577Y-104375423D01*
X159055909Y-104058260D01*
X158637333Y-103975000D01*
X158354667Y-103975000D01*
X157936091Y-104058260D01*
X157461423Y-104375423D01*
X157144260Y-104850091D01*
X157032887Y-105410000D01*
X157144260Y-105969909D01*
X157461423Y-106444577D01*
X157936091Y-106761740D01*
X158354667Y-106845000D01*
X158637333Y-106845000D01*
X158672438Y-106838017D01*
X159022421Y-107188000D01*
X127322479Y-107188000D01*
X127301636Y-107185015D01*
X126995072Y-107045628D01*
X126739953Y-106825804D01*
X126556782Y-106543207D01*
X126492000Y-106326591D01*
X126492000Y-105410000D01*
X127568887Y-105410000D01*
X127680260Y-105969909D01*
X127997423Y-106444577D01*
X128472091Y-106761740D01*
X128890667Y-106845000D01*
X129173333Y-106845000D01*
X129591909Y-106761740D01*
X130066577Y-106444577D01*
X130383740Y-105969909D01*
X130495113Y-105410000D01*
X130438336Y-105124561D01*
X135217000Y-105124561D01*
X135217000Y-105695439D01*
X135435466Y-106222862D01*
X135839138Y-106626534D01*
X136366561Y-106845000D01*
X136937439Y-106845000D01*
X137464862Y-106626534D01*
X137868534Y-106222862D01*
X138060655Y-105759039D01*
X138562096Y-105759039D01*
X138722959Y-106147423D01*
X139098866Y-106562389D01*
X139604959Y-106801914D01*
X139827000Y-106680629D01*
X139827000Y-105537000D01*
X140081000Y-105537000D01*
X140081000Y-106680629D01*
X140303041Y-106801914D01*
X140809134Y-106562389D01*
X141185041Y-106147423D01*
X141345904Y-105759039D01*
X141223915Y-105537000D01*
X140081000Y-105537000D01*
X139827000Y-105537000D01*
X138684085Y-105537000D01*
X138562096Y-105759039D01*
X138060655Y-105759039D01*
X138087000Y-105695439D01*
X138087000Y-105124561D01*
X138060656Y-105060961D01*
X138562096Y-105060961D01*
X138684085Y-105283000D01*
X139827000Y-105283000D01*
X139827000Y-104139371D01*
X140081000Y-104139371D01*
X140081000Y-105283000D01*
X141223915Y-105283000D01*
X141310961Y-105124561D01*
X146139000Y-105124561D01*
X146139000Y-105695439D01*
X146357466Y-106222862D01*
X146761138Y-106626534D01*
X147288561Y-106845000D01*
X147859439Y-106845000D01*
X148386862Y-106626534D01*
X148595651Y-106417745D01*
X150047861Y-106417745D01*
X150121995Y-106663864D01*
X150659223Y-106856965D01*
X151229454Y-106829778D01*
X151630005Y-106663864D01*
X151704139Y-106417745D01*
X150876000Y-105589605D01*
X150047861Y-106417745D01*
X148595651Y-106417745D01*
X148790534Y-106222862D01*
X149009000Y-105695439D01*
X149009000Y-105193223D01*
X149429035Y-105193223D01*
X149456222Y-105763454D01*
X149622136Y-106164005D01*
X149868255Y-106238139D01*
X150696395Y-105410000D01*
X151055605Y-105410000D01*
X151883745Y-106238139D01*
X152129864Y-106164005D01*
X152322965Y-105626777D01*
X152295778Y-105056546D01*
X152129864Y-104655995D01*
X151883745Y-104581861D01*
X151055605Y-105410000D01*
X150696395Y-105410000D01*
X149868255Y-104581861D01*
X149622136Y-104655995D01*
X149429035Y-105193223D01*
X149009000Y-105193223D01*
X149009000Y-105124561D01*
X148790534Y-104597138D01*
X148595651Y-104402255D01*
X150047861Y-104402255D01*
X150876000Y-105230395D01*
X151704139Y-104402255D01*
X151630005Y-104156136D01*
X151092777Y-103963035D01*
X150522546Y-103990222D01*
X150121995Y-104156136D01*
X150047861Y-104402255D01*
X148595651Y-104402255D01*
X148386862Y-104193466D01*
X147859439Y-103975000D01*
X147288561Y-103975000D01*
X146761138Y-104193466D01*
X146357466Y-104597138D01*
X146139000Y-105124561D01*
X141310961Y-105124561D01*
X141345904Y-105060961D01*
X141185041Y-104672577D01*
X140809134Y-104257611D01*
X140303041Y-104018086D01*
X140081000Y-104139371D01*
X139827000Y-104139371D01*
X139604959Y-104018086D01*
X139098866Y-104257611D01*
X138722959Y-104672577D01*
X138562096Y-105060961D01*
X138060656Y-105060961D01*
X137868534Y-104597138D01*
X137464862Y-104193466D01*
X136937439Y-103975000D01*
X136366561Y-103975000D01*
X135839138Y-104193466D01*
X135435466Y-104597138D01*
X135217000Y-105124561D01*
X130438336Y-105124561D01*
X130383740Y-104850091D01*
X130066577Y-104375423D01*
X129591909Y-104058260D01*
X129173333Y-103975000D01*
X128890667Y-103975000D01*
X128472091Y-104058260D01*
X127997423Y-104375423D01*
X127680260Y-104850091D01*
X127568887Y-105410000D01*
X126492000Y-105410000D01*
X126492000Y-102108000D01*
X127568887Y-102108000D01*
X127680260Y-102667909D01*
X127997423Y-103142577D01*
X128472091Y-103459740D01*
X128890667Y-103543000D01*
X129173333Y-103543000D01*
X129591909Y-103459740D01*
X130066577Y-103142577D01*
X130383740Y-102667909D01*
X130495113Y-102108000D01*
X130438336Y-101822561D01*
X135217000Y-101822561D01*
X135217000Y-102393439D01*
X135435466Y-102920862D01*
X135839138Y-103324534D01*
X136366561Y-103543000D01*
X136937439Y-103543000D01*
X137464862Y-103324534D01*
X137673651Y-103115745D01*
X139125861Y-103115745D01*
X139199995Y-103361864D01*
X139737223Y-103554965D01*
X140307454Y-103527778D01*
X140708005Y-103361864D01*
X140782139Y-103115745D01*
X139954000Y-102287605D01*
X139125861Y-103115745D01*
X137673651Y-103115745D01*
X137868534Y-102920862D01*
X138087000Y-102393439D01*
X138087000Y-101891223D01*
X138507035Y-101891223D01*
X138534222Y-102461454D01*
X138700136Y-102862005D01*
X138946255Y-102936139D01*
X139774395Y-102108000D01*
X140133605Y-102108000D01*
X140961745Y-102936139D01*
X141207864Y-102862005D01*
X141400965Y-102324777D01*
X141390630Y-102108000D01*
X146110887Y-102108000D01*
X146222260Y-102667909D01*
X146539423Y-103142577D01*
X147014091Y-103459740D01*
X147432667Y-103543000D01*
X147715333Y-103543000D01*
X148133909Y-103459740D01*
X148608577Y-103142577D01*
X148626505Y-103115745D01*
X150047861Y-103115745D01*
X150121995Y-103361864D01*
X150659223Y-103554965D01*
X151229454Y-103527778D01*
X151630005Y-103361864D01*
X151704139Y-103115745D01*
X150876000Y-102287605D01*
X150047861Y-103115745D01*
X148626505Y-103115745D01*
X148925740Y-102667909D01*
X149037113Y-102108000D01*
X148925740Y-101548091D01*
X148608577Y-101073423D01*
X148133909Y-100756260D01*
X147715333Y-100673000D01*
X147432667Y-100673000D01*
X147014091Y-100756260D01*
X146539423Y-101073423D01*
X146222260Y-101548091D01*
X146110887Y-102108000D01*
X141390630Y-102108000D01*
X141373778Y-101754546D01*
X141207864Y-101353995D01*
X140961745Y-101279861D01*
X140133605Y-102108000D01*
X139774395Y-102108000D01*
X138946255Y-101279861D01*
X138700136Y-101353995D01*
X138507035Y-101891223D01*
X138087000Y-101891223D01*
X138087000Y-101822561D01*
X137868534Y-101295138D01*
X137673651Y-101100255D01*
X139125861Y-101100255D01*
X139954000Y-101928395D01*
X140782139Y-101100255D01*
X140708005Y-100854136D01*
X140170777Y-100661035D01*
X139600546Y-100688222D01*
X139199995Y-100854136D01*
X139125861Y-101100255D01*
X137673651Y-101100255D01*
X137464862Y-100891466D01*
X136937439Y-100673000D01*
X136366561Y-100673000D01*
X135839138Y-100891466D01*
X135435466Y-101295138D01*
X135217000Y-101822561D01*
X130438336Y-101822561D01*
X130383740Y-101548091D01*
X130066577Y-101073423D01*
X129591909Y-100756260D01*
X129173333Y-100673000D01*
X128890667Y-100673000D01*
X128472091Y-100756260D01*
X127997423Y-101073423D01*
X127680260Y-101548091D01*
X127568887Y-102108000D01*
X126492000Y-102108000D01*
X126492000Y-98119670D01*
X134355000Y-98119670D01*
X134355000Y-98730330D01*
X134588690Y-99294507D01*
X135020493Y-99726310D01*
X135584670Y-99960000D01*
X136195330Y-99960000D01*
X136759507Y-99726310D01*
X136980658Y-99505159D01*
X137529446Y-99505159D01*
X137615852Y-99761643D01*
X138189336Y-99971458D01*
X138799460Y-99945839D01*
X139244148Y-99761643D01*
X139330554Y-99505159D01*
X138430000Y-98604605D01*
X137529446Y-99505159D01*
X136980658Y-99505159D01*
X137191310Y-99294507D01*
X137199438Y-99274885D01*
X137349841Y-99325554D01*
X138250395Y-98425000D01*
X137349841Y-97524446D01*
X137199438Y-97575115D01*
X137191310Y-97555493D01*
X136980658Y-97344841D01*
X137529446Y-97344841D01*
X138430000Y-98245395D01*
X139330554Y-97344841D01*
X139244148Y-97088357D01*
X138670664Y-96878542D01*
X138060540Y-96904161D01*
X137615852Y-97088357D01*
X137529446Y-97344841D01*
X136980658Y-97344841D01*
X136759507Y-97123690D01*
X136195330Y-96890000D01*
X135584670Y-96890000D01*
X135020493Y-97123690D01*
X134588690Y-97555493D01*
X134355000Y-98119670D01*
X126492000Y-98119670D01*
X126492000Y-86095461D01*
X152024092Y-86095461D01*
X152048144Y-86745460D01*
X152250613Y-87234264D01*
X152517468Y-87332927D01*
X153490395Y-86360000D01*
X153849605Y-86360000D01*
X154822532Y-87332927D01*
X155089387Y-87234264D01*
X155315908Y-86624539D01*
X155291856Y-85974540D01*
X155089387Y-85485736D01*
X154822532Y-85387073D01*
X153849605Y-86360000D01*
X153490395Y-86360000D01*
X152517468Y-85387073D01*
X152250613Y-85485736D01*
X152024092Y-86095461D01*
X126492000Y-86095461D01*
X126492000Y-85207468D01*
X152697073Y-85207468D01*
X153670000Y-86180395D01*
X154642927Y-85207468D01*
X154544264Y-84940613D01*
X153934539Y-84714092D01*
X153284540Y-84738144D01*
X152795736Y-84940613D01*
X152697073Y-85207468D01*
X126492000Y-85207468D01*
X126492000Y-75259670D01*
X134355000Y-75259670D01*
X134355000Y-75870330D01*
X134588690Y-76434507D01*
X135020493Y-76866310D01*
X135584670Y-77100000D01*
X136195330Y-77100000D01*
X136759507Y-76866310D01*
X137160000Y-76465817D01*
X137560493Y-76866310D01*
X138124670Y-77100000D01*
X138735330Y-77100000D01*
X139299507Y-76866310D01*
X139700000Y-76465817D01*
X140100493Y-76866310D01*
X140664670Y-77100000D01*
X141253422Y-77100000D01*
X146759577Y-82606156D01*
X146808951Y-82680049D01*
X146882844Y-82729423D01*
X146882845Y-82729424D01*
X146993880Y-82803615D01*
X147101690Y-82875652D01*
X147359835Y-82927000D01*
X147359839Y-82927000D01*
X147446999Y-82944337D01*
X147534159Y-82927000D01*
X154700422Y-82927000D01*
X167286582Y-95513161D01*
X166746540Y-95533144D01*
X166257736Y-95735613D01*
X166159073Y-96002468D01*
X167132000Y-96975395D01*
X167146143Y-96961253D01*
X167325748Y-97140858D01*
X167311605Y-97155000D01*
X168284532Y-98127927D01*
X168551387Y-98029264D01*
X168655898Y-97747953D01*
X168793914Y-98081153D01*
X169253847Y-98541086D01*
X169854778Y-98790000D01*
X170505222Y-98790000D01*
X171106153Y-98541086D01*
X171566086Y-98081153D01*
X171704000Y-97748199D01*
X171841914Y-98081153D01*
X172301847Y-98541086D01*
X172902778Y-98790000D01*
X173553222Y-98790000D01*
X174154153Y-98541086D01*
X174614086Y-98081153D01*
X174863000Y-97480222D01*
X174863000Y-96829778D01*
X174614086Y-96228847D01*
X174154153Y-95768914D01*
X173553222Y-95520000D01*
X172902778Y-95520000D01*
X172301847Y-95768914D01*
X171841914Y-96228847D01*
X171704000Y-96561801D01*
X171566086Y-96228847D01*
X171106153Y-95768914D01*
X170505222Y-95520000D01*
X169854778Y-95520000D01*
X169813625Y-95537046D01*
X160916579Y-86640000D01*
X166282560Y-86640000D01*
X166282560Y-88620000D01*
X166331843Y-88867765D01*
X166472191Y-89077809D01*
X166682235Y-89218157D01*
X166930000Y-89267440D01*
X170890000Y-89267440D01*
X171137765Y-89218157D01*
X171347809Y-89077809D01*
X171488157Y-88867765D01*
X171537440Y-88620000D01*
X171537440Y-86640000D01*
X171488157Y-86392235D01*
X171347809Y-86182191D01*
X171137765Y-86041843D01*
X170890000Y-85992560D01*
X166930000Y-85992560D01*
X166682235Y-86041843D01*
X166472191Y-86182191D01*
X166331843Y-86392235D01*
X166282560Y-86640000D01*
X160916579Y-86640000D01*
X157285444Y-83008865D01*
X166339782Y-83008865D01*
X166370095Y-83134528D01*
X166681149Y-83689246D01*
X167180807Y-84082703D01*
X167793000Y-84255000D01*
X168783000Y-84255000D01*
X168783000Y-82757000D01*
X169037000Y-82757000D01*
X169037000Y-84255000D01*
X170027000Y-84255000D01*
X170639193Y-84082703D01*
X171138851Y-83689246D01*
X171449905Y-83134528D01*
X171480218Y-83008865D01*
X171360740Y-82757000D01*
X169037000Y-82757000D01*
X168783000Y-82757000D01*
X166459260Y-82757000D01*
X166339782Y-83008865D01*
X157285444Y-83008865D01*
X156527714Y-82251135D01*
X166339782Y-82251135D01*
X166459260Y-82503000D01*
X168783000Y-82503000D01*
X168783000Y-81005000D01*
X169037000Y-81005000D01*
X169037000Y-82503000D01*
X171360740Y-82503000D01*
X171480218Y-82251135D01*
X171449905Y-82125472D01*
X171138851Y-81570754D01*
X170639193Y-81177297D01*
X170027000Y-81005000D01*
X169037000Y-81005000D01*
X168783000Y-81005000D01*
X167793000Y-81005000D01*
X167180807Y-81177297D01*
X166681149Y-81570754D01*
X166370095Y-82125472D01*
X166339782Y-82251135D01*
X156527714Y-82251135D01*
X155754425Y-81477847D01*
X155705049Y-81403951D01*
X155412310Y-81208348D01*
X155154165Y-81157000D01*
X155154161Y-81157000D01*
X155067000Y-81139663D01*
X154979839Y-81157000D01*
X147813579Y-81157000D01*
X144412329Y-77755750D01*
X166295000Y-77755750D01*
X166295000Y-78586309D01*
X166391673Y-78819698D01*
X166570301Y-78998327D01*
X166803690Y-79095000D01*
X168624250Y-79095000D01*
X168783000Y-78936250D01*
X168783000Y-77597000D01*
X169037000Y-77597000D01*
X169037000Y-78936250D01*
X169195750Y-79095000D01*
X171016310Y-79095000D01*
X171249699Y-78998327D01*
X171428327Y-78819698D01*
X171525000Y-78586309D01*
X171525000Y-77755750D01*
X171366250Y-77597000D01*
X169037000Y-77597000D01*
X168783000Y-77597000D01*
X166453750Y-77597000D01*
X166295000Y-77755750D01*
X144412329Y-77755750D01*
X143756578Y-77100000D01*
X143815330Y-77100000D01*
X144379507Y-76866310D01*
X144780000Y-76465817D01*
X145180493Y-76866310D01*
X145744670Y-77100000D01*
X146355330Y-77100000D01*
X146919507Y-76866310D01*
X147320000Y-76465817D01*
X147720493Y-76866310D01*
X148284670Y-77100000D01*
X148895330Y-77100000D01*
X149459507Y-76866310D01*
X149860000Y-76465817D01*
X150260493Y-76866310D01*
X150824670Y-77100000D01*
X151435330Y-77100000D01*
X151999507Y-76866310D01*
X152400000Y-76465817D01*
X152800493Y-76866310D01*
X153364670Y-77100000D01*
X153975330Y-77100000D01*
X154539507Y-76866310D01*
X154971310Y-76434507D01*
X155004785Y-76353691D01*
X166295000Y-76353691D01*
X166295000Y-77184250D01*
X166453750Y-77343000D01*
X168783000Y-77343000D01*
X168783000Y-76003750D01*
X169037000Y-76003750D01*
X169037000Y-77343000D01*
X171366250Y-77343000D01*
X171525000Y-77184250D01*
X171525000Y-76353691D01*
X171428327Y-76120302D01*
X171249699Y-75941673D01*
X171016310Y-75845000D01*
X169195750Y-75845000D01*
X169037000Y-76003750D01*
X168783000Y-76003750D01*
X168624250Y-75845000D01*
X166803690Y-75845000D01*
X166570301Y-75941673D01*
X166391673Y-76120302D01*
X166295000Y-76353691D01*
X155004785Y-76353691D01*
X155205000Y-75870330D01*
X155205000Y-75259670D01*
X154971310Y-74695493D01*
X154539507Y-74263690D01*
X153975330Y-74030000D01*
X153364670Y-74030000D01*
X152800493Y-74263690D01*
X152400000Y-74664183D01*
X151999507Y-74263690D01*
X151435330Y-74030000D01*
X150824670Y-74030000D01*
X150260493Y-74263690D01*
X149860000Y-74664183D01*
X149459507Y-74263690D01*
X148895330Y-74030000D01*
X148284670Y-74030000D01*
X147720493Y-74263690D01*
X147320000Y-74664183D01*
X146919507Y-74263690D01*
X146355330Y-74030000D01*
X145744670Y-74030000D01*
X145180493Y-74263690D01*
X144780000Y-74664183D01*
X144379507Y-74263690D01*
X143815330Y-74030000D01*
X143204670Y-74030000D01*
X142640493Y-74263690D01*
X142240000Y-74664183D01*
X141839507Y-74263690D01*
X141275330Y-74030000D01*
X140664670Y-74030000D01*
X140100493Y-74263690D01*
X139700000Y-74664183D01*
X139299507Y-74263690D01*
X138735330Y-74030000D01*
X138124670Y-74030000D01*
X137560493Y-74263690D01*
X137160000Y-74664183D01*
X136759507Y-74263690D01*
X136195330Y-74030000D01*
X135584670Y-74030000D01*
X135020493Y-74263690D01*
X134588690Y-74695493D01*
X134355000Y-75259670D01*
X126492000Y-75259670D01*
X126492000Y-70913750D01*
X127905000Y-70913750D01*
X127905000Y-72754310D01*
X128001673Y-72987699D01*
X128180302Y-73166327D01*
X128413691Y-73263000D01*
X129254250Y-73263000D01*
X129413000Y-73104250D01*
X129413000Y-70755000D01*
X129667000Y-70755000D01*
X129667000Y-73104250D01*
X129825750Y-73263000D01*
X130666309Y-73263000D01*
X130899698Y-73166327D01*
X131078327Y-72987699D01*
X131175000Y-72754310D01*
X131175000Y-71040750D01*
X148225000Y-71040750D01*
X148225000Y-72881310D01*
X148321673Y-73114699D01*
X148500302Y-73293327D01*
X148733691Y-73390000D01*
X149574250Y-73390000D01*
X149733000Y-73231250D01*
X149733000Y-70882000D01*
X149987000Y-70882000D01*
X149987000Y-73231250D01*
X150145750Y-73390000D01*
X150986309Y-73390000D01*
X151219698Y-73293327D01*
X151398327Y-73114699D01*
X151495000Y-72881310D01*
X151495000Y-72470000D01*
X166263165Y-72470000D01*
X166389284Y-73104043D01*
X166748441Y-73641559D01*
X167285957Y-74000716D01*
X167759955Y-74095000D01*
X170060045Y-74095000D01*
X170534043Y-74000716D01*
X171071559Y-73641559D01*
X171430716Y-73104043D01*
X171556835Y-72470000D01*
X171430716Y-71835957D01*
X171071559Y-71298441D01*
X170534043Y-70939284D01*
X170060045Y-70845000D01*
X167759955Y-70845000D01*
X167285957Y-70939284D01*
X166748441Y-71298441D01*
X166389284Y-71835957D01*
X166263165Y-72470000D01*
X151495000Y-72470000D01*
X151495000Y-71040750D01*
X151336250Y-70882000D01*
X149987000Y-70882000D01*
X149733000Y-70882000D01*
X148383750Y-70882000D01*
X148225000Y-71040750D01*
X131175000Y-71040750D01*
X131175000Y-70913750D01*
X131016250Y-70755000D01*
X129667000Y-70755000D01*
X129413000Y-70755000D01*
X128063750Y-70755000D01*
X127905000Y-70913750D01*
X126492000Y-70913750D01*
X126492000Y-68501690D01*
X127905000Y-68501690D01*
X127905000Y-70342250D01*
X128063750Y-70501000D01*
X129413000Y-70501000D01*
X129413000Y-68151750D01*
X129667000Y-68151750D01*
X129667000Y-70501000D01*
X131016250Y-70501000D01*
X131175000Y-70342250D01*
X131175000Y-68628690D01*
X148225000Y-68628690D01*
X148225000Y-70469250D01*
X148383750Y-70628000D01*
X149733000Y-70628000D01*
X149733000Y-68278750D01*
X149987000Y-68278750D01*
X149987000Y-70628000D01*
X151336250Y-70628000D01*
X151495000Y-70469250D01*
X151495000Y-68628690D01*
X151474832Y-68580000D01*
X155914928Y-68580000D01*
X156034062Y-69178927D01*
X156373327Y-69686673D01*
X156881073Y-70025938D01*
X157328818Y-70115000D01*
X157631182Y-70115000D01*
X158078927Y-70025938D01*
X158586673Y-69686673D01*
X158925938Y-69178927D01*
X159045072Y-68580000D01*
X158925938Y-67981073D01*
X158586673Y-67473327D01*
X158078927Y-67134062D01*
X157631182Y-67045000D01*
X157328818Y-67045000D01*
X156881073Y-67134062D01*
X156373327Y-67473327D01*
X156034062Y-67981073D01*
X155914928Y-68580000D01*
X151474832Y-68580000D01*
X151398327Y-68395301D01*
X151219698Y-68216673D01*
X150986309Y-68120000D01*
X150145750Y-68120000D01*
X149987000Y-68278750D01*
X149733000Y-68278750D01*
X149574250Y-68120000D01*
X148733691Y-68120000D01*
X148500302Y-68216673D01*
X148321673Y-68395301D01*
X148225000Y-68628690D01*
X131175000Y-68628690D01*
X131175000Y-68501690D01*
X131078327Y-68268301D01*
X130899698Y-68089673D01*
X130666309Y-67993000D01*
X129825750Y-67993000D01*
X129667000Y-68151750D01*
X129413000Y-68151750D01*
X129254250Y-67993000D01*
X128413691Y-67993000D01*
X128180302Y-68089673D01*
X128001673Y-68268301D01*
X127905000Y-68501690D01*
X126492000Y-68501690D01*
X126492000Y-66320000D01*
X166282560Y-66320000D01*
X166282560Y-68300000D01*
X166331843Y-68547765D01*
X166472191Y-68757809D01*
X166682235Y-68898157D01*
X166930000Y-68947440D01*
X170890000Y-68947440D01*
X171137765Y-68898157D01*
X171347809Y-68757809D01*
X171488157Y-68547765D01*
X171537440Y-68300000D01*
X171537440Y-66320000D01*
X171488157Y-66072235D01*
X171347809Y-65862191D01*
X171137765Y-65721843D01*
X170890000Y-65672560D01*
X166930000Y-65672560D01*
X166682235Y-65721843D01*
X166472191Y-65862191D01*
X166331843Y-66072235D01*
X166282560Y-66320000D01*
X126492000Y-66320000D01*
X126492000Y-60012479D01*
X126494985Y-59991636D01*
X126634372Y-59685072D01*
X126854199Y-59429950D01*
X127136792Y-59246782D01*
X127353410Y-59182000D01*
X127921005Y-59182000D01*
X127892560Y-59325000D01*
X127892560Y-59325000D01*
G37*
X127892560Y-59325000D02*
X127892560Y-63325000D01*
X127941843Y-63572765D01*
X128082191Y-63782809D01*
X128292235Y-63923157D01*
X128540000Y-63972440D01*
X130540000Y-63972440D01*
X130787765Y-63923157D01*
X130997809Y-63782809D01*
X131138157Y-63572765D01*
X131187440Y-63325000D01*
X131187440Y-59325000D01*
X131158995Y-59182000D01*
X148241005Y-59182000D01*
X148212560Y-59325000D01*
X148212560Y-63325000D01*
X148261843Y-63572765D01*
X148402191Y-63782809D01*
X148612235Y-63923157D01*
X148860000Y-63972440D01*
X150860000Y-63972440D01*
X151107765Y-63923157D01*
X151317809Y-63782809D01*
X151458157Y-63572765D01*
X151507440Y-63325000D01*
X151507440Y-60060000D01*
X155932560Y-60060000D01*
X155932560Y-61860000D01*
X155981843Y-62107765D01*
X156122191Y-62317809D01*
X156332235Y-62458157D01*
X156580000Y-62507440D01*
X158380000Y-62507440D01*
X158627765Y-62458157D01*
X158837809Y-62317809D01*
X158843026Y-62310000D01*
X166263165Y-62310000D01*
X166389284Y-62944043D01*
X166748441Y-63481559D01*
X167285957Y-63840716D01*
X167759955Y-63935000D01*
X170060045Y-63935000D01*
X170534043Y-63840716D01*
X171071559Y-63481559D01*
X171430716Y-62944043D01*
X171556835Y-62310000D01*
X171430716Y-61675957D01*
X171071559Y-61138441D01*
X170534043Y-60779284D01*
X170060045Y-60685000D01*
X167759955Y-60685000D01*
X167285957Y-60779284D01*
X166748441Y-61138441D01*
X166389284Y-61675957D01*
X166263165Y-62310000D01*
X158843026Y-62310000D01*
X158978157Y-62107765D01*
X159027440Y-61860000D01*
X159027440Y-60060000D01*
X158978157Y-59812235D01*
X158837809Y-59602191D01*
X158627765Y-59461843D01*
X158380000Y-59412560D01*
X156580000Y-59412560D01*
X156332235Y-59461843D01*
X156122191Y-59602191D01*
X155981843Y-59812235D01*
X155932560Y-60060000D01*
X151507440Y-60060000D01*
X151507440Y-59325000D01*
X151478995Y-59182000D01*
X174937521Y-59182000D01*
X174958364Y-59184985D01*
X175264928Y-59324372D01*
X175520050Y-59544199D01*
X175703218Y-59826792D01*
X175768000Y-60043410D01*
X175768000Y-103112183D01*
X175494507Y-102838690D01*
X174930330Y-102605000D01*
X174319670Y-102605000D01*
X173755493Y-102838690D01*
X173586275Y-103007908D01*
X173583157Y-102992235D01*
X173442809Y-102782191D01*
X173232765Y-102641843D01*
X172985000Y-102592560D01*
X171185000Y-102592560D01*
X170937235Y-102641843D01*
X170727191Y-102782191D01*
X170586843Y-102992235D01*
X170583725Y-103007908D01*
X170414507Y-102838690D01*
X169850330Y-102605000D01*
X169239670Y-102605000D01*
X168675493Y-102838690D01*
X168506275Y-103007908D01*
X168503157Y-102992235D01*
X168362809Y-102782191D01*
X168152765Y-102641843D01*
X167905000Y-102592560D01*
X166105000Y-102592560D01*
X165857235Y-102641843D01*
X165647191Y-102782191D01*
X165506843Y-102992235D01*
X165503725Y-103007908D01*
X165334507Y-102838690D01*
X165223031Y-102792515D01*
X165152424Y-102686845D01*
X165152423Y-102686844D01*
X165103049Y-102612951D01*
X165029156Y-102563577D01*
X164136425Y-101670847D01*
X164087049Y-101596951D01*
X163794310Y-101401348D01*
X163536165Y-101350000D01*
X163536161Y-101350000D01*
X163449000Y-101332663D01*
X163361839Y-101350000D01*
X159715380Y-101350000D01*
X159530577Y-101073423D01*
X159055909Y-100756260D01*
X158637333Y-100673000D01*
X158354667Y-100673000D01*
X158213632Y-100701054D01*
X157278425Y-99765847D01*
X157229049Y-99691951D01*
X156936310Y-99496348D01*
X156678165Y-99445000D01*
X156678161Y-99445000D01*
X156591000Y-99427663D01*
X156503839Y-99445000D01*
X154820817Y-99445000D01*
X154971310Y-99294507D01*
X155205000Y-98730330D01*
X155205000Y-98307532D01*
X166159073Y-98307532D01*
X166257736Y-98574387D01*
X166867461Y-98800908D01*
X167517460Y-98776856D01*
X168006264Y-98574387D01*
X168104927Y-98307532D01*
X167132000Y-97334605D01*
X166159073Y-98307532D01*
X155205000Y-98307532D01*
X155205000Y-98119670D01*
X154971310Y-97555493D01*
X154539507Y-97123690D01*
X153976443Y-96890461D01*
X165486092Y-96890461D01*
X165510144Y-97540460D01*
X165712613Y-98029264D01*
X165979468Y-98127927D01*
X166952395Y-97155000D01*
X165979468Y-96182073D01*
X165712613Y-96280736D01*
X165486092Y-96890461D01*
X153976443Y-96890461D01*
X153975330Y-96890000D01*
X153364670Y-96890000D01*
X152800493Y-97123690D01*
X152400000Y-97524183D01*
X151999507Y-97123690D01*
X151435330Y-96890000D01*
X150824670Y-96890000D01*
X150260493Y-97123690D01*
X149860000Y-97524183D01*
X149475000Y-97139183D01*
X149475000Y-94346578D01*
X151496579Y-92325000D01*
X152266868Y-92325000D01*
X152283914Y-92366153D01*
X152743847Y-92826086D01*
X153344778Y-93075000D01*
X153995222Y-93075000D01*
X154596153Y-92826086D01*
X155056086Y-92366153D01*
X155305000Y-91765222D01*
X155305000Y-91114778D01*
X155056086Y-90513847D01*
X154712239Y-90170000D01*
X155056086Y-89826153D01*
X155305000Y-89225222D01*
X155305000Y-88574778D01*
X155056086Y-87973847D01*
X154629928Y-87547689D01*
X154642927Y-87512532D01*
X153670000Y-86539605D01*
X152697073Y-87512532D01*
X152710072Y-87547689D01*
X152283914Y-87973847D01*
X152035000Y-88574778D01*
X152035000Y-89225222D01*
X152283914Y-89826153D01*
X152627761Y-90170000D01*
X152283914Y-90513847D01*
X152266868Y-90555000D01*
X151217159Y-90555000D01*
X151129999Y-90537663D01*
X151042839Y-90555000D01*
X151042835Y-90555000D01*
X150784690Y-90606348D01*
X150784688Y-90606349D01*
X150784689Y-90606349D01*
X150565845Y-90752576D01*
X150565844Y-90752577D01*
X150491951Y-90801951D01*
X150442577Y-90875844D01*
X148025847Y-93292575D01*
X147951951Y-93341951D01*
X147756348Y-93634691D01*
X147705000Y-93892836D01*
X147705000Y-93892839D01*
X147687663Y-93980000D01*
X147705000Y-94067161D01*
X147705001Y-97139182D01*
X147320000Y-97524183D01*
X146919507Y-97123690D01*
X146355330Y-96890000D01*
X145744670Y-96890000D01*
X145180493Y-97123690D01*
X144780000Y-97524183D01*
X144379507Y-97123690D01*
X143815330Y-96890000D01*
X143204670Y-96890000D01*
X142640493Y-97123690D01*
X142240000Y-97524183D01*
X141839507Y-97123690D01*
X141275330Y-96890000D01*
X140664670Y-96890000D01*
X140100493Y-97123690D01*
X139668690Y-97555493D01*
X139660562Y-97575115D01*
X139510159Y-97524446D01*
X138609605Y-98425000D01*
X139510159Y-99325554D01*
X139660562Y-99274885D01*
X139668690Y-99294507D01*
X140100493Y-99726310D01*
X140664670Y-99960000D01*
X141275330Y-99960000D01*
X141839507Y-99726310D01*
X142240000Y-99325817D01*
X142640493Y-99726310D01*
X143204670Y-99960000D01*
X143815330Y-99960000D01*
X144379507Y-99726310D01*
X144780000Y-99325817D01*
X145180493Y-99726310D01*
X145744670Y-99960000D01*
X146355330Y-99960000D01*
X146919507Y-99726310D01*
X147320000Y-99325817D01*
X147688378Y-99694195D01*
X147687663Y-99697792D01*
X147756348Y-100043101D01*
X147902576Y-100261946D01*
X147902578Y-100261948D01*
X147951952Y-100335841D01*
X148025844Y-100385215D01*
X148534785Y-100894156D01*
X148584159Y-100968049D01*
X148658052Y-101017423D01*
X148658053Y-101017424D01*
X148741861Y-101073423D01*
X148876898Y-101163652D01*
X149135043Y-101215000D01*
X149135047Y-101215000D01*
X149222207Y-101232337D01*
X149309367Y-101215000D01*
X149803392Y-101215000D01*
X149868253Y-101279861D01*
X149622136Y-101353995D01*
X149429035Y-101891223D01*
X149456222Y-102461454D01*
X149622136Y-102862005D01*
X149868255Y-102936139D01*
X150696395Y-102108000D01*
X150682252Y-102093858D01*
X150861858Y-101914252D01*
X150876000Y-101928395D01*
X150890142Y-101914252D01*
X151069748Y-102093858D01*
X151055605Y-102108000D01*
X151883745Y-102936139D01*
X152129864Y-102862005D01*
X152322965Y-102324777D01*
X152295778Y-101754546D01*
X152129864Y-101353995D01*
X151883747Y-101279861D01*
X151948608Y-101215000D01*
X156224422Y-101215000D01*
X157046912Y-102037491D01*
X157032887Y-102108000D01*
X157144260Y-102667909D01*
X157461423Y-103142577D01*
X157936091Y-103459740D01*
X158354667Y-103543000D01*
X158637333Y-103543000D01*
X159055909Y-103459740D01*
X159530577Y-103142577D01*
X159545662Y-103120000D01*
X160401429Y-103120000D01*
X160377560Y-103240000D01*
X160377560Y-105040000D01*
X160426843Y-105287765D01*
X160567191Y-105497809D01*
X160777235Y-105638157D01*
X161025000Y-105687440D01*
X162825000Y-105687440D01*
X163072765Y-105638157D01*
X163282809Y-105497809D01*
X163423157Y-105287765D01*
X163426275Y-105272092D01*
X163595493Y-105441310D01*
X164159670Y-105675000D01*
X164770330Y-105675000D01*
X165334507Y-105441310D01*
X165503725Y-105272092D01*
X165506843Y-105287765D01*
X165647191Y-105497809D01*
X165736163Y-105557259D01*
X165498422Y-105795000D01*
X160132579Y-105795000D01*
X159924017Y-105586439D01*
X159959113Y-105410000D01*
X159847740Y-104850091D01*
X159530577Y-104375423D01*
X159055909Y-104058260D01*
X158637333Y-103975000D01*
X158354667Y-103975000D01*
X157936091Y-104058260D01*
X157461423Y-104375423D01*
X157144260Y-104850091D01*
X157032887Y-105410000D01*
X157144260Y-105969909D01*
X157461423Y-106444577D01*
X157936091Y-106761740D01*
X158354667Y-106845000D01*
X158637333Y-106845000D01*
X158672438Y-106838017D01*
X159022421Y-107188000D01*
X127322479Y-107188000D01*
X127301636Y-107185015D01*
X126995072Y-107045628D01*
X126739953Y-106825804D01*
X126556782Y-106543207D01*
X126492000Y-106326591D01*
X126492000Y-105410000D01*
X127568887Y-105410000D01*
X127680260Y-105969909D01*
X127997423Y-106444577D01*
X128472091Y-106761740D01*
X128890667Y-106845000D01*
X129173333Y-106845000D01*
X129591909Y-106761740D01*
X130066577Y-106444577D01*
X130383740Y-105969909D01*
X130495113Y-105410000D01*
X130438336Y-105124561D01*
X135217000Y-105124561D01*
X135217000Y-105695439D01*
X135435466Y-106222862D01*
X135839138Y-106626534D01*
X136366561Y-106845000D01*
X136937439Y-106845000D01*
X137464862Y-106626534D01*
X137868534Y-106222862D01*
X138060655Y-105759039D01*
X138562096Y-105759039D01*
X138722959Y-106147423D01*
X139098866Y-106562389D01*
X139604959Y-106801914D01*
X139827000Y-106680629D01*
X139827000Y-105537000D01*
X140081000Y-105537000D01*
X140081000Y-106680629D01*
X140303041Y-106801914D01*
X140809134Y-106562389D01*
X141185041Y-106147423D01*
X141345904Y-105759039D01*
X141223915Y-105537000D01*
X140081000Y-105537000D01*
X139827000Y-105537000D01*
X138684085Y-105537000D01*
X138562096Y-105759039D01*
X138060655Y-105759039D01*
X138087000Y-105695439D01*
X138087000Y-105124561D01*
X138060656Y-105060961D01*
X138562096Y-105060961D01*
X138684085Y-105283000D01*
X139827000Y-105283000D01*
X139827000Y-104139371D01*
X140081000Y-104139371D01*
X140081000Y-105283000D01*
X141223915Y-105283000D01*
X141310961Y-105124561D01*
X146139000Y-105124561D01*
X146139000Y-105695439D01*
X146357466Y-106222862D01*
X146761138Y-106626534D01*
X147288561Y-106845000D01*
X147859439Y-106845000D01*
X148386862Y-106626534D01*
X148595651Y-106417745D01*
X150047861Y-106417745D01*
X150121995Y-106663864D01*
X150659223Y-106856965D01*
X151229454Y-106829778D01*
X151630005Y-106663864D01*
X151704139Y-106417745D01*
X150876000Y-105589605D01*
X150047861Y-106417745D01*
X148595651Y-106417745D01*
X148790534Y-106222862D01*
X149009000Y-105695439D01*
X149009000Y-105193223D01*
X149429035Y-105193223D01*
X149456222Y-105763454D01*
X149622136Y-106164005D01*
X149868255Y-106238139D01*
X150696395Y-105410000D01*
X151055605Y-105410000D01*
X151883745Y-106238139D01*
X152129864Y-106164005D01*
X152322965Y-105626777D01*
X152295778Y-105056546D01*
X152129864Y-104655995D01*
X151883745Y-104581861D01*
X151055605Y-105410000D01*
X150696395Y-105410000D01*
X149868255Y-104581861D01*
X149622136Y-104655995D01*
X149429035Y-105193223D01*
X149009000Y-105193223D01*
X149009000Y-105124561D01*
X148790534Y-104597138D01*
X148595651Y-104402255D01*
X150047861Y-104402255D01*
X150876000Y-105230395D01*
X151704139Y-104402255D01*
X151630005Y-104156136D01*
X151092777Y-103963035D01*
X150522546Y-103990222D01*
X150121995Y-104156136D01*
X150047861Y-104402255D01*
X148595651Y-104402255D01*
X148386862Y-104193466D01*
X147859439Y-103975000D01*
X147288561Y-103975000D01*
X146761138Y-104193466D01*
X146357466Y-104597138D01*
X146139000Y-105124561D01*
X141310961Y-105124561D01*
X141345904Y-105060961D01*
X141185041Y-104672577D01*
X140809134Y-104257611D01*
X140303041Y-104018086D01*
X140081000Y-104139371D01*
X139827000Y-104139371D01*
X139604959Y-104018086D01*
X139098866Y-104257611D01*
X138722959Y-104672577D01*
X138562096Y-105060961D01*
X138060656Y-105060961D01*
X137868534Y-104597138D01*
X137464862Y-104193466D01*
X136937439Y-103975000D01*
X136366561Y-103975000D01*
X135839138Y-104193466D01*
X135435466Y-104597138D01*
X135217000Y-105124561D01*
X130438336Y-105124561D01*
X130383740Y-104850091D01*
X130066577Y-104375423D01*
X129591909Y-104058260D01*
X129173333Y-103975000D01*
X128890667Y-103975000D01*
X128472091Y-104058260D01*
X127997423Y-104375423D01*
X127680260Y-104850091D01*
X127568887Y-105410000D01*
X126492000Y-105410000D01*
X126492000Y-102108000D01*
X127568887Y-102108000D01*
X127680260Y-102667909D01*
X127997423Y-103142577D01*
X128472091Y-103459740D01*
X128890667Y-103543000D01*
X129173333Y-103543000D01*
X129591909Y-103459740D01*
X130066577Y-103142577D01*
X130383740Y-102667909D01*
X130495113Y-102108000D01*
X130438336Y-101822561D01*
X135217000Y-101822561D01*
X135217000Y-102393439D01*
X135435466Y-102920862D01*
X135839138Y-103324534D01*
X136366561Y-103543000D01*
X136937439Y-103543000D01*
X137464862Y-103324534D01*
X137673651Y-103115745D01*
X139125861Y-103115745D01*
X139199995Y-103361864D01*
X139737223Y-103554965D01*
X140307454Y-103527778D01*
X140708005Y-103361864D01*
X140782139Y-103115745D01*
X139954000Y-102287605D01*
X139125861Y-103115745D01*
X137673651Y-103115745D01*
X137868534Y-102920862D01*
X138087000Y-102393439D01*
X138087000Y-101891223D01*
X138507035Y-101891223D01*
X138534222Y-102461454D01*
X138700136Y-102862005D01*
X138946255Y-102936139D01*
X139774395Y-102108000D01*
X140133605Y-102108000D01*
X140961745Y-102936139D01*
X141207864Y-102862005D01*
X141400965Y-102324777D01*
X141390630Y-102108000D01*
X146110887Y-102108000D01*
X146222260Y-102667909D01*
X146539423Y-103142577D01*
X147014091Y-103459740D01*
X147432667Y-103543000D01*
X147715333Y-103543000D01*
X148133909Y-103459740D01*
X148608577Y-103142577D01*
X148626505Y-103115745D01*
X150047861Y-103115745D01*
X150121995Y-103361864D01*
X150659223Y-103554965D01*
X151229454Y-103527778D01*
X151630005Y-103361864D01*
X151704139Y-103115745D01*
X150876000Y-102287605D01*
X150047861Y-103115745D01*
X148626505Y-103115745D01*
X148925740Y-102667909D01*
X149037113Y-102108000D01*
X148925740Y-101548091D01*
X148608577Y-101073423D01*
X148133909Y-100756260D01*
X147715333Y-100673000D01*
X147432667Y-100673000D01*
X147014091Y-100756260D01*
X146539423Y-101073423D01*
X146222260Y-101548091D01*
X146110887Y-102108000D01*
X141390630Y-102108000D01*
X141373778Y-101754546D01*
X141207864Y-101353995D01*
X140961745Y-101279861D01*
X140133605Y-102108000D01*
X139774395Y-102108000D01*
X138946255Y-101279861D01*
X138700136Y-101353995D01*
X138507035Y-101891223D01*
X138087000Y-101891223D01*
X138087000Y-101822561D01*
X137868534Y-101295138D01*
X137673651Y-101100255D01*
X139125861Y-101100255D01*
X139954000Y-101928395D01*
X140782139Y-101100255D01*
X140708005Y-100854136D01*
X140170777Y-100661035D01*
X139600546Y-100688222D01*
X139199995Y-100854136D01*
X139125861Y-101100255D01*
X137673651Y-101100255D01*
X137464862Y-100891466D01*
X136937439Y-100673000D01*
X136366561Y-100673000D01*
X135839138Y-100891466D01*
X135435466Y-101295138D01*
X135217000Y-101822561D01*
X130438336Y-101822561D01*
X130383740Y-101548091D01*
X130066577Y-101073423D01*
X129591909Y-100756260D01*
X129173333Y-100673000D01*
X128890667Y-100673000D01*
X128472091Y-100756260D01*
X127997423Y-101073423D01*
X127680260Y-101548091D01*
X127568887Y-102108000D01*
X126492000Y-102108000D01*
X126492000Y-98119670D01*
X134355000Y-98119670D01*
X134355000Y-98730330D01*
X134588690Y-99294507D01*
X135020493Y-99726310D01*
X135584670Y-99960000D01*
X136195330Y-99960000D01*
X136759507Y-99726310D01*
X136980658Y-99505159D01*
X137529446Y-99505159D01*
X137615852Y-99761643D01*
X138189336Y-99971458D01*
X138799460Y-99945839D01*
X139244148Y-99761643D01*
X139330554Y-99505159D01*
X138430000Y-98604605D01*
X137529446Y-99505159D01*
X136980658Y-99505159D01*
X137191310Y-99294507D01*
X137199438Y-99274885D01*
X137349841Y-99325554D01*
X138250395Y-98425000D01*
X137349841Y-97524446D01*
X137199438Y-97575115D01*
X137191310Y-97555493D01*
X136980658Y-97344841D01*
X137529446Y-97344841D01*
X138430000Y-98245395D01*
X139330554Y-97344841D01*
X139244148Y-97088357D01*
X138670664Y-96878542D01*
X138060540Y-96904161D01*
X137615852Y-97088357D01*
X137529446Y-97344841D01*
X136980658Y-97344841D01*
X136759507Y-97123690D01*
X136195330Y-96890000D01*
X135584670Y-96890000D01*
X135020493Y-97123690D01*
X134588690Y-97555493D01*
X134355000Y-98119670D01*
X126492000Y-98119670D01*
X126492000Y-86095461D01*
X152024092Y-86095461D01*
X152048144Y-86745460D01*
X152250613Y-87234264D01*
X152517468Y-87332927D01*
X153490395Y-86360000D01*
X153849605Y-86360000D01*
X154822532Y-87332927D01*
X155089387Y-87234264D01*
X155315908Y-86624539D01*
X155291856Y-85974540D01*
X155089387Y-85485736D01*
X154822532Y-85387073D01*
X153849605Y-86360000D01*
X153490395Y-86360000D01*
X152517468Y-85387073D01*
X152250613Y-85485736D01*
X152024092Y-86095461D01*
X126492000Y-86095461D01*
X126492000Y-85207468D01*
X152697073Y-85207468D01*
X153670000Y-86180395D01*
X154642927Y-85207468D01*
X154544264Y-84940613D01*
X153934539Y-84714092D01*
X153284540Y-84738144D01*
X152795736Y-84940613D01*
X152697073Y-85207468D01*
X126492000Y-85207468D01*
X126492000Y-75259670D01*
X134355000Y-75259670D01*
X134355000Y-75870330D01*
X134588690Y-76434507D01*
X135020493Y-76866310D01*
X135584670Y-77100000D01*
X136195330Y-77100000D01*
X136759507Y-76866310D01*
X137160000Y-76465817D01*
X137560493Y-76866310D01*
X138124670Y-77100000D01*
X138735330Y-77100000D01*
X139299507Y-76866310D01*
X139700000Y-76465817D01*
X140100493Y-76866310D01*
X140664670Y-77100000D01*
X141253422Y-77100000D01*
X146759577Y-82606156D01*
X146808951Y-82680049D01*
X146882844Y-82729423D01*
X146882845Y-82729424D01*
X146993880Y-82803615D01*
X147101690Y-82875652D01*
X147359835Y-82927000D01*
X147359839Y-82927000D01*
X147446999Y-82944337D01*
X147534159Y-82927000D01*
X154700422Y-82927000D01*
X167286582Y-95513161D01*
X166746540Y-95533144D01*
X166257736Y-95735613D01*
X166159073Y-96002468D01*
X167132000Y-96975395D01*
X167146143Y-96961253D01*
X167325748Y-97140858D01*
X167311605Y-97155000D01*
X168284532Y-98127927D01*
X168551387Y-98029264D01*
X168655898Y-97747953D01*
X168793914Y-98081153D01*
X169253847Y-98541086D01*
X169854778Y-98790000D01*
X170505222Y-98790000D01*
X171106153Y-98541086D01*
X171566086Y-98081153D01*
X171704000Y-97748199D01*
X171841914Y-98081153D01*
X172301847Y-98541086D01*
X172902778Y-98790000D01*
X173553222Y-98790000D01*
X174154153Y-98541086D01*
X174614086Y-98081153D01*
X174863000Y-97480222D01*
X174863000Y-96829778D01*
X174614086Y-96228847D01*
X174154153Y-95768914D01*
X173553222Y-95520000D01*
X172902778Y-95520000D01*
X172301847Y-95768914D01*
X171841914Y-96228847D01*
X171704000Y-96561801D01*
X171566086Y-96228847D01*
X171106153Y-95768914D01*
X170505222Y-95520000D01*
X169854778Y-95520000D01*
X169813625Y-95537046D01*
X160916579Y-86640000D01*
X166282560Y-86640000D01*
X166282560Y-88620000D01*
X166331843Y-88867765D01*
X166472191Y-89077809D01*
X166682235Y-89218157D01*
X166930000Y-89267440D01*
X170890000Y-89267440D01*
X171137765Y-89218157D01*
X171347809Y-89077809D01*
X171488157Y-88867765D01*
X171537440Y-88620000D01*
X171537440Y-86640000D01*
X171488157Y-86392235D01*
X171347809Y-86182191D01*
X171137765Y-86041843D01*
X170890000Y-85992560D01*
X166930000Y-85992560D01*
X166682235Y-86041843D01*
X166472191Y-86182191D01*
X166331843Y-86392235D01*
X166282560Y-86640000D01*
X160916579Y-86640000D01*
X157285444Y-83008865D01*
X166339782Y-83008865D01*
X166370095Y-83134528D01*
X166681149Y-83689246D01*
X167180807Y-84082703D01*
X167793000Y-84255000D01*
X168783000Y-84255000D01*
X168783000Y-82757000D01*
X169037000Y-82757000D01*
X169037000Y-84255000D01*
X170027000Y-84255000D01*
X170639193Y-84082703D01*
X171138851Y-83689246D01*
X171449905Y-83134528D01*
X171480218Y-83008865D01*
X171360740Y-82757000D01*
X169037000Y-82757000D01*
X168783000Y-82757000D01*
X166459260Y-82757000D01*
X166339782Y-83008865D01*
X157285444Y-83008865D01*
X156527714Y-82251135D01*
X166339782Y-82251135D01*
X166459260Y-82503000D01*
X168783000Y-82503000D01*
X168783000Y-81005000D01*
X169037000Y-81005000D01*
X169037000Y-82503000D01*
X171360740Y-82503000D01*
X171480218Y-82251135D01*
X171449905Y-82125472D01*
X171138851Y-81570754D01*
X170639193Y-81177297D01*
X170027000Y-81005000D01*
X169037000Y-81005000D01*
X168783000Y-81005000D01*
X167793000Y-81005000D01*
X167180807Y-81177297D01*
X166681149Y-81570754D01*
X166370095Y-82125472D01*
X166339782Y-82251135D01*
X156527714Y-82251135D01*
X155754425Y-81477847D01*
X155705049Y-81403951D01*
X155412310Y-81208348D01*
X155154165Y-81157000D01*
X155154161Y-81157000D01*
X155067000Y-81139663D01*
X154979839Y-81157000D01*
X147813579Y-81157000D01*
X144412329Y-77755750D01*
X166295000Y-77755750D01*
X166295000Y-78586309D01*
X166391673Y-78819698D01*
X166570301Y-78998327D01*
X166803690Y-79095000D01*
X168624250Y-79095000D01*
X168783000Y-78936250D01*
X168783000Y-77597000D01*
X169037000Y-77597000D01*
X169037000Y-78936250D01*
X169195750Y-79095000D01*
X171016310Y-79095000D01*
X171249699Y-78998327D01*
X171428327Y-78819698D01*
X171525000Y-78586309D01*
X171525000Y-77755750D01*
X171366250Y-77597000D01*
X169037000Y-77597000D01*
X168783000Y-77597000D01*
X166453750Y-77597000D01*
X166295000Y-77755750D01*
X144412329Y-77755750D01*
X143756578Y-77100000D01*
X143815330Y-77100000D01*
X144379507Y-76866310D01*
X144780000Y-76465817D01*
X145180493Y-76866310D01*
X145744670Y-77100000D01*
X146355330Y-77100000D01*
X146919507Y-76866310D01*
X147320000Y-76465817D01*
X147720493Y-76866310D01*
X148284670Y-77100000D01*
X148895330Y-77100000D01*
X149459507Y-76866310D01*
X149860000Y-76465817D01*
X150260493Y-76866310D01*
X150824670Y-77100000D01*
X151435330Y-77100000D01*
X151999507Y-76866310D01*
X152400000Y-76465817D01*
X152800493Y-76866310D01*
X153364670Y-77100000D01*
X153975330Y-77100000D01*
X154539507Y-76866310D01*
X154971310Y-76434507D01*
X155004785Y-76353691D01*
X166295000Y-76353691D01*
X166295000Y-77184250D01*
X166453750Y-77343000D01*
X168783000Y-77343000D01*
X168783000Y-76003750D01*
X169037000Y-76003750D01*
X169037000Y-77343000D01*
X171366250Y-77343000D01*
X171525000Y-77184250D01*
X171525000Y-76353691D01*
X171428327Y-76120302D01*
X171249699Y-75941673D01*
X171016310Y-75845000D01*
X169195750Y-75845000D01*
X169037000Y-76003750D01*
X168783000Y-76003750D01*
X168624250Y-75845000D01*
X166803690Y-75845000D01*
X166570301Y-75941673D01*
X166391673Y-76120302D01*
X166295000Y-76353691D01*
X155004785Y-76353691D01*
X155205000Y-75870330D01*
X155205000Y-75259670D01*
X154971310Y-74695493D01*
X154539507Y-74263690D01*
X153975330Y-74030000D01*
X153364670Y-74030000D01*
X152800493Y-74263690D01*
X152400000Y-74664183D01*
X151999507Y-74263690D01*
X151435330Y-74030000D01*
X150824670Y-74030000D01*
X150260493Y-74263690D01*
X149860000Y-74664183D01*
X149459507Y-74263690D01*
X148895330Y-74030000D01*
X148284670Y-74030000D01*
X147720493Y-74263690D01*
X147320000Y-74664183D01*
X146919507Y-74263690D01*
X146355330Y-74030000D01*
X145744670Y-74030000D01*
X145180493Y-74263690D01*
X144780000Y-74664183D01*
X144379507Y-74263690D01*
X143815330Y-74030000D01*
X143204670Y-74030000D01*
X142640493Y-74263690D01*
X142240000Y-74664183D01*
X141839507Y-74263690D01*
X141275330Y-74030000D01*
X140664670Y-74030000D01*
X140100493Y-74263690D01*
X139700000Y-74664183D01*
X139299507Y-74263690D01*
X138735330Y-74030000D01*
X138124670Y-74030000D01*
X137560493Y-74263690D01*
X137160000Y-74664183D01*
X136759507Y-74263690D01*
X136195330Y-74030000D01*
X135584670Y-74030000D01*
X135020493Y-74263690D01*
X134588690Y-74695493D01*
X134355000Y-75259670D01*
X126492000Y-75259670D01*
X126492000Y-70913750D01*
X127905000Y-70913750D01*
X127905000Y-72754310D01*
X128001673Y-72987699D01*
X128180302Y-73166327D01*
X128413691Y-73263000D01*
X129254250Y-73263000D01*
X129413000Y-73104250D01*
X129413000Y-70755000D01*
X129667000Y-70755000D01*
X129667000Y-73104250D01*
X129825750Y-73263000D01*
X130666309Y-73263000D01*
X130899698Y-73166327D01*
X131078327Y-72987699D01*
X131175000Y-72754310D01*
X131175000Y-71040750D01*
X148225000Y-71040750D01*
X148225000Y-72881310D01*
X148321673Y-73114699D01*
X148500302Y-73293327D01*
X148733691Y-73390000D01*
X149574250Y-73390000D01*
X149733000Y-73231250D01*
X149733000Y-70882000D01*
X149987000Y-70882000D01*
X149987000Y-73231250D01*
X150145750Y-73390000D01*
X150986309Y-73390000D01*
X151219698Y-73293327D01*
X151398327Y-73114699D01*
X151495000Y-72881310D01*
X151495000Y-72470000D01*
X166263165Y-72470000D01*
X166389284Y-73104043D01*
X166748441Y-73641559D01*
X167285957Y-74000716D01*
X167759955Y-74095000D01*
X170060045Y-74095000D01*
X170534043Y-74000716D01*
X171071559Y-73641559D01*
X171430716Y-73104043D01*
X171556835Y-72470000D01*
X171430716Y-71835957D01*
X171071559Y-71298441D01*
X170534043Y-70939284D01*
X170060045Y-70845000D01*
X167759955Y-70845000D01*
X167285957Y-70939284D01*
X166748441Y-71298441D01*
X166389284Y-71835957D01*
X166263165Y-72470000D01*
X151495000Y-72470000D01*
X151495000Y-71040750D01*
X151336250Y-70882000D01*
X149987000Y-70882000D01*
X149733000Y-70882000D01*
X148383750Y-70882000D01*
X148225000Y-71040750D01*
X131175000Y-71040750D01*
X131175000Y-70913750D01*
X131016250Y-70755000D01*
X129667000Y-70755000D01*
X129413000Y-70755000D01*
X128063750Y-70755000D01*
X127905000Y-70913750D01*
X126492000Y-70913750D01*
X126492000Y-68501690D01*
X127905000Y-68501690D01*
X127905000Y-70342250D01*
X128063750Y-70501000D01*
X129413000Y-70501000D01*
X129413000Y-68151750D01*
X129667000Y-68151750D01*
X129667000Y-70501000D01*
X131016250Y-70501000D01*
X131175000Y-70342250D01*
X131175000Y-68628690D01*
X148225000Y-68628690D01*
X148225000Y-70469250D01*
X148383750Y-70628000D01*
X149733000Y-70628000D01*
X149733000Y-68278750D01*
X149987000Y-68278750D01*
X149987000Y-70628000D01*
X151336250Y-70628000D01*
X151495000Y-70469250D01*
X151495000Y-68628690D01*
X151474832Y-68580000D01*
X155914928Y-68580000D01*
X156034062Y-69178927D01*
X156373327Y-69686673D01*
X156881073Y-70025938D01*
X157328818Y-70115000D01*
X157631182Y-70115000D01*
X158078927Y-70025938D01*
X158586673Y-69686673D01*
X158925938Y-69178927D01*
X159045072Y-68580000D01*
X158925938Y-67981073D01*
X158586673Y-67473327D01*
X158078927Y-67134062D01*
X157631182Y-67045000D01*
X157328818Y-67045000D01*
X156881073Y-67134062D01*
X156373327Y-67473327D01*
X156034062Y-67981073D01*
X155914928Y-68580000D01*
X151474832Y-68580000D01*
X151398327Y-68395301D01*
X151219698Y-68216673D01*
X150986309Y-68120000D01*
X150145750Y-68120000D01*
X149987000Y-68278750D01*
X149733000Y-68278750D01*
X149574250Y-68120000D01*
X148733691Y-68120000D01*
X148500302Y-68216673D01*
X148321673Y-68395301D01*
X148225000Y-68628690D01*
X131175000Y-68628690D01*
X131175000Y-68501690D01*
X131078327Y-68268301D01*
X130899698Y-68089673D01*
X130666309Y-67993000D01*
X129825750Y-67993000D01*
X129667000Y-68151750D01*
X129413000Y-68151750D01*
X129254250Y-67993000D01*
X128413691Y-67993000D01*
X128180302Y-68089673D01*
X128001673Y-68268301D01*
X127905000Y-68501690D01*
X126492000Y-68501690D01*
X126492000Y-66320000D01*
X166282560Y-66320000D01*
X166282560Y-68300000D01*
X166331843Y-68547765D01*
X166472191Y-68757809D01*
X166682235Y-68898157D01*
X166930000Y-68947440D01*
X170890000Y-68947440D01*
X171137765Y-68898157D01*
X171347809Y-68757809D01*
X171488157Y-68547765D01*
X171537440Y-68300000D01*
X171537440Y-66320000D01*
X171488157Y-66072235D01*
X171347809Y-65862191D01*
X171137765Y-65721843D01*
X170890000Y-65672560D01*
X166930000Y-65672560D01*
X166682235Y-65721843D01*
X166472191Y-65862191D01*
X166331843Y-66072235D01*
X166282560Y-66320000D01*
X126492000Y-66320000D01*
X126492000Y-60012479D01*
X126494985Y-59991636D01*
X126634372Y-59685072D01*
X126854199Y-59429950D01*
X127136792Y-59246782D01*
X127353410Y-59182000D01*
X127921005Y-59182000D01*
X127892560Y-59325000D01*
G04 #@! TD*
M02*
