G04 #@! TF.FileFunction,Legend,Top*
%FSLAX46Y46*%
G04 Gerber Fmt 4.6, Leading zero omitted, Abs format (unit mm)*
G04 Created by KiCad (PCBNEW 4.0.7) date Sun Jul 22 12:15:23 2018*
%MOMM*%
%LPD*%
G01*
G04 APERTURE LIST*
%ADD10C,0.100000*%
%ADD11C,0.300000*%
%ADD12C,0.120000*%
%ADD13C,0.150000*%
G04 APERTURE END LIST*
D10*
D11*
X127035714Y-110852144D02*
X127107143Y-110780716D01*
X127178571Y-110637859D01*
X127178571Y-110495001D01*
X127107143Y-110352144D01*
X127035714Y-110280716D01*
X126892857Y-110209287D01*
X126750000Y-110209287D01*
X126607143Y-110280716D01*
X126535714Y-110352144D01*
X126464286Y-110495001D01*
X126464286Y-110637859D01*
X126535714Y-110780716D01*
X126607143Y-110852144D01*
X127178571Y-110852144D02*
X126607143Y-110852144D01*
X126535714Y-110923573D01*
X126535714Y-110995001D01*
X126607143Y-111137859D01*
X126750000Y-111209287D01*
X127107143Y-111209287D01*
X127321429Y-111066430D01*
X127464286Y-110852144D01*
X127535714Y-110566430D01*
X127464286Y-110280716D01*
X127321429Y-110066430D01*
X127107143Y-109923573D01*
X126821429Y-109852144D01*
X126535714Y-109923573D01*
X126321429Y-110066430D01*
X126178571Y-110280716D01*
X126107143Y-110566430D01*
X126178571Y-110852144D01*
X126321429Y-111066430D01*
X126321429Y-111852144D02*
X127821429Y-111852144D01*
X127821429Y-112423572D01*
X127750000Y-112566430D01*
X127678571Y-112637858D01*
X127535714Y-112709287D01*
X127321429Y-112709287D01*
X127178571Y-112637858D01*
X127107143Y-112566430D01*
X127035714Y-112423572D01*
X127035714Y-111852144D01*
X126321429Y-113995001D02*
X127107143Y-113995001D01*
X127250000Y-113923572D01*
X127321429Y-113780715D01*
X127321429Y-113495001D01*
X127250000Y-113352144D01*
X126392857Y-113995001D02*
X126321429Y-113852144D01*
X126321429Y-113495001D01*
X126392857Y-113352144D01*
X126535714Y-113280715D01*
X126678571Y-113280715D01*
X126821429Y-113352144D01*
X126892857Y-113495001D01*
X126892857Y-113852144D01*
X126964286Y-113995001D01*
X127321429Y-115352144D02*
X126321429Y-115352144D01*
X127321429Y-114709287D02*
X126535714Y-114709287D01*
X126392857Y-114780715D01*
X126321429Y-114923573D01*
X126321429Y-115137858D01*
X126392857Y-115280715D01*
X126464286Y-115352144D01*
X126321429Y-116280716D02*
X126392857Y-116137858D01*
X126535714Y-116066430D01*
X127821429Y-116066430D01*
X127821429Y-117137858D02*
X127821429Y-117280715D01*
X127750000Y-117423572D01*
X127678571Y-117495001D01*
X127535714Y-117566430D01*
X127250000Y-117637858D01*
X126892857Y-117637858D01*
X126607143Y-117566430D01*
X126464286Y-117495001D01*
X126392857Y-117423572D01*
X126321429Y-117280715D01*
X126321429Y-117137858D01*
X126392857Y-116995001D01*
X126464286Y-116923572D01*
X126607143Y-116852144D01*
X126892857Y-116780715D01*
X127250000Y-116780715D01*
X127535714Y-116852144D01*
X127678571Y-116923572D01*
X127750000Y-116995001D01*
X127821429Y-117137858D01*
X126321429Y-118137858D02*
X127321429Y-118923572D01*
X127321429Y-118137858D02*
X126321429Y-118923572D01*
X126321429Y-120280715D02*
X126321429Y-119423572D01*
X126321429Y-119852144D02*
X127821429Y-119852144D01*
X127607143Y-119709287D01*
X127464286Y-119566429D01*
X127392857Y-119423572D01*
X126464286Y-121780715D02*
X126392857Y-121709286D01*
X126321429Y-121495000D01*
X126321429Y-121352143D01*
X126392857Y-121137858D01*
X126535714Y-120995000D01*
X126678571Y-120923572D01*
X126964286Y-120852143D01*
X127178571Y-120852143D01*
X127464286Y-120923572D01*
X127607143Y-120995000D01*
X127750000Y-121137858D01*
X127821429Y-121352143D01*
X127821429Y-121495000D01*
X127750000Y-121709286D01*
X127678571Y-121780715D01*
X127321429Y-123423572D02*
X126321429Y-123780715D01*
X127321429Y-124137857D01*
X126321429Y-125495000D02*
X126321429Y-124637857D01*
X126321429Y-125066429D02*
X127821429Y-125066429D01*
X127607143Y-124923572D01*
X127464286Y-124780714D01*
X127392857Y-124637857D01*
X126464286Y-126137857D02*
X126392857Y-126209285D01*
X126321429Y-126137857D01*
X126392857Y-126066428D01*
X126464286Y-126137857D01*
X126321429Y-126137857D01*
X126321429Y-127637857D02*
X126321429Y-126780714D01*
X126321429Y-127209286D02*
X127821429Y-127209286D01*
X127607143Y-127066429D01*
X127464286Y-126923571D01*
X127392857Y-126780714D01*
X177835714Y-110852144D02*
X177907143Y-110780716D01*
X177978571Y-110637859D01*
X177978571Y-110495001D01*
X177907143Y-110352144D01*
X177835714Y-110280716D01*
X177692857Y-110209287D01*
X177550000Y-110209287D01*
X177407143Y-110280716D01*
X177335714Y-110352144D01*
X177264286Y-110495001D01*
X177264286Y-110637859D01*
X177335714Y-110780716D01*
X177407143Y-110852144D01*
X177978571Y-110852144D02*
X177407143Y-110852144D01*
X177335714Y-110923573D01*
X177335714Y-110995001D01*
X177407143Y-111137859D01*
X177550000Y-111209287D01*
X177907143Y-111209287D01*
X178121429Y-111066430D01*
X178264286Y-110852144D01*
X178335714Y-110566430D01*
X178264286Y-110280716D01*
X178121429Y-110066430D01*
X177907143Y-109923573D01*
X177621429Y-109852144D01*
X177335714Y-109923573D01*
X177121429Y-110066430D01*
X176978571Y-110280716D01*
X176907143Y-110566430D01*
X176978571Y-110852144D01*
X177121429Y-111066430D01*
X177121429Y-111852144D02*
X178621429Y-111852144D01*
X178621429Y-112423572D01*
X178550000Y-112566430D01*
X178478571Y-112637858D01*
X178335714Y-112709287D01*
X178121429Y-112709287D01*
X177978571Y-112637858D01*
X177907143Y-112566430D01*
X177835714Y-112423572D01*
X177835714Y-111852144D01*
X177121429Y-113995001D02*
X177907143Y-113995001D01*
X178050000Y-113923572D01*
X178121429Y-113780715D01*
X178121429Y-113495001D01*
X178050000Y-113352144D01*
X177192857Y-113995001D02*
X177121429Y-113852144D01*
X177121429Y-113495001D01*
X177192857Y-113352144D01*
X177335714Y-113280715D01*
X177478571Y-113280715D01*
X177621429Y-113352144D01*
X177692857Y-113495001D01*
X177692857Y-113852144D01*
X177764286Y-113995001D01*
X178121429Y-115352144D02*
X177121429Y-115352144D01*
X178121429Y-114709287D02*
X177335714Y-114709287D01*
X177192857Y-114780715D01*
X177121429Y-114923573D01*
X177121429Y-115137858D01*
X177192857Y-115280715D01*
X177264286Y-115352144D01*
X177121429Y-116280716D02*
X177192857Y-116137858D01*
X177335714Y-116066430D01*
X178621429Y-116066430D01*
X178621429Y-117137858D02*
X178621429Y-117280715D01*
X178550000Y-117423572D01*
X178478571Y-117495001D01*
X178335714Y-117566430D01*
X178050000Y-117637858D01*
X177692857Y-117637858D01*
X177407143Y-117566430D01*
X177264286Y-117495001D01*
X177192857Y-117423572D01*
X177121429Y-117280715D01*
X177121429Y-117137858D01*
X177192857Y-116995001D01*
X177264286Y-116923572D01*
X177407143Y-116852144D01*
X177692857Y-116780715D01*
X178050000Y-116780715D01*
X178335714Y-116852144D01*
X178478571Y-116923572D01*
X178550000Y-116995001D01*
X178621429Y-117137858D01*
X177121429Y-118137858D02*
X178121429Y-118923572D01*
X178121429Y-118137858D02*
X177121429Y-118923572D01*
X177121429Y-120280715D02*
X177121429Y-119423572D01*
X177121429Y-119852144D02*
X178621429Y-119852144D01*
X178407143Y-119709287D01*
X178264286Y-119566429D01*
X178192857Y-119423572D01*
X177264286Y-121780715D02*
X177192857Y-121709286D01*
X177121429Y-121495000D01*
X177121429Y-121352143D01*
X177192857Y-121137858D01*
X177335714Y-120995000D01*
X177478571Y-120923572D01*
X177764286Y-120852143D01*
X177978571Y-120852143D01*
X178264286Y-120923572D01*
X178407143Y-120995000D01*
X178550000Y-121137858D01*
X178621429Y-121352143D01*
X178621429Y-121495000D01*
X178550000Y-121709286D01*
X178478571Y-121780715D01*
X178121429Y-123423572D02*
X177121429Y-123780715D01*
X178121429Y-124137857D01*
X177121429Y-125495000D02*
X177121429Y-124637857D01*
X177121429Y-125066429D02*
X178621429Y-125066429D01*
X178407143Y-124923572D01*
X178264286Y-124780714D01*
X178192857Y-124637857D01*
X177264286Y-126137857D02*
X177192857Y-126209285D01*
X177121429Y-126137857D01*
X177192857Y-126066428D01*
X177264286Y-126137857D01*
X177121429Y-126137857D01*
X177121429Y-127637857D02*
X177121429Y-126780714D01*
X177121429Y-127209286D02*
X178621429Y-127209286D01*
X178407143Y-127066429D01*
X178264286Y-126923571D01*
X178192857Y-126780714D01*
X214443571Y-155823570D02*
X215943571Y-155466427D01*
X214872143Y-155180713D01*
X215943571Y-154894999D01*
X214443571Y-154537856D01*
X215943571Y-153323570D02*
X215157857Y-153323570D01*
X215015000Y-153394999D01*
X214943571Y-153537856D01*
X214943571Y-153823570D01*
X215015000Y-153966427D01*
X215872143Y-153323570D02*
X215943571Y-153466427D01*
X215943571Y-153823570D01*
X215872143Y-153966427D01*
X215729286Y-154037856D01*
X215586429Y-154037856D01*
X215443571Y-153966427D01*
X215372143Y-153823570D01*
X215372143Y-153466427D01*
X215300714Y-153323570D01*
X215872143Y-152680713D02*
X215943571Y-152537856D01*
X215943571Y-152252141D01*
X215872143Y-152109284D01*
X215729286Y-152037856D01*
X215657857Y-152037856D01*
X215515000Y-152109284D01*
X215443571Y-152252141D01*
X215443571Y-152466427D01*
X215372143Y-152609284D01*
X215229286Y-152680713D01*
X215157857Y-152680713D01*
X215015000Y-152609284D01*
X214943571Y-152466427D01*
X214943571Y-152252141D01*
X215015000Y-152109284D01*
X215872143Y-151466427D02*
X215943571Y-151323570D01*
X215943571Y-151037855D01*
X215872143Y-150894998D01*
X215729286Y-150823570D01*
X215657857Y-150823570D01*
X215515000Y-150894998D01*
X215443571Y-151037855D01*
X215443571Y-151252141D01*
X215372143Y-151394998D01*
X215229286Y-151466427D01*
X215157857Y-151466427D01*
X215015000Y-151394998D01*
X214943571Y-151252141D01*
X214943571Y-151037855D01*
X215015000Y-150894998D01*
X215872143Y-149609284D02*
X215943571Y-149752141D01*
X215943571Y-150037855D01*
X215872143Y-150180712D01*
X215729286Y-150252141D01*
X215157857Y-150252141D01*
X215015000Y-150180712D01*
X214943571Y-150037855D01*
X214943571Y-149752141D01*
X215015000Y-149609284D01*
X215157857Y-149537855D01*
X215300714Y-149537855D01*
X215443571Y-150252141D01*
X215943571Y-148894998D02*
X214943571Y-148894998D01*
X215229286Y-148894998D02*
X215086429Y-148823570D01*
X215015000Y-148752141D01*
X214943571Y-148609284D01*
X214943571Y-148466427D01*
X215872143Y-148037856D02*
X215943571Y-147894999D01*
X215943571Y-147609284D01*
X215872143Y-147466427D01*
X215729286Y-147394999D01*
X215657857Y-147394999D01*
X215515000Y-147466427D01*
X215443571Y-147609284D01*
X215443571Y-147823570D01*
X215372143Y-147966427D01*
X215229286Y-148037856D01*
X215157857Y-148037856D01*
X215015000Y-147966427D01*
X214943571Y-147823570D01*
X214943571Y-147609284D01*
X215015000Y-147466427D01*
X215872143Y-146109284D02*
X215943571Y-146252141D01*
X215943571Y-146537855D01*
X215872143Y-146680713D01*
X215800714Y-146752141D01*
X215657857Y-146823570D01*
X215229286Y-146823570D01*
X215086429Y-146752141D01*
X215015000Y-146680713D01*
X214943571Y-146537855D01*
X214943571Y-146252141D01*
X215015000Y-146109284D01*
X215943571Y-145466427D02*
X214443571Y-145466427D01*
X215943571Y-144823570D02*
X215157857Y-144823570D01*
X215015000Y-144894999D01*
X214943571Y-145037856D01*
X214943571Y-145252141D01*
X215015000Y-145394999D01*
X215086429Y-145466427D01*
X215943571Y-143466427D02*
X215157857Y-143466427D01*
X215015000Y-143537856D01*
X214943571Y-143680713D01*
X214943571Y-143966427D01*
X215015000Y-144109284D01*
X215872143Y-143466427D02*
X215943571Y-143609284D01*
X215943571Y-143966427D01*
X215872143Y-144109284D01*
X215729286Y-144180713D01*
X215586429Y-144180713D01*
X215443571Y-144109284D01*
X215372143Y-143966427D01*
X215372143Y-143609284D01*
X215300714Y-143466427D01*
X215943571Y-142109284D02*
X214443571Y-142109284D01*
X215872143Y-142109284D02*
X215943571Y-142252141D01*
X215943571Y-142537855D01*
X215872143Y-142680713D01*
X215800714Y-142752141D01*
X215657857Y-142823570D01*
X215229286Y-142823570D01*
X215086429Y-142752141D01*
X215015000Y-142680713D01*
X214943571Y-142537855D01*
X214943571Y-142252141D01*
X215015000Y-142109284D01*
X215872143Y-140823570D02*
X215943571Y-140966427D01*
X215943571Y-141252141D01*
X215872143Y-141394998D01*
X215729286Y-141466427D01*
X215157857Y-141466427D01*
X215015000Y-141394998D01*
X214943571Y-141252141D01*
X214943571Y-140966427D01*
X215015000Y-140823570D01*
X215157857Y-140752141D01*
X215300714Y-140752141D01*
X215443571Y-141466427D01*
X214943571Y-140109284D02*
X215943571Y-140109284D01*
X215086429Y-140109284D02*
X215015000Y-140037856D01*
X214943571Y-139894998D01*
X214943571Y-139680713D01*
X215015000Y-139537856D01*
X215157857Y-139466427D01*
X215943571Y-139466427D01*
X214443571Y-136894998D02*
X214443571Y-137609284D01*
X215157857Y-137680713D01*
X215086429Y-137609284D01*
X215015000Y-137466427D01*
X215015000Y-137109284D01*
X215086429Y-136966427D01*
X215157857Y-136894998D01*
X215300714Y-136823570D01*
X215657857Y-136823570D01*
X215800714Y-136894998D01*
X215872143Y-136966427D01*
X215943571Y-137109284D01*
X215943571Y-137466427D01*
X215872143Y-137609284D01*
X215800714Y-137680713D01*
X214443571Y-135894999D02*
X214443571Y-135752142D01*
X214515000Y-135609285D01*
X214586429Y-135537856D01*
X214729286Y-135466427D01*
X215015000Y-135394999D01*
X215372143Y-135394999D01*
X215657857Y-135466427D01*
X215800714Y-135537856D01*
X215872143Y-135609285D01*
X215943571Y-135752142D01*
X215943571Y-135894999D01*
X215872143Y-136037856D01*
X215800714Y-136109285D01*
X215657857Y-136180713D01*
X215372143Y-136252142D01*
X215015000Y-136252142D01*
X214729286Y-136180713D01*
X214586429Y-136109285D01*
X214515000Y-136037856D01*
X214443571Y-135894999D01*
X214443571Y-134466428D02*
X214443571Y-134323571D01*
X214515000Y-134180714D01*
X214586429Y-134109285D01*
X214729286Y-134037856D01*
X215015000Y-133966428D01*
X215372143Y-133966428D01*
X215657857Y-134037856D01*
X215800714Y-134109285D01*
X215872143Y-134180714D01*
X215943571Y-134323571D01*
X215943571Y-134466428D01*
X215872143Y-134609285D01*
X215800714Y-134680714D01*
X215657857Y-134752142D01*
X215372143Y-134823571D01*
X215015000Y-134823571D01*
X214729286Y-134752142D01*
X214586429Y-134680714D01*
X214515000Y-134609285D01*
X214443571Y-134466428D01*
X214443571Y-133037857D02*
X214443571Y-132895000D01*
X214515000Y-132752143D01*
X214586429Y-132680714D01*
X214729286Y-132609285D01*
X215015000Y-132537857D01*
X215372143Y-132537857D01*
X215657857Y-132609285D01*
X215800714Y-132680714D01*
X215872143Y-132752143D01*
X215943571Y-132895000D01*
X215943571Y-133037857D01*
X215872143Y-133180714D01*
X215800714Y-133252143D01*
X215657857Y-133323571D01*
X215372143Y-133395000D01*
X215015000Y-133395000D01*
X214729286Y-133323571D01*
X214586429Y-133252143D01*
X214515000Y-133180714D01*
X214443571Y-133037857D01*
X163643571Y-155823570D02*
X165143571Y-155466427D01*
X164072143Y-155180713D01*
X165143571Y-154894999D01*
X163643571Y-154537856D01*
X165143571Y-153323570D02*
X164357857Y-153323570D01*
X164215000Y-153394999D01*
X164143571Y-153537856D01*
X164143571Y-153823570D01*
X164215000Y-153966427D01*
X165072143Y-153323570D02*
X165143571Y-153466427D01*
X165143571Y-153823570D01*
X165072143Y-153966427D01*
X164929286Y-154037856D01*
X164786429Y-154037856D01*
X164643571Y-153966427D01*
X164572143Y-153823570D01*
X164572143Y-153466427D01*
X164500714Y-153323570D01*
X165072143Y-152680713D02*
X165143571Y-152537856D01*
X165143571Y-152252141D01*
X165072143Y-152109284D01*
X164929286Y-152037856D01*
X164857857Y-152037856D01*
X164715000Y-152109284D01*
X164643571Y-152252141D01*
X164643571Y-152466427D01*
X164572143Y-152609284D01*
X164429286Y-152680713D01*
X164357857Y-152680713D01*
X164215000Y-152609284D01*
X164143571Y-152466427D01*
X164143571Y-152252141D01*
X164215000Y-152109284D01*
X165072143Y-151466427D02*
X165143571Y-151323570D01*
X165143571Y-151037855D01*
X165072143Y-150894998D01*
X164929286Y-150823570D01*
X164857857Y-150823570D01*
X164715000Y-150894998D01*
X164643571Y-151037855D01*
X164643571Y-151252141D01*
X164572143Y-151394998D01*
X164429286Y-151466427D01*
X164357857Y-151466427D01*
X164215000Y-151394998D01*
X164143571Y-151252141D01*
X164143571Y-151037855D01*
X164215000Y-150894998D01*
X165072143Y-149609284D02*
X165143571Y-149752141D01*
X165143571Y-150037855D01*
X165072143Y-150180712D01*
X164929286Y-150252141D01*
X164357857Y-150252141D01*
X164215000Y-150180712D01*
X164143571Y-150037855D01*
X164143571Y-149752141D01*
X164215000Y-149609284D01*
X164357857Y-149537855D01*
X164500714Y-149537855D01*
X164643571Y-150252141D01*
X165143571Y-148894998D02*
X164143571Y-148894998D01*
X164429286Y-148894998D02*
X164286429Y-148823570D01*
X164215000Y-148752141D01*
X164143571Y-148609284D01*
X164143571Y-148466427D01*
X165072143Y-148037856D02*
X165143571Y-147894999D01*
X165143571Y-147609284D01*
X165072143Y-147466427D01*
X164929286Y-147394999D01*
X164857857Y-147394999D01*
X164715000Y-147466427D01*
X164643571Y-147609284D01*
X164643571Y-147823570D01*
X164572143Y-147966427D01*
X164429286Y-148037856D01*
X164357857Y-148037856D01*
X164215000Y-147966427D01*
X164143571Y-147823570D01*
X164143571Y-147609284D01*
X164215000Y-147466427D01*
X165072143Y-146109284D02*
X165143571Y-146252141D01*
X165143571Y-146537855D01*
X165072143Y-146680713D01*
X165000714Y-146752141D01*
X164857857Y-146823570D01*
X164429286Y-146823570D01*
X164286429Y-146752141D01*
X164215000Y-146680713D01*
X164143571Y-146537855D01*
X164143571Y-146252141D01*
X164215000Y-146109284D01*
X165143571Y-145466427D02*
X163643571Y-145466427D01*
X165143571Y-144823570D02*
X164357857Y-144823570D01*
X164215000Y-144894999D01*
X164143571Y-145037856D01*
X164143571Y-145252141D01*
X164215000Y-145394999D01*
X164286429Y-145466427D01*
X165143571Y-143466427D02*
X164357857Y-143466427D01*
X164215000Y-143537856D01*
X164143571Y-143680713D01*
X164143571Y-143966427D01*
X164215000Y-144109284D01*
X165072143Y-143466427D02*
X165143571Y-143609284D01*
X165143571Y-143966427D01*
X165072143Y-144109284D01*
X164929286Y-144180713D01*
X164786429Y-144180713D01*
X164643571Y-144109284D01*
X164572143Y-143966427D01*
X164572143Y-143609284D01*
X164500714Y-143466427D01*
X165143571Y-142109284D02*
X163643571Y-142109284D01*
X165072143Y-142109284D02*
X165143571Y-142252141D01*
X165143571Y-142537855D01*
X165072143Y-142680713D01*
X165000714Y-142752141D01*
X164857857Y-142823570D01*
X164429286Y-142823570D01*
X164286429Y-142752141D01*
X164215000Y-142680713D01*
X164143571Y-142537855D01*
X164143571Y-142252141D01*
X164215000Y-142109284D01*
X165072143Y-140823570D02*
X165143571Y-140966427D01*
X165143571Y-141252141D01*
X165072143Y-141394998D01*
X164929286Y-141466427D01*
X164357857Y-141466427D01*
X164215000Y-141394998D01*
X164143571Y-141252141D01*
X164143571Y-140966427D01*
X164215000Y-140823570D01*
X164357857Y-140752141D01*
X164500714Y-140752141D01*
X164643571Y-141466427D01*
X164143571Y-140109284D02*
X165143571Y-140109284D01*
X164286429Y-140109284D02*
X164215000Y-140037856D01*
X164143571Y-139894998D01*
X164143571Y-139680713D01*
X164215000Y-139537856D01*
X164357857Y-139466427D01*
X165143571Y-139466427D01*
X163643571Y-136894998D02*
X163643571Y-137609284D01*
X164357857Y-137680713D01*
X164286429Y-137609284D01*
X164215000Y-137466427D01*
X164215000Y-137109284D01*
X164286429Y-136966427D01*
X164357857Y-136894998D01*
X164500714Y-136823570D01*
X164857857Y-136823570D01*
X165000714Y-136894998D01*
X165072143Y-136966427D01*
X165143571Y-137109284D01*
X165143571Y-137466427D01*
X165072143Y-137609284D01*
X165000714Y-137680713D01*
X163643571Y-135894999D02*
X163643571Y-135752142D01*
X163715000Y-135609285D01*
X163786429Y-135537856D01*
X163929286Y-135466427D01*
X164215000Y-135394999D01*
X164572143Y-135394999D01*
X164857857Y-135466427D01*
X165000714Y-135537856D01*
X165072143Y-135609285D01*
X165143571Y-135752142D01*
X165143571Y-135894999D01*
X165072143Y-136037856D01*
X165000714Y-136109285D01*
X164857857Y-136180713D01*
X164572143Y-136252142D01*
X164215000Y-136252142D01*
X163929286Y-136180713D01*
X163786429Y-136109285D01*
X163715000Y-136037856D01*
X163643571Y-135894999D01*
X163643571Y-134466428D02*
X163643571Y-134323571D01*
X163715000Y-134180714D01*
X163786429Y-134109285D01*
X163929286Y-134037856D01*
X164215000Y-133966428D01*
X164572143Y-133966428D01*
X164857857Y-134037856D01*
X165000714Y-134109285D01*
X165072143Y-134180714D01*
X165143571Y-134323571D01*
X165143571Y-134466428D01*
X165072143Y-134609285D01*
X165000714Y-134680714D01*
X164857857Y-134752142D01*
X164572143Y-134823571D01*
X164215000Y-134823571D01*
X163929286Y-134752142D01*
X163786429Y-134680714D01*
X163715000Y-134609285D01*
X163643571Y-134466428D01*
X163643571Y-133037857D02*
X163643571Y-132895000D01*
X163715000Y-132752143D01*
X163786429Y-132680714D01*
X163929286Y-132609285D01*
X164215000Y-132537857D01*
X164572143Y-132537857D01*
X164857857Y-132609285D01*
X165000714Y-132680714D01*
X165072143Y-132752143D01*
X165143571Y-132895000D01*
X165143571Y-133037857D01*
X165072143Y-133180714D01*
X165000714Y-133252143D01*
X164857857Y-133323571D01*
X164572143Y-133395000D01*
X164215000Y-133395000D01*
X163929286Y-133323571D01*
X163786429Y-133252143D01*
X163715000Y-133180714D01*
X163643571Y-133037857D01*
X177835714Y-61322144D02*
X177907143Y-61250716D01*
X177978571Y-61107859D01*
X177978571Y-60965001D01*
X177907143Y-60822144D01*
X177835714Y-60750716D01*
X177692857Y-60679287D01*
X177550000Y-60679287D01*
X177407143Y-60750716D01*
X177335714Y-60822144D01*
X177264286Y-60965001D01*
X177264286Y-61107859D01*
X177335714Y-61250716D01*
X177407143Y-61322144D01*
X177978571Y-61322144D02*
X177407143Y-61322144D01*
X177335714Y-61393573D01*
X177335714Y-61465001D01*
X177407143Y-61607859D01*
X177550000Y-61679287D01*
X177907143Y-61679287D01*
X178121429Y-61536430D01*
X178264286Y-61322144D01*
X178335714Y-61036430D01*
X178264286Y-60750716D01*
X178121429Y-60536430D01*
X177907143Y-60393573D01*
X177621429Y-60322144D01*
X177335714Y-60393573D01*
X177121429Y-60536430D01*
X176978571Y-60750716D01*
X176907143Y-61036430D01*
X176978571Y-61322144D01*
X177121429Y-61536430D01*
X177121429Y-62322144D02*
X178621429Y-62322144D01*
X178621429Y-62893572D01*
X178550000Y-63036430D01*
X178478571Y-63107858D01*
X178335714Y-63179287D01*
X178121429Y-63179287D01*
X177978571Y-63107858D01*
X177907143Y-63036430D01*
X177835714Y-62893572D01*
X177835714Y-62322144D01*
X177121429Y-64465001D02*
X177907143Y-64465001D01*
X178050000Y-64393572D01*
X178121429Y-64250715D01*
X178121429Y-63965001D01*
X178050000Y-63822144D01*
X177192857Y-64465001D02*
X177121429Y-64322144D01*
X177121429Y-63965001D01*
X177192857Y-63822144D01*
X177335714Y-63750715D01*
X177478571Y-63750715D01*
X177621429Y-63822144D01*
X177692857Y-63965001D01*
X177692857Y-64322144D01*
X177764286Y-64465001D01*
X178121429Y-65822144D02*
X177121429Y-65822144D01*
X178121429Y-65179287D02*
X177335714Y-65179287D01*
X177192857Y-65250715D01*
X177121429Y-65393573D01*
X177121429Y-65607858D01*
X177192857Y-65750715D01*
X177264286Y-65822144D01*
X177121429Y-66750716D02*
X177192857Y-66607858D01*
X177335714Y-66536430D01*
X178621429Y-66536430D01*
X178621429Y-67607858D02*
X178621429Y-67750715D01*
X178550000Y-67893572D01*
X178478571Y-67965001D01*
X178335714Y-68036430D01*
X178050000Y-68107858D01*
X177692857Y-68107858D01*
X177407143Y-68036430D01*
X177264286Y-67965001D01*
X177192857Y-67893572D01*
X177121429Y-67750715D01*
X177121429Y-67607858D01*
X177192857Y-67465001D01*
X177264286Y-67393572D01*
X177407143Y-67322144D01*
X177692857Y-67250715D01*
X178050000Y-67250715D01*
X178335714Y-67322144D01*
X178478571Y-67393572D01*
X178550000Y-67465001D01*
X178621429Y-67607858D01*
X177121429Y-68607858D02*
X178121429Y-69393572D01*
X178121429Y-68607858D02*
X177121429Y-69393572D01*
X177121429Y-70750715D02*
X177121429Y-69893572D01*
X177121429Y-70322144D02*
X178621429Y-70322144D01*
X178407143Y-70179287D01*
X178264286Y-70036429D01*
X178192857Y-69893572D01*
X177264286Y-72250715D02*
X177192857Y-72179286D01*
X177121429Y-71965000D01*
X177121429Y-71822143D01*
X177192857Y-71607858D01*
X177335714Y-71465000D01*
X177478571Y-71393572D01*
X177764286Y-71322143D01*
X177978571Y-71322143D01*
X178264286Y-71393572D01*
X178407143Y-71465000D01*
X178550000Y-71607858D01*
X178621429Y-71822143D01*
X178621429Y-71965000D01*
X178550000Y-72179286D01*
X178478571Y-72250715D01*
X178121429Y-73893572D02*
X177121429Y-74250715D01*
X178121429Y-74607857D01*
X177121429Y-75965000D02*
X177121429Y-75107857D01*
X177121429Y-75536429D02*
X178621429Y-75536429D01*
X178407143Y-75393572D01*
X178264286Y-75250714D01*
X178192857Y-75107857D01*
X177264286Y-76607857D02*
X177192857Y-76679285D01*
X177121429Y-76607857D01*
X177192857Y-76536428D01*
X177264286Y-76607857D01*
X177121429Y-76607857D01*
X177121429Y-78107857D02*
X177121429Y-77250714D01*
X177121429Y-77679286D02*
X178621429Y-77679286D01*
X178407143Y-77536429D01*
X178264286Y-77393571D01*
X178192857Y-77250714D01*
X214443571Y-106293570D02*
X215943571Y-105936427D01*
X214872143Y-105650713D01*
X215943571Y-105364999D01*
X214443571Y-105007856D01*
X215943571Y-103793570D02*
X215157857Y-103793570D01*
X215015000Y-103864999D01*
X214943571Y-104007856D01*
X214943571Y-104293570D01*
X215015000Y-104436427D01*
X215872143Y-103793570D02*
X215943571Y-103936427D01*
X215943571Y-104293570D01*
X215872143Y-104436427D01*
X215729286Y-104507856D01*
X215586429Y-104507856D01*
X215443571Y-104436427D01*
X215372143Y-104293570D01*
X215372143Y-103936427D01*
X215300714Y-103793570D01*
X215872143Y-103150713D02*
X215943571Y-103007856D01*
X215943571Y-102722141D01*
X215872143Y-102579284D01*
X215729286Y-102507856D01*
X215657857Y-102507856D01*
X215515000Y-102579284D01*
X215443571Y-102722141D01*
X215443571Y-102936427D01*
X215372143Y-103079284D01*
X215229286Y-103150713D01*
X215157857Y-103150713D01*
X215015000Y-103079284D01*
X214943571Y-102936427D01*
X214943571Y-102722141D01*
X215015000Y-102579284D01*
X215872143Y-101936427D02*
X215943571Y-101793570D01*
X215943571Y-101507855D01*
X215872143Y-101364998D01*
X215729286Y-101293570D01*
X215657857Y-101293570D01*
X215515000Y-101364998D01*
X215443571Y-101507855D01*
X215443571Y-101722141D01*
X215372143Y-101864998D01*
X215229286Y-101936427D01*
X215157857Y-101936427D01*
X215015000Y-101864998D01*
X214943571Y-101722141D01*
X214943571Y-101507855D01*
X215015000Y-101364998D01*
X215872143Y-100079284D02*
X215943571Y-100222141D01*
X215943571Y-100507855D01*
X215872143Y-100650712D01*
X215729286Y-100722141D01*
X215157857Y-100722141D01*
X215015000Y-100650712D01*
X214943571Y-100507855D01*
X214943571Y-100222141D01*
X215015000Y-100079284D01*
X215157857Y-100007855D01*
X215300714Y-100007855D01*
X215443571Y-100722141D01*
X215943571Y-99364998D02*
X214943571Y-99364998D01*
X215229286Y-99364998D02*
X215086429Y-99293570D01*
X215015000Y-99222141D01*
X214943571Y-99079284D01*
X214943571Y-98936427D01*
X215872143Y-98507856D02*
X215943571Y-98364999D01*
X215943571Y-98079284D01*
X215872143Y-97936427D01*
X215729286Y-97864999D01*
X215657857Y-97864999D01*
X215515000Y-97936427D01*
X215443571Y-98079284D01*
X215443571Y-98293570D01*
X215372143Y-98436427D01*
X215229286Y-98507856D01*
X215157857Y-98507856D01*
X215015000Y-98436427D01*
X214943571Y-98293570D01*
X214943571Y-98079284D01*
X215015000Y-97936427D01*
X215872143Y-96579284D02*
X215943571Y-96722141D01*
X215943571Y-97007855D01*
X215872143Y-97150713D01*
X215800714Y-97222141D01*
X215657857Y-97293570D01*
X215229286Y-97293570D01*
X215086429Y-97222141D01*
X215015000Y-97150713D01*
X214943571Y-97007855D01*
X214943571Y-96722141D01*
X215015000Y-96579284D01*
X215943571Y-95936427D02*
X214443571Y-95936427D01*
X215943571Y-95293570D02*
X215157857Y-95293570D01*
X215015000Y-95364999D01*
X214943571Y-95507856D01*
X214943571Y-95722141D01*
X215015000Y-95864999D01*
X215086429Y-95936427D01*
X215943571Y-93936427D02*
X215157857Y-93936427D01*
X215015000Y-94007856D01*
X214943571Y-94150713D01*
X214943571Y-94436427D01*
X215015000Y-94579284D01*
X215872143Y-93936427D02*
X215943571Y-94079284D01*
X215943571Y-94436427D01*
X215872143Y-94579284D01*
X215729286Y-94650713D01*
X215586429Y-94650713D01*
X215443571Y-94579284D01*
X215372143Y-94436427D01*
X215372143Y-94079284D01*
X215300714Y-93936427D01*
X215943571Y-92579284D02*
X214443571Y-92579284D01*
X215872143Y-92579284D02*
X215943571Y-92722141D01*
X215943571Y-93007855D01*
X215872143Y-93150713D01*
X215800714Y-93222141D01*
X215657857Y-93293570D01*
X215229286Y-93293570D01*
X215086429Y-93222141D01*
X215015000Y-93150713D01*
X214943571Y-93007855D01*
X214943571Y-92722141D01*
X215015000Y-92579284D01*
X215872143Y-91293570D02*
X215943571Y-91436427D01*
X215943571Y-91722141D01*
X215872143Y-91864998D01*
X215729286Y-91936427D01*
X215157857Y-91936427D01*
X215015000Y-91864998D01*
X214943571Y-91722141D01*
X214943571Y-91436427D01*
X215015000Y-91293570D01*
X215157857Y-91222141D01*
X215300714Y-91222141D01*
X215443571Y-91936427D01*
X214943571Y-90579284D02*
X215943571Y-90579284D01*
X215086429Y-90579284D02*
X215015000Y-90507856D01*
X214943571Y-90364998D01*
X214943571Y-90150713D01*
X215015000Y-90007856D01*
X215157857Y-89936427D01*
X215943571Y-89936427D01*
X214443571Y-87364998D02*
X214443571Y-88079284D01*
X215157857Y-88150713D01*
X215086429Y-88079284D01*
X215015000Y-87936427D01*
X215015000Y-87579284D01*
X215086429Y-87436427D01*
X215157857Y-87364998D01*
X215300714Y-87293570D01*
X215657857Y-87293570D01*
X215800714Y-87364998D01*
X215872143Y-87436427D01*
X215943571Y-87579284D01*
X215943571Y-87936427D01*
X215872143Y-88079284D01*
X215800714Y-88150713D01*
X214443571Y-86364999D02*
X214443571Y-86222142D01*
X214515000Y-86079285D01*
X214586429Y-86007856D01*
X214729286Y-85936427D01*
X215015000Y-85864999D01*
X215372143Y-85864999D01*
X215657857Y-85936427D01*
X215800714Y-86007856D01*
X215872143Y-86079285D01*
X215943571Y-86222142D01*
X215943571Y-86364999D01*
X215872143Y-86507856D01*
X215800714Y-86579285D01*
X215657857Y-86650713D01*
X215372143Y-86722142D01*
X215015000Y-86722142D01*
X214729286Y-86650713D01*
X214586429Y-86579285D01*
X214515000Y-86507856D01*
X214443571Y-86364999D01*
X214443571Y-84936428D02*
X214443571Y-84793571D01*
X214515000Y-84650714D01*
X214586429Y-84579285D01*
X214729286Y-84507856D01*
X215015000Y-84436428D01*
X215372143Y-84436428D01*
X215657857Y-84507856D01*
X215800714Y-84579285D01*
X215872143Y-84650714D01*
X215943571Y-84793571D01*
X215943571Y-84936428D01*
X215872143Y-85079285D01*
X215800714Y-85150714D01*
X215657857Y-85222142D01*
X215372143Y-85293571D01*
X215015000Y-85293571D01*
X214729286Y-85222142D01*
X214586429Y-85150714D01*
X214515000Y-85079285D01*
X214443571Y-84936428D01*
X214443571Y-83507857D02*
X214443571Y-83365000D01*
X214515000Y-83222143D01*
X214586429Y-83150714D01*
X214729286Y-83079285D01*
X215015000Y-83007857D01*
X215372143Y-83007857D01*
X215657857Y-83079285D01*
X215800714Y-83150714D01*
X215872143Y-83222143D01*
X215943571Y-83365000D01*
X215943571Y-83507857D01*
X215872143Y-83650714D01*
X215800714Y-83722143D01*
X215657857Y-83793571D01*
X215372143Y-83865000D01*
X215015000Y-83865000D01*
X214729286Y-83793571D01*
X214586429Y-83722143D01*
X214515000Y-83650714D01*
X214443571Y-83507857D01*
X163643571Y-106293570D02*
X165143571Y-105936427D01*
X164072143Y-105650713D01*
X165143571Y-105364999D01*
X163643571Y-105007856D01*
X165143571Y-103793570D02*
X164357857Y-103793570D01*
X164215000Y-103864999D01*
X164143571Y-104007856D01*
X164143571Y-104293570D01*
X164215000Y-104436427D01*
X165072143Y-103793570D02*
X165143571Y-103936427D01*
X165143571Y-104293570D01*
X165072143Y-104436427D01*
X164929286Y-104507856D01*
X164786429Y-104507856D01*
X164643571Y-104436427D01*
X164572143Y-104293570D01*
X164572143Y-103936427D01*
X164500714Y-103793570D01*
X165072143Y-103150713D02*
X165143571Y-103007856D01*
X165143571Y-102722141D01*
X165072143Y-102579284D01*
X164929286Y-102507856D01*
X164857857Y-102507856D01*
X164715000Y-102579284D01*
X164643571Y-102722141D01*
X164643571Y-102936427D01*
X164572143Y-103079284D01*
X164429286Y-103150713D01*
X164357857Y-103150713D01*
X164215000Y-103079284D01*
X164143571Y-102936427D01*
X164143571Y-102722141D01*
X164215000Y-102579284D01*
X165072143Y-101936427D02*
X165143571Y-101793570D01*
X165143571Y-101507855D01*
X165072143Y-101364998D01*
X164929286Y-101293570D01*
X164857857Y-101293570D01*
X164715000Y-101364998D01*
X164643571Y-101507855D01*
X164643571Y-101722141D01*
X164572143Y-101864998D01*
X164429286Y-101936427D01*
X164357857Y-101936427D01*
X164215000Y-101864998D01*
X164143571Y-101722141D01*
X164143571Y-101507855D01*
X164215000Y-101364998D01*
X165072143Y-100079284D02*
X165143571Y-100222141D01*
X165143571Y-100507855D01*
X165072143Y-100650712D01*
X164929286Y-100722141D01*
X164357857Y-100722141D01*
X164215000Y-100650712D01*
X164143571Y-100507855D01*
X164143571Y-100222141D01*
X164215000Y-100079284D01*
X164357857Y-100007855D01*
X164500714Y-100007855D01*
X164643571Y-100722141D01*
X165143571Y-99364998D02*
X164143571Y-99364998D01*
X164429286Y-99364998D02*
X164286429Y-99293570D01*
X164215000Y-99222141D01*
X164143571Y-99079284D01*
X164143571Y-98936427D01*
X165072143Y-98507856D02*
X165143571Y-98364999D01*
X165143571Y-98079284D01*
X165072143Y-97936427D01*
X164929286Y-97864999D01*
X164857857Y-97864999D01*
X164715000Y-97936427D01*
X164643571Y-98079284D01*
X164643571Y-98293570D01*
X164572143Y-98436427D01*
X164429286Y-98507856D01*
X164357857Y-98507856D01*
X164215000Y-98436427D01*
X164143571Y-98293570D01*
X164143571Y-98079284D01*
X164215000Y-97936427D01*
X165072143Y-96579284D02*
X165143571Y-96722141D01*
X165143571Y-97007855D01*
X165072143Y-97150713D01*
X165000714Y-97222141D01*
X164857857Y-97293570D01*
X164429286Y-97293570D01*
X164286429Y-97222141D01*
X164215000Y-97150713D01*
X164143571Y-97007855D01*
X164143571Y-96722141D01*
X164215000Y-96579284D01*
X165143571Y-95936427D02*
X163643571Y-95936427D01*
X165143571Y-95293570D02*
X164357857Y-95293570D01*
X164215000Y-95364999D01*
X164143571Y-95507856D01*
X164143571Y-95722141D01*
X164215000Y-95864999D01*
X164286429Y-95936427D01*
X165143571Y-93936427D02*
X164357857Y-93936427D01*
X164215000Y-94007856D01*
X164143571Y-94150713D01*
X164143571Y-94436427D01*
X164215000Y-94579284D01*
X165072143Y-93936427D02*
X165143571Y-94079284D01*
X165143571Y-94436427D01*
X165072143Y-94579284D01*
X164929286Y-94650713D01*
X164786429Y-94650713D01*
X164643571Y-94579284D01*
X164572143Y-94436427D01*
X164572143Y-94079284D01*
X164500714Y-93936427D01*
X165143571Y-92579284D02*
X163643571Y-92579284D01*
X165072143Y-92579284D02*
X165143571Y-92722141D01*
X165143571Y-93007855D01*
X165072143Y-93150713D01*
X165000714Y-93222141D01*
X164857857Y-93293570D01*
X164429286Y-93293570D01*
X164286429Y-93222141D01*
X164215000Y-93150713D01*
X164143571Y-93007855D01*
X164143571Y-92722141D01*
X164215000Y-92579284D01*
X165072143Y-91293570D02*
X165143571Y-91436427D01*
X165143571Y-91722141D01*
X165072143Y-91864998D01*
X164929286Y-91936427D01*
X164357857Y-91936427D01*
X164215000Y-91864998D01*
X164143571Y-91722141D01*
X164143571Y-91436427D01*
X164215000Y-91293570D01*
X164357857Y-91222141D01*
X164500714Y-91222141D01*
X164643571Y-91936427D01*
X164143571Y-90579284D02*
X165143571Y-90579284D01*
X164286429Y-90579284D02*
X164215000Y-90507856D01*
X164143571Y-90364998D01*
X164143571Y-90150713D01*
X164215000Y-90007856D01*
X164357857Y-89936427D01*
X165143571Y-89936427D01*
X163643571Y-87364998D02*
X163643571Y-88079284D01*
X164357857Y-88150713D01*
X164286429Y-88079284D01*
X164215000Y-87936427D01*
X164215000Y-87579284D01*
X164286429Y-87436427D01*
X164357857Y-87364998D01*
X164500714Y-87293570D01*
X164857857Y-87293570D01*
X165000714Y-87364998D01*
X165072143Y-87436427D01*
X165143571Y-87579284D01*
X165143571Y-87936427D01*
X165072143Y-88079284D01*
X165000714Y-88150713D01*
X163643571Y-86364999D02*
X163643571Y-86222142D01*
X163715000Y-86079285D01*
X163786429Y-86007856D01*
X163929286Y-85936427D01*
X164215000Y-85864999D01*
X164572143Y-85864999D01*
X164857857Y-85936427D01*
X165000714Y-86007856D01*
X165072143Y-86079285D01*
X165143571Y-86222142D01*
X165143571Y-86364999D01*
X165072143Y-86507856D01*
X165000714Y-86579285D01*
X164857857Y-86650713D01*
X164572143Y-86722142D01*
X164215000Y-86722142D01*
X163929286Y-86650713D01*
X163786429Y-86579285D01*
X163715000Y-86507856D01*
X163643571Y-86364999D01*
X163643571Y-84936428D02*
X163643571Y-84793571D01*
X163715000Y-84650714D01*
X163786429Y-84579285D01*
X163929286Y-84507856D01*
X164215000Y-84436428D01*
X164572143Y-84436428D01*
X164857857Y-84507856D01*
X165000714Y-84579285D01*
X165072143Y-84650714D01*
X165143571Y-84793571D01*
X165143571Y-84936428D01*
X165072143Y-85079285D01*
X165000714Y-85150714D01*
X164857857Y-85222142D01*
X164572143Y-85293571D01*
X164215000Y-85293571D01*
X163929286Y-85222142D01*
X163786429Y-85150714D01*
X163715000Y-85079285D01*
X163643571Y-84936428D01*
X163643571Y-83507857D02*
X163643571Y-83365000D01*
X163715000Y-83222143D01*
X163786429Y-83150714D01*
X163929286Y-83079285D01*
X164215000Y-83007857D01*
X164572143Y-83007857D01*
X164857857Y-83079285D01*
X165000714Y-83150714D01*
X165072143Y-83222143D01*
X165143571Y-83365000D01*
X165143571Y-83507857D01*
X165072143Y-83650714D01*
X165000714Y-83722143D01*
X164857857Y-83793571D01*
X164572143Y-83865000D01*
X164215000Y-83865000D01*
X163929286Y-83793571D01*
X163786429Y-83722143D01*
X163715000Y-83650714D01*
X163643571Y-83507857D01*
X127035714Y-61322144D02*
X127107143Y-61250716D01*
X127178571Y-61107859D01*
X127178571Y-60965001D01*
X127107143Y-60822144D01*
X127035714Y-60750716D01*
X126892857Y-60679287D01*
X126750000Y-60679287D01*
X126607143Y-60750716D01*
X126535714Y-60822144D01*
X126464286Y-60965001D01*
X126464286Y-61107859D01*
X126535714Y-61250716D01*
X126607143Y-61322144D01*
X127178571Y-61322144D02*
X126607143Y-61322144D01*
X126535714Y-61393573D01*
X126535714Y-61465001D01*
X126607143Y-61607859D01*
X126750000Y-61679287D01*
X127107143Y-61679287D01*
X127321429Y-61536430D01*
X127464286Y-61322144D01*
X127535714Y-61036430D01*
X127464286Y-60750716D01*
X127321429Y-60536430D01*
X127107143Y-60393573D01*
X126821429Y-60322144D01*
X126535714Y-60393573D01*
X126321429Y-60536430D01*
X126178571Y-60750716D01*
X126107143Y-61036430D01*
X126178571Y-61322144D01*
X126321429Y-61536430D01*
X126321429Y-62322144D02*
X127821429Y-62322144D01*
X127821429Y-62893572D01*
X127750000Y-63036430D01*
X127678571Y-63107858D01*
X127535714Y-63179287D01*
X127321429Y-63179287D01*
X127178571Y-63107858D01*
X127107143Y-63036430D01*
X127035714Y-62893572D01*
X127035714Y-62322144D01*
X126321429Y-64465001D02*
X127107143Y-64465001D01*
X127250000Y-64393572D01*
X127321429Y-64250715D01*
X127321429Y-63965001D01*
X127250000Y-63822144D01*
X126392857Y-64465001D02*
X126321429Y-64322144D01*
X126321429Y-63965001D01*
X126392857Y-63822144D01*
X126535714Y-63750715D01*
X126678571Y-63750715D01*
X126821429Y-63822144D01*
X126892857Y-63965001D01*
X126892857Y-64322144D01*
X126964286Y-64465001D01*
X127321429Y-65822144D02*
X126321429Y-65822144D01*
X127321429Y-65179287D02*
X126535714Y-65179287D01*
X126392857Y-65250715D01*
X126321429Y-65393573D01*
X126321429Y-65607858D01*
X126392857Y-65750715D01*
X126464286Y-65822144D01*
X126321429Y-66750716D02*
X126392857Y-66607858D01*
X126535714Y-66536430D01*
X127821429Y-66536430D01*
X127821429Y-67607858D02*
X127821429Y-67750715D01*
X127750000Y-67893572D01*
X127678571Y-67965001D01*
X127535714Y-68036430D01*
X127250000Y-68107858D01*
X126892857Y-68107858D01*
X126607143Y-68036430D01*
X126464286Y-67965001D01*
X126392857Y-67893572D01*
X126321429Y-67750715D01*
X126321429Y-67607858D01*
X126392857Y-67465001D01*
X126464286Y-67393572D01*
X126607143Y-67322144D01*
X126892857Y-67250715D01*
X127250000Y-67250715D01*
X127535714Y-67322144D01*
X127678571Y-67393572D01*
X127750000Y-67465001D01*
X127821429Y-67607858D01*
X126321429Y-68607858D02*
X127321429Y-69393572D01*
X127321429Y-68607858D02*
X126321429Y-69393572D01*
X126321429Y-70750715D02*
X126321429Y-69893572D01*
X126321429Y-70322144D02*
X127821429Y-70322144D01*
X127607143Y-70179287D01*
X127464286Y-70036429D01*
X127392857Y-69893572D01*
X126464286Y-72250715D02*
X126392857Y-72179286D01*
X126321429Y-71965000D01*
X126321429Y-71822143D01*
X126392857Y-71607858D01*
X126535714Y-71465000D01*
X126678571Y-71393572D01*
X126964286Y-71322143D01*
X127178571Y-71322143D01*
X127464286Y-71393572D01*
X127607143Y-71465000D01*
X127750000Y-71607858D01*
X127821429Y-71822143D01*
X127821429Y-71965000D01*
X127750000Y-72179286D01*
X127678571Y-72250715D01*
X127321429Y-73893572D02*
X126321429Y-74250715D01*
X127321429Y-74607857D01*
X126321429Y-75965000D02*
X126321429Y-75107857D01*
X126321429Y-75536429D02*
X127821429Y-75536429D01*
X127607143Y-75393572D01*
X127464286Y-75250714D01*
X127392857Y-75107857D01*
X126464286Y-76607857D02*
X126392857Y-76679285D01*
X126321429Y-76607857D01*
X126392857Y-76536428D01*
X126464286Y-76607857D01*
X126321429Y-76607857D01*
X126321429Y-78107857D02*
X126321429Y-77250714D01*
X126321429Y-77679286D02*
X127821429Y-77679286D01*
X127607143Y-77536429D01*
X127464286Y-77393571D01*
X127392857Y-77250714D01*
D12*
X162610000Y-119490000D02*
X175210000Y-119490000D01*
X175210000Y-119490000D02*
X175210000Y-109140000D01*
X175210000Y-109140000D02*
X174260000Y-109140000D01*
X174260000Y-109140000D02*
X174510000Y-108640000D01*
X174510000Y-108640000D02*
X172610000Y-108640000D01*
X172610000Y-108640000D02*
X172560000Y-108640000D01*
X172560000Y-108640000D02*
X172810000Y-109140000D01*
X172810000Y-109140000D02*
X167410000Y-109140000D01*
X167410000Y-109140000D02*
X167710000Y-108640000D01*
X167710000Y-108640000D02*
X162610000Y-108640000D01*
X162610000Y-108640000D02*
X162610000Y-119490000D01*
X162610000Y-130920000D02*
X175210000Y-130920000D01*
X175210000Y-130920000D02*
X175210000Y-120570000D01*
X175210000Y-120570000D02*
X174260000Y-120570000D01*
X174260000Y-120570000D02*
X174510000Y-120070000D01*
X174510000Y-120070000D02*
X172610000Y-120070000D01*
X172610000Y-120070000D02*
X172560000Y-120070000D01*
X172560000Y-120070000D02*
X172810000Y-120570000D01*
X172810000Y-120570000D02*
X167410000Y-120570000D01*
X167410000Y-120570000D02*
X167710000Y-120070000D01*
X167710000Y-120070000D02*
X162610000Y-120070000D01*
X162610000Y-120070000D02*
X162610000Y-130920000D01*
X161540000Y-112280000D02*
X153420000Y-112280000D01*
X153420000Y-112280000D02*
X153420000Y-121400000D01*
X153420000Y-121400000D02*
X161540000Y-121400000D01*
X161540000Y-121400000D02*
X161540000Y-112280000D01*
X157480000Y-112270000D02*
X157480000Y-112280000D01*
X157480000Y-121410000D02*
X157480000Y-121400000D01*
X161540000Y-113690000D02*
X153420000Y-113690000D01*
D13*
X127909320Y-108468160D02*
X151490680Y-108468160D01*
X151490680Y-108468160D02*
X151485600Y-122656600D01*
X151485600Y-122656600D02*
X127899160Y-122580400D01*
X127899160Y-122580400D02*
X127899160Y-108468160D01*
X127899160Y-108468160D02*
X127944880Y-108493560D01*
D12*
X149190000Y-126020000D02*
X149190000Y-125690000D01*
X149190000Y-125690000D02*
X155610000Y-125690000D01*
X155610000Y-125690000D02*
X155610000Y-126020000D01*
X149190000Y-127980000D02*
X149190000Y-128310000D01*
X149190000Y-128310000D02*
X155610000Y-128310000D01*
X155610000Y-128310000D02*
X155610000Y-127980000D01*
D13*
X178709320Y-108468160D02*
X202290680Y-108468160D01*
X202290680Y-108468160D02*
X202285600Y-122656600D01*
X202285600Y-122656600D02*
X178699160Y-122580400D01*
X178699160Y-122580400D02*
X178699160Y-108468160D01*
X178699160Y-108468160D02*
X178744880Y-108493560D01*
D12*
X199990000Y-126020000D02*
X199990000Y-125690000D01*
X199990000Y-125690000D02*
X206410000Y-125690000D01*
X206410000Y-125690000D02*
X206410000Y-126020000D01*
X199990000Y-127980000D02*
X199990000Y-128310000D01*
X199990000Y-128310000D02*
X206410000Y-128310000D01*
X206410000Y-128310000D02*
X206410000Y-127980000D01*
D13*
X212610000Y-130180000D02*
X179530000Y-130180000D01*
X177530000Y-132180000D02*
X177530000Y-154840000D01*
X179530000Y-156840000D02*
X205610000Y-156840000D01*
X212610000Y-154690000D02*
X212610000Y-146830000D01*
X212610000Y-146830000D02*
X211610000Y-146830000D01*
X211610000Y-146830000D02*
X211610000Y-138610000D01*
X211610000Y-138610000D02*
X212610000Y-138610000D01*
X212610000Y-138610000D02*
X212610000Y-130180001D01*
X177530000Y-154840000D02*
G75*
G03X179530000Y-156840000I2000000J0D01*
G01*
X179530000Y-130180000D02*
G75*
G03X177530000Y-132180000I0J-2000000D01*
G01*
X212610000Y-154690000D02*
X206610000Y-154690000D01*
X206610000Y-154690000D02*
G75*
G03X205610000Y-155690000I0J-1000000D01*
G01*
X205610000Y-155680000D02*
X205610000Y-156840000D01*
X205610000Y-156840000D02*
X205610000Y-156840000D01*
D12*
X208188000Y-152110000D02*
X208188000Y-152440000D01*
X208188000Y-152440000D02*
X201768000Y-152440000D01*
X201768000Y-152440000D02*
X201768000Y-152110000D01*
X208188000Y-150150000D02*
X208188000Y-149820000D01*
X208188000Y-149820000D02*
X201768000Y-149820000D01*
X201768000Y-149820000D02*
X201768000Y-150150000D01*
X172276392Y-135487665D02*
G75*
G03X172119484Y-138720000I1078608J-1672335D01*
G01*
X174433608Y-135487665D02*
G75*
G02X174590516Y-138720000I-1078608J-1672335D01*
G01*
X172275163Y-136118870D02*
G75*
G03X172275000Y-138200961I1079837J-1041130D01*
G01*
X174434837Y-136118870D02*
G75*
G02X174435000Y-138200961I-1079837J-1041130D01*
G01*
X172119000Y-138720000D02*
X172275000Y-138720000D01*
X174435000Y-138720000D02*
X174591000Y-138720000D01*
X190592000Y-150150000D02*
X190592000Y-149820000D01*
X190592000Y-149820000D02*
X197012000Y-149820000D01*
X197012000Y-149820000D02*
X197012000Y-150150000D01*
X190592000Y-152110000D02*
X190592000Y-152440000D01*
X190592000Y-152440000D02*
X197012000Y-152440000D01*
X197012000Y-152440000D02*
X197012000Y-152110000D01*
X179416000Y-150150000D02*
X179416000Y-149820000D01*
X179416000Y-149820000D02*
X185836000Y-149820000D01*
X185836000Y-149820000D02*
X185836000Y-150150000D01*
X179416000Y-152110000D02*
X179416000Y-152440000D01*
X179416000Y-152440000D02*
X185836000Y-152440000D01*
X185836000Y-152440000D02*
X185836000Y-152110000D01*
X172276392Y-145647665D02*
G75*
G03X172119484Y-148880000I1078608J-1672335D01*
G01*
X174433608Y-145647665D02*
G75*
G02X174590516Y-148880000I-1078608J-1672335D01*
G01*
X172275163Y-146278870D02*
G75*
G03X172275000Y-148360961I1079837J-1041130D01*
G01*
X174434837Y-146278870D02*
G75*
G02X174435000Y-148360961I-1079837J-1041130D01*
G01*
X172119000Y-148880000D02*
X172275000Y-148880000D01*
X174435000Y-148880000D02*
X174591000Y-148880000D01*
X172276392Y-140567665D02*
G75*
G03X172119484Y-143800000I1078608J-1672335D01*
G01*
X174433608Y-140567665D02*
G75*
G02X174590516Y-143800000I-1078608J-1672335D01*
G01*
X172275163Y-141198870D02*
G75*
G03X172275000Y-143280961I1079837J-1041130D01*
G01*
X174434837Y-141198870D02*
G75*
G02X174435000Y-143280961I-1079837J-1041130D01*
G01*
X172119000Y-143800000D02*
X172275000Y-143800000D01*
X174435000Y-143800000D02*
X174591000Y-143800000D01*
X223076392Y-135487665D02*
G75*
G03X222919484Y-138720000I1078608J-1672335D01*
G01*
X225233608Y-135487665D02*
G75*
G02X225390516Y-138720000I-1078608J-1672335D01*
G01*
X223075163Y-136118870D02*
G75*
G03X223075000Y-138200961I1079837J-1041130D01*
G01*
X225234837Y-136118870D02*
G75*
G02X225235000Y-138200961I-1079837J-1041130D01*
G01*
X222919000Y-138720000D02*
X223075000Y-138720000D01*
X225235000Y-138720000D02*
X225391000Y-138720000D01*
X223076392Y-140567665D02*
G75*
G03X222919484Y-143800000I1078608J-1672335D01*
G01*
X225233608Y-140567665D02*
G75*
G02X225390516Y-143800000I-1078608J-1672335D01*
G01*
X223075163Y-141198870D02*
G75*
G03X223075000Y-143280961I1079837J-1041130D01*
G01*
X225234837Y-141198870D02*
G75*
G02X225235000Y-143280961I-1079837J-1041130D01*
G01*
X222919000Y-143800000D02*
X223075000Y-143800000D01*
X225235000Y-143800000D02*
X225391000Y-143800000D01*
X212340000Y-112280000D02*
X204220000Y-112280000D01*
X204220000Y-112280000D02*
X204220000Y-121400000D01*
X204220000Y-121400000D02*
X212340000Y-121400000D01*
X212340000Y-121400000D02*
X212340000Y-112280000D01*
X208280000Y-112270000D02*
X208280000Y-112280000D01*
X208280000Y-121410000D02*
X208280000Y-121400000D01*
X212340000Y-113690000D02*
X204220000Y-113690000D01*
X213410000Y-119490000D02*
X226010000Y-119490000D01*
X226010000Y-119490000D02*
X226010000Y-109140000D01*
X226010000Y-109140000D02*
X225060000Y-109140000D01*
X225060000Y-109140000D02*
X225310000Y-108640000D01*
X225310000Y-108640000D02*
X223410000Y-108640000D01*
X223410000Y-108640000D02*
X223360000Y-108640000D01*
X223360000Y-108640000D02*
X223610000Y-109140000D01*
X223610000Y-109140000D02*
X218210000Y-109140000D01*
X218210000Y-109140000D02*
X218510000Y-108640000D01*
X218510000Y-108640000D02*
X213410000Y-108640000D01*
X213410000Y-108640000D02*
X213410000Y-119490000D01*
X213410000Y-130920000D02*
X226010000Y-130920000D01*
X226010000Y-130920000D02*
X226010000Y-120570000D01*
X226010000Y-120570000D02*
X225060000Y-120570000D01*
X225060000Y-120570000D02*
X225310000Y-120070000D01*
X225310000Y-120070000D02*
X223410000Y-120070000D01*
X223410000Y-120070000D02*
X223360000Y-120070000D01*
X223360000Y-120070000D02*
X223610000Y-120570000D01*
X223610000Y-120570000D02*
X218210000Y-120570000D01*
X218210000Y-120570000D02*
X218510000Y-120070000D01*
X218510000Y-120070000D02*
X213410000Y-120070000D01*
X213410000Y-120070000D02*
X213410000Y-130920000D01*
X223076392Y-145647665D02*
G75*
G03X222919484Y-148880000I1078608J-1672335D01*
G01*
X225233608Y-145647665D02*
G75*
G02X225390516Y-148880000I-1078608J-1672335D01*
G01*
X223075163Y-146278870D02*
G75*
G03X223075000Y-148360961I1079837J-1041130D01*
G01*
X225234837Y-146278870D02*
G75*
G02X225235000Y-148360961I-1079837J-1041130D01*
G01*
X222919000Y-148880000D02*
X223075000Y-148880000D01*
X225235000Y-148880000D02*
X225391000Y-148880000D01*
X139792000Y-150150000D02*
X139792000Y-149820000D01*
X139792000Y-149820000D02*
X146212000Y-149820000D01*
X146212000Y-149820000D02*
X146212000Y-150150000D01*
X139792000Y-152110000D02*
X139792000Y-152440000D01*
X139792000Y-152440000D02*
X146212000Y-152440000D01*
X146212000Y-152440000D02*
X146212000Y-152110000D01*
X128616000Y-150150000D02*
X128616000Y-149820000D01*
X128616000Y-149820000D02*
X135036000Y-149820000D01*
X135036000Y-149820000D02*
X135036000Y-150150000D01*
X128616000Y-152110000D02*
X128616000Y-152440000D01*
X128616000Y-152440000D02*
X135036000Y-152440000D01*
X135036000Y-152440000D02*
X135036000Y-152110000D01*
X157388000Y-152110000D02*
X157388000Y-152440000D01*
X157388000Y-152440000D02*
X150968000Y-152440000D01*
X150968000Y-152440000D02*
X150968000Y-152110000D01*
X157388000Y-150150000D02*
X157388000Y-149820000D01*
X157388000Y-149820000D02*
X150968000Y-149820000D01*
X150968000Y-149820000D02*
X150968000Y-150150000D01*
D13*
X161810000Y-130180000D02*
X128730000Y-130180000D01*
X126730000Y-132180000D02*
X126730000Y-154840000D01*
X128730000Y-156840000D02*
X154810000Y-156840000D01*
X161810000Y-154690000D02*
X161810000Y-146830000D01*
X161810000Y-146830000D02*
X160810000Y-146830000D01*
X160810000Y-146830000D02*
X160810000Y-138610000D01*
X160810000Y-138610000D02*
X161810000Y-138610000D01*
X161810000Y-138610000D02*
X161810000Y-130180001D01*
X126730000Y-154840000D02*
G75*
G03X128730000Y-156840000I2000000J0D01*
G01*
X128730000Y-130180000D02*
G75*
G03X126730000Y-132180000I0J-2000000D01*
G01*
X161810000Y-154690000D02*
X155810000Y-154690000D01*
X155810000Y-154690000D02*
G75*
G03X154810000Y-155690000I0J-1000000D01*
G01*
X154810000Y-155680000D02*
X154810000Y-156840000D01*
X154810000Y-156840000D02*
X154810000Y-156840000D01*
D12*
X199990000Y-76490000D02*
X199990000Y-76160000D01*
X199990000Y-76160000D02*
X206410000Y-76160000D01*
X206410000Y-76160000D02*
X206410000Y-76490000D01*
X199990000Y-78450000D02*
X199990000Y-78780000D01*
X199990000Y-78780000D02*
X206410000Y-78780000D01*
X206410000Y-78780000D02*
X206410000Y-78450000D01*
X179416000Y-100620000D02*
X179416000Y-100290000D01*
X179416000Y-100290000D02*
X185836000Y-100290000D01*
X185836000Y-100290000D02*
X185836000Y-100620000D01*
X179416000Y-102580000D02*
X179416000Y-102910000D01*
X179416000Y-102910000D02*
X185836000Y-102910000D01*
X185836000Y-102910000D02*
X185836000Y-102580000D01*
X208188000Y-102580000D02*
X208188000Y-102910000D01*
X208188000Y-102910000D02*
X201768000Y-102910000D01*
X201768000Y-102910000D02*
X201768000Y-102580000D01*
X208188000Y-100620000D02*
X208188000Y-100290000D01*
X208188000Y-100290000D02*
X201768000Y-100290000D01*
X201768000Y-100290000D02*
X201768000Y-100620000D01*
D13*
X212610000Y-80650000D02*
X179530000Y-80650000D01*
X177530000Y-82650000D02*
X177530000Y-105310000D01*
X179530000Y-107310000D02*
X205610000Y-107310000D01*
X212610000Y-105160000D02*
X212610000Y-97300000D01*
X212610000Y-97300000D02*
X211610000Y-97300000D01*
X211610000Y-97300000D02*
X211610000Y-89080000D01*
X211610000Y-89080000D02*
X212610000Y-89080000D01*
X212610000Y-89080000D02*
X212610000Y-80650001D01*
X177530000Y-105310000D02*
G75*
G03X179530000Y-107310000I2000000J0D01*
G01*
X179530000Y-80650000D02*
G75*
G03X177530000Y-82650000I0J-2000000D01*
G01*
X212610000Y-105160000D02*
X206610000Y-105160000D01*
X206610000Y-105160000D02*
G75*
G03X205610000Y-106160000I0J-1000000D01*
G01*
X205610000Y-106150000D02*
X205610000Y-107310000D01*
X205610000Y-107310000D02*
X205610000Y-107310000D01*
D12*
X190592000Y-100620000D02*
X190592000Y-100290000D01*
X190592000Y-100290000D02*
X197012000Y-100290000D01*
X197012000Y-100290000D02*
X197012000Y-100620000D01*
X190592000Y-102580000D02*
X190592000Y-102910000D01*
X190592000Y-102910000D02*
X197012000Y-102910000D01*
X197012000Y-102910000D02*
X197012000Y-102580000D01*
D13*
X178709320Y-58938160D02*
X202290680Y-58938160D01*
X202290680Y-58938160D02*
X202285600Y-73126600D01*
X202285600Y-73126600D02*
X178699160Y-73050400D01*
X178699160Y-73050400D02*
X178699160Y-58938160D01*
X178699160Y-58938160D02*
X178744880Y-58963560D01*
D12*
X212340000Y-62750000D02*
X204220000Y-62750000D01*
X204220000Y-62750000D02*
X204220000Y-71870000D01*
X204220000Y-71870000D02*
X212340000Y-71870000D01*
X212340000Y-71870000D02*
X212340000Y-62750000D01*
X208280000Y-62740000D02*
X208280000Y-62750000D01*
X208280000Y-71880000D02*
X208280000Y-71870000D01*
X212340000Y-64160000D02*
X204220000Y-64160000D01*
X223076392Y-85957665D02*
G75*
G03X222919484Y-89190000I1078608J-1672335D01*
G01*
X225233608Y-85957665D02*
G75*
G02X225390516Y-89190000I-1078608J-1672335D01*
G01*
X223075163Y-86588870D02*
G75*
G03X223075000Y-88670961I1079837J-1041130D01*
G01*
X225234837Y-86588870D02*
G75*
G02X225235000Y-88670961I-1079837J-1041130D01*
G01*
X222919000Y-89190000D02*
X223075000Y-89190000D01*
X225235000Y-89190000D02*
X225391000Y-89190000D01*
X213410000Y-81390000D02*
X226010000Y-81390000D01*
X226010000Y-81390000D02*
X226010000Y-71040000D01*
X226010000Y-71040000D02*
X225060000Y-71040000D01*
X225060000Y-71040000D02*
X225310000Y-70540000D01*
X225310000Y-70540000D02*
X223410000Y-70540000D01*
X223410000Y-70540000D02*
X223360000Y-70540000D01*
X223360000Y-70540000D02*
X223610000Y-71040000D01*
X223610000Y-71040000D02*
X218210000Y-71040000D01*
X218210000Y-71040000D02*
X218510000Y-70540000D01*
X218510000Y-70540000D02*
X213410000Y-70540000D01*
X213410000Y-70540000D02*
X213410000Y-81390000D01*
X223076392Y-96117665D02*
G75*
G03X222919484Y-99350000I1078608J-1672335D01*
G01*
X225233608Y-96117665D02*
G75*
G02X225390516Y-99350000I-1078608J-1672335D01*
G01*
X223075163Y-96748870D02*
G75*
G03X223075000Y-98830961I1079837J-1041130D01*
G01*
X225234837Y-96748870D02*
G75*
G02X225235000Y-98830961I-1079837J-1041130D01*
G01*
X222919000Y-99350000D02*
X223075000Y-99350000D01*
X225235000Y-99350000D02*
X225391000Y-99350000D01*
X213410000Y-69960000D02*
X226010000Y-69960000D01*
X226010000Y-69960000D02*
X226010000Y-59610000D01*
X226010000Y-59610000D02*
X225060000Y-59610000D01*
X225060000Y-59610000D02*
X225310000Y-59110000D01*
X225310000Y-59110000D02*
X223410000Y-59110000D01*
X223410000Y-59110000D02*
X223360000Y-59110000D01*
X223360000Y-59110000D02*
X223610000Y-59610000D01*
X223610000Y-59610000D02*
X218210000Y-59610000D01*
X218210000Y-59610000D02*
X218510000Y-59110000D01*
X218510000Y-59110000D02*
X213410000Y-59110000D01*
X213410000Y-59110000D02*
X213410000Y-69960000D01*
X223076392Y-91037665D02*
G75*
G03X222919484Y-94270000I1078608J-1672335D01*
G01*
X225233608Y-91037665D02*
G75*
G02X225390516Y-94270000I-1078608J-1672335D01*
G01*
X223075163Y-91668870D02*
G75*
G03X223075000Y-93750961I1079837J-1041130D01*
G01*
X225234837Y-91668870D02*
G75*
G02X225235000Y-93750961I-1079837J-1041130D01*
G01*
X222919000Y-94270000D02*
X223075000Y-94270000D01*
X225235000Y-94270000D02*
X225391000Y-94270000D01*
X162610000Y-81390000D02*
X175210000Y-81390000D01*
X175210000Y-81390000D02*
X175210000Y-71040000D01*
X175210000Y-71040000D02*
X174260000Y-71040000D01*
X174260000Y-71040000D02*
X174510000Y-70540000D01*
X174510000Y-70540000D02*
X172610000Y-70540000D01*
X172610000Y-70540000D02*
X172560000Y-70540000D01*
X172560000Y-70540000D02*
X172810000Y-71040000D01*
X172810000Y-71040000D02*
X167410000Y-71040000D01*
X167410000Y-71040000D02*
X167710000Y-70540000D01*
X167710000Y-70540000D02*
X162610000Y-70540000D01*
X162610000Y-70540000D02*
X162610000Y-81390000D01*
X161540000Y-62750000D02*
X153420000Y-62750000D01*
X153420000Y-62750000D02*
X153420000Y-71870000D01*
X153420000Y-71870000D02*
X161540000Y-71870000D01*
X161540000Y-71870000D02*
X161540000Y-62750000D01*
X157480000Y-62740000D02*
X157480000Y-62750000D01*
X157480000Y-71880000D02*
X157480000Y-71870000D01*
X161540000Y-64160000D02*
X153420000Y-64160000D01*
X162610000Y-69960000D02*
X175210000Y-69960000D01*
X175210000Y-69960000D02*
X175210000Y-59610000D01*
X175210000Y-59610000D02*
X174260000Y-59610000D01*
X174260000Y-59610000D02*
X174510000Y-59110000D01*
X174510000Y-59110000D02*
X172610000Y-59110000D01*
X172610000Y-59110000D02*
X172560000Y-59110000D01*
X172560000Y-59110000D02*
X172810000Y-59610000D01*
X172810000Y-59610000D02*
X167410000Y-59610000D01*
X167410000Y-59610000D02*
X167710000Y-59110000D01*
X167710000Y-59110000D02*
X162610000Y-59110000D01*
X162610000Y-59110000D02*
X162610000Y-69960000D01*
X149190000Y-76490000D02*
X149190000Y-76160000D01*
X149190000Y-76160000D02*
X155610000Y-76160000D01*
X155610000Y-76160000D02*
X155610000Y-76490000D01*
X149190000Y-78450000D02*
X149190000Y-78780000D01*
X149190000Y-78780000D02*
X155610000Y-78780000D01*
X155610000Y-78780000D02*
X155610000Y-78450000D01*
D13*
X161810000Y-80650000D02*
X128730000Y-80650000D01*
X126730000Y-82650000D02*
X126730000Y-105310000D01*
X128730000Y-107310000D02*
X154810000Y-107310000D01*
X161810000Y-105160000D02*
X161810000Y-97300000D01*
X161810000Y-97300000D02*
X160810000Y-97300000D01*
X160810000Y-97300000D02*
X160810000Y-89080000D01*
X160810000Y-89080000D02*
X161810000Y-89080000D01*
X161810000Y-89080000D02*
X161810000Y-80650001D01*
X126730000Y-105310000D02*
G75*
G03X128730000Y-107310000I2000000J0D01*
G01*
X128730000Y-80650000D02*
G75*
G03X126730000Y-82650000I0J-2000000D01*
G01*
X161810000Y-105160000D02*
X155810000Y-105160000D01*
X155810000Y-105160000D02*
G75*
G03X154810000Y-106160000I0J-1000000D01*
G01*
X154810000Y-106150000D02*
X154810000Y-107310000D01*
X154810000Y-107310000D02*
X154810000Y-107310000D01*
D12*
X172276392Y-85957665D02*
G75*
G03X172119484Y-89190000I1078608J-1672335D01*
G01*
X174433608Y-85957665D02*
G75*
G02X174590516Y-89190000I-1078608J-1672335D01*
G01*
X172275163Y-86588870D02*
G75*
G03X172275000Y-88670961I1079837J-1041130D01*
G01*
X174434837Y-86588870D02*
G75*
G02X174435000Y-88670961I-1079837J-1041130D01*
G01*
X172119000Y-89190000D02*
X172275000Y-89190000D01*
X174435000Y-89190000D02*
X174591000Y-89190000D01*
X172276392Y-96117665D02*
G75*
G03X172119484Y-99350000I1078608J-1672335D01*
G01*
X174433608Y-96117665D02*
G75*
G02X174590516Y-99350000I-1078608J-1672335D01*
G01*
X172275163Y-96748870D02*
G75*
G03X172275000Y-98830961I1079837J-1041130D01*
G01*
X174434837Y-96748870D02*
G75*
G02X174435000Y-98830961I-1079837J-1041130D01*
G01*
X172119000Y-99350000D02*
X172275000Y-99350000D01*
X174435000Y-99350000D02*
X174591000Y-99350000D01*
X128616000Y-100620000D02*
X128616000Y-100290000D01*
X128616000Y-100290000D02*
X135036000Y-100290000D01*
X135036000Y-100290000D02*
X135036000Y-100620000D01*
X128616000Y-102580000D02*
X128616000Y-102910000D01*
X128616000Y-102910000D02*
X135036000Y-102910000D01*
X135036000Y-102910000D02*
X135036000Y-102580000D01*
X157388000Y-102580000D02*
X157388000Y-102910000D01*
X157388000Y-102910000D02*
X150968000Y-102910000D01*
X150968000Y-102910000D02*
X150968000Y-102580000D01*
X157388000Y-100620000D02*
X157388000Y-100290000D01*
X157388000Y-100290000D02*
X150968000Y-100290000D01*
X150968000Y-100290000D02*
X150968000Y-100620000D01*
X172276392Y-91037665D02*
G75*
G03X172119484Y-94270000I1078608J-1672335D01*
G01*
X174433608Y-91037665D02*
G75*
G02X174590516Y-94270000I-1078608J-1672335D01*
G01*
X172275163Y-91668870D02*
G75*
G03X172275000Y-93750961I1079837J-1041130D01*
G01*
X174434837Y-91668870D02*
G75*
G02X174435000Y-93750961I-1079837J-1041130D01*
G01*
X172119000Y-94270000D02*
X172275000Y-94270000D01*
X174435000Y-94270000D02*
X174591000Y-94270000D01*
X139792000Y-100620000D02*
X139792000Y-100290000D01*
X139792000Y-100290000D02*
X146212000Y-100290000D01*
X146212000Y-100290000D02*
X146212000Y-100620000D01*
X139792000Y-102580000D02*
X139792000Y-102910000D01*
X139792000Y-102910000D02*
X146212000Y-102910000D01*
X146212000Y-102910000D02*
X146212000Y-102580000D01*
D13*
X127909320Y-58938160D02*
X151490680Y-58938160D01*
X151490680Y-58938160D02*
X151485600Y-73126600D01*
X151485600Y-73126600D02*
X127899160Y-73050400D01*
X127899160Y-73050400D02*
X127899160Y-58938160D01*
X127899160Y-58938160D02*
X127944880Y-58963560D01*
X162647381Y-114633333D02*
X163361667Y-114633333D01*
X163504524Y-114680953D01*
X163599762Y-114776191D01*
X163647381Y-114919048D01*
X163647381Y-115014286D01*
X163647381Y-113633333D02*
X163647381Y-114204762D01*
X163647381Y-113919048D02*
X162647381Y-113919048D01*
X162790238Y-114014286D01*
X162885476Y-114109524D01*
X162933095Y-114204762D01*
X175045714Y-117633334D02*
X175712381Y-117395239D01*
X175045714Y-117157143D01*
X175712381Y-116347619D02*
X175188571Y-116347619D01*
X175093333Y-116395238D01*
X175045714Y-116490476D01*
X175045714Y-116680953D01*
X175093333Y-116776191D01*
X175664762Y-116347619D02*
X175712381Y-116442857D01*
X175712381Y-116680953D01*
X175664762Y-116776191D01*
X175569524Y-116823810D01*
X175474286Y-116823810D01*
X175379048Y-116776191D01*
X175331429Y-116680953D01*
X175331429Y-116442857D01*
X175283810Y-116347619D01*
X175712381Y-115728572D02*
X175664762Y-115823810D01*
X175569524Y-115871429D01*
X174712381Y-115871429D01*
X175045714Y-115442857D02*
X175712381Y-115204762D01*
X175045714Y-114966666D01*
X175664762Y-114204761D02*
X175712381Y-114299999D01*
X175712381Y-114490476D01*
X175664762Y-114585714D01*
X175569524Y-114633333D01*
X175188571Y-114633333D01*
X175093333Y-114585714D01*
X175045714Y-114490476D01*
X175045714Y-114299999D01*
X175093333Y-114204761D01*
X175188571Y-114157142D01*
X175283810Y-114157142D01*
X175379048Y-114633333D01*
X175712381Y-112823809D02*
X175664762Y-112919047D01*
X175617143Y-112966666D01*
X175521905Y-113014285D01*
X175236190Y-113014285D01*
X175140952Y-112966666D01*
X175093333Y-112919047D01*
X175045714Y-112823809D01*
X175045714Y-112680951D01*
X175093333Y-112585713D01*
X175140952Y-112538094D01*
X175236190Y-112490475D01*
X175521905Y-112490475D01*
X175617143Y-112538094D01*
X175664762Y-112585713D01*
X175712381Y-112680951D01*
X175712381Y-112823809D01*
X175045714Y-111633332D02*
X175712381Y-111633332D01*
X175045714Y-112061904D02*
X175569524Y-112061904D01*
X175664762Y-112014285D01*
X175712381Y-111919047D01*
X175712381Y-111776189D01*
X175664762Y-111680951D01*
X175617143Y-111633332D01*
X175045714Y-111299999D02*
X175045714Y-110919047D01*
X174712381Y-111157142D02*
X175569524Y-111157142D01*
X175664762Y-111109523D01*
X175712381Y-111014285D01*
X175712381Y-110919047D01*
X162647381Y-126063333D02*
X163361667Y-126063333D01*
X163504524Y-126110953D01*
X163599762Y-126206191D01*
X163647381Y-126349048D01*
X163647381Y-126444286D01*
X162742619Y-125634762D02*
X162695000Y-125587143D01*
X162647381Y-125491905D01*
X162647381Y-125253809D01*
X162695000Y-125158571D01*
X162742619Y-125110952D01*
X162837857Y-125063333D01*
X162933095Y-125063333D01*
X163075952Y-125110952D01*
X163647381Y-125682381D01*
X163647381Y-125063333D01*
X175712381Y-128055476D02*
X175712381Y-128626905D01*
X175712381Y-128341191D02*
X174712381Y-128341191D01*
X174855238Y-128436429D01*
X174950476Y-128531667D01*
X174998095Y-128626905D01*
X174807619Y-127674524D02*
X174760000Y-127626905D01*
X174712381Y-127531667D01*
X174712381Y-127293571D01*
X174760000Y-127198333D01*
X174807619Y-127150714D01*
X174902857Y-127103095D01*
X174998095Y-127103095D01*
X175140952Y-127150714D01*
X175712381Y-127722143D01*
X175712381Y-127103095D01*
X174712381Y-126817381D02*
X175712381Y-126484048D01*
X174712381Y-126150714D01*
X175712381Y-125055476D02*
X175045714Y-125055476D01*
X174712381Y-125055476D02*
X174760000Y-125103095D01*
X174807619Y-125055476D01*
X174760000Y-125007857D01*
X174712381Y-125055476D01*
X174807619Y-125055476D01*
X175045714Y-124579286D02*
X175712381Y-124579286D01*
X175140952Y-124579286D02*
X175093333Y-124531667D01*
X175045714Y-124436429D01*
X175045714Y-124293571D01*
X175093333Y-124198333D01*
X175188571Y-124150714D01*
X175712381Y-124150714D01*
X157932381Y-117578095D02*
X156932381Y-117578095D01*
X156932381Y-117340000D01*
X156980000Y-117197142D01*
X157075238Y-117101904D01*
X157170476Y-117054285D01*
X157360952Y-117006666D01*
X157503810Y-117006666D01*
X157694286Y-117054285D01*
X157789524Y-117101904D01*
X157884762Y-117197142D01*
X157932381Y-117340000D01*
X157932381Y-117578095D01*
X157932381Y-116054285D02*
X157932381Y-116625714D01*
X157932381Y-116340000D02*
X156932381Y-116340000D01*
X157075238Y-116435238D01*
X157170476Y-116530476D01*
X157218095Y-116625714D01*
X138938095Y-115522381D02*
X138938095Y-116331905D01*
X138985714Y-116427143D01*
X139033333Y-116474762D01*
X139128571Y-116522381D01*
X139319048Y-116522381D01*
X139414286Y-116474762D01*
X139461905Y-116427143D01*
X139509524Y-116331905D01*
X139509524Y-115522381D01*
X140509524Y-116522381D02*
X139938095Y-116522381D01*
X140223809Y-116522381D02*
X140223809Y-115522381D01*
X140128571Y-115665238D01*
X140033333Y-115760476D01*
X139938095Y-115808095D01*
X151138095Y-126547619D02*
X151185714Y-126500000D01*
X151280952Y-126452381D01*
X151519048Y-126452381D01*
X151614286Y-126500000D01*
X151661905Y-126547619D01*
X151709524Y-126642857D01*
X151709524Y-126738095D01*
X151661905Y-126880952D01*
X151090476Y-127452381D01*
X151709524Y-127452381D01*
X152328571Y-126452381D02*
X152423810Y-126452381D01*
X152519048Y-126500000D01*
X152566667Y-126547619D01*
X152614286Y-126642857D01*
X152661905Y-126833333D01*
X152661905Y-127071429D01*
X152614286Y-127261905D01*
X152566667Y-127357143D01*
X152519048Y-127404762D01*
X152423810Y-127452381D01*
X152328571Y-127452381D01*
X152233333Y-127404762D01*
X152185714Y-127357143D01*
X152138095Y-127261905D01*
X152090476Y-127071429D01*
X152090476Y-126833333D01*
X152138095Y-126642857D01*
X152185714Y-126547619D01*
X152233333Y-126500000D01*
X152328571Y-126452381D01*
X153090476Y-127452381D02*
X153090476Y-126452381D01*
X153661905Y-127452381D02*
X153233333Y-126880952D01*
X153661905Y-126452381D02*
X153090476Y-127023810D01*
X189738095Y-115522381D02*
X189738095Y-116331905D01*
X189785714Y-116427143D01*
X189833333Y-116474762D01*
X189928571Y-116522381D01*
X190119048Y-116522381D01*
X190214286Y-116474762D01*
X190261905Y-116427143D01*
X190309524Y-116331905D01*
X190309524Y-115522381D01*
X191309524Y-116522381D02*
X190738095Y-116522381D01*
X191023809Y-116522381D02*
X191023809Y-115522381D01*
X190928571Y-115665238D01*
X190833333Y-115760476D01*
X190738095Y-115808095D01*
X201938095Y-126547619D02*
X201985714Y-126500000D01*
X202080952Y-126452381D01*
X202319048Y-126452381D01*
X202414286Y-126500000D01*
X202461905Y-126547619D01*
X202509524Y-126642857D01*
X202509524Y-126738095D01*
X202461905Y-126880952D01*
X201890476Y-127452381D01*
X202509524Y-127452381D01*
X203128571Y-126452381D02*
X203223810Y-126452381D01*
X203319048Y-126500000D01*
X203366667Y-126547619D01*
X203414286Y-126642857D01*
X203461905Y-126833333D01*
X203461905Y-127071429D01*
X203414286Y-127261905D01*
X203366667Y-127357143D01*
X203319048Y-127404762D01*
X203223810Y-127452381D01*
X203128571Y-127452381D01*
X203033333Y-127404762D01*
X202985714Y-127357143D01*
X202938095Y-127261905D01*
X202890476Y-127071429D01*
X202890476Y-126833333D01*
X202938095Y-126642857D01*
X202985714Y-126547619D01*
X203033333Y-126500000D01*
X203128571Y-126452381D01*
X203890476Y-127452381D02*
X203890476Y-126452381D01*
X204461905Y-127452381D02*
X204033333Y-126880952D01*
X204461905Y-126452381D02*
X203890476Y-127023810D01*
X183332381Y-142803143D02*
X182332381Y-142803143D01*
X183332381Y-141755524D02*
X182856190Y-142088858D01*
X183332381Y-142326953D02*
X182332381Y-142326953D01*
X182332381Y-141946000D01*
X182380000Y-141850762D01*
X182427619Y-141803143D01*
X182522857Y-141755524D01*
X182665714Y-141755524D01*
X182760952Y-141803143D01*
X182808571Y-141850762D01*
X182856190Y-141946000D01*
X182856190Y-142326953D01*
X182808571Y-140993619D02*
X182808571Y-141326953D01*
X183332381Y-141326953D02*
X182332381Y-141326953D01*
X182332381Y-140850762D01*
X182332381Y-140565048D02*
X182332381Y-139898381D01*
X183332381Y-140565048D01*
X183332381Y-139898381D01*
X182665714Y-139088857D02*
X183332381Y-139088857D01*
X182284762Y-139326953D02*
X182999048Y-139565048D01*
X182999048Y-138946000D01*
X182665714Y-138136476D02*
X183332381Y-138136476D01*
X182284762Y-138374572D02*
X182999048Y-138612667D01*
X182999048Y-137993619D01*
X183332381Y-137612667D02*
X182332381Y-137612667D01*
X183332381Y-137041238D01*
X182332381Y-137041238D01*
X183332381Y-136041238D02*
X183332381Y-136612667D01*
X183332381Y-136326953D02*
X182332381Y-136326953D01*
X182475238Y-136422191D01*
X182570476Y-136517429D01*
X182618095Y-136612667D01*
X210272381Y-143636905D02*
X211081905Y-143636905D01*
X211177143Y-143589286D01*
X211224762Y-143541667D01*
X211272381Y-143446429D01*
X211272381Y-143255952D01*
X211224762Y-143160714D01*
X211177143Y-143113095D01*
X211081905Y-143065476D01*
X210272381Y-143065476D01*
X210367619Y-142636905D02*
X210320000Y-142589286D01*
X210272381Y-142494048D01*
X210272381Y-142255952D01*
X210320000Y-142160714D01*
X210367619Y-142113095D01*
X210462857Y-142065476D01*
X210558095Y-142065476D01*
X210700952Y-142113095D01*
X211272381Y-142684524D01*
X211272381Y-142065476D01*
X208240381Y-147263904D02*
X209240381Y-147025809D01*
X208526095Y-146835332D01*
X209240381Y-146644856D01*
X208240381Y-146406761D01*
X209192762Y-145644856D02*
X209240381Y-145740094D01*
X209240381Y-145930571D01*
X209192762Y-146025809D01*
X209097524Y-146073428D01*
X208716571Y-146073428D01*
X208621333Y-146025809D01*
X208573714Y-145930571D01*
X208573714Y-145740094D01*
X208621333Y-145644856D01*
X208716571Y-145597237D01*
X208811810Y-145597237D01*
X208907048Y-146073428D01*
X209240381Y-145168666D02*
X208240381Y-145168666D01*
X208954667Y-144835332D01*
X208240381Y-144501999D01*
X209240381Y-144501999D01*
X209240381Y-143882952D02*
X209192762Y-143978190D01*
X209145143Y-144025809D01*
X209049905Y-144073428D01*
X208764190Y-144073428D01*
X208668952Y-144025809D01*
X208621333Y-143978190D01*
X208573714Y-143882952D01*
X208573714Y-143740094D01*
X208621333Y-143644856D01*
X208668952Y-143597237D01*
X208764190Y-143549618D01*
X209049905Y-143549618D01*
X209145143Y-143597237D01*
X209192762Y-143644856D01*
X209240381Y-143740094D01*
X209240381Y-143882952D01*
X209192762Y-143168666D02*
X209240381Y-143073428D01*
X209240381Y-142882952D01*
X209192762Y-142787713D01*
X209097524Y-142740094D01*
X209049905Y-142740094D01*
X208954667Y-142787713D01*
X208907048Y-142882952D01*
X208907048Y-143025809D01*
X208859429Y-143121047D01*
X208764190Y-143168666D01*
X208716571Y-143168666D01*
X208621333Y-143121047D01*
X208573714Y-143025809D01*
X208573714Y-142882952D01*
X208621333Y-142787713D01*
X209335619Y-142549618D02*
X209335619Y-141787713D01*
X209240381Y-141549618D02*
X208573714Y-141549618D01*
X208668952Y-141549618D02*
X208621333Y-141501999D01*
X208573714Y-141406761D01*
X208573714Y-141263903D01*
X208621333Y-141168665D01*
X208716571Y-141121046D01*
X209240381Y-141121046D01*
X208716571Y-141121046D02*
X208621333Y-141073427D01*
X208573714Y-140978189D01*
X208573714Y-140835332D01*
X208621333Y-140740094D01*
X208716571Y-140692475D01*
X209240381Y-140692475D01*
X209240381Y-140216285D02*
X208573714Y-140216285D01*
X208240381Y-140216285D02*
X208288000Y-140263904D01*
X208335619Y-140216285D01*
X208288000Y-140168666D01*
X208240381Y-140216285D01*
X208335619Y-140216285D01*
X208573714Y-139740095D02*
X209240381Y-139740095D01*
X208668952Y-139740095D02*
X208621333Y-139692476D01*
X208573714Y-139597238D01*
X208573714Y-139454380D01*
X208621333Y-139359142D01*
X208716571Y-139311523D01*
X209240381Y-139311523D01*
X209240381Y-138835333D02*
X208573714Y-138835333D01*
X208240381Y-138835333D02*
X208288000Y-138882952D01*
X208335619Y-138835333D01*
X208288000Y-138787714D01*
X208240381Y-138835333D01*
X208335619Y-138835333D01*
X204811334Y-151582381D02*
X204478000Y-151106190D01*
X204239905Y-151582381D02*
X204239905Y-150582381D01*
X204620858Y-150582381D01*
X204716096Y-150630000D01*
X204763715Y-150677619D01*
X204811334Y-150772857D01*
X204811334Y-150915714D01*
X204763715Y-151010952D01*
X204716096Y-151058571D01*
X204620858Y-151106190D01*
X204239905Y-151106190D01*
X205144667Y-150582381D02*
X205763715Y-150582381D01*
X205430381Y-150963333D01*
X205573239Y-150963333D01*
X205668477Y-151010952D01*
X205716096Y-151058571D01*
X205763715Y-151153810D01*
X205763715Y-151391905D01*
X205716096Y-151487143D01*
X205668477Y-151534762D01*
X205573239Y-151582381D01*
X205287524Y-151582381D01*
X205192286Y-151534762D01*
X205144667Y-151487143D01*
X169847381Y-139207619D02*
X170847381Y-138874286D01*
X169847381Y-138540952D01*
X170561667Y-138255238D02*
X170561667Y-137779047D01*
X170847381Y-138350476D02*
X169847381Y-138017143D01*
X170847381Y-137683809D01*
X170847381Y-136874285D02*
X170847381Y-137350476D01*
X169847381Y-137350476D01*
X169847381Y-136683809D02*
X170847381Y-136350476D01*
X169847381Y-136017142D01*
X170323571Y-135683809D02*
X170323571Y-135350475D01*
X170847381Y-135207618D02*
X170847381Y-135683809D01*
X169847381Y-135683809D01*
X169847381Y-135207618D01*
X193635334Y-151582381D02*
X193302000Y-151106190D01*
X193063905Y-151582381D02*
X193063905Y-150582381D01*
X193444858Y-150582381D01*
X193540096Y-150630000D01*
X193587715Y-150677619D01*
X193635334Y-150772857D01*
X193635334Y-150915714D01*
X193587715Y-151010952D01*
X193540096Y-151058571D01*
X193444858Y-151106190D01*
X193063905Y-151106190D01*
X194492477Y-150915714D02*
X194492477Y-151582381D01*
X194254381Y-150534762D02*
X194016286Y-151249048D01*
X194635334Y-151249048D01*
X182459334Y-151582381D02*
X182126000Y-151106190D01*
X181887905Y-151582381D02*
X181887905Y-150582381D01*
X182268858Y-150582381D01*
X182364096Y-150630000D01*
X182411715Y-150677619D01*
X182459334Y-150772857D01*
X182459334Y-150915714D01*
X182411715Y-151010952D01*
X182364096Y-151058571D01*
X182268858Y-151106190D01*
X181887905Y-151106190D01*
X182840286Y-150677619D02*
X182887905Y-150630000D01*
X182983143Y-150582381D01*
X183221239Y-150582381D01*
X183316477Y-150630000D01*
X183364096Y-150677619D01*
X183411715Y-150772857D01*
X183411715Y-150868095D01*
X183364096Y-151010952D01*
X182792667Y-151582381D01*
X183411715Y-151582381D01*
X170847381Y-149629524D02*
X169847381Y-149629524D01*
X169847381Y-149248571D01*
X169895000Y-149153333D01*
X169942619Y-149105714D01*
X170037857Y-149058095D01*
X170180714Y-149058095D01*
X170275952Y-149105714D01*
X170323571Y-149153333D01*
X170371190Y-149248571D01*
X170371190Y-149629524D01*
X169847381Y-148439048D02*
X169847381Y-148248571D01*
X169895000Y-148153333D01*
X169990238Y-148058095D01*
X170180714Y-148010476D01*
X170514048Y-148010476D01*
X170704524Y-148058095D01*
X170799762Y-148153333D01*
X170847381Y-148248571D01*
X170847381Y-148439048D01*
X170799762Y-148534286D01*
X170704524Y-148629524D01*
X170514048Y-148677143D01*
X170180714Y-148677143D01*
X169990238Y-148629524D01*
X169895000Y-148534286D01*
X169847381Y-148439048D01*
X169847381Y-147677143D02*
X170847381Y-147439048D01*
X170133095Y-147248571D01*
X170847381Y-147058095D01*
X169847381Y-146820000D01*
X170323571Y-146439048D02*
X170323571Y-146105714D01*
X170847381Y-145962857D02*
X170847381Y-146439048D01*
X169847381Y-146439048D01*
X169847381Y-145962857D01*
X170847381Y-144962857D02*
X170371190Y-145296191D01*
X170847381Y-145534286D02*
X169847381Y-145534286D01*
X169847381Y-145153333D01*
X169895000Y-145058095D01*
X169942619Y-145010476D01*
X170037857Y-144962857D01*
X170180714Y-144962857D01*
X170275952Y-145010476D01*
X170323571Y-145058095D01*
X170371190Y-145153333D01*
X170371190Y-145534286D01*
X170847381Y-143716190D02*
X169847381Y-143716190D01*
X170847381Y-143240000D02*
X169847381Y-143240000D01*
X170847381Y-142668571D01*
X169847381Y-142668571D01*
X170323571Y-141859047D02*
X170323571Y-142192381D01*
X170847381Y-142192381D02*
X169847381Y-142192381D01*
X169847381Y-141716190D01*
X169847381Y-141144762D02*
X169847381Y-140954285D01*
X169895000Y-140859047D01*
X169990238Y-140763809D01*
X170180714Y-140716190D01*
X170514048Y-140716190D01*
X170704524Y-140763809D01*
X170799762Y-140859047D01*
X170847381Y-140954285D01*
X170847381Y-141144762D01*
X170799762Y-141240000D01*
X170704524Y-141335238D01*
X170514048Y-141382857D01*
X170180714Y-141382857D01*
X169990238Y-141335238D01*
X169895000Y-141240000D01*
X169847381Y-141144762D01*
X220647381Y-139207619D02*
X221647381Y-138874286D01*
X220647381Y-138540952D01*
X221361667Y-138255238D02*
X221361667Y-137779047D01*
X221647381Y-138350476D02*
X220647381Y-138017143D01*
X221647381Y-137683809D01*
X221647381Y-136874285D02*
X221647381Y-137350476D01*
X220647381Y-137350476D01*
X220647381Y-136683809D02*
X221647381Y-136350476D01*
X220647381Y-136017142D01*
X221123571Y-135683809D02*
X221123571Y-135350475D01*
X221647381Y-135207618D02*
X221647381Y-135683809D01*
X220647381Y-135683809D01*
X220647381Y-135207618D01*
X221647381Y-143716190D02*
X220647381Y-143716190D01*
X221647381Y-143240000D02*
X220647381Y-143240000D01*
X221647381Y-142668571D01*
X220647381Y-142668571D01*
X221123571Y-141859047D02*
X221123571Y-142192381D01*
X221647381Y-142192381D02*
X220647381Y-142192381D01*
X220647381Y-141716190D01*
X220647381Y-141144762D02*
X220647381Y-140954285D01*
X220695000Y-140859047D01*
X220790238Y-140763809D01*
X220980714Y-140716190D01*
X221314048Y-140716190D01*
X221504524Y-140763809D01*
X221599762Y-140859047D01*
X221647381Y-140954285D01*
X221647381Y-141144762D01*
X221599762Y-141240000D01*
X221504524Y-141335238D01*
X221314048Y-141382857D01*
X220980714Y-141382857D01*
X220790238Y-141335238D01*
X220695000Y-141240000D01*
X220647381Y-141144762D01*
X208732381Y-117578095D02*
X207732381Y-117578095D01*
X207732381Y-117340000D01*
X207780000Y-117197142D01*
X207875238Y-117101904D01*
X207970476Y-117054285D01*
X208160952Y-117006666D01*
X208303810Y-117006666D01*
X208494286Y-117054285D01*
X208589524Y-117101904D01*
X208684762Y-117197142D01*
X208732381Y-117340000D01*
X208732381Y-117578095D01*
X208732381Y-116054285D02*
X208732381Y-116625714D01*
X208732381Y-116340000D02*
X207732381Y-116340000D01*
X207875238Y-116435238D01*
X207970476Y-116530476D01*
X208018095Y-116625714D01*
X213447381Y-114633333D02*
X214161667Y-114633333D01*
X214304524Y-114680953D01*
X214399762Y-114776191D01*
X214447381Y-114919048D01*
X214447381Y-115014286D01*
X214447381Y-113633333D02*
X214447381Y-114204762D01*
X214447381Y-113919048D02*
X213447381Y-113919048D01*
X213590238Y-114014286D01*
X213685476Y-114109524D01*
X213733095Y-114204762D01*
X225845714Y-117633334D02*
X226512381Y-117395239D01*
X225845714Y-117157143D01*
X226512381Y-116347619D02*
X225988571Y-116347619D01*
X225893333Y-116395238D01*
X225845714Y-116490476D01*
X225845714Y-116680953D01*
X225893333Y-116776191D01*
X226464762Y-116347619D02*
X226512381Y-116442857D01*
X226512381Y-116680953D01*
X226464762Y-116776191D01*
X226369524Y-116823810D01*
X226274286Y-116823810D01*
X226179048Y-116776191D01*
X226131429Y-116680953D01*
X226131429Y-116442857D01*
X226083810Y-116347619D01*
X226512381Y-115728572D02*
X226464762Y-115823810D01*
X226369524Y-115871429D01*
X225512381Y-115871429D01*
X225845714Y-115442857D02*
X226512381Y-115204762D01*
X225845714Y-114966666D01*
X226464762Y-114204761D02*
X226512381Y-114299999D01*
X226512381Y-114490476D01*
X226464762Y-114585714D01*
X226369524Y-114633333D01*
X225988571Y-114633333D01*
X225893333Y-114585714D01*
X225845714Y-114490476D01*
X225845714Y-114299999D01*
X225893333Y-114204761D01*
X225988571Y-114157142D01*
X226083810Y-114157142D01*
X226179048Y-114633333D01*
X226512381Y-112823809D02*
X226464762Y-112919047D01*
X226417143Y-112966666D01*
X226321905Y-113014285D01*
X226036190Y-113014285D01*
X225940952Y-112966666D01*
X225893333Y-112919047D01*
X225845714Y-112823809D01*
X225845714Y-112680951D01*
X225893333Y-112585713D01*
X225940952Y-112538094D01*
X226036190Y-112490475D01*
X226321905Y-112490475D01*
X226417143Y-112538094D01*
X226464762Y-112585713D01*
X226512381Y-112680951D01*
X226512381Y-112823809D01*
X225845714Y-111633332D02*
X226512381Y-111633332D01*
X225845714Y-112061904D02*
X226369524Y-112061904D01*
X226464762Y-112014285D01*
X226512381Y-111919047D01*
X226512381Y-111776189D01*
X226464762Y-111680951D01*
X226417143Y-111633332D01*
X225845714Y-111299999D02*
X225845714Y-110919047D01*
X225512381Y-111157142D02*
X226369524Y-111157142D01*
X226464762Y-111109523D01*
X226512381Y-111014285D01*
X226512381Y-110919047D01*
X213447381Y-126063333D02*
X214161667Y-126063333D01*
X214304524Y-126110953D01*
X214399762Y-126206191D01*
X214447381Y-126349048D01*
X214447381Y-126444286D01*
X213542619Y-125634762D02*
X213495000Y-125587143D01*
X213447381Y-125491905D01*
X213447381Y-125253809D01*
X213495000Y-125158571D01*
X213542619Y-125110952D01*
X213637857Y-125063333D01*
X213733095Y-125063333D01*
X213875952Y-125110952D01*
X214447381Y-125682381D01*
X214447381Y-125063333D01*
X226512381Y-128055476D02*
X226512381Y-128626905D01*
X226512381Y-128341191D02*
X225512381Y-128341191D01*
X225655238Y-128436429D01*
X225750476Y-128531667D01*
X225798095Y-128626905D01*
X225607619Y-127674524D02*
X225560000Y-127626905D01*
X225512381Y-127531667D01*
X225512381Y-127293571D01*
X225560000Y-127198333D01*
X225607619Y-127150714D01*
X225702857Y-127103095D01*
X225798095Y-127103095D01*
X225940952Y-127150714D01*
X226512381Y-127722143D01*
X226512381Y-127103095D01*
X225512381Y-126817381D02*
X226512381Y-126484048D01*
X225512381Y-126150714D01*
X226512381Y-125055476D02*
X225845714Y-125055476D01*
X225512381Y-125055476D02*
X225560000Y-125103095D01*
X225607619Y-125055476D01*
X225560000Y-125007857D01*
X225512381Y-125055476D01*
X225607619Y-125055476D01*
X225845714Y-124579286D02*
X226512381Y-124579286D01*
X225940952Y-124579286D02*
X225893333Y-124531667D01*
X225845714Y-124436429D01*
X225845714Y-124293571D01*
X225893333Y-124198333D01*
X225988571Y-124150714D01*
X226512381Y-124150714D01*
X221647381Y-149629524D02*
X220647381Y-149629524D01*
X220647381Y-149248571D01*
X220695000Y-149153333D01*
X220742619Y-149105714D01*
X220837857Y-149058095D01*
X220980714Y-149058095D01*
X221075952Y-149105714D01*
X221123571Y-149153333D01*
X221171190Y-149248571D01*
X221171190Y-149629524D01*
X220647381Y-148439048D02*
X220647381Y-148248571D01*
X220695000Y-148153333D01*
X220790238Y-148058095D01*
X220980714Y-148010476D01*
X221314048Y-148010476D01*
X221504524Y-148058095D01*
X221599762Y-148153333D01*
X221647381Y-148248571D01*
X221647381Y-148439048D01*
X221599762Y-148534286D01*
X221504524Y-148629524D01*
X221314048Y-148677143D01*
X220980714Y-148677143D01*
X220790238Y-148629524D01*
X220695000Y-148534286D01*
X220647381Y-148439048D01*
X220647381Y-147677143D02*
X221647381Y-147439048D01*
X220933095Y-147248571D01*
X221647381Y-147058095D01*
X220647381Y-146820000D01*
X221123571Y-146439048D02*
X221123571Y-146105714D01*
X221647381Y-145962857D02*
X221647381Y-146439048D01*
X220647381Y-146439048D01*
X220647381Y-145962857D01*
X221647381Y-144962857D02*
X221171190Y-145296191D01*
X221647381Y-145534286D02*
X220647381Y-145534286D01*
X220647381Y-145153333D01*
X220695000Y-145058095D01*
X220742619Y-145010476D01*
X220837857Y-144962857D01*
X220980714Y-144962857D01*
X221075952Y-145010476D01*
X221123571Y-145058095D01*
X221171190Y-145153333D01*
X221171190Y-145534286D01*
X142835334Y-151582381D02*
X142502000Y-151106190D01*
X142263905Y-151582381D02*
X142263905Y-150582381D01*
X142644858Y-150582381D01*
X142740096Y-150630000D01*
X142787715Y-150677619D01*
X142835334Y-150772857D01*
X142835334Y-150915714D01*
X142787715Y-151010952D01*
X142740096Y-151058571D01*
X142644858Y-151106190D01*
X142263905Y-151106190D01*
X143692477Y-150915714D02*
X143692477Y-151582381D01*
X143454381Y-150534762D02*
X143216286Y-151249048D01*
X143835334Y-151249048D01*
X131659334Y-151582381D02*
X131326000Y-151106190D01*
X131087905Y-151582381D02*
X131087905Y-150582381D01*
X131468858Y-150582381D01*
X131564096Y-150630000D01*
X131611715Y-150677619D01*
X131659334Y-150772857D01*
X131659334Y-150915714D01*
X131611715Y-151010952D01*
X131564096Y-151058571D01*
X131468858Y-151106190D01*
X131087905Y-151106190D01*
X132040286Y-150677619D02*
X132087905Y-150630000D01*
X132183143Y-150582381D01*
X132421239Y-150582381D01*
X132516477Y-150630000D01*
X132564096Y-150677619D01*
X132611715Y-150772857D01*
X132611715Y-150868095D01*
X132564096Y-151010952D01*
X131992667Y-151582381D01*
X132611715Y-151582381D01*
X154011334Y-151582381D02*
X153678000Y-151106190D01*
X153439905Y-151582381D02*
X153439905Y-150582381D01*
X153820858Y-150582381D01*
X153916096Y-150630000D01*
X153963715Y-150677619D01*
X154011334Y-150772857D01*
X154011334Y-150915714D01*
X153963715Y-151010952D01*
X153916096Y-151058571D01*
X153820858Y-151106190D01*
X153439905Y-151106190D01*
X154344667Y-150582381D02*
X154963715Y-150582381D01*
X154630381Y-150963333D01*
X154773239Y-150963333D01*
X154868477Y-151010952D01*
X154916096Y-151058571D01*
X154963715Y-151153810D01*
X154963715Y-151391905D01*
X154916096Y-151487143D01*
X154868477Y-151534762D01*
X154773239Y-151582381D01*
X154487524Y-151582381D01*
X154392286Y-151534762D01*
X154344667Y-151487143D01*
X132532381Y-142803143D02*
X131532381Y-142803143D01*
X132532381Y-141755524D02*
X132056190Y-142088858D01*
X132532381Y-142326953D02*
X131532381Y-142326953D01*
X131532381Y-141946000D01*
X131580000Y-141850762D01*
X131627619Y-141803143D01*
X131722857Y-141755524D01*
X131865714Y-141755524D01*
X131960952Y-141803143D01*
X132008571Y-141850762D01*
X132056190Y-141946000D01*
X132056190Y-142326953D01*
X132008571Y-140993619D02*
X132008571Y-141326953D01*
X132532381Y-141326953D02*
X131532381Y-141326953D01*
X131532381Y-140850762D01*
X131532381Y-140565048D02*
X131532381Y-139898381D01*
X132532381Y-140565048D01*
X132532381Y-139898381D01*
X131865714Y-139088857D02*
X132532381Y-139088857D01*
X131484762Y-139326953D02*
X132199048Y-139565048D01*
X132199048Y-138946000D01*
X131865714Y-138136476D02*
X132532381Y-138136476D01*
X131484762Y-138374572D02*
X132199048Y-138612667D01*
X132199048Y-137993619D01*
X132532381Y-137612667D02*
X131532381Y-137612667D01*
X132532381Y-137041238D01*
X131532381Y-137041238D01*
X132532381Y-136041238D02*
X132532381Y-136612667D01*
X132532381Y-136326953D02*
X131532381Y-136326953D01*
X131675238Y-136422191D01*
X131770476Y-136517429D01*
X131818095Y-136612667D01*
X159472381Y-143636905D02*
X160281905Y-143636905D01*
X160377143Y-143589286D01*
X160424762Y-143541667D01*
X160472381Y-143446429D01*
X160472381Y-143255952D01*
X160424762Y-143160714D01*
X160377143Y-143113095D01*
X160281905Y-143065476D01*
X159472381Y-143065476D01*
X159567619Y-142636905D02*
X159520000Y-142589286D01*
X159472381Y-142494048D01*
X159472381Y-142255952D01*
X159520000Y-142160714D01*
X159567619Y-142113095D01*
X159662857Y-142065476D01*
X159758095Y-142065476D01*
X159900952Y-142113095D01*
X160472381Y-142684524D01*
X160472381Y-142065476D01*
X157440381Y-147263904D02*
X158440381Y-147025809D01*
X157726095Y-146835332D01*
X158440381Y-146644856D01*
X157440381Y-146406761D01*
X158392762Y-145644856D02*
X158440381Y-145740094D01*
X158440381Y-145930571D01*
X158392762Y-146025809D01*
X158297524Y-146073428D01*
X157916571Y-146073428D01*
X157821333Y-146025809D01*
X157773714Y-145930571D01*
X157773714Y-145740094D01*
X157821333Y-145644856D01*
X157916571Y-145597237D01*
X158011810Y-145597237D01*
X158107048Y-146073428D01*
X158440381Y-145168666D02*
X157440381Y-145168666D01*
X158154667Y-144835332D01*
X157440381Y-144501999D01*
X158440381Y-144501999D01*
X158440381Y-143882952D02*
X158392762Y-143978190D01*
X158345143Y-144025809D01*
X158249905Y-144073428D01*
X157964190Y-144073428D01*
X157868952Y-144025809D01*
X157821333Y-143978190D01*
X157773714Y-143882952D01*
X157773714Y-143740094D01*
X157821333Y-143644856D01*
X157868952Y-143597237D01*
X157964190Y-143549618D01*
X158249905Y-143549618D01*
X158345143Y-143597237D01*
X158392762Y-143644856D01*
X158440381Y-143740094D01*
X158440381Y-143882952D01*
X158392762Y-143168666D02*
X158440381Y-143073428D01*
X158440381Y-142882952D01*
X158392762Y-142787713D01*
X158297524Y-142740094D01*
X158249905Y-142740094D01*
X158154667Y-142787713D01*
X158107048Y-142882952D01*
X158107048Y-143025809D01*
X158059429Y-143121047D01*
X157964190Y-143168666D01*
X157916571Y-143168666D01*
X157821333Y-143121047D01*
X157773714Y-143025809D01*
X157773714Y-142882952D01*
X157821333Y-142787713D01*
X158535619Y-142549618D02*
X158535619Y-141787713D01*
X158440381Y-141549618D02*
X157773714Y-141549618D01*
X157868952Y-141549618D02*
X157821333Y-141501999D01*
X157773714Y-141406761D01*
X157773714Y-141263903D01*
X157821333Y-141168665D01*
X157916571Y-141121046D01*
X158440381Y-141121046D01*
X157916571Y-141121046D02*
X157821333Y-141073427D01*
X157773714Y-140978189D01*
X157773714Y-140835332D01*
X157821333Y-140740094D01*
X157916571Y-140692475D01*
X158440381Y-140692475D01*
X158440381Y-140216285D02*
X157773714Y-140216285D01*
X157440381Y-140216285D02*
X157488000Y-140263904D01*
X157535619Y-140216285D01*
X157488000Y-140168666D01*
X157440381Y-140216285D01*
X157535619Y-140216285D01*
X157773714Y-139740095D02*
X158440381Y-139740095D01*
X157868952Y-139740095D02*
X157821333Y-139692476D01*
X157773714Y-139597238D01*
X157773714Y-139454380D01*
X157821333Y-139359142D01*
X157916571Y-139311523D01*
X158440381Y-139311523D01*
X158440381Y-138835333D02*
X157773714Y-138835333D01*
X157440381Y-138835333D02*
X157488000Y-138882952D01*
X157535619Y-138835333D01*
X157488000Y-138787714D01*
X157440381Y-138835333D01*
X157535619Y-138835333D01*
X201938095Y-77017619D02*
X201985714Y-76970000D01*
X202080952Y-76922381D01*
X202319048Y-76922381D01*
X202414286Y-76970000D01*
X202461905Y-77017619D01*
X202509524Y-77112857D01*
X202509524Y-77208095D01*
X202461905Y-77350952D01*
X201890476Y-77922381D01*
X202509524Y-77922381D01*
X203128571Y-76922381D02*
X203223810Y-76922381D01*
X203319048Y-76970000D01*
X203366667Y-77017619D01*
X203414286Y-77112857D01*
X203461905Y-77303333D01*
X203461905Y-77541429D01*
X203414286Y-77731905D01*
X203366667Y-77827143D01*
X203319048Y-77874762D01*
X203223810Y-77922381D01*
X203128571Y-77922381D01*
X203033333Y-77874762D01*
X202985714Y-77827143D01*
X202938095Y-77731905D01*
X202890476Y-77541429D01*
X202890476Y-77303333D01*
X202938095Y-77112857D01*
X202985714Y-77017619D01*
X203033333Y-76970000D01*
X203128571Y-76922381D01*
X203890476Y-77922381D02*
X203890476Y-76922381D01*
X204461905Y-77922381D02*
X204033333Y-77350952D01*
X204461905Y-76922381D02*
X203890476Y-77493810D01*
X183332381Y-93273143D02*
X182332381Y-93273143D01*
X183332381Y-92225524D02*
X182856190Y-92558858D01*
X183332381Y-92796953D02*
X182332381Y-92796953D01*
X182332381Y-92416000D01*
X182380000Y-92320762D01*
X182427619Y-92273143D01*
X182522857Y-92225524D01*
X182665714Y-92225524D01*
X182760952Y-92273143D01*
X182808571Y-92320762D01*
X182856190Y-92416000D01*
X182856190Y-92796953D01*
X182808571Y-91463619D02*
X182808571Y-91796953D01*
X183332381Y-91796953D02*
X182332381Y-91796953D01*
X182332381Y-91320762D01*
X182332381Y-91035048D02*
X182332381Y-90368381D01*
X183332381Y-91035048D01*
X183332381Y-90368381D01*
X182665714Y-89558857D02*
X183332381Y-89558857D01*
X182284762Y-89796953D02*
X182999048Y-90035048D01*
X182999048Y-89416000D01*
X182665714Y-88606476D02*
X183332381Y-88606476D01*
X182284762Y-88844572D02*
X182999048Y-89082667D01*
X182999048Y-88463619D01*
X183332381Y-88082667D02*
X182332381Y-88082667D01*
X183332381Y-87511238D01*
X182332381Y-87511238D01*
X183332381Y-86511238D02*
X183332381Y-87082667D01*
X183332381Y-86796953D02*
X182332381Y-86796953D01*
X182475238Y-86892191D01*
X182570476Y-86987429D01*
X182618095Y-87082667D01*
X182459334Y-102052381D02*
X182126000Y-101576190D01*
X181887905Y-102052381D02*
X181887905Y-101052381D01*
X182268858Y-101052381D01*
X182364096Y-101100000D01*
X182411715Y-101147619D01*
X182459334Y-101242857D01*
X182459334Y-101385714D01*
X182411715Y-101480952D01*
X182364096Y-101528571D01*
X182268858Y-101576190D01*
X181887905Y-101576190D01*
X182840286Y-101147619D02*
X182887905Y-101100000D01*
X182983143Y-101052381D01*
X183221239Y-101052381D01*
X183316477Y-101100000D01*
X183364096Y-101147619D01*
X183411715Y-101242857D01*
X183411715Y-101338095D01*
X183364096Y-101480952D01*
X182792667Y-102052381D01*
X183411715Y-102052381D01*
X204811334Y-102052381D02*
X204478000Y-101576190D01*
X204239905Y-102052381D02*
X204239905Y-101052381D01*
X204620858Y-101052381D01*
X204716096Y-101100000D01*
X204763715Y-101147619D01*
X204811334Y-101242857D01*
X204811334Y-101385714D01*
X204763715Y-101480952D01*
X204716096Y-101528571D01*
X204620858Y-101576190D01*
X204239905Y-101576190D01*
X205144667Y-101052381D02*
X205763715Y-101052381D01*
X205430381Y-101433333D01*
X205573239Y-101433333D01*
X205668477Y-101480952D01*
X205716096Y-101528571D01*
X205763715Y-101623810D01*
X205763715Y-101861905D01*
X205716096Y-101957143D01*
X205668477Y-102004762D01*
X205573239Y-102052381D01*
X205287524Y-102052381D01*
X205192286Y-102004762D01*
X205144667Y-101957143D01*
X210272381Y-94106905D02*
X211081905Y-94106905D01*
X211177143Y-94059286D01*
X211224762Y-94011667D01*
X211272381Y-93916429D01*
X211272381Y-93725952D01*
X211224762Y-93630714D01*
X211177143Y-93583095D01*
X211081905Y-93535476D01*
X210272381Y-93535476D01*
X210367619Y-93106905D02*
X210320000Y-93059286D01*
X210272381Y-92964048D01*
X210272381Y-92725952D01*
X210320000Y-92630714D01*
X210367619Y-92583095D01*
X210462857Y-92535476D01*
X210558095Y-92535476D01*
X210700952Y-92583095D01*
X211272381Y-93154524D01*
X211272381Y-92535476D01*
X208240381Y-97733904D02*
X209240381Y-97495809D01*
X208526095Y-97305332D01*
X209240381Y-97114856D01*
X208240381Y-96876761D01*
X209192762Y-96114856D02*
X209240381Y-96210094D01*
X209240381Y-96400571D01*
X209192762Y-96495809D01*
X209097524Y-96543428D01*
X208716571Y-96543428D01*
X208621333Y-96495809D01*
X208573714Y-96400571D01*
X208573714Y-96210094D01*
X208621333Y-96114856D01*
X208716571Y-96067237D01*
X208811810Y-96067237D01*
X208907048Y-96543428D01*
X209240381Y-95638666D02*
X208240381Y-95638666D01*
X208954667Y-95305332D01*
X208240381Y-94971999D01*
X209240381Y-94971999D01*
X209240381Y-94352952D02*
X209192762Y-94448190D01*
X209145143Y-94495809D01*
X209049905Y-94543428D01*
X208764190Y-94543428D01*
X208668952Y-94495809D01*
X208621333Y-94448190D01*
X208573714Y-94352952D01*
X208573714Y-94210094D01*
X208621333Y-94114856D01*
X208668952Y-94067237D01*
X208764190Y-94019618D01*
X209049905Y-94019618D01*
X209145143Y-94067237D01*
X209192762Y-94114856D01*
X209240381Y-94210094D01*
X209240381Y-94352952D01*
X209192762Y-93638666D02*
X209240381Y-93543428D01*
X209240381Y-93352952D01*
X209192762Y-93257713D01*
X209097524Y-93210094D01*
X209049905Y-93210094D01*
X208954667Y-93257713D01*
X208907048Y-93352952D01*
X208907048Y-93495809D01*
X208859429Y-93591047D01*
X208764190Y-93638666D01*
X208716571Y-93638666D01*
X208621333Y-93591047D01*
X208573714Y-93495809D01*
X208573714Y-93352952D01*
X208621333Y-93257713D01*
X209335619Y-93019618D02*
X209335619Y-92257713D01*
X209240381Y-92019618D02*
X208573714Y-92019618D01*
X208668952Y-92019618D02*
X208621333Y-91971999D01*
X208573714Y-91876761D01*
X208573714Y-91733903D01*
X208621333Y-91638665D01*
X208716571Y-91591046D01*
X209240381Y-91591046D01*
X208716571Y-91591046D02*
X208621333Y-91543427D01*
X208573714Y-91448189D01*
X208573714Y-91305332D01*
X208621333Y-91210094D01*
X208716571Y-91162475D01*
X209240381Y-91162475D01*
X209240381Y-90686285D02*
X208573714Y-90686285D01*
X208240381Y-90686285D02*
X208288000Y-90733904D01*
X208335619Y-90686285D01*
X208288000Y-90638666D01*
X208240381Y-90686285D01*
X208335619Y-90686285D01*
X208573714Y-90210095D02*
X209240381Y-90210095D01*
X208668952Y-90210095D02*
X208621333Y-90162476D01*
X208573714Y-90067238D01*
X208573714Y-89924380D01*
X208621333Y-89829142D01*
X208716571Y-89781523D01*
X209240381Y-89781523D01*
X209240381Y-89305333D02*
X208573714Y-89305333D01*
X208240381Y-89305333D02*
X208288000Y-89352952D01*
X208335619Y-89305333D01*
X208288000Y-89257714D01*
X208240381Y-89305333D01*
X208335619Y-89305333D01*
X193635334Y-102052381D02*
X193302000Y-101576190D01*
X193063905Y-102052381D02*
X193063905Y-101052381D01*
X193444858Y-101052381D01*
X193540096Y-101100000D01*
X193587715Y-101147619D01*
X193635334Y-101242857D01*
X193635334Y-101385714D01*
X193587715Y-101480952D01*
X193540096Y-101528571D01*
X193444858Y-101576190D01*
X193063905Y-101576190D01*
X194492477Y-101385714D02*
X194492477Y-102052381D01*
X194254381Y-101004762D02*
X194016286Y-101719048D01*
X194635334Y-101719048D01*
X189738095Y-65992381D02*
X189738095Y-66801905D01*
X189785714Y-66897143D01*
X189833333Y-66944762D01*
X189928571Y-66992381D01*
X190119048Y-66992381D01*
X190214286Y-66944762D01*
X190261905Y-66897143D01*
X190309524Y-66801905D01*
X190309524Y-65992381D01*
X191309524Y-66992381D02*
X190738095Y-66992381D01*
X191023809Y-66992381D02*
X191023809Y-65992381D01*
X190928571Y-66135238D01*
X190833333Y-66230476D01*
X190738095Y-66278095D01*
X208732381Y-68048095D02*
X207732381Y-68048095D01*
X207732381Y-67810000D01*
X207780000Y-67667142D01*
X207875238Y-67571904D01*
X207970476Y-67524285D01*
X208160952Y-67476666D01*
X208303810Y-67476666D01*
X208494286Y-67524285D01*
X208589524Y-67571904D01*
X208684762Y-67667142D01*
X208732381Y-67810000D01*
X208732381Y-68048095D01*
X208732381Y-66524285D02*
X208732381Y-67095714D01*
X208732381Y-66810000D02*
X207732381Y-66810000D01*
X207875238Y-66905238D01*
X207970476Y-67000476D01*
X208018095Y-67095714D01*
X220647381Y-89677619D02*
X221647381Y-89344286D01*
X220647381Y-89010952D01*
X221361667Y-88725238D02*
X221361667Y-88249047D01*
X221647381Y-88820476D02*
X220647381Y-88487143D01*
X221647381Y-88153809D01*
X221647381Y-87344285D02*
X221647381Y-87820476D01*
X220647381Y-87820476D01*
X220647381Y-87153809D02*
X221647381Y-86820476D01*
X220647381Y-86487142D01*
X221123571Y-86153809D02*
X221123571Y-85820475D01*
X221647381Y-85677618D02*
X221647381Y-86153809D01*
X220647381Y-86153809D01*
X220647381Y-85677618D01*
X213447381Y-76533333D02*
X214161667Y-76533333D01*
X214304524Y-76580953D01*
X214399762Y-76676191D01*
X214447381Y-76819048D01*
X214447381Y-76914286D01*
X213542619Y-76104762D02*
X213495000Y-76057143D01*
X213447381Y-75961905D01*
X213447381Y-75723809D01*
X213495000Y-75628571D01*
X213542619Y-75580952D01*
X213637857Y-75533333D01*
X213733095Y-75533333D01*
X213875952Y-75580952D01*
X214447381Y-76152381D01*
X214447381Y-75533333D01*
X226512381Y-78525476D02*
X226512381Y-79096905D01*
X226512381Y-78811191D02*
X225512381Y-78811191D01*
X225655238Y-78906429D01*
X225750476Y-79001667D01*
X225798095Y-79096905D01*
X225607619Y-78144524D02*
X225560000Y-78096905D01*
X225512381Y-78001667D01*
X225512381Y-77763571D01*
X225560000Y-77668333D01*
X225607619Y-77620714D01*
X225702857Y-77573095D01*
X225798095Y-77573095D01*
X225940952Y-77620714D01*
X226512381Y-78192143D01*
X226512381Y-77573095D01*
X225512381Y-77287381D02*
X226512381Y-76954048D01*
X225512381Y-76620714D01*
X226512381Y-75525476D02*
X225845714Y-75525476D01*
X225512381Y-75525476D02*
X225560000Y-75573095D01*
X225607619Y-75525476D01*
X225560000Y-75477857D01*
X225512381Y-75525476D01*
X225607619Y-75525476D01*
X225845714Y-75049286D02*
X226512381Y-75049286D01*
X225940952Y-75049286D02*
X225893333Y-75001667D01*
X225845714Y-74906429D01*
X225845714Y-74763571D01*
X225893333Y-74668333D01*
X225988571Y-74620714D01*
X226512381Y-74620714D01*
X221647381Y-100099524D02*
X220647381Y-100099524D01*
X220647381Y-99718571D01*
X220695000Y-99623333D01*
X220742619Y-99575714D01*
X220837857Y-99528095D01*
X220980714Y-99528095D01*
X221075952Y-99575714D01*
X221123571Y-99623333D01*
X221171190Y-99718571D01*
X221171190Y-100099524D01*
X220647381Y-98909048D02*
X220647381Y-98718571D01*
X220695000Y-98623333D01*
X220790238Y-98528095D01*
X220980714Y-98480476D01*
X221314048Y-98480476D01*
X221504524Y-98528095D01*
X221599762Y-98623333D01*
X221647381Y-98718571D01*
X221647381Y-98909048D01*
X221599762Y-99004286D01*
X221504524Y-99099524D01*
X221314048Y-99147143D01*
X220980714Y-99147143D01*
X220790238Y-99099524D01*
X220695000Y-99004286D01*
X220647381Y-98909048D01*
X220647381Y-98147143D02*
X221647381Y-97909048D01*
X220933095Y-97718571D01*
X221647381Y-97528095D01*
X220647381Y-97290000D01*
X221123571Y-96909048D02*
X221123571Y-96575714D01*
X221647381Y-96432857D02*
X221647381Y-96909048D01*
X220647381Y-96909048D01*
X220647381Y-96432857D01*
X221647381Y-95432857D02*
X221171190Y-95766191D01*
X221647381Y-96004286D02*
X220647381Y-96004286D01*
X220647381Y-95623333D01*
X220695000Y-95528095D01*
X220742619Y-95480476D01*
X220837857Y-95432857D01*
X220980714Y-95432857D01*
X221075952Y-95480476D01*
X221123571Y-95528095D01*
X221171190Y-95623333D01*
X221171190Y-96004286D01*
X213447381Y-65103333D02*
X214161667Y-65103333D01*
X214304524Y-65150953D01*
X214399762Y-65246191D01*
X214447381Y-65389048D01*
X214447381Y-65484286D01*
X214447381Y-64103333D02*
X214447381Y-64674762D01*
X214447381Y-64389048D02*
X213447381Y-64389048D01*
X213590238Y-64484286D01*
X213685476Y-64579524D01*
X213733095Y-64674762D01*
X225845714Y-68103334D02*
X226512381Y-67865239D01*
X225845714Y-67627143D01*
X226512381Y-66817619D02*
X225988571Y-66817619D01*
X225893333Y-66865238D01*
X225845714Y-66960476D01*
X225845714Y-67150953D01*
X225893333Y-67246191D01*
X226464762Y-66817619D02*
X226512381Y-66912857D01*
X226512381Y-67150953D01*
X226464762Y-67246191D01*
X226369524Y-67293810D01*
X226274286Y-67293810D01*
X226179048Y-67246191D01*
X226131429Y-67150953D01*
X226131429Y-66912857D01*
X226083810Y-66817619D01*
X226512381Y-66198572D02*
X226464762Y-66293810D01*
X226369524Y-66341429D01*
X225512381Y-66341429D01*
X225845714Y-65912857D02*
X226512381Y-65674762D01*
X225845714Y-65436666D01*
X226464762Y-64674761D02*
X226512381Y-64769999D01*
X226512381Y-64960476D01*
X226464762Y-65055714D01*
X226369524Y-65103333D01*
X225988571Y-65103333D01*
X225893333Y-65055714D01*
X225845714Y-64960476D01*
X225845714Y-64769999D01*
X225893333Y-64674761D01*
X225988571Y-64627142D01*
X226083810Y-64627142D01*
X226179048Y-65103333D01*
X226512381Y-63293809D02*
X226464762Y-63389047D01*
X226417143Y-63436666D01*
X226321905Y-63484285D01*
X226036190Y-63484285D01*
X225940952Y-63436666D01*
X225893333Y-63389047D01*
X225845714Y-63293809D01*
X225845714Y-63150951D01*
X225893333Y-63055713D01*
X225940952Y-63008094D01*
X226036190Y-62960475D01*
X226321905Y-62960475D01*
X226417143Y-63008094D01*
X226464762Y-63055713D01*
X226512381Y-63150951D01*
X226512381Y-63293809D01*
X225845714Y-62103332D02*
X226512381Y-62103332D01*
X225845714Y-62531904D02*
X226369524Y-62531904D01*
X226464762Y-62484285D01*
X226512381Y-62389047D01*
X226512381Y-62246189D01*
X226464762Y-62150951D01*
X226417143Y-62103332D01*
X225845714Y-61769999D02*
X225845714Y-61389047D01*
X225512381Y-61627142D02*
X226369524Y-61627142D01*
X226464762Y-61579523D01*
X226512381Y-61484285D01*
X226512381Y-61389047D01*
X221647381Y-94186190D02*
X220647381Y-94186190D01*
X221647381Y-93710000D02*
X220647381Y-93710000D01*
X221647381Y-93138571D01*
X220647381Y-93138571D01*
X221123571Y-92329047D02*
X221123571Y-92662381D01*
X221647381Y-92662381D02*
X220647381Y-92662381D01*
X220647381Y-92186190D01*
X220647381Y-91614762D02*
X220647381Y-91424285D01*
X220695000Y-91329047D01*
X220790238Y-91233809D01*
X220980714Y-91186190D01*
X221314048Y-91186190D01*
X221504524Y-91233809D01*
X221599762Y-91329047D01*
X221647381Y-91424285D01*
X221647381Y-91614762D01*
X221599762Y-91710000D01*
X221504524Y-91805238D01*
X221314048Y-91852857D01*
X220980714Y-91852857D01*
X220790238Y-91805238D01*
X220695000Y-91710000D01*
X220647381Y-91614762D01*
X162647381Y-76533333D02*
X163361667Y-76533333D01*
X163504524Y-76580953D01*
X163599762Y-76676191D01*
X163647381Y-76819048D01*
X163647381Y-76914286D01*
X162742619Y-76104762D02*
X162695000Y-76057143D01*
X162647381Y-75961905D01*
X162647381Y-75723809D01*
X162695000Y-75628571D01*
X162742619Y-75580952D01*
X162837857Y-75533333D01*
X162933095Y-75533333D01*
X163075952Y-75580952D01*
X163647381Y-76152381D01*
X163647381Y-75533333D01*
X175712381Y-78525476D02*
X175712381Y-79096905D01*
X175712381Y-78811191D02*
X174712381Y-78811191D01*
X174855238Y-78906429D01*
X174950476Y-79001667D01*
X174998095Y-79096905D01*
X174807619Y-78144524D02*
X174760000Y-78096905D01*
X174712381Y-78001667D01*
X174712381Y-77763571D01*
X174760000Y-77668333D01*
X174807619Y-77620714D01*
X174902857Y-77573095D01*
X174998095Y-77573095D01*
X175140952Y-77620714D01*
X175712381Y-78192143D01*
X175712381Y-77573095D01*
X174712381Y-77287381D02*
X175712381Y-76954048D01*
X174712381Y-76620714D01*
X175712381Y-75525476D02*
X175045714Y-75525476D01*
X174712381Y-75525476D02*
X174760000Y-75573095D01*
X174807619Y-75525476D01*
X174760000Y-75477857D01*
X174712381Y-75525476D01*
X174807619Y-75525476D01*
X175045714Y-75049286D02*
X175712381Y-75049286D01*
X175140952Y-75049286D02*
X175093333Y-75001667D01*
X175045714Y-74906429D01*
X175045714Y-74763571D01*
X175093333Y-74668333D01*
X175188571Y-74620714D01*
X175712381Y-74620714D01*
X157932381Y-68048095D02*
X156932381Y-68048095D01*
X156932381Y-67810000D01*
X156980000Y-67667142D01*
X157075238Y-67571904D01*
X157170476Y-67524285D01*
X157360952Y-67476666D01*
X157503810Y-67476666D01*
X157694286Y-67524285D01*
X157789524Y-67571904D01*
X157884762Y-67667142D01*
X157932381Y-67810000D01*
X157932381Y-68048095D01*
X157932381Y-66524285D02*
X157932381Y-67095714D01*
X157932381Y-66810000D02*
X156932381Y-66810000D01*
X157075238Y-66905238D01*
X157170476Y-67000476D01*
X157218095Y-67095714D01*
X162647381Y-65103333D02*
X163361667Y-65103333D01*
X163504524Y-65150953D01*
X163599762Y-65246191D01*
X163647381Y-65389048D01*
X163647381Y-65484286D01*
X163647381Y-64103333D02*
X163647381Y-64674762D01*
X163647381Y-64389048D02*
X162647381Y-64389048D01*
X162790238Y-64484286D01*
X162885476Y-64579524D01*
X162933095Y-64674762D01*
X175045714Y-68103334D02*
X175712381Y-67865239D01*
X175045714Y-67627143D01*
X175712381Y-66817619D02*
X175188571Y-66817619D01*
X175093333Y-66865238D01*
X175045714Y-66960476D01*
X175045714Y-67150953D01*
X175093333Y-67246191D01*
X175664762Y-66817619D02*
X175712381Y-66912857D01*
X175712381Y-67150953D01*
X175664762Y-67246191D01*
X175569524Y-67293810D01*
X175474286Y-67293810D01*
X175379048Y-67246191D01*
X175331429Y-67150953D01*
X175331429Y-66912857D01*
X175283810Y-66817619D01*
X175712381Y-66198572D02*
X175664762Y-66293810D01*
X175569524Y-66341429D01*
X174712381Y-66341429D01*
X175045714Y-65912857D02*
X175712381Y-65674762D01*
X175045714Y-65436666D01*
X175664762Y-64674761D02*
X175712381Y-64769999D01*
X175712381Y-64960476D01*
X175664762Y-65055714D01*
X175569524Y-65103333D01*
X175188571Y-65103333D01*
X175093333Y-65055714D01*
X175045714Y-64960476D01*
X175045714Y-64769999D01*
X175093333Y-64674761D01*
X175188571Y-64627142D01*
X175283810Y-64627142D01*
X175379048Y-65103333D01*
X175712381Y-63293809D02*
X175664762Y-63389047D01*
X175617143Y-63436666D01*
X175521905Y-63484285D01*
X175236190Y-63484285D01*
X175140952Y-63436666D01*
X175093333Y-63389047D01*
X175045714Y-63293809D01*
X175045714Y-63150951D01*
X175093333Y-63055713D01*
X175140952Y-63008094D01*
X175236190Y-62960475D01*
X175521905Y-62960475D01*
X175617143Y-63008094D01*
X175664762Y-63055713D01*
X175712381Y-63150951D01*
X175712381Y-63293809D01*
X175045714Y-62103332D02*
X175712381Y-62103332D01*
X175045714Y-62531904D02*
X175569524Y-62531904D01*
X175664762Y-62484285D01*
X175712381Y-62389047D01*
X175712381Y-62246189D01*
X175664762Y-62150951D01*
X175617143Y-62103332D01*
X175045714Y-61769999D02*
X175045714Y-61389047D01*
X174712381Y-61627142D02*
X175569524Y-61627142D01*
X175664762Y-61579523D01*
X175712381Y-61484285D01*
X175712381Y-61389047D01*
X151138095Y-77017619D02*
X151185714Y-76970000D01*
X151280952Y-76922381D01*
X151519048Y-76922381D01*
X151614286Y-76970000D01*
X151661905Y-77017619D01*
X151709524Y-77112857D01*
X151709524Y-77208095D01*
X151661905Y-77350952D01*
X151090476Y-77922381D01*
X151709524Y-77922381D01*
X152328571Y-76922381D02*
X152423810Y-76922381D01*
X152519048Y-76970000D01*
X152566667Y-77017619D01*
X152614286Y-77112857D01*
X152661905Y-77303333D01*
X152661905Y-77541429D01*
X152614286Y-77731905D01*
X152566667Y-77827143D01*
X152519048Y-77874762D01*
X152423810Y-77922381D01*
X152328571Y-77922381D01*
X152233333Y-77874762D01*
X152185714Y-77827143D01*
X152138095Y-77731905D01*
X152090476Y-77541429D01*
X152090476Y-77303333D01*
X152138095Y-77112857D01*
X152185714Y-77017619D01*
X152233333Y-76970000D01*
X152328571Y-76922381D01*
X153090476Y-77922381D02*
X153090476Y-76922381D01*
X153661905Y-77922381D02*
X153233333Y-77350952D01*
X153661905Y-76922381D02*
X153090476Y-77493810D01*
X159472381Y-94106905D02*
X160281905Y-94106905D01*
X160377143Y-94059286D01*
X160424762Y-94011667D01*
X160472381Y-93916429D01*
X160472381Y-93725952D01*
X160424762Y-93630714D01*
X160377143Y-93583095D01*
X160281905Y-93535476D01*
X159472381Y-93535476D01*
X159567619Y-93106905D02*
X159520000Y-93059286D01*
X159472381Y-92964048D01*
X159472381Y-92725952D01*
X159520000Y-92630714D01*
X159567619Y-92583095D01*
X159662857Y-92535476D01*
X159758095Y-92535476D01*
X159900952Y-92583095D01*
X160472381Y-93154524D01*
X160472381Y-92535476D01*
X157440381Y-97733904D02*
X158440381Y-97495809D01*
X157726095Y-97305332D01*
X158440381Y-97114856D01*
X157440381Y-96876761D01*
X158392762Y-96114856D02*
X158440381Y-96210094D01*
X158440381Y-96400571D01*
X158392762Y-96495809D01*
X158297524Y-96543428D01*
X157916571Y-96543428D01*
X157821333Y-96495809D01*
X157773714Y-96400571D01*
X157773714Y-96210094D01*
X157821333Y-96114856D01*
X157916571Y-96067237D01*
X158011810Y-96067237D01*
X158107048Y-96543428D01*
X158440381Y-95638666D02*
X157440381Y-95638666D01*
X158154667Y-95305332D01*
X157440381Y-94971999D01*
X158440381Y-94971999D01*
X158440381Y-94352952D02*
X158392762Y-94448190D01*
X158345143Y-94495809D01*
X158249905Y-94543428D01*
X157964190Y-94543428D01*
X157868952Y-94495809D01*
X157821333Y-94448190D01*
X157773714Y-94352952D01*
X157773714Y-94210094D01*
X157821333Y-94114856D01*
X157868952Y-94067237D01*
X157964190Y-94019618D01*
X158249905Y-94019618D01*
X158345143Y-94067237D01*
X158392762Y-94114856D01*
X158440381Y-94210094D01*
X158440381Y-94352952D01*
X158392762Y-93638666D02*
X158440381Y-93543428D01*
X158440381Y-93352952D01*
X158392762Y-93257713D01*
X158297524Y-93210094D01*
X158249905Y-93210094D01*
X158154667Y-93257713D01*
X158107048Y-93352952D01*
X158107048Y-93495809D01*
X158059429Y-93591047D01*
X157964190Y-93638666D01*
X157916571Y-93638666D01*
X157821333Y-93591047D01*
X157773714Y-93495809D01*
X157773714Y-93352952D01*
X157821333Y-93257713D01*
X158535619Y-93019618D02*
X158535619Y-92257713D01*
X158440381Y-92019618D02*
X157773714Y-92019618D01*
X157868952Y-92019618D02*
X157821333Y-91971999D01*
X157773714Y-91876761D01*
X157773714Y-91733903D01*
X157821333Y-91638665D01*
X157916571Y-91591046D01*
X158440381Y-91591046D01*
X157916571Y-91591046D02*
X157821333Y-91543427D01*
X157773714Y-91448189D01*
X157773714Y-91305332D01*
X157821333Y-91210094D01*
X157916571Y-91162475D01*
X158440381Y-91162475D01*
X158440381Y-90686285D02*
X157773714Y-90686285D01*
X157440381Y-90686285D02*
X157488000Y-90733904D01*
X157535619Y-90686285D01*
X157488000Y-90638666D01*
X157440381Y-90686285D01*
X157535619Y-90686285D01*
X157773714Y-90210095D02*
X158440381Y-90210095D01*
X157868952Y-90210095D02*
X157821333Y-90162476D01*
X157773714Y-90067238D01*
X157773714Y-89924380D01*
X157821333Y-89829142D01*
X157916571Y-89781523D01*
X158440381Y-89781523D01*
X158440381Y-89305333D02*
X157773714Y-89305333D01*
X157440381Y-89305333D02*
X157488000Y-89352952D01*
X157535619Y-89305333D01*
X157488000Y-89257714D01*
X157440381Y-89305333D01*
X157535619Y-89305333D01*
X169847381Y-89677619D02*
X170847381Y-89344286D01*
X169847381Y-89010952D01*
X170561667Y-88725238D02*
X170561667Y-88249047D01*
X170847381Y-88820476D02*
X169847381Y-88487143D01*
X170847381Y-88153809D01*
X170847381Y-87344285D02*
X170847381Y-87820476D01*
X169847381Y-87820476D01*
X169847381Y-87153809D02*
X170847381Y-86820476D01*
X169847381Y-86487142D01*
X170323571Y-86153809D02*
X170323571Y-85820475D01*
X170847381Y-85677618D02*
X170847381Y-86153809D01*
X169847381Y-86153809D01*
X169847381Y-85677618D01*
X170847381Y-100099524D02*
X169847381Y-100099524D01*
X169847381Y-99718571D01*
X169895000Y-99623333D01*
X169942619Y-99575714D01*
X170037857Y-99528095D01*
X170180714Y-99528095D01*
X170275952Y-99575714D01*
X170323571Y-99623333D01*
X170371190Y-99718571D01*
X170371190Y-100099524D01*
X169847381Y-98909048D02*
X169847381Y-98718571D01*
X169895000Y-98623333D01*
X169990238Y-98528095D01*
X170180714Y-98480476D01*
X170514048Y-98480476D01*
X170704524Y-98528095D01*
X170799762Y-98623333D01*
X170847381Y-98718571D01*
X170847381Y-98909048D01*
X170799762Y-99004286D01*
X170704524Y-99099524D01*
X170514048Y-99147143D01*
X170180714Y-99147143D01*
X169990238Y-99099524D01*
X169895000Y-99004286D01*
X169847381Y-98909048D01*
X169847381Y-98147143D02*
X170847381Y-97909048D01*
X170133095Y-97718571D01*
X170847381Y-97528095D01*
X169847381Y-97290000D01*
X170323571Y-96909048D02*
X170323571Y-96575714D01*
X170847381Y-96432857D02*
X170847381Y-96909048D01*
X169847381Y-96909048D01*
X169847381Y-96432857D01*
X170847381Y-95432857D02*
X170371190Y-95766191D01*
X170847381Y-96004286D02*
X169847381Y-96004286D01*
X169847381Y-95623333D01*
X169895000Y-95528095D01*
X169942619Y-95480476D01*
X170037857Y-95432857D01*
X170180714Y-95432857D01*
X170275952Y-95480476D01*
X170323571Y-95528095D01*
X170371190Y-95623333D01*
X170371190Y-96004286D01*
X131659334Y-102052381D02*
X131326000Y-101576190D01*
X131087905Y-102052381D02*
X131087905Y-101052381D01*
X131468858Y-101052381D01*
X131564096Y-101100000D01*
X131611715Y-101147619D01*
X131659334Y-101242857D01*
X131659334Y-101385714D01*
X131611715Y-101480952D01*
X131564096Y-101528571D01*
X131468858Y-101576190D01*
X131087905Y-101576190D01*
X132040286Y-101147619D02*
X132087905Y-101100000D01*
X132183143Y-101052381D01*
X132421239Y-101052381D01*
X132516477Y-101100000D01*
X132564096Y-101147619D01*
X132611715Y-101242857D01*
X132611715Y-101338095D01*
X132564096Y-101480952D01*
X131992667Y-102052381D01*
X132611715Y-102052381D01*
X154011334Y-102052381D02*
X153678000Y-101576190D01*
X153439905Y-102052381D02*
X153439905Y-101052381D01*
X153820858Y-101052381D01*
X153916096Y-101100000D01*
X153963715Y-101147619D01*
X154011334Y-101242857D01*
X154011334Y-101385714D01*
X153963715Y-101480952D01*
X153916096Y-101528571D01*
X153820858Y-101576190D01*
X153439905Y-101576190D01*
X154344667Y-101052381D02*
X154963715Y-101052381D01*
X154630381Y-101433333D01*
X154773239Y-101433333D01*
X154868477Y-101480952D01*
X154916096Y-101528571D01*
X154963715Y-101623810D01*
X154963715Y-101861905D01*
X154916096Y-101957143D01*
X154868477Y-102004762D01*
X154773239Y-102052381D01*
X154487524Y-102052381D01*
X154392286Y-102004762D01*
X154344667Y-101957143D01*
X170847381Y-94186190D02*
X169847381Y-94186190D01*
X170847381Y-93710000D02*
X169847381Y-93710000D01*
X170847381Y-93138571D01*
X169847381Y-93138571D01*
X170323571Y-92329047D02*
X170323571Y-92662381D01*
X170847381Y-92662381D02*
X169847381Y-92662381D01*
X169847381Y-92186190D01*
X169847381Y-91614762D02*
X169847381Y-91424285D01*
X169895000Y-91329047D01*
X169990238Y-91233809D01*
X170180714Y-91186190D01*
X170514048Y-91186190D01*
X170704524Y-91233809D01*
X170799762Y-91329047D01*
X170847381Y-91424285D01*
X170847381Y-91614762D01*
X170799762Y-91710000D01*
X170704524Y-91805238D01*
X170514048Y-91852857D01*
X170180714Y-91852857D01*
X169990238Y-91805238D01*
X169895000Y-91710000D01*
X169847381Y-91614762D01*
X142835334Y-102052381D02*
X142502000Y-101576190D01*
X142263905Y-102052381D02*
X142263905Y-101052381D01*
X142644858Y-101052381D01*
X142740096Y-101100000D01*
X142787715Y-101147619D01*
X142835334Y-101242857D01*
X142835334Y-101385714D01*
X142787715Y-101480952D01*
X142740096Y-101528571D01*
X142644858Y-101576190D01*
X142263905Y-101576190D01*
X143692477Y-101385714D02*
X143692477Y-102052381D01*
X143454381Y-101004762D02*
X143216286Y-101719048D01*
X143835334Y-101719048D01*
X132532381Y-93273143D02*
X131532381Y-93273143D01*
X132532381Y-92225524D02*
X132056190Y-92558858D01*
X132532381Y-92796953D02*
X131532381Y-92796953D01*
X131532381Y-92416000D01*
X131580000Y-92320762D01*
X131627619Y-92273143D01*
X131722857Y-92225524D01*
X131865714Y-92225524D01*
X131960952Y-92273143D01*
X132008571Y-92320762D01*
X132056190Y-92416000D01*
X132056190Y-92796953D01*
X132008571Y-91463619D02*
X132008571Y-91796953D01*
X132532381Y-91796953D02*
X131532381Y-91796953D01*
X131532381Y-91320762D01*
X131532381Y-91035048D02*
X131532381Y-90368381D01*
X132532381Y-91035048D01*
X132532381Y-90368381D01*
X131865714Y-89558857D02*
X132532381Y-89558857D01*
X131484762Y-89796953D02*
X132199048Y-90035048D01*
X132199048Y-89416000D01*
X131865714Y-88606476D02*
X132532381Y-88606476D01*
X131484762Y-88844572D02*
X132199048Y-89082667D01*
X132199048Y-88463619D01*
X132532381Y-88082667D02*
X131532381Y-88082667D01*
X132532381Y-87511238D01*
X131532381Y-87511238D01*
X132532381Y-86511238D02*
X132532381Y-87082667D01*
X132532381Y-86796953D02*
X131532381Y-86796953D01*
X131675238Y-86892191D01*
X131770476Y-86987429D01*
X131818095Y-87082667D01*
X138938095Y-65992381D02*
X138938095Y-66801905D01*
X138985714Y-66897143D01*
X139033333Y-66944762D01*
X139128571Y-66992381D01*
X139319048Y-66992381D01*
X139414286Y-66944762D01*
X139461905Y-66897143D01*
X139509524Y-66801905D01*
X139509524Y-65992381D01*
X140509524Y-66992381D02*
X139938095Y-66992381D01*
X140223809Y-66992381D02*
X140223809Y-65992381D01*
X140128571Y-66135238D01*
X140033333Y-66230476D01*
X139938095Y-66278095D01*
M02*
