M48
;DRILL file {KiCad 4.0.7} date Sun Jul 22 12:15:18 2018
;FORMAT={-:-/ absolute / inch / decimal}
FMAT,2
INCH,TZ
T1C0.030
T2C0.031
T3C0.035
T4C0.040
T5C0.052
T6C0.063
%
G90
G05
M72
T1
X5.1Y-2.375
X5.1Y-2.45
X5.1Y-2.75
X5.1Y-2.825
X5.1Y-4.325
X5.1Y-4.4
X5.1Y-4.7
X5.1Y-4.775
X5.11Y-3.44
X5.11Y-3.54
X5.11Y-3.64
X5.11Y-5.39
X5.11Y-5.49
X5.11Y-5.59
X5.9Y-2.375
X5.9Y-2.45
X5.9Y-2.75
X5.9Y-2.825
X5.9Y-4.325
X5.9Y-4.4
X5.9Y-4.7
X5.9Y-4.775
X7.1Y-2.375
X7.1Y-2.45
X7.1Y-2.75
X7.1Y-2.825
X7.1Y-4.325
X7.1Y-4.4
X7.1Y-4.7
X7.1Y-4.775
X7.11Y-3.44
X7.11Y-3.54
X7.11Y-3.64
X7.11Y-5.39
X7.11Y-5.49
X7.11Y-5.59
X7.9Y-2.375
X7.9Y-2.45
X7.9Y-2.75
X7.9Y-2.825
X7.9Y-4.325
X7.9Y-4.4
X7.9Y-4.7
X7.9Y-4.775
T2
X5.04Y-4.
X5.04Y-5.95
X5.34Y-4.
X5.34Y-5.95
X5.48Y-4.
X5.48Y-5.95
X5.78Y-4.
X5.78Y-5.95
X5.85Y-3.05
X5.85Y-5.
X5.92Y-4.
X5.92Y-5.95
X6.15Y-3.05
X6.15Y-5.
X6.22Y-4.
X6.22Y-5.95
X7.04Y-4.
X7.04Y-5.95
X7.34Y-4.
X7.34Y-5.95
X7.48Y-4.
X7.48Y-5.95
X7.78Y-4.
X7.78Y-5.95
X7.85Y-3.05
X7.85Y-5.
X7.92Y-4.
X7.92Y-5.95
X8.15Y-3.05
X8.15Y-5.
X8.22Y-4.
X8.22Y-5.95
T3
X6.825Y-3.4
X6.825Y-3.5
X6.825Y-3.6
X6.825Y-3.7
X6.825Y-3.8
X6.825Y-3.9
X6.825Y-5.35
X6.825Y-5.45
X6.825Y-5.55
X6.825Y-5.65
X6.825Y-5.75
X6.825Y-5.85
X8.825Y-3.4
X8.825Y-3.5
X8.825Y-3.6
X8.825Y-3.7
X8.825Y-3.8
X8.825Y-3.9
X8.825Y-5.35
X8.825Y-5.45
X8.825Y-5.55
X8.825Y-5.65
X8.825Y-5.75
X8.825Y-5.85
T4
X5.3Y-3.25
X5.3Y-4.15
X5.3Y-5.2
X5.3Y-6.1
X5.4Y-3.25
X5.4Y-4.15
X5.4Y-5.2
X5.4Y-6.1
X5.5Y-3.25
X5.5Y-4.15
X5.5Y-5.2
X5.5Y-6.1
X5.6Y-3.25
X5.6Y-4.15
X5.6Y-5.2
X5.6Y-6.1
X5.7Y-3.25
X5.7Y-4.15
X5.7Y-5.2
X5.7Y-6.1
X5.8Y-3.25
X5.8Y-4.15
X5.8Y-5.2
X5.8Y-6.1
X5.9Y-3.25
X5.9Y-4.15
X5.9Y-5.2
X5.9Y-6.1
X6.Y-3.25
X6.Y-4.15
X6.Y-5.2
X6.Y-6.1
X7.3Y-3.25
X7.3Y-4.15
X7.3Y-5.2
X7.3Y-6.1
X7.4Y-3.25
X7.4Y-4.15
X7.4Y-5.2
X7.4Y-6.1
X7.5Y-3.25
X7.5Y-4.15
X7.5Y-5.2
X7.5Y-6.1
X7.6Y-3.25
X7.6Y-4.15
X7.6Y-5.2
X7.6Y-6.1
X7.7Y-3.25
X7.7Y-4.15
X7.7Y-5.2
X7.7Y-6.1
X7.8Y-3.25
X7.8Y-4.15
X7.8Y-5.2
X7.8Y-6.1
X7.9Y-3.25
X7.9Y-4.15
X7.9Y-5.2
X7.9Y-6.1
X8.Y-3.25
X8.Y-4.15
X8.Y-5.2
X8.Y-6.1
T5
X6.65Y-2.4531
X6.65Y-2.65
X6.65Y-2.9031
X6.65Y-3.1
X6.65Y-4.4031
X6.65Y-4.6
X6.65Y-4.8531
X6.65Y-5.05
X8.65Y-2.4531
X8.65Y-2.65
X8.65Y-2.9031
X8.65Y-3.1
X8.65Y-4.4031
X8.65Y-4.6
X8.65Y-4.8531
X8.65Y-5.05
T6
X6.2Y-2.4
X6.2Y-2.9
X6.2Y-4.35
X6.2Y-4.85
X8.2Y-2.4
X8.2Y-2.9
X8.2Y-4.35
X8.2Y-4.85
T0
M30
