G04 #@! TF.GenerationSoftware,KiCad,Pcbnew,5.0.1*
G04 #@! TF.CreationDate,2018-12-09T15:12:05+01:00*
G04 #@! TF.ProjectId,wasserschaden,7761737365727363686164656E2E6B69,rev?*
G04 #@! TF.SameCoordinates,Original*
G04 #@! TF.FileFunction,Profile,NP*
%FSLAX46Y46*%
G04 Gerber Fmt 4.6, Leading zero omitted, Abs format (unit mm)*
G04 Created by KiCad (PCBNEW 5.0.1) date So 09 Dez 2018 15:12:05 CET*
%MOMM*%
%LPD*%
G01*
G04 APERTURE LIST*
%ADD10C,0.150000*%
G04 APERTURE END LIST*
D10*
X226695000Y-157480000D02*
X177165000Y-157480000D01*
X175895000Y-157480000D02*
X126365000Y-157480000D01*
X226695000Y-107950000D02*
X177165000Y-107950000D01*
X226695000Y-107950000D02*
X177165000Y-107950000D01*
X175895000Y-107950000D02*
X126365000Y-107950000D01*
X226695000Y-58420000D02*
X177165000Y-58420000D01*
X227330000Y-108585000D02*
X227330000Y-156845000D01*
X176530000Y-108585000D02*
X176530000Y-156845000D01*
X227330000Y-59055000D02*
X227330000Y-107315000D01*
X226695000Y-157480000D02*
G75*
G03X227330000Y-156845000I0J635000D01*
G01*
X175895000Y-157480000D02*
G75*
G03X176530000Y-156845000I0J635000D01*
G01*
X226695000Y-107950000D02*
G75*
G03X227330000Y-107315000I0J635000D01*
G01*
X176530000Y-108585000D02*
X176530000Y-156845000D01*
X125730000Y-108585000D02*
X125730000Y-156845000D01*
X176530000Y-59055000D02*
X176530000Y-107315000D01*
X177165000Y-157480000D02*
X226695000Y-157480000D01*
X126365000Y-157480000D02*
X175895000Y-157480000D01*
X177165000Y-107950000D02*
X226695000Y-107950000D01*
X176530000Y-156845000D02*
G75*
G03X177165000Y-157480000I635000J0D01*
G01*
X125730000Y-156845000D02*
G75*
G03X126365000Y-157480000I635000J0D01*
G01*
X176530000Y-107315000D02*
G75*
G03X177165000Y-107950000I635000J0D01*
G01*
X227330000Y-108585000D02*
X227330000Y-156845000D01*
X176530000Y-108585000D02*
X176530000Y-156845000D01*
X227330000Y-59055000D02*
X227330000Y-107315000D01*
X177165000Y-107950000D02*
G75*
G03X176530000Y-108585000I0J-635000D01*
G01*
X126365000Y-107950000D02*
G75*
G03X125730000Y-108585000I0J-635000D01*
G01*
X177165000Y-58420000D02*
G75*
G03X176530000Y-59055000I0J-635000D01*
G01*
X227330000Y-108585000D02*
G75*
G03X226695000Y-107950000I-635000J0D01*
G01*
X176530000Y-108585000D02*
G75*
G03X175895000Y-107950000I-635000J0D01*
G01*
X227330000Y-59055000D02*
G75*
G03X226695000Y-58420000I-635000J0D01*
G01*
X175895000Y-107950000D02*
G75*
G03X176530000Y-107315000I0J635000D01*
G01*
X175895000Y-107950000D02*
X126365000Y-107950000D01*
X125730000Y-107315000D02*
G75*
G03X126365000Y-107950000I635000J0D01*
G01*
X126365000Y-107950000D02*
X175895000Y-107950000D01*
X176530000Y-59055000D02*
X176530000Y-107315000D01*
X126365000Y-58420000D02*
G75*
G03X125730000Y-59055000I0J-635000D01*
G01*
X176530000Y-59055000D02*
G75*
G03X175895000Y-58420000I-635000J0D01*
G01*
X175895000Y-58420000D02*
X126365000Y-58420000D01*
X176530000Y-59055000D02*
X176530000Y-107315000D01*
X125730000Y-59055000D02*
X125730000Y-107315000D01*
M02*
