M48
;DRILL file {KiCad 5.0.1} date Do 07 Feb 2019 17:41:46 CET
;FORMAT={-:-/ absolute / inch / decimal}
FMAT,2
INCH,TZ
T1C0.0300
T2C0.0315
T3C0.0354
T4C0.0394
T5C0.0400
T6C0.0472
T7C0.0520
%
G90
G05
M72
T2
X5.08Y-4.15
X5.38Y-4.15
X5.51Y-4.15
X5.81Y-4.15
X5.51Y-4.02
X5.81Y-4.02
X5.08Y-4.02
X5.38Y-4.02
X5.94Y-4.15
X6.24Y-4.15
X5.94Y-4.02
X6.24Y-4.02
T3
X6.775Y-4.1
X6.875Y-4.1
X6.375Y-4.1
X6.475Y-4.1
X6.2Y-2.4
X6.2Y-2.7
X6.575Y-4.1
X6.675Y-4.1
T4
X5.1Y-2.375
X5.1Y-2.82
X5.9Y-2.375
X5.9Y-2.825
T5
X5.35Y-2.975
X5.35Y-3.875
X5.45Y-2.975
X5.45Y-3.875
X5.55Y-2.975
X5.55Y-3.875
X5.65Y-2.975
X5.65Y-3.875
X5.75Y-2.975
X5.75Y-3.875
X5.85Y-2.975
X5.85Y-3.875
X5.95Y-2.975
X5.95Y-3.875
X6.05Y-2.975
X6.05Y-3.875
T6
X6.58Y-3.825
X6.7Y-3.825
X6.82Y-3.825
T7
X6.65Y-2.8531
X6.65Y-3.05
X6.65Y-3.2531
X6.65Y-3.45
X6.65Y-2.4531
X6.65Y-2.65
T1
X6.05Y-3.3953G85X6.05Y-3.4047
G05
X6.05Y-3.4953G85X6.05Y-3.5047
G05
X6.05Y-3.5953G85X6.05Y-3.6047
G05
T0
M30
