G04 #@! TF.GenerationSoftware,KiCad,Pcbnew,5.0.1*
G04 #@! TF.CreationDate,2018-12-09T15:12:05+01:00*
G04 #@! TF.ProjectId,wasserschaden,7761737365727363686164656E2E6B69,rev?*
G04 #@! TF.SameCoordinates,Original*
G04 #@! TF.FileFunction,Soldermask,Bot*
G04 #@! TF.FilePolarity,Negative*
%FSLAX46Y46*%
G04 Gerber Fmt 4.6, Leading zero omitted, Abs format (unit mm)*
G04 Created by KiCad (PCBNEW 5.0.1) date So 09 Dez 2018 15:12:05 CET*
%MOMM*%
%LPD*%
G01*
G04 APERTURE LIST*
%ADD10C,0.100000*%
G04 APERTURE END LIST*
D10*
G36*
X147749770Y-153955372D02*
X147865689Y-153978429D01*
X148047678Y-154053811D01*
X148211463Y-154163249D01*
X148350751Y-154302537D01*
X148460189Y-154466322D01*
X148535571Y-154648311D01*
X148574000Y-154841509D01*
X148574000Y-155038491D01*
X148535571Y-155231689D01*
X148460189Y-155413678D01*
X148350751Y-155577463D01*
X148211463Y-155716751D01*
X148047678Y-155826189D01*
X147865689Y-155901571D01*
X147749770Y-155924628D01*
X147672493Y-155940000D01*
X147475507Y-155940000D01*
X147398230Y-155924628D01*
X147282311Y-155901571D01*
X147100322Y-155826189D01*
X146936537Y-155716751D01*
X146797249Y-155577463D01*
X146687811Y-155413678D01*
X146612429Y-155231689D01*
X146574000Y-155038491D01*
X146574000Y-154841509D01*
X146612429Y-154648311D01*
X146687811Y-154466322D01*
X146797249Y-154302537D01*
X146936537Y-154163249D01*
X147100322Y-154053811D01*
X147282311Y-153978429D01*
X147398230Y-153955372D01*
X147475507Y-153940000D01*
X147672493Y-153940000D01*
X147749770Y-153955372D01*
X147749770Y-153955372D01*
G37*
G36*
X201851770Y-153955372D02*
X201967689Y-153978429D01*
X202149678Y-154053811D01*
X202313463Y-154163249D01*
X202452751Y-154302537D01*
X202562189Y-154466322D01*
X202637571Y-154648311D01*
X202676000Y-154841509D01*
X202676000Y-155038491D01*
X202637571Y-155231689D01*
X202562189Y-155413678D01*
X202452751Y-155577463D01*
X202313463Y-155716751D01*
X202149678Y-155826189D01*
X201967689Y-155901571D01*
X201851770Y-155924628D01*
X201774493Y-155940000D01*
X201577507Y-155940000D01*
X201500230Y-155924628D01*
X201384311Y-155901571D01*
X201202322Y-155826189D01*
X201038537Y-155716751D01*
X200899249Y-155577463D01*
X200789811Y-155413678D01*
X200714429Y-155231689D01*
X200676000Y-155038491D01*
X200676000Y-154841509D01*
X200714429Y-154648311D01*
X200789811Y-154466322D01*
X200899249Y-154302537D01*
X201038537Y-154163249D01*
X201202322Y-154053811D01*
X201384311Y-153978429D01*
X201500230Y-153955372D01*
X201577507Y-153940000D01*
X201774493Y-153940000D01*
X201851770Y-153955372D01*
X201851770Y-153955372D01*
G37*
G36*
X151051770Y-153955372D02*
X151167689Y-153978429D01*
X151349678Y-154053811D01*
X151513463Y-154163249D01*
X151652751Y-154302537D01*
X151762189Y-154466322D01*
X151837571Y-154648311D01*
X151876000Y-154841509D01*
X151876000Y-155038491D01*
X151837571Y-155231689D01*
X151762189Y-155413678D01*
X151652751Y-155577463D01*
X151513463Y-155716751D01*
X151349678Y-155826189D01*
X151167689Y-155901571D01*
X151051770Y-155924628D01*
X150974493Y-155940000D01*
X150777507Y-155940000D01*
X150700230Y-155924628D01*
X150584311Y-155901571D01*
X150402322Y-155826189D01*
X150238537Y-155716751D01*
X150099249Y-155577463D01*
X149989811Y-155413678D01*
X149914429Y-155231689D01*
X149876000Y-155038491D01*
X149876000Y-154841509D01*
X149914429Y-154648311D01*
X149989811Y-154466322D01*
X150099249Y-154302537D01*
X150238537Y-154163249D01*
X150402322Y-154053811D01*
X150584311Y-153978429D01*
X150700230Y-153955372D01*
X150777507Y-153940000D01*
X150974493Y-153940000D01*
X151051770Y-153955372D01*
X151051770Y-153955372D01*
G37*
G36*
X158692030Y-153954469D02*
X158692033Y-153954470D01*
X158692034Y-153954470D01*
X158880535Y-154011651D01*
X158880537Y-154011652D01*
X159054260Y-154104509D01*
X159206528Y-154229472D01*
X159331491Y-154381740D01*
X159331492Y-154381742D01*
X159424349Y-154555465D01*
X159451451Y-154644809D01*
X159481531Y-154743970D01*
X159500838Y-154940000D01*
X159481531Y-155136030D01*
X159424348Y-155324537D01*
X159331491Y-155498260D01*
X159206528Y-155650528D01*
X159054260Y-155775491D01*
X159054258Y-155775492D01*
X158880535Y-155868349D01*
X158692034Y-155925530D01*
X158692033Y-155925530D01*
X158692030Y-155925531D01*
X158545124Y-155940000D01*
X158446876Y-155940000D01*
X158299970Y-155925531D01*
X158299967Y-155925530D01*
X158299966Y-155925530D01*
X158111465Y-155868349D01*
X157937742Y-155775492D01*
X157937740Y-155775491D01*
X157785472Y-155650528D01*
X157660509Y-155498260D01*
X157567652Y-155324537D01*
X157510469Y-155136030D01*
X157491162Y-154940000D01*
X157510469Y-154743970D01*
X157540549Y-154644809D01*
X157567651Y-154555465D01*
X157660508Y-154381742D01*
X157660509Y-154381740D01*
X157785472Y-154229472D01*
X157937740Y-154104509D01*
X158111463Y-154011652D01*
X158111465Y-154011651D01*
X158299966Y-153954470D01*
X158299967Y-153954470D01*
X158299970Y-153954469D01*
X158446876Y-153940000D01*
X158545124Y-153940000D01*
X158692030Y-153954469D01*
X158692030Y-153954469D01*
G37*
G36*
X136827770Y-153955372D02*
X136943689Y-153978429D01*
X137125678Y-154053811D01*
X137289463Y-154163249D01*
X137428751Y-154302537D01*
X137538189Y-154466322D01*
X137613571Y-154648311D01*
X137652000Y-154841509D01*
X137652000Y-155038491D01*
X137613571Y-155231689D01*
X137538189Y-155413678D01*
X137428751Y-155577463D01*
X137289463Y-155716751D01*
X137125678Y-155826189D01*
X136943689Y-155901571D01*
X136827770Y-155924628D01*
X136750493Y-155940000D01*
X136553507Y-155940000D01*
X136476230Y-155924628D01*
X136360311Y-155901571D01*
X136178322Y-155826189D01*
X136014537Y-155716751D01*
X135875249Y-155577463D01*
X135765811Y-155413678D01*
X135690429Y-155231689D01*
X135652000Y-155038491D01*
X135652000Y-154841509D01*
X135690429Y-154648311D01*
X135765811Y-154466322D01*
X135875249Y-154302537D01*
X136014537Y-154163249D01*
X136178322Y-154053811D01*
X136360311Y-153978429D01*
X136476230Y-153955372D01*
X136553507Y-153940000D01*
X136750493Y-153940000D01*
X136827770Y-153955372D01*
X136827770Y-153955372D01*
G37*
G36*
X129228030Y-153954469D02*
X129228033Y-153954470D01*
X129228034Y-153954470D01*
X129416535Y-154011651D01*
X129416537Y-154011652D01*
X129590260Y-154104509D01*
X129742528Y-154229472D01*
X129867491Y-154381740D01*
X129867492Y-154381742D01*
X129960349Y-154555465D01*
X129987451Y-154644809D01*
X130017531Y-154743970D01*
X130036838Y-154940000D01*
X130017531Y-155136030D01*
X129960348Y-155324537D01*
X129867491Y-155498260D01*
X129742528Y-155650528D01*
X129590260Y-155775491D01*
X129590258Y-155775492D01*
X129416535Y-155868349D01*
X129228034Y-155925530D01*
X129228033Y-155925530D01*
X129228030Y-155925531D01*
X129081124Y-155940000D01*
X128982876Y-155940000D01*
X128835970Y-155925531D01*
X128835967Y-155925530D01*
X128835966Y-155925530D01*
X128647465Y-155868349D01*
X128473742Y-155775492D01*
X128473740Y-155775491D01*
X128321472Y-155650528D01*
X128196509Y-155498260D01*
X128103652Y-155324537D01*
X128046469Y-155136030D01*
X128027162Y-154940000D01*
X128046469Y-154743970D01*
X128076549Y-154644809D01*
X128103651Y-154555465D01*
X128196508Y-154381742D01*
X128196509Y-154381740D01*
X128321472Y-154229472D01*
X128473740Y-154104509D01*
X128647463Y-154011652D01*
X128647465Y-154011651D01*
X128835966Y-153954470D01*
X128835967Y-153954470D01*
X128835970Y-153954469D01*
X128982876Y-153940000D01*
X129081124Y-153940000D01*
X129228030Y-153954469D01*
X129228030Y-153954469D01*
G37*
G36*
X187627770Y-153955372D02*
X187743689Y-153978429D01*
X187925678Y-154053811D01*
X188089463Y-154163249D01*
X188228751Y-154302537D01*
X188338189Y-154466322D01*
X188413571Y-154648311D01*
X188452000Y-154841509D01*
X188452000Y-155038491D01*
X188413571Y-155231689D01*
X188338189Y-155413678D01*
X188228751Y-155577463D01*
X188089463Y-155716751D01*
X187925678Y-155826189D01*
X187743689Y-155901571D01*
X187627770Y-155924628D01*
X187550493Y-155940000D01*
X187353507Y-155940000D01*
X187276230Y-155924628D01*
X187160311Y-155901571D01*
X186978322Y-155826189D01*
X186814537Y-155716751D01*
X186675249Y-155577463D01*
X186565811Y-155413678D01*
X186490429Y-155231689D01*
X186452000Y-155038491D01*
X186452000Y-154841509D01*
X186490429Y-154648311D01*
X186565811Y-154466322D01*
X186675249Y-154302537D01*
X186814537Y-154163249D01*
X186978322Y-154053811D01*
X187160311Y-153978429D01*
X187276230Y-153955372D01*
X187353507Y-153940000D01*
X187550493Y-153940000D01*
X187627770Y-153955372D01*
X187627770Y-153955372D01*
G37*
G36*
X180028030Y-153954469D02*
X180028033Y-153954470D01*
X180028034Y-153954470D01*
X180216535Y-154011651D01*
X180216537Y-154011652D01*
X180390260Y-154104509D01*
X180542528Y-154229472D01*
X180667491Y-154381740D01*
X180667492Y-154381742D01*
X180760349Y-154555465D01*
X180787451Y-154644809D01*
X180817531Y-154743970D01*
X180836838Y-154940000D01*
X180817531Y-155136030D01*
X180760348Y-155324537D01*
X180667491Y-155498260D01*
X180542528Y-155650528D01*
X180390260Y-155775491D01*
X180390258Y-155775492D01*
X180216535Y-155868349D01*
X180028034Y-155925530D01*
X180028033Y-155925530D01*
X180028030Y-155925531D01*
X179881124Y-155940000D01*
X179782876Y-155940000D01*
X179635970Y-155925531D01*
X179635967Y-155925530D01*
X179635966Y-155925530D01*
X179447465Y-155868349D01*
X179273742Y-155775492D01*
X179273740Y-155775491D01*
X179121472Y-155650528D01*
X178996509Y-155498260D01*
X178903652Y-155324537D01*
X178846469Y-155136030D01*
X178827162Y-154940000D01*
X178846469Y-154743970D01*
X178876549Y-154644809D01*
X178903651Y-154555465D01*
X178996508Y-154381742D01*
X178996509Y-154381740D01*
X179121472Y-154229472D01*
X179273740Y-154104509D01*
X179447463Y-154011652D01*
X179447465Y-154011651D01*
X179635966Y-153954470D01*
X179635967Y-153954470D01*
X179635970Y-153954469D01*
X179782876Y-153940000D01*
X179881124Y-153940000D01*
X180028030Y-153954469D01*
X180028030Y-153954469D01*
G37*
G36*
X209492030Y-153954469D02*
X209492033Y-153954470D01*
X209492034Y-153954470D01*
X209680535Y-154011651D01*
X209680537Y-154011652D01*
X209854260Y-154104509D01*
X210006528Y-154229472D01*
X210131491Y-154381740D01*
X210131492Y-154381742D01*
X210224349Y-154555465D01*
X210251451Y-154644809D01*
X210281531Y-154743970D01*
X210300838Y-154940000D01*
X210281531Y-155136030D01*
X210224348Y-155324537D01*
X210131491Y-155498260D01*
X210006528Y-155650528D01*
X209854260Y-155775491D01*
X209854258Y-155775492D01*
X209680535Y-155868349D01*
X209492034Y-155925530D01*
X209492033Y-155925530D01*
X209492030Y-155925531D01*
X209345124Y-155940000D01*
X209246876Y-155940000D01*
X209099970Y-155925531D01*
X209099967Y-155925530D01*
X209099966Y-155925530D01*
X208911465Y-155868349D01*
X208737742Y-155775492D01*
X208737740Y-155775491D01*
X208585472Y-155650528D01*
X208460509Y-155498260D01*
X208367652Y-155324537D01*
X208310469Y-155136030D01*
X208291162Y-154940000D01*
X208310469Y-154743970D01*
X208340549Y-154644809D01*
X208367651Y-154555465D01*
X208460508Y-154381742D01*
X208460509Y-154381740D01*
X208585472Y-154229472D01*
X208737740Y-154104509D01*
X208911463Y-154011652D01*
X208911465Y-154011651D01*
X209099966Y-153954470D01*
X209099967Y-153954470D01*
X209099970Y-153954469D01*
X209246876Y-153940000D01*
X209345124Y-153940000D01*
X209492030Y-153954469D01*
X209492030Y-153954469D01*
G37*
G36*
X190950030Y-153954469D02*
X190950033Y-153954470D01*
X190950034Y-153954470D01*
X191138535Y-154011651D01*
X191138537Y-154011652D01*
X191312260Y-154104509D01*
X191464528Y-154229472D01*
X191589491Y-154381740D01*
X191589492Y-154381742D01*
X191682349Y-154555465D01*
X191709451Y-154644809D01*
X191739531Y-154743970D01*
X191758838Y-154940000D01*
X191739531Y-155136030D01*
X191682348Y-155324537D01*
X191589491Y-155498260D01*
X191464528Y-155650528D01*
X191312260Y-155775491D01*
X191312258Y-155775492D01*
X191138535Y-155868349D01*
X190950034Y-155925530D01*
X190950033Y-155925530D01*
X190950030Y-155925531D01*
X190803124Y-155940000D01*
X190704876Y-155940000D01*
X190557970Y-155925531D01*
X190557967Y-155925530D01*
X190557966Y-155925530D01*
X190369465Y-155868349D01*
X190195742Y-155775492D01*
X190195740Y-155775491D01*
X190043472Y-155650528D01*
X189918509Y-155498260D01*
X189825652Y-155324537D01*
X189768469Y-155136030D01*
X189749162Y-154940000D01*
X189768469Y-154743970D01*
X189798549Y-154644809D01*
X189825651Y-154555465D01*
X189918508Y-154381742D01*
X189918509Y-154381740D01*
X190043472Y-154229472D01*
X190195740Y-154104509D01*
X190369463Y-154011652D01*
X190369465Y-154011651D01*
X190557966Y-153954470D01*
X190557967Y-153954470D01*
X190557970Y-153954469D01*
X190704876Y-153940000D01*
X190803124Y-153940000D01*
X190950030Y-153954469D01*
X190950030Y-153954469D01*
G37*
G36*
X198549770Y-153955372D02*
X198665689Y-153978429D01*
X198847678Y-154053811D01*
X199011463Y-154163249D01*
X199150751Y-154302537D01*
X199260189Y-154466322D01*
X199335571Y-154648311D01*
X199374000Y-154841509D01*
X199374000Y-155038491D01*
X199335571Y-155231689D01*
X199260189Y-155413678D01*
X199150751Y-155577463D01*
X199011463Y-155716751D01*
X198847678Y-155826189D01*
X198665689Y-155901571D01*
X198549770Y-155924628D01*
X198472493Y-155940000D01*
X198275507Y-155940000D01*
X198198230Y-155924628D01*
X198082311Y-155901571D01*
X197900322Y-155826189D01*
X197736537Y-155716751D01*
X197597249Y-155577463D01*
X197487811Y-155413678D01*
X197412429Y-155231689D01*
X197374000Y-155038491D01*
X197374000Y-154841509D01*
X197412429Y-154648311D01*
X197487811Y-154466322D01*
X197597249Y-154302537D01*
X197736537Y-154163249D01*
X197900322Y-154053811D01*
X198082311Y-153978429D01*
X198198230Y-153955372D01*
X198275507Y-153940000D01*
X198472493Y-153940000D01*
X198549770Y-153955372D01*
X198549770Y-153955372D01*
G37*
G36*
X140150030Y-153954469D02*
X140150033Y-153954470D01*
X140150034Y-153954470D01*
X140338535Y-154011651D01*
X140338537Y-154011652D01*
X140512260Y-154104509D01*
X140664528Y-154229472D01*
X140789491Y-154381740D01*
X140789492Y-154381742D01*
X140882349Y-154555465D01*
X140909451Y-154644809D01*
X140939531Y-154743970D01*
X140958838Y-154940000D01*
X140939531Y-155136030D01*
X140882348Y-155324537D01*
X140789491Y-155498260D01*
X140664528Y-155650528D01*
X140512260Y-155775491D01*
X140512258Y-155775492D01*
X140338535Y-155868349D01*
X140150034Y-155925530D01*
X140150033Y-155925530D01*
X140150030Y-155925531D01*
X140003124Y-155940000D01*
X139904876Y-155940000D01*
X139757970Y-155925531D01*
X139757967Y-155925530D01*
X139757966Y-155925530D01*
X139569465Y-155868349D01*
X139395742Y-155775492D01*
X139395740Y-155775491D01*
X139243472Y-155650528D01*
X139118509Y-155498260D01*
X139025652Y-155324537D01*
X138968469Y-155136030D01*
X138949162Y-154940000D01*
X138968469Y-154743970D01*
X138998549Y-154644809D01*
X139025651Y-154555465D01*
X139118508Y-154381742D01*
X139118509Y-154381740D01*
X139243472Y-154229472D01*
X139395740Y-154104509D01*
X139569463Y-154011652D01*
X139569465Y-154011651D01*
X139757966Y-153954470D01*
X139757967Y-153954470D01*
X139757970Y-153954469D01*
X139904876Y-153940000D01*
X140003124Y-153940000D01*
X140150030Y-153954469D01*
X140150030Y-153954469D01*
G37*
G36*
X164785857Y-152612272D02*
X164986042Y-152695191D01*
X165166213Y-152815578D01*
X165319422Y-152968787D01*
X165439809Y-153148958D01*
X165522728Y-153349143D01*
X165565000Y-153561658D01*
X165565000Y-153778342D01*
X165522728Y-153990857D01*
X165439809Y-154191042D01*
X165319422Y-154371213D01*
X165166213Y-154524422D01*
X164986042Y-154644809D01*
X164785857Y-154727728D01*
X164573342Y-154770000D01*
X164356658Y-154770000D01*
X164144143Y-154727728D01*
X163943958Y-154644809D01*
X163763787Y-154524422D01*
X163610578Y-154371213D01*
X163490191Y-154191042D01*
X163407272Y-153990857D01*
X163365000Y-153778342D01*
X163365000Y-153561658D01*
X163407272Y-153349143D01*
X163490191Y-153148958D01*
X163610578Y-152968787D01*
X163763787Y-152815578D01*
X163943958Y-152695191D01*
X164144143Y-152612272D01*
X164356658Y-152570000D01*
X164573342Y-152570000D01*
X164785857Y-152612272D01*
X164785857Y-152612272D01*
G37*
G36*
X173185000Y-154770000D02*
X170985000Y-154770000D01*
X170985000Y-152570000D01*
X173185000Y-152570000D01*
X173185000Y-154770000D01*
X173185000Y-154770000D01*
G37*
G36*
X225745857Y-152612272D02*
X225946042Y-152695191D01*
X226126213Y-152815578D01*
X226279422Y-152968787D01*
X226399809Y-153148958D01*
X226482728Y-153349143D01*
X226525000Y-153561658D01*
X226525000Y-153778342D01*
X226482728Y-153990857D01*
X226399809Y-154191042D01*
X226279422Y-154371213D01*
X226126213Y-154524422D01*
X225946042Y-154644809D01*
X225745857Y-154727728D01*
X225533342Y-154770000D01*
X225316658Y-154770000D01*
X225104143Y-154727728D01*
X224903958Y-154644809D01*
X224723787Y-154524422D01*
X224570578Y-154371213D01*
X224450191Y-154191042D01*
X224367272Y-153990857D01*
X224325000Y-153778342D01*
X224325000Y-153561658D01*
X224367272Y-153349143D01*
X224450191Y-153148958D01*
X224570578Y-152968787D01*
X224723787Y-152815578D01*
X224903958Y-152695191D01*
X225104143Y-152612272D01*
X225316658Y-152570000D01*
X225533342Y-152570000D01*
X225745857Y-152612272D01*
X225745857Y-152612272D01*
G37*
G36*
X174945857Y-152612272D02*
X175146042Y-152695191D01*
X175326213Y-152815578D01*
X175479422Y-152968787D01*
X175599809Y-153148958D01*
X175682728Y-153349143D01*
X175725000Y-153561658D01*
X175725000Y-153778342D01*
X175682728Y-153990857D01*
X175599809Y-154191042D01*
X175479422Y-154371213D01*
X175326213Y-154524422D01*
X175146042Y-154644809D01*
X174945857Y-154727728D01*
X174733342Y-154770000D01*
X174516658Y-154770000D01*
X174304143Y-154727728D01*
X174103958Y-154644809D01*
X173923787Y-154524422D01*
X173770578Y-154371213D01*
X173650191Y-154191042D01*
X173567272Y-153990857D01*
X173525000Y-153778342D01*
X173525000Y-153561658D01*
X173567272Y-153349143D01*
X173650191Y-153148958D01*
X173770578Y-152968787D01*
X173923787Y-152815578D01*
X174103958Y-152695191D01*
X174304143Y-152612272D01*
X174516658Y-152570000D01*
X174733342Y-152570000D01*
X174945857Y-152612272D01*
X174945857Y-152612272D01*
G37*
G36*
X220665857Y-152612272D02*
X220866042Y-152695191D01*
X221046213Y-152815578D01*
X221199422Y-152968787D01*
X221319809Y-153148958D01*
X221402728Y-153349143D01*
X221445000Y-153561658D01*
X221445000Y-153778342D01*
X221402728Y-153990857D01*
X221319809Y-154191042D01*
X221199422Y-154371213D01*
X221046213Y-154524422D01*
X220866042Y-154644809D01*
X220665857Y-154727728D01*
X220453342Y-154770000D01*
X220236658Y-154770000D01*
X220024143Y-154727728D01*
X219823958Y-154644809D01*
X219643787Y-154524422D01*
X219490578Y-154371213D01*
X219370191Y-154191042D01*
X219287272Y-153990857D01*
X219245000Y-153778342D01*
X219245000Y-153561658D01*
X219287272Y-153349143D01*
X219370191Y-153148958D01*
X219490578Y-152968787D01*
X219643787Y-152815578D01*
X219823958Y-152695191D01*
X220024143Y-152612272D01*
X220236658Y-152570000D01*
X220453342Y-152570000D01*
X220665857Y-152612272D01*
X220665857Y-152612272D01*
G37*
G36*
X169865857Y-152612272D02*
X170066042Y-152695191D01*
X170246213Y-152815578D01*
X170399422Y-152968787D01*
X170519809Y-153148958D01*
X170602728Y-153349143D01*
X170645000Y-153561658D01*
X170645000Y-153778342D01*
X170602728Y-153990857D01*
X170519809Y-154191042D01*
X170399422Y-154371213D01*
X170246213Y-154524422D01*
X170066042Y-154644809D01*
X169865857Y-154727728D01*
X169653342Y-154770000D01*
X169436658Y-154770000D01*
X169224143Y-154727728D01*
X169023958Y-154644809D01*
X168843787Y-154524422D01*
X168690578Y-154371213D01*
X168570191Y-154191042D01*
X168487272Y-153990857D01*
X168445000Y-153778342D01*
X168445000Y-153561658D01*
X168487272Y-153349143D01*
X168570191Y-153148958D01*
X168690578Y-152968787D01*
X168843787Y-152815578D01*
X169023958Y-152695191D01*
X169224143Y-152612272D01*
X169436658Y-152570000D01*
X169653342Y-152570000D01*
X169865857Y-152612272D01*
X169865857Y-152612272D01*
G37*
G36*
X168105000Y-154770000D02*
X165905000Y-154770000D01*
X165905000Y-152570000D01*
X168105000Y-152570000D01*
X168105000Y-154770000D01*
X168105000Y-154770000D01*
G37*
G36*
X223985000Y-154770000D02*
X221785000Y-154770000D01*
X221785000Y-152570000D01*
X223985000Y-152570000D01*
X223985000Y-154770000D01*
X223985000Y-154770000D01*
G37*
G36*
X163025000Y-154770000D02*
X160825000Y-154770000D01*
X160825000Y-152570000D01*
X163025000Y-152570000D01*
X163025000Y-154770000D01*
X163025000Y-154770000D01*
G37*
G36*
X213825000Y-154770000D02*
X211625000Y-154770000D01*
X211625000Y-152570000D01*
X213825000Y-152570000D01*
X213825000Y-154770000D01*
X213825000Y-154770000D01*
G37*
G36*
X218905000Y-154770000D02*
X216705000Y-154770000D01*
X216705000Y-152570000D01*
X218905000Y-152570000D01*
X218905000Y-154770000D01*
X218905000Y-154770000D01*
G37*
G36*
X215585857Y-152612272D02*
X215786042Y-152695191D01*
X215966213Y-152815578D01*
X216119422Y-152968787D01*
X216239809Y-153148958D01*
X216322728Y-153349143D01*
X216365000Y-153561658D01*
X216365000Y-153778342D01*
X216322728Y-153990857D01*
X216239809Y-154191042D01*
X216119422Y-154371213D01*
X215966213Y-154524422D01*
X215786042Y-154644809D01*
X215585857Y-154727728D01*
X215373342Y-154770000D01*
X215156658Y-154770000D01*
X214944143Y-154727728D01*
X214743958Y-154644809D01*
X214563787Y-154524422D01*
X214410578Y-154371213D01*
X214290191Y-154191042D01*
X214207272Y-153990857D01*
X214165000Y-153778342D01*
X214165000Y-153561658D01*
X214207272Y-153349143D01*
X214290191Y-153148958D01*
X214410578Y-152968787D01*
X214563787Y-152815578D01*
X214743958Y-152695191D01*
X214944143Y-152612272D01*
X215156658Y-152570000D01*
X215373342Y-152570000D01*
X215585857Y-152612272D01*
X215585857Y-152612272D01*
G37*
G36*
X209492030Y-150652469D02*
X209492033Y-150652470D01*
X209492034Y-150652470D01*
X209680535Y-150709651D01*
X209680537Y-150709652D01*
X209854260Y-150802509D01*
X210006528Y-150927472D01*
X210131491Y-151079740D01*
X210224348Y-151253463D01*
X210281531Y-151441970D01*
X210300838Y-151638000D01*
X210281531Y-151834030D01*
X210224348Y-152022537D01*
X210131491Y-152196260D01*
X210006528Y-152348528D01*
X209854260Y-152473491D01*
X209854258Y-152473492D01*
X209680535Y-152566349D01*
X209492034Y-152623530D01*
X209492033Y-152623530D01*
X209492030Y-152623531D01*
X209345124Y-152638000D01*
X209246876Y-152638000D01*
X209099970Y-152623531D01*
X209099967Y-152623530D01*
X209099966Y-152623530D01*
X208911465Y-152566349D01*
X208737742Y-152473492D01*
X208737740Y-152473491D01*
X208585472Y-152348528D01*
X208460509Y-152196260D01*
X208367652Y-152022537D01*
X208310469Y-151834030D01*
X208291162Y-151638000D01*
X208310469Y-151441970D01*
X208367652Y-151253463D01*
X208460509Y-151079740D01*
X208585472Y-150927472D01*
X208737740Y-150802509D01*
X208911463Y-150709652D01*
X208911465Y-150709651D01*
X209099966Y-150652470D01*
X209099967Y-150652470D01*
X209099970Y-150652469D01*
X209246876Y-150638000D01*
X209345124Y-150638000D01*
X209492030Y-150652469D01*
X209492030Y-150652469D01*
G37*
G36*
X140129770Y-150653372D02*
X140245689Y-150676429D01*
X140427678Y-150751811D01*
X140591463Y-150861249D01*
X140730751Y-151000537D01*
X140840189Y-151164322D01*
X140915571Y-151346311D01*
X140954000Y-151539509D01*
X140954000Y-151736491D01*
X140915571Y-151929689D01*
X140840189Y-152111678D01*
X140730751Y-152275463D01*
X140591463Y-152414751D01*
X140427678Y-152524189D01*
X140245689Y-152599571D01*
X140129770Y-152622628D01*
X140052493Y-152638000D01*
X139855507Y-152638000D01*
X139778230Y-152622628D01*
X139662311Y-152599571D01*
X139480322Y-152524189D01*
X139316537Y-152414751D01*
X139177249Y-152275463D01*
X139067811Y-152111678D01*
X138992429Y-151929689D01*
X138954000Y-151736491D01*
X138954000Y-151539509D01*
X138992429Y-151346311D01*
X139067811Y-151164322D01*
X139177249Y-151000537D01*
X139316537Y-150861249D01*
X139480322Y-150751811D01*
X139662311Y-150676429D01*
X139778230Y-150653372D01*
X139855507Y-150638000D01*
X140052493Y-150638000D01*
X140129770Y-150653372D01*
X140129770Y-150653372D01*
G37*
G36*
X147770030Y-150652469D02*
X147770033Y-150652470D01*
X147770034Y-150652470D01*
X147958535Y-150709651D01*
X147958537Y-150709652D01*
X148132260Y-150802509D01*
X148284528Y-150927472D01*
X148409491Y-151079740D01*
X148502348Y-151253463D01*
X148559531Y-151441970D01*
X148578838Y-151638000D01*
X148559531Y-151834030D01*
X148502348Y-152022537D01*
X148409491Y-152196260D01*
X148284528Y-152348528D01*
X148132260Y-152473491D01*
X148132258Y-152473492D01*
X147958535Y-152566349D01*
X147770034Y-152623530D01*
X147770033Y-152623530D01*
X147770030Y-152623531D01*
X147623124Y-152638000D01*
X147524876Y-152638000D01*
X147377970Y-152623531D01*
X147377967Y-152623530D01*
X147377966Y-152623530D01*
X147189465Y-152566349D01*
X147015742Y-152473492D01*
X147015740Y-152473491D01*
X146863472Y-152348528D01*
X146738509Y-152196260D01*
X146645652Y-152022537D01*
X146588469Y-151834030D01*
X146569162Y-151638000D01*
X146588469Y-151441970D01*
X146645652Y-151253463D01*
X146738509Y-151079740D01*
X146863472Y-150927472D01*
X147015740Y-150802509D01*
X147189463Y-150709652D01*
X147189465Y-150709651D01*
X147377966Y-150652470D01*
X147377967Y-150652470D01*
X147377970Y-150652469D01*
X147524876Y-150638000D01*
X147623124Y-150638000D01*
X147770030Y-150652469D01*
X147770030Y-150652469D01*
G37*
G36*
X190929770Y-150653372D02*
X191045689Y-150676429D01*
X191227678Y-150751811D01*
X191391463Y-150861249D01*
X191530751Y-151000537D01*
X191640189Y-151164322D01*
X191715571Y-151346311D01*
X191754000Y-151539509D01*
X191754000Y-151736491D01*
X191715571Y-151929689D01*
X191640189Y-152111678D01*
X191530751Y-152275463D01*
X191391463Y-152414751D01*
X191227678Y-152524189D01*
X191045689Y-152599571D01*
X190929770Y-152622628D01*
X190852493Y-152638000D01*
X190655507Y-152638000D01*
X190578230Y-152622628D01*
X190462311Y-152599571D01*
X190280322Y-152524189D01*
X190116537Y-152414751D01*
X189977249Y-152275463D01*
X189867811Y-152111678D01*
X189792429Y-151929689D01*
X189754000Y-151736491D01*
X189754000Y-151539509D01*
X189792429Y-151346311D01*
X189867811Y-151164322D01*
X189977249Y-151000537D01*
X190116537Y-150861249D01*
X190280322Y-150751811D01*
X190462311Y-150676429D01*
X190578230Y-150653372D01*
X190655507Y-150638000D01*
X190852493Y-150638000D01*
X190929770Y-150653372D01*
X190929770Y-150653372D01*
G37*
G36*
X198570030Y-150652469D02*
X198570033Y-150652470D01*
X198570034Y-150652470D01*
X198758535Y-150709651D01*
X198758537Y-150709652D01*
X198932260Y-150802509D01*
X199084528Y-150927472D01*
X199209491Y-151079740D01*
X199302348Y-151253463D01*
X199359531Y-151441970D01*
X199378838Y-151638000D01*
X199359531Y-151834030D01*
X199302348Y-152022537D01*
X199209491Y-152196260D01*
X199084528Y-152348528D01*
X198932260Y-152473491D01*
X198932258Y-152473492D01*
X198758535Y-152566349D01*
X198570034Y-152623530D01*
X198570033Y-152623530D01*
X198570030Y-152623531D01*
X198423124Y-152638000D01*
X198324876Y-152638000D01*
X198177970Y-152623531D01*
X198177967Y-152623530D01*
X198177966Y-152623530D01*
X197989465Y-152566349D01*
X197815742Y-152473492D01*
X197815740Y-152473491D01*
X197663472Y-152348528D01*
X197538509Y-152196260D01*
X197445652Y-152022537D01*
X197388469Y-151834030D01*
X197369162Y-151638000D01*
X197388469Y-151441970D01*
X197445652Y-151253463D01*
X197538509Y-151079740D01*
X197663472Y-150927472D01*
X197815740Y-150802509D01*
X197989463Y-150709652D01*
X197989465Y-150709651D01*
X198177966Y-150652470D01*
X198177967Y-150652470D01*
X198177970Y-150652469D01*
X198324876Y-150638000D01*
X198423124Y-150638000D01*
X198570030Y-150652469D01*
X198570030Y-150652469D01*
G37*
G36*
X136827770Y-150653372D02*
X136943689Y-150676429D01*
X137125678Y-150751811D01*
X137289463Y-150861249D01*
X137428751Y-151000537D01*
X137538189Y-151164322D01*
X137613571Y-151346311D01*
X137652000Y-151539509D01*
X137652000Y-151736491D01*
X137613571Y-151929689D01*
X137538189Y-152111678D01*
X137428751Y-152275463D01*
X137289463Y-152414751D01*
X137125678Y-152524189D01*
X136943689Y-152599571D01*
X136827770Y-152622628D01*
X136750493Y-152638000D01*
X136553507Y-152638000D01*
X136476230Y-152622628D01*
X136360311Y-152599571D01*
X136178322Y-152524189D01*
X136014537Y-152414751D01*
X135875249Y-152275463D01*
X135765811Y-152111678D01*
X135690429Y-151929689D01*
X135652000Y-151736491D01*
X135652000Y-151539509D01*
X135690429Y-151346311D01*
X135765811Y-151164322D01*
X135875249Y-151000537D01*
X136014537Y-150861249D01*
X136178322Y-150751811D01*
X136360311Y-150676429D01*
X136476230Y-150653372D01*
X136553507Y-150638000D01*
X136750493Y-150638000D01*
X136827770Y-150653372D01*
X136827770Y-150653372D01*
G37*
G36*
X187627770Y-150653372D02*
X187743689Y-150676429D01*
X187925678Y-150751811D01*
X188089463Y-150861249D01*
X188228751Y-151000537D01*
X188338189Y-151164322D01*
X188413571Y-151346311D01*
X188452000Y-151539509D01*
X188452000Y-151736491D01*
X188413571Y-151929689D01*
X188338189Y-152111678D01*
X188228751Y-152275463D01*
X188089463Y-152414751D01*
X187925678Y-152524189D01*
X187743689Y-152599571D01*
X187627770Y-152622628D01*
X187550493Y-152638000D01*
X187353507Y-152638000D01*
X187276230Y-152622628D01*
X187160311Y-152599571D01*
X186978322Y-152524189D01*
X186814537Y-152414751D01*
X186675249Y-152275463D01*
X186565811Y-152111678D01*
X186490429Y-151929689D01*
X186452000Y-151736491D01*
X186452000Y-151539509D01*
X186490429Y-151346311D01*
X186565811Y-151164322D01*
X186675249Y-151000537D01*
X186814537Y-150861249D01*
X186978322Y-150751811D01*
X187160311Y-150676429D01*
X187276230Y-150653372D01*
X187353507Y-150638000D01*
X187550493Y-150638000D01*
X187627770Y-150653372D01*
X187627770Y-150653372D01*
G37*
G36*
X129228030Y-150652469D02*
X129228033Y-150652470D01*
X129228034Y-150652470D01*
X129416535Y-150709651D01*
X129416537Y-150709652D01*
X129590260Y-150802509D01*
X129742528Y-150927472D01*
X129867491Y-151079740D01*
X129960348Y-151253463D01*
X130017531Y-151441970D01*
X130036838Y-151638000D01*
X130017531Y-151834030D01*
X129960348Y-152022537D01*
X129867491Y-152196260D01*
X129742528Y-152348528D01*
X129590260Y-152473491D01*
X129590258Y-152473492D01*
X129416535Y-152566349D01*
X129228034Y-152623530D01*
X129228033Y-152623530D01*
X129228030Y-152623531D01*
X129081124Y-152638000D01*
X128982876Y-152638000D01*
X128835970Y-152623531D01*
X128835967Y-152623530D01*
X128835966Y-152623530D01*
X128647465Y-152566349D01*
X128473742Y-152473492D01*
X128473740Y-152473491D01*
X128321472Y-152348528D01*
X128196509Y-152196260D01*
X128103652Y-152022537D01*
X128046469Y-151834030D01*
X128027162Y-151638000D01*
X128046469Y-151441970D01*
X128103652Y-151253463D01*
X128196509Y-151079740D01*
X128321472Y-150927472D01*
X128473740Y-150802509D01*
X128647463Y-150709652D01*
X128647465Y-150709651D01*
X128835966Y-150652470D01*
X128835967Y-150652470D01*
X128835970Y-150652469D01*
X128982876Y-150638000D01*
X129081124Y-150638000D01*
X129228030Y-150652469D01*
X129228030Y-150652469D01*
G37*
G36*
X151051770Y-150653372D02*
X151167689Y-150676429D01*
X151349678Y-150751811D01*
X151513463Y-150861249D01*
X151652751Y-151000537D01*
X151762189Y-151164322D01*
X151837571Y-151346311D01*
X151876000Y-151539509D01*
X151876000Y-151736491D01*
X151837571Y-151929689D01*
X151762189Y-152111678D01*
X151652751Y-152275463D01*
X151513463Y-152414751D01*
X151349678Y-152524189D01*
X151167689Y-152599571D01*
X151051770Y-152622628D01*
X150974493Y-152638000D01*
X150777507Y-152638000D01*
X150700230Y-152622628D01*
X150584311Y-152599571D01*
X150402322Y-152524189D01*
X150238537Y-152414751D01*
X150099249Y-152275463D01*
X149989811Y-152111678D01*
X149914429Y-151929689D01*
X149876000Y-151736491D01*
X149876000Y-151539509D01*
X149914429Y-151346311D01*
X149989811Y-151164322D01*
X150099249Y-151000537D01*
X150238537Y-150861249D01*
X150402322Y-150751811D01*
X150584311Y-150676429D01*
X150700230Y-150653372D01*
X150777507Y-150638000D01*
X150974493Y-150638000D01*
X151051770Y-150653372D01*
X151051770Y-150653372D01*
G37*
G36*
X201851770Y-150653372D02*
X201967689Y-150676429D01*
X202149678Y-150751811D01*
X202313463Y-150861249D01*
X202452751Y-151000537D01*
X202562189Y-151164322D01*
X202637571Y-151346311D01*
X202676000Y-151539509D01*
X202676000Y-151736491D01*
X202637571Y-151929689D01*
X202562189Y-152111678D01*
X202452751Y-152275463D01*
X202313463Y-152414751D01*
X202149678Y-152524189D01*
X201967689Y-152599571D01*
X201851770Y-152622628D01*
X201774493Y-152638000D01*
X201577507Y-152638000D01*
X201500230Y-152622628D01*
X201384311Y-152599571D01*
X201202322Y-152524189D01*
X201038537Y-152414751D01*
X200899249Y-152275463D01*
X200789811Y-152111678D01*
X200714429Y-151929689D01*
X200676000Y-151736491D01*
X200676000Y-151539509D01*
X200714429Y-151346311D01*
X200789811Y-151164322D01*
X200899249Y-151000537D01*
X201038537Y-150861249D01*
X201202322Y-150751811D01*
X201384311Y-150676429D01*
X201500230Y-150653372D01*
X201577507Y-150638000D01*
X201774493Y-150638000D01*
X201851770Y-150653372D01*
X201851770Y-150653372D01*
G37*
G36*
X158692030Y-150652469D02*
X158692033Y-150652470D01*
X158692034Y-150652470D01*
X158880535Y-150709651D01*
X158880537Y-150709652D01*
X159054260Y-150802509D01*
X159206528Y-150927472D01*
X159331491Y-151079740D01*
X159424348Y-151253463D01*
X159481531Y-151441970D01*
X159500838Y-151638000D01*
X159481531Y-151834030D01*
X159424348Y-152022537D01*
X159331491Y-152196260D01*
X159206528Y-152348528D01*
X159054260Y-152473491D01*
X159054258Y-152473492D01*
X158880535Y-152566349D01*
X158692034Y-152623530D01*
X158692033Y-152623530D01*
X158692030Y-152623531D01*
X158545124Y-152638000D01*
X158446876Y-152638000D01*
X158299970Y-152623531D01*
X158299967Y-152623530D01*
X158299966Y-152623530D01*
X158111465Y-152566349D01*
X157937742Y-152473492D01*
X157937740Y-152473491D01*
X157785472Y-152348528D01*
X157660509Y-152196260D01*
X157567652Y-152022537D01*
X157510469Y-151834030D01*
X157491162Y-151638000D01*
X157510469Y-151441970D01*
X157567652Y-151253463D01*
X157660509Y-151079740D01*
X157785472Y-150927472D01*
X157937740Y-150802509D01*
X158111463Y-150709652D01*
X158111465Y-150709651D01*
X158299966Y-150652470D01*
X158299967Y-150652470D01*
X158299970Y-150652469D01*
X158446876Y-150638000D01*
X158545124Y-150638000D01*
X158692030Y-150652469D01*
X158692030Y-150652469D01*
G37*
G36*
X180028030Y-150652469D02*
X180028033Y-150652470D01*
X180028034Y-150652470D01*
X180216535Y-150709651D01*
X180216537Y-150709652D01*
X180390260Y-150802509D01*
X180542528Y-150927472D01*
X180667491Y-151079740D01*
X180760348Y-151253463D01*
X180817531Y-151441970D01*
X180836838Y-151638000D01*
X180817531Y-151834030D01*
X180760348Y-152022537D01*
X180667491Y-152196260D01*
X180542528Y-152348528D01*
X180390260Y-152473491D01*
X180390258Y-152473492D01*
X180216535Y-152566349D01*
X180028034Y-152623530D01*
X180028033Y-152623530D01*
X180028030Y-152623531D01*
X179881124Y-152638000D01*
X179782876Y-152638000D01*
X179635970Y-152623531D01*
X179635967Y-152623530D01*
X179635966Y-152623530D01*
X179447465Y-152566349D01*
X179273742Y-152473492D01*
X179273740Y-152473491D01*
X179121472Y-152348528D01*
X178996509Y-152196260D01*
X178903652Y-152022537D01*
X178846469Y-151834030D01*
X178827162Y-151638000D01*
X178846469Y-151441970D01*
X178903652Y-151253463D01*
X178996509Y-151079740D01*
X179121472Y-150927472D01*
X179273740Y-150802509D01*
X179447463Y-150709652D01*
X179447465Y-150709651D01*
X179635966Y-150652470D01*
X179635967Y-150652470D01*
X179635970Y-150652469D01*
X179782876Y-150638000D01*
X179881124Y-150638000D01*
X180028030Y-150652469D01*
X180028030Y-150652469D01*
G37*
G36*
X141290857Y-146897272D02*
X141491042Y-146980191D01*
X141671213Y-147100578D01*
X141824422Y-147253787D01*
X141944809Y-147433958D01*
X142027728Y-147634143D01*
X142070000Y-147846658D01*
X142070000Y-148063342D01*
X142027728Y-148275857D01*
X141944809Y-148476042D01*
X141824422Y-148656213D01*
X141671213Y-148809422D01*
X141491042Y-148929809D01*
X141290857Y-149012728D01*
X141078342Y-149055000D01*
X140861658Y-149055000D01*
X140649143Y-149012728D01*
X140448958Y-148929809D01*
X140268787Y-148809422D01*
X140115578Y-148656213D01*
X139995191Y-148476042D01*
X139912272Y-148275857D01*
X139870000Y-148063342D01*
X139870000Y-147846658D01*
X139912272Y-147634143D01*
X139995191Y-147433958D01*
X140115578Y-147253787D01*
X140268787Y-147100578D01*
X140448958Y-146980191D01*
X140649143Y-146897272D01*
X140861658Y-146855000D01*
X141078342Y-146855000D01*
X141290857Y-146897272D01*
X141290857Y-146897272D01*
G37*
G36*
X136210857Y-146897272D02*
X136411042Y-146980191D01*
X136591213Y-147100578D01*
X136744422Y-147253787D01*
X136864809Y-147433958D01*
X136947728Y-147634143D01*
X136990000Y-147846658D01*
X136990000Y-148063342D01*
X136947728Y-148275857D01*
X136864809Y-148476042D01*
X136744422Y-148656213D01*
X136591213Y-148809422D01*
X136411042Y-148929809D01*
X136210857Y-149012728D01*
X135998342Y-149055000D01*
X135781658Y-149055000D01*
X135569143Y-149012728D01*
X135368958Y-148929809D01*
X135188787Y-148809422D01*
X135035578Y-148656213D01*
X134915191Y-148476042D01*
X134832272Y-148275857D01*
X134790000Y-148063342D01*
X134790000Y-147846658D01*
X134832272Y-147634143D01*
X134915191Y-147433958D01*
X135035578Y-147253787D01*
X135188787Y-147100578D01*
X135368958Y-146980191D01*
X135569143Y-146897272D01*
X135781658Y-146855000D01*
X135998342Y-146855000D01*
X136210857Y-146897272D01*
X136210857Y-146897272D01*
G37*
G36*
X143830857Y-146897272D02*
X144031042Y-146980191D01*
X144211213Y-147100578D01*
X144364422Y-147253787D01*
X144484809Y-147433958D01*
X144567728Y-147634143D01*
X144610000Y-147846658D01*
X144610000Y-148063342D01*
X144567728Y-148275857D01*
X144484809Y-148476042D01*
X144364422Y-148656213D01*
X144211213Y-148809422D01*
X144031042Y-148929809D01*
X143830857Y-149012728D01*
X143618342Y-149055000D01*
X143401658Y-149055000D01*
X143189143Y-149012728D01*
X142988958Y-148929809D01*
X142808787Y-148809422D01*
X142655578Y-148656213D01*
X142535191Y-148476042D01*
X142452272Y-148275857D01*
X142410000Y-148063342D01*
X142410000Y-147846658D01*
X142452272Y-147634143D01*
X142535191Y-147433958D01*
X142655578Y-147253787D01*
X142808787Y-147100578D01*
X142988958Y-146980191D01*
X143189143Y-146897272D01*
X143401658Y-146855000D01*
X143618342Y-146855000D01*
X143830857Y-146897272D01*
X143830857Y-146897272D01*
G37*
G36*
X202250857Y-146897272D02*
X202451042Y-146980191D01*
X202631213Y-147100578D01*
X202784422Y-147253787D01*
X202904809Y-147433958D01*
X202987728Y-147634143D01*
X203030000Y-147846658D01*
X203030000Y-148063342D01*
X202987728Y-148275857D01*
X202904809Y-148476042D01*
X202784422Y-148656213D01*
X202631213Y-148809422D01*
X202451042Y-148929809D01*
X202250857Y-149012728D01*
X202038342Y-149055000D01*
X201821658Y-149055000D01*
X201609143Y-149012728D01*
X201408958Y-148929809D01*
X201228787Y-148809422D01*
X201075578Y-148656213D01*
X200955191Y-148476042D01*
X200872272Y-148275857D01*
X200830000Y-148063342D01*
X200830000Y-147846658D01*
X200872272Y-147634143D01*
X200955191Y-147433958D01*
X201075578Y-147253787D01*
X201228787Y-147100578D01*
X201408958Y-146980191D01*
X201609143Y-146897272D01*
X201821658Y-146855000D01*
X202038342Y-146855000D01*
X202250857Y-146897272D01*
X202250857Y-146897272D01*
G37*
G36*
X199710857Y-146897272D02*
X199911042Y-146980191D01*
X200091213Y-147100578D01*
X200244422Y-147253787D01*
X200364809Y-147433958D01*
X200447728Y-147634143D01*
X200490000Y-147846658D01*
X200490000Y-148063342D01*
X200447728Y-148275857D01*
X200364809Y-148476042D01*
X200244422Y-148656213D01*
X200091213Y-148809422D01*
X199911042Y-148929809D01*
X199710857Y-149012728D01*
X199498342Y-149055000D01*
X199281658Y-149055000D01*
X199069143Y-149012728D01*
X198868958Y-148929809D01*
X198688787Y-148809422D01*
X198535578Y-148656213D01*
X198415191Y-148476042D01*
X198332272Y-148275857D01*
X198290000Y-148063342D01*
X198290000Y-147846658D01*
X198332272Y-147634143D01*
X198415191Y-147433958D01*
X198535578Y-147253787D01*
X198688787Y-147100578D01*
X198868958Y-146980191D01*
X199069143Y-146897272D01*
X199281658Y-146855000D01*
X199498342Y-146855000D01*
X199710857Y-146897272D01*
X199710857Y-146897272D01*
G37*
G36*
X197170857Y-146897272D02*
X197371042Y-146980191D01*
X197551213Y-147100578D01*
X197704422Y-147253787D01*
X197824809Y-147433958D01*
X197907728Y-147634143D01*
X197950000Y-147846658D01*
X197950000Y-148063342D01*
X197907728Y-148275857D01*
X197824809Y-148476042D01*
X197704422Y-148656213D01*
X197551213Y-148809422D01*
X197371042Y-148929809D01*
X197170857Y-149012728D01*
X196958342Y-149055000D01*
X196741658Y-149055000D01*
X196529143Y-149012728D01*
X196328958Y-148929809D01*
X196148787Y-148809422D01*
X195995578Y-148656213D01*
X195875191Y-148476042D01*
X195792272Y-148275857D01*
X195750000Y-148063342D01*
X195750000Y-147846658D01*
X195792272Y-147634143D01*
X195875191Y-147433958D01*
X195995578Y-147253787D01*
X196148787Y-147100578D01*
X196328958Y-146980191D01*
X196529143Y-146897272D01*
X196741658Y-146855000D01*
X196958342Y-146855000D01*
X197170857Y-146897272D01*
X197170857Y-146897272D01*
G37*
G36*
X194630857Y-146897272D02*
X194831042Y-146980191D01*
X195011213Y-147100578D01*
X195164422Y-147253787D01*
X195284809Y-147433958D01*
X195367728Y-147634143D01*
X195410000Y-147846658D01*
X195410000Y-148063342D01*
X195367728Y-148275857D01*
X195284809Y-148476042D01*
X195164422Y-148656213D01*
X195011213Y-148809422D01*
X194831042Y-148929809D01*
X194630857Y-149012728D01*
X194418342Y-149055000D01*
X194201658Y-149055000D01*
X193989143Y-149012728D01*
X193788958Y-148929809D01*
X193608787Y-148809422D01*
X193455578Y-148656213D01*
X193335191Y-148476042D01*
X193252272Y-148275857D01*
X193210000Y-148063342D01*
X193210000Y-147846658D01*
X193252272Y-147634143D01*
X193335191Y-147433958D01*
X193455578Y-147253787D01*
X193608787Y-147100578D01*
X193788958Y-146980191D01*
X193989143Y-146897272D01*
X194201658Y-146855000D01*
X194418342Y-146855000D01*
X194630857Y-146897272D01*
X194630857Y-146897272D01*
G37*
G36*
X151450857Y-146897272D02*
X151651042Y-146980191D01*
X151831213Y-147100578D01*
X151984422Y-147253787D01*
X152104809Y-147433958D01*
X152187728Y-147634143D01*
X152230000Y-147846658D01*
X152230000Y-148063342D01*
X152187728Y-148275857D01*
X152104809Y-148476042D01*
X151984422Y-148656213D01*
X151831213Y-148809422D01*
X151651042Y-148929809D01*
X151450857Y-149012728D01*
X151238342Y-149055000D01*
X151021658Y-149055000D01*
X150809143Y-149012728D01*
X150608958Y-148929809D01*
X150428787Y-148809422D01*
X150275578Y-148656213D01*
X150155191Y-148476042D01*
X150072272Y-148275857D01*
X150030000Y-148063342D01*
X150030000Y-147846658D01*
X150072272Y-147634143D01*
X150155191Y-147433958D01*
X150275578Y-147253787D01*
X150428787Y-147100578D01*
X150608958Y-146980191D01*
X150809143Y-146897272D01*
X151021658Y-146855000D01*
X151238342Y-146855000D01*
X151450857Y-146897272D01*
X151450857Y-146897272D01*
G37*
G36*
X148910857Y-146897272D02*
X149111042Y-146980191D01*
X149291213Y-147100578D01*
X149444422Y-147253787D01*
X149564809Y-147433958D01*
X149647728Y-147634143D01*
X149690000Y-147846658D01*
X149690000Y-148063342D01*
X149647728Y-148275857D01*
X149564809Y-148476042D01*
X149444422Y-148656213D01*
X149291213Y-148809422D01*
X149111042Y-148929809D01*
X148910857Y-149012728D01*
X148698342Y-149055000D01*
X148481658Y-149055000D01*
X148269143Y-149012728D01*
X148068958Y-148929809D01*
X147888787Y-148809422D01*
X147735578Y-148656213D01*
X147615191Y-148476042D01*
X147532272Y-148275857D01*
X147490000Y-148063342D01*
X147490000Y-147846658D01*
X147532272Y-147634143D01*
X147615191Y-147433958D01*
X147735578Y-147253787D01*
X147888787Y-147100578D01*
X148068958Y-146980191D01*
X148269143Y-146897272D01*
X148481658Y-146855000D01*
X148698342Y-146855000D01*
X148910857Y-146897272D01*
X148910857Y-146897272D01*
G37*
G36*
X138750857Y-146897272D02*
X138951042Y-146980191D01*
X139131213Y-147100578D01*
X139284422Y-147253787D01*
X139404809Y-147433958D01*
X139487728Y-147634143D01*
X139530000Y-147846658D01*
X139530000Y-148063342D01*
X139487728Y-148275857D01*
X139404809Y-148476042D01*
X139284422Y-148656213D01*
X139131213Y-148809422D01*
X138951042Y-148929809D01*
X138750857Y-149012728D01*
X138538342Y-149055000D01*
X138321658Y-149055000D01*
X138109143Y-149012728D01*
X137908958Y-148929809D01*
X137728787Y-148809422D01*
X137575578Y-148656213D01*
X137455191Y-148476042D01*
X137372272Y-148275857D01*
X137330000Y-148063342D01*
X137330000Y-147846658D01*
X137372272Y-147634143D01*
X137455191Y-147433958D01*
X137575578Y-147253787D01*
X137728787Y-147100578D01*
X137908958Y-146980191D01*
X138109143Y-146897272D01*
X138321658Y-146855000D01*
X138538342Y-146855000D01*
X138750857Y-146897272D01*
X138750857Y-146897272D01*
G37*
G36*
X146370857Y-146897272D02*
X146571042Y-146980191D01*
X146751213Y-147100578D01*
X146904422Y-147253787D01*
X147024809Y-147433958D01*
X147107728Y-147634143D01*
X147150000Y-147846658D01*
X147150000Y-148063342D01*
X147107728Y-148275857D01*
X147024809Y-148476042D01*
X146904422Y-148656213D01*
X146751213Y-148809422D01*
X146571042Y-148929809D01*
X146370857Y-149012728D01*
X146158342Y-149055000D01*
X145941658Y-149055000D01*
X145729143Y-149012728D01*
X145528958Y-148929809D01*
X145348787Y-148809422D01*
X145195578Y-148656213D01*
X145075191Y-148476042D01*
X144992272Y-148275857D01*
X144950000Y-148063342D01*
X144950000Y-147846658D01*
X144992272Y-147634143D01*
X145075191Y-147433958D01*
X145195578Y-147253787D01*
X145348787Y-147100578D01*
X145528958Y-146980191D01*
X145729143Y-146897272D01*
X145941658Y-146855000D01*
X146158342Y-146855000D01*
X146370857Y-146897272D01*
X146370857Y-146897272D01*
G37*
G36*
X153990857Y-146897272D02*
X154191042Y-146980191D01*
X154371213Y-147100578D01*
X154524422Y-147253787D01*
X154644809Y-147433958D01*
X154727728Y-147634143D01*
X154770000Y-147846658D01*
X154770000Y-148063342D01*
X154727728Y-148275857D01*
X154644809Y-148476042D01*
X154524422Y-148656213D01*
X154371213Y-148809422D01*
X154191042Y-148929809D01*
X153990857Y-149012728D01*
X153778342Y-149055000D01*
X153561658Y-149055000D01*
X153349143Y-149012728D01*
X153148958Y-148929809D01*
X152968787Y-148809422D01*
X152815578Y-148656213D01*
X152695191Y-148476042D01*
X152612272Y-148275857D01*
X152570000Y-148063342D01*
X152570000Y-147846658D01*
X152612272Y-147634143D01*
X152695191Y-147433958D01*
X152815578Y-147253787D01*
X152968787Y-147100578D01*
X153148958Y-146980191D01*
X153349143Y-146897272D01*
X153561658Y-146855000D01*
X153778342Y-146855000D01*
X153990857Y-146897272D01*
X153990857Y-146897272D01*
G37*
G36*
X187010857Y-146897272D02*
X187211042Y-146980191D01*
X187391213Y-147100578D01*
X187544422Y-147253787D01*
X187664809Y-147433958D01*
X187747728Y-147634143D01*
X187790000Y-147846658D01*
X187790000Y-148063342D01*
X187747728Y-148275857D01*
X187664809Y-148476042D01*
X187544422Y-148656213D01*
X187391213Y-148809422D01*
X187211042Y-148929809D01*
X187010857Y-149012728D01*
X186798342Y-149055000D01*
X186581658Y-149055000D01*
X186369143Y-149012728D01*
X186168958Y-148929809D01*
X185988787Y-148809422D01*
X185835578Y-148656213D01*
X185715191Y-148476042D01*
X185632272Y-148275857D01*
X185590000Y-148063342D01*
X185590000Y-147846658D01*
X185632272Y-147634143D01*
X185715191Y-147433958D01*
X185835578Y-147253787D01*
X185988787Y-147100578D01*
X186168958Y-146980191D01*
X186369143Y-146897272D01*
X186581658Y-146855000D01*
X186798342Y-146855000D01*
X187010857Y-146897272D01*
X187010857Y-146897272D01*
G37*
G36*
X189550857Y-146897272D02*
X189751042Y-146980191D01*
X189931213Y-147100578D01*
X190084422Y-147253787D01*
X190204809Y-147433958D01*
X190287728Y-147634143D01*
X190330000Y-147846658D01*
X190330000Y-148063342D01*
X190287728Y-148275857D01*
X190204809Y-148476042D01*
X190084422Y-148656213D01*
X189931213Y-148809422D01*
X189751042Y-148929809D01*
X189550857Y-149012728D01*
X189338342Y-149055000D01*
X189121658Y-149055000D01*
X188909143Y-149012728D01*
X188708958Y-148929809D01*
X188528787Y-148809422D01*
X188375578Y-148656213D01*
X188255191Y-148476042D01*
X188172272Y-148275857D01*
X188130000Y-148063342D01*
X188130000Y-147846658D01*
X188172272Y-147634143D01*
X188255191Y-147433958D01*
X188375578Y-147253787D01*
X188528787Y-147100578D01*
X188708958Y-146980191D01*
X188909143Y-146897272D01*
X189121658Y-146855000D01*
X189338342Y-146855000D01*
X189550857Y-146897272D01*
X189550857Y-146897272D01*
G37*
G36*
X204790857Y-146897272D02*
X204991042Y-146980191D01*
X205171213Y-147100578D01*
X205324422Y-147253787D01*
X205444809Y-147433958D01*
X205527728Y-147634143D01*
X205570000Y-147846658D01*
X205570000Y-148063342D01*
X205527728Y-148275857D01*
X205444809Y-148476042D01*
X205324422Y-148656213D01*
X205171213Y-148809422D01*
X204991042Y-148929809D01*
X204790857Y-149012728D01*
X204578342Y-149055000D01*
X204361658Y-149055000D01*
X204149143Y-149012728D01*
X203948958Y-148929809D01*
X203768787Y-148809422D01*
X203615578Y-148656213D01*
X203495191Y-148476042D01*
X203412272Y-148275857D01*
X203370000Y-148063342D01*
X203370000Y-147846658D01*
X203412272Y-147634143D01*
X203495191Y-147433958D01*
X203615578Y-147253787D01*
X203768787Y-147100578D01*
X203948958Y-146980191D01*
X204149143Y-146897272D01*
X204361658Y-146855000D01*
X204578342Y-146855000D01*
X204790857Y-146897272D01*
X204790857Y-146897272D01*
G37*
G36*
X192090857Y-146897272D02*
X192291042Y-146980191D01*
X192471213Y-147100578D01*
X192624422Y-147253787D01*
X192744809Y-147433958D01*
X192827728Y-147634143D01*
X192870000Y-147846658D01*
X192870000Y-148063342D01*
X192827728Y-148275857D01*
X192744809Y-148476042D01*
X192624422Y-148656213D01*
X192471213Y-148809422D01*
X192291042Y-148929809D01*
X192090857Y-149012728D01*
X191878342Y-149055000D01*
X191661658Y-149055000D01*
X191449143Y-149012728D01*
X191248958Y-148929809D01*
X191068787Y-148809422D01*
X190915578Y-148656213D01*
X190795191Y-148476042D01*
X190712272Y-148275857D01*
X190670000Y-148063342D01*
X190670000Y-147846658D01*
X190712272Y-147634143D01*
X190795191Y-147433958D01*
X190915578Y-147253787D01*
X191068787Y-147100578D01*
X191248958Y-146980191D01*
X191449143Y-146897272D01*
X191661658Y-146855000D01*
X191878342Y-146855000D01*
X192090857Y-146897272D01*
X192090857Y-146897272D01*
G37*
G36*
X221006603Y-146140968D02*
X221006606Y-146140969D01*
X221006605Y-146140969D01*
X221181678Y-146213486D01*
X221181679Y-146213487D01*
X221339241Y-146318767D01*
X221473233Y-146452759D01*
X221473234Y-146452761D01*
X221578514Y-146610322D01*
X221634603Y-146745734D01*
X221651032Y-146785397D01*
X221688000Y-146971250D01*
X221688000Y-147160750D01*
X221651032Y-147346603D01*
X221651031Y-147346605D01*
X221578514Y-147521678D01*
X221578513Y-147521679D01*
X221473233Y-147679241D01*
X221339241Y-147813233D01*
X221259923Y-147866232D01*
X221181678Y-147918514D01*
X221046266Y-147974603D01*
X221006603Y-147991032D01*
X220820750Y-148028000D01*
X220631250Y-148028000D01*
X220445397Y-147991032D01*
X220405734Y-147974603D01*
X220270322Y-147918514D01*
X220192077Y-147866232D01*
X220112759Y-147813233D01*
X219978767Y-147679241D01*
X219873487Y-147521679D01*
X219873486Y-147521678D01*
X219800969Y-147346605D01*
X219800968Y-147346603D01*
X219764000Y-147160750D01*
X219764000Y-146971250D01*
X219800968Y-146785397D01*
X219817397Y-146745734D01*
X219873486Y-146610322D01*
X219978766Y-146452761D01*
X219978767Y-146452759D01*
X220112759Y-146318767D01*
X220270321Y-146213487D01*
X220270322Y-146213486D01*
X220445395Y-146140969D01*
X220445394Y-146140969D01*
X220445397Y-146140968D01*
X220631250Y-146104000D01*
X220820750Y-146104000D01*
X221006603Y-146140968D01*
X221006603Y-146140968D01*
G37*
G36*
X172746603Y-146140968D02*
X172746606Y-146140969D01*
X172746605Y-146140969D01*
X172921678Y-146213486D01*
X172921679Y-146213487D01*
X173079241Y-146318767D01*
X173213233Y-146452759D01*
X173213234Y-146452761D01*
X173318514Y-146610322D01*
X173374603Y-146745734D01*
X173391032Y-146785397D01*
X173428000Y-146971250D01*
X173428000Y-147160750D01*
X173391032Y-147346603D01*
X173391031Y-147346605D01*
X173318514Y-147521678D01*
X173318513Y-147521679D01*
X173213233Y-147679241D01*
X173079241Y-147813233D01*
X172999923Y-147866232D01*
X172921678Y-147918514D01*
X172786266Y-147974603D01*
X172746603Y-147991032D01*
X172560750Y-148028000D01*
X172371250Y-148028000D01*
X172185397Y-147991032D01*
X172145734Y-147974603D01*
X172010322Y-147918514D01*
X171932077Y-147866232D01*
X171852759Y-147813233D01*
X171718767Y-147679241D01*
X171613487Y-147521679D01*
X171613486Y-147521678D01*
X171540969Y-147346605D01*
X171540968Y-147346603D01*
X171504000Y-147160750D01*
X171504000Y-146971250D01*
X171540968Y-146785397D01*
X171557397Y-146745734D01*
X171613486Y-146610322D01*
X171718766Y-146452761D01*
X171718767Y-146452759D01*
X171852759Y-146318767D01*
X172010321Y-146213487D01*
X172010322Y-146213486D01*
X172185395Y-146140969D01*
X172185394Y-146140969D01*
X172185397Y-146140968D01*
X172371250Y-146104000D01*
X172560750Y-146104000D01*
X172746603Y-146140968D01*
X172746603Y-146140968D01*
G37*
G36*
X170206603Y-146140968D02*
X170206606Y-146140969D01*
X170206605Y-146140969D01*
X170381678Y-146213486D01*
X170381679Y-146213487D01*
X170539241Y-146318767D01*
X170673233Y-146452759D01*
X170673234Y-146452761D01*
X170778514Y-146610322D01*
X170834603Y-146745734D01*
X170851032Y-146785397D01*
X170888000Y-146971250D01*
X170888000Y-147160750D01*
X170851032Y-147346603D01*
X170851031Y-147346605D01*
X170778514Y-147521678D01*
X170778513Y-147521679D01*
X170673233Y-147679241D01*
X170539241Y-147813233D01*
X170459923Y-147866232D01*
X170381678Y-147918514D01*
X170246266Y-147974603D01*
X170206603Y-147991032D01*
X170020750Y-148028000D01*
X169831250Y-148028000D01*
X169645397Y-147991032D01*
X169605734Y-147974603D01*
X169470322Y-147918514D01*
X169392077Y-147866232D01*
X169312759Y-147813233D01*
X169178767Y-147679241D01*
X169073487Y-147521679D01*
X169073486Y-147521678D01*
X169000969Y-147346605D01*
X169000968Y-147346603D01*
X168964000Y-147160750D01*
X168964000Y-146971250D01*
X169000968Y-146785397D01*
X169017397Y-146745734D01*
X169073486Y-146610322D01*
X169178766Y-146452761D01*
X169178767Y-146452759D01*
X169312759Y-146318767D01*
X169470321Y-146213487D01*
X169470322Y-146213486D01*
X169645395Y-146140969D01*
X169645394Y-146140969D01*
X169645397Y-146140968D01*
X169831250Y-146104000D01*
X170020750Y-146104000D01*
X170206603Y-146140968D01*
X170206603Y-146140968D01*
G37*
G36*
X218466603Y-146140968D02*
X218466606Y-146140969D01*
X218466605Y-146140969D01*
X218641678Y-146213486D01*
X218641679Y-146213487D01*
X218799241Y-146318767D01*
X218933233Y-146452759D01*
X218933234Y-146452761D01*
X219038514Y-146610322D01*
X219094603Y-146745734D01*
X219111032Y-146785397D01*
X219148000Y-146971250D01*
X219148000Y-147160750D01*
X219111032Y-147346603D01*
X219111031Y-147346605D01*
X219038514Y-147521678D01*
X219038513Y-147521679D01*
X218933233Y-147679241D01*
X218799241Y-147813233D01*
X218719923Y-147866232D01*
X218641678Y-147918514D01*
X218506266Y-147974603D01*
X218466603Y-147991032D01*
X218280750Y-148028000D01*
X218091250Y-148028000D01*
X217905397Y-147991032D01*
X217865734Y-147974603D01*
X217730322Y-147918514D01*
X217652077Y-147866232D01*
X217572759Y-147813233D01*
X217438767Y-147679241D01*
X217333487Y-147521679D01*
X217333486Y-147521678D01*
X217260969Y-147346605D01*
X217260968Y-147346603D01*
X217224000Y-147160750D01*
X217224000Y-146971250D01*
X217260968Y-146785397D01*
X217277397Y-146745734D01*
X217333486Y-146610322D01*
X217438766Y-146452761D01*
X217438767Y-146452759D01*
X217572759Y-146318767D01*
X217730321Y-146213487D01*
X217730322Y-146213486D01*
X217905395Y-146140969D01*
X217905394Y-146140969D01*
X217905397Y-146140968D01*
X218091250Y-146104000D01*
X218280750Y-146104000D01*
X218466603Y-146140968D01*
X218466603Y-146140968D01*
G37*
G36*
X223546603Y-146140968D02*
X223546606Y-146140969D01*
X223546605Y-146140969D01*
X223721678Y-146213486D01*
X223721679Y-146213487D01*
X223879241Y-146318767D01*
X224013233Y-146452759D01*
X224013234Y-146452761D01*
X224118514Y-146610322D01*
X224174603Y-146745734D01*
X224191032Y-146785397D01*
X224228000Y-146971250D01*
X224228000Y-147160750D01*
X224191032Y-147346603D01*
X224191031Y-147346605D01*
X224118514Y-147521678D01*
X224118513Y-147521679D01*
X224013233Y-147679241D01*
X223879241Y-147813233D01*
X223799923Y-147866232D01*
X223721678Y-147918514D01*
X223586266Y-147974603D01*
X223546603Y-147991032D01*
X223360750Y-148028000D01*
X223171250Y-148028000D01*
X222985397Y-147991032D01*
X222945734Y-147974603D01*
X222810322Y-147918514D01*
X222732077Y-147866232D01*
X222652759Y-147813233D01*
X222518767Y-147679241D01*
X222413487Y-147521679D01*
X222413486Y-147521678D01*
X222340969Y-147346605D01*
X222340968Y-147346603D01*
X222304000Y-147160750D01*
X222304000Y-146971250D01*
X222340968Y-146785397D01*
X222357397Y-146745734D01*
X222413486Y-146610322D01*
X222518766Y-146452761D01*
X222518767Y-146452759D01*
X222652759Y-146318767D01*
X222810321Y-146213487D01*
X222810322Y-146213486D01*
X222985395Y-146140969D01*
X222985394Y-146140969D01*
X222985397Y-146140968D01*
X223171250Y-146104000D01*
X223360750Y-146104000D01*
X223546603Y-146140968D01*
X223546603Y-146140968D01*
G37*
G36*
X167666603Y-146140968D02*
X167666606Y-146140969D01*
X167666605Y-146140969D01*
X167841678Y-146213486D01*
X167841679Y-146213487D01*
X167999241Y-146318767D01*
X168133233Y-146452759D01*
X168133234Y-146452761D01*
X168238514Y-146610322D01*
X168294603Y-146745734D01*
X168311032Y-146785397D01*
X168348000Y-146971250D01*
X168348000Y-147160750D01*
X168311032Y-147346603D01*
X168311031Y-147346605D01*
X168238514Y-147521678D01*
X168238513Y-147521679D01*
X168133233Y-147679241D01*
X167999241Y-147813233D01*
X167919923Y-147866232D01*
X167841678Y-147918514D01*
X167706266Y-147974603D01*
X167666603Y-147991032D01*
X167480750Y-148028000D01*
X167291250Y-148028000D01*
X167105397Y-147991032D01*
X167065734Y-147974603D01*
X166930322Y-147918514D01*
X166852077Y-147866232D01*
X166772759Y-147813233D01*
X166638767Y-147679241D01*
X166533487Y-147521679D01*
X166533486Y-147521678D01*
X166460969Y-147346605D01*
X166460968Y-147346603D01*
X166424000Y-147160750D01*
X166424000Y-146971250D01*
X166460968Y-146785397D01*
X166477397Y-146745734D01*
X166533486Y-146610322D01*
X166638766Y-146452761D01*
X166638767Y-146452759D01*
X166772759Y-146318767D01*
X166930321Y-146213487D01*
X166930322Y-146213486D01*
X167105395Y-146140969D01*
X167105394Y-146140969D01*
X167105397Y-146140968D01*
X167291250Y-146104000D01*
X167480750Y-146104000D01*
X167666603Y-146140968D01*
X167666603Y-146140968D01*
G37*
G36*
X154020026Y-134736115D02*
X154238412Y-134826573D01*
X154434958Y-134957901D01*
X154602099Y-135125042D01*
X154733427Y-135321588D01*
X154823885Y-135539974D01*
X154870000Y-135771809D01*
X154870000Y-136008191D01*
X154823885Y-136240026D01*
X154733427Y-136458412D01*
X154602099Y-136654958D01*
X154434958Y-136822099D01*
X154238412Y-136953427D01*
X154018505Y-137044515D01*
X153996894Y-137056066D01*
X153977952Y-137071611D01*
X153962406Y-137090554D01*
X153950855Y-137112164D01*
X153943742Y-137135613D01*
X153941340Y-137160000D01*
X153943742Y-137184386D01*
X153950855Y-137207835D01*
X153962406Y-137229446D01*
X153977951Y-137248388D01*
X153996894Y-137263934D01*
X154018505Y-137275485D01*
X154238412Y-137366573D01*
X154434958Y-137497901D01*
X154602099Y-137665042D01*
X154733427Y-137861588D01*
X154823885Y-138079974D01*
X154870000Y-138311809D01*
X154870000Y-138548191D01*
X154823885Y-138780026D01*
X154733427Y-138998412D01*
X154602099Y-139194958D01*
X154434958Y-139362099D01*
X154238412Y-139493427D01*
X154018505Y-139584515D01*
X153996894Y-139596066D01*
X153977952Y-139611611D01*
X153962406Y-139630554D01*
X153950855Y-139652164D01*
X153943742Y-139675613D01*
X153941340Y-139700000D01*
X153943742Y-139724386D01*
X153950855Y-139747835D01*
X153962406Y-139769446D01*
X153977951Y-139788388D01*
X153996894Y-139803934D01*
X154018505Y-139815485D01*
X154238412Y-139906573D01*
X154434958Y-140037901D01*
X154602099Y-140205042D01*
X154733427Y-140401588D01*
X154823885Y-140619974D01*
X154870000Y-140851809D01*
X154870000Y-141088191D01*
X154823885Y-141320026D01*
X154733427Y-141538412D01*
X154602099Y-141734958D01*
X154434958Y-141902099D01*
X154238412Y-142033427D01*
X154020026Y-142123885D01*
X153788191Y-142170000D01*
X153551809Y-142170000D01*
X153319974Y-142123885D01*
X153101588Y-142033427D01*
X152905042Y-141902099D01*
X152737901Y-141734958D01*
X152606573Y-141538412D01*
X152516115Y-141320026D01*
X152470000Y-141088191D01*
X152470000Y-140851809D01*
X152516115Y-140619974D01*
X152606573Y-140401588D01*
X152737901Y-140205042D01*
X152905042Y-140037901D01*
X153101588Y-139906573D01*
X153321495Y-139815485D01*
X153343106Y-139803934D01*
X153362048Y-139788389D01*
X153377594Y-139769446D01*
X153389145Y-139747836D01*
X153396258Y-139724387D01*
X153398660Y-139700000D01*
X153396258Y-139675614D01*
X153389145Y-139652165D01*
X153377594Y-139630554D01*
X153362049Y-139611612D01*
X153343106Y-139596066D01*
X153321495Y-139584515D01*
X153101588Y-139493427D01*
X152905042Y-139362099D01*
X152737901Y-139194958D01*
X152606573Y-138998412D01*
X152516115Y-138780026D01*
X152470000Y-138548191D01*
X152470000Y-138311809D01*
X152516115Y-138079974D01*
X152606573Y-137861588D01*
X152737901Y-137665042D01*
X152905042Y-137497901D01*
X153101588Y-137366573D01*
X153321495Y-137275485D01*
X153343106Y-137263934D01*
X153362048Y-137248389D01*
X153377594Y-137229446D01*
X153389145Y-137207836D01*
X153396258Y-137184387D01*
X153398660Y-137160000D01*
X153396258Y-137135614D01*
X153389145Y-137112165D01*
X153377594Y-137090554D01*
X153362049Y-137071612D01*
X153343106Y-137056066D01*
X153321495Y-137044515D01*
X153101588Y-136953427D01*
X152905042Y-136822099D01*
X152737901Y-136654958D01*
X152606573Y-136458412D01*
X152516115Y-136240026D01*
X152470000Y-136008191D01*
X152470000Y-135771809D01*
X152516115Y-135539974D01*
X152606573Y-135321588D01*
X152737901Y-135125042D01*
X152905042Y-134957901D01*
X153101588Y-134826573D01*
X153319974Y-134736115D01*
X153551809Y-134690000D01*
X153788191Y-134690000D01*
X154020026Y-134736115D01*
X154020026Y-134736115D01*
G37*
G36*
X204820026Y-134736115D02*
X205038412Y-134826573D01*
X205234958Y-134957901D01*
X205402099Y-135125042D01*
X205533427Y-135321588D01*
X205623885Y-135539974D01*
X205670000Y-135771809D01*
X205670000Y-136008191D01*
X205623885Y-136240026D01*
X205533427Y-136458412D01*
X205402099Y-136654958D01*
X205234958Y-136822099D01*
X205038412Y-136953427D01*
X204818505Y-137044515D01*
X204796894Y-137056066D01*
X204777952Y-137071611D01*
X204762406Y-137090554D01*
X204750855Y-137112164D01*
X204743742Y-137135613D01*
X204741340Y-137160000D01*
X204743742Y-137184386D01*
X204750855Y-137207835D01*
X204762406Y-137229446D01*
X204777951Y-137248388D01*
X204796894Y-137263934D01*
X204818505Y-137275485D01*
X205038412Y-137366573D01*
X205234958Y-137497901D01*
X205402099Y-137665042D01*
X205533427Y-137861588D01*
X205623885Y-138079974D01*
X205670000Y-138311809D01*
X205670000Y-138548191D01*
X205623885Y-138780026D01*
X205533427Y-138998412D01*
X205402099Y-139194958D01*
X205234958Y-139362099D01*
X205038412Y-139493427D01*
X204818505Y-139584515D01*
X204796894Y-139596066D01*
X204777952Y-139611611D01*
X204762406Y-139630554D01*
X204750855Y-139652164D01*
X204743742Y-139675613D01*
X204741340Y-139700000D01*
X204743742Y-139724386D01*
X204750855Y-139747835D01*
X204762406Y-139769446D01*
X204777951Y-139788388D01*
X204796894Y-139803934D01*
X204818505Y-139815485D01*
X205038412Y-139906573D01*
X205234958Y-140037901D01*
X205402099Y-140205042D01*
X205533427Y-140401588D01*
X205623885Y-140619974D01*
X205670000Y-140851809D01*
X205670000Y-141088191D01*
X205623885Y-141320026D01*
X205533427Y-141538412D01*
X205402099Y-141734958D01*
X205234958Y-141902099D01*
X205038412Y-142033427D01*
X204820026Y-142123885D01*
X204588191Y-142170000D01*
X204351809Y-142170000D01*
X204119974Y-142123885D01*
X203901588Y-142033427D01*
X203705042Y-141902099D01*
X203537901Y-141734958D01*
X203406573Y-141538412D01*
X203316115Y-141320026D01*
X203270000Y-141088191D01*
X203270000Y-140851809D01*
X203316115Y-140619974D01*
X203406573Y-140401588D01*
X203537901Y-140205042D01*
X203705042Y-140037901D01*
X203901588Y-139906573D01*
X204121495Y-139815485D01*
X204143106Y-139803934D01*
X204162048Y-139788389D01*
X204177594Y-139769446D01*
X204189145Y-139747836D01*
X204196258Y-139724387D01*
X204198660Y-139700000D01*
X204196258Y-139675614D01*
X204189145Y-139652165D01*
X204177594Y-139630554D01*
X204162049Y-139611612D01*
X204143106Y-139596066D01*
X204121495Y-139584515D01*
X203901588Y-139493427D01*
X203705042Y-139362099D01*
X203537901Y-139194958D01*
X203406573Y-138998412D01*
X203316115Y-138780026D01*
X203270000Y-138548191D01*
X203270000Y-138311809D01*
X203316115Y-138079974D01*
X203406573Y-137861588D01*
X203537901Y-137665042D01*
X203705042Y-137497901D01*
X203901588Y-137366573D01*
X204121495Y-137275485D01*
X204143106Y-137263934D01*
X204162048Y-137248389D01*
X204177594Y-137229446D01*
X204189145Y-137207836D01*
X204196258Y-137184387D01*
X204198660Y-137160000D01*
X204196258Y-137135614D01*
X204189145Y-137112165D01*
X204177594Y-137090554D01*
X204162049Y-137071612D01*
X204143106Y-137056066D01*
X204121495Y-137044515D01*
X203901588Y-136953427D01*
X203705042Y-136822099D01*
X203537901Y-136654958D01*
X203406573Y-136458412D01*
X203316115Y-136240026D01*
X203270000Y-136008191D01*
X203270000Y-135771809D01*
X203316115Y-135539974D01*
X203406573Y-135321588D01*
X203537901Y-135125042D01*
X203705042Y-134957901D01*
X203901588Y-134826573D01*
X204119974Y-134736115D01*
X204351809Y-134690000D01*
X204588191Y-134690000D01*
X204820026Y-134736115D01*
X204820026Y-134736115D01*
G37*
G36*
X171090000Y-140890000D02*
X166730000Y-140890000D01*
X166730000Y-138510000D01*
X171090000Y-138510000D01*
X171090000Y-140890000D01*
X171090000Y-140890000D01*
G37*
G36*
X221890000Y-140890000D02*
X217530000Y-140890000D01*
X217530000Y-138510000D01*
X221890000Y-138510000D01*
X221890000Y-140890000D01*
X221890000Y-140890000D01*
G37*
G36*
X220793418Y-133513444D02*
X220933281Y-133527219D01*
X221157596Y-133595265D01*
X221364327Y-133705764D01*
X221545528Y-133854472D01*
X221694236Y-134035673D01*
X221804735Y-134242404D01*
X221872781Y-134466719D01*
X221895757Y-134700000D01*
X221872781Y-134933281D01*
X221804735Y-135157596D01*
X221694236Y-135364327D01*
X221545528Y-135545528D01*
X221364327Y-135694236D01*
X221157596Y-135804735D01*
X220933281Y-135872781D01*
X220793418Y-135886556D01*
X220758453Y-135890000D01*
X218661547Y-135890000D01*
X218626582Y-135886556D01*
X218486719Y-135872781D01*
X218262404Y-135804735D01*
X218055673Y-135694236D01*
X217874472Y-135545528D01*
X217725764Y-135364327D01*
X217615265Y-135157596D01*
X217547219Y-134933281D01*
X217524243Y-134700000D01*
X217547219Y-134466719D01*
X217615265Y-134242404D01*
X217725764Y-134035673D01*
X217874472Y-133854472D01*
X218055673Y-133705764D01*
X218262404Y-133595265D01*
X218486719Y-133527219D01*
X218626582Y-133513444D01*
X218661547Y-133510000D01*
X220758453Y-133510000D01*
X220793418Y-133513444D01*
X220793418Y-133513444D01*
G37*
G36*
X169993418Y-133513444D02*
X170133281Y-133527219D01*
X170357596Y-133595265D01*
X170564327Y-133705764D01*
X170745528Y-133854472D01*
X170894236Y-134035673D01*
X171004735Y-134242404D01*
X171072781Y-134466719D01*
X171095757Y-134700000D01*
X171072781Y-134933281D01*
X171004735Y-135157596D01*
X170894236Y-135364327D01*
X170745528Y-135545528D01*
X170564327Y-135694236D01*
X170357596Y-135804735D01*
X170133281Y-135872781D01*
X169993418Y-135886556D01*
X169958453Y-135890000D01*
X167861547Y-135890000D01*
X167826582Y-135886556D01*
X167686719Y-135872781D01*
X167462404Y-135804735D01*
X167255673Y-135694236D01*
X167074472Y-135545528D01*
X166925764Y-135364327D01*
X166815265Y-135157596D01*
X166747219Y-134933281D01*
X166724243Y-134700000D01*
X166747219Y-134466719D01*
X166815265Y-134242404D01*
X166925764Y-134035673D01*
X167074472Y-133854472D01*
X167255673Y-133705764D01*
X167462404Y-133595265D01*
X167686719Y-133527219D01*
X167826582Y-133513444D01*
X167861547Y-133510000D01*
X169958453Y-133510000D01*
X169993418Y-133513444D01*
X169993418Y-133513444D01*
G37*
G36*
X221890000Y-129460000D02*
X217530000Y-129460000D01*
X217530000Y-127080000D01*
X221890000Y-127080000D01*
X221890000Y-129460000D01*
X221890000Y-129460000D01*
G37*
G36*
X171090000Y-129460000D02*
X166730000Y-129460000D01*
X166730000Y-127080000D01*
X171090000Y-127080000D01*
X171090000Y-129460000D01*
X171090000Y-129460000D01*
G37*
G36*
X192090857Y-124037272D02*
X192291042Y-124120191D01*
X192471213Y-124240578D01*
X192624422Y-124393787D01*
X192624424Y-124393790D01*
X192624425Y-124393791D01*
X192744807Y-124573955D01*
X192744809Y-124573958D01*
X192827728Y-124774143D01*
X192870000Y-124986658D01*
X192870000Y-125203342D01*
X192827728Y-125415857D01*
X192744809Y-125616042D01*
X192624422Y-125796213D01*
X192471213Y-125949422D01*
X192291042Y-126069809D01*
X192090857Y-126152728D01*
X191878342Y-126195000D01*
X191661658Y-126195000D01*
X191449143Y-126152728D01*
X191248958Y-126069809D01*
X191068787Y-125949422D01*
X190915578Y-125796213D01*
X190795191Y-125616042D01*
X190712272Y-125415857D01*
X190670000Y-125203342D01*
X190670000Y-124986658D01*
X190712272Y-124774143D01*
X190795191Y-124573958D01*
X190795193Y-124573955D01*
X190915575Y-124393791D01*
X190915576Y-124393790D01*
X190915578Y-124393787D01*
X191068787Y-124240578D01*
X191248958Y-124120191D01*
X191449143Y-124037272D01*
X191661658Y-123995000D01*
X191878342Y-123995000D01*
X192090857Y-124037272D01*
X192090857Y-124037272D01*
G37*
G36*
X204790857Y-124037272D02*
X204991042Y-124120191D01*
X205171213Y-124240578D01*
X205324422Y-124393787D01*
X205324424Y-124393790D01*
X205324425Y-124393791D01*
X205444807Y-124573955D01*
X205444809Y-124573958D01*
X205527728Y-124774143D01*
X205570000Y-124986658D01*
X205570000Y-125203342D01*
X205527728Y-125415857D01*
X205444809Y-125616042D01*
X205324422Y-125796213D01*
X205171213Y-125949422D01*
X204991042Y-126069809D01*
X204790857Y-126152728D01*
X204578342Y-126195000D01*
X204361658Y-126195000D01*
X204149143Y-126152728D01*
X203948958Y-126069809D01*
X203768787Y-125949422D01*
X203615578Y-125796213D01*
X203495191Y-125616042D01*
X203412272Y-125415857D01*
X203370000Y-125203342D01*
X203370000Y-124986658D01*
X203412272Y-124774143D01*
X203495191Y-124573958D01*
X203495193Y-124573955D01*
X203615575Y-124393791D01*
X203615576Y-124393790D01*
X203615578Y-124393787D01*
X203768787Y-124240578D01*
X203948958Y-124120191D01*
X204149143Y-124037272D01*
X204361658Y-123995000D01*
X204578342Y-123995000D01*
X204790857Y-124037272D01*
X204790857Y-124037272D01*
G37*
G36*
X138750857Y-124037272D02*
X138951042Y-124120191D01*
X139131213Y-124240578D01*
X139284422Y-124393787D01*
X139284424Y-124393790D01*
X139284425Y-124393791D01*
X139404807Y-124573955D01*
X139404809Y-124573958D01*
X139487728Y-124774143D01*
X139530000Y-124986658D01*
X139530000Y-125203342D01*
X139487728Y-125415857D01*
X139404809Y-125616042D01*
X139284422Y-125796213D01*
X139131213Y-125949422D01*
X138951042Y-126069809D01*
X138750857Y-126152728D01*
X138538342Y-126195000D01*
X138321658Y-126195000D01*
X138109143Y-126152728D01*
X137908958Y-126069809D01*
X137728787Y-125949422D01*
X137575578Y-125796213D01*
X137455191Y-125616042D01*
X137372272Y-125415857D01*
X137330000Y-125203342D01*
X137330000Y-124986658D01*
X137372272Y-124774143D01*
X137455191Y-124573958D01*
X137455193Y-124573955D01*
X137575575Y-124393791D01*
X137575576Y-124393790D01*
X137575578Y-124393787D01*
X137728787Y-124240578D01*
X137908958Y-124120191D01*
X138109143Y-124037272D01*
X138321658Y-123995000D01*
X138538342Y-123995000D01*
X138750857Y-124037272D01*
X138750857Y-124037272D01*
G37*
G36*
X202250857Y-124037272D02*
X202451042Y-124120191D01*
X202631213Y-124240578D01*
X202784422Y-124393787D01*
X202784424Y-124393790D01*
X202784425Y-124393791D01*
X202904807Y-124573955D01*
X202904809Y-124573958D01*
X202987728Y-124774143D01*
X203030000Y-124986658D01*
X203030000Y-125203342D01*
X202987728Y-125415857D01*
X202904809Y-125616042D01*
X202784422Y-125796213D01*
X202631213Y-125949422D01*
X202451042Y-126069809D01*
X202250857Y-126152728D01*
X202038342Y-126195000D01*
X201821658Y-126195000D01*
X201609143Y-126152728D01*
X201408958Y-126069809D01*
X201228787Y-125949422D01*
X201075578Y-125796213D01*
X200955191Y-125616042D01*
X200872272Y-125415857D01*
X200830000Y-125203342D01*
X200830000Y-124986658D01*
X200872272Y-124774143D01*
X200955191Y-124573958D01*
X200955193Y-124573955D01*
X201075575Y-124393791D01*
X201075576Y-124393790D01*
X201075578Y-124393787D01*
X201228787Y-124240578D01*
X201408958Y-124120191D01*
X201609143Y-124037272D01*
X201821658Y-123995000D01*
X202038342Y-123995000D01*
X202250857Y-124037272D01*
X202250857Y-124037272D01*
G37*
G36*
X141290857Y-124037272D02*
X141491042Y-124120191D01*
X141671213Y-124240578D01*
X141824422Y-124393787D01*
X141824424Y-124393790D01*
X141824425Y-124393791D01*
X141944807Y-124573955D01*
X141944809Y-124573958D01*
X142027728Y-124774143D01*
X142070000Y-124986658D01*
X142070000Y-125203342D01*
X142027728Y-125415857D01*
X141944809Y-125616042D01*
X141824422Y-125796213D01*
X141671213Y-125949422D01*
X141491042Y-126069809D01*
X141290857Y-126152728D01*
X141078342Y-126195000D01*
X140861658Y-126195000D01*
X140649143Y-126152728D01*
X140448958Y-126069809D01*
X140268787Y-125949422D01*
X140115578Y-125796213D01*
X139995191Y-125616042D01*
X139912272Y-125415857D01*
X139870000Y-125203342D01*
X139870000Y-124986658D01*
X139912272Y-124774143D01*
X139995191Y-124573958D01*
X139995193Y-124573955D01*
X140115575Y-124393791D01*
X140115576Y-124393790D01*
X140115578Y-124393787D01*
X140268787Y-124240578D01*
X140448958Y-124120191D01*
X140649143Y-124037272D01*
X140861658Y-123995000D01*
X141078342Y-123995000D01*
X141290857Y-124037272D01*
X141290857Y-124037272D01*
G37*
G36*
X199710857Y-124037272D02*
X199911042Y-124120191D01*
X200091213Y-124240578D01*
X200244422Y-124393787D01*
X200244424Y-124393790D01*
X200244425Y-124393791D01*
X200364807Y-124573955D01*
X200364809Y-124573958D01*
X200447728Y-124774143D01*
X200490000Y-124986658D01*
X200490000Y-125203342D01*
X200447728Y-125415857D01*
X200364809Y-125616042D01*
X200244422Y-125796213D01*
X200091213Y-125949422D01*
X199911042Y-126069809D01*
X199710857Y-126152728D01*
X199498342Y-126195000D01*
X199281658Y-126195000D01*
X199069143Y-126152728D01*
X198868958Y-126069809D01*
X198688787Y-125949422D01*
X198535578Y-125796213D01*
X198415191Y-125616042D01*
X198332272Y-125415857D01*
X198290000Y-125203342D01*
X198290000Y-124986658D01*
X198332272Y-124774143D01*
X198415191Y-124573958D01*
X198415193Y-124573955D01*
X198535575Y-124393791D01*
X198535576Y-124393790D01*
X198535578Y-124393787D01*
X198688787Y-124240578D01*
X198868958Y-124120191D01*
X199069143Y-124037272D01*
X199281658Y-123995000D01*
X199498342Y-123995000D01*
X199710857Y-124037272D01*
X199710857Y-124037272D01*
G37*
G36*
X143830857Y-124037272D02*
X144031042Y-124120191D01*
X144211213Y-124240578D01*
X144364422Y-124393787D01*
X144364424Y-124393790D01*
X144364425Y-124393791D01*
X144484807Y-124573955D01*
X144484809Y-124573958D01*
X144567728Y-124774143D01*
X144610000Y-124986658D01*
X144610000Y-125203342D01*
X144567728Y-125415857D01*
X144484809Y-125616042D01*
X144364422Y-125796213D01*
X144211213Y-125949422D01*
X144031042Y-126069809D01*
X143830857Y-126152728D01*
X143618342Y-126195000D01*
X143401658Y-126195000D01*
X143189143Y-126152728D01*
X142988958Y-126069809D01*
X142808787Y-125949422D01*
X142655578Y-125796213D01*
X142535191Y-125616042D01*
X142452272Y-125415857D01*
X142410000Y-125203342D01*
X142410000Y-124986658D01*
X142452272Y-124774143D01*
X142535191Y-124573958D01*
X142535193Y-124573955D01*
X142655575Y-124393791D01*
X142655576Y-124393790D01*
X142655578Y-124393787D01*
X142808787Y-124240578D01*
X142988958Y-124120191D01*
X143189143Y-124037272D01*
X143401658Y-123995000D01*
X143618342Y-123995000D01*
X143830857Y-124037272D01*
X143830857Y-124037272D01*
G37*
G36*
X136210857Y-124037272D02*
X136411042Y-124120191D01*
X136591213Y-124240578D01*
X136744422Y-124393787D01*
X136744424Y-124393790D01*
X136744425Y-124393791D01*
X136864807Y-124573955D01*
X136864809Y-124573958D01*
X136947728Y-124774143D01*
X136990000Y-124986658D01*
X136990000Y-125203342D01*
X136947728Y-125415857D01*
X136864809Y-125616042D01*
X136744422Y-125796213D01*
X136591213Y-125949422D01*
X136411042Y-126069809D01*
X136210857Y-126152728D01*
X135998342Y-126195000D01*
X135781658Y-126195000D01*
X135569143Y-126152728D01*
X135368958Y-126069809D01*
X135188787Y-125949422D01*
X135035578Y-125796213D01*
X134915191Y-125616042D01*
X134832272Y-125415857D01*
X134790000Y-125203342D01*
X134790000Y-124986658D01*
X134832272Y-124774143D01*
X134915191Y-124573958D01*
X134915193Y-124573955D01*
X135035575Y-124393791D01*
X135035576Y-124393790D01*
X135035578Y-124393787D01*
X135188787Y-124240578D01*
X135368958Y-124120191D01*
X135569143Y-124037272D01*
X135781658Y-123995000D01*
X135998342Y-123995000D01*
X136210857Y-124037272D01*
X136210857Y-124037272D01*
G37*
G36*
X194630857Y-124037272D02*
X194831042Y-124120191D01*
X195011213Y-124240578D01*
X195164422Y-124393787D01*
X195164424Y-124393790D01*
X195164425Y-124393791D01*
X195284807Y-124573955D01*
X195284809Y-124573958D01*
X195367728Y-124774143D01*
X195410000Y-124986658D01*
X195410000Y-125203342D01*
X195367728Y-125415857D01*
X195284809Y-125616042D01*
X195164422Y-125796213D01*
X195011213Y-125949422D01*
X194831042Y-126069809D01*
X194630857Y-126152728D01*
X194418342Y-126195000D01*
X194201658Y-126195000D01*
X193989143Y-126152728D01*
X193788958Y-126069809D01*
X193608787Y-125949422D01*
X193455578Y-125796213D01*
X193335191Y-125616042D01*
X193252272Y-125415857D01*
X193210000Y-125203342D01*
X193210000Y-124986658D01*
X193252272Y-124774143D01*
X193335191Y-124573958D01*
X193335193Y-124573955D01*
X193455575Y-124393791D01*
X193455576Y-124393790D01*
X193455578Y-124393787D01*
X193608787Y-124240578D01*
X193788958Y-124120191D01*
X193989143Y-124037272D01*
X194201658Y-123995000D01*
X194418342Y-123995000D01*
X194630857Y-124037272D01*
X194630857Y-124037272D01*
G37*
G36*
X146370857Y-124037272D02*
X146571042Y-124120191D01*
X146751213Y-124240578D01*
X146904422Y-124393787D01*
X146904424Y-124393790D01*
X146904425Y-124393791D01*
X147024807Y-124573955D01*
X147024809Y-124573958D01*
X147107728Y-124774143D01*
X147150000Y-124986658D01*
X147150000Y-125203342D01*
X147107728Y-125415857D01*
X147024809Y-125616042D01*
X146904422Y-125796213D01*
X146751213Y-125949422D01*
X146571042Y-126069809D01*
X146370857Y-126152728D01*
X146158342Y-126195000D01*
X145941658Y-126195000D01*
X145729143Y-126152728D01*
X145528958Y-126069809D01*
X145348787Y-125949422D01*
X145195578Y-125796213D01*
X145075191Y-125616042D01*
X144992272Y-125415857D01*
X144950000Y-125203342D01*
X144950000Y-124986658D01*
X144992272Y-124774143D01*
X145075191Y-124573958D01*
X145075193Y-124573955D01*
X145195575Y-124393791D01*
X145195576Y-124393790D01*
X145195578Y-124393787D01*
X145348787Y-124240578D01*
X145528958Y-124120191D01*
X145729143Y-124037272D01*
X145941658Y-123995000D01*
X146158342Y-123995000D01*
X146370857Y-124037272D01*
X146370857Y-124037272D01*
G37*
G36*
X197170857Y-124037272D02*
X197371042Y-124120191D01*
X197551213Y-124240578D01*
X197704422Y-124393787D01*
X197704424Y-124393790D01*
X197704425Y-124393791D01*
X197824807Y-124573955D01*
X197824809Y-124573958D01*
X197907728Y-124774143D01*
X197950000Y-124986658D01*
X197950000Y-125203342D01*
X197907728Y-125415857D01*
X197824809Y-125616042D01*
X197704422Y-125796213D01*
X197551213Y-125949422D01*
X197371042Y-126069809D01*
X197170857Y-126152728D01*
X196958342Y-126195000D01*
X196741658Y-126195000D01*
X196529143Y-126152728D01*
X196328958Y-126069809D01*
X196148787Y-125949422D01*
X195995578Y-125796213D01*
X195875191Y-125616042D01*
X195792272Y-125415857D01*
X195750000Y-125203342D01*
X195750000Y-124986658D01*
X195792272Y-124774143D01*
X195875191Y-124573958D01*
X195875193Y-124573955D01*
X195995575Y-124393791D01*
X195995576Y-124393790D01*
X195995578Y-124393787D01*
X196148787Y-124240578D01*
X196328958Y-124120191D01*
X196529143Y-124037272D01*
X196741658Y-123995000D01*
X196958342Y-123995000D01*
X197170857Y-124037272D01*
X197170857Y-124037272D01*
G37*
G36*
X187010857Y-124037272D02*
X187211042Y-124120191D01*
X187391213Y-124240578D01*
X187544422Y-124393787D01*
X187544424Y-124393790D01*
X187544425Y-124393791D01*
X187664807Y-124573955D01*
X187664809Y-124573958D01*
X187747728Y-124774143D01*
X187790000Y-124986658D01*
X187790000Y-125203342D01*
X187747728Y-125415857D01*
X187664809Y-125616042D01*
X187544422Y-125796213D01*
X187391213Y-125949422D01*
X187211042Y-126069809D01*
X187010857Y-126152728D01*
X186798342Y-126195000D01*
X186581658Y-126195000D01*
X186369143Y-126152728D01*
X186168958Y-126069809D01*
X185988787Y-125949422D01*
X185835578Y-125796213D01*
X185715191Y-125616042D01*
X185632272Y-125415857D01*
X185590000Y-125203342D01*
X185590000Y-124986658D01*
X185632272Y-124774143D01*
X185715191Y-124573958D01*
X185715193Y-124573955D01*
X185835575Y-124393791D01*
X185835576Y-124393790D01*
X185835578Y-124393787D01*
X185988787Y-124240578D01*
X186168958Y-124120191D01*
X186369143Y-124037272D01*
X186581658Y-123995000D01*
X186798342Y-123995000D01*
X187010857Y-124037272D01*
X187010857Y-124037272D01*
G37*
G36*
X153990857Y-124037272D02*
X154191042Y-124120191D01*
X154371213Y-124240578D01*
X154524422Y-124393787D01*
X154524424Y-124393790D01*
X154524425Y-124393791D01*
X154644807Y-124573955D01*
X154644809Y-124573958D01*
X154727728Y-124774143D01*
X154770000Y-124986658D01*
X154770000Y-125203342D01*
X154727728Y-125415857D01*
X154644809Y-125616042D01*
X154524422Y-125796213D01*
X154371213Y-125949422D01*
X154191042Y-126069809D01*
X153990857Y-126152728D01*
X153778342Y-126195000D01*
X153561658Y-126195000D01*
X153349143Y-126152728D01*
X153148958Y-126069809D01*
X152968787Y-125949422D01*
X152815578Y-125796213D01*
X152695191Y-125616042D01*
X152612272Y-125415857D01*
X152570000Y-125203342D01*
X152570000Y-124986658D01*
X152612272Y-124774143D01*
X152695191Y-124573958D01*
X152695193Y-124573955D01*
X152815575Y-124393791D01*
X152815576Y-124393790D01*
X152815578Y-124393787D01*
X152968787Y-124240578D01*
X153148958Y-124120191D01*
X153349143Y-124037272D01*
X153561658Y-123995000D01*
X153778342Y-123995000D01*
X153990857Y-124037272D01*
X153990857Y-124037272D01*
G37*
G36*
X189550857Y-124037272D02*
X189751042Y-124120191D01*
X189931213Y-124240578D01*
X190084422Y-124393787D01*
X190084424Y-124393790D01*
X190084425Y-124393791D01*
X190204807Y-124573955D01*
X190204809Y-124573958D01*
X190287728Y-124774143D01*
X190330000Y-124986658D01*
X190330000Y-125203342D01*
X190287728Y-125415857D01*
X190204809Y-125616042D01*
X190084422Y-125796213D01*
X189931213Y-125949422D01*
X189751042Y-126069809D01*
X189550857Y-126152728D01*
X189338342Y-126195000D01*
X189121658Y-126195000D01*
X188909143Y-126152728D01*
X188708958Y-126069809D01*
X188528787Y-125949422D01*
X188375578Y-125796213D01*
X188255191Y-125616042D01*
X188172272Y-125415857D01*
X188130000Y-125203342D01*
X188130000Y-124986658D01*
X188172272Y-124774143D01*
X188255191Y-124573958D01*
X188255193Y-124573955D01*
X188375575Y-124393791D01*
X188375576Y-124393790D01*
X188375578Y-124393787D01*
X188528787Y-124240578D01*
X188708958Y-124120191D01*
X188909143Y-124037272D01*
X189121658Y-123995000D01*
X189338342Y-123995000D01*
X189550857Y-124037272D01*
X189550857Y-124037272D01*
G37*
G36*
X151450857Y-124037272D02*
X151651042Y-124120191D01*
X151831213Y-124240578D01*
X151984422Y-124393787D01*
X151984424Y-124393790D01*
X151984425Y-124393791D01*
X152104807Y-124573955D01*
X152104809Y-124573958D01*
X152187728Y-124774143D01*
X152230000Y-124986658D01*
X152230000Y-125203342D01*
X152187728Y-125415857D01*
X152104809Y-125616042D01*
X151984422Y-125796213D01*
X151831213Y-125949422D01*
X151651042Y-126069809D01*
X151450857Y-126152728D01*
X151238342Y-126195000D01*
X151021658Y-126195000D01*
X150809143Y-126152728D01*
X150608958Y-126069809D01*
X150428787Y-125949422D01*
X150275578Y-125796213D01*
X150155191Y-125616042D01*
X150072272Y-125415857D01*
X150030000Y-125203342D01*
X150030000Y-124986658D01*
X150072272Y-124774143D01*
X150155191Y-124573958D01*
X150155193Y-124573955D01*
X150275575Y-124393791D01*
X150275576Y-124393790D01*
X150275578Y-124393787D01*
X150428787Y-124240578D01*
X150608958Y-124120191D01*
X150809143Y-124037272D01*
X151021658Y-123995000D01*
X151238342Y-123995000D01*
X151450857Y-124037272D01*
X151450857Y-124037272D01*
G37*
G36*
X148910857Y-124037272D02*
X149111042Y-124120191D01*
X149291213Y-124240578D01*
X149444422Y-124393787D01*
X149444424Y-124393790D01*
X149444425Y-124393791D01*
X149564807Y-124573955D01*
X149564809Y-124573958D01*
X149647728Y-124774143D01*
X149690000Y-124986658D01*
X149690000Y-125203342D01*
X149647728Y-125415857D01*
X149564809Y-125616042D01*
X149444422Y-125796213D01*
X149291213Y-125949422D01*
X149111042Y-126069809D01*
X148910857Y-126152728D01*
X148698342Y-126195000D01*
X148481658Y-126195000D01*
X148269143Y-126152728D01*
X148068958Y-126069809D01*
X147888787Y-125949422D01*
X147735578Y-125796213D01*
X147615191Y-125616042D01*
X147532272Y-125415857D01*
X147490000Y-125203342D01*
X147490000Y-124986658D01*
X147532272Y-124774143D01*
X147615191Y-124573958D01*
X147615193Y-124573955D01*
X147735575Y-124393791D01*
X147735576Y-124393790D01*
X147735578Y-124393787D01*
X147888787Y-124240578D01*
X148068958Y-124120191D01*
X148269143Y-124037272D01*
X148481658Y-123995000D01*
X148698342Y-123995000D01*
X148910857Y-124037272D01*
X148910857Y-124037272D01*
G37*
G36*
X169993418Y-122083444D02*
X170133281Y-122097219D01*
X170357596Y-122165265D01*
X170564327Y-122275764D01*
X170745528Y-122424472D01*
X170894236Y-122605673D01*
X171004735Y-122812404D01*
X171072781Y-123036719D01*
X171095757Y-123270000D01*
X171072781Y-123503281D01*
X171004735Y-123727596D01*
X170894236Y-123934327D01*
X170745528Y-124115528D01*
X170564327Y-124264236D01*
X170357596Y-124374735D01*
X170133281Y-124442781D01*
X169993418Y-124456556D01*
X169958453Y-124460000D01*
X167861547Y-124460000D01*
X167826582Y-124456556D01*
X167686719Y-124442781D01*
X167462404Y-124374735D01*
X167255673Y-124264236D01*
X167074472Y-124115528D01*
X166925764Y-123934327D01*
X166815265Y-123727596D01*
X166747219Y-123503281D01*
X166724243Y-123270000D01*
X166747219Y-123036719D01*
X166815265Y-122812404D01*
X166925764Y-122605673D01*
X167074472Y-122424472D01*
X167255673Y-122275764D01*
X167462404Y-122165265D01*
X167686719Y-122097219D01*
X167826582Y-122083444D01*
X167861547Y-122080000D01*
X169958453Y-122080000D01*
X169993418Y-122083444D01*
X169993418Y-122083444D01*
G37*
G36*
X220793418Y-122083444D02*
X220933281Y-122097219D01*
X221157596Y-122165265D01*
X221364327Y-122275764D01*
X221545528Y-122424472D01*
X221694236Y-122605673D01*
X221804735Y-122812404D01*
X221872781Y-123036719D01*
X221895757Y-123270000D01*
X221872781Y-123503281D01*
X221804735Y-123727596D01*
X221694236Y-123934327D01*
X221545528Y-124115528D01*
X221364327Y-124264236D01*
X221157596Y-124374735D01*
X220933281Y-124442781D01*
X220793418Y-124456556D01*
X220758453Y-124460000D01*
X218661547Y-124460000D01*
X218626582Y-124456556D01*
X218486719Y-124442781D01*
X218262404Y-124374735D01*
X218055673Y-124264236D01*
X217874472Y-124115528D01*
X217725764Y-123934327D01*
X217615265Y-123727596D01*
X217547219Y-123503281D01*
X217524243Y-123270000D01*
X217547219Y-123036719D01*
X217615265Y-122812404D01*
X217725764Y-122605673D01*
X217874472Y-122424472D01*
X218055673Y-122275764D01*
X218262404Y-122165265D01*
X218486719Y-122097219D01*
X218626582Y-122083444D01*
X218661547Y-122080000D01*
X220758453Y-122080000D01*
X220793418Y-122083444D01*
X220793418Y-122083444D01*
G37*
G36*
X151060000Y-122485000D02*
X148660000Y-122485000D01*
X148660000Y-118085000D01*
X151060000Y-118085000D01*
X151060000Y-122485000D01*
X151060000Y-122485000D01*
G37*
G36*
X201860000Y-122485000D02*
X199460000Y-122485000D01*
X199460000Y-118085000D01*
X201860000Y-118085000D01*
X201860000Y-122485000D01*
X201860000Y-122485000D01*
G37*
G36*
X181540000Y-122358000D02*
X179140000Y-122358000D01*
X179140000Y-117958000D01*
X181540000Y-117958000D01*
X181540000Y-122358000D01*
X181540000Y-122358000D01*
G37*
G36*
X130740000Y-122358000D02*
X128340000Y-122358000D01*
X128340000Y-117958000D01*
X130740000Y-117958000D01*
X130740000Y-122358000D01*
X130740000Y-122358000D01*
G37*
G36*
X208495639Y-117025916D02*
X208702986Y-117088815D01*
X208702988Y-117088816D01*
X208894084Y-117190958D01*
X209061581Y-117328419D01*
X209199042Y-117495916D01*
X209301184Y-117687012D01*
X209364084Y-117894362D01*
X209385322Y-118110000D01*
X209364084Y-118325638D01*
X209301184Y-118532988D01*
X209199042Y-118724084D01*
X209061581Y-118891581D01*
X208894084Y-119029042D01*
X208702988Y-119131184D01*
X208702986Y-119131185D01*
X208495639Y-119194084D01*
X208334038Y-119210000D01*
X208225962Y-119210000D01*
X208064361Y-119194084D01*
X207857014Y-119131185D01*
X207857012Y-119131184D01*
X207665916Y-119029042D01*
X207498419Y-118891581D01*
X207360958Y-118724084D01*
X207258816Y-118532988D01*
X207195916Y-118325638D01*
X207174678Y-118110000D01*
X207195916Y-117894362D01*
X207258816Y-117687012D01*
X207360958Y-117495916D01*
X207498419Y-117328419D01*
X207665916Y-117190958D01*
X207857012Y-117088816D01*
X207857014Y-117088815D01*
X208064361Y-117025916D01*
X208225962Y-117010000D01*
X208334038Y-117010000D01*
X208495639Y-117025916D01*
X208495639Y-117025916D01*
G37*
G36*
X157695639Y-117025916D02*
X157902986Y-117088815D01*
X157902988Y-117088816D01*
X158094084Y-117190958D01*
X158261581Y-117328419D01*
X158399042Y-117495916D01*
X158501184Y-117687012D01*
X158564084Y-117894362D01*
X158585322Y-118110000D01*
X158564084Y-118325638D01*
X158501184Y-118532988D01*
X158399042Y-118724084D01*
X158261581Y-118891581D01*
X158094084Y-119029042D01*
X157902988Y-119131184D01*
X157902986Y-119131185D01*
X157695639Y-119194084D01*
X157534038Y-119210000D01*
X157425962Y-119210000D01*
X157264361Y-119194084D01*
X157057014Y-119131185D01*
X157057012Y-119131184D01*
X156865916Y-119029042D01*
X156698419Y-118891581D01*
X156560958Y-118724084D01*
X156458816Y-118532988D01*
X156395916Y-118325638D01*
X156374678Y-118110000D01*
X156395916Y-117894362D01*
X156458816Y-117687012D01*
X156560958Y-117495916D01*
X156698419Y-117328419D01*
X156865916Y-117190958D01*
X157057012Y-117088816D01*
X157057014Y-117088815D01*
X157264361Y-117025916D01*
X157425962Y-117010000D01*
X157534038Y-117010000D01*
X157695639Y-117025916D01*
X157695639Y-117025916D01*
G37*
G36*
X221890000Y-118030000D02*
X217530000Y-118030000D01*
X217530000Y-115650000D01*
X221890000Y-115650000D01*
X221890000Y-118030000D01*
X221890000Y-118030000D01*
G37*
G36*
X171090000Y-118030000D02*
X166730000Y-118030000D01*
X166730000Y-115650000D01*
X171090000Y-115650000D01*
X171090000Y-118030000D01*
X171090000Y-118030000D01*
G37*
G36*
X181540000Y-113055000D02*
X179140000Y-113055000D01*
X179140000Y-108655000D01*
X181540000Y-108655000D01*
X181540000Y-113055000D01*
X181540000Y-113055000D01*
G37*
G36*
X151060000Y-113055000D02*
X148660000Y-113055000D01*
X148660000Y-108655000D01*
X151060000Y-108655000D01*
X151060000Y-113055000D01*
X151060000Y-113055000D01*
G37*
G36*
X130740000Y-113055000D02*
X128340000Y-113055000D01*
X128340000Y-108655000D01*
X130740000Y-108655000D01*
X130740000Y-113055000D01*
X130740000Y-113055000D01*
G37*
G36*
X201860000Y-113055000D02*
X199460000Y-113055000D01*
X199460000Y-108655000D01*
X201860000Y-108655000D01*
X201860000Y-113055000D01*
X201860000Y-113055000D01*
G37*
G36*
X220793418Y-110653444D02*
X220933281Y-110667219D01*
X221157596Y-110735265D01*
X221364327Y-110845764D01*
X221545528Y-110994472D01*
X221694236Y-111175673D01*
X221804735Y-111382404D01*
X221872781Y-111606719D01*
X221895757Y-111840000D01*
X221872781Y-112073281D01*
X221804735Y-112297596D01*
X221694236Y-112504327D01*
X221545528Y-112685528D01*
X221364327Y-112834236D01*
X221157596Y-112944735D01*
X220933281Y-113012781D01*
X220793418Y-113026556D01*
X220758453Y-113030000D01*
X218661547Y-113030000D01*
X218626582Y-113026556D01*
X218486719Y-113012781D01*
X218262404Y-112944735D01*
X218055673Y-112834236D01*
X217874472Y-112685528D01*
X217725764Y-112504327D01*
X217615265Y-112297596D01*
X217547219Y-112073281D01*
X217524243Y-111840000D01*
X217547219Y-111606719D01*
X217615265Y-111382404D01*
X217725764Y-111175673D01*
X217874472Y-110994472D01*
X218055673Y-110845764D01*
X218262404Y-110735265D01*
X218486719Y-110667219D01*
X218626582Y-110653444D01*
X218661547Y-110650000D01*
X220758453Y-110650000D01*
X220793418Y-110653444D01*
X220793418Y-110653444D01*
G37*
G36*
X169993418Y-110653444D02*
X170133281Y-110667219D01*
X170357596Y-110735265D01*
X170564327Y-110845764D01*
X170745528Y-110994472D01*
X170894236Y-111175673D01*
X171004735Y-111382404D01*
X171072781Y-111606719D01*
X171095757Y-111840000D01*
X171072781Y-112073281D01*
X171004735Y-112297596D01*
X170894236Y-112504327D01*
X170745528Y-112685528D01*
X170564327Y-112834236D01*
X170357596Y-112944735D01*
X170133281Y-113012781D01*
X169993418Y-113026556D01*
X169958453Y-113030000D01*
X167861547Y-113030000D01*
X167826582Y-113026556D01*
X167686719Y-113012781D01*
X167462404Y-112944735D01*
X167255673Y-112834236D01*
X167074472Y-112685528D01*
X166925764Y-112504327D01*
X166815265Y-112297596D01*
X166747219Y-112073281D01*
X166724243Y-111840000D01*
X166747219Y-111606719D01*
X166815265Y-111382404D01*
X166925764Y-111175673D01*
X167074472Y-110994472D01*
X167255673Y-110845764D01*
X167462404Y-110735265D01*
X167686719Y-110667219D01*
X167826582Y-110653444D01*
X167861547Y-110650000D01*
X169958453Y-110650000D01*
X169993418Y-110653444D01*
X169993418Y-110653444D01*
G37*
G36*
X209380000Y-111590000D02*
X207180000Y-111590000D01*
X207180000Y-109390000D01*
X209380000Y-109390000D01*
X209380000Y-111590000D01*
X209380000Y-111590000D01*
G37*
G36*
X158580000Y-111590000D02*
X156380000Y-111590000D01*
X156380000Y-109390000D01*
X158580000Y-109390000D01*
X158580000Y-111590000D01*
X158580000Y-111590000D01*
G37*
G36*
X129228030Y-104424469D02*
X129228033Y-104424470D01*
X129228034Y-104424470D01*
X129416535Y-104481651D01*
X129416537Y-104481652D01*
X129590260Y-104574509D01*
X129742528Y-104699472D01*
X129867491Y-104851740D01*
X129867492Y-104851742D01*
X129960349Y-105025465D01*
X129987451Y-105114809D01*
X130017531Y-105213970D01*
X130036838Y-105410000D01*
X130017531Y-105606030D01*
X129960348Y-105794537D01*
X129867491Y-105968260D01*
X129742528Y-106120528D01*
X129590260Y-106245491D01*
X129590258Y-106245492D01*
X129416535Y-106338349D01*
X129228034Y-106395530D01*
X129228033Y-106395530D01*
X129228030Y-106395531D01*
X129081124Y-106410000D01*
X128982876Y-106410000D01*
X128835970Y-106395531D01*
X128835967Y-106395530D01*
X128835966Y-106395530D01*
X128647465Y-106338349D01*
X128473742Y-106245492D01*
X128473740Y-106245491D01*
X128321472Y-106120528D01*
X128196509Y-105968260D01*
X128103652Y-105794537D01*
X128046469Y-105606030D01*
X128027162Y-105410000D01*
X128046469Y-105213970D01*
X128076549Y-105114809D01*
X128103651Y-105025465D01*
X128196508Y-104851742D01*
X128196509Y-104851740D01*
X128321472Y-104699472D01*
X128473740Y-104574509D01*
X128647463Y-104481652D01*
X128647465Y-104481651D01*
X128835966Y-104424470D01*
X128835967Y-104424470D01*
X128835970Y-104424469D01*
X128982876Y-104410000D01*
X129081124Y-104410000D01*
X129228030Y-104424469D01*
X129228030Y-104424469D01*
G37*
G36*
X187627770Y-104425372D02*
X187743689Y-104448429D01*
X187925678Y-104523811D01*
X188089463Y-104633249D01*
X188228751Y-104772537D01*
X188338189Y-104936322D01*
X188413571Y-105118311D01*
X188452000Y-105311509D01*
X188452000Y-105508491D01*
X188413571Y-105701689D01*
X188338189Y-105883678D01*
X188228751Y-106047463D01*
X188089463Y-106186751D01*
X187925678Y-106296189D01*
X187743689Y-106371571D01*
X187627770Y-106394628D01*
X187550493Y-106410000D01*
X187353507Y-106410000D01*
X187276230Y-106394628D01*
X187160311Y-106371571D01*
X186978322Y-106296189D01*
X186814537Y-106186751D01*
X186675249Y-106047463D01*
X186565811Y-105883678D01*
X186490429Y-105701689D01*
X186452000Y-105508491D01*
X186452000Y-105311509D01*
X186490429Y-105118311D01*
X186565811Y-104936322D01*
X186675249Y-104772537D01*
X186814537Y-104633249D01*
X186978322Y-104523811D01*
X187160311Y-104448429D01*
X187276230Y-104425372D01*
X187353507Y-104410000D01*
X187550493Y-104410000D01*
X187627770Y-104425372D01*
X187627770Y-104425372D01*
G37*
G36*
X190950030Y-104424469D02*
X190950033Y-104424470D01*
X190950034Y-104424470D01*
X191138535Y-104481651D01*
X191138537Y-104481652D01*
X191312260Y-104574509D01*
X191464528Y-104699472D01*
X191589491Y-104851740D01*
X191589492Y-104851742D01*
X191682349Y-105025465D01*
X191709451Y-105114809D01*
X191739531Y-105213970D01*
X191758838Y-105410000D01*
X191739531Y-105606030D01*
X191682348Y-105794537D01*
X191589491Y-105968260D01*
X191464528Y-106120528D01*
X191312260Y-106245491D01*
X191312258Y-106245492D01*
X191138535Y-106338349D01*
X190950034Y-106395530D01*
X190950033Y-106395530D01*
X190950030Y-106395531D01*
X190803124Y-106410000D01*
X190704876Y-106410000D01*
X190557970Y-106395531D01*
X190557967Y-106395530D01*
X190557966Y-106395530D01*
X190369465Y-106338349D01*
X190195742Y-106245492D01*
X190195740Y-106245491D01*
X190043472Y-106120528D01*
X189918509Y-105968260D01*
X189825652Y-105794537D01*
X189768469Y-105606030D01*
X189749162Y-105410000D01*
X189768469Y-105213970D01*
X189798549Y-105114809D01*
X189825651Y-105025465D01*
X189918508Y-104851742D01*
X189918509Y-104851740D01*
X190043472Y-104699472D01*
X190195740Y-104574509D01*
X190369463Y-104481652D01*
X190369465Y-104481651D01*
X190557966Y-104424470D01*
X190557967Y-104424470D01*
X190557970Y-104424469D01*
X190704876Y-104410000D01*
X190803124Y-104410000D01*
X190950030Y-104424469D01*
X190950030Y-104424469D01*
G37*
G36*
X198549770Y-104425372D02*
X198665689Y-104448429D01*
X198847678Y-104523811D01*
X199011463Y-104633249D01*
X199150751Y-104772537D01*
X199260189Y-104936322D01*
X199335571Y-105118311D01*
X199374000Y-105311509D01*
X199374000Y-105508491D01*
X199335571Y-105701689D01*
X199260189Y-105883678D01*
X199150751Y-106047463D01*
X199011463Y-106186751D01*
X198847678Y-106296189D01*
X198665689Y-106371571D01*
X198549770Y-106394628D01*
X198472493Y-106410000D01*
X198275507Y-106410000D01*
X198198230Y-106394628D01*
X198082311Y-106371571D01*
X197900322Y-106296189D01*
X197736537Y-106186751D01*
X197597249Y-106047463D01*
X197487811Y-105883678D01*
X197412429Y-105701689D01*
X197374000Y-105508491D01*
X197374000Y-105311509D01*
X197412429Y-105118311D01*
X197487811Y-104936322D01*
X197597249Y-104772537D01*
X197736537Y-104633249D01*
X197900322Y-104523811D01*
X198082311Y-104448429D01*
X198198230Y-104425372D01*
X198275507Y-104410000D01*
X198472493Y-104410000D01*
X198549770Y-104425372D01*
X198549770Y-104425372D01*
G37*
G36*
X136827770Y-104425372D02*
X136943689Y-104448429D01*
X137125678Y-104523811D01*
X137289463Y-104633249D01*
X137428751Y-104772537D01*
X137538189Y-104936322D01*
X137613571Y-105118311D01*
X137652000Y-105311509D01*
X137652000Y-105508491D01*
X137613571Y-105701689D01*
X137538189Y-105883678D01*
X137428751Y-106047463D01*
X137289463Y-106186751D01*
X137125678Y-106296189D01*
X136943689Y-106371571D01*
X136827770Y-106394628D01*
X136750493Y-106410000D01*
X136553507Y-106410000D01*
X136476230Y-106394628D01*
X136360311Y-106371571D01*
X136178322Y-106296189D01*
X136014537Y-106186751D01*
X135875249Y-106047463D01*
X135765811Y-105883678D01*
X135690429Y-105701689D01*
X135652000Y-105508491D01*
X135652000Y-105311509D01*
X135690429Y-105118311D01*
X135765811Y-104936322D01*
X135875249Y-104772537D01*
X136014537Y-104633249D01*
X136178322Y-104523811D01*
X136360311Y-104448429D01*
X136476230Y-104425372D01*
X136553507Y-104410000D01*
X136750493Y-104410000D01*
X136827770Y-104425372D01*
X136827770Y-104425372D01*
G37*
G36*
X201851770Y-104425372D02*
X201967689Y-104448429D01*
X202149678Y-104523811D01*
X202313463Y-104633249D01*
X202452751Y-104772537D01*
X202562189Y-104936322D01*
X202637571Y-105118311D01*
X202676000Y-105311509D01*
X202676000Y-105508491D01*
X202637571Y-105701689D01*
X202562189Y-105883678D01*
X202452751Y-106047463D01*
X202313463Y-106186751D01*
X202149678Y-106296189D01*
X201967689Y-106371571D01*
X201851770Y-106394628D01*
X201774493Y-106410000D01*
X201577507Y-106410000D01*
X201500230Y-106394628D01*
X201384311Y-106371571D01*
X201202322Y-106296189D01*
X201038537Y-106186751D01*
X200899249Y-106047463D01*
X200789811Y-105883678D01*
X200714429Y-105701689D01*
X200676000Y-105508491D01*
X200676000Y-105311509D01*
X200714429Y-105118311D01*
X200789811Y-104936322D01*
X200899249Y-104772537D01*
X201038537Y-104633249D01*
X201202322Y-104523811D01*
X201384311Y-104448429D01*
X201500230Y-104425372D01*
X201577507Y-104410000D01*
X201774493Y-104410000D01*
X201851770Y-104425372D01*
X201851770Y-104425372D01*
G37*
G36*
X158692030Y-104424469D02*
X158692033Y-104424470D01*
X158692034Y-104424470D01*
X158880535Y-104481651D01*
X158880537Y-104481652D01*
X159054260Y-104574509D01*
X159206528Y-104699472D01*
X159331491Y-104851740D01*
X159331492Y-104851742D01*
X159424349Y-105025465D01*
X159451451Y-105114809D01*
X159481531Y-105213970D01*
X159500838Y-105410000D01*
X159481531Y-105606030D01*
X159424348Y-105794537D01*
X159331491Y-105968260D01*
X159206528Y-106120528D01*
X159054260Y-106245491D01*
X159054258Y-106245492D01*
X158880535Y-106338349D01*
X158692034Y-106395530D01*
X158692033Y-106395530D01*
X158692030Y-106395531D01*
X158545124Y-106410000D01*
X158446876Y-106410000D01*
X158299970Y-106395531D01*
X158299967Y-106395530D01*
X158299966Y-106395530D01*
X158111465Y-106338349D01*
X157937742Y-106245492D01*
X157937740Y-106245491D01*
X157785472Y-106120528D01*
X157660509Y-105968260D01*
X157567652Y-105794537D01*
X157510469Y-105606030D01*
X157491162Y-105410000D01*
X157510469Y-105213970D01*
X157540549Y-105114809D01*
X157567651Y-105025465D01*
X157660508Y-104851742D01*
X157660509Y-104851740D01*
X157785472Y-104699472D01*
X157937740Y-104574509D01*
X158111463Y-104481652D01*
X158111465Y-104481651D01*
X158299966Y-104424470D01*
X158299967Y-104424470D01*
X158299970Y-104424469D01*
X158446876Y-104410000D01*
X158545124Y-104410000D01*
X158692030Y-104424469D01*
X158692030Y-104424469D01*
G37*
G36*
X151051770Y-104425372D02*
X151167689Y-104448429D01*
X151349678Y-104523811D01*
X151513463Y-104633249D01*
X151652751Y-104772537D01*
X151762189Y-104936322D01*
X151837571Y-105118311D01*
X151876000Y-105311509D01*
X151876000Y-105508491D01*
X151837571Y-105701689D01*
X151762189Y-105883678D01*
X151652751Y-106047463D01*
X151513463Y-106186751D01*
X151349678Y-106296189D01*
X151167689Y-106371571D01*
X151051770Y-106394628D01*
X150974493Y-106410000D01*
X150777507Y-106410000D01*
X150700230Y-106394628D01*
X150584311Y-106371571D01*
X150402322Y-106296189D01*
X150238537Y-106186751D01*
X150099249Y-106047463D01*
X149989811Y-105883678D01*
X149914429Y-105701689D01*
X149876000Y-105508491D01*
X149876000Y-105311509D01*
X149914429Y-105118311D01*
X149989811Y-104936322D01*
X150099249Y-104772537D01*
X150238537Y-104633249D01*
X150402322Y-104523811D01*
X150584311Y-104448429D01*
X150700230Y-104425372D01*
X150777507Y-104410000D01*
X150974493Y-104410000D01*
X151051770Y-104425372D01*
X151051770Y-104425372D01*
G37*
G36*
X147749770Y-104425372D02*
X147865689Y-104448429D01*
X148047678Y-104523811D01*
X148211463Y-104633249D01*
X148350751Y-104772537D01*
X148460189Y-104936322D01*
X148535571Y-105118311D01*
X148574000Y-105311509D01*
X148574000Y-105508491D01*
X148535571Y-105701689D01*
X148460189Y-105883678D01*
X148350751Y-106047463D01*
X148211463Y-106186751D01*
X148047678Y-106296189D01*
X147865689Y-106371571D01*
X147749770Y-106394628D01*
X147672493Y-106410000D01*
X147475507Y-106410000D01*
X147398230Y-106394628D01*
X147282311Y-106371571D01*
X147100322Y-106296189D01*
X146936537Y-106186751D01*
X146797249Y-106047463D01*
X146687811Y-105883678D01*
X146612429Y-105701689D01*
X146574000Y-105508491D01*
X146574000Y-105311509D01*
X146612429Y-105118311D01*
X146687811Y-104936322D01*
X146797249Y-104772537D01*
X146936537Y-104633249D01*
X147100322Y-104523811D01*
X147282311Y-104448429D01*
X147398230Y-104425372D01*
X147475507Y-104410000D01*
X147672493Y-104410000D01*
X147749770Y-104425372D01*
X147749770Y-104425372D01*
G37*
G36*
X140150030Y-104424469D02*
X140150033Y-104424470D01*
X140150034Y-104424470D01*
X140338535Y-104481651D01*
X140338537Y-104481652D01*
X140512260Y-104574509D01*
X140664528Y-104699472D01*
X140789491Y-104851740D01*
X140789492Y-104851742D01*
X140882349Y-105025465D01*
X140909451Y-105114809D01*
X140939531Y-105213970D01*
X140958838Y-105410000D01*
X140939531Y-105606030D01*
X140882348Y-105794537D01*
X140789491Y-105968260D01*
X140664528Y-106120528D01*
X140512260Y-106245491D01*
X140512258Y-106245492D01*
X140338535Y-106338349D01*
X140150034Y-106395530D01*
X140150033Y-106395530D01*
X140150030Y-106395531D01*
X140003124Y-106410000D01*
X139904876Y-106410000D01*
X139757970Y-106395531D01*
X139757967Y-106395530D01*
X139757966Y-106395530D01*
X139569465Y-106338349D01*
X139395742Y-106245492D01*
X139395740Y-106245491D01*
X139243472Y-106120528D01*
X139118509Y-105968260D01*
X139025652Y-105794537D01*
X138968469Y-105606030D01*
X138949162Y-105410000D01*
X138968469Y-105213970D01*
X138998549Y-105114809D01*
X139025651Y-105025465D01*
X139118508Y-104851742D01*
X139118509Y-104851740D01*
X139243472Y-104699472D01*
X139395740Y-104574509D01*
X139569463Y-104481652D01*
X139569465Y-104481651D01*
X139757966Y-104424470D01*
X139757967Y-104424470D01*
X139757970Y-104424469D01*
X139904876Y-104410000D01*
X140003124Y-104410000D01*
X140150030Y-104424469D01*
X140150030Y-104424469D01*
G37*
G36*
X180028030Y-104424469D02*
X180028033Y-104424470D01*
X180028034Y-104424470D01*
X180216535Y-104481651D01*
X180216537Y-104481652D01*
X180390260Y-104574509D01*
X180542528Y-104699472D01*
X180667491Y-104851740D01*
X180667492Y-104851742D01*
X180760349Y-105025465D01*
X180787451Y-105114809D01*
X180817531Y-105213970D01*
X180836838Y-105410000D01*
X180817531Y-105606030D01*
X180760348Y-105794537D01*
X180667491Y-105968260D01*
X180542528Y-106120528D01*
X180390260Y-106245491D01*
X180390258Y-106245492D01*
X180216535Y-106338349D01*
X180028034Y-106395530D01*
X180028033Y-106395530D01*
X180028030Y-106395531D01*
X179881124Y-106410000D01*
X179782876Y-106410000D01*
X179635970Y-106395531D01*
X179635967Y-106395530D01*
X179635966Y-106395530D01*
X179447465Y-106338349D01*
X179273742Y-106245492D01*
X179273740Y-106245491D01*
X179121472Y-106120528D01*
X178996509Y-105968260D01*
X178903652Y-105794537D01*
X178846469Y-105606030D01*
X178827162Y-105410000D01*
X178846469Y-105213970D01*
X178876549Y-105114809D01*
X178903651Y-105025465D01*
X178996508Y-104851742D01*
X178996509Y-104851740D01*
X179121472Y-104699472D01*
X179273740Y-104574509D01*
X179447463Y-104481652D01*
X179447465Y-104481651D01*
X179635966Y-104424470D01*
X179635967Y-104424470D01*
X179635970Y-104424469D01*
X179782876Y-104410000D01*
X179881124Y-104410000D01*
X180028030Y-104424469D01*
X180028030Y-104424469D01*
G37*
G36*
X209492030Y-104424469D02*
X209492033Y-104424470D01*
X209492034Y-104424470D01*
X209680535Y-104481651D01*
X209680537Y-104481652D01*
X209854260Y-104574509D01*
X210006528Y-104699472D01*
X210131491Y-104851740D01*
X210131492Y-104851742D01*
X210224349Y-105025465D01*
X210251451Y-105114809D01*
X210281531Y-105213970D01*
X210300838Y-105410000D01*
X210281531Y-105606030D01*
X210224348Y-105794537D01*
X210131491Y-105968260D01*
X210006528Y-106120528D01*
X209854260Y-106245491D01*
X209854258Y-106245492D01*
X209680535Y-106338349D01*
X209492034Y-106395530D01*
X209492033Y-106395530D01*
X209492030Y-106395531D01*
X209345124Y-106410000D01*
X209246876Y-106410000D01*
X209099970Y-106395531D01*
X209099967Y-106395530D01*
X209099966Y-106395530D01*
X208911465Y-106338349D01*
X208737742Y-106245492D01*
X208737740Y-106245491D01*
X208585472Y-106120528D01*
X208460509Y-105968260D01*
X208367652Y-105794537D01*
X208310469Y-105606030D01*
X208291162Y-105410000D01*
X208310469Y-105213970D01*
X208340549Y-105114809D01*
X208367651Y-105025465D01*
X208460508Y-104851742D01*
X208460509Y-104851740D01*
X208585472Y-104699472D01*
X208737740Y-104574509D01*
X208911463Y-104481652D01*
X208911465Y-104481651D01*
X209099966Y-104424470D01*
X209099967Y-104424470D01*
X209099970Y-104424469D01*
X209246876Y-104410000D01*
X209345124Y-104410000D01*
X209492030Y-104424469D01*
X209492030Y-104424469D01*
G37*
G36*
X169865857Y-103082272D02*
X170066042Y-103165191D01*
X170246213Y-103285578D01*
X170399422Y-103438787D01*
X170519809Y-103618958D01*
X170602728Y-103819143D01*
X170645000Y-104031658D01*
X170645000Y-104248342D01*
X170602728Y-104460857D01*
X170519809Y-104661042D01*
X170399422Y-104841213D01*
X170246213Y-104994422D01*
X170066042Y-105114809D01*
X169865857Y-105197728D01*
X169653342Y-105240000D01*
X169436658Y-105240000D01*
X169224143Y-105197728D01*
X169023958Y-105114809D01*
X168843787Y-104994422D01*
X168690578Y-104841213D01*
X168570191Y-104661042D01*
X168487272Y-104460857D01*
X168445000Y-104248342D01*
X168445000Y-104031658D01*
X168487272Y-103819143D01*
X168570191Y-103618958D01*
X168690578Y-103438787D01*
X168843787Y-103285578D01*
X169023958Y-103165191D01*
X169224143Y-103082272D01*
X169436658Y-103040000D01*
X169653342Y-103040000D01*
X169865857Y-103082272D01*
X169865857Y-103082272D01*
G37*
G36*
X164785857Y-103082272D02*
X164986042Y-103165191D01*
X165166213Y-103285578D01*
X165319422Y-103438787D01*
X165439809Y-103618958D01*
X165522728Y-103819143D01*
X165565000Y-104031658D01*
X165565000Y-104248342D01*
X165522728Y-104460857D01*
X165439809Y-104661042D01*
X165319422Y-104841213D01*
X165166213Y-104994422D01*
X164986042Y-105114809D01*
X164785857Y-105197728D01*
X164573342Y-105240000D01*
X164356658Y-105240000D01*
X164144143Y-105197728D01*
X163943958Y-105114809D01*
X163763787Y-104994422D01*
X163610578Y-104841213D01*
X163490191Y-104661042D01*
X163407272Y-104460857D01*
X163365000Y-104248342D01*
X163365000Y-104031658D01*
X163407272Y-103819143D01*
X163490191Y-103618958D01*
X163610578Y-103438787D01*
X163763787Y-103285578D01*
X163943958Y-103165191D01*
X164144143Y-103082272D01*
X164356658Y-103040000D01*
X164573342Y-103040000D01*
X164785857Y-103082272D01*
X164785857Y-103082272D01*
G37*
G36*
X163025000Y-105240000D02*
X160825000Y-105240000D01*
X160825000Y-103040000D01*
X163025000Y-103040000D01*
X163025000Y-105240000D01*
X163025000Y-105240000D01*
G37*
G36*
X225745857Y-103082272D02*
X225946042Y-103165191D01*
X226126213Y-103285578D01*
X226279422Y-103438787D01*
X226399809Y-103618958D01*
X226482728Y-103819143D01*
X226525000Y-104031658D01*
X226525000Y-104248342D01*
X226482728Y-104460857D01*
X226399809Y-104661042D01*
X226279422Y-104841213D01*
X226126213Y-104994422D01*
X225946042Y-105114809D01*
X225745857Y-105197728D01*
X225533342Y-105240000D01*
X225316658Y-105240000D01*
X225104143Y-105197728D01*
X224903958Y-105114809D01*
X224723787Y-104994422D01*
X224570578Y-104841213D01*
X224450191Y-104661042D01*
X224367272Y-104460857D01*
X224325000Y-104248342D01*
X224325000Y-104031658D01*
X224367272Y-103819143D01*
X224450191Y-103618958D01*
X224570578Y-103438787D01*
X224723787Y-103285578D01*
X224903958Y-103165191D01*
X225104143Y-103082272D01*
X225316658Y-103040000D01*
X225533342Y-103040000D01*
X225745857Y-103082272D01*
X225745857Y-103082272D01*
G37*
G36*
X223985000Y-105240000D02*
X221785000Y-105240000D01*
X221785000Y-103040000D01*
X223985000Y-103040000D01*
X223985000Y-105240000D01*
X223985000Y-105240000D01*
G37*
G36*
X168105000Y-105240000D02*
X165905000Y-105240000D01*
X165905000Y-103040000D01*
X168105000Y-103040000D01*
X168105000Y-105240000D01*
X168105000Y-105240000D01*
G37*
G36*
X173185000Y-105240000D02*
X170985000Y-105240000D01*
X170985000Y-103040000D01*
X173185000Y-103040000D01*
X173185000Y-105240000D01*
X173185000Y-105240000D01*
G37*
G36*
X174945857Y-103082272D02*
X175146042Y-103165191D01*
X175326213Y-103285578D01*
X175479422Y-103438787D01*
X175599809Y-103618958D01*
X175682728Y-103819143D01*
X175725000Y-104031658D01*
X175725000Y-104248342D01*
X175682728Y-104460857D01*
X175599809Y-104661042D01*
X175479422Y-104841213D01*
X175326213Y-104994422D01*
X175146042Y-105114809D01*
X174945857Y-105197728D01*
X174733342Y-105240000D01*
X174516658Y-105240000D01*
X174304143Y-105197728D01*
X174103958Y-105114809D01*
X173923787Y-104994422D01*
X173770578Y-104841213D01*
X173650191Y-104661042D01*
X173567272Y-104460857D01*
X173525000Y-104248342D01*
X173525000Y-104031658D01*
X173567272Y-103819143D01*
X173650191Y-103618958D01*
X173770578Y-103438787D01*
X173923787Y-103285578D01*
X174103958Y-103165191D01*
X174304143Y-103082272D01*
X174516658Y-103040000D01*
X174733342Y-103040000D01*
X174945857Y-103082272D01*
X174945857Y-103082272D01*
G37*
G36*
X213825000Y-105240000D02*
X211625000Y-105240000D01*
X211625000Y-103040000D01*
X213825000Y-103040000D01*
X213825000Y-105240000D01*
X213825000Y-105240000D01*
G37*
G36*
X215585857Y-103082272D02*
X215786042Y-103165191D01*
X215966213Y-103285578D01*
X216119422Y-103438787D01*
X216239809Y-103618958D01*
X216322728Y-103819143D01*
X216365000Y-104031658D01*
X216365000Y-104248342D01*
X216322728Y-104460857D01*
X216239809Y-104661042D01*
X216119422Y-104841213D01*
X215966213Y-104994422D01*
X215786042Y-105114809D01*
X215585857Y-105197728D01*
X215373342Y-105240000D01*
X215156658Y-105240000D01*
X214944143Y-105197728D01*
X214743958Y-105114809D01*
X214563787Y-104994422D01*
X214410578Y-104841213D01*
X214290191Y-104661042D01*
X214207272Y-104460857D01*
X214165000Y-104248342D01*
X214165000Y-104031658D01*
X214207272Y-103819143D01*
X214290191Y-103618958D01*
X214410578Y-103438787D01*
X214563787Y-103285578D01*
X214743958Y-103165191D01*
X214944143Y-103082272D01*
X215156658Y-103040000D01*
X215373342Y-103040000D01*
X215585857Y-103082272D01*
X215585857Y-103082272D01*
G37*
G36*
X220665857Y-103082272D02*
X220866042Y-103165191D01*
X221046213Y-103285578D01*
X221199422Y-103438787D01*
X221319809Y-103618958D01*
X221402728Y-103819143D01*
X221445000Y-104031658D01*
X221445000Y-104248342D01*
X221402728Y-104460857D01*
X221319809Y-104661042D01*
X221199422Y-104841213D01*
X221046213Y-104994422D01*
X220866042Y-105114809D01*
X220665857Y-105197728D01*
X220453342Y-105240000D01*
X220236658Y-105240000D01*
X220024143Y-105197728D01*
X219823958Y-105114809D01*
X219643787Y-104994422D01*
X219490578Y-104841213D01*
X219370191Y-104661042D01*
X219287272Y-104460857D01*
X219245000Y-104248342D01*
X219245000Y-104031658D01*
X219287272Y-103819143D01*
X219370191Y-103618958D01*
X219490578Y-103438787D01*
X219643787Y-103285578D01*
X219823958Y-103165191D01*
X220024143Y-103082272D01*
X220236658Y-103040000D01*
X220453342Y-103040000D01*
X220665857Y-103082272D01*
X220665857Y-103082272D01*
G37*
G36*
X218905000Y-105240000D02*
X216705000Y-105240000D01*
X216705000Y-103040000D01*
X218905000Y-103040000D01*
X218905000Y-105240000D01*
X218905000Y-105240000D01*
G37*
G36*
X129228030Y-101122469D02*
X129228033Y-101122470D01*
X129228034Y-101122470D01*
X129416535Y-101179651D01*
X129416537Y-101179652D01*
X129590260Y-101272509D01*
X129742528Y-101397472D01*
X129867491Y-101549740D01*
X129960348Y-101723463D01*
X130017531Y-101911970D01*
X130036838Y-102108000D01*
X130017531Y-102304030D01*
X129960348Y-102492537D01*
X129867491Y-102666260D01*
X129742528Y-102818528D01*
X129590260Y-102943491D01*
X129590258Y-102943492D01*
X129416535Y-103036349D01*
X129228034Y-103093530D01*
X129228033Y-103093530D01*
X129228030Y-103093531D01*
X129081124Y-103108000D01*
X128982876Y-103108000D01*
X128835970Y-103093531D01*
X128835967Y-103093530D01*
X128835966Y-103093530D01*
X128647465Y-103036349D01*
X128473742Y-102943492D01*
X128473740Y-102943491D01*
X128321472Y-102818528D01*
X128196509Y-102666260D01*
X128103652Y-102492537D01*
X128046469Y-102304030D01*
X128027162Y-102108000D01*
X128046469Y-101911970D01*
X128103652Y-101723463D01*
X128196509Y-101549740D01*
X128321472Y-101397472D01*
X128473740Y-101272509D01*
X128647463Y-101179652D01*
X128647465Y-101179651D01*
X128835966Y-101122470D01*
X128835967Y-101122470D01*
X128835970Y-101122469D01*
X128982876Y-101108000D01*
X129081124Y-101108000D01*
X129228030Y-101122469D01*
X129228030Y-101122469D01*
G37*
G36*
X187627770Y-101123372D02*
X187743689Y-101146429D01*
X187925678Y-101221811D01*
X188089463Y-101331249D01*
X188228751Y-101470537D01*
X188338189Y-101634322D01*
X188413571Y-101816311D01*
X188452000Y-102009509D01*
X188452000Y-102206491D01*
X188413571Y-102399689D01*
X188338189Y-102581678D01*
X188228751Y-102745463D01*
X188089463Y-102884751D01*
X187925678Y-102994189D01*
X187743689Y-103069571D01*
X187627770Y-103092628D01*
X187550493Y-103108000D01*
X187353507Y-103108000D01*
X187276230Y-103092628D01*
X187160311Y-103069571D01*
X186978322Y-102994189D01*
X186814537Y-102884751D01*
X186675249Y-102745463D01*
X186565811Y-102581678D01*
X186490429Y-102399689D01*
X186452000Y-102206491D01*
X186452000Y-102009509D01*
X186490429Y-101816311D01*
X186565811Y-101634322D01*
X186675249Y-101470537D01*
X186814537Y-101331249D01*
X186978322Y-101221811D01*
X187160311Y-101146429D01*
X187276230Y-101123372D01*
X187353507Y-101108000D01*
X187550493Y-101108000D01*
X187627770Y-101123372D01*
X187627770Y-101123372D01*
G37*
G36*
X180028030Y-101122469D02*
X180028033Y-101122470D01*
X180028034Y-101122470D01*
X180216535Y-101179651D01*
X180216537Y-101179652D01*
X180390260Y-101272509D01*
X180542528Y-101397472D01*
X180667491Y-101549740D01*
X180760348Y-101723463D01*
X180817531Y-101911970D01*
X180836838Y-102108000D01*
X180817531Y-102304030D01*
X180760348Y-102492537D01*
X180667491Y-102666260D01*
X180542528Y-102818528D01*
X180390260Y-102943491D01*
X180390258Y-102943492D01*
X180216535Y-103036349D01*
X180028034Y-103093530D01*
X180028033Y-103093530D01*
X180028030Y-103093531D01*
X179881124Y-103108000D01*
X179782876Y-103108000D01*
X179635970Y-103093531D01*
X179635967Y-103093530D01*
X179635966Y-103093530D01*
X179447465Y-103036349D01*
X179273742Y-102943492D01*
X179273740Y-102943491D01*
X179121472Y-102818528D01*
X178996509Y-102666260D01*
X178903652Y-102492537D01*
X178846469Y-102304030D01*
X178827162Y-102108000D01*
X178846469Y-101911970D01*
X178903652Y-101723463D01*
X178996509Y-101549740D01*
X179121472Y-101397472D01*
X179273740Y-101272509D01*
X179447463Y-101179652D01*
X179447465Y-101179651D01*
X179635966Y-101122470D01*
X179635967Y-101122470D01*
X179635970Y-101122469D01*
X179782876Y-101108000D01*
X179881124Y-101108000D01*
X180028030Y-101122469D01*
X180028030Y-101122469D01*
G37*
G36*
X209492030Y-101122469D02*
X209492033Y-101122470D01*
X209492034Y-101122470D01*
X209680535Y-101179651D01*
X209680537Y-101179652D01*
X209854260Y-101272509D01*
X210006528Y-101397472D01*
X210131491Y-101549740D01*
X210224348Y-101723463D01*
X210281531Y-101911970D01*
X210300838Y-102108000D01*
X210281531Y-102304030D01*
X210224348Y-102492537D01*
X210131491Y-102666260D01*
X210006528Y-102818528D01*
X209854260Y-102943491D01*
X209854258Y-102943492D01*
X209680535Y-103036349D01*
X209492034Y-103093530D01*
X209492033Y-103093530D01*
X209492030Y-103093531D01*
X209345124Y-103108000D01*
X209246876Y-103108000D01*
X209099970Y-103093531D01*
X209099967Y-103093530D01*
X209099966Y-103093530D01*
X208911465Y-103036349D01*
X208737742Y-102943492D01*
X208737740Y-102943491D01*
X208585472Y-102818528D01*
X208460509Y-102666260D01*
X208367652Y-102492537D01*
X208310469Y-102304030D01*
X208291162Y-102108000D01*
X208310469Y-101911970D01*
X208367652Y-101723463D01*
X208460509Y-101549740D01*
X208585472Y-101397472D01*
X208737740Y-101272509D01*
X208911463Y-101179652D01*
X208911465Y-101179651D01*
X209099966Y-101122470D01*
X209099967Y-101122470D01*
X209099970Y-101122469D01*
X209246876Y-101108000D01*
X209345124Y-101108000D01*
X209492030Y-101122469D01*
X209492030Y-101122469D01*
G37*
G36*
X198570030Y-101122469D02*
X198570033Y-101122470D01*
X198570034Y-101122470D01*
X198758535Y-101179651D01*
X198758537Y-101179652D01*
X198932260Y-101272509D01*
X199084528Y-101397472D01*
X199209491Y-101549740D01*
X199302348Y-101723463D01*
X199359531Y-101911970D01*
X199378838Y-102108000D01*
X199359531Y-102304030D01*
X199302348Y-102492537D01*
X199209491Y-102666260D01*
X199084528Y-102818528D01*
X198932260Y-102943491D01*
X198932258Y-102943492D01*
X198758535Y-103036349D01*
X198570034Y-103093530D01*
X198570033Y-103093530D01*
X198570030Y-103093531D01*
X198423124Y-103108000D01*
X198324876Y-103108000D01*
X198177970Y-103093531D01*
X198177967Y-103093530D01*
X198177966Y-103093530D01*
X197989465Y-103036349D01*
X197815742Y-102943492D01*
X197815740Y-102943491D01*
X197663472Y-102818528D01*
X197538509Y-102666260D01*
X197445652Y-102492537D01*
X197388469Y-102304030D01*
X197369162Y-102108000D01*
X197388469Y-101911970D01*
X197445652Y-101723463D01*
X197538509Y-101549740D01*
X197663472Y-101397472D01*
X197815740Y-101272509D01*
X197989463Y-101179652D01*
X197989465Y-101179651D01*
X198177966Y-101122470D01*
X198177967Y-101122470D01*
X198177970Y-101122469D01*
X198324876Y-101108000D01*
X198423124Y-101108000D01*
X198570030Y-101122469D01*
X198570030Y-101122469D01*
G37*
G36*
X190929770Y-101123372D02*
X191045689Y-101146429D01*
X191227678Y-101221811D01*
X191391463Y-101331249D01*
X191530751Y-101470537D01*
X191640189Y-101634322D01*
X191715571Y-101816311D01*
X191754000Y-102009509D01*
X191754000Y-102206491D01*
X191715571Y-102399689D01*
X191640189Y-102581678D01*
X191530751Y-102745463D01*
X191391463Y-102884751D01*
X191227678Y-102994189D01*
X191045689Y-103069571D01*
X190929770Y-103092628D01*
X190852493Y-103108000D01*
X190655507Y-103108000D01*
X190578230Y-103092628D01*
X190462311Y-103069571D01*
X190280322Y-102994189D01*
X190116537Y-102884751D01*
X189977249Y-102745463D01*
X189867811Y-102581678D01*
X189792429Y-102399689D01*
X189754000Y-102206491D01*
X189754000Y-102009509D01*
X189792429Y-101816311D01*
X189867811Y-101634322D01*
X189977249Y-101470537D01*
X190116537Y-101331249D01*
X190280322Y-101221811D01*
X190462311Y-101146429D01*
X190578230Y-101123372D01*
X190655507Y-101108000D01*
X190852493Y-101108000D01*
X190929770Y-101123372D01*
X190929770Y-101123372D01*
G37*
G36*
X158692030Y-101122469D02*
X158692033Y-101122470D01*
X158692034Y-101122470D01*
X158880535Y-101179651D01*
X158880537Y-101179652D01*
X159054260Y-101272509D01*
X159206528Y-101397472D01*
X159331491Y-101549740D01*
X159424348Y-101723463D01*
X159481531Y-101911970D01*
X159500838Y-102108000D01*
X159481531Y-102304030D01*
X159424348Y-102492537D01*
X159331491Y-102666260D01*
X159206528Y-102818528D01*
X159054260Y-102943491D01*
X159054258Y-102943492D01*
X158880535Y-103036349D01*
X158692034Y-103093530D01*
X158692033Y-103093530D01*
X158692030Y-103093531D01*
X158545124Y-103108000D01*
X158446876Y-103108000D01*
X158299970Y-103093531D01*
X158299967Y-103093530D01*
X158299966Y-103093530D01*
X158111465Y-103036349D01*
X157937742Y-102943492D01*
X157937740Y-102943491D01*
X157785472Y-102818528D01*
X157660509Y-102666260D01*
X157567652Y-102492537D01*
X157510469Y-102304030D01*
X157491162Y-102108000D01*
X157510469Y-101911970D01*
X157567652Y-101723463D01*
X157660509Y-101549740D01*
X157785472Y-101397472D01*
X157937740Y-101272509D01*
X158111463Y-101179652D01*
X158111465Y-101179651D01*
X158299966Y-101122470D01*
X158299967Y-101122470D01*
X158299970Y-101122469D01*
X158446876Y-101108000D01*
X158545124Y-101108000D01*
X158692030Y-101122469D01*
X158692030Y-101122469D01*
G37*
G36*
X201851770Y-101123372D02*
X201967689Y-101146429D01*
X202149678Y-101221811D01*
X202313463Y-101331249D01*
X202452751Y-101470537D01*
X202562189Y-101634322D01*
X202637571Y-101816311D01*
X202676000Y-102009509D01*
X202676000Y-102206491D01*
X202637571Y-102399689D01*
X202562189Y-102581678D01*
X202452751Y-102745463D01*
X202313463Y-102884751D01*
X202149678Y-102994189D01*
X201967689Y-103069571D01*
X201851770Y-103092628D01*
X201774493Y-103108000D01*
X201577507Y-103108000D01*
X201500230Y-103092628D01*
X201384311Y-103069571D01*
X201202322Y-102994189D01*
X201038537Y-102884751D01*
X200899249Y-102745463D01*
X200789811Y-102581678D01*
X200714429Y-102399689D01*
X200676000Y-102206491D01*
X200676000Y-102009509D01*
X200714429Y-101816311D01*
X200789811Y-101634322D01*
X200899249Y-101470537D01*
X201038537Y-101331249D01*
X201202322Y-101221811D01*
X201384311Y-101146429D01*
X201500230Y-101123372D01*
X201577507Y-101108000D01*
X201774493Y-101108000D01*
X201851770Y-101123372D01*
X201851770Y-101123372D01*
G37*
G36*
X140129770Y-101123372D02*
X140245689Y-101146429D01*
X140427678Y-101221811D01*
X140591463Y-101331249D01*
X140730751Y-101470537D01*
X140840189Y-101634322D01*
X140915571Y-101816311D01*
X140954000Y-102009509D01*
X140954000Y-102206491D01*
X140915571Y-102399689D01*
X140840189Y-102581678D01*
X140730751Y-102745463D01*
X140591463Y-102884751D01*
X140427678Y-102994189D01*
X140245689Y-103069571D01*
X140129770Y-103092628D01*
X140052493Y-103108000D01*
X139855507Y-103108000D01*
X139778230Y-103092628D01*
X139662311Y-103069571D01*
X139480322Y-102994189D01*
X139316537Y-102884751D01*
X139177249Y-102745463D01*
X139067811Y-102581678D01*
X138992429Y-102399689D01*
X138954000Y-102206491D01*
X138954000Y-102009509D01*
X138992429Y-101816311D01*
X139067811Y-101634322D01*
X139177249Y-101470537D01*
X139316537Y-101331249D01*
X139480322Y-101221811D01*
X139662311Y-101146429D01*
X139778230Y-101123372D01*
X139855507Y-101108000D01*
X140052493Y-101108000D01*
X140129770Y-101123372D01*
X140129770Y-101123372D01*
G37*
G36*
X147770030Y-101122469D02*
X147770033Y-101122470D01*
X147770034Y-101122470D01*
X147958535Y-101179651D01*
X147958537Y-101179652D01*
X148132260Y-101272509D01*
X148284528Y-101397472D01*
X148409491Y-101549740D01*
X148502348Y-101723463D01*
X148559531Y-101911970D01*
X148578838Y-102108000D01*
X148559531Y-102304030D01*
X148502348Y-102492537D01*
X148409491Y-102666260D01*
X148284528Y-102818528D01*
X148132260Y-102943491D01*
X148132258Y-102943492D01*
X147958535Y-103036349D01*
X147770034Y-103093530D01*
X147770033Y-103093530D01*
X147770030Y-103093531D01*
X147623124Y-103108000D01*
X147524876Y-103108000D01*
X147377970Y-103093531D01*
X147377967Y-103093530D01*
X147377966Y-103093530D01*
X147189465Y-103036349D01*
X147015742Y-102943492D01*
X147015740Y-102943491D01*
X146863472Y-102818528D01*
X146738509Y-102666260D01*
X146645652Y-102492537D01*
X146588469Y-102304030D01*
X146569162Y-102108000D01*
X146588469Y-101911970D01*
X146645652Y-101723463D01*
X146738509Y-101549740D01*
X146863472Y-101397472D01*
X147015740Y-101272509D01*
X147189463Y-101179652D01*
X147189465Y-101179651D01*
X147377966Y-101122470D01*
X147377967Y-101122470D01*
X147377970Y-101122469D01*
X147524876Y-101108000D01*
X147623124Y-101108000D01*
X147770030Y-101122469D01*
X147770030Y-101122469D01*
G37*
G36*
X136827770Y-101123372D02*
X136943689Y-101146429D01*
X137125678Y-101221811D01*
X137289463Y-101331249D01*
X137428751Y-101470537D01*
X137538189Y-101634322D01*
X137613571Y-101816311D01*
X137652000Y-102009509D01*
X137652000Y-102206491D01*
X137613571Y-102399689D01*
X137538189Y-102581678D01*
X137428751Y-102745463D01*
X137289463Y-102884751D01*
X137125678Y-102994189D01*
X136943689Y-103069571D01*
X136827770Y-103092628D01*
X136750493Y-103108000D01*
X136553507Y-103108000D01*
X136476230Y-103092628D01*
X136360311Y-103069571D01*
X136178322Y-102994189D01*
X136014537Y-102884751D01*
X135875249Y-102745463D01*
X135765811Y-102581678D01*
X135690429Y-102399689D01*
X135652000Y-102206491D01*
X135652000Y-102009509D01*
X135690429Y-101816311D01*
X135765811Y-101634322D01*
X135875249Y-101470537D01*
X136014537Y-101331249D01*
X136178322Y-101221811D01*
X136360311Y-101146429D01*
X136476230Y-101123372D01*
X136553507Y-101108000D01*
X136750493Y-101108000D01*
X136827770Y-101123372D01*
X136827770Y-101123372D01*
G37*
G36*
X151051770Y-101123372D02*
X151167689Y-101146429D01*
X151349678Y-101221811D01*
X151513463Y-101331249D01*
X151652751Y-101470537D01*
X151762189Y-101634322D01*
X151837571Y-101816311D01*
X151876000Y-102009509D01*
X151876000Y-102206491D01*
X151837571Y-102399689D01*
X151762189Y-102581678D01*
X151652751Y-102745463D01*
X151513463Y-102884751D01*
X151349678Y-102994189D01*
X151167689Y-103069571D01*
X151051770Y-103092628D01*
X150974493Y-103108000D01*
X150777507Y-103108000D01*
X150700230Y-103092628D01*
X150584311Y-103069571D01*
X150402322Y-102994189D01*
X150238537Y-102884751D01*
X150099249Y-102745463D01*
X149989811Y-102581678D01*
X149914429Y-102399689D01*
X149876000Y-102206491D01*
X149876000Y-102009509D01*
X149914429Y-101816311D01*
X149989811Y-101634322D01*
X150099249Y-101470537D01*
X150238537Y-101331249D01*
X150402322Y-101221811D01*
X150584311Y-101146429D01*
X150700230Y-101123372D01*
X150777507Y-101108000D01*
X150974493Y-101108000D01*
X151051770Y-101123372D01*
X151051770Y-101123372D01*
G37*
G36*
X202250857Y-97367272D02*
X202451042Y-97450191D01*
X202631213Y-97570578D01*
X202784422Y-97723787D01*
X202904809Y-97903958D01*
X202987728Y-98104143D01*
X203030000Y-98316658D01*
X203030000Y-98533342D01*
X202987728Y-98745857D01*
X202904809Y-98946042D01*
X202784422Y-99126213D01*
X202631213Y-99279422D01*
X202451042Y-99399809D01*
X202250857Y-99482728D01*
X202038342Y-99525000D01*
X201821658Y-99525000D01*
X201609143Y-99482728D01*
X201408958Y-99399809D01*
X201228787Y-99279422D01*
X201075578Y-99126213D01*
X200955191Y-98946042D01*
X200872272Y-98745857D01*
X200830000Y-98533342D01*
X200830000Y-98316658D01*
X200872272Y-98104143D01*
X200955191Y-97903958D01*
X201075578Y-97723787D01*
X201228787Y-97570578D01*
X201408958Y-97450191D01*
X201609143Y-97367272D01*
X201821658Y-97325000D01*
X202038342Y-97325000D01*
X202250857Y-97367272D01*
X202250857Y-97367272D01*
G37*
G36*
X187010857Y-97367272D02*
X187211042Y-97450191D01*
X187391213Y-97570578D01*
X187544422Y-97723787D01*
X187664809Y-97903958D01*
X187747728Y-98104143D01*
X187790000Y-98316658D01*
X187790000Y-98533342D01*
X187747728Y-98745857D01*
X187664809Y-98946042D01*
X187544422Y-99126213D01*
X187391213Y-99279422D01*
X187211042Y-99399809D01*
X187010857Y-99482728D01*
X186798342Y-99525000D01*
X186581658Y-99525000D01*
X186369143Y-99482728D01*
X186168958Y-99399809D01*
X185988787Y-99279422D01*
X185835578Y-99126213D01*
X185715191Y-98946042D01*
X185632272Y-98745857D01*
X185590000Y-98533342D01*
X185590000Y-98316658D01*
X185632272Y-98104143D01*
X185715191Y-97903958D01*
X185835578Y-97723787D01*
X185988787Y-97570578D01*
X186168958Y-97450191D01*
X186369143Y-97367272D01*
X186581658Y-97325000D01*
X186798342Y-97325000D01*
X187010857Y-97367272D01*
X187010857Y-97367272D01*
G37*
G36*
X199710857Y-97367272D02*
X199911042Y-97450191D01*
X200091213Y-97570578D01*
X200244422Y-97723787D01*
X200364809Y-97903958D01*
X200447728Y-98104143D01*
X200490000Y-98316658D01*
X200490000Y-98533342D01*
X200447728Y-98745857D01*
X200364809Y-98946042D01*
X200244422Y-99126213D01*
X200091213Y-99279422D01*
X199911042Y-99399809D01*
X199710857Y-99482728D01*
X199498342Y-99525000D01*
X199281658Y-99525000D01*
X199069143Y-99482728D01*
X198868958Y-99399809D01*
X198688787Y-99279422D01*
X198535578Y-99126213D01*
X198415191Y-98946042D01*
X198332272Y-98745857D01*
X198290000Y-98533342D01*
X198290000Y-98316658D01*
X198332272Y-98104143D01*
X198415191Y-97903958D01*
X198535578Y-97723787D01*
X198688787Y-97570578D01*
X198868958Y-97450191D01*
X199069143Y-97367272D01*
X199281658Y-97325000D01*
X199498342Y-97325000D01*
X199710857Y-97367272D01*
X199710857Y-97367272D01*
G37*
G36*
X189550857Y-97367272D02*
X189751042Y-97450191D01*
X189931213Y-97570578D01*
X190084422Y-97723787D01*
X190204809Y-97903958D01*
X190287728Y-98104143D01*
X190330000Y-98316658D01*
X190330000Y-98533342D01*
X190287728Y-98745857D01*
X190204809Y-98946042D01*
X190084422Y-99126213D01*
X189931213Y-99279422D01*
X189751042Y-99399809D01*
X189550857Y-99482728D01*
X189338342Y-99525000D01*
X189121658Y-99525000D01*
X188909143Y-99482728D01*
X188708958Y-99399809D01*
X188528787Y-99279422D01*
X188375578Y-99126213D01*
X188255191Y-98946042D01*
X188172272Y-98745857D01*
X188130000Y-98533342D01*
X188130000Y-98316658D01*
X188172272Y-98104143D01*
X188255191Y-97903958D01*
X188375578Y-97723787D01*
X188528787Y-97570578D01*
X188708958Y-97450191D01*
X188909143Y-97367272D01*
X189121658Y-97325000D01*
X189338342Y-97325000D01*
X189550857Y-97367272D01*
X189550857Y-97367272D01*
G37*
G36*
X192090857Y-97367272D02*
X192291042Y-97450191D01*
X192471213Y-97570578D01*
X192624422Y-97723787D01*
X192744809Y-97903958D01*
X192827728Y-98104143D01*
X192870000Y-98316658D01*
X192870000Y-98533342D01*
X192827728Y-98745857D01*
X192744809Y-98946042D01*
X192624422Y-99126213D01*
X192471213Y-99279422D01*
X192291042Y-99399809D01*
X192090857Y-99482728D01*
X191878342Y-99525000D01*
X191661658Y-99525000D01*
X191449143Y-99482728D01*
X191248958Y-99399809D01*
X191068787Y-99279422D01*
X190915578Y-99126213D01*
X190795191Y-98946042D01*
X190712272Y-98745857D01*
X190670000Y-98533342D01*
X190670000Y-98316658D01*
X190712272Y-98104143D01*
X190795191Y-97903958D01*
X190915578Y-97723787D01*
X191068787Y-97570578D01*
X191248958Y-97450191D01*
X191449143Y-97367272D01*
X191661658Y-97325000D01*
X191878342Y-97325000D01*
X192090857Y-97367272D01*
X192090857Y-97367272D01*
G37*
G36*
X194630857Y-97367272D02*
X194831042Y-97450191D01*
X195011213Y-97570578D01*
X195164422Y-97723787D01*
X195284809Y-97903958D01*
X195367728Y-98104143D01*
X195410000Y-98316658D01*
X195410000Y-98533342D01*
X195367728Y-98745857D01*
X195284809Y-98946042D01*
X195164422Y-99126213D01*
X195011213Y-99279422D01*
X194831042Y-99399809D01*
X194630857Y-99482728D01*
X194418342Y-99525000D01*
X194201658Y-99525000D01*
X193989143Y-99482728D01*
X193788958Y-99399809D01*
X193608787Y-99279422D01*
X193455578Y-99126213D01*
X193335191Y-98946042D01*
X193252272Y-98745857D01*
X193210000Y-98533342D01*
X193210000Y-98316658D01*
X193252272Y-98104143D01*
X193335191Y-97903958D01*
X193455578Y-97723787D01*
X193608787Y-97570578D01*
X193788958Y-97450191D01*
X193989143Y-97367272D01*
X194201658Y-97325000D01*
X194418342Y-97325000D01*
X194630857Y-97367272D01*
X194630857Y-97367272D01*
G37*
G36*
X197170857Y-97367272D02*
X197371042Y-97450191D01*
X197551213Y-97570578D01*
X197704422Y-97723787D01*
X197824809Y-97903958D01*
X197907728Y-98104143D01*
X197950000Y-98316658D01*
X197950000Y-98533342D01*
X197907728Y-98745857D01*
X197824809Y-98946042D01*
X197704422Y-99126213D01*
X197551213Y-99279422D01*
X197371042Y-99399809D01*
X197170857Y-99482728D01*
X196958342Y-99525000D01*
X196741658Y-99525000D01*
X196529143Y-99482728D01*
X196328958Y-99399809D01*
X196148787Y-99279422D01*
X195995578Y-99126213D01*
X195875191Y-98946042D01*
X195792272Y-98745857D01*
X195750000Y-98533342D01*
X195750000Y-98316658D01*
X195792272Y-98104143D01*
X195875191Y-97903958D01*
X195995578Y-97723787D01*
X196148787Y-97570578D01*
X196328958Y-97450191D01*
X196529143Y-97367272D01*
X196741658Y-97325000D01*
X196958342Y-97325000D01*
X197170857Y-97367272D01*
X197170857Y-97367272D01*
G37*
G36*
X204790857Y-97367272D02*
X204991042Y-97450191D01*
X205171213Y-97570578D01*
X205324422Y-97723787D01*
X205444809Y-97903958D01*
X205527728Y-98104143D01*
X205570000Y-98316658D01*
X205570000Y-98533342D01*
X205527728Y-98745857D01*
X205444809Y-98946042D01*
X205324422Y-99126213D01*
X205171213Y-99279422D01*
X204991042Y-99399809D01*
X204790857Y-99482728D01*
X204578342Y-99525000D01*
X204361658Y-99525000D01*
X204149143Y-99482728D01*
X203948958Y-99399809D01*
X203768787Y-99279422D01*
X203615578Y-99126213D01*
X203495191Y-98946042D01*
X203412272Y-98745857D01*
X203370000Y-98533342D01*
X203370000Y-98316658D01*
X203412272Y-98104143D01*
X203495191Y-97903958D01*
X203615578Y-97723787D01*
X203768787Y-97570578D01*
X203948958Y-97450191D01*
X204149143Y-97367272D01*
X204361658Y-97325000D01*
X204578342Y-97325000D01*
X204790857Y-97367272D01*
X204790857Y-97367272D01*
G37*
G36*
X151450857Y-97367272D02*
X151651042Y-97450191D01*
X151831213Y-97570578D01*
X151984422Y-97723787D01*
X152104809Y-97903958D01*
X152187728Y-98104143D01*
X152230000Y-98316658D01*
X152230000Y-98533342D01*
X152187728Y-98745857D01*
X152104809Y-98946042D01*
X151984422Y-99126213D01*
X151831213Y-99279422D01*
X151651042Y-99399809D01*
X151450857Y-99482728D01*
X151238342Y-99525000D01*
X151021658Y-99525000D01*
X150809143Y-99482728D01*
X150608958Y-99399809D01*
X150428787Y-99279422D01*
X150275578Y-99126213D01*
X150155191Y-98946042D01*
X150072272Y-98745857D01*
X150030000Y-98533342D01*
X150030000Y-98316658D01*
X150072272Y-98104143D01*
X150155191Y-97903958D01*
X150275578Y-97723787D01*
X150428787Y-97570578D01*
X150608958Y-97450191D01*
X150809143Y-97367272D01*
X151021658Y-97325000D01*
X151238342Y-97325000D01*
X151450857Y-97367272D01*
X151450857Y-97367272D01*
G37*
G36*
X153990857Y-97367272D02*
X154191042Y-97450191D01*
X154371213Y-97570578D01*
X154524422Y-97723787D01*
X154644809Y-97903958D01*
X154727728Y-98104143D01*
X154770000Y-98316658D01*
X154770000Y-98533342D01*
X154727728Y-98745857D01*
X154644809Y-98946042D01*
X154524422Y-99126213D01*
X154371213Y-99279422D01*
X154191042Y-99399809D01*
X153990857Y-99482728D01*
X153778342Y-99525000D01*
X153561658Y-99525000D01*
X153349143Y-99482728D01*
X153148958Y-99399809D01*
X152968787Y-99279422D01*
X152815578Y-99126213D01*
X152695191Y-98946042D01*
X152612272Y-98745857D01*
X152570000Y-98533342D01*
X152570000Y-98316658D01*
X152612272Y-98104143D01*
X152695191Y-97903958D01*
X152815578Y-97723787D01*
X152968787Y-97570578D01*
X153148958Y-97450191D01*
X153349143Y-97367272D01*
X153561658Y-97325000D01*
X153778342Y-97325000D01*
X153990857Y-97367272D01*
X153990857Y-97367272D01*
G37*
G36*
X136210857Y-97367272D02*
X136411042Y-97450191D01*
X136591213Y-97570578D01*
X136744422Y-97723787D01*
X136864809Y-97903958D01*
X136947728Y-98104143D01*
X136990000Y-98316658D01*
X136990000Y-98533342D01*
X136947728Y-98745857D01*
X136864809Y-98946042D01*
X136744422Y-99126213D01*
X136591213Y-99279422D01*
X136411042Y-99399809D01*
X136210857Y-99482728D01*
X135998342Y-99525000D01*
X135781658Y-99525000D01*
X135569143Y-99482728D01*
X135368958Y-99399809D01*
X135188787Y-99279422D01*
X135035578Y-99126213D01*
X134915191Y-98946042D01*
X134832272Y-98745857D01*
X134790000Y-98533342D01*
X134790000Y-98316658D01*
X134832272Y-98104143D01*
X134915191Y-97903958D01*
X135035578Y-97723787D01*
X135188787Y-97570578D01*
X135368958Y-97450191D01*
X135569143Y-97367272D01*
X135781658Y-97325000D01*
X135998342Y-97325000D01*
X136210857Y-97367272D01*
X136210857Y-97367272D01*
G37*
G36*
X138750857Y-97367272D02*
X138951042Y-97450191D01*
X139131213Y-97570578D01*
X139284422Y-97723787D01*
X139404809Y-97903958D01*
X139487728Y-98104143D01*
X139530000Y-98316658D01*
X139530000Y-98533342D01*
X139487728Y-98745857D01*
X139404809Y-98946042D01*
X139284422Y-99126213D01*
X139131213Y-99279422D01*
X138951042Y-99399809D01*
X138750857Y-99482728D01*
X138538342Y-99525000D01*
X138321658Y-99525000D01*
X138109143Y-99482728D01*
X137908958Y-99399809D01*
X137728787Y-99279422D01*
X137575578Y-99126213D01*
X137455191Y-98946042D01*
X137372272Y-98745857D01*
X137330000Y-98533342D01*
X137330000Y-98316658D01*
X137372272Y-98104143D01*
X137455191Y-97903958D01*
X137575578Y-97723787D01*
X137728787Y-97570578D01*
X137908958Y-97450191D01*
X138109143Y-97367272D01*
X138321658Y-97325000D01*
X138538342Y-97325000D01*
X138750857Y-97367272D01*
X138750857Y-97367272D01*
G37*
G36*
X141290857Y-97367272D02*
X141491042Y-97450191D01*
X141671213Y-97570578D01*
X141824422Y-97723787D01*
X141944809Y-97903958D01*
X142027728Y-98104143D01*
X142070000Y-98316658D01*
X142070000Y-98533342D01*
X142027728Y-98745857D01*
X141944809Y-98946042D01*
X141824422Y-99126213D01*
X141671213Y-99279422D01*
X141491042Y-99399809D01*
X141290857Y-99482728D01*
X141078342Y-99525000D01*
X140861658Y-99525000D01*
X140649143Y-99482728D01*
X140448958Y-99399809D01*
X140268787Y-99279422D01*
X140115578Y-99126213D01*
X139995191Y-98946042D01*
X139912272Y-98745857D01*
X139870000Y-98533342D01*
X139870000Y-98316658D01*
X139912272Y-98104143D01*
X139995191Y-97903958D01*
X140115578Y-97723787D01*
X140268787Y-97570578D01*
X140448958Y-97450191D01*
X140649143Y-97367272D01*
X140861658Y-97325000D01*
X141078342Y-97325000D01*
X141290857Y-97367272D01*
X141290857Y-97367272D01*
G37*
G36*
X143830857Y-97367272D02*
X144031042Y-97450191D01*
X144211213Y-97570578D01*
X144364422Y-97723787D01*
X144484809Y-97903958D01*
X144567728Y-98104143D01*
X144610000Y-98316658D01*
X144610000Y-98533342D01*
X144567728Y-98745857D01*
X144484809Y-98946042D01*
X144364422Y-99126213D01*
X144211213Y-99279422D01*
X144031042Y-99399809D01*
X143830857Y-99482728D01*
X143618342Y-99525000D01*
X143401658Y-99525000D01*
X143189143Y-99482728D01*
X142988958Y-99399809D01*
X142808787Y-99279422D01*
X142655578Y-99126213D01*
X142535191Y-98946042D01*
X142452272Y-98745857D01*
X142410000Y-98533342D01*
X142410000Y-98316658D01*
X142452272Y-98104143D01*
X142535191Y-97903958D01*
X142655578Y-97723787D01*
X142808787Y-97570578D01*
X142988958Y-97450191D01*
X143189143Y-97367272D01*
X143401658Y-97325000D01*
X143618342Y-97325000D01*
X143830857Y-97367272D01*
X143830857Y-97367272D01*
G37*
G36*
X146370857Y-97367272D02*
X146571042Y-97450191D01*
X146751213Y-97570578D01*
X146904422Y-97723787D01*
X147024809Y-97903958D01*
X147107728Y-98104143D01*
X147150000Y-98316658D01*
X147150000Y-98533342D01*
X147107728Y-98745857D01*
X147024809Y-98946042D01*
X146904422Y-99126213D01*
X146751213Y-99279422D01*
X146571042Y-99399809D01*
X146370857Y-99482728D01*
X146158342Y-99525000D01*
X145941658Y-99525000D01*
X145729143Y-99482728D01*
X145528958Y-99399809D01*
X145348787Y-99279422D01*
X145195578Y-99126213D01*
X145075191Y-98946042D01*
X144992272Y-98745857D01*
X144950000Y-98533342D01*
X144950000Y-98316658D01*
X144992272Y-98104143D01*
X145075191Y-97903958D01*
X145195578Y-97723787D01*
X145348787Y-97570578D01*
X145528958Y-97450191D01*
X145729143Y-97367272D01*
X145941658Y-97325000D01*
X146158342Y-97325000D01*
X146370857Y-97367272D01*
X146370857Y-97367272D01*
G37*
G36*
X148910857Y-97367272D02*
X149111042Y-97450191D01*
X149291213Y-97570578D01*
X149444422Y-97723787D01*
X149564809Y-97903958D01*
X149647728Y-98104143D01*
X149690000Y-98316658D01*
X149690000Y-98533342D01*
X149647728Y-98745857D01*
X149564809Y-98946042D01*
X149444422Y-99126213D01*
X149291213Y-99279422D01*
X149111042Y-99399809D01*
X148910857Y-99482728D01*
X148698342Y-99525000D01*
X148481658Y-99525000D01*
X148269143Y-99482728D01*
X148068958Y-99399809D01*
X147888787Y-99279422D01*
X147735578Y-99126213D01*
X147615191Y-98946042D01*
X147532272Y-98745857D01*
X147490000Y-98533342D01*
X147490000Y-98316658D01*
X147532272Y-98104143D01*
X147615191Y-97903958D01*
X147735578Y-97723787D01*
X147888787Y-97570578D01*
X148068958Y-97450191D01*
X148269143Y-97367272D01*
X148481658Y-97325000D01*
X148698342Y-97325000D01*
X148910857Y-97367272D01*
X148910857Y-97367272D01*
G37*
G36*
X170206603Y-96610968D02*
X170206606Y-96610969D01*
X170206605Y-96610969D01*
X170381678Y-96683486D01*
X170381679Y-96683487D01*
X170539241Y-96788767D01*
X170673233Y-96922759D01*
X170673234Y-96922761D01*
X170778514Y-97080322D01*
X170834603Y-97215734D01*
X170851032Y-97255397D01*
X170888000Y-97441250D01*
X170888000Y-97630750D01*
X170851032Y-97816603D01*
X170851031Y-97816605D01*
X170778514Y-97991678D01*
X170778513Y-97991679D01*
X170673233Y-98149241D01*
X170539241Y-98283233D01*
X170459923Y-98336232D01*
X170381678Y-98388514D01*
X170246266Y-98444603D01*
X170206603Y-98461032D01*
X170020750Y-98498000D01*
X169831250Y-98498000D01*
X169645397Y-98461032D01*
X169605734Y-98444603D01*
X169470322Y-98388514D01*
X169392077Y-98336232D01*
X169312759Y-98283233D01*
X169178767Y-98149241D01*
X169073487Y-97991679D01*
X169073486Y-97991678D01*
X169000969Y-97816605D01*
X169000968Y-97816603D01*
X168964000Y-97630750D01*
X168964000Y-97441250D01*
X169000968Y-97255397D01*
X169017397Y-97215734D01*
X169073486Y-97080322D01*
X169178766Y-96922761D01*
X169178767Y-96922759D01*
X169312759Y-96788767D01*
X169470321Y-96683487D01*
X169470322Y-96683486D01*
X169645395Y-96610969D01*
X169645394Y-96610969D01*
X169645397Y-96610968D01*
X169831250Y-96574000D01*
X170020750Y-96574000D01*
X170206603Y-96610968D01*
X170206603Y-96610968D01*
G37*
G36*
X218466603Y-96610968D02*
X218466606Y-96610969D01*
X218466605Y-96610969D01*
X218641678Y-96683486D01*
X218641679Y-96683487D01*
X218799241Y-96788767D01*
X218933233Y-96922759D01*
X218933234Y-96922761D01*
X219038514Y-97080322D01*
X219094603Y-97215734D01*
X219111032Y-97255397D01*
X219148000Y-97441250D01*
X219148000Y-97630750D01*
X219111032Y-97816603D01*
X219111031Y-97816605D01*
X219038514Y-97991678D01*
X219038513Y-97991679D01*
X218933233Y-98149241D01*
X218799241Y-98283233D01*
X218719923Y-98336232D01*
X218641678Y-98388514D01*
X218506266Y-98444603D01*
X218466603Y-98461032D01*
X218280750Y-98498000D01*
X218091250Y-98498000D01*
X217905397Y-98461032D01*
X217865734Y-98444603D01*
X217730322Y-98388514D01*
X217652077Y-98336232D01*
X217572759Y-98283233D01*
X217438767Y-98149241D01*
X217333487Y-97991679D01*
X217333486Y-97991678D01*
X217260969Y-97816605D01*
X217260968Y-97816603D01*
X217224000Y-97630750D01*
X217224000Y-97441250D01*
X217260968Y-97255397D01*
X217277397Y-97215734D01*
X217333486Y-97080322D01*
X217438766Y-96922761D01*
X217438767Y-96922759D01*
X217572759Y-96788767D01*
X217730321Y-96683487D01*
X217730322Y-96683486D01*
X217905395Y-96610969D01*
X217905394Y-96610969D01*
X217905397Y-96610968D01*
X218091250Y-96574000D01*
X218280750Y-96574000D01*
X218466603Y-96610968D01*
X218466603Y-96610968D01*
G37*
G36*
X221006603Y-96610968D02*
X221006606Y-96610969D01*
X221006605Y-96610969D01*
X221181678Y-96683486D01*
X221181679Y-96683487D01*
X221339241Y-96788767D01*
X221473233Y-96922759D01*
X221473234Y-96922761D01*
X221578514Y-97080322D01*
X221634603Y-97215734D01*
X221651032Y-97255397D01*
X221688000Y-97441250D01*
X221688000Y-97630750D01*
X221651032Y-97816603D01*
X221651031Y-97816605D01*
X221578514Y-97991678D01*
X221578513Y-97991679D01*
X221473233Y-98149241D01*
X221339241Y-98283233D01*
X221259923Y-98336232D01*
X221181678Y-98388514D01*
X221046266Y-98444603D01*
X221006603Y-98461032D01*
X220820750Y-98498000D01*
X220631250Y-98498000D01*
X220445397Y-98461032D01*
X220405734Y-98444603D01*
X220270322Y-98388514D01*
X220192077Y-98336232D01*
X220112759Y-98283233D01*
X219978767Y-98149241D01*
X219873487Y-97991679D01*
X219873486Y-97991678D01*
X219800969Y-97816605D01*
X219800968Y-97816603D01*
X219764000Y-97630750D01*
X219764000Y-97441250D01*
X219800968Y-97255397D01*
X219817397Y-97215734D01*
X219873486Y-97080322D01*
X219978766Y-96922761D01*
X219978767Y-96922759D01*
X220112759Y-96788767D01*
X220270321Y-96683487D01*
X220270322Y-96683486D01*
X220445395Y-96610969D01*
X220445394Y-96610969D01*
X220445397Y-96610968D01*
X220631250Y-96574000D01*
X220820750Y-96574000D01*
X221006603Y-96610968D01*
X221006603Y-96610968D01*
G37*
G36*
X172746603Y-96610968D02*
X172746606Y-96610969D01*
X172746605Y-96610969D01*
X172921678Y-96683486D01*
X172921679Y-96683487D01*
X173079241Y-96788767D01*
X173213233Y-96922759D01*
X173213234Y-96922761D01*
X173318514Y-97080322D01*
X173374603Y-97215734D01*
X173391032Y-97255397D01*
X173428000Y-97441250D01*
X173428000Y-97630750D01*
X173391032Y-97816603D01*
X173391031Y-97816605D01*
X173318514Y-97991678D01*
X173318513Y-97991679D01*
X173213233Y-98149241D01*
X173079241Y-98283233D01*
X172999923Y-98336232D01*
X172921678Y-98388514D01*
X172786266Y-98444603D01*
X172746603Y-98461032D01*
X172560750Y-98498000D01*
X172371250Y-98498000D01*
X172185397Y-98461032D01*
X172145734Y-98444603D01*
X172010322Y-98388514D01*
X171932077Y-98336232D01*
X171852759Y-98283233D01*
X171718767Y-98149241D01*
X171613487Y-97991679D01*
X171613486Y-97991678D01*
X171540969Y-97816605D01*
X171540968Y-97816603D01*
X171504000Y-97630750D01*
X171504000Y-97441250D01*
X171540968Y-97255397D01*
X171557397Y-97215734D01*
X171613486Y-97080322D01*
X171718766Y-96922761D01*
X171718767Y-96922759D01*
X171852759Y-96788767D01*
X172010321Y-96683487D01*
X172010322Y-96683486D01*
X172185395Y-96610969D01*
X172185394Y-96610969D01*
X172185397Y-96610968D01*
X172371250Y-96574000D01*
X172560750Y-96574000D01*
X172746603Y-96610968D01*
X172746603Y-96610968D01*
G37*
G36*
X223546603Y-96610968D02*
X223546606Y-96610969D01*
X223546605Y-96610969D01*
X223721678Y-96683486D01*
X223721679Y-96683487D01*
X223879241Y-96788767D01*
X224013233Y-96922759D01*
X224013234Y-96922761D01*
X224118514Y-97080322D01*
X224174603Y-97215734D01*
X224191032Y-97255397D01*
X224228000Y-97441250D01*
X224228000Y-97630750D01*
X224191032Y-97816603D01*
X224191031Y-97816605D01*
X224118514Y-97991678D01*
X224118513Y-97991679D01*
X224013233Y-98149241D01*
X223879241Y-98283233D01*
X223799923Y-98336232D01*
X223721678Y-98388514D01*
X223586266Y-98444603D01*
X223546603Y-98461032D01*
X223360750Y-98498000D01*
X223171250Y-98498000D01*
X222985397Y-98461032D01*
X222945734Y-98444603D01*
X222810322Y-98388514D01*
X222732077Y-98336232D01*
X222652759Y-98283233D01*
X222518767Y-98149241D01*
X222413487Y-97991679D01*
X222413486Y-97991678D01*
X222340969Y-97816605D01*
X222340968Y-97816603D01*
X222304000Y-97630750D01*
X222304000Y-97441250D01*
X222340968Y-97255397D01*
X222357397Y-97215734D01*
X222413486Y-97080322D01*
X222518766Y-96922761D01*
X222518767Y-96922759D01*
X222652759Y-96788767D01*
X222810321Y-96683487D01*
X222810322Y-96683486D01*
X222985395Y-96610969D01*
X222985394Y-96610969D01*
X222985397Y-96610968D01*
X223171250Y-96574000D01*
X223360750Y-96574000D01*
X223546603Y-96610968D01*
X223546603Y-96610968D01*
G37*
G36*
X167666603Y-96610968D02*
X167666606Y-96610969D01*
X167666605Y-96610969D01*
X167841678Y-96683486D01*
X167841679Y-96683487D01*
X167999241Y-96788767D01*
X168133233Y-96922759D01*
X168133234Y-96922761D01*
X168238514Y-97080322D01*
X168294603Y-97215734D01*
X168311032Y-97255397D01*
X168348000Y-97441250D01*
X168348000Y-97630750D01*
X168311032Y-97816603D01*
X168311031Y-97816605D01*
X168238514Y-97991678D01*
X168238513Y-97991679D01*
X168133233Y-98149241D01*
X167999241Y-98283233D01*
X167919923Y-98336232D01*
X167841678Y-98388514D01*
X167706266Y-98444603D01*
X167666603Y-98461032D01*
X167480750Y-98498000D01*
X167291250Y-98498000D01*
X167105397Y-98461032D01*
X167065734Y-98444603D01*
X166930322Y-98388514D01*
X166852077Y-98336232D01*
X166772759Y-98283233D01*
X166638767Y-98149241D01*
X166533487Y-97991679D01*
X166533486Y-97991678D01*
X166460969Y-97816605D01*
X166460968Y-97816603D01*
X166424000Y-97630750D01*
X166424000Y-97441250D01*
X166460968Y-97255397D01*
X166477397Y-97215734D01*
X166533486Y-97080322D01*
X166638766Y-96922761D01*
X166638767Y-96922759D01*
X166772759Y-96788767D01*
X166930321Y-96683487D01*
X166930322Y-96683486D01*
X167105395Y-96610969D01*
X167105394Y-96610969D01*
X167105397Y-96610968D01*
X167291250Y-96574000D01*
X167480750Y-96574000D01*
X167666603Y-96610968D01*
X167666603Y-96610968D01*
G37*
G36*
X204820026Y-85206115D02*
X205038412Y-85296573D01*
X205234958Y-85427901D01*
X205402099Y-85595042D01*
X205533427Y-85791588D01*
X205623885Y-86009974D01*
X205670000Y-86241809D01*
X205670000Y-86478191D01*
X205623885Y-86710026D01*
X205533427Y-86928412D01*
X205402099Y-87124958D01*
X205234958Y-87292099D01*
X205038412Y-87423427D01*
X204818505Y-87514515D01*
X204796894Y-87526066D01*
X204777952Y-87541611D01*
X204762406Y-87560554D01*
X204750855Y-87582164D01*
X204743742Y-87605613D01*
X204741340Y-87630000D01*
X204743742Y-87654386D01*
X204750855Y-87677835D01*
X204762406Y-87699446D01*
X204777951Y-87718388D01*
X204796894Y-87733934D01*
X204818505Y-87745485D01*
X205038412Y-87836573D01*
X205234958Y-87967901D01*
X205402099Y-88135042D01*
X205533427Y-88331588D01*
X205623885Y-88549974D01*
X205670000Y-88781809D01*
X205670000Y-89018191D01*
X205623885Y-89250026D01*
X205533427Y-89468412D01*
X205402099Y-89664958D01*
X205234958Y-89832099D01*
X205038412Y-89963427D01*
X204818505Y-90054515D01*
X204796894Y-90066066D01*
X204777952Y-90081611D01*
X204762406Y-90100554D01*
X204750855Y-90122164D01*
X204743742Y-90145613D01*
X204741340Y-90170000D01*
X204743742Y-90194386D01*
X204750855Y-90217835D01*
X204762406Y-90239446D01*
X204777951Y-90258388D01*
X204796894Y-90273934D01*
X204818505Y-90285485D01*
X205038412Y-90376573D01*
X205234958Y-90507901D01*
X205402099Y-90675042D01*
X205533427Y-90871588D01*
X205623885Y-91089974D01*
X205670000Y-91321809D01*
X205670000Y-91558191D01*
X205623885Y-91790026D01*
X205533427Y-92008412D01*
X205402099Y-92204958D01*
X205234958Y-92372099D01*
X205038412Y-92503427D01*
X204820026Y-92593885D01*
X204588191Y-92640000D01*
X204351809Y-92640000D01*
X204119974Y-92593885D01*
X203901588Y-92503427D01*
X203705042Y-92372099D01*
X203537901Y-92204958D01*
X203406573Y-92008412D01*
X203316115Y-91790026D01*
X203270000Y-91558191D01*
X203270000Y-91321809D01*
X203316115Y-91089974D01*
X203406573Y-90871588D01*
X203537901Y-90675042D01*
X203705042Y-90507901D01*
X203901588Y-90376573D01*
X204121495Y-90285485D01*
X204143106Y-90273934D01*
X204162048Y-90258389D01*
X204177594Y-90239446D01*
X204189145Y-90217836D01*
X204196258Y-90194387D01*
X204198660Y-90170000D01*
X204196258Y-90145614D01*
X204189145Y-90122165D01*
X204177594Y-90100554D01*
X204162049Y-90081612D01*
X204143106Y-90066066D01*
X204121495Y-90054515D01*
X203901588Y-89963427D01*
X203705042Y-89832099D01*
X203537901Y-89664958D01*
X203406573Y-89468412D01*
X203316115Y-89250026D01*
X203270000Y-89018191D01*
X203270000Y-88781809D01*
X203316115Y-88549974D01*
X203406573Y-88331588D01*
X203537901Y-88135042D01*
X203705042Y-87967901D01*
X203901588Y-87836573D01*
X204121495Y-87745485D01*
X204143106Y-87733934D01*
X204162048Y-87718389D01*
X204177594Y-87699446D01*
X204189145Y-87677836D01*
X204196258Y-87654387D01*
X204198660Y-87630000D01*
X204196258Y-87605614D01*
X204189145Y-87582165D01*
X204177594Y-87560554D01*
X204162049Y-87541612D01*
X204143106Y-87526066D01*
X204121495Y-87514515D01*
X203901588Y-87423427D01*
X203705042Y-87292099D01*
X203537901Y-87124958D01*
X203406573Y-86928412D01*
X203316115Y-86710026D01*
X203270000Y-86478191D01*
X203270000Y-86241809D01*
X203316115Y-86009974D01*
X203406573Y-85791588D01*
X203537901Y-85595042D01*
X203705042Y-85427901D01*
X203901588Y-85296573D01*
X204119974Y-85206115D01*
X204351809Y-85160000D01*
X204588191Y-85160000D01*
X204820026Y-85206115D01*
X204820026Y-85206115D01*
G37*
G36*
X154020026Y-85206115D02*
X154238412Y-85296573D01*
X154434958Y-85427901D01*
X154602099Y-85595042D01*
X154733427Y-85791588D01*
X154823885Y-86009974D01*
X154870000Y-86241809D01*
X154870000Y-86478191D01*
X154823885Y-86710026D01*
X154733427Y-86928412D01*
X154602099Y-87124958D01*
X154434958Y-87292099D01*
X154238412Y-87423427D01*
X154018505Y-87514515D01*
X153996894Y-87526066D01*
X153977952Y-87541611D01*
X153962406Y-87560554D01*
X153950855Y-87582164D01*
X153943742Y-87605613D01*
X153941340Y-87630000D01*
X153943742Y-87654386D01*
X153950855Y-87677835D01*
X153962406Y-87699446D01*
X153977951Y-87718388D01*
X153996894Y-87733934D01*
X154018505Y-87745485D01*
X154238412Y-87836573D01*
X154434958Y-87967901D01*
X154602099Y-88135042D01*
X154733427Y-88331588D01*
X154823885Y-88549974D01*
X154870000Y-88781809D01*
X154870000Y-89018191D01*
X154823885Y-89250026D01*
X154733427Y-89468412D01*
X154602099Y-89664958D01*
X154434958Y-89832099D01*
X154238412Y-89963427D01*
X154018505Y-90054515D01*
X153996894Y-90066066D01*
X153977952Y-90081611D01*
X153962406Y-90100554D01*
X153950855Y-90122164D01*
X153943742Y-90145613D01*
X153941340Y-90170000D01*
X153943742Y-90194386D01*
X153950855Y-90217835D01*
X153962406Y-90239446D01*
X153977951Y-90258388D01*
X153996894Y-90273934D01*
X154018505Y-90285485D01*
X154238412Y-90376573D01*
X154434958Y-90507901D01*
X154602099Y-90675042D01*
X154733427Y-90871588D01*
X154823885Y-91089974D01*
X154870000Y-91321809D01*
X154870000Y-91558191D01*
X154823885Y-91790026D01*
X154733427Y-92008412D01*
X154602099Y-92204958D01*
X154434958Y-92372099D01*
X154238412Y-92503427D01*
X154020026Y-92593885D01*
X153788191Y-92640000D01*
X153551809Y-92640000D01*
X153319974Y-92593885D01*
X153101588Y-92503427D01*
X152905042Y-92372099D01*
X152737901Y-92204958D01*
X152606573Y-92008412D01*
X152516115Y-91790026D01*
X152470000Y-91558191D01*
X152470000Y-91321809D01*
X152516115Y-91089974D01*
X152606573Y-90871588D01*
X152737901Y-90675042D01*
X152905042Y-90507901D01*
X153101588Y-90376573D01*
X153321495Y-90285485D01*
X153343106Y-90273934D01*
X153362048Y-90258389D01*
X153377594Y-90239446D01*
X153389145Y-90217836D01*
X153396258Y-90194387D01*
X153398660Y-90170000D01*
X153396258Y-90145614D01*
X153389145Y-90122165D01*
X153377594Y-90100554D01*
X153362049Y-90081612D01*
X153343106Y-90066066D01*
X153321495Y-90054515D01*
X153101588Y-89963427D01*
X152905042Y-89832099D01*
X152737901Y-89664958D01*
X152606573Y-89468412D01*
X152516115Y-89250026D01*
X152470000Y-89018191D01*
X152470000Y-88781809D01*
X152516115Y-88549974D01*
X152606573Y-88331588D01*
X152737901Y-88135042D01*
X152905042Y-87967901D01*
X153101588Y-87836573D01*
X153321495Y-87745485D01*
X153343106Y-87733934D01*
X153362048Y-87718389D01*
X153377594Y-87699446D01*
X153389145Y-87677836D01*
X153396258Y-87654387D01*
X153398660Y-87630000D01*
X153396258Y-87605614D01*
X153389145Y-87582165D01*
X153377594Y-87560554D01*
X153362049Y-87541612D01*
X153343106Y-87526066D01*
X153321495Y-87514515D01*
X153101588Y-87423427D01*
X152905042Y-87292099D01*
X152737901Y-87124958D01*
X152606573Y-86928412D01*
X152516115Y-86710026D01*
X152470000Y-86478191D01*
X152470000Y-86241809D01*
X152516115Y-86009974D01*
X152606573Y-85791588D01*
X152737901Y-85595042D01*
X152905042Y-85427901D01*
X153101588Y-85296573D01*
X153319974Y-85206115D01*
X153551809Y-85160000D01*
X153788191Y-85160000D01*
X154020026Y-85206115D01*
X154020026Y-85206115D01*
G37*
G36*
X221890000Y-91360000D02*
X217530000Y-91360000D01*
X217530000Y-88980000D01*
X221890000Y-88980000D01*
X221890000Y-91360000D01*
X221890000Y-91360000D01*
G37*
G36*
X171090000Y-91360000D02*
X166730000Y-91360000D01*
X166730000Y-88980000D01*
X171090000Y-88980000D01*
X171090000Y-91360000D01*
X171090000Y-91360000D01*
G37*
G36*
X169993418Y-83983444D02*
X170133281Y-83997219D01*
X170357596Y-84065265D01*
X170564327Y-84175764D01*
X170745528Y-84324472D01*
X170894236Y-84505673D01*
X171004735Y-84712404D01*
X171072781Y-84936719D01*
X171095757Y-85170000D01*
X171072781Y-85403281D01*
X171004735Y-85627596D01*
X170894236Y-85834327D01*
X170745528Y-86015528D01*
X170564327Y-86164236D01*
X170357596Y-86274735D01*
X170133281Y-86342781D01*
X169993418Y-86356556D01*
X169958453Y-86360000D01*
X167861547Y-86360000D01*
X167826582Y-86356556D01*
X167686719Y-86342781D01*
X167462404Y-86274735D01*
X167255673Y-86164236D01*
X167074472Y-86015528D01*
X166925764Y-85834327D01*
X166815265Y-85627596D01*
X166747219Y-85403281D01*
X166724243Y-85170000D01*
X166747219Y-84936719D01*
X166815265Y-84712404D01*
X166925764Y-84505673D01*
X167074472Y-84324472D01*
X167255673Y-84175764D01*
X167462404Y-84065265D01*
X167686719Y-83997219D01*
X167826582Y-83983444D01*
X167861547Y-83980000D01*
X169958453Y-83980000D01*
X169993418Y-83983444D01*
X169993418Y-83983444D01*
G37*
G36*
X220793418Y-83983444D02*
X220933281Y-83997219D01*
X221157596Y-84065265D01*
X221364327Y-84175764D01*
X221545528Y-84324472D01*
X221694236Y-84505673D01*
X221804735Y-84712404D01*
X221872781Y-84936719D01*
X221895757Y-85170000D01*
X221872781Y-85403281D01*
X221804735Y-85627596D01*
X221694236Y-85834327D01*
X221545528Y-86015528D01*
X221364327Y-86164236D01*
X221157596Y-86274735D01*
X220933281Y-86342781D01*
X220793418Y-86356556D01*
X220758453Y-86360000D01*
X218661547Y-86360000D01*
X218626582Y-86356556D01*
X218486719Y-86342781D01*
X218262404Y-86274735D01*
X218055673Y-86164236D01*
X217874472Y-86015528D01*
X217725764Y-85834327D01*
X217615265Y-85627596D01*
X217547219Y-85403281D01*
X217524243Y-85170000D01*
X217547219Y-84936719D01*
X217615265Y-84712404D01*
X217725764Y-84505673D01*
X217874472Y-84324472D01*
X218055673Y-84175764D01*
X218262404Y-84065265D01*
X218486719Y-83997219D01*
X218626582Y-83983444D01*
X218661547Y-83980000D01*
X220758453Y-83980000D01*
X220793418Y-83983444D01*
X220793418Y-83983444D01*
G37*
G36*
X221890000Y-79930000D02*
X217530000Y-79930000D01*
X217530000Y-77550000D01*
X221890000Y-77550000D01*
X221890000Y-79930000D01*
X221890000Y-79930000D01*
G37*
G36*
X171090000Y-79930000D02*
X166730000Y-79930000D01*
X166730000Y-77550000D01*
X171090000Y-77550000D01*
X171090000Y-79930000D01*
X171090000Y-79930000D01*
G37*
G36*
X204790857Y-74507272D02*
X204991042Y-74590191D01*
X205171213Y-74710578D01*
X205324422Y-74863787D01*
X205324424Y-74863790D01*
X205324425Y-74863791D01*
X205444807Y-75043955D01*
X205444809Y-75043958D01*
X205527728Y-75244143D01*
X205570000Y-75456658D01*
X205570000Y-75673342D01*
X205527728Y-75885857D01*
X205444809Y-76086042D01*
X205324422Y-76266213D01*
X205171213Y-76419422D01*
X204991042Y-76539809D01*
X204790857Y-76622728D01*
X204578342Y-76665000D01*
X204361658Y-76665000D01*
X204149143Y-76622728D01*
X203948958Y-76539809D01*
X203768787Y-76419422D01*
X203615578Y-76266213D01*
X203495191Y-76086042D01*
X203412272Y-75885857D01*
X203370000Y-75673342D01*
X203370000Y-75456658D01*
X203412272Y-75244143D01*
X203495191Y-75043958D01*
X203495193Y-75043955D01*
X203615575Y-74863791D01*
X203615576Y-74863790D01*
X203615578Y-74863787D01*
X203768787Y-74710578D01*
X203948958Y-74590191D01*
X204149143Y-74507272D01*
X204361658Y-74465000D01*
X204578342Y-74465000D01*
X204790857Y-74507272D01*
X204790857Y-74507272D01*
G37*
G36*
X202250857Y-74507272D02*
X202451042Y-74590191D01*
X202631213Y-74710578D01*
X202784422Y-74863787D01*
X202784424Y-74863790D01*
X202784425Y-74863791D01*
X202904807Y-75043955D01*
X202904809Y-75043958D01*
X202987728Y-75244143D01*
X203030000Y-75456658D01*
X203030000Y-75673342D01*
X202987728Y-75885857D01*
X202904809Y-76086042D01*
X202784422Y-76266213D01*
X202631213Y-76419422D01*
X202451042Y-76539809D01*
X202250857Y-76622728D01*
X202038342Y-76665000D01*
X201821658Y-76665000D01*
X201609143Y-76622728D01*
X201408958Y-76539809D01*
X201228787Y-76419422D01*
X201075578Y-76266213D01*
X200955191Y-76086042D01*
X200872272Y-75885857D01*
X200830000Y-75673342D01*
X200830000Y-75456658D01*
X200872272Y-75244143D01*
X200955191Y-75043958D01*
X200955193Y-75043955D01*
X201075575Y-74863791D01*
X201075576Y-74863790D01*
X201075578Y-74863787D01*
X201228787Y-74710578D01*
X201408958Y-74590191D01*
X201609143Y-74507272D01*
X201821658Y-74465000D01*
X202038342Y-74465000D01*
X202250857Y-74507272D01*
X202250857Y-74507272D01*
G37*
G36*
X199710857Y-74507272D02*
X199911042Y-74590191D01*
X200091213Y-74710578D01*
X200244422Y-74863787D01*
X200244424Y-74863790D01*
X200244425Y-74863791D01*
X200364807Y-75043955D01*
X200364809Y-75043958D01*
X200447728Y-75244143D01*
X200490000Y-75456658D01*
X200490000Y-75673342D01*
X200447728Y-75885857D01*
X200364809Y-76086042D01*
X200244422Y-76266213D01*
X200091213Y-76419422D01*
X199911042Y-76539809D01*
X199710857Y-76622728D01*
X199498342Y-76665000D01*
X199281658Y-76665000D01*
X199069143Y-76622728D01*
X198868958Y-76539809D01*
X198688787Y-76419422D01*
X198535578Y-76266213D01*
X198415191Y-76086042D01*
X198332272Y-75885857D01*
X198290000Y-75673342D01*
X198290000Y-75456658D01*
X198332272Y-75244143D01*
X198415191Y-75043958D01*
X198415193Y-75043955D01*
X198535575Y-74863791D01*
X198535576Y-74863790D01*
X198535578Y-74863787D01*
X198688787Y-74710578D01*
X198868958Y-74590191D01*
X199069143Y-74507272D01*
X199281658Y-74465000D01*
X199498342Y-74465000D01*
X199710857Y-74507272D01*
X199710857Y-74507272D01*
G37*
G36*
X189550857Y-74507272D02*
X189751042Y-74590191D01*
X189931213Y-74710578D01*
X190084422Y-74863787D01*
X190084424Y-74863790D01*
X190084425Y-74863791D01*
X190204807Y-75043955D01*
X190204809Y-75043958D01*
X190287728Y-75244143D01*
X190330000Y-75456658D01*
X190330000Y-75673342D01*
X190287728Y-75885857D01*
X190204809Y-76086042D01*
X190084422Y-76266213D01*
X189931213Y-76419422D01*
X189751042Y-76539809D01*
X189550857Y-76622728D01*
X189338342Y-76665000D01*
X189121658Y-76665000D01*
X188909143Y-76622728D01*
X188708958Y-76539809D01*
X188528787Y-76419422D01*
X188375578Y-76266213D01*
X188255191Y-76086042D01*
X188172272Y-75885857D01*
X188130000Y-75673342D01*
X188130000Y-75456658D01*
X188172272Y-75244143D01*
X188255191Y-75043958D01*
X188255193Y-75043955D01*
X188375575Y-74863791D01*
X188375576Y-74863790D01*
X188375578Y-74863787D01*
X188528787Y-74710578D01*
X188708958Y-74590191D01*
X188909143Y-74507272D01*
X189121658Y-74465000D01*
X189338342Y-74465000D01*
X189550857Y-74507272D01*
X189550857Y-74507272D01*
G37*
G36*
X187010857Y-74507272D02*
X187211042Y-74590191D01*
X187391213Y-74710578D01*
X187544422Y-74863787D01*
X187544424Y-74863790D01*
X187544425Y-74863791D01*
X187664807Y-75043955D01*
X187664809Y-75043958D01*
X187747728Y-75244143D01*
X187790000Y-75456658D01*
X187790000Y-75673342D01*
X187747728Y-75885857D01*
X187664809Y-76086042D01*
X187544422Y-76266213D01*
X187391213Y-76419422D01*
X187211042Y-76539809D01*
X187010857Y-76622728D01*
X186798342Y-76665000D01*
X186581658Y-76665000D01*
X186369143Y-76622728D01*
X186168958Y-76539809D01*
X185988787Y-76419422D01*
X185835578Y-76266213D01*
X185715191Y-76086042D01*
X185632272Y-75885857D01*
X185590000Y-75673342D01*
X185590000Y-75456658D01*
X185632272Y-75244143D01*
X185715191Y-75043958D01*
X185715193Y-75043955D01*
X185835575Y-74863791D01*
X185835576Y-74863790D01*
X185835578Y-74863787D01*
X185988787Y-74710578D01*
X186168958Y-74590191D01*
X186369143Y-74507272D01*
X186581658Y-74465000D01*
X186798342Y-74465000D01*
X187010857Y-74507272D01*
X187010857Y-74507272D01*
G37*
G36*
X143830857Y-74507272D02*
X144031042Y-74590191D01*
X144211213Y-74710578D01*
X144364422Y-74863787D01*
X144364424Y-74863790D01*
X144364425Y-74863791D01*
X144484807Y-75043955D01*
X144484809Y-75043958D01*
X144567728Y-75244143D01*
X144610000Y-75456658D01*
X144610000Y-75673342D01*
X144567728Y-75885857D01*
X144484809Y-76086042D01*
X144364422Y-76266213D01*
X144211213Y-76419422D01*
X144031042Y-76539809D01*
X143830857Y-76622728D01*
X143618342Y-76665000D01*
X143401658Y-76665000D01*
X143189143Y-76622728D01*
X142988958Y-76539809D01*
X142808787Y-76419422D01*
X142655578Y-76266213D01*
X142535191Y-76086042D01*
X142452272Y-75885857D01*
X142410000Y-75673342D01*
X142410000Y-75456658D01*
X142452272Y-75244143D01*
X142535191Y-75043958D01*
X142535193Y-75043955D01*
X142655575Y-74863791D01*
X142655576Y-74863790D01*
X142655578Y-74863787D01*
X142808787Y-74710578D01*
X142988958Y-74590191D01*
X143189143Y-74507272D01*
X143401658Y-74465000D01*
X143618342Y-74465000D01*
X143830857Y-74507272D01*
X143830857Y-74507272D01*
G37*
G36*
X194630857Y-74507272D02*
X194831042Y-74590191D01*
X195011213Y-74710578D01*
X195164422Y-74863787D01*
X195164424Y-74863790D01*
X195164425Y-74863791D01*
X195284807Y-75043955D01*
X195284809Y-75043958D01*
X195367728Y-75244143D01*
X195410000Y-75456658D01*
X195410000Y-75673342D01*
X195367728Y-75885857D01*
X195284809Y-76086042D01*
X195164422Y-76266213D01*
X195011213Y-76419422D01*
X194831042Y-76539809D01*
X194630857Y-76622728D01*
X194418342Y-76665000D01*
X194201658Y-76665000D01*
X193989143Y-76622728D01*
X193788958Y-76539809D01*
X193608787Y-76419422D01*
X193455578Y-76266213D01*
X193335191Y-76086042D01*
X193252272Y-75885857D01*
X193210000Y-75673342D01*
X193210000Y-75456658D01*
X193252272Y-75244143D01*
X193335191Y-75043958D01*
X193335193Y-75043955D01*
X193455575Y-74863791D01*
X193455576Y-74863790D01*
X193455578Y-74863787D01*
X193608787Y-74710578D01*
X193788958Y-74590191D01*
X193989143Y-74507272D01*
X194201658Y-74465000D01*
X194418342Y-74465000D01*
X194630857Y-74507272D01*
X194630857Y-74507272D01*
G37*
G36*
X197170857Y-74507272D02*
X197371042Y-74590191D01*
X197551213Y-74710578D01*
X197704422Y-74863787D01*
X197704424Y-74863790D01*
X197704425Y-74863791D01*
X197824807Y-75043955D01*
X197824809Y-75043958D01*
X197907728Y-75244143D01*
X197950000Y-75456658D01*
X197950000Y-75673342D01*
X197907728Y-75885857D01*
X197824809Y-76086042D01*
X197704422Y-76266213D01*
X197551213Y-76419422D01*
X197371042Y-76539809D01*
X197170857Y-76622728D01*
X196958342Y-76665000D01*
X196741658Y-76665000D01*
X196529143Y-76622728D01*
X196328958Y-76539809D01*
X196148787Y-76419422D01*
X195995578Y-76266213D01*
X195875191Y-76086042D01*
X195792272Y-75885857D01*
X195750000Y-75673342D01*
X195750000Y-75456658D01*
X195792272Y-75244143D01*
X195875191Y-75043958D01*
X195875193Y-75043955D01*
X195995575Y-74863791D01*
X195995576Y-74863790D01*
X195995578Y-74863787D01*
X196148787Y-74710578D01*
X196328958Y-74590191D01*
X196529143Y-74507272D01*
X196741658Y-74465000D01*
X196958342Y-74465000D01*
X197170857Y-74507272D01*
X197170857Y-74507272D01*
G37*
G36*
X153990857Y-74507272D02*
X154191042Y-74590191D01*
X154371213Y-74710578D01*
X154524422Y-74863787D01*
X154524424Y-74863790D01*
X154524425Y-74863791D01*
X154644807Y-75043955D01*
X154644809Y-75043958D01*
X154727728Y-75244143D01*
X154770000Y-75456658D01*
X154770000Y-75673342D01*
X154727728Y-75885857D01*
X154644809Y-76086042D01*
X154524422Y-76266213D01*
X154371213Y-76419422D01*
X154191042Y-76539809D01*
X153990857Y-76622728D01*
X153778342Y-76665000D01*
X153561658Y-76665000D01*
X153349143Y-76622728D01*
X153148958Y-76539809D01*
X152968787Y-76419422D01*
X152815578Y-76266213D01*
X152695191Y-76086042D01*
X152612272Y-75885857D01*
X152570000Y-75673342D01*
X152570000Y-75456658D01*
X152612272Y-75244143D01*
X152695191Y-75043958D01*
X152695193Y-75043955D01*
X152815575Y-74863791D01*
X152815576Y-74863790D01*
X152815578Y-74863787D01*
X152968787Y-74710578D01*
X153148958Y-74590191D01*
X153349143Y-74507272D01*
X153561658Y-74465000D01*
X153778342Y-74465000D01*
X153990857Y-74507272D01*
X153990857Y-74507272D01*
G37*
G36*
X138750857Y-74507272D02*
X138951042Y-74590191D01*
X139131213Y-74710578D01*
X139284422Y-74863787D01*
X139284424Y-74863790D01*
X139284425Y-74863791D01*
X139404807Y-75043955D01*
X139404809Y-75043958D01*
X139487728Y-75244143D01*
X139530000Y-75456658D01*
X139530000Y-75673342D01*
X139487728Y-75885857D01*
X139404809Y-76086042D01*
X139284422Y-76266213D01*
X139131213Y-76419422D01*
X138951042Y-76539809D01*
X138750857Y-76622728D01*
X138538342Y-76665000D01*
X138321658Y-76665000D01*
X138109143Y-76622728D01*
X137908958Y-76539809D01*
X137728787Y-76419422D01*
X137575578Y-76266213D01*
X137455191Y-76086042D01*
X137372272Y-75885857D01*
X137330000Y-75673342D01*
X137330000Y-75456658D01*
X137372272Y-75244143D01*
X137455191Y-75043958D01*
X137455193Y-75043955D01*
X137575575Y-74863791D01*
X137575576Y-74863790D01*
X137575578Y-74863787D01*
X137728787Y-74710578D01*
X137908958Y-74590191D01*
X138109143Y-74507272D01*
X138321658Y-74465000D01*
X138538342Y-74465000D01*
X138750857Y-74507272D01*
X138750857Y-74507272D01*
G37*
G36*
X151450857Y-74507272D02*
X151651042Y-74590191D01*
X151831213Y-74710578D01*
X151984422Y-74863787D01*
X151984424Y-74863790D01*
X151984425Y-74863791D01*
X152104807Y-75043955D01*
X152104809Y-75043958D01*
X152187728Y-75244143D01*
X152230000Y-75456658D01*
X152230000Y-75673342D01*
X152187728Y-75885857D01*
X152104809Y-76086042D01*
X151984422Y-76266213D01*
X151831213Y-76419422D01*
X151651042Y-76539809D01*
X151450857Y-76622728D01*
X151238342Y-76665000D01*
X151021658Y-76665000D01*
X150809143Y-76622728D01*
X150608958Y-76539809D01*
X150428787Y-76419422D01*
X150275578Y-76266213D01*
X150155191Y-76086042D01*
X150072272Y-75885857D01*
X150030000Y-75673342D01*
X150030000Y-75456658D01*
X150072272Y-75244143D01*
X150155191Y-75043958D01*
X150155193Y-75043955D01*
X150275575Y-74863791D01*
X150275576Y-74863790D01*
X150275578Y-74863787D01*
X150428787Y-74710578D01*
X150608958Y-74590191D01*
X150809143Y-74507272D01*
X151021658Y-74465000D01*
X151238342Y-74465000D01*
X151450857Y-74507272D01*
X151450857Y-74507272D01*
G37*
G36*
X141290857Y-74507272D02*
X141491042Y-74590191D01*
X141671213Y-74710578D01*
X141824422Y-74863787D01*
X141824424Y-74863790D01*
X141824425Y-74863791D01*
X141944807Y-75043955D01*
X141944809Y-75043958D01*
X142027728Y-75244143D01*
X142070000Y-75456658D01*
X142070000Y-75673342D01*
X142027728Y-75885857D01*
X141944809Y-76086042D01*
X141824422Y-76266213D01*
X141671213Y-76419422D01*
X141491042Y-76539809D01*
X141290857Y-76622728D01*
X141078342Y-76665000D01*
X140861658Y-76665000D01*
X140649143Y-76622728D01*
X140448958Y-76539809D01*
X140268787Y-76419422D01*
X140115578Y-76266213D01*
X139995191Y-76086042D01*
X139912272Y-75885857D01*
X139870000Y-75673342D01*
X139870000Y-75456658D01*
X139912272Y-75244143D01*
X139995191Y-75043958D01*
X139995193Y-75043955D01*
X140115575Y-74863791D01*
X140115576Y-74863790D01*
X140115578Y-74863787D01*
X140268787Y-74710578D01*
X140448958Y-74590191D01*
X140649143Y-74507272D01*
X140861658Y-74465000D01*
X141078342Y-74465000D01*
X141290857Y-74507272D01*
X141290857Y-74507272D01*
G37*
G36*
X148910857Y-74507272D02*
X149111042Y-74590191D01*
X149291213Y-74710578D01*
X149444422Y-74863787D01*
X149444424Y-74863790D01*
X149444425Y-74863791D01*
X149564807Y-75043955D01*
X149564809Y-75043958D01*
X149647728Y-75244143D01*
X149690000Y-75456658D01*
X149690000Y-75673342D01*
X149647728Y-75885857D01*
X149564809Y-76086042D01*
X149444422Y-76266213D01*
X149291213Y-76419422D01*
X149111042Y-76539809D01*
X148910857Y-76622728D01*
X148698342Y-76665000D01*
X148481658Y-76665000D01*
X148269143Y-76622728D01*
X148068958Y-76539809D01*
X147888787Y-76419422D01*
X147735578Y-76266213D01*
X147615191Y-76086042D01*
X147532272Y-75885857D01*
X147490000Y-75673342D01*
X147490000Y-75456658D01*
X147532272Y-75244143D01*
X147615191Y-75043958D01*
X147615193Y-75043955D01*
X147735575Y-74863791D01*
X147735576Y-74863790D01*
X147735578Y-74863787D01*
X147888787Y-74710578D01*
X148068958Y-74590191D01*
X148269143Y-74507272D01*
X148481658Y-74465000D01*
X148698342Y-74465000D01*
X148910857Y-74507272D01*
X148910857Y-74507272D01*
G37*
G36*
X146370857Y-74507272D02*
X146571042Y-74590191D01*
X146751213Y-74710578D01*
X146904422Y-74863787D01*
X146904424Y-74863790D01*
X146904425Y-74863791D01*
X147024807Y-75043955D01*
X147024809Y-75043958D01*
X147107728Y-75244143D01*
X147150000Y-75456658D01*
X147150000Y-75673342D01*
X147107728Y-75885857D01*
X147024809Y-76086042D01*
X146904422Y-76266213D01*
X146751213Y-76419422D01*
X146571042Y-76539809D01*
X146370857Y-76622728D01*
X146158342Y-76665000D01*
X145941658Y-76665000D01*
X145729143Y-76622728D01*
X145528958Y-76539809D01*
X145348787Y-76419422D01*
X145195578Y-76266213D01*
X145075191Y-76086042D01*
X144992272Y-75885857D01*
X144950000Y-75673342D01*
X144950000Y-75456658D01*
X144992272Y-75244143D01*
X145075191Y-75043958D01*
X145075193Y-75043955D01*
X145195575Y-74863791D01*
X145195576Y-74863790D01*
X145195578Y-74863787D01*
X145348787Y-74710578D01*
X145528958Y-74590191D01*
X145729143Y-74507272D01*
X145941658Y-74465000D01*
X146158342Y-74465000D01*
X146370857Y-74507272D01*
X146370857Y-74507272D01*
G37*
G36*
X192090857Y-74507272D02*
X192291042Y-74590191D01*
X192471213Y-74710578D01*
X192624422Y-74863787D01*
X192624424Y-74863790D01*
X192624425Y-74863791D01*
X192744807Y-75043955D01*
X192744809Y-75043958D01*
X192827728Y-75244143D01*
X192870000Y-75456658D01*
X192870000Y-75673342D01*
X192827728Y-75885857D01*
X192744809Y-76086042D01*
X192624422Y-76266213D01*
X192471213Y-76419422D01*
X192291042Y-76539809D01*
X192090857Y-76622728D01*
X191878342Y-76665000D01*
X191661658Y-76665000D01*
X191449143Y-76622728D01*
X191248958Y-76539809D01*
X191068787Y-76419422D01*
X190915578Y-76266213D01*
X190795191Y-76086042D01*
X190712272Y-75885857D01*
X190670000Y-75673342D01*
X190670000Y-75456658D01*
X190712272Y-75244143D01*
X190795191Y-75043958D01*
X190795193Y-75043955D01*
X190915575Y-74863791D01*
X190915576Y-74863790D01*
X190915578Y-74863787D01*
X191068787Y-74710578D01*
X191248958Y-74590191D01*
X191449143Y-74507272D01*
X191661658Y-74465000D01*
X191878342Y-74465000D01*
X192090857Y-74507272D01*
X192090857Y-74507272D01*
G37*
G36*
X136210857Y-74507272D02*
X136411042Y-74590191D01*
X136591213Y-74710578D01*
X136744422Y-74863787D01*
X136744424Y-74863790D01*
X136744425Y-74863791D01*
X136864807Y-75043955D01*
X136864809Y-75043958D01*
X136947728Y-75244143D01*
X136990000Y-75456658D01*
X136990000Y-75673342D01*
X136947728Y-75885857D01*
X136864809Y-76086042D01*
X136744422Y-76266213D01*
X136591213Y-76419422D01*
X136411042Y-76539809D01*
X136210857Y-76622728D01*
X135998342Y-76665000D01*
X135781658Y-76665000D01*
X135569143Y-76622728D01*
X135368958Y-76539809D01*
X135188787Y-76419422D01*
X135035578Y-76266213D01*
X134915191Y-76086042D01*
X134832272Y-75885857D01*
X134790000Y-75673342D01*
X134790000Y-75456658D01*
X134832272Y-75244143D01*
X134915191Y-75043958D01*
X134915193Y-75043955D01*
X135035575Y-74863791D01*
X135035576Y-74863790D01*
X135035578Y-74863787D01*
X135188787Y-74710578D01*
X135368958Y-74590191D01*
X135569143Y-74507272D01*
X135781658Y-74465000D01*
X135998342Y-74465000D01*
X136210857Y-74507272D01*
X136210857Y-74507272D01*
G37*
G36*
X220793418Y-72553444D02*
X220933281Y-72567219D01*
X221157596Y-72635265D01*
X221364327Y-72745764D01*
X221545528Y-72894472D01*
X221694236Y-73075673D01*
X221804735Y-73282404D01*
X221872781Y-73506719D01*
X221895757Y-73740000D01*
X221872781Y-73973281D01*
X221804735Y-74197596D01*
X221694236Y-74404327D01*
X221545528Y-74585528D01*
X221364327Y-74734236D01*
X221157596Y-74844735D01*
X220933281Y-74912781D01*
X220793418Y-74926556D01*
X220758453Y-74930000D01*
X218661547Y-74930000D01*
X218626582Y-74926556D01*
X218486719Y-74912781D01*
X218262404Y-74844735D01*
X218055673Y-74734236D01*
X217874472Y-74585528D01*
X217725764Y-74404327D01*
X217615265Y-74197596D01*
X217547219Y-73973281D01*
X217524243Y-73740000D01*
X217547219Y-73506719D01*
X217615265Y-73282404D01*
X217725764Y-73075673D01*
X217874472Y-72894472D01*
X218055673Y-72745764D01*
X218262404Y-72635265D01*
X218486719Y-72567219D01*
X218626582Y-72553444D01*
X218661547Y-72550000D01*
X220758453Y-72550000D01*
X220793418Y-72553444D01*
X220793418Y-72553444D01*
G37*
G36*
X169993418Y-72553444D02*
X170133281Y-72567219D01*
X170357596Y-72635265D01*
X170564327Y-72745764D01*
X170745528Y-72894472D01*
X170894236Y-73075673D01*
X171004735Y-73282404D01*
X171072781Y-73506719D01*
X171095757Y-73740000D01*
X171072781Y-73973281D01*
X171004735Y-74197596D01*
X170894236Y-74404327D01*
X170745528Y-74585528D01*
X170564327Y-74734236D01*
X170357596Y-74844735D01*
X170133281Y-74912781D01*
X169993418Y-74926556D01*
X169958453Y-74930000D01*
X167861547Y-74930000D01*
X167826582Y-74926556D01*
X167686719Y-74912781D01*
X167462404Y-74844735D01*
X167255673Y-74734236D01*
X167074472Y-74585528D01*
X166925764Y-74404327D01*
X166815265Y-74197596D01*
X166747219Y-73973281D01*
X166724243Y-73740000D01*
X166747219Y-73506719D01*
X166815265Y-73282404D01*
X166925764Y-73075673D01*
X167074472Y-72894472D01*
X167255673Y-72745764D01*
X167462404Y-72635265D01*
X167686719Y-72567219D01*
X167826582Y-72553444D01*
X167861547Y-72550000D01*
X169958453Y-72550000D01*
X169993418Y-72553444D01*
X169993418Y-72553444D01*
G37*
G36*
X151060000Y-72955000D02*
X148660000Y-72955000D01*
X148660000Y-68555000D01*
X151060000Y-68555000D01*
X151060000Y-72955000D01*
X151060000Y-72955000D01*
G37*
G36*
X201860000Y-72955000D02*
X199460000Y-72955000D01*
X199460000Y-68555000D01*
X201860000Y-68555000D01*
X201860000Y-72955000D01*
X201860000Y-72955000D01*
G37*
G36*
X181540000Y-72828000D02*
X179140000Y-72828000D01*
X179140000Y-68428000D01*
X181540000Y-68428000D01*
X181540000Y-72828000D01*
X181540000Y-72828000D01*
G37*
G36*
X130740000Y-72828000D02*
X128340000Y-72828000D01*
X128340000Y-68428000D01*
X130740000Y-68428000D01*
X130740000Y-72828000D01*
X130740000Y-72828000D01*
G37*
G36*
X208495639Y-67495916D02*
X208702986Y-67558815D01*
X208702988Y-67558816D01*
X208894084Y-67660958D01*
X209061581Y-67798419D01*
X209199042Y-67965916D01*
X209301184Y-68157012D01*
X209364084Y-68364362D01*
X209385322Y-68580000D01*
X209364084Y-68795638D01*
X209301184Y-69002988D01*
X209199042Y-69194084D01*
X209061581Y-69361581D01*
X208894084Y-69499042D01*
X208702988Y-69601184D01*
X208702986Y-69601185D01*
X208495639Y-69664084D01*
X208334038Y-69680000D01*
X208225962Y-69680000D01*
X208064361Y-69664084D01*
X207857014Y-69601185D01*
X207857012Y-69601184D01*
X207665916Y-69499042D01*
X207498419Y-69361581D01*
X207360958Y-69194084D01*
X207258816Y-69002988D01*
X207195916Y-68795638D01*
X207174678Y-68580000D01*
X207195916Y-68364362D01*
X207258816Y-68157012D01*
X207360958Y-67965916D01*
X207498419Y-67798419D01*
X207665916Y-67660958D01*
X207857012Y-67558816D01*
X207857014Y-67558815D01*
X208064361Y-67495916D01*
X208225962Y-67480000D01*
X208334038Y-67480000D01*
X208495639Y-67495916D01*
X208495639Y-67495916D01*
G37*
G36*
X157695639Y-67495916D02*
X157902986Y-67558815D01*
X157902988Y-67558816D01*
X158094084Y-67660958D01*
X158261581Y-67798419D01*
X158399042Y-67965916D01*
X158501184Y-68157012D01*
X158564084Y-68364362D01*
X158585322Y-68580000D01*
X158564084Y-68795638D01*
X158501184Y-69002988D01*
X158399042Y-69194084D01*
X158261581Y-69361581D01*
X158094084Y-69499042D01*
X157902988Y-69601184D01*
X157902986Y-69601185D01*
X157695639Y-69664084D01*
X157534038Y-69680000D01*
X157425962Y-69680000D01*
X157264361Y-69664084D01*
X157057014Y-69601185D01*
X157057012Y-69601184D01*
X156865916Y-69499042D01*
X156698419Y-69361581D01*
X156560958Y-69194084D01*
X156458816Y-69002988D01*
X156395916Y-68795638D01*
X156374678Y-68580000D01*
X156395916Y-68364362D01*
X156458816Y-68157012D01*
X156560958Y-67965916D01*
X156698419Y-67798419D01*
X156865916Y-67660958D01*
X157057012Y-67558816D01*
X157057014Y-67558815D01*
X157264361Y-67495916D01*
X157425962Y-67480000D01*
X157534038Y-67480000D01*
X157695639Y-67495916D01*
X157695639Y-67495916D01*
G37*
G36*
X171090000Y-68500000D02*
X166730000Y-68500000D01*
X166730000Y-66120000D01*
X171090000Y-66120000D01*
X171090000Y-68500000D01*
X171090000Y-68500000D01*
G37*
G36*
X221890000Y-68500000D02*
X217530000Y-68500000D01*
X217530000Y-66120000D01*
X221890000Y-66120000D01*
X221890000Y-68500000D01*
X221890000Y-68500000D01*
G37*
G36*
X181540000Y-63525000D02*
X179140000Y-63525000D01*
X179140000Y-59125000D01*
X181540000Y-59125000D01*
X181540000Y-63525000D01*
X181540000Y-63525000D01*
G37*
G36*
X130740000Y-63525000D02*
X128340000Y-63525000D01*
X128340000Y-59125000D01*
X130740000Y-59125000D01*
X130740000Y-63525000D01*
X130740000Y-63525000D01*
G37*
G36*
X151060000Y-63525000D02*
X148660000Y-63525000D01*
X148660000Y-59125000D01*
X151060000Y-59125000D01*
X151060000Y-63525000D01*
X151060000Y-63525000D01*
G37*
G36*
X201860000Y-63525000D02*
X199460000Y-63525000D01*
X199460000Y-59125000D01*
X201860000Y-59125000D01*
X201860000Y-63525000D01*
X201860000Y-63525000D01*
G37*
G36*
X220793418Y-61123444D02*
X220933281Y-61137219D01*
X221157596Y-61205265D01*
X221364327Y-61315764D01*
X221545528Y-61464472D01*
X221694236Y-61645673D01*
X221804735Y-61852404D01*
X221872781Y-62076719D01*
X221895757Y-62310000D01*
X221872781Y-62543281D01*
X221804735Y-62767596D01*
X221694236Y-62974327D01*
X221545528Y-63155528D01*
X221364327Y-63304236D01*
X221157596Y-63414735D01*
X220933281Y-63482781D01*
X220793418Y-63496556D01*
X220758453Y-63500000D01*
X218661547Y-63500000D01*
X218626582Y-63496556D01*
X218486719Y-63482781D01*
X218262404Y-63414735D01*
X218055673Y-63304236D01*
X217874472Y-63155528D01*
X217725764Y-62974327D01*
X217615265Y-62767596D01*
X217547219Y-62543281D01*
X217524243Y-62310000D01*
X217547219Y-62076719D01*
X217615265Y-61852404D01*
X217725764Y-61645673D01*
X217874472Y-61464472D01*
X218055673Y-61315764D01*
X218262404Y-61205265D01*
X218486719Y-61137219D01*
X218626582Y-61123444D01*
X218661547Y-61120000D01*
X220758453Y-61120000D01*
X220793418Y-61123444D01*
X220793418Y-61123444D01*
G37*
G36*
X169993418Y-61123444D02*
X170133281Y-61137219D01*
X170357596Y-61205265D01*
X170564327Y-61315764D01*
X170745528Y-61464472D01*
X170894236Y-61645673D01*
X171004735Y-61852404D01*
X171072781Y-62076719D01*
X171095757Y-62310000D01*
X171072781Y-62543281D01*
X171004735Y-62767596D01*
X170894236Y-62974327D01*
X170745528Y-63155528D01*
X170564327Y-63304236D01*
X170357596Y-63414735D01*
X170133281Y-63482781D01*
X169993418Y-63496556D01*
X169958453Y-63500000D01*
X167861547Y-63500000D01*
X167826582Y-63496556D01*
X167686719Y-63482781D01*
X167462404Y-63414735D01*
X167255673Y-63304236D01*
X167074472Y-63155528D01*
X166925764Y-62974327D01*
X166815265Y-62767596D01*
X166747219Y-62543281D01*
X166724243Y-62310000D01*
X166747219Y-62076719D01*
X166815265Y-61852404D01*
X166925764Y-61645673D01*
X167074472Y-61464472D01*
X167255673Y-61315764D01*
X167462404Y-61205265D01*
X167686719Y-61137219D01*
X167826582Y-61123444D01*
X167861547Y-61120000D01*
X169958453Y-61120000D01*
X169993418Y-61123444D01*
X169993418Y-61123444D01*
G37*
G36*
X209380000Y-62060000D02*
X207180000Y-62060000D01*
X207180000Y-59860000D01*
X209380000Y-59860000D01*
X209380000Y-62060000D01*
X209380000Y-62060000D01*
G37*
G36*
X158580000Y-62060000D02*
X156380000Y-62060000D01*
X156380000Y-59860000D01*
X158580000Y-59860000D01*
X158580000Y-62060000D01*
X158580000Y-62060000D01*
G37*
M02*
