G04 #@! TF.GenerationSoftware,KiCad,Pcbnew,5.0.1*
G04 #@! TF.CreationDate,2019-02-07T17:41:49+01:00*
G04 #@! TF.ProjectId,wasserschaden,7761737365727363686164656E2E6B69,rev?*
G04 #@! TF.SameCoordinates,Original*
G04 #@! TF.FileFunction,Legend,Bot*
G04 #@! TF.FilePolarity,Positive*
%FSLAX46Y46*%
G04 Gerber Fmt 4.6, Leading zero omitted, Abs format (unit mm)*
G04 Created by KiCad (PCBNEW 5.0.1) date Do 07 Feb 2019 17:41:49 CET*
%MOMM*%
%LPD*%
G01*
G04 APERTURE LIST*
%ADD10C,5.000000*%
%ADD11C,0.300000*%
G04 APERTURE END LIST*
D10*
X143828571Y-77788571D02*
X143828571Y-104455238D01*
X154542857Y-62550476D02*
X165257142Y-91121904D01*
X137400000Y-91121904D01*
D11*
X174668571Y-60180000D02*
X173668571Y-60180000D01*
X173811428Y-60180000D02*
X173740000Y-60251428D01*
X173668571Y-60394285D01*
X173668571Y-60608571D01*
X173740000Y-60751428D01*
X173882857Y-60822857D01*
X174668571Y-60822857D01*
X173882857Y-60822857D02*
X173740000Y-60894285D01*
X173668571Y-61037142D01*
X173668571Y-61251428D01*
X173740000Y-61394285D01*
X173882857Y-61465714D01*
X174668571Y-61465714D01*
X174668571Y-62822857D02*
X173882857Y-62822857D01*
X173740000Y-62751428D01*
X173668571Y-62608571D01*
X173668571Y-62322857D01*
X173740000Y-62180000D01*
X174597142Y-62822857D02*
X174668571Y-62680000D01*
X174668571Y-62322857D01*
X174597142Y-62180000D01*
X174454285Y-62108571D01*
X174311428Y-62108571D01*
X174168571Y-62180000D01*
X174097142Y-62322857D01*
X174097142Y-62680000D01*
X174025714Y-62822857D01*
X174668571Y-64180000D02*
X173168571Y-64180000D01*
X174597142Y-64180000D02*
X174668571Y-64037142D01*
X174668571Y-63751428D01*
X174597142Y-63608571D01*
X174525714Y-63537142D01*
X174382857Y-63465714D01*
X173954285Y-63465714D01*
X173811428Y-63537142D01*
X173740000Y-63608571D01*
X173668571Y-63751428D01*
X173668571Y-64037142D01*
X173740000Y-64180000D01*
X174597142Y-65465714D02*
X174668571Y-65322857D01*
X174668571Y-65037142D01*
X174597142Y-64894285D01*
X174454285Y-64822857D01*
X173882857Y-64822857D01*
X173740000Y-64894285D01*
X173668571Y-65037142D01*
X173668571Y-65322857D01*
X173740000Y-65465714D01*
X173882857Y-65537142D01*
X174025714Y-65537142D01*
X174168571Y-64822857D01*
X174668571Y-67322857D02*
X173168571Y-67322857D01*
X173740000Y-67322857D02*
X173668571Y-67465714D01*
X173668571Y-67751428D01*
X173740000Y-67894285D01*
X173811428Y-67965714D01*
X173954285Y-68037142D01*
X174382857Y-68037142D01*
X174525714Y-67965714D01*
X174597142Y-67894285D01*
X174668571Y-67751428D01*
X174668571Y-67465714D01*
X174597142Y-67322857D01*
X173668571Y-68537142D02*
X174668571Y-68894285D01*
X173668571Y-69251428D02*
X174668571Y-68894285D01*
X175025714Y-68751428D01*
X175097142Y-68680000D01*
X175168571Y-68537142D01*
X174668571Y-70965714D02*
X173168571Y-70965714D01*
X174668571Y-71608571D02*
X173882857Y-71608571D01*
X173740000Y-71537142D01*
X173668571Y-71394285D01*
X173668571Y-71180000D01*
X173740000Y-71037142D01*
X173811428Y-70965714D01*
X173668571Y-72965714D02*
X174668571Y-72965714D01*
X173668571Y-72322857D02*
X174454285Y-72322857D01*
X174597142Y-72394285D01*
X174668571Y-72537142D01*
X174668571Y-72751428D01*
X174597142Y-72894285D01*
X174525714Y-72965714D01*
X174668571Y-73680000D02*
X173668571Y-73680000D01*
X173811428Y-73680000D02*
X173740000Y-73751428D01*
X173668571Y-73894285D01*
X173668571Y-74108571D01*
X173740000Y-74251428D01*
X173882857Y-74322857D01*
X174668571Y-74322857D01*
X173882857Y-74322857D02*
X173740000Y-74394285D01*
X173668571Y-74537142D01*
X173668571Y-74751428D01*
X173740000Y-74894285D01*
X173882857Y-74965714D01*
X174668571Y-74965714D01*
X174668571Y-76322857D02*
X173882857Y-76322857D01*
X173740000Y-76251428D01*
X173668571Y-76108571D01*
X173668571Y-75822857D01*
X173740000Y-75680000D01*
X174597142Y-76322857D02*
X174668571Y-76180000D01*
X174668571Y-75822857D01*
X174597142Y-75680000D01*
X174454285Y-75608571D01*
X174311428Y-75608571D01*
X174168571Y-75680000D01*
X174097142Y-75822857D01*
X174097142Y-76180000D01*
X174025714Y-76322857D01*
X173668571Y-77037142D02*
X174668571Y-77037142D01*
X173811428Y-77037142D02*
X173740000Y-77108571D01*
X173668571Y-77251428D01*
X173668571Y-77465714D01*
X173740000Y-77608571D01*
X173882857Y-77680000D01*
X174668571Y-77680000D01*
X174597142Y-78322857D02*
X174668571Y-78465714D01*
X174668571Y-78751428D01*
X174597142Y-78894285D01*
X174454285Y-78965714D01*
X174382857Y-78965714D01*
X174240000Y-78894285D01*
X174168571Y-78751428D01*
X174168571Y-78537142D01*
X174097142Y-78394285D01*
X173954285Y-78322857D01*
X173882857Y-78322857D01*
X173740000Y-78394285D01*
X173668571Y-78537142D01*
X173668571Y-78751428D01*
X173740000Y-78894285D01*
X174668571Y-80965714D02*
X174597142Y-80822857D01*
X174525714Y-80751428D01*
X174382857Y-80680000D01*
X173954285Y-80680000D01*
X173811428Y-80751428D01*
X173740000Y-80822857D01*
X173668571Y-80965714D01*
X173668571Y-81180000D01*
X173740000Y-81322857D01*
X173811428Y-81394285D01*
X173954285Y-81465714D01*
X174382857Y-81465714D01*
X174525714Y-81394285D01*
X174597142Y-81322857D01*
X174668571Y-81180000D01*
X174668571Y-80965714D01*
X173668571Y-82108571D02*
X174668571Y-82108571D01*
X173811428Y-82108571D02*
X173740000Y-82180000D01*
X173668571Y-82322857D01*
X173668571Y-82537142D01*
X173740000Y-82680000D01*
X173882857Y-82751428D01*
X174668571Y-82751428D01*
X174597142Y-85180000D02*
X174668571Y-85037142D01*
X174668571Y-84751428D01*
X174597142Y-84608571D01*
X174454285Y-84537142D01*
X173882857Y-84537142D01*
X173740000Y-84608571D01*
X173668571Y-84751428D01*
X173668571Y-85037142D01*
X173740000Y-85180000D01*
X173882857Y-85251428D01*
X174025714Y-85251428D01*
X174168571Y-84537142D01*
X174668571Y-86537142D02*
X173882857Y-86537142D01*
X173740000Y-86465714D01*
X173668571Y-86322857D01*
X173668571Y-86037142D01*
X173740000Y-85894285D01*
X174597142Y-86537142D02*
X174668571Y-86394285D01*
X174668571Y-86037142D01*
X174597142Y-85894285D01*
X174454285Y-85822857D01*
X174311428Y-85822857D01*
X174168571Y-85894285D01*
X174097142Y-86037142D01*
X174097142Y-86394285D01*
X174025714Y-86537142D01*
X174668571Y-87251428D02*
X173668571Y-87251428D01*
X173954285Y-87251428D02*
X173811428Y-87322857D01*
X173740000Y-87394285D01*
X173668571Y-87537142D01*
X173668571Y-87680000D01*
X173668571Y-87965714D02*
X173668571Y-88537142D01*
X173168571Y-88180000D02*
X174454285Y-88180000D01*
X174597142Y-88251428D01*
X174668571Y-88394285D01*
X174668571Y-88537142D01*
X174668571Y-89037142D02*
X173168571Y-89037142D01*
X174668571Y-89680000D02*
X173882857Y-89680000D01*
X173740000Y-89608571D01*
X173668571Y-89465714D01*
X173668571Y-89251428D01*
X173740000Y-89108571D01*
X173811428Y-89037142D01*
M02*
