G04 #@! TF.GenerationSoftware,KiCad,Pcbnew,5.0.1*
G04 #@! TF.CreationDate,2019-02-07T17:41:49+01:00*
G04 #@! TF.ProjectId,wasserschaden,7761737365727363686164656E2E6B69,rev?*
G04 #@! TF.SameCoordinates,Original*
G04 #@! TF.FileFunction,Soldermask,Bot*
G04 #@! TF.FilePolarity,Negative*
%FSLAX46Y46*%
G04 Gerber Fmt 4.6, Leading zero omitted, Abs format (unit mm)*
G04 Created by KiCad (PCBNEW 5.0.1) date Do 07 Feb 2019 17:41:49 CET*
%MOMM*%
%LPD*%
G01*
G04 APERTURE LIST*
%ADD10C,0.100000*%
G04 APERTURE END LIST*
D10*
G36*
X129228030Y-104424469D02*
X129228033Y-104424470D01*
X129228034Y-104424470D01*
X129416535Y-104481651D01*
X129416537Y-104481652D01*
X129590260Y-104574509D01*
X129742528Y-104699472D01*
X129867491Y-104851740D01*
X129867492Y-104851742D01*
X129960349Y-105025465D01*
X129987451Y-105114809D01*
X130017531Y-105213970D01*
X130036838Y-105410000D01*
X130017531Y-105606030D01*
X129960348Y-105794537D01*
X129867491Y-105968260D01*
X129742528Y-106120528D01*
X129590260Y-106245491D01*
X129590258Y-106245492D01*
X129416535Y-106338349D01*
X129228034Y-106395530D01*
X129228033Y-106395530D01*
X129228030Y-106395531D01*
X129081124Y-106410000D01*
X128982876Y-106410000D01*
X128835970Y-106395531D01*
X128835967Y-106395530D01*
X128835966Y-106395530D01*
X128647465Y-106338349D01*
X128473742Y-106245492D01*
X128473740Y-106245491D01*
X128321472Y-106120528D01*
X128196509Y-105968260D01*
X128103652Y-105794537D01*
X128046469Y-105606030D01*
X128027162Y-105410000D01*
X128046469Y-105213970D01*
X128076549Y-105114809D01*
X128103651Y-105025465D01*
X128196508Y-104851742D01*
X128196509Y-104851740D01*
X128321472Y-104699472D01*
X128473740Y-104574509D01*
X128647463Y-104481652D01*
X128647465Y-104481651D01*
X128835966Y-104424470D01*
X128835967Y-104424470D01*
X128835970Y-104424469D01*
X128982876Y-104410000D01*
X129081124Y-104410000D01*
X129228030Y-104424469D01*
X129228030Y-104424469D01*
G37*
G36*
X136827770Y-104425372D02*
X136943689Y-104448429D01*
X137125678Y-104523811D01*
X137289463Y-104633249D01*
X137428751Y-104772537D01*
X137538189Y-104936322D01*
X137613571Y-105118311D01*
X137652000Y-105311509D01*
X137652000Y-105508491D01*
X137613571Y-105701689D01*
X137538189Y-105883678D01*
X137428751Y-106047463D01*
X137289463Y-106186751D01*
X137125678Y-106296189D01*
X136943689Y-106371571D01*
X136827770Y-106394628D01*
X136750493Y-106410000D01*
X136553507Y-106410000D01*
X136476230Y-106394628D01*
X136360311Y-106371571D01*
X136178322Y-106296189D01*
X136014537Y-106186751D01*
X135875249Y-106047463D01*
X135765811Y-105883678D01*
X135690429Y-105701689D01*
X135652000Y-105508491D01*
X135652000Y-105311509D01*
X135690429Y-105118311D01*
X135765811Y-104936322D01*
X135875249Y-104772537D01*
X136014537Y-104633249D01*
X136178322Y-104523811D01*
X136360311Y-104448429D01*
X136476230Y-104425372D01*
X136553507Y-104410000D01*
X136750493Y-104410000D01*
X136827770Y-104425372D01*
X136827770Y-104425372D01*
G37*
G36*
X158692030Y-104424469D02*
X158692033Y-104424470D01*
X158692034Y-104424470D01*
X158880535Y-104481651D01*
X158880537Y-104481652D01*
X159054260Y-104574509D01*
X159206528Y-104699472D01*
X159331491Y-104851740D01*
X159331492Y-104851742D01*
X159424349Y-105025465D01*
X159451451Y-105114809D01*
X159481531Y-105213970D01*
X159500838Y-105410000D01*
X159481531Y-105606030D01*
X159424348Y-105794537D01*
X159331491Y-105968260D01*
X159206528Y-106120528D01*
X159054260Y-106245491D01*
X159054258Y-106245492D01*
X158880535Y-106338349D01*
X158692034Y-106395530D01*
X158692033Y-106395530D01*
X158692030Y-106395531D01*
X158545124Y-106410000D01*
X158446876Y-106410000D01*
X158299970Y-106395531D01*
X158299967Y-106395530D01*
X158299966Y-106395530D01*
X158111465Y-106338349D01*
X157937742Y-106245492D01*
X157937740Y-106245491D01*
X157785472Y-106120528D01*
X157660509Y-105968260D01*
X157567652Y-105794537D01*
X157510469Y-105606030D01*
X157491162Y-105410000D01*
X157510469Y-105213970D01*
X157540549Y-105114809D01*
X157567651Y-105025465D01*
X157660508Y-104851742D01*
X157660509Y-104851740D01*
X157785472Y-104699472D01*
X157937740Y-104574509D01*
X158111463Y-104481652D01*
X158111465Y-104481651D01*
X158299966Y-104424470D01*
X158299967Y-104424470D01*
X158299970Y-104424469D01*
X158446876Y-104410000D01*
X158545124Y-104410000D01*
X158692030Y-104424469D01*
X158692030Y-104424469D01*
G37*
G36*
X140150030Y-104424469D02*
X140150033Y-104424470D01*
X140150034Y-104424470D01*
X140338535Y-104481651D01*
X140338537Y-104481652D01*
X140512260Y-104574509D01*
X140664528Y-104699472D01*
X140789491Y-104851740D01*
X140789492Y-104851742D01*
X140882349Y-105025465D01*
X140909451Y-105114809D01*
X140939531Y-105213970D01*
X140958838Y-105410000D01*
X140939531Y-105606030D01*
X140882348Y-105794537D01*
X140789491Y-105968260D01*
X140664528Y-106120528D01*
X140512260Y-106245491D01*
X140512258Y-106245492D01*
X140338535Y-106338349D01*
X140150034Y-106395530D01*
X140150033Y-106395530D01*
X140150030Y-106395531D01*
X140003124Y-106410000D01*
X139904876Y-106410000D01*
X139757970Y-106395531D01*
X139757967Y-106395530D01*
X139757966Y-106395530D01*
X139569465Y-106338349D01*
X139395742Y-106245492D01*
X139395740Y-106245491D01*
X139243472Y-106120528D01*
X139118509Y-105968260D01*
X139025652Y-105794537D01*
X138968469Y-105606030D01*
X138949162Y-105410000D01*
X138968469Y-105213970D01*
X138998549Y-105114809D01*
X139025651Y-105025465D01*
X139118508Y-104851742D01*
X139118509Y-104851740D01*
X139243472Y-104699472D01*
X139395740Y-104574509D01*
X139569463Y-104481652D01*
X139569465Y-104481651D01*
X139757966Y-104424470D01*
X139757967Y-104424470D01*
X139757970Y-104424469D01*
X139904876Y-104410000D01*
X140003124Y-104410000D01*
X140150030Y-104424469D01*
X140150030Y-104424469D01*
G37*
G36*
X147749770Y-104425372D02*
X147865689Y-104448429D01*
X148047678Y-104523811D01*
X148211463Y-104633249D01*
X148350751Y-104772537D01*
X148460189Y-104936322D01*
X148535571Y-105118311D01*
X148574000Y-105311509D01*
X148574000Y-105508491D01*
X148535571Y-105701689D01*
X148460189Y-105883678D01*
X148350751Y-106047463D01*
X148211463Y-106186751D01*
X148047678Y-106296189D01*
X147865689Y-106371571D01*
X147749770Y-106394628D01*
X147672493Y-106410000D01*
X147475507Y-106410000D01*
X147398230Y-106394628D01*
X147282311Y-106371571D01*
X147100322Y-106296189D01*
X146936537Y-106186751D01*
X146797249Y-106047463D01*
X146687811Y-105883678D01*
X146612429Y-105701689D01*
X146574000Y-105508491D01*
X146574000Y-105311509D01*
X146612429Y-105118311D01*
X146687811Y-104936322D01*
X146797249Y-104772537D01*
X146936537Y-104633249D01*
X147100322Y-104523811D01*
X147282311Y-104448429D01*
X147398230Y-104425372D01*
X147475507Y-104410000D01*
X147672493Y-104410000D01*
X147749770Y-104425372D01*
X147749770Y-104425372D01*
G37*
G36*
X151051770Y-104425372D02*
X151167689Y-104448429D01*
X151349678Y-104523811D01*
X151513463Y-104633249D01*
X151652751Y-104772537D01*
X151762189Y-104936322D01*
X151837571Y-105118311D01*
X151876000Y-105311509D01*
X151876000Y-105508491D01*
X151837571Y-105701689D01*
X151762189Y-105883678D01*
X151652751Y-106047463D01*
X151513463Y-106186751D01*
X151349678Y-106296189D01*
X151167689Y-106371571D01*
X151051770Y-106394628D01*
X150974493Y-106410000D01*
X150777507Y-106410000D01*
X150700230Y-106394628D01*
X150584311Y-106371571D01*
X150402322Y-106296189D01*
X150238537Y-106186751D01*
X150099249Y-106047463D01*
X149989811Y-105883678D01*
X149914429Y-105701689D01*
X149876000Y-105508491D01*
X149876000Y-105311509D01*
X149914429Y-105118311D01*
X149989811Y-104936322D01*
X150099249Y-104772537D01*
X150238537Y-104633249D01*
X150402322Y-104523811D01*
X150584311Y-104448429D01*
X150700230Y-104425372D01*
X150777507Y-104410000D01*
X150974493Y-104410000D01*
X151051770Y-104425372D01*
X151051770Y-104425372D01*
G37*
G36*
X168105000Y-105240000D02*
X165905000Y-105240000D01*
X165905000Y-103040000D01*
X168105000Y-103040000D01*
X168105000Y-105240000D01*
X168105000Y-105240000D01*
G37*
G36*
X173185000Y-105240000D02*
X170985000Y-105240000D01*
X170985000Y-103040000D01*
X173185000Y-103040000D01*
X173185000Y-105240000D01*
X173185000Y-105240000D01*
G37*
G36*
X174945857Y-103082272D02*
X175146042Y-103165191D01*
X175326213Y-103285578D01*
X175479422Y-103438787D01*
X175599809Y-103618958D01*
X175682728Y-103819143D01*
X175725000Y-104031658D01*
X175725000Y-104248342D01*
X175682728Y-104460857D01*
X175599809Y-104661042D01*
X175479422Y-104841213D01*
X175326213Y-104994422D01*
X175146042Y-105114809D01*
X174945857Y-105197728D01*
X174733342Y-105240000D01*
X174516658Y-105240000D01*
X174304143Y-105197728D01*
X174103958Y-105114809D01*
X173923787Y-104994422D01*
X173770578Y-104841213D01*
X173650191Y-104661042D01*
X173567272Y-104460857D01*
X173525000Y-104248342D01*
X173525000Y-104031658D01*
X173567272Y-103819143D01*
X173650191Y-103618958D01*
X173770578Y-103438787D01*
X173923787Y-103285578D01*
X174103958Y-103165191D01*
X174304143Y-103082272D01*
X174516658Y-103040000D01*
X174733342Y-103040000D01*
X174945857Y-103082272D01*
X174945857Y-103082272D01*
G37*
G36*
X163025000Y-105240000D02*
X160825000Y-105240000D01*
X160825000Y-103040000D01*
X163025000Y-103040000D01*
X163025000Y-105240000D01*
X163025000Y-105240000D01*
G37*
G36*
X164785857Y-103082272D02*
X164986042Y-103165191D01*
X165166213Y-103285578D01*
X165319422Y-103438787D01*
X165439809Y-103618958D01*
X165522728Y-103819143D01*
X165565000Y-104031658D01*
X165565000Y-104248342D01*
X165522728Y-104460857D01*
X165439809Y-104661042D01*
X165319422Y-104841213D01*
X165166213Y-104994422D01*
X164986042Y-105114809D01*
X164785857Y-105197728D01*
X164573342Y-105240000D01*
X164356658Y-105240000D01*
X164144143Y-105197728D01*
X163943958Y-105114809D01*
X163763787Y-104994422D01*
X163610578Y-104841213D01*
X163490191Y-104661042D01*
X163407272Y-104460857D01*
X163365000Y-104248342D01*
X163365000Y-104031658D01*
X163407272Y-103819143D01*
X163490191Y-103618958D01*
X163610578Y-103438787D01*
X163763787Y-103285578D01*
X163943958Y-103165191D01*
X164144143Y-103082272D01*
X164356658Y-103040000D01*
X164573342Y-103040000D01*
X164785857Y-103082272D01*
X164785857Y-103082272D01*
G37*
G36*
X169865857Y-103082272D02*
X170066042Y-103165191D01*
X170246213Y-103285578D01*
X170399422Y-103438787D01*
X170519809Y-103618958D01*
X170602728Y-103819143D01*
X170645000Y-104031658D01*
X170645000Y-104248342D01*
X170602728Y-104460857D01*
X170519809Y-104661042D01*
X170399422Y-104841213D01*
X170246213Y-104994422D01*
X170066042Y-105114809D01*
X169865857Y-105197728D01*
X169653342Y-105240000D01*
X169436658Y-105240000D01*
X169224143Y-105197728D01*
X169023958Y-105114809D01*
X168843787Y-104994422D01*
X168690578Y-104841213D01*
X168570191Y-104661042D01*
X168487272Y-104460857D01*
X168445000Y-104248342D01*
X168445000Y-104031658D01*
X168487272Y-103819143D01*
X168570191Y-103618958D01*
X168690578Y-103438787D01*
X168843787Y-103285578D01*
X169023958Y-103165191D01*
X169224143Y-103082272D01*
X169436658Y-103040000D01*
X169653342Y-103040000D01*
X169865857Y-103082272D01*
X169865857Y-103082272D01*
G37*
G36*
X147770030Y-101122469D02*
X147770033Y-101122470D01*
X147770034Y-101122470D01*
X147958535Y-101179651D01*
X147958537Y-101179652D01*
X148132260Y-101272509D01*
X148284528Y-101397472D01*
X148409491Y-101549740D01*
X148502348Y-101723463D01*
X148559531Y-101911970D01*
X148578838Y-102108000D01*
X148559531Y-102304030D01*
X148502348Y-102492537D01*
X148409491Y-102666260D01*
X148284528Y-102818528D01*
X148132260Y-102943491D01*
X148132258Y-102943492D01*
X147958535Y-103036349D01*
X147770034Y-103093530D01*
X147770033Y-103093530D01*
X147770030Y-103093531D01*
X147623124Y-103108000D01*
X147524876Y-103108000D01*
X147377970Y-103093531D01*
X147377967Y-103093530D01*
X147377966Y-103093530D01*
X147189465Y-103036349D01*
X147015742Y-102943492D01*
X147015740Y-102943491D01*
X146863472Y-102818528D01*
X146738509Y-102666260D01*
X146645652Y-102492537D01*
X146588469Y-102304030D01*
X146569162Y-102108000D01*
X146588469Y-101911970D01*
X146645652Y-101723463D01*
X146738509Y-101549740D01*
X146863472Y-101397472D01*
X147015740Y-101272509D01*
X147189463Y-101179652D01*
X147189465Y-101179651D01*
X147377966Y-101122470D01*
X147377967Y-101122470D01*
X147377970Y-101122469D01*
X147524876Y-101108000D01*
X147623124Y-101108000D01*
X147770030Y-101122469D01*
X147770030Y-101122469D01*
G37*
G36*
X129228030Y-101122469D02*
X129228033Y-101122470D01*
X129228034Y-101122470D01*
X129416535Y-101179651D01*
X129416537Y-101179652D01*
X129590260Y-101272509D01*
X129742528Y-101397472D01*
X129867491Y-101549740D01*
X129960348Y-101723463D01*
X130017531Y-101911970D01*
X130036838Y-102108000D01*
X130017531Y-102304030D01*
X129960348Y-102492537D01*
X129867491Y-102666260D01*
X129742528Y-102818528D01*
X129590260Y-102943491D01*
X129590258Y-102943492D01*
X129416535Y-103036349D01*
X129228034Y-103093530D01*
X129228033Y-103093530D01*
X129228030Y-103093531D01*
X129081124Y-103108000D01*
X128982876Y-103108000D01*
X128835970Y-103093531D01*
X128835967Y-103093530D01*
X128835966Y-103093530D01*
X128647465Y-103036349D01*
X128473742Y-102943492D01*
X128473740Y-102943491D01*
X128321472Y-102818528D01*
X128196509Y-102666260D01*
X128103652Y-102492537D01*
X128046469Y-102304030D01*
X128027162Y-102108000D01*
X128046469Y-101911970D01*
X128103652Y-101723463D01*
X128196509Y-101549740D01*
X128321472Y-101397472D01*
X128473740Y-101272509D01*
X128647463Y-101179652D01*
X128647465Y-101179651D01*
X128835966Y-101122470D01*
X128835967Y-101122470D01*
X128835970Y-101122469D01*
X128982876Y-101108000D01*
X129081124Y-101108000D01*
X129228030Y-101122469D01*
X129228030Y-101122469D01*
G37*
G36*
X136827770Y-101123372D02*
X136943689Y-101146429D01*
X137125678Y-101221811D01*
X137289463Y-101331249D01*
X137428751Y-101470537D01*
X137538189Y-101634322D01*
X137613571Y-101816311D01*
X137652000Y-102009509D01*
X137652000Y-102206491D01*
X137613571Y-102399689D01*
X137538189Y-102581678D01*
X137428751Y-102745463D01*
X137289463Y-102884751D01*
X137125678Y-102994189D01*
X136943689Y-103069571D01*
X136827770Y-103092628D01*
X136750493Y-103108000D01*
X136553507Y-103108000D01*
X136476230Y-103092628D01*
X136360311Y-103069571D01*
X136178322Y-102994189D01*
X136014537Y-102884751D01*
X135875249Y-102745463D01*
X135765811Y-102581678D01*
X135690429Y-102399689D01*
X135652000Y-102206491D01*
X135652000Y-102009509D01*
X135690429Y-101816311D01*
X135765811Y-101634322D01*
X135875249Y-101470537D01*
X136014537Y-101331249D01*
X136178322Y-101221811D01*
X136360311Y-101146429D01*
X136476230Y-101123372D01*
X136553507Y-101108000D01*
X136750493Y-101108000D01*
X136827770Y-101123372D01*
X136827770Y-101123372D01*
G37*
G36*
X140129770Y-101123372D02*
X140245689Y-101146429D01*
X140427678Y-101221811D01*
X140591463Y-101331249D01*
X140730751Y-101470537D01*
X140840189Y-101634322D01*
X140915571Y-101816311D01*
X140954000Y-102009509D01*
X140954000Y-102206491D01*
X140915571Y-102399689D01*
X140840189Y-102581678D01*
X140730751Y-102745463D01*
X140591463Y-102884751D01*
X140427678Y-102994189D01*
X140245689Y-103069571D01*
X140129770Y-103092628D01*
X140052493Y-103108000D01*
X139855507Y-103108000D01*
X139778230Y-103092628D01*
X139662311Y-103069571D01*
X139480322Y-102994189D01*
X139316537Y-102884751D01*
X139177249Y-102745463D01*
X139067811Y-102581678D01*
X138992429Y-102399689D01*
X138954000Y-102206491D01*
X138954000Y-102009509D01*
X138992429Y-101816311D01*
X139067811Y-101634322D01*
X139177249Y-101470537D01*
X139316537Y-101331249D01*
X139480322Y-101221811D01*
X139662311Y-101146429D01*
X139778230Y-101123372D01*
X139855507Y-101108000D01*
X140052493Y-101108000D01*
X140129770Y-101123372D01*
X140129770Y-101123372D01*
G37*
G36*
X151051770Y-101123372D02*
X151167689Y-101146429D01*
X151349678Y-101221811D01*
X151513463Y-101331249D01*
X151652751Y-101470537D01*
X151762189Y-101634322D01*
X151837571Y-101816311D01*
X151876000Y-102009509D01*
X151876000Y-102206491D01*
X151837571Y-102399689D01*
X151762189Y-102581678D01*
X151652751Y-102745463D01*
X151513463Y-102884751D01*
X151349678Y-102994189D01*
X151167689Y-103069571D01*
X151051770Y-103092628D01*
X150974493Y-103108000D01*
X150777507Y-103108000D01*
X150700230Y-103092628D01*
X150584311Y-103069571D01*
X150402322Y-102994189D01*
X150238537Y-102884751D01*
X150099249Y-102745463D01*
X149989811Y-102581678D01*
X149914429Y-102399689D01*
X149876000Y-102206491D01*
X149876000Y-102009509D01*
X149914429Y-101816311D01*
X149989811Y-101634322D01*
X150099249Y-101470537D01*
X150238537Y-101331249D01*
X150402322Y-101221811D01*
X150584311Y-101146429D01*
X150700230Y-101123372D01*
X150777507Y-101108000D01*
X150974493Y-101108000D01*
X151051770Y-101123372D01*
X151051770Y-101123372D01*
G37*
G36*
X158692030Y-101122469D02*
X158692033Y-101122470D01*
X158692034Y-101122470D01*
X158880535Y-101179651D01*
X158880537Y-101179652D01*
X159054260Y-101272509D01*
X159206528Y-101397472D01*
X159331491Y-101549740D01*
X159424348Y-101723463D01*
X159481531Y-101911970D01*
X159500838Y-102108000D01*
X159481531Y-102304030D01*
X159424348Y-102492537D01*
X159331491Y-102666260D01*
X159206528Y-102818528D01*
X159054260Y-102943491D01*
X159054258Y-102943492D01*
X158880535Y-103036349D01*
X158692034Y-103093530D01*
X158692033Y-103093530D01*
X158692030Y-103093531D01*
X158545124Y-103108000D01*
X158446876Y-103108000D01*
X158299970Y-103093531D01*
X158299967Y-103093530D01*
X158299966Y-103093530D01*
X158111465Y-103036349D01*
X157937742Y-102943492D01*
X157937740Y-102943491D01*
X157785472Y-102818528D01*
X157660509Y-102666260D01*
X157567652Y-102492537D01*
X157510469Y-102304030D01*
X157491162Y-102108000D01*
X157510469Y-101911970D01*
X157567652Y-101723463D01*
X157660509Y-101549740D01*
X157785472Y-101397472D01*
X157937740Y-101272509D01*
X158111463Y-101179652D01*
X158111465Y-101179651D01*
X158299966Y-101122470D01*
X158299967Y-101122470D01*
X158299970Y-101122469D01*
X158446876Y-101108000D01*
X158545124Y-101108000D01*
X158692030Y-101122469D01*
X158692030Y-101122469D01*
G37*
G36*
X143830857Y-97367272D02*
X144031042Y-97450191D01*
X144031045Y-97450193D01*
X144113110Y-97505027D01*
X144211213Y-97570578D01*
X144364422Y-97723787D01*
X144484809Y-97903958D01*
X144567728Y-98104143D01*
X144610000Y-98316658D01*
X144610000Y-98533342D01*
X144567728Y-98745857D01*
X144484809Y-98946042D01*
X144364422Y-99126213D01*
X144211213Y-99279422D01*
X144031042Y-99399809D01*
X143830857Y-99482728D01*
X143618342Y-99525000D01*
X143401658Y-99525000D01*
X143189143Y-99482728D01*
X142988958Y-99399809D01*
X142808787Y-99279422D01*
X142655578Y-99126213D01*
X142535191Y-98946042D01*
X142452272Y-98745857D01*
X142410000Y-98533342D01*
X142410000Y-98316658D01*
X142452272Y-98104143D01*
X142535191Y-97903958D01*
X142655578Y-97723787D01*
X142808787Y-97570578D01*
X142906891Y-97505027D01*
X142988955Y-97450193D01*
X142988958Y-97450191D01*
X143189143Y-97367272D01*
X143401658Y-97325000D01*
X143618342Y-97325000D01*
X143830857Y-97367272D01*
X143830857Y-97367272D01*
G37*
G36*
X136210857Y-97367272D02*
X136411042Y-97450191D01*
X136411045Y-97450193D01*
X136493110Y-97505027D01*
X136591213Y-97570578D01*
X136744422Y-97723787D01*
X136864809Y-97903958D01*
X136947728Y-98104143D01*
X136990000Y-98316658D01*
X136990000Y-98533342D01*
X136947728Y-98745857D01*
X136864809Y-98946042D01*
X136744422Y-99126213D01*
X136591213Y-99279422D01*
X136411042Y-99399809D01*
X136210857Y-99482728D01*
X135998342Y-99525000D01*
X135781658Y-99525000D01*
X135569143Y-99482728D01*
X135368958Y-99399809D01*
X135188787Y-99279422D01*
X135035578Y-99126213D01*
X134915191Y-98946042D01*
X134832272Y-98745857D01*
X134790000Y-98533342D01*
X134790000Y-98316658D01*
X134832272Y-98104143D01*
X134915191Y-97903958D01*
X135035578Y-97723787D01*
X135188787Y-97570578D01*
X135286891Y-97505027D01*
X135368955Y-97450193D01*
X135368958Y-97450191D01*
X135569143Y-97367272D01*
X135781658Y-97325000D01*
X135998342Y-97325000D01*
X136210857Y-97367272D01*
X136210857Y-97367272D01*
G37*
G36*
X138750857Y-97367272D02*
X138951042Y-97450191D01*
X138951045Y-97450193D01*
X139033110Y-97505027D01*
X139131213Y-97570578D01*
X139284422Y-97723787D01*
X139404809Y-97903958D01*
X139487728Y-98104143D01*
X139530000Y-98316658D01*
X139530000Y-98533342D01*
X139487728Y-98745857D01*
X139404809Y-98946042D01*
X139284422Y-99126213D01*
X139131213Y-99279422D01*
X138951042Y-99399809D01*
X138750857Y-99482728D01*
X138538342Y-99525000D01*
X138321658Y-99525000D01*
X138109143Y-99482728D01*
X137908958Y-99399809D01*
X137728787Y-99279422D01*
X137575578Y-99126213D01*
X137455191Y-98946042D01*
X137372272Y-98745857D01*
X137330000Y-98533342D01*
X137330000Y-98316658D01*
X137372272Y-98104143D01*
X137455191Y-97903958D01*
X137575578Y-97723787D01*
X137728787Y-97570578D01*
X137826891Y-97505027D01*
X137908955Y-97450193D01*
X137908958Y-97450191D01*
X138109143Y-97367272D01*
X138321658Y-97325000D01*
X138538342Y-97325000D01*
X138750857Y-97367272D01*
X138750857Y-97367272D01*
G37*
G36*
X141290857Y-97367272D02*
X141491042Y-97450191D01*
X141491045Y-97450193D01*
X141573110Y-97505027D01*
X141671213Y-97570578D01*
X141824422Y-97723787D01*
X141944809Y-97903958D01*
X142027728Y-98104143D01*
X142070000Y-98316658D01*
X142070000Y-98533342D01*
X142027728Y-98745857D01*
X141944809Y-98946042D01*
X141824422Y-99126213D01*
X141671213Y-99279422D01*
X141491042Y-99399809D01*
X141290857Y-99482728D01*
X141078342Y-99525000D01*
X140861658Y-99525000D01*
X140649143Y-99482728D01*
X140448958Y-99399809D01*
X140268787Y-99279422D01*
X140115578Y-99126213D01*
X139995191Y-98946042D01*
X139912272Y-98745857D01*
X139870000Y-98533342D01*
X139870000Y-98316658D01*
X139912272Y-98104143D01*
X139995191Y-97903958D01*
X140115578Y-97723787D01*
X140268787Y-97570578D01*
X140366891Y-97505027D01*
X140448955Y-97450193D01*
X140448958Y-97450191D01*
X140649143Y-97367272D01*
X140861658Y-97325000D01*
X141078342Y-97325000D01*
X141290857Y-97367272D01*
X141290857Y-97367272D01*
G37*
G36*
X148910857Y-97367272D02*
X149111042Y-97450191D01*
X149111045Y-97450193D01*
X149193110Y-97505027D01*
X149291213Y-97570578D01*
X149444422Y-97723787D01*
X149564809Y-97903958D01*
X149647728Y-98104143D01*
X149690000Y-98316658D01*
X149690000Y-98533342D01*
X149647728Y-98745857D01*
X149564809Y-98946042D01*
X149444422Y-99126213D01*
X149291213Y-99279422D01*
X149111042Y-99399809D01*
X148910857Y-99482728D01*
X148698342Y-99525000D01*
X148481658Y-99525000D01*
X148269143Y-99482728D01*
X148068958Y-99399809D01*
X147888787Y-99279422D01*
X147735578Y-99126213D01*
X147615191Y-98946042D01*
X147532272Y-98745857D01*
X147490000Y-98533342D01*
X147490000Y-98316658D01*
X147532272Y-98104143D01*
X147615191Y-97903958D01*
X147735578Y-97723787D01*
X147888787Y-97570578D01*
X147986891Y-97505027D01*
X148068955Y-97450193D01*
X148068958Y-97450191D01*
X148269143Y-97367272D01*
X148481658Y-97325000D01*
X148698342Y-97325000D01*
X148910857Y-97367272D01*
X148910857Y-97367272D01*
G37*
G36*
X151450857Y-97367272D02*
X151651042Y-97450191D01*
X151651045Y-97450193D01*
X151733110Y-97505027D01*
X151831213Y-97570578D01*
X151984422Y-97723787D01*
X152104809Y-97903958D01*
X152187728Y-98104143D01*
X152230000Y-98316658D01*
X152230000Y-98533342D01*
X152187728Y-98745857D01*
X152104809Y-98946042D01*
X151984422Y-99126213D01*
X151831213Y-99279422D01*
X151651042Y-99399809D01*
X151450857Y-99482728D01*
X151238342Y-99525000D01*
X151021658Y-99525000D01*
X150809143Y-99482728D01*
X150608958Y-99399809D01*
X150428787Y-99279422D01*
X150275578Y-99126213D01*
X150155191Y-98946042D01*
X150072272Y-98745857D01*
X150030000Y-98533342D01*
X150030000Y-98316658D01*
X150072272Y-98104143D01*
X150155191Y-97903958D01*
X150275578Y-97723787D01*
X150428787Y-97570578D01*
X150526891Y-97505027D01*
X150608955Y-97450193D01*
X150608958Y-97450191D01*
X150809143Y-97367272D01*
X151021658Y-97325000D01*
X151238342Y-97325000D01*
X151450857Y-97367272D01*
X151450857Y-97367272D01*
G37*
G36*
X153990857Y-97367272D02*
X154191042Y-97450191D01*
X154191045Y-97450193D01*
X154273110Y-97505027D01*
X154371213Y-97570578D01*
X154524422Y-97723787D01*
X154644809Y-97903958D01*
X154727728Y-98104143D01*
X154770000Y-98316658D01*
X154770000Y-98533342D01*
X154727728Y-98745857D01*
X154644809Y-98946042D01*
X154524422Y-99126213D01*
X154371213Y-99279422D01*
X154191042Y-99399809D01*
X153990857Y-99482728D01*
X153778342Y-99525000D01*
X153561658Y-99525000D01*
X153349143Y-99482728D01*
X153148958Y-99399809D01*
X152968787Y-99279422D01*
X152815578Y-99126213D01*
X152695191Y-98946042D01*
X152612272Y-98745857D01*
X152570000Y-98533342D01*
X152570000Y-98316658D01*
X152612272Y-98104143D01*
X152695191Y-97903958D01*
X152815578Y-97723787D01*
X152968787Y-97570578D01*
X153066891Y-97505027D01*
X153148955Y-97450193D01*
X153148958Y-97450191D01*
X153349143Y-97367272D01*
X153561658Y-97325000D01*
X153778342Y-97325000D01*
X153990857Y-97367272D01*
X153990857Y-97367272D01*
G37*
G36*
X146370857Y-97367272D02*
X146571042Y-97450191D01*
X146571045Y-97450193D01*
X146653110Y-97505027D01*
X146751213Y-97570578D01*
X146904422Y-97723787D01*
X147024809Y-97903958D01*
X147107728Y-98104143D01*
X147150000Y-98316658D01*
X147150000Y-98533342D01*
X147107728Y-98745857D01*
X147024809Y-98946042D01*
X146904422Y-99126213D01*
X146751213Y-99279422D01*
X146571042Y-99399809D01*
X146370857Y-99482728D01*
X146158342Y-99525000D01*
X145941658Y-99525000D01*
X145729143Y-99482728D01*
X145528958Y-99399809D01*
X145348787Y-99279422D01*
X145195578Y-99126213D01*
X145075191Y-98946042D01*
X144992272Y-98745857D01*
X144950000Y-98533342D01*
X144950000Y-98316658D01*
X144992272Y-98104143D01*
X145075191Y-97903958D01*
X145195578Y-97723787D01*
X145348787Y-97570578D01*
X145446891Y-97505027D01*
X145528955Y-97450193D01*
X145528958Y-97450191D01*
X145729143Y-97367272D01*
X145941658Y-97325000D01*
X146158342Y-97325000D01*
X146370857Y-97367272D01*
X146370857Y-97367272D01*
G37*
G36*
X170530026Y-96001115D02*
X170748412Y-96091573D01*
X170944958Y-96222901D01*
X171112099Y-96390042D01*
X171243427Y-96586588D01*
X171333885Y-96804974D01*
X171380000Y-97036809D01*
X171380000Y-97273191D01*
X171333885Y-97505026D01*
X171243427Y-97723412D01*
X171112099Y-97919958D01*
X170944958Y-98087099D01*
X170748412Y-98218427D01*
X170530026Y-98308885D01*
X170298191Y-98355000D01*
X170061809Y-98355000D01*
X169829974Y-98308885D01*
X169611588Y-98218427D01*
X169415042Y-98087099D01*
X169247901Y-97919958D01*
X169116573Y-97723412D01*
X169026115Y-97505026D01*
X168980000Y-97273191D01*
X168980000Y-97036809D01*
X169026115Y-96804974D01*
X169116573Y-96586588D01*
X169247901Y-96390042D01*
X169415042Y-96222901D01*
X169611588Y-96091573D01*
X169829974Y-96001115D01*
X170061809Y-95955000D01*
X170298191Y-95955000D01*
X170530026Y-96001115D01*
X170530026Y-96001115D01*
G37*
G36*
X167482026Y-96001115D02*
X167700412Y-96091573D01*
X167896958Y-96222901D01*
X168064099Y-96390042D01*
X168195427Y-96586588D01*
X168285885Y-96804974D01*
X168332000Y-97036809D01*
X168332000Y-97273191D01*
X168285885Y-97505026D01*
X168195427Y-97723412D01*
X168064099Y-97919958D01*
X167896958Y-98087099D01*
X167700412Y-98218427D01*
X167482026Y-98308885D01*
X167250191Y-98355000D01*
X167013809Y-98355000D01*
X166781974Y-98308885D01*
X166563588Y-98218427D01*
X166367042Y-98087099D01*
X166199901Y-97919958D01*
X166068573Y-97723412D01*
X165978115Y-97505026D01*
X165932000Y-97273191D01*
X165932000Y-97036809D01*
X165978115Y-96804974D01*
X166068573Y-96586588D01*
X166199901Y-96390042D01*
X166367042Y-96222901D01*
X166563588Y-96091573D01*
X166781974Y-96001115D01*
X167013809Y-95955000D01*
X167250191Y-95955000D01*
X167482026Y-96001115D01*
X167482026Y-96001115D01*
G37*
G36*
X173578026Y-96001115D02*
X173796412Y-96091573D01*
X173992958Y-96222901D01*
X174160099Y-96390042D01*
X174291427Y-96586588D01*
X174381885Y-96804974D01*
X174428000Y-97036809D01*
X174428000Y-97273191D01*
X174381885Y-97505026D01*
X174291427Y-97723412D01*
X174160099Y-97919958D01*
X173992958Y-98087099D01*
X173796412Y-98218427D01*
X173578026Y-98308885D01*
X173346191Y-98355000D01*
X173109809Y-98355000D01*
X172877974Y-98308885D01*
X172659588Y-98218427D01*
X172463042Y-98087099D01*
X172295901Y-97919958D01*
X172164573Y-97723412D01*
X172074115Y-97505026D01*
X172028000Y-97273191D01*
X172028000Y-97036809D01*
X172074115Y-96804974D01*
X172164573Y-96586588D01*
X172295901Y-96390042D01*
X172463042Y-96222901D01*
X172659588Y-96091573D01*
X172877974Y-96001115D01*
X173109809Y-95955000D01*
X173346191Y-95955000D01*
X173578026Y-96001115D01*
X173578026Y-96001115D01*
G37*
G36*
X154020026Y-85206115D02*
X154238412Y-85296573D01*
X154434958Y-85427901D01*
X154602099Y-85595042D01*
X154733427Y-85791588D01*
X154823885Y-86009974D01*
X154870000Y-86241809D01*
X154870000Y-86478191D01*
X154823885Y-86710026D01*
X154733427Y-86928412D01*
X154602099Y-87124958D01*
X154434958Y-87292099D01*
X154238412Y-87423427D01*
X154018505Y-87514515D01*
X153996894Y-87526066D01*
X153977952Y-87541611D01*
X153962406Y-87560554D01*
X153950855Y-87582164D01*
X153943742Y-87605613D01*
X153941340Y-87630000D01*
X153943742Y-87654386D01*
X153950855Y-87677835D01*
X153962406Y-87699446D01*
X153977951Y-87718388D01*
X153996894Y-87733934D01*
X154018505Y-87745485D01*
X154238412Y-87836573D01*
X154434958Y-87967901D01*
X154602099Y-88135042D01*
X154733427Y-88331588D01*
X154823885Y-88549974D01*
X154870000Y-88781809D01*
X154870000Y-89018191D01*
X154823885Y-89250026D01*
X154733427Y-89468412D01*
X154602099Y-89664958D01*
X154434958Y-89832099D01*
X154238412Y-89963427D01*
X154018505Y-90054515D01*
X153996894Y-90066066D01*
X153977952Y-90081611D01*
X153962406Y-90100554D01*
X153950855Y-90122164D01*
X153943742Y-90145613D01*
X153941340Y-90170000D01*
X153943742Y-90194386D01*
X153950855Y-90217835D01*
X153962406Y-90239446D01*
X153977951Y-90258388D01*
X153996894Y-90273934D01*
X154018505Y-90285485D01*
X154238412Y-90376573D01*
X154434958Y-90507901D01*
X154602099Y-90675042D01*
X154733427Y-90871588D01*
X154823885Y-91089974D01*
X154870000Y-91321809D01*
X154870000Y-91558191D01*
X154823885Y-91790026D01*
X154733427Y-92008412D01*
X154602099Y-92204958D01*
X154434958Y-92372099D01*
X154238412Y-92503427D01*
X154020026Y-92593885D01*
X153788191Y-92640000D01*
X153551809Y-92640000D01*
X153319974Y-92593885D01*
X153101588Y-92503427D01*
X152905042Y-92372099D01*
X152737901Y-92204958D01*
X152606573Y-92008412D01*
X152516115Y-91790026D01*
X152470000Y-91558191D01*
X152470000Y-91321809D01*
X152516115Y-91089974D01*
X152606573Y-90871588D01*
X152737901Y-90675042D01*
X152905042Y-90507901D01*
X153101588Y-90376573D01*
X153321495Y-90285485D01*
X153343106Y-90273934D01*
X153362048Y-90258389D01*
X153377594Y-90239446D01*
X153389145Y-90217836D01*
X153396258Y-90194387D01*
X153398660Y-90170000D01*
X153396258Y-90145614D01*
X153389145Y-90122165D01*
X153377594Y-90100554D01*
X153362049Y-90081612D01*
X153343106Y-90066066D01*
X153321495Y-90054515D01*
X153101588Y-89963427D01*
X152905042Y-89832099D01*
X152737901Y-89664958D01*
X152606573Y-89468412D01*
X152516115Y-89250026D01*
X152470000Y-89018191D01*
X152470000Y-88781809D01*
X152516115Y-88549974D01*
X152606573Y-88331588D01*
X152737901Y-88135042D01*
X152905042Y-87967901D01*
X153101588Y-87836573D01*
X153321495Y-87745485D01*
X153343106Y-87733934D01*
X153362048Y-87718389D01*
X153377594Y-87699446D01*
X153389145Y-87677836D01*
X153396258Y-87654387D01*
X153398660Y-87630000D01*
X153396258Y-87605614D01*
X153389145Y-87582165D01*
X153377594Y-87560554D01*
X153362049Y-87541612D01*
X153343106Y-87526066D01*
X153321495Y-87514515D01*
X153101588Y-87423427D01*
X152905042Y-87292099D01*
X152737901Y-87124958D01*
X152606573Y-86928412D01*
X152516115Y-86710026D01*
X152470000Y-86478191D01*
X152470000Y-86241809D01*
X152516115Y-86009974D01*
X152606573Y-85791588D01*
X152737901Y-85595042D01*
X152905042Y-85427901D01*
X153101588Y-85296573D01*
X153319974Y-85206115D01*
X153551809Y-85160000D01*
X153788191Y-85160000D01*
X154020026Y-85206115D01*
X154020026Y-85206115D01*
G37*
G36*
X171090000Y-88820000D02*
X166730000Y-88820000D01*
X166730000Y-86440000D01*
X171090000Y-86440000D01*
X171090000Y-88820000D01*
X171090000Y-88820000D01*
G37*
G36*
X169993418Y-81443444D02*
X170133281Y-81457219D01*
X170357596Y-81525265D01*
X170564327Y-81635764D01*
X170745528Y-81784472D01*
X170894236Y-81965673D01*
X171004735Y-82172404D01*
X171072781Y-82396719D01*
X171095757Y-82630000D01*
X171072781Y-82863281D01*
X171004735Y-83087596D01*
X170894236Y-83294327D01*
X170745528Y-83475528D01*
X170564327Y-83624236D01*
X170357596Y-83734735D01*
X170133281Y-83802781D01*
X169993418Y-83816556D01*
X169958453Y-83820000D01*
X167861547Y-83820000D01*
X167826582Y-83816556D01*
X167686719Y-83802781D01*
X167462404Y-83734735D01*
X167255673Y-83624236D01*
X167074472Y-83475528D01*
X166925764Y-83294327D01*
X166815265Y-83087596D01*
X166747219Y-82863281D01*
X166724243Y-82630000D01*
X166747219Y-82396719D01*
X166815265Y-82172404D01*
X166925764Y-81965673D01*
X167074472Y-81784472D01*
X167255673Y-81635764D01*
X167462404Y-81525265D01*
X167686719Y-81457219D01*
X167826582Y-81443444D01*
X167861547Y-81440000D01*
X169958453Y-81440000D01*
X169993418Y-81443444D01*
X169993418Y-81443444D01*
G37*
G36*
X171090000Y-78660000D02*
X166730000Y-78660000D01*
X166730000Y-76280000D01*
X171090000Y-76280000D01*
X171090000Y-78660000D01*
X171090000Y-78660000D01*
G37*
G36*
X146370857Y-74507272D02*
X146571042Y-74590191D01*
X146751213Y-74710578D01*
X146904422Y-74863787D01*
X147024809Y-75043958D01*
X147107728Y-75244143D01*
X147150000Y-75456658D01*
X147150000Y-75673342D01*
X147107728Y-75885857D01*
X147024809Y-76086042D01*
X146904422Y-76266213D01*
X146751213Y-76419422D01*
X146571042Y-76539809D01*
X146370857Y-76622728D01*
X146158342Y-76665000D01*
X145941658Y-76665000D01*
X145729143Y-76622728D01*
X145528958Y-76539809D01*
X145348787Y-76419422D01*
X145195578Y-76266213D01*
X145075191Y-76086042D01*
X144992272Y-75885857D01*
X144950000Y-75673342D01*
X144950000Y-75456658D01*
X144992272Y-75244143D01*
X145075191Y-75043958D01*
X145195578Y-74863787D01*
X145348787Y-74710578D01*
X145528958Y-74590191D01*
X145729143Y-74507272D01*
X145941658Y-74465000D01*
X146158342Y-74465000D01*
X146370857Y-74507272D01*
X146370857Y-74507272D01*
G37*
G36*
X138750857Y-74507272D02*
X138951042Y-74590191D01*
X139131213Y-74710578D01*
X139284422Y-74863787D01*
X139404809Y-75043958D01*
X139487728Y-75244143D01*
X139530000Y-75456658D01*
X139530000Y-75673342D01*
X139487728Y-75885857D01*
X139404809Y-76086042D01*
X139284422Y-76266213D01*
X139131213Y-76419422D01*
X138951042Y-76539809D01*
X138750857Y-76622728D01*
X138538342Y-76665000D01*
X138321658Y-76665000D01*
X138109143Y-76622728D01*
X137908958Y-76539809D01*
X137728787Y-76419422D01*
X137575578Y-76266213D01*
X137455191Y-76086042D01*
X137372272Y-75885857D01*
X137330000Y-75673342D01*
X137330000Y-75456658D01*
X137372272Y-75244143D01*
X137455191Y-75043958D01*
X137575578Y-74863787D01*
X137728787Y-74710578D01*
X137908958Y-74590191D01*
X138109143Y-74507272D01*
X138321658Y-74465000D01*
X138538342Y-74465000D01*
X138750857Y-74507272D01*
X138750857Y-74507272D01*
G37*
G36*
X141290857Y-74507272D02*
X141491042Y-74590191D01*
X141671213Y-74710578D01*
X141824422Y-74863787D01*
X141944809Y-75043958D01*
X142027728Y-75244143D01*
X142070000Y-75456658D01*
X142070000Y-75673342D01*
X142027728Y-75885857D01*
X141944809Y-76086042D01*
X141824422Y-76266213D01*
X141671213Y-76419422D01*
X141491042Y-76539809D01*
X141290857Y-76622728D01*
X141078342Y-76665000D01*
X140861658Y-76665000D01*
X140649143Y-76622728D01*
X140448958Y-76539809D01*
X140268787Y-76419422D01*
X140115578Y-76266213D01*
X139995191Y-76086042D01*
X139912272Y-75885857D01*
X139870000Y-75673342D01*
X139870000Y-75456658D01*
X139912272Y-75244143D01*
X139995191Y-75043958D01*
X140115578Y-74863787D01*
X140268787Y-74710578D01*
X140448958Y-74590191D01*
X140649143Y-74507272D01*
X140861658Y-74465000D01*
X141078342Y-74465000D01*
X141290857Y-74507272D01*
X141290857Y-74507272D01*
G37*
G36*
X136210857Y-74507272D02*
X136411042Y-74590191D01*
X136591213Y-74710578D01*
X136744422Y-74863787D01*
X136864809Y-75043958D01*
X136947728Y-75244143D01*
X136990000Y-75456658D01*
X136990000Y-75673342D01*
X136947728Y-75885857D01*
X136864809Y-76086042D01*
X136744422Y-76266213D01*
X136591213Y-76419422D01*
X136411042Y-76539809D01*
X136210857Y-76622728D01*
X135998342Y-76665000D01*
X135781658Y-76665000D01*
X135569143Y-76622728D01*
X135368958Y-76539809D01*
X135188787Y-76419422D01*
X135035578Y-76266213D01*
X134915191Y-76086042D01*
X134832272Y-75885857D01*
X134790000Y-75673342D01*
X134790000Y-75456658D01*
X134832272Y-75244143D01*
X134915191Y-75043958D01*
X135035578Y-74863787D01*
X135188787Y-74710578D01*
X135368958Y-74590191D01*
X135569143Y-74507272D01*
X135781658Y-74465000D01*
X135998342Y-74465000D01*
X136210857Y-74507272D01*
X136210857Y-74507272D01*
G37*
G36*
X153990857Y-74507272D02*
X154191042Y-74590191D01*
X154371213Y-74710578D01*
X154524422Y-74863787D01*
X154644809Y-75043958D01*
X154727728Y-75244143D01*
X154770000Y-75456658D01*
X154770000Y-75673342D01*
X154727728Y-75885857D01*
X154644809Y-76086042D01*
X154524422Y-76266213D01*
X154371213Y-76419422D01*
X154191042Y-76539809D01*
X153990857Y-76622728D01*
X153778342Y-76665000D01*
X153561658Y-76665000D01*
X153349143Y-76622728D01*
X153148958Y-76539809D01*
X152968787Y-76419422D01*
X152815578Y-76266213D01*
X152695191Y-76086042D01*
X152612272Y-75885857D01*
X152570000Y-75673342D01*
X152570000Y-75456658D01*
X152612272Y-75244143D01*
X152695191Y-75043958D01*
X152815578Y-74863787D01*
X152968787Y-74710578D01*
X153148958Y-74590191D01*
X153349143Y-74507272D01*
X153561658Y-74465000D01*
X153778342Y-74465000D01*
X153990857Y-74507272D01*
X153990857Y-74507272D01*
G37*
G36*
X148910857Y-74507272D02*
X149111042Y-74590191D01*
X149291213Y-74710578D01*
X149444422Y-74863787D01*
X149564809Y-75043958D01*
X149647728Y-75244143D01*
X149690000Y-75456658D01*
X149690000Y-75673342D01*
X149647728Y-75885857D01*
X149564809Y-76086042D01*
X149444422Y-76266213D01*
X149291213Y-76419422D01*
X149111042Y-76539809D01*
X148910857Y-76622728D01*
X148698342Y-76665000D01*
X148481658Y-76665000D01*
X148269143Y-76622728D01*
X148068958Y-76539809D01*
X147888787Y-76419422D01*
X147735578Y-76266213D01*
X147615191Y-76086042D01*
X147532272Y-75885857D01*
X147490000Y-75673342D01*
X147490000Y-75456658D01*
X147532272Y-75244143D01*
X147615191Y-75043958D01*
X147735578Y-74863787D01*
X147888787Y-74710578D01*
X148068958Y-74590191D01*
X148269143Y-74507272D01*
X148481658Y-74465000D01*
X148698342Y-74465000D01*
X148910857Y-74507272D01*
X148910857Y-74507272D01*
G37*
G36*
X151450857Y-74507272D02*
X151651042Y-74590191D01*
X151831213Y-74710578D01*
X151984422Y-74863787D01*
X152104809Y-75043958D01*
X152187728Y-75244143D01*
X152230000Y-75456658D01*
X152230000Y-75673342D01*
X152187728Y-75885857D01*
X152104809Y-76086042D01*
X151984422Y-76266213D01*
X151831213Y-76419422D01*
X151651042Y-76539809D01*
X151450857Y-76622728D01*
X151238342Y-76665000D01*
X151021658Y-76665000D01*
X150809143Y-76622728D01*
X150608958Y-76539809D01*
X150428787Y-76419422D01*
X150275578Y-76266213D01*
X150155191Y-76086042D01*
X150072272Y-75885857D01*
X150030000Y-75673342D01*
X150030000Y-75456658D01*
X150072272Y-75244143D01*
X150155191Y-75043958D01*
X150275578Y-74863787D01*
X150428787Y-74710578D01*
X150608958Y-74590191D01*
X150809143Y-74507272D01*
X151021658Y-74465000D01*
X151238342Y-74465000D01*
X151450857Y-74507272D01*
X151450857Y-74507272D01*
G37*
G36*
X143830857Y-74507272D02*
X144031042Y-74590191D01*
X144211213Y-74710578D01*
X144364422Y-74863787D01*
X144484809Y-75043958D01*
X144567728Y-75244143D01*
X144610000Y-75456658D01*
X144610000Y-75673342D01*
X144567728Y-75885857D01*
X144484809Y-76086042D01*
X144364422Y-76266213D01*
X144211213Y-76419422D01*
X144031042Y-76539809D01*
X143830857Y-76622728D01*
X143618342Y-76665000D01*
X143401658Y-76665000D01*
X143189143Y-76622728D01*
X142988958Y-76539809D01*
X142808787Y-76419422D01*
X142655578Y-76266213D01*
X142535191Y-76086042D01*
X142452272Y-75885857D01*
X142410000Y-75673342D01*
X142410000Y-75456658D01*
X142452272Y-75244143D01*
X142535191Y-75043958D01*
X142655578Y-74863787D01*
X142808787Y-74710578D01*
X142988958Y-74590191D01*
X143189143Y-74507272D01*
X143401658Y-74465000D01*
X143618342Y-74465000D01*
X143830857Y-74507272D01*
X143830857Y-74507272D01*
G37*
G36*
X169993418Y-71283444D02*
X170133281Y-71297219D01*
X170357596Y-71365265D01*
X170564327Y-71475764D01*
X170745528Y-71624472D01*
X170894236Y-71805673D01*
X171004735Y-72012404D01*
X171072781Y-72236719D01*
X171095757Y-72470000D01*
X171072781Y-72703281D01*
X171004735Y-72927596D01*
X170894236Y-73134327D01*
X170745528Y-73315528D01*
X170564327Y-73464236D01*
X170357596Y-73574735D01*
X170133281Y-73642781D01*
X169993418Y-73656556D01*
X169958453Y-73660000D01*
X167861547Y-73660000D01*
X167826582Y-73656556D01*
X167686719Y-73642781D01*
X167462404Y-73574735D01*
X167255673Y-73464236D01*
X167074472Y-73315528D01*
X166925764Y-73134327D01*
X166815265Y-72927596D01*
X166747219Y-72703281D01*
X166724243Y-72470000D01*
X166747219Y-72236719D01*
X166815265Y-72012404D01*
X166925764Y-71805673D01*
X167074472Y-71624472D01*
X167255673Y-71475764D01*
X167462404Y-71365265D01*
X167686719Y-71297219D01*
X167826582Y-71283444D01*
X167861547Y-71280000D01*
X169958453Y-71280000D01*
X169993418Y-71283444D01*
X169993418Y-71283444D01*
G37*
G36*
X151060000Y-72955000D02*
X148660000Y-72955000D01*
X148660000Y-68555000D01*
X151060000Y-68555000D01*
X151060000Y-72955000D01*
X151060000Y-72955000D01*
G37*
G36*
X130740000Y-72828000D02*
X128340000Y-72828000D01*
X128340000Y-68428000D01*
X130740000Y-68428000D01*
X130740000Y-72828000D01*
X130740000Y-72828000D01*
G37*
G36*
X157695639Y-67495916D02*
X157902986Y-67558815D01*
X157902988Y-67558816D01*
X158094084Y-67660958D01*
X158261581Y-67798419D01*
X158399042Y-67965916D01*
X158501184Y-68157012D01*
X158564084Y-68364362D01*
X158585322Y-68580000D01*
X158564084Y-68795638D01*
X158501184Y-69002988D01*
X158399042Y-69194084D01*
X158261581Y-69361581D01*
X158094084Y-69499042D01*
X157902988Y-69601184D01*
X157902986Y-69601185D01*
X157695639Y-69664084D01*
X157534038Y-69680000D01*
X157425962Y-69680000D01*
X157264361Y-69664084D01*
X157057014Y-69601185D01*
X157057012Y-69601184D01*
X156865916Y-69499042D01*
X156698419Y-69361581D01*
X156560958Y-69194084D01*
X156458816Y-69002988D01*
X156395916Y-68795638D01*
X156374678Y-68580000D01*
X156395916Y-68364362D01*
X156458816Y-68157012D01*
X156560958Y-67965916D01*
X156698419Y-67798419D01*
X156865916Y-67660958D01*
X157057012Y-67558816D01*
X157057014Y-67558815D01*
X157264361Y-67495916D01*
X157425962Y-67480000D01*
X157534038Y-67480000D01*
X157695639Y-67495916D01*
X157695639Y-67495916D01*
G37*
G36*
X171090000Y-68500000D02*
X166730000Y-68500000D01*
X166730000Y-66120000D01*
X171090000Y-66120000D01*
X171090000Y-68500000D01*
X171090000Y-68500000D01*
G37*
G36*
X130740000Y-63525000D02*
X128340000Y-63525000D01*
X128340000Y-59125000D01*
X130740000Y-59125000D01*
X130740000Y-63525000D01*
X130740000Y-63525000D01*
G37*
G36*
X151060000Y-63525000D02*
X148660000Y-63525000D01*
X148660000Y-59125000D01*
X151060000Y-59125000D01*
X151060000Y-63525000D01*
X151060000Y-63525000D01*
G37*
G36*
X169993418Y-61123444D02*
X170133281Y-61137219D01*
X170357596Y-61205265D01*
X170564327Y-61315764D01*
X170745528Y-61464472D01*
X170894236Y-61645673D01*
X171004735Y-61852404D01*
X171072781Y-62076719D01*
X171095757Y-62310000D01*
X171072781Y-62543281D01*
X171004735Y-62767596D01*
X170894236Y-62974327D01*
X170745528Y-63155528D01*
X170564327Y-63304236D01*
X170357596Y-63414735D01*
X170133281Y-63482781D01*
X169993418Y-63496556D01*
X169958453Y-63500000D01*
X167861547Y-63500000D01*
X167826582Y-63496556D01*
X167686719Y-63482781D01*
X167462404Y-63414735D01*
X167255673Y-63304236D01*
X167074472Y-63155528D01*
X166925764Y-62974327D01*
X166815265Y-62767596D01*
X166747219Y-62543281D01*
X166724243Y-62310000D01*
X166747219Y-62076719D01*
X166815265Y-61852404D01*
X166925764Y-61645673D01*
X167074472Y-61464472D01*
X167255673Y-61315764D01*
X167462404Y-61205265D01*
X167686719Y-61137219D01*
X167826582Y-61123444D01*
X167861547Y-61120000D01*
X169958453Y-61120000D01*
X169993418Y-61123444D01*
X169993418Y-61123444D01*
G37*
G36*
X158580000Y-62060000D02*
X156380000Y-62060000D01*
X156380000Y-59860000D01*
X158580000Y-59860000D01*
X158580000Y-62060000D01*
X158580000Y-62060000D01*
G37*
M02*
