G04 #@! TF.GenerationSoftware,KiCad,Pcbnew,5.0.1*
G04 #@! TF.CreationDate,2018-12-09T15:12:05+01:00*
G04 #@! TF.ProjectId,wasserschaden,7761737365727363686164656E2E6B69,rev?*
G04 #@! TF.SameCoordinates,Original*
G04 #@! TF.FileFunction,Legend,Top*
G04 #@! TF.FilePolarity,Positive*
%FSLAX46Y46*%
G04 Gerber Fmt 4.6, Leading zero omitted, Abs format (unit mm)*
G04 Created by KiCad (PCBNEW 5.0.1) date So 09 Dez 2018 15:12:05 CET*
%MOMM*%
%LPD*%
G01*
G04 APERTURE LIST*
%ADD10C,0.300000*%
%ADD11C,0.150000*%
%ADD12C,0.120000*%
G04 APERTURE END LIST*
D10*
X217130571Y-150602142D02*
X218273428Y-150602142D01*
X220130571Y-150602142D02*
X221273428Y-150602142D01*
X220702000Y-151173571D02*
X220702000Y-150030714D01*
X166330571Y-150602142D02*
X167473428Y-150602142D01*
X169330571Y-150602142D02*
X170473428Y-150602142D01*
X169902000Y-151173571D02*
X169902000Y-150030714D01*
X217130571Y-101072142D02*
X218273428Y-101072142D01*
X220130571Y-101072142D02*
X221273428Y-101072142D01*
X220702000Y-101643571D02*
X220702000Y-100500714D01*
X224262142Y-129198285D02*
X224262142Y-128055428D01*
X224262142Y-123912571D02*
X224262142Y-122769714D01*
X224833571Y-123341142D02*
X223690714Y-123341142D01*
X173462142Y-129198285D02*
X173462142Y-128055428D01*
X173462142Y-123912571D02*
X173462142Y-122769714D01*
X174033571Y-123341142D02*
X172890714Y-123341142D01*
X224262142Y-79668285D02*
X224262142Y-78525428D01*
X224262142Y-74382571D02*
X224262142Y-73239714D01*
X224833571Y-73811142D02*
X223690714Y-73811142D01*
X224262142Y-117768285D02*
X224262142Y-116625428D01*
X224262142Y-112482571D02*
X224262142Y-111339714D01*
X224833571Y-111911142D02*
X223690714Y-111911142D01*
X173462142Y-117768285D02*
X173462142Y-116625428D01*
X173462142Y-112482571D02*
X173462142Y-111339714D01*
X174033571Y-111911142D02*
X172890714Y-111911142D01*
X224262142Y-68238285D02*
X224262142Y-67095428D01*
X224262142Y-62952571D02*
X224262142Y-61809714D01*
X224833571Y-62381142D02*
X223690714Y-62381142D01*
X166330571Y-101072142D02*
X167473428Y-101072142D01*
X169330571Y-101072142D02*
X170473428Y-101072142D01*
X169902000Y-101643571D02*
X169902000Y-100500714D01*
X173462142Y-68238285D02*
X173462142Y-67095428D01*
X173462142Y-62952571D02*
X173462142Y-61809714D01*
X174033571Y-62381142D02*
X172890714Y-62381142D01*
X173462142Y-79668285D02*
X173462142Y-78525428D01*
X173462142Y-74382571D02*
X173462142Y-73239714D01*
X174033571Y-73811142D02*
X172890714Y-73811142D01*
D11*
G04 #@! TO.C,U2*
X177280000Y-149855000D02*
X210360000Y-149855000D01*
X212360000Y-147855000D02*
X212360000Y-125195000D01*
X210360000Y-123195000D02*
X184280000Y-123195000D01*
X177280000Y-125345000D02*
X177280000Y-133205000D01*
X177280000Y-133205000D02*
X178280000Y-133205000D01*
X178280000Y-133205000D02*
X178280000Y-141425000D01*
X178280000Y-141425000D02*
X177280000Y-141425000D01*
X177280000Y-141425000D02*
X177280000Y-149854999D01*
X212360000Y-125195000D02*
G75*
G03X210360000Y-123195000I-2000000J0D01*
G01*
X210360000Y-149855000D02*
G75*
G03X212360000Y-147855000I0J2000000D01*
G01*
X177280000Y-125345000D02*
X183280000Y-125345000D01*
X183280000Y-125345000D02*
G75*
G03X184280000Y-124345000I0J1000000D01*
G01*
X184280000Y-124355000D02*
X184280000Y-123195000D01*
X184280000Y-123195000D02*
X184280000Y-123195000D01*
X126480000Y-149855000D02*
X159560000Y-149855000D01*
X161560000Y-147855000D02*
X161560000Y-125195000D01*
X159560000Y-123195000D02*
X133480000Y-123195000D01*
X126480000Y-125345000D02*
X126480000Y-133205000D01*
X126480000Y-133205000D02*
X127480000Y-133205000D01*
X127480000Y-133205000D02*
X127480000Y-141425000D01*
X127480000Y-141425000D02*
X126480000Y-141425000D01*
X126480000Y-141425000D02*
X126480000Y-149854999D01*
X161560000Y-125195000D02*
G75*
G03X159560000Y-123195000I-2000000J0D01*
G01*
X159560000Y-149855000D02*
G75*
G03X161560000Y-147855000I0J2000000D01*
G01*
X126480000Y-125345000D02*
X132480000Y-125345000D01*
X132480000Y-125345000D02*
G75*
G03X133480000Y-124345000I0J1000000D01*
G01*
X133480000Y-124355000D02*
X133480000Y-123195000D01*
X133480000Y-123195000D02*
X133480000Y-123195000D01*
X177280000Y-100325000D02*
X210360000Y-100325000D01*
X212360000Y-98325000D02*
X212360000Y-75665000D01*
X210360000Y-73665000D02*
X184280000Y-73665000D01*
X177280000Y-75815000D02*
X177280000Y-83675000D01*
X177280000Y-83675000D02*
X178280000Y-83675000D01*
X178280000Y-83675000D02*
X178280000Y-91895000D01*
X178280000Y-91895000D02*
X177280000Y-91895000D01*
X177280000Y-91895000D02*
X177280000Y-100324999D01*
X212360000Y-75665000D02*
G75*
G03X210360000Y-73665000I-2000000J0D01*
G01*
X210360000Y-100325000D02*
G75*
G03X212360000Y-98325000I0J2000000D01*
G01*
X177280000Y-75815000D02*
X183280000Y-75815000D01*
X183280000Y-75815000D02*
G75*
G03X184280000Y-74815000I0J1000000D01*
G01*
X184280000Y-74825000D02*
X184280000Y-73665000D01*
X184280000Y-73665000D02*
X184280000Y-73665000D01*
D12*
G04 #@! TO.C,R3*
X191354000Y-153630000D02*
X191354000Y-153960000D01*
X197774000Y-153630000D02*
X191354000Y-153630000D01*
X197774000Y-153960000D02*
X197774000Y-153630000D01*
X191354000Y-156250000D02*
X191354000Y-155920000D01*
X197774000Y-156250000D02*
X191354000Y-156250000D01*
X197774000Y-155920000D02*
X197774000Y-156250000D01*
X140554000Y-153630000D02*
X140554000Y-153960000D01*
X146974000Y-153630000D02*
X140554000Y-153630000D01*
X146974000Y-153960000D02*
X146974000Y-153630000D01*
X140554000Y-156250000D02*
X140554000Y-155920000D01*
X146974000Y-156250000D02*
X140554000Y-156250000D01*
X146974000Y-155920000D02*
X146974000Y-156250000D01*
X191354000Y-104100000D02*
X191354000Y-104430000D01*
X197774000Y-104100000D02*
X191354000Y-104100000D01*
X197774000Y-104430000D02*
X197774000Y-104100000D01*
X191354000Y-106720000D02*
X191354000Y-106390000D01*
X197774000Y-106720000D02*
X191354000Y-106720000D01*
X197774000Y-106390000D02*
X197774000Y-106720000D01*
G04 #@! TO.C,D3*
X222595000Y-154750000D02*
X222595000Y-154906000D01*
X222595000Y-152434000D02*
X222595000Y-152590000D01*
X225196130Y-154749837D02*
G75*
G02X223114039Y-154750000I-1041130J1079837D01*
G01*
X225196130Y-152590163D02*
G75*
G03X223114039Y-152590000I-1041130J-1079837D01*
G01*
X225827335Y-154748608D02*
G75*
G02X222595000Y-154905516I-1672335J1078608D01*
G01*
X225827335Y-152591392D02*
G75*
G03X222595000Y-152434484I-1672335J-1078608D01*
G01*
X171795000Y-154750000D02*
X171795000Y-154906000D01*
X171795000Y-152434000D02*
X171795000Y-152590000D01*
X174396130Y-154749837D02*
G75*
G02X172314039Y-154750000I-1041130J1079837D01*
G01*
X174396130Y-152590163D02*
G75*
G03X172314039Y-152590000I-1041130J-1079837D01*
G01*
X175027335Y-154748608D02*
G75*
G02X171795000Y-154905516I-1672335J1078608D01*
G01*
X175027335Y-152591392D02*
G75*
G03X171795000Y-152434484I-1672335J-1078608D01*
G01*
X222595000Y-105220000D02*
X222595000Y-105376000D01*
X222595000Y-102904000D02*
X222595000Y-103060000D01*
X225196130Y-105219837D02*
G75*
G02X223114039Y-105220000I-1041130J1079837D01*
G01*
X225196130Y-103060163D02*
G75*
G03X223114039Y-103060000I-1041130J-1079837D01*
G01*
X225827335Y-105218608D02*
G75*
G02X222595000Y-105375516I-1672335J1078608D01*
G01*
X225827335Y-103061392D02*
G75*
G03X222595000Y-102904484I-1672335J-1078608D01*
G01*
D11*
G04 #@! TO.C,U1*
X192024000Y-117094000D02*
X192024000Y-113411000D01*
X197866000Y-117094000D02*
X192024000Y-117094000D01*
X197866000Y-113411000D02*
X197866000Y-117094000D01*
X192024000Y-113411000D02*
X197866000Y-113411000D01*
X199009000Y-120269000D02*
X199009000Y-122174000D01*
X193675000Y-120269000D02*
X199009000Y-120269000D01*
X193675000Y-122174000D02*
X193675000Y-120269000D01*
X199009000Y-122174000D02*
X193675000Y-122174000D01*
X190373000Y-113284000D02*
X182372000Y-113284000D01*
X190373000Y-121920000D02*
X190373000Y-113284000D01*
X182372000Y-121920000D02*
X190373000Y-121920000D01*
X182372000Y-113284000D02*
X182372000Y-121920000D01*
X202311000Y-108458000D02*
X202311000Y-122682000D01*
X178689000Y-108458000D02*
X202311000Y-108458000D01*
X178689000Y-122682000D02*
X178689000Y-108458000D01*
X202311000Y-122682000D02*
X178689000Y-122682000D01*
X141224000Y-117094000D02*
X141224000Y-113411000D01*
X147066000Y-117094000D02*
X141224000Y-117094000D01*
X147066000Y-113411000D02*
X147066000Y-117094000D01*
X141224000Y-113411000D02*
X147066000Y-113411000D01*
X148209000Y-120269000D02*
X148209000Y-122174000D01*
X142875000Y-120269000D02*
X148209000Y-120269000D01*
X142875000Y-122174000D02*
X142875000Y-120269000D01*
X148209000Y-122174000D02*
X142875000Y-122174000D01*
X139573000Y-113284000D02*
X131572000Y-113284000D01*
X139573000Y-121920000D02*
X139573000Y-113284000D01*
X131572000Y-121920000D02*
X139573000Y-121920000D01*
X131572000Y-113284000D02*
X131572000Y-121920000D01*
X151511000Y-108458000D02*
X151511000Y-122682000D01*
X127889000Y-108458000D02*
X151511000Y-108458000D01*
X127889000Y-122682000D02*
X127889000Y-108458000D01*
X151511000Y-122682000D02*
X127889000Y-122682000D01*
X192024000Y-67564000D02*
X192024000Y-63881000D01*
X197866000Y-67564000D02*
X192024000Y-67564000D01*
X197866000Y-63881000D02*
X197866000Y-67564000D01*
X192024000Y-63881000D02*
X197866000Y-63881000D01*
X199009000Y-70739000D02*
X199009000Y-72644000D01*
X193675000Y-70739000D02*
X199009000Y-70739000D01*
X193675000Y-72644000D02*
X193675000Y-70739000D01*
X199009000Y-72644000D02*
X193675000Y-72644000D01*
X190373000Y-63754000D02*
X182372000Y-63754000D01*
X190373000Y-72390000D02*
X190373000Y-63754000D01*
X182372000Y-72390000D02*
X190373000Y-72390000D01*
X182372000Y-63754000D02*
X182372000Y-72390000D01*
X202311000Y-58928000D02*
X202311000Y-73152000D01*
X178689000Y-58928000D02*
X202311000Y-58928000D01*
X178689000Y-73152000D02*
X178689000Y-58928000D01*
X202311000Y-73152000D02*
X178689000Y-73152000D01*
D12*
G04 #@! TO.C,D2*
X212435000Y-154750000D02*
X212435000Y-154906000D01*
X212435000Y-152434000D02*
X212435000Y-152590000D01*
X215036130Y-154749837D02*
G75*
G02X212954039Y-154750000I-1041130J1079837D01*
G01*
X215036130Y-152590163D02*
G75*
G03X212954039Y-152590000I-1041130J-1079837D01*
G01*
X215667335Y-154748608D02*
G75*
G02X212435000Y-154905516I-1672335J1078608D01*
G01*
X215667335Y-152591392D02*
G75*
G03X212435000Y-152434484I-1672335J-1078608D01*
G01*
X161635000Y-154750000D02*
X161635000Y-154906000D01*
X161635000Y-152434000D02*
X161635000Y-152590000D01*
X164236130Y-154749837D02*
G75*
G02X162154039Y-154750000I-1041130J1079837D01*
G01*
X164236130Y-152590163D02*
G75*
G03X162154039Y-152590000I-1041130J-1079837D01*
G01*
X164867335Y-154748608D02*
G75*
G02X161635000Y-154905516I-1672335J1078608D01*
G01*
X164867335Y-152591392D02*
G75*
G03X161635000Y-152434484I-1672335J-1078608D01*
G01*
X212435000Y-105220000D02*
X212435000Y-105376000D01*
X212435000Y-102904000D02*
X212435000Y-103060000D01*
X215036130Y-105219837D02*
G75*
G02X212954039Y-105220000I-1041130J1079837D01*
G01*
X215036130Y-103060163D02*
G75*
G03X212954039Y-103060000I-1041130J-1079837D01*
G01*
X215667335Y-105218608D02*
G75*
G02X212435000Y-105375516I-1672335J1078608D01*
G01*
X215667335Y-103061392D02*
G75*
G03X212435000Y-102904484I-1672335J-1078608D01*
G01*
G04 #@! TO.C,R2*
X197774000Y-152948000D02*
X197774000Y-152618000D01*
X191354000Y-152948000D02*
X197774000Y-152948000D01*
X191354000Y-152618000D02*
X191354000Y-152948000D01*
X197774000Y-150328000D02*
X197774000Y-150658000D01*
X191354000Y-150328000D02*
X197774000Y-150328000D01*
X191354000Y-150658000D02*
X191354000Y-150328000D01*
X146974000Y-152948000D02*
X146974000Y-152618000D01*
X140554000Y-152948000D02*
X146974000Y-152948000D01*
X140554000Y-152618000D02*
X140554000Y-152948000D01*
X146974000Y-150328000D02*
X146974000Y-150658000D01*
X140554000Y-150328000D02*
X146974000Y-150328000D01*
X140554000Y-150658000D02*
X140554000Y-150328000D01*
X197774000Y-103418000D02*
X197774000Y-103088000D01*
X191354000Y-103418000D02*
X197774000Y-103418000D01*
X191354000Y-103088000D02*
X191354000Y-103418000D01*
X197774000Y-100798000D02*
X197774000Y-101128000D01*
X191354000Y-100798000D02*
X197774000Y-100798000D01*
X191354000Y-101128000D02*
X191354000Y-100798000D01*
G04 #@! TO.C,J2*
X213410000Y-120070000D02*
X213410000Y-130920000D01*
X218510000Y-120070000D02*
X213410000Y-120070000D01*
X218210000Y-120570000D02*
X218510000Y-120070000D01*
X223610000Y-120570000D02*
X218210000Y-120570000D01*
X223360000Y-120070000D02*
X223610000Y-120570000D01*
X223410000Y-120070000D02*
X223360000Y-120070000D01*
X225310000Y-120070000D02*
X223410000Y-120070000D01*
X225060000Y-120570000D02*
X225310000Y-120070000D01*
X226010000Y-120570000D02*
X225060000Y-120570000D01*
X226010000Y-130920000D02*
X226010000Y-120570000D01*
X213410000Y-130920000D02*
X226010000Y-130920000D01*
X162610000Y-120070000D02*
X162610000Y-130920000D01*
X167710000Y-120070000D02*
X162610000Y-120070000D01*
X167410000Y-120570000D02*
X167710000Y-120070000D01*
X172810000Y-120570000D02*
X167410000Y-120570000D01*
X172560000Y-120070000D02*
X172810000Y-120570000D01*
X172610000Y-120070000D02*
X172560000Y-120070000D01*
X174510000Y-120070000D02*
X172610000Y-120070000D01*
X174260000Y-120570000D02*
X174510000Y-120070000D01*
X175210000Y-120570000D02*
X174260000Y-120570000D01*
X175210000Y-130920000D02*
X175210000Y-120570000D01*
X162610000Y-130920000D02*
X175210000Y-130920000D01*
X213410000Y-70540000D02*
X213410000Y-81390000D01*
X218510000Y-70540000D02*
X213410000Y-70540000D01*
X218210000Y-71040000D02*
X218510000Y-70540000D01*
X223610000Y-71040000D02*
X218210000Y-71040000D01*
X223360000Y-70540000D02*
X223610000Y-71040000D01*
X223410000Y-70540000D02*
X223360000Y-70540000D01*
X225310000Y-70540000D02*
X223410000Y-70540000D01*
X225060000Y-71040000D02*
X225310000Y-70540000D01*
X226010000Y-71040000D02*
X225060000Y-71040000D01*
X226010000Y-81390000D02*
X226010000Y-71040000D01*
X213410000Y-81390000D02*
X226010000Y-81390000D01*
G04 #@! TO.C,D1*
X209690000Y-112480000D02*
X206870000Y-112480000D01*
X208280000Y-117030000D02*
X208280000Y-116960000D01*
X208280000Y-111570000D02*
X208280000Y-111640000D01*
X209690000Y-116960000D02*
X209690000Y-111640000D01*
X206870000Y-116960000D02*
X209690000Y-116960000D01*
X206870000Y-111640000D02*
X206870000Y-116960000D01*
X209690000Y-111640000D02*
X206870000Y-111640000D01*
X158890000Y-112480000D02*
X156070000Y-112480000D01*
X157480000Y-117030000D02*
X157480000Y-116960000D01*
X157480000Y-111570000D02*
X157480000Y-111640000D01*
X158890000Y-116960000D02*
X158890000Y-111640000D01*
X156070000Y-116960000D02*
X158890000Y-116960000D01*
X156070000Y-111640000D02*
X156070000Y-116960000D01*
X158890000Y-111640000D02*
X156070000Y-111640000D01*
X209690000Y-62950000D02*
X206870000Y-62950000D01*
X208280000Y-67500000D02*
X208280000Y-67430000D01*
X208280000Y-62040000D02*
X208280000Y-62110000D01*
X209690000Y-67430000D02*
X209690000Y-62110000D01*
X206870000Y-67430000D02*
X209690000Y-67430000D01*
X206870000Y-62110000D02*
X206870000Y-67430000D01*
X209690000Y-62110000D02*
X206870000Y-62110000D01*
D11*
G04 #@! TO.C,U3*
X215646000Y-143256000D02*
X225806000Y-143256000D01*
X225806000Y-143256000D02*
X225806000Y-148336000D01*
X225806000Y-148336000D02*
X215646000Y-148336000D01*
X215646000Y-148336000D02*
X215646000Y-143256000D01*
X164846000Y-143256000D02*
X175006000Y-143256000D01*
X175006000Y-143256000D02*
X175006000Y-148336000D01*
X175006000Y-148336000D02*
X164846000Y-148336000D01*
X164846000Y-148336000D02*
X164846000Y-143256000D01*
X215646000Y-93726000D02*
X225806000Y-93726000D01*
X225806000Y-93726000D02*
X225806000Y-98806000D01*
X225806000Y-98806000D02*
X215646000Y-98806000D01*
X215646000Y-98806000D02*
X215646000Y-93726000D01*
D12*
G04 #@! TO.C,R6*
X180432000Y-153630000D02*
X180432000Y-153960000D01*
X186852000Y-153630000D02*
X180432000Y-153630000D01*
X186852000Y-153960000D02*
X186852000Y-153630000D01*
X180432000Y-156250000D02*
X180432000Y-155920000D01*
X186852000Y-156250000D02*
X180432000Y-156250000D01*
X186852000Y-155920000D02*
X186852000Y-156250000D01*
X129632000Y-153630000D02*
X129632000Y-153960000D01*
X136052000Y-153630000D02*
X129632000Y-153630000D01*
X136052000Y-153960000D02*
X136052000Y-153630000D01*
X129632000Y-156250000D02*
X129632000Y-155920000D01*
X136052000Y-156250000D02*
X129632000Y-156250000D01*
X136052000Y-155920000D02*
X136052000Y-156250000D01*
X180432000Y-104100000D02*
X180432000Y-104430000D01*
X186852000Y-104100000D02*
X180432000Y-104100000D01*
X186852000Y-104430000D02*
X186852000Y-104100000D01*
X180432000Y-106720000D02*
X180432000Y-106390000D01*
X186852000Y-106720000D02*
X180432000Y-106720000D01*
X186852000Y-106390000D02*
X186852000Y-106720000D01*
G04 #@! TO.C,J3*
X213410000Y-131500000D02*
X213410000Y-142350000D01*
X218510000Y-131500000D02*
X213410000Y-131500000D01*
X218210000Y-132000000D02*
X218510000Y-131500000D01*
X223610000Y-132000000D02*
X218210000Y-132000000D01*
X223360000Y-131500000D02*
X223610000Y-132000000D01*
X223410000Y-131500000D02*
X223360000Y-131500000D01*
X225310000Y-131500000D02*
X223410000Y-131500000D01*
X225060000Y-132000000D02*
X225310000Y-131500000D01*
X226010000Y-132000000D02*
X225060000Y-132000000D01*
X226010000Y-142350000D02*
X226010000Y-132000000D01*
X213410000Y-142350000D02*
X226010000Y-142350000D01*
X162610000Y-131500000D02*
X162610000Y-142350000D01*
X167710000Y-131500000D02*
X162610000Y-131500000D01*
X167410000Y-132000000D02*
X167710000Y-131500000D01*
X172810000Y-132000000D02*
X167410000Y-132000000D01*
X172560000Y-131500000D02*
X172810000Y-132000000D01*
X172610000Y-131500000D02*
X172560000Y-131500000D01*
X174510000Y-131500000D02*
X172610000Y-131500000D01*
X174260000Y-132000000D02*
X174510000Y-131500000D01*
X175210000Y-132000000D02*
X174260000Y-132000000D01*
X175210000Y-142350000D02*
X175210000Y-132000000D01*
X162610000Y-142350000D02*
X175210000Y-142350000D01*
X213410000Y-81970000D02*
X213410000Y-92820000D01*
X218510000Y-81970000D02*
X213410000Y-81970000D01*
X218210000Y-82470000D02*
X218510000Y-81970000D01*
X223610000Y-82470000D02*
X218210000Y-82470000D01*
X223360000Y-81970000D02*
X223610000Y-82470000D01*
X223410000Y-81970000D02*
X223360000Y-81970000D01*
X225310000Y-81970000D02*
X223410000Y-81970000D01*
X225060000Y-82470000D02*
X225310000Y-81970000D01*
X226010000Y-82470000D02*
X225060000Y-82470000D01*
X226010000Y-92820000D02*
X226010000Y-82470000D01*
X213410000Y-92820000D02*
X226010000Y-92820000D01*
G04 #@! TO.C,R4*
X208696000Y-156250000D02*
X208696000Y-155920000D01*
X202276000Y-156250000D02*
X208696000Y-156250000D01*
X202276000Y-155920000D02*
X202276000Y-156250000D01*
X208696000Y-153630000D02*
X208696000Y-153960000D01*
X202276000Y-153630000D02*
X208696000Y-153630000D01*
X202276000Y-153960000D02*
X202276000Y-153630000D01*
X157896000Y-156250000D02*
X157896000Y-155920000D01*
X151476000Y-156250000D02*
X157896000Y-156250000D01*
X151476000Y-155920000D02*
X151476000Y-156250000D01*
X157896000Y-153630000D02*
X157896000Y-153960000D01*
X151476000Y-153630000D02*
X157896000Y-153630000D01*
X151476000Y-153960000D02*
X151476000Y-153630000D01*
X208696000Y-106720000D02*
X208696000Y-106390000D01*
X202276000Y-106720000D02*
X208696000Y-106720000D01*
X202276000Y-106390000D02*
X202276000Y-106720000D01*
X208696000Y-104100000D02*
X208696000Y-104430000D01*
X202276000Y-104100000D02*
X208696000Y-104100000D01*
X202276000Y-104430000D02*
X202276000Y-104100000D01*
G04 #@! TO.C,D4*
X217515000Y-154750000D02*
X217515000Y-154906000D01*
X217515000Y-152434000D02*
X217515000Y-152590000D01*
X220116130Y-154749837D02*
G75*
G02X218034039Y-154750000I-1041130J1079837D01*
G01*
X220116130Y-152590163D02*
G75*
G03X218034039Y-152590000I-1041130J-1079837D01*
G01*
X220747335Y-154748608D02*
G75*
G02X217515000Y-154905516I-1672335J1078608D01*
G01*
X220747335Y-152591392D02*
G75*
G03X217515000Y-152434484I-1672335J-1078608D01*
G01*
X166715000Y-154750000D02*
X166715000Y-154906000D01*
X166715000Y-152434000D02*
X166715000Y-152590000D01*
X169316130Y-154749837D02*
G75*
G02X167234039Y-154750000I-1041130J1079837D01*
G01*
X169316130Y-152590163D02*
G75*
G03X167234039Y-152590000I-1041130J-1079837D01*
G01*
X169947335Y-154748608D02*
G75*
G02X166715000Y-154905516I-1672335J1078608D01*
G01*
X169947335Y-152591392D02*
G75*
G03X166715000Y-152434484I-1672335J-1078608D01*
G01*
X217515000Y-105220000D02*
X217515000Y-105376000D01*
X217515000Y-102904000D02*
X217515000Y-103060000D01*
X220116130Y-105219837D02*
G75*
G02X218034039Y-105220000I-1041130J1079837D01*
G01*
X220116130Y-103060163D02*
G75*
G03X218034039Y-103060000I-1041130J-1079837D01*
G01*
X220747335Y-105218608D02*
G75*
G02X217515000Y-105375516I-1672335J1078608D01*
G01*
X220747335Y-103061392D02*
G75*
G03X217515000Y-102904484I-1672335J-1078608D01*
G01*
G04 #@! TO.C,J1*
X213410000Y-108640000D02*
X213410000Y-119490000D01*
X218510000Y-108640000D02*
X213410000Y-108640000D01*
X218210000Y-109140000D02*
X218510000Y-108640000D01*
X223610000Y-109140000D02*
X218210000Y-109140000D01*
X223360000Y-108640000D02*
X223610000Y-109140000D01*
X223410000Y-108640000D02*
X223360000Y-108640000D01*
X225310000Y-108640000D02*
X223410000Y-108640000D01*
X225060000Y-109140000D02*
X225310000Y-108640000D01*
X226010000Y-109140000D02*
X225060000Y-109140000D01*
X226010000Y-119490000D02*
X226010000Y-109140000D01*
X213410000Y-119490000D02*
X226010000Y-119490000D01*
X162610000Y-108640000D02*
X162610000Y-119490000D01*
X167710000Y-108640000D02*
X162610000Y-108640000D01*
X167410000Y-109140000D02*
X167710000Y-108640000D01*
X172810000Y-109140000D02*
X167410000Y-109140000D01*
X172560000Y-108640000D02*
X172810000Y-109140000D01*
X172610000Y-108640000D02*
X172560000Y-108640000D01*
X174510000Y-108640000D02*
X172610000Y-108640000D01*
X174260000Y-109140000D02*
X174510000Y-108640000D01*
X175210000Y-109140000D02*
X174260000Y-109140000D01*
X175210000Y-119490000D02*
X175210000Y-109140000D01*
X162610000Y-119490000D02*
X175210000Y-119490000D01*
X213410000Y-59110000D02*
X213410000Y-69960000D01*
X218510000Y-59110000D02*
X213410000Y-59110000D01*
X218210000Y-59610000D02*
X218510000Y-59110000D01*
X223610000Y-59610000D02*
X218210000Y-59610000D01*
X223360000Y-59110000D02*
X223610000Y-59610000D01*
X223410000Y-59110000D02*
X223360000Y-59110000D01*
X225310000Y-59110000D02*
X223410000Y-59110000D01*
X225060000Y-59610000D02*
X225310000Y-59110000D01*
X226010000Y-59610000D02*
X225060000Y-59610000D01*
X226010000Y-69960000D02*
X226010000Y-59610000D01*
X213410000Y-69960000D02*
X226010000Y-69960000D01*
G04 #@! TO.C,R5*
X180432000Y-150328000D02*
X180432000Y-150658000D01*
X186852000Y-150328000D02*
X180432000Y-150328000D01*
X186852000Y-150658000D02*
X186852000Y-150328000D01*
X180432000Y-152948000D02*
X180432000Y-152618000D01*
X186852000Y-152948000D02*
X180432000Y-152948000D01*
X186852000Y-152618000D02*
X186852000Y-152948000D01*
X129632000Y-150328000D02*
X129632000Y-150658000D01*
X136052000Y-150328000D02*
X129632000Y-150328000D01*
X136052000Y-150658000D02*
X136052000Y-150328000D01*
X129632000Y-152948000D02*
X129632000Y-152618000D01*
X136052000Y-152948000D02*
X129632000Y-152948000D01*
X136052000Y-152618000D02*
X136052000Y-152948000D01*
X180432000Y-100798000D02*
X180432000Y-101128000D01*
X186852000Y-100798000D02*
X180432000Y-100798000D01*
X186852000Y-101128000D02*
X186852000Y-100798000D01*
X180432000Y-103418000D02*
X180432000Y-103088000D01*
X186852000Y-103418000D02*
X180432000Y-103418000D01*
X186852000Y-103088000D02*
X186852000Y-103418000D01*
G04 #@! TO.C,R1*
X208696000Y-152948000D02*
X208696000Y-152618000D01*
X202276000Y-152948000D02*
X208696000Y-152948000D01*
X202276000Y-152618000D02*
X202276000Y-152948000D01*
X208696000Y-150328000D02*
X208696000Y-150658000D01*
X202276000Y-150328000D02*
X208696000Y-150328000D01*
X202276000Y-150658000D02*
X202276000Y-150328000D01*
X157896000Y-152948000D02*
X157896000Y-152618000D01*
X151476000Y-152948000D02*
X157896000Y-152948000D01*
X151476000Y-152618000D02*
X151476000Y-152948000D01*
X157896000Y-150328000D02*
X157896000Y-150658000D01*
X151476000Y-150328000D02*
X157896000Y-150328000D01*
X151476000Y-150658000D02*
X151476000Y-150328000D01*
X208696000Y-103418000D02*
X208696000Y-103088000D01*
X202276000Y-103418000D02*
X208696000Y-103418000D01*
X202276000Y-103088000D02*
X202276000Y-103418000D01*
X208696000Y-100798000D02*
X208696000Y-101128000D01*
X202276000Y-100798000D02*
X208696000Y-100798000D01*
X202276000Y-101128000D02*
X202276000Y-100798000D01*
D11*
G04 #@! TO.C,U2*
X133480000Y-73665000D02*
X133480000Y-73665000D01*
X133480000Y-74825000D02*
X133480000Y-73665000D01*
X132480000Y-75815000D02*
G75*
G03X133480000Y-74815000I0J1000000D01*
G01*
X126480000Y-75815000D02*
X132480000Y-75815000D01*
X159560000Y-100325000D02*
G75*
G03X161560000Y-98325000I0J2000000D01*
G01*
X161560000Y-75665000D02*
G75*
G03X159560000Y-73665000I-2000000J0D01*
G01*
X126480000Y-91895000D02*
X126480000Y-100324999D01*
X127480000Y-91895000D02*
X126480000Y-91895000D01*
X127480000Y-83675000D02*
X127480000Y-91895000D01*
X126480000Y-83675000D02*
X127480000Y-83675000D01*
X126480000Y-75815000D02*
X126480000Y-83675000D01*
X159560000Y-73665000D02*
X133480000Y-73665000D01*
X161560000Y-98325000D02*
X161560000Y-75665000D01*
X126480000Y-100325000D02*
X159560000Y-100325000D01*
G04 #@! TO.C,U1*
X151511000Y-73152000D02*
X127889000Y-73152000D01*
X127889000Y-73152000D02*
X127889000Y-58928000D01*
X127889000Y-58928000D02*
X151511000Y-58928000D01*
X151511000Y-58928000D02*
X151511000Y-73152000D01*
X131572000Y-63754000D02*
X131572000Y-72390000D01*
X131572000Y-72390000D02*
X139573000Y-72390000D01*
X139573000Y-72390000D02*
X139573000Y-63754000D01*
X139573000Y-63754000D02*
X131572000Y-63754000D01*
X148209000Y-72644000D02*
X142875000Y-72644000D01*
X142875000Y-72644000D02*
X142875000Y-70739000D01*
X142875000Y-70739000D02*
X148209000Y-70739000D01*
X148209000Y-70739000D02*
X148209000Y-72644000D01*
X141224000Y-63881000D02*
X147066000Y-63881000D01*
X147066000Y-63881000D02*
X147066000Y-67564000D01*
X147066000Y-67564000D02*
X141224000Y-67564000D01*
X141224000Y-67564000D02*
X141224000Y-63881000D01*
D12*
G04 #@! TO.C,R3*
X146974000Y-106390000D02*
X146974000Y-106720000D01*
X146974000Y-106720000D02*
X140554000Y-106720000D01*
X140554000Y-106720000D02*
X140554000Y-106390000D01*
X146974000Y-104430000D02*
X146974000Y-104100000D01*
X146974000Y-104100000D02*
X140554000Y-104100000D01*
X140554000Y-104100000D02*
X140554000Y-104430000D01*
G04 #@! TO.C,D1*
X158890000Y-62110000D02*
X156070000Y-62110000D01*
X156070000Y-62110000D02*
X156070000Y-67430000D01*
X156070000Y-67430000D02*
X158890000Y-67430000D01*
X158890000Y-67430000D02*
X158890000Y-62110000D01*
X157480000Y-62040000D02*
X157480000Y-62110000D01*
X157480000Y-67500000D02*
X157480000Y-67430000D01*
X158890000Y-62950000D02*
X156070000Y-62950000D01*
G04 #@! TO.C,D4*
X169947335Y-103061392D02*
G75*
G03X166715000Y-102904484I-1672335J-1078608D01*
G01*
X169947335Y-105218608D02*
G75*
G02X166715000Y-105375516I-1672335J1078608D01*
G01*
X169316130Y-103060163D02*
G75*
G03X167234039Y-103060000I-1041130J-1079837D01*
G01*
X169316130Y-105219837D02*
G75*
G02X167234039Y-105220000I-1041130J1079837D01*
G01*
X166715000Y-102904000D02*
X166715000Y-103060000D01*
X166715000Y-105220000D02*
X166715000Y-105376000D01*
G04 #@! TO.C,D3*
X175027335Y-103061392D02*
G75*
G03X171795000Y-102904484I-1672335J-1078608D01*
G01*
X175027335Y-105218608D02*
G75*
G02X171795000Y-105375516I-1672335J1078608D01*
G01*
X174396130Y-103060163D02*
G75*
G03X172314039Y-103060000I-1041130J-1079837D01*
G01*
X174396130Y-105219837D02*
G75*
G02X172314039Y-105220000I-1041130J1079837D01*
G01*
X171795000Y-102904000D02*
X171795000Y-103060000D01*
X171795000Y-105220000D02*
X171795000Y-105376000D01*
G04 #@! TO.C,D2*
X164867335Y-103061392D02*
G75*
G03X161635000Y-102904484I-1672335J-1078608D01*
G01*
X164867335Y-105218608D02*
G75*
G02X161635000Y-105375516I-1672335J1078608D01*
G01*
X164236130Y-103060163D02*
G75*
G03X162154039Y-103060000I-1041130J-1079837D01*
G01*
X164236130Y-105219837D02*
G75*
G02X162154039Y-105220000I-1041130J1079837D01*
G01*
X161635000Y-102904000D02*
X161635000Y-103060000D01*
X161635000Y-105220000D02*
X161635000Y-105376000D01*
G04 #@! TO.C,R1*
X151476000Y-101128000D02*
X151476000Y-100798000D01*
X151476000Y-100798000D02*
X157896000Y-100798000D01*
X157896000Y-100798000D02*
X157896000Y-101128000D01*
X151476000Y-103088000D02*
X151476000Y-103418000D01*
X151476000Y-103418000D02*
X157896000Y-103418000D01*
X157896000Y-103418000D02*
X157896000Y-103088000D01*
G04 #@! TO.C,J2*
X162610000Y-81390000D02*
X175210000Y-81390000D01*
X175210000Y-81390000D02*
X175210000Y-71040000D01*
X175210000Y-71040000D02*
X174260000Y-71040000D01*
X174260000Y-71040000D02*
X174510000Y-70540000D01*
X174510000Y-70540000D02*
X172610000Y-70540000D01*
X172610000Y-70540000D02*
X172560000Y-70540000D01*
X172560000Y-70540000D02*
X172810000Y-71040000D01*
X172810000Y-71040000D02*
X167410000Y-71040000D01*
X167410000Y-71040000D02*
X167710000Y-70540000D01*
X167710000Y-70540000D02*
X162610000Y-70540000D01*
X162610000Y-70540000D02*
X162610000Y-81390000D01*
G04 #@! TO.C,J1*
X162610000Y-69960000D02*
X175210000Y-69960000D01*
X175210000Y-69960000D02*
X175210000Y-59610000D01*
X175210000Y-59610000D02*
X174260000Y-59610000D01*
X174260000Y-59610000D02*
X174510000Y-59110000D01*
X174510000Y-59110000D02*
X172610000Y-59110000D01*
X172610000Y-59110000D02*
X172560000Y-59110000D01*
X172560000Y-59110000D02*
X172810000Y-59610000D01*
X172810000Y-59610000D02*
X167410000Y-59610000D01*
X167410000Y-59610000D02*
X167710000Y-59110000D01*
X167710000Y-59110000D02*
X162610000Y-59110000D01*
X162610000Y-59110000D02*
X162610000Y-69960000D01*
G04 #@! TO.C,R2*
X140554000Y-101128000D02*
X140554000Y-100798000D01*
X140554000Y-100798000D02*
X146974000Y-100798000D01*
X146974000Y-100798000D02*
X146974000Y-101128000D01*
X140554000Y-103088000D02*
X140554000Y-103418000D01*
X140554000Y-103418000D02*
X146974000Y-103418000D01*
X146974000Y-103418000D02*
X146974000Y-103088000D01*
G04 #@! TO.C,R4*
X151476000Y-104430000D02*
X151476000Y-104100000D01*
X151476000Y-104100000D02*
X157896000Y-104100000D01*
X157896000Y-104100000D02*
X157896000Y-104430000D01*
X151476000Y-106390000D02*
X151476000Y-106720000D01*
X151476000Y-106720000D02*
X157896000Y-106720000D01*
X157896000Y-106720000D02*
X157896000Y-106390000D01*
G04 #@! TO.C,J3*
X162610000Y-92820000D02*
X175210000Y-92820000D01*
X175210000Y-92820000D02*
X175210000Y-82470000D01*
X175210000Y-82470000D02*
X174260000Y-82470000D01*
X174260000Y-82470000D02*
X174510000Y-81970000D01*
X174510000Y-81970000D02*
X172610000Y-81970000D01*
X172610000Y-81970000D02*
X172560000Y-81970000D01*
X172560000Y-81970000D02*
X172810000Y-82470000D01*
X172810000Y-82470000D02*
X167410000Y-82470000D01*
X167410000Y-82470000D02*
X167710000Y-81970000D01*
X167710000Y-81970000D02*
X162610000Y-81970000D01*
X162610000Y-81970000D02*
X162610000Y-92820000D01*
G04 #@! TO.C,R5*
X136052000Y-103088000D02*
X136052000Y-103418000D01*
X136052000Y-103418000D02*
X129632000Y-103418000D01*
X129632000Y-103418000D02*
X129632000Y-103088000D01*
X136052000Y-101128000D02*
X136052000Y-100798000D01*
X136052000Y-100798000D02*
X129632000Y-100798000D01*
X129632000Y-100798000D02*
X129632000Y-101128000D01*
G04 #@! TO.C,R6*
X136052000Y-106390000D02*
X136052000Y-106720000D01*
X136052000Y-106720000D02*
X129632000Y-106720000D01*
X129632000Y-106720000D02*
X129632000Y-106390000D01*
X136052000Y-104430000D02*
X136052000Y-104100000D01*
X136052000Y-104100000D02*
X129632000Y-104100000D01*
X129632000Y-104100000D02*
X129632000Y-104430000D01*
D11*
G04 #@! TO.C,U3*
X164846000Y-98806000D02*
X164846000Y-93726000D01*
X175006000Y-98806000D02*
X164846000Y-98806000D01*
X175006000Y-93726000D02*
X175006000Y-98806000D01*
X164846000Y-93726000D02*
X175006000Y-93726000D01*
G04 #@! TO.C,U2*
X178522380Y-137921904D02*
X179331904Y-137921904D01*
X179427142Y-137874285D01*
X179474761Y-137826666D01*
X179522380Y-137731428D01*
X179522380Y-137540952D01*
X179474761Y-137445714D01*
X179427142Y-137398095D01*
X179331904Y-137350476D01*
X178522380Y-137350476D01*
X178617619Y-136921904D02*
X178570000Y-136874285D01*
X178522380Y-136779047D01*
X178522380Y-136540952D01*
X178570000Y-136445714D01*
X178617619Y-136398095D01*
X178712857Y-136350476D01*
X178808095Y-136350476D01*
X178950952Y-136398095D01*
X179522380Y-136969523D01*
X179522380Y-136350476D01*
X179792380Y-139516904D02*
X180792380Y-139278809D01*
X180078095Y-139088333D01*
X180792380Y-138897857D01*
X179792380Y-138659761D01*
X180744761Y-137897857D02*
X180792380Y-137993095D01*
X180792380Y-138183571D01*
X180744761Y-138278809D01*
X180649523Y-138326428D01*
X180268571Y-138326428D01*
X180173333Y-138278809D01*
X180125714Y-138183571D01*
X180125714Y-137993095D01*
X180173333Y-137897857D01*
X180268571Y-137850238D01*
X180363809Y-137850238D01*
X180459047Y-138326428D01*
X180792380Y-137421666D02*
X179792380Y-137421666D01*
X180506666Y-137088333D01*
X179792380Y-136755000D01*
X180792380Y-136755000D01*
X180792380Y-136135952D02*
X180744761Y-136231190D01*
X180697142Y-136278809D01*
X180601904Y-136326428D01*
X180316190Y-136326428D01*
X180220952Y-136278809D01*
X180173333Y-136231190D01*
X180125714Y-136135952D01*
X180125714Y-135993095D01*
X180173333Y-135897857D01*
X180220952Y-135850238D01*
X180316190Y-135802619D01*
X180601904Y-135802619D01*
X180697142Y-135850238D01*
X180744761Y-135897857D01*
X180792380Y-135993095D01*
X180792380Y-136135952D01*
X180744761Y-135421666D02*
X180792380Y-135326428D01*
X180792380Y-135135952D01*
X180744761Y-135040714D01*
X180649523Y-134993095D01*
X180601904Y-134993095D01*
X180506666Y-135040714D01*
X180459047Y-135135952D01*
X180459047Y-135278809D01*
X180411428Y-135374047D01*
X180316190Y-135421666D01*
X180268571Y-135421666D01*
X180173333Y-135374047D01*
X180125714Y-135278809D01*
X180125714Y-135135952D01*
X180173333Y-135040714D01*
X180887619Y-134802619D02*
X180887619Y-134040714D01*
X180792380Y-133802619D02*
X180125714Y-133802619D01*
X180220952Y-133802619D02*
X180173333Y-133755000D01*
X180125714Y-133659761D01*
X180125714Y-133516904D01*
X180173333Y-133421666D01*
X180268571Y-133374047D01*
X180792380Y-133374047D01*
X180268571Y-133374047D02*
X180173333Y-133326428D01*
X180125714Y-133231190D01*
X180125714Y-133088333D01*
X180173333Y-132993095D01*
X180268571Y-132945476D01*
X180792380Y-132945476D01*
X180792380Y-132469285D02*
X180125714Y-132469285D01*
X179792380Y-132469285D02*
X179840000Y-132516904D01*
X179887619Y-132469285D01*
X179840000Y-132421666D01*
X179792380Y-132469285D01*
X179887619Y-132469285D01*
X180125714Y-131993095D02*
X180792380Y-131993095D01*
X180220952Y-131993095D02*
X180173333Y-131945476D01*
X180125714Y-131850238D01*
X180125714Y-131707380D01*
X180173333Y-131612142D01*
X180268571Y-131564523D01*
X180792380Y-131564523D01*
X180792380Y-131088333D02*
X180125714Y-131088333D01*
X179792380Y-131088333D02*
X179840000Y-131135952D01*
X179887619Y-131088333D01*
X179840000Y-131040714D01*
X179792380Y-131088333D01*
X179887619Y-131088333D01*
X127722380Y-137921904D02*
X128531904Y-137921904D01*
X128627142Y-137874285D01*
X128674761Y-137826666D01*
X128722380Y-137731428D01*
X128722380Y-137540952D01*
X128674761Y-137445714D01*
X128627142Y-137398095D01*
X128531904Y-137350476D01*
X127722380Y-137350476D01*
X127817619Y-136921904D02*
X127770000Y-136874285D01*
X127722380Y-136779047D01*
X127722380Y-136540952D01*
X127770000Y-136445714D01*
X127817619Y-136398095D01*
X127912857Y-136350476D01*
X128008095Y-136350476D01*
X128150952Y-136398095D01*
X128722380Y-136969523D01*
X128722380Y-136350476D01*
X128992380Y-139516904D02*
X129992380Y-139278809D01*
X129278095Y-139088333D01*
X129992380Y-138897857D01*
X128992380Y-138659761D01*
X129944761Y-137897857D02*
X129992380Y-137993095D01*
X129992380Y-138183571D01*
X129944761Y-138278809D01*
X129849523Y-138326428D01*
X129468571Y-138326428D01*
X129373333Y-138278809D01*
X129325714Y-138183571D01*
X129325714Y-137993095D01*
X129373333Y-137897857D01*
X129468571Y-137850238D01*
X129563809Y-137850238D01*
X129659047Y-138326428D01*
X129992380Y-137421666D02*
X128992380Y-137421666D01*
X129706666Y-137088333D01*
X128992380Y-136755000D01*
X129992380Y-136755000D01*
X129992380Y-136135952D02*
X129944761Y-136231190D01*
X129897142Y-136278809D01*
X129801904Y-136326428D01*
X129516190Y-136326428D01*
X129420952Y-136278809D01*
X129373333Y-136231190D01*
X129325714Y-136135952D01*
X129325714Y-135993095D01*
X129373333Y-135897857D01*
X129420952Y-135850238D01*
X129516190Y-135802619D01*
X129801904Y-135802619D01*
X129897142Y-135850238D01*
X129944761Y-135897857D01*
X129992380Y-135993095D01*
X129992380Y-136135952D01*
X129944761Y-135421666D02*
X129992380Y-135326428D01*
X129992380Y-135135952D01*
X129944761Y-135040714D01*
X129849523Y-134993095D01*
X129801904Y-134993095D01*
X129706666Y-135040714D01*
X129659047Y-135135952D01*
X129659047Y-135278809D01*
X129611428Y-135374047D01*
X129516190Y-135421666D01*
X129468571Y-135421666D01*
X129373333Y-135374047D01*
X129325714Y-135278809D01*
X129325714Y-135135952D01*
X129373333Y-135040714D01*
X130087619Y-134802619D02*
X130087619Y-134040714D01*
X129992380Y-133802619D02*
X129325714Y-133802619D01*
X129420952Y-133802619D02*
X129373333Y-133755000D01*
X129325714Y-133659761D01*
X129325714Y-133516904D01*
X129373333Y-133421666D01*
X129468571Y-133374047D01*
X129992380Y-133374047D01*
X129468571Y-133374047D02*
X129373333Y-133326428D01*
X129325714Y-133231190D01*
X129325714Y-133088333D01*
X129373333Y-132993095D01*
X129468571Y-132945476D01*
X129992380Y-132945476D01*
X129992380Y-132469285D02*
X129325714Y-132469285D01*
X128992380Y-132469285D02*
X129040000Y-132516904D01*
X129087619Y-132469285D01*
X129040000Y-132421666D01*
X128992380Y-132469285D01*
X129087619Y-132469285D01*
X129325714Y-131993095D02*
X129992380Y-131993095D01*
X129420952Y-131993095D02*
X129373333Y-131945476D01*
X129325714Y-131850238D01*
X129325714Y-131707380D01*
X129373333Y-131612142D01*
X129468571Y-131564523D01*
X129992380Y-131564523D01*
X129992380Y-131088333D02*
X129325714Y-131088333D01*
X128992380Y-131088333D02*
X129040000Y-131135952D01*
X129087619Y-131088333D01*
X129040000Y-131040714D01*
X128992380Y-131088333D01*
X129087619Y-131088333D01*
X178522380Y-88391904D02*
X179331904Y-88391904D01*
X179427142Y-88344285D01*
X179474761Y-88296666D01*
X179522380Y-88201428D01*
X179522380Y-88010952D01*
X179474761Y-87915714D01*
X179427142Y-87868095D01*
X179331904Y-87820476D01*
X178522380Y-87820476D01*
X178617619Y-87391904D02*
X178570000Y-87344285D01*
X178522380Y-87249047D01*
X178522380Y-87010952D01*
X178570000Y-86915714D01*
X178617619Y-86868095D01*
X178712857Y-86820476D01*
X178808095Y-86820476D01*
X178950952Y-86868095D01*
X179522380Y-87439523D01*
X179522380Y-86820476D01*
X179792380Y-89986904D02*
X180792380Y-89748809D01*
X180078095Y-89558333D01*
X180792380Y-89367857D01*
X179792380Y-89129761D01*
X180744761Y-88367857D02*
X180792380Y-88463095D01*
X180792380Y-88653571D01*
X180744761Y-88748809D01*
X180649523Y-88796428D01*
X180268571Y-88796428D01*
X180173333Y-88748809D01*
X180125714Y-88653571D01*
X180125714Y-88463095D01*
X180173333Y-88367857D01*
X180268571Y-88320238D01*
X180363809Y-88320238D01*
X180459047Y-88796428D01*
X180792380Y-87891666D02*
X179792380Y-87891666D01*
X180506666Y-87558333D01*
X179792380Y-87225000D01*
X180792380Y-87225000D01*
X180792380Y-86605952D02*
X180744761Y-86701190D01*
X180697142Y-86748809D01*
X180601904Y-86796428D01*
X180316190Y-86796428D01*
X180220952Y-86748809D01*
X180173333Y-86701190D01*
X180125714Y-86605952D01*
X180125714Y-86463095D01*
X180173333Y-86367857D01*
X180220952Y-86320238D01*
X180316190Y-86272619D01*
X180601904Y-86272619D01*
X180697142Y-86320238D01*
X180744761Y-86367857D01*
X180792380Y-86463095D01*
X180792380Y-86605952D01*
X180744761Y-85891666D02*
X180792380Y-85796428D01*
X180792380Y-85605952D01*
X180744761Y-85510714D01*
X180649523Y-85463095D01*
X180601904Y-85463095D01*
X180506666Y-85510714D01*
X180459047Y-85605952D01*
X180459047Y-85748809D01*
X180411428Y-85844047D01*
X180316190Y-85891666D01*
X180268571Y-85891666D01*
X180173333Y-85844047D01*
X180125714Y-85748809D01*
X180125714Y-85605952D01*
X180173333Y-85510714D01*
X180887619Y-85272619D02*
X180887619Y-84510714D01*
X180792380Y-84272619D02*
X180125714Y-84272619D01*
X180220952Y-84272619D02*
X180173333Y-84225000D01*
X180125714Y-84129761D01*
X180125714Y-83986904D01*
X180173333Y-83891666D01*
X180268571Y-83844047D01*
X180792380Y-83844047D01*
X180268571Y-83844047D02*
X180173333Y-83796428D01*
X180125714Y-83701190D01*
X180125714Y-83558333D01*
X180173333Y-83463095D01*
X180268571Y-83415476D01*
X180792380Y-83415476D01*
X180792380Y-82939285D02*
X180125714Y-82939285D01*
X179792380Y-82939285D02*
X179840000Y-82986904D01*
X179887619Y-82939285D01*
X179840000Y-82891666D01*
X179792380Y-82939285D01*
X179887619Y-82939285D01*
X180125714Y-82463095D02*
X180792380Y-82463095D01*
X180220952Y-82463095D02*
X180173333Y-82415476D01*
X180125714Y-82320238D01*
X180125714Y-82177380D01*
X180173333Y-82082142D01*
X180268571Y-82034523D01*
X180792380Y-82034523D01*
X180792380Y-81558333D02*
X180125714Y-81558333D01*
X179792380Y-81558333D02*
X179840000Y-81605952D01*
X179887619Y-81558333D01*
X179840000Y-81510714D01*
X179792380Y-81558333D01*
X179887619Y-81558333D01*
G04 #@! TO.C,R3*
X194349714Y-155265380D02*
X193778285Y-155265380D01*
X194064000Y-155265380D02*
X194064000Y-154265380D01*
X193968761Y-154408238D01*
X193873523Y-154503476D01*
X193778285Y-154551095D01*
X194778285Y-155265380D02*
X194778285Y-154265380D01*
X195349714Y-155265380D02*
X194921142Y-154693952D01*
X195349714Y-154265380D02*
X194778285Y-154836809D01*
X143549714Y-155265380D02*
X142978285Y-155265380D01*
X143264000Y-155265380D02*
X143264000Y-154265380D01*
X143168761Y-154408238D01*
X143073523Y-154503476D01*
X142978285Y-154551095D01*
X143978285Y-155265380D02*
X143978285Y-154265380D01*
X144549714Y-155265380D02*
X144121142Y-154693952D01*
X144549714Y-154265380D02*
X143978285Y-154836809D01*
X194349714Y-105735380D02*
X193778285Y-105735380D01*
X194064000Y-105735380D02*
X194064000Y-104735380D01*
X193968761Y-104878238D01*
X193873523Y-104973476D01*
X193778285Y-105021095D01*
X194778285Y-105735380D02*
X194778285Y-104735380D01*
X195349714Y-105735380D02*
X194921142Y-105163952D01*
X195349714Y-104735380D02*
X194778285Y-105306809D01*
G04 #@! TO.C,D3*
X222226428Y-156415714D02*
X222226428Y-157415714D01*
X222226428Y-156463333D02*
X222321666Y-156415714D01*
X222512142Y-156415714D01*
X222607380Y-156463333D01*
X222655000Y-156510952D01*
X222702619Y-156606190D01*
X222702619Y-156891904D01*
X222655000Y-156987142D01*
X222607380Y-157034761D01*
X222512142Y-157082380D01*
X222321666Y-157082380D01*
X222226428Y-157034761D01*
X223274047Y-157082380D02*
X223178809Y-157034761D01*
X223131190Y-156987142D01*
X223083571Y-156891904D01*
X223083571Y-156606190D01*
X223131190Y-156510952D01*
X223178809Y-156463333D01*
X223274047Y-156415714D01*
X223416904Y-156415714D01*
X223512142Y-156463333D01*
X223559761Y-156510952D01*
X223607380Y-156606190D01*
X223607380Y-156891904D01*
X223559761Y-156987142D01*
X223512142Y-157034761D01*
X223416904Y-157082380D01*
X223274047Y-157082380D01*
X223940714Y-156415714D02*
X224131190Y-157082380D01*
X224321666Y-156606190D01*
X224512142Y-157082380D01*
X224702619Y-156415714D01*
X225464523Y-157034761D02*
X225369285Y-157082380D01*
X225178809Y-157082380D01*
X225083571Y-157034761D01*
X225035952Y-156939523D01*
X225035952Y-156558571D01*
X225083571Y-156463333D01*
X225178809Y-156415714D01*
X225369285Y-156415714D01*
X225464523Y-156463333D01*
X225512142Y-156558571D01*
X225512142Y-156653809D01*
X225035952Y-156749047D01*
X225940714Y-157082380D02*
X225940714Y-156415714D01*
X225940714Y-156606190D02*
X225988333Y-156510952D01*
X226035952Y-156463333D01*
X226131190Y-156415714D01*
X226226428Y-156415714D01*
X171426428Y-156415714D02*
X171426428Y-157415714D01*
X171426428Y-156463333D02*
X171521666Y-156415714D01*
X171712142Y-156415714D01*
X171807380Y-156463333D01*
X171855000Y-156510952D01*
X171902619Y-156606190D01*
X171902619Y-156891904D01*
X171855000Y-156987142D01*
X171807380Y-157034761D01*
X171712142Y-157082380D01*
X171521666Y-157082380D01*
X171426428Y-157034761D01*
X172474047Y-157082380D02*
X172378809Y-157034761D01*
X172331190Y-156987142D01*
X172283571Y-156891904D01*
X172283571Y-156606190D01*
X172331190Y-156510952D01*
X172378809Y-156463333D01*
X172474047Y-156415714D01*
X172616904Y-156415714D01*
X172712142Y-156463333D01*
X172759761Y-156510952D01*
X172807380Y-156606190D01*
X172807380Y-156891904D01*
X172759761Y-156987142D01*
X172712142Y-157034761D01*
X172616904Y-157082380D01*
X172474047Y-157082380D01*
X173140714Y-156415714D02*
X173331190Y-157082380D01*
X173521666Y-156606190D01*
X173712142Y-157082380D01*
X173902619Y-156415714D01*
X174664523Y-157034761D02*
X174569285Y-157082380D01*
X174378809Y-157082380D01*
X174283571Y-157034761D01*
X174235952Y-156939523D01*
X174235952Y-156558571D01*
X174283571Y-156463333D01*
X174378809Y-156415714D01*
X174569285Y-156415714D01*
X174664523Y-156463333D01*
X174712142Y-156558571D01*
X174712142Y-156653809D01*
X174235952Y-156749047D01*
X175140714Y-157082380D02*
X175140714Y-156415714D01*
X175140714Y-156606190D02*
X175188333Y-156510952D01*
X175235952Y-156463333D01*
X175331190Y-156415714D01*
X175426428Y-156415714D01*
X222226428Y-106885714D02*
X222226428Y-107885714D01*
X222226428Y-106933333D02*
X222321666Y-106885714D01*
X222512142Y-106885714D01*
X222607380Y-106933333D01*
X222655000Y-106980952D01*
X222702619Y-107076190D01*
X222702619Y-107361904D01*
X222655000Y-107457142D01*
X222607380Y-107504761D01*
X222512142Y-107552380D01*
X222321666Y-107552380D01*
X222226428Y-107504761D01*
X223274047Y-107552380D02*
X223178809Y-107504761D01*
X223131190Y-107457142D01*
X223083571Y-107361904D01*
X223083571Y-107076190D01*
X223131190Y-106980952D01*
X223178809Y-106933333D01*
X223274047Y-106885714D01*
X223416904Y-106885714D01*
X223512142Y-106933333D01*
X223559761Y-106980952D01*
X223607380Y-107076190D01*
X223607380Y-107361904D01*
X223559761Y-107457142D01*
X223512142Y-107504761D01*
X223416904Y-107552380D01*
X223274047Y-107552380D01*
X223940714Y-106885714D02*
X224131190Y-107552380D01*
X224321666Y-107076190D01*
X224512142Y-107552380D01*
X224702619Y-106885714D01*
X225464523Y-107504761D02*
X225369285Y-107552380D01*
X225178809Y-107552380D01*
X225083571Y-107504761D01*
X225035952Y-107409523D01*
X225035952Y-107028571D01*
X225083571Y-106933333D01*
X225178809Y-106885714D01*
X225369285Y-106885714D01*
X225464523Y-106933333D01*
X225512142Y-107028571D01*
X225512142Y-107123809D01*
X225035952Y-107219047D01*
X225940714Y-107552380D02*
X225940714Y-106885714D01*
X225940714Y-107076190D02*
X225988333Y-106980952D01*
X226035952Y-106933333D01*
X226131190Y-106885714D01*
X226226428Y-106885714D01*
G04 #@! TO.C,U1*
X189484095Y-110704380D02*
X189484095Y-111513904D01*
X189531714Y-111609142D01*
X189579333Y-111656761D01*
X189674571Y-111704380D01*
X189865047Y-111704380D01*
X189960285Y-111656761D01*
X190007904Y-111609142D01*
X190055523Y-111513904D01*
X190055523Y-110704380D01*
X191055523Y-111704380D02*
X190484095Y-111704380D01*
X190769809Y-111704380D02*
X190769809Y-110704380D01*
X190674571Y-110847238D01*
X190579333Y-110942476D01*
X190484095Y-110990095D01*
X138684095Y-110704380D02*
X138684095Y-111513904D01*
X138731714Y-111609142D01*
X138779333Y-111656761D01*
X138874571Y-111704380D01*
X139065047Y-111704380D01*
X139160285Y-111656761D01*
X139207904Y-111609142D01*
X139255523Y-111513904D01*
X139255523Y-110704380D01*
X140255523Y-111704380D02*
X139684095Y-111704380D01*
X139969809Y-111704380D02*
X139969809Y-110704380D01*
X139874571Y-110847238D01*
X139779333Y-110942476D01*
X139684095Y-110990095D01*
X189484095Y-61174380D02*
X189484095Y-61983904D01*
X189531714Y-62079142D01*
X189579333Y-62126761D01*
X189674571Y-62174380D01*
X189865047Y-62174380D01*
X189960285Y-62126761D01*
X190007904Y-62079142D01*
X190055523Y-61983904D01*
X190055523Y-61174380D01*
X191055523Y-62174380D02*
X190484095Y-62174380D01*
X190769809Y-62174380D02*
X190769809Y-61174380D01*
X190674571Y-61317238D01*
X190579333Y-61412476D01*
X190484095Y-61460095D01*
G04 #@! TO.C,D2*
X212233095Y-156415714D02*
X212471190Y-157082380D01*
X212709285Y-156415714D01*
X213518809Y-157082380D02*
X213518809Y-156558571D01*
X213471190Y-156463333D01*
X213375952Y-156415714D01*
X213185476Y-156415714D01*
X213090238Y-156463333D01*
X213518809Y-157034761D02*
X213423571Y-157082380D01*
X213185476Y-157082380D01*
X213090238Y-157034761D01*
X213042619Y-156939523D01*
X213042619Y-156844285D01*
X213090238Y-156749047D01*
X213185476Y-156701428D01*
X213423571Y-156701428D01*
X213518809Y-156653809D01*
X214137857Y-157082380D02*
X214042619Y-157034761D01*
X213995000Y-156939523D01*
X213995000Y-156082380D01*
X214423571Y-156415714D02*
X214661666Y-157082380D01*
X214899761Y-156415714D01*
X215661666Y-157034761D02*
X215566428Y-157082380D01*
X215375952Y-157082380D01*
X215280714Y-157034761D01*
X215233095Y-156939523D01*
X215233095Y-156558571D01*
X215280714Y-156463333D01*
X215375952Y-156415714D01*
X215566428Y-156415714D01*
X215661666Y-156463333D01*
X215709285Y-156558571D01*
X215709285Y-156653809D01*
X215233095Y-156749047D01*
X161433095Y-156415714D02*
X161671190Y-157082380D01*
X161909285Y-156415714D01*
X162718809Y-157082380D02*
X162718809Y-156558571D01*
X162671190Y-156463333D01*
X162575952Y-156415714D01*
X162385476Y-156415714D01*
X162290238Y-156463333D01*
X162718809Y-157034761D02*
X162623571Y-157082380D01*
X162385476Y-157082380D01*
X162290238Y-157034761D01*
X162242619Y-156939523D01*
X162242619Y-156844285D01*
X162290238Y-156749047D01*
X162385476Y-156701428D01*
X162623571Y-156701428D01*
X162718809Y-156653809D01*
X163337857Y-157082380D02*
X163242619Y-157034761D01*
X163195000Y-156939523D01*
X163195000Y-156082380D01*
X163623571Y-156415714D02*
X163861666Y-157082380D01*
X164099761Y-156415714D01*
X164861666Y-157034761D02*
X164766428Y-157082380D01*
X164575952Y-157082380D01*
X164480714Y-157034761D01*
X164433095Y-156939523D01*
X164433095Y-156558571D01*
X164480714Y-156463333D01*
X164575952Y-156415714D01*
X164766428Y-156415714D01*
X164861666Y-156463333D01*
X164909285Y-156558571D01*
X164909285Y-156653809D01*
X164433095Y-156749047D01*
X212233095Y-106885714D02*
X212471190Y-107552380D01*
X212709285Y-106885714D01*
X213518809Y-107552380D02*
X213518809Y-107028571D01*
X213471190Y-106933333D01*
X213375952Y-106885714D01*
X213185476Y-106885714D01*
X213090238Y-106933333D01*
X213518809Y-107504761D02*
X213423571Y-107552380D01*
X213185476Y-107552380D01*
X213090238Y-107504761D01*
X213042619Y-107409523D01*
X213042619Y-107314285D01*
X213090238Y-107219047D01*
X213185476Y-107171428D01*
X213423571Y-107171428D01*
X213518809Y-107123809D01*
X214137857Y-107552380D02*
X214042619Y-107504761D01*
X213995000Y-107409523D01*
X213995000Y-106552380D01*
X214423571Y-106885714D02*
X214661666Y-107552380D01*
X214899761Y-106885714D01*
X215661666Y-107504761D02*
X215566428Y-107552380D01*
X215375952Y-107552380D01*
X215280714Y-107504761D01*
X215233095Y-107409523D01*
X215233095Y-107028571D01*
X215280714Y-106933333D01*
X215375952Y-106885714D01*
X215566428Y-106885714D01*
X215661666Y-106933333D01*
X215709285Y-107028571D01*
X215709285Y-107123809D01*
X215233095Y-107219047D01*
G04 #@! TO.C,R2*
X194349714Y-152090380D02*
X193778285Y-152090380D01*
X194064000Y-152090380D02*
X194064000Y-151090380D01*
X193968761Y-151233238D01*
X193873523Y-151328476D01*
X193778285Y-151376095D01*
X194778285Y-152090380D02*
X194778285Y-151090380D01*
X195349714Y-152090380D02*
X194921142Y-151518952D01*
X195349714Y-151090380D02*
X194778285Y-151661809D01*
X143549714Y-152090380D02*
X142978285Y-152090380D01*
X143264000Y-152090380D02*
X143264000Y-151090380D01*
X143168761Y-151233238D01*
X143073523Y-151328476D01*
X142978285Y-151376095D01*
X143978285Y-152090380D02*
X143978285Y-151090380D01*
X144549714Y-152090380D02*
X144121142Y-151518952D01*
X144549714Y-151090380D02*
X143978285Y-151661809D01*
X194349714Y-102560380D02*
X193778285Y-102560380D01*
X194064000Y-102560380D02*
X194064000Y-101560380D01*
X193968761Y-101703238D01*
X193873523Y-101798476D01*
X193778285Y-101846095D01*
X194778285Y-102560380D02*
X194778285Y-101560380D01*
X195349714Y-102560380D02*
X194921142Y-101988952D01*
X195349714Y-101560380D02*
X194778285Y-102131809D01*
G04 #@! TO.C,J2*
X213447380Y-126063333D02*
X214161666Y-126063333D01*
X214304523Y-126110952D01*
X214399761Y-126206190D01*
X214447380Y-126349047D01*
X214447380Y-126444285D01*
X213542619Y-125634761D02*
X213495000Y-125587142D01*
X213447380Y-125491904D01*
X213447380Y-125253809D01*
X213495000Y-125158571D01*
X213542619Y-125110952D01*
X213637857Y-125063333D01*
X213733095Y-125063333D01*
X213875952Y-125110952D01*
X214447380Y-125682380D01*
X214447380Y-125063333D01*
X225877380Y-127420476D02*
X225877380Y-127991904D01*
X225877380Y-127706190D02*
X224877380Y-127706190D01*
X225020238Y-127801428D01*
X225115476Y-127896666D01*
X225163095Y-127991904D01*
X224972619Y-127039523D02*
X224925000Y-126991904D01*
X224877380Y-126896666D01*
X224877380Y-126658571D01*
X224925000Y-126563333D01*
X224972619Y-126515714D01*
X225067857Y-126468095D01*
X225163095Y-126468095D01*
X225305952Y-126515714D01*
X225877380Y-127087142D01*
X225877380Y-126468095D01*
X224877380Y-126182380D02*
X225877380Y-125849047D01*
X224877380Y-125515714D01*
X225877380Y-124420476D02*
X225210714Y-124420476D01*
X224877380Y-124420476D02*
X224925000Y-124468095D01*
X224972619Y-124420476D01*
X224925000Y-124372857D01*
X224877380Y-124420476D01*
X224972619Y-124420476D01*
X225210714Y-123944285D02*
X225877380Y-123944285D01*
X225305952Y-123944285D02*
X225258333Y-123896666D01*
X225210714Y-123801428D01*
X225210714Y-123658571D01*
X225258333Y-123563333D01*
X225353571Y-123515714D01*
X225877380Y-123515714D01*
X162647380Y-126063333D02*
X163361666Y-126063333D01*
X163504523Y-126110952D01*
X163599761Y-126206190D01*
X163647380Y-126349047D01*
X163647380Y-126444285D01*
X162742619Y-125634761D02*
X162695000Y-125587142D01*
X162647380Y-125491904D01*
X162647380Y-125253809D01*
X162695000Y-125158571D01*
X162742619Y-125110952D01*
X162837857Y-125063333D01*
X162933095Y-125063333D01*
X163075952Y-125110952D01*
X163647380Y-125682380D01*
X163647380Y-125063333D01*
X175077380Y-127420476D02*
X175077380Y-127991904D01*
X175077380Y-127706190D02*
X174077380Y-127706190D01*
X174220238Y-127801428D01*
X174315476Y-127896666D01*
X174363095Y-127991904D01*
X174172619Y-127039523D02*
X174125000Y-126991904D01*
X174077380Y-126896666D01*
X174077380Y-126658571D01*
X174125000Y-126563333D01*
X174172619Y-126515714D01*
X174267857Y-126468095D01*
X174363095Y-126468095D01*
X174505952Y-126515714D01*
X175077380Y-127087142D01*
X175077380Y-126468095D01*
X174077380Y-126182380D02*
X175077380Y-125849047D01*
X174077380Y-125515714D01*
X175077380Y-124420476D02*
X174410714Y-124420476D01*
X174077380Y-124420476D02*
X174125000Y-124468095D01*
X174172619Y-124420476D01*
X174125000Y-124372857D01*
X174077380Y-124420476D01*
X174172619Y-124420476D01*
X174410714Y-123944285D02*
X175077380Y-123944285D01*
X174505952Y-123944285D02*
X174458333Y-123896666D01*
X174410714Y-123801428D01*
X174410714Y-123658571D01*
X174458333Y-123563333D01*
X174553571Y-123515714D01*
X175077380Y-123515714D01*
X213447380Y-76533333D02*
X214161666Y-76533333D01*
X214304523Y-76580952D01*
X214399761Y-76676190D01*
X214447380Y-76819047D01*
X214447380Y-76914285D01*
X213542619Y-76104761D02*
X213495000Y-76057142D01*
X213447380Y-75961904D01*
X213447380Y-75723809D01*
X213495000Y-75628571D01*
X213542619Y-75580952D01*
X213637857Y-75533333D01*
X213733095Y-75533333D01*
X213875952Y-75580952D01*
X214447380Y-76152380D01*
X214447380Y-75533333D01*
X225877380Y-77890476D02*
X225877380Y-78461904D01*
X225877380Y-78176190D02*
X224877380Y-78176190D01*
X225020238Y-78271428D01*
X225115476Y-78366666D01*
X225163095Y-78461904D01*
X224972619Y-77509523D02*
X224925000Y-77461904D01*
X224877380Y-77366666D01*
X224877380Y-77128571D01*
X224925000Y-77033333D01*
X224972619Y-76985714D01*
X225067857Y-76938095D01*
X225163095Y-76938095D01*
X225305952Y-76985714D01*
X225877380Y-77557142D01*
X225877380Y-76938095D01*
X224877380Y-76652380D02*
X225877380Y-76319047D01*
X224877380Y-75985714D01*
X225877380Y-74890476D02*
X225210714Y-74890476D01*
X224877380Y-74890476D02*
X224925000Y-74938095D01*
X224972619Y-74890476D01*
X224925000Y-74842857D01*
X224877380Y-74890476D01*
X224972619Y-74890476D01*
X225210714Y-74414285D02*
X225877380Y-74414285D01*
X225305952Y-74414285D02*
X225258333Y-74366666D01*
X225210714Y-74271428D01*
X225210714Y-74128571D01*
X225258333Y-74033333D01*
X225353571Y-73985714D01*
X225877380Y-73985714D01*
G04 #@! TO.C,JP1*
X201096666Y-131532380D02*
X201096666Y-132246666D01*
X201049047Y-132389523D01*
X200953809Y-132484761D01*
X200810952Y-132532380D01*
X200715714Y-132532380D01*
X201572857Y-132532380D02*
X201572857Y-131532380D01*
X201953809Y-131532380D01*
X202049047Y-131580000D01*
X202096666Y-131627619D01*
X202144285Y-131722857D01*
X202144285Y-131865714D01*
X202096666Y-131960952D01*
X202049047Y-132008571D01*
X201953809Y-132056190D01*
X201572857Y-132056190D01*
X203096666Y-132532380D02*
X202525238Y-132532380D01*
X202810952Y-132532380D02*
X202810952Y-131532380D01*
X202715714Y-131675238D01*
X202620476Y-131770476D01*
X202525238Y-131818095D01*
X150296666Y-131532380D02*
X150296666Y-132246666D01*
X150249047Y-132389523D01*
X150153809Y-132484761D01*
X150010952Y-132532380D01*
X149915714Y-132532380D01*
X150772857Y-132532380D02*
X150772857Y-131532380D01*
X151153809Y-131532380D01*
X151249047Y-131580000D01*
X151296666Y-131627619D01*
X151344285Y-131722857D01*
X151344285Y-131865714D01*
X151296666Y-131960952D01*
X151249047Y-132008571D01*
X151153809Y-132056190D01*
X150772857Y-132056190D01*
X152296666Y-132532380D02*
X151725238Y-132532380D01*
X152010952Y-132532380D02*
X152010952Y-131532380D01*
X151915714Y-131675238D01*
X151820476Y-131770476D01*
X151725238Y-131818095D01*
X201096666Y-82002380D02*
X201096666Y-82716666D01*
X201049047Y-82859523D01*
X200953809Y-82954761D01*
X200810952Y-83002380D01*
X200715714Y-83002380D01*
X201572857Y-83002380D02*
X201572857Y-82002380D01*
X201953809Y-82002380D01*
X202049047Y-82050000D01*
X202096666Y-82097619D01*
X202144285Y-82192857D01*
X202144285Y-82335714D01*
X202096666Y-82430952D01*
X202049047Y-82478571D01*
X201953809Y-82526190D01*
X201572857Y-82526190D01*
X203096666Y-83002380D02*
X202525238Y-83002380D01*
X202810952Y-83002380D02*
X202810952Y-82002380D01*
X202715714Y-82145238D01*
X202620476Y-82240476D01*
X202525238Y-82288095D01*
G04 #@! TO.C,D1*
X211142380Y-115038095D02*
X210142380Y-115038095D01*
X210142380Y-114800000D01*
X210190000Y-114657142D01*
X210285238Y-114561904D01*
X210380476Y-114514285D01*
X210570952Y-114466666D01*
X210713809Y-114466666D01*
X210904285Y-114514285D01*
X210999523Y-114561904D01*
X211094761Y-114657142D01*
X211142380Y-114800000D01*
X211142380Y-115038095D01*
X211142380Y-113514285D02*
X211142380Y-114085714D01*
X211142380Y-113800000D02*
X210142380Y-113800000D01*
X210285238Y-113895238D01*
X210380476Y-113990476D01*
X210428095Y-114085714D01*
X160342380Y-115038095D02*
X159342380Y-115038095D01*
X159342380Y-114800000D01*
X159390000Y-114657142D01*
X159485238Y-114561904D01*
X159580476Y-114514285D01*
X159770952Y-114466666D01*
X159913809Y-114466666D01*
X160104285Y-114514285D01*
X160199523Y-114561904D01*
X160294761Y-114657142D01*
X160342380Y-114800000D01*
X160342380Y-115038095D01*
X160342380Y-113514285D02*
X160342380Y-114085714D01*
X160342380Y-113800000D02*
X159342380Y-113800000D01*
X159485238Y-113895238D01*
X159580476Y-113990476D01*
X159628095Y-114085714D01*
X211142380Y-65508095D02*
X210142380Y-65508095D01*
X210142380Y-65270000D01*
X210190000Y-65127142D01*
X210285238Y-65031904D01*
X210380476Y-64984285D01*
X210570952Y-64936666D01*
X210713809Y-64936666D01*
X210904285Y-64984285D01*
X210999523Y-65031904D01*
X211094761Y-65127142D01*
X211142380Y-65270000D01*
X211142380Y-65508095D01*
X211142380Y-63984285D02*
X211142380Y-64555714D01*
X211142380Y-64270000D02*
X210142380Y-64270000D01*
X210285238Y-64365238D01*
X210380476Y-64460476D01*
X210428095Y-64555714D01*
G04 #@! TO.C,U3*
X214884095Y-144994380D02*
X214884095Y-145803904D01*
X214931714Y-145899142D01*
X214979333Y-145946761D01*
X215074571Y-145994380D01*
X215265047Y-145994380D01*
X215360285Y-145946761D01*
X215407904Y-145899142D01*
X215455523Y-145803904D01*
X215455523Y-144994380D01*
X215836476Y-144994380D02*
X216455523Y-144994380D01*
X216122190Y-145375333D01*
X216265047Y-145375333D01*
X216360285Y-145422952D01*
X216407904Y-145470571D01*
X216455523Y-145565809D01*
X216455523Y-145803904D01*
X216407904Y-145899142D01*
X216360285Y-145946761D01*
X216265047Y-145994380D01*
X215979333Y-145994380D01*
X215884095Y-145946761D01*
X215836476Y-145899142D01*
X217424095Y-144026000D02*
X217328857Y-143978380D01*
X217186000Y-143978380D01*
X217043142Y-144026000D01*
X216947904Y-144121238D01*
X216900285Y-144216476D01*
X216852666Y-144406952D01*
X216852666Y-144549809D01*
X216900285Y-144740285D01*
X216947904Y-144835523D01*
X217043142Y-144930761D01*
X217186000Y-144978380D01*
X217281238Y-144978380D01*
X217424095Y-144930761D01*
X217471714Y-144883142D01*
X217471714Y-144549809D01*
X217281238Y-144549809D01*
X217900285Y-144978380D02*
X217900285Y-143978380D01*
X218471714Y-144978380D01*
X218471714Y-143978380D01*
X218947904Y-144978380D02*
X218947904Y-143978380D01*
X219186000Y-143978380D01*
X219328857Y-144026000D01*
X219424095Y-144121238D01*
X219471714Y-144216476D01*
X219519333Y-144406952D01*
X219519333Y-144549809D01*
X219471714Y-144740285D01*
X219424095Y-144835523D01*
X219328857Y-144930761D01*
X219186000Y-144978380D01*
X218947904Y-144978380D01*
X220464095Y-144978380D02*
X220464095Y-143978380D01*
X220702190Y-143978380D01*
X220845047Y-144026000D01*
X220940285Y-144121238D01*
X220987904Y-144216476D01*
X221035523Y-144406952D01*
X221035523Y-144549809D01*
X220987904Y-144740285D01*
X220940285Y-144835523D01*
X220845047Y-144930761D01*
X220702190Y-144978380D01*
X220464095Y-144978380D01*
X221932666Y-143978380D02*
X222266000Y-144978380D01*
X222599333Y-143978380D01*
X223504095Y-144883142D02*
X223456476Y-144930761D01*
X223313619Y-144978380D01*
X223218380Y-144978380D01*
X223075523Y-144930761D01*
X222980285Y-144835523D01*
X222932666Y-144740285D01*
X222885047Y-144549809D01*
X222885047Y-144406952D01*
X222932666Y-144216476D01*
X222980285Y-144121238D01*
X223075523Y-144026000D01*
X223218380Y-143978380D01*
X223313619Y-143978380D01*
X223456476Y-144026000D01*
X223504095Y-144073619D01*
X224504095Y-144883142D02*
X224456476Y-144930761D01*
X224313619Y-144978380D01*
X224218380Y-144978380D01*
X224075523Y-144930761D01*
X223980285Y-144835523D01*
X223932666Y-144740285D01*
X223885047Y-144549809D01*
X223885047Y-144406952D01*
X223932666Y-144216476D01*
X223980285Y-144121238D01*
X224075523Y-144026000D01*
X224218380Y-143978380D01*
X224313619Y-143978380D01*
X224456476Y-144026000D01*
X224504095Y-144073619D01*
X164084095Y-144994380D02*
X164084095Y-145803904D01*
X164131714Y-145899142D01*
X164179333Y-145946761D01*
X164274571Y-145994380D01*
X164465047Y-145994380D01*
X164560285Y-145946761D01*
X164607904Y-145899142D01*
X164655523Y-145803904D01*
X164655523Y-144994380D01*
X165036476Y-144994380D02*
X165655523Y-144994380D01*
X165322190Y-145375333D01*
X165465047Y-145375333D01*
X165560285Y-145422952D01*
X165607904Y-145470571D01*
X165655523Y-145565809D01*
X165655523Y-145803904D01*
X165607904Y-145899142D01*
X165560285Y-145946761D01*
X165465047Y-145994380D01*
X165179333Y-145994380D01*
X165084095Y-145946761D01*
X165036476Y-145899142D01*
X166624095Y-144026000D02*
X166528857Y-143978380D01*
X166386000Y-143978380D01*
X166243142Y-144026000D01*
X166147904Y-144121238D01*
X166100285Y-144216476D01*
X166052666Y-144406952D01*
X166052666Y-144549809D01*
X166100285Y-144740285D01*
X166147904Y-144835523D01*
X166243142Y-144930761D01*
X166386000Y-144978380D01*
X166481238Y-144978380D01*
X166624095Y-144930761D01*
X166671714Y-144883142D01*
X166671714Y-144549809D01*
X166481238Y-144549809D01*
X167100285Y-144978380D02*
X167100285Y-143978380D01*
X167671714Y-144978380D01*
X167671714Y-143978380D01*
X168147904Y-144978380D02*
X168147904Y-143978380D01*
X168386000Y-143978380D01*
X168528857Y-144026000D01*
X168624095Y-144121238D01*
X168671714Y-144216476D01*
X168719333Y-144406952D01*
X168719333Y-144549809D01*
X168671714Y-144740285D01*
X168624095Y-144835523D01*
X168528857Y-144930761D01*
X168386000Y-144978380D01*
X168147904Y-144978380D01*
X169664095Y-144978380D02*
X169664095Y-143978380D01*
X169902190Y-143978380D01*
X170045047Y-144026000D01*
X170140285Y-144121238D01*
X170187904Y-144216476D01*
X170235523Y-144406952D01*
X170235523Y-144549809D01*
X170187904Y-144740285D01*
X170140285Y-144835523D01*
X170045047Y-144930761D01*
X169902190Y-144978380D01*
X169664095Y-144978380D01*
X171132666Y-143978380D02*
X171466000Y-144978380D01*
X171799333Y-143978380D01*
X172704095Y-144883142D02*
X172656476Y-144930761D01*
X172513619Y-144978380D01*
X172418380Y-144978380D01*
X172275523Y-144930761D01*
X172180285Y-144835523D01*
X172132666Y-144740285D01*
X172085047Y-144549809D01*
X172085047Y-144406952D01*
X172132666Y-144216476D01*
X172180285Y-144121238D01*
X172275523Y-144026000D01*
X172418380Y-143978380D01*
X172513619Y-143978380D01*
X172656476Y-144026000D01*
X172704095Y-144073619D01*
X173704095Y-144883142D02*
X173656476Y-144930761D01*
X173513619Y-144978380D01*
X173418380Y-144978380D01*
X173275523Y-144930761D01*
X173180285Y-144835523D01*
X173132666Y-144740285D01*
X173085047Y-144549809D01*
X173085047Y-144406952D01*
X173132666Y-144216476D01*
X173180285Y-144121238D01*
X173275523Y-144026000D01*
X173418380Y-143978380D01*
X173513619Y-143978380D01*
X173656476Y-144026000D01*
X173704095Y-144073619D01*
X214884095Y-95464380D02*
X214884095Y-96273904D01*
X214931714Y-96369142D01*
X214979333Y-96416761D01*
X215074571Y-96464380D01*
X215265047Y-96464380D01*
X215360285Y-96416761D01*
X215407904Y-96369142D01*
X215455523Y-96273904D01*
X215455523Y-95464380D01*
X215836476Y-95464380D02*
X216455523Y-95464380D01*
X216122190Y-95845333D01*
X216265047Y-95845333D01*
X216360285Y-95892952D01*
X216407904Y-95940571D01*
X216455523Y-96035809D01*
X216455523Y-96273904D01*
X216407904Y-96369142D01*
X216360285Y-96416761D01*
X216265047Y-96464380D01*
X215979333Y-96464380D01*
X215884095Y-96416761D01*
X215836476Y-96369142D01*
X217424095Y-94496000D02*
X217328857Y-94448380D01*
X217186000Y-94448380D01*
X217043142Y-94496000D01*
X216947904Y-94591238D01*
X216900285Y-94686476D01*
X216852666Y-94876952D01*
X216852666Y-95019809D01*
X216900285Y-95210285D01*
X216947904Y-95305523D01*
X217043142Y-95400761D01*
X217186000Y-95448380D01*
X217281238Y-95448380D01*
X217424095Y-95400761D01*
X217471714Y-95353142D01*
X217471714Y-95019809D01*
X217281238Y-95019809D01*
X217900285Y-95448380D02*
X217900285Y-94448380D01*
X218471714Y-95448380D01*
X218471714Y-94448380D01*
X218947904Y-95448380D02*
X218947904Y-94448380D01*
X219186000Y-94448380D01*
X219328857Y-94496000D01*
X219424095Y-94591238D01*
X219471714Y-94686476D01*
X219519333Y-94876952D01*
X219519333Y-95019809D01*
X219471714Y-95210285D01*
X219424095Y-95305523D01*
X219328857Y-95400761D01*
X219186000Y-95448380D01*
X218947904Y-95448380D01*
X220464095Y-95448380D02*
X220464095Y-94448380D01*
X220702190Y-94448380D01*
X220845047Y-94496000D01*
X220940285Y-94591238D01*
X220987904Y-94686476D01*
X221035523Y-94876952D01*
X221035523Y-95019809D01*
X220987904Y-95210285D01*
X220940285Y-95305523D01*
X220845047Y-95400761D01*
X220702190Y-95448380D01*
X220464095Y-95448380D01*
X221932666Y-94448380D02*
X222266000Y-95448380D01*
X222599333Y-94448380D01*
X223504095Y-95353142D02*
X223456476Y-95400761D01*
X223313619Y-95448380D01*
X223218380Y-95448380D01*
X223075523Y-95400761D01*
X222980285Y-95305523D01*
X222932666Y-95210285D01*
X222885047Y-95019809D01*
X222885047Y-94876952D01*
X222932666Y-94686476D01*
X222980285Y-94591238D01*
X223075523Y-94496000D01*
X223218380Y-94448380D01*
X223313619Y-94448380D01*
X223456476Y-94496000D01*
X223504095Y-94543619D01*
X224504095Y-95353142D02*
X224456476Y-95400761D01*
X224313619Y-95448380D01*
X224218380Y-95448380D01*
X224075523Y-95400761D01*
X223980285Y-95305523D01*
X223932666Y-95210285D01*
X223885047Y-95019809D01*
X223885047Y-94876952D01*
X223932666Y-94686476D01*
X223980285Y-94591238D01*
X224075523Y-94496000D01*
X224218380Y-94448380D01*
X224313619Y-94448380D01*
X224456476Y-94496000D01*
X224504095Y-94543619D01*
G04 #@! TO.C,R6*
X182856285Y-154725714D02*
X182856285Y-155392380D01*
X182618190Y-154344761D02*
X182380095Y-155059047D01*
X182999142Y-155059047D01*
X183380095Y-155392380D02*
X183380095Y-154392380D01*
X183951523Y-155392380D02*
X183522952Y-154820952D01*
X183951523Y-154392380D02*
X183380095Y-154963809D01*
X184284857Y-154392380D02*
X184951523Y-154392380D01*
X184522952Y-155392380D01*
X132056285Y-154725714D02*
X132056285Y-155392380D01*
X131818190Y-154344761D02*
X131580095Y-155059047D01*
X132199142Y-155059047D01*
X132580095Y-155392380D02*
X132580095Y-154392380D01*
X133151523Y-155392380D02*
X132722952Y-154820952D01*
X133151523Y-154392380D02*
X132580095Y-154963809D01*
X133484857Y-154392380D02*
X134151523Y-154392380D01*
X133722952Y-155392380D01*
X182856285Y-105195714D02*
X182856285Y-105862380D01*
X182618190Y-104814761D02*
X182380095Y-105529047D01*
X182999142Y-105529047D01*
X183380095Y-105862380D02*
X183380095Y-104862380D01*
X183951523Y-105862380D02*
X183522952Y-105290952D01*
X183951523Y-104862380D02*
X183380095Y-105433809D01*
X184284857Y-104862380D02*
X184951523Y-104862380D01*
X184522952Y-105862380D01*
G04 #@! TO.C,J3*
X213574380Y-137493333D02*
X214288666Y-137493333D01*
X214431523Y-137540952D01*
X214526761Y-137636190D01*
X214574380Y-137779047D01*
X214574380Y-137874285D01*
X213574380Y-137112380D02*
X213574380Y-136493333D01*
X213955333Y-136826666D01*
X213955333Y-136683809D01*
X214002952Y-136588571D01*
X214050571Y-136540952D01*
X214145809Y-136493333D01*
X214383904Y-136493333D01*
X214479142Y-136540952D01*
X214526761Y-136588571D01*
X214574380Y-136683809D01*
X214574380Y-136969523D01*
X214526761Y-137064761D01*
X214479142Y-137112380D01*
X225448761Y-138848571D02*
X225496380Y-138753333D01*
X225496380Y-138562857D01*
X225448761Y-138467619D01*
X225353523Y-138420000D01*
X225305904Y-138420000D01*
X225210666Y-138467619D01*
X225163047Y-138562857D01*
X225163047Y-138705714D01*
X225115428Y-138800952D01*
X225020190Y-138848571D01*
X224972571Y-138848571D01*
X224877333Y-138800952D01*
X224829714Y-138705714D01*
X224829714Y-138562857D01*
X224877333Y-138467619D01*
X225448761Y-137610476D02*
X225496380Y-137705714D01*
X225496380Y-137896190D01*
X225448761Y-137991428D01*
X225353523Y-138039047D01*
X224972571Y-138039047D01*
X224877333Y-137991428D01*
X224829714Y-137896190D01*
X224829714Y-137705714D01*
X224877333Y-137610476D01*
X224972571Y-137562857D01*
X225067809Y-137562857D01*
X225163047Y-138039047D01*
X224829714Y-137134285D02*
X225496380Y-137134285D01*
X224924952Y-137134285D02*
X224877333Y-137086666D01*
X224829714Y-136991428D01*
X224829714Y-136848571D01*
X224877333Y-136753333D01*
X224972571Y-136705714D01*
X225496380Y-136705714D01*
X225448761Y-136277142D02*
X225496380Y-136181904D01*
X225496380Y-135991428D01*
X225448761Y-135896190D01*
X225353523Y-135848571D01*
X225305904Y-135848571D01*
X225210666Y-135896190D01*
X225163047Y-135991428D01*
X225163047Y-136134285D01*
X225115428Y-136229523D01*
X225020190Y-136277142D01*
X224972571Y-136277142D01*
X224877333Y-136229523D01*
X224829714Y-136134285D01*
X224829714Y-135991428D01*
X224877333Y-135896190D01*
X225448761Y-135039047D02*
X225496380Y-135134285D01*
X225496380Y-135324761D01*
X225448761Y-135420000D01*
X225353523Y-135467619D01*
X224972571Y-135467619D01*
X224877333Y-135420000D01*
X224829714Y-135324761D01*
X224829714Y-135134285D01*
X224877333Y-135039047D01*
X224972571Y-134991428D01*
X225067809Y-134991428D01*
X225163047Y-135467619D01*
X162774380Y-137493333D02*
X163488666Y-137493333D01*
X163631523Y-137540952D01*
X163726761Y-137636190D01*
X163774380Y-137779047D01*
X163774380Y-137874285D01*
X162774380Y-137112380D02*
X162774380Y-136493333D01*
X163155333Y-136826666D01*
X163155333Y-136683809D01*
X163202952Y-136588571D01*
X163250571Y-136540952D01*
X163345809Y-136493333D01*
X163583904Y-136493333D01*
X163679142Y-136540952D01*
X163726761Y-136588571D01*
X163774380Y-136683809D01*
X163774380Y-136969523D01*
X163726761Y-137064761D01*
X163679142Y-137112380D01*
X174648761Y-138848571D02*
X174696380Y-138753333D01*
X174696380Y-138562857D01*
X174648761Y-138467619D01*
X174553523Y-138420000D01*
X174505904Y-138420000D01*
X174410666Y-138467619D01*
X174363047Y-138562857D01*
X174363047Y-138705714D01*
X174315428Y-138800952D01*
X174220190Y-138848571D01*
X174172571Y-138848571D01*
X174077333Y-138800952D01*
X174029714Y-138705714D01*
X174029714Y-138562857D01*
X174077333Y-138467619D01*
X174648761Y-137610476D02*
X174696380Y-137705714D01*
X174696380Y-137896190D01*
X174648761Y-137991428D01*
X174553523Y-138039047D01*
X174172571Y-138039047D01*
X174077333Y-137991428D01*
X174029714Y-137896190D01*
X174029714Y-137705714D01*
X174077333Y-137610476D01*
X174172571Y-137562857D01*
X174267809Y-137562857D01*
X174363047Y-138039047D01*
X174029714Y-137134285D02*
X174696380Y-137134285D01*
X174124952Y-137134285D02*
X174077333Y-137086666D01*
X174029714Y-136991428D01*
X174029714Y-136848571D01*
X174077333Y-136753333D01*
X174172571Y-136705714D01*
X174696380Y-136705714D01*
X174648761Y-136277142D02*
X174696380Y-136181904D01*
X174696380Y-135991428D01*
X174648761Y-135896190D01*
X174553523Y-135848571D01*
X174505904Y-135848571D01*
X174410666Y-135896190D01*
X174363047Y-135991428D01*
X174363047Y-136134285D01*
X174315428Y-136229523D01*
X174220190Y-136277142D01*
X174172571Y-136277142D01*
X174077333Y-136229523D01*
X174029714Y-136134285D01*
X174029714Y-135991428D01*
X174077333Y-135896190D01*
X174648761Y-135039047D02*
X174696380Y-135134285D01*
X174696380Y-135324761D01*
X174648761Y-135420000D01*
X174553523Y-135467619D01*
X174172571Y-135467619D01*
X174077333Y-135420000D01*
X174029714Y-135324761D01*
X174029714Y-135134285D01*
X174077333Y-135039047D01*
X174172571Y-134991428D01*
X174267809Y-134991428D01*
X174363047Y-135467619D01*
X213574380Y-87963333D02*
X214288666Y-87963333D01*
X214431523Y-88010952D01*
X214526761Y-88106190D01*
X214574380Y-88249047D01*
X214574380Y-88344285D01*
X213574380Y-87582380D02*
X213574380Y-86963333D01*
X213955333Y-87296666D01*
X213955333Y-87153809D01*
X214002952Y-87058571D01*
X214050571Y-87010952D01*
X214145809Y-86963333D01*
X214383904Y-86963333D01*
X214479142Y-87010952D01*
X214526761Y-87058571D01*
X214574380Y-87153809D01*
X214574380Y-87439523D01*
X214526761Y-87534761D01*
X214479142Y-87582380D01*
X225448761Y-89318571D02*
X225496380Y-89223333D01*
X225496380Y-89032857D01*
X225448761Y-88937619D01*
X225353523Y-88890000D01*
X225305904Y-88890000D01*
X225210666Y-88937619D01*
X225163047Y-89032857D01*
X225163047Y-89175714D01*
X225115428Y-89270952D01*
X225020190Y-89318571D01*
X224972571Y-89318571D01*
X224877333Y-89270952D01*
X224829714Y-89175714D01*
X224829714Y-89032857D01*
X224877333Y-88937619D01*
X225448761Y-88080476D02*
X225496380Y-88175714D01*
X225496380Y-88366190D01*
X225448761Y-88461428D01*
X225353523Y-88509047D01*
X224972571Y-88509047D01*
X224877333Y-88461428D01*
X224829714Y-88366190D01*
X224829714Y-88175714D01*
X224877333Y-88080476D01*
X224972571Y-88032857D01*
X225067809Y-88032857D01*
X225163047Y-88509047D01*
X224829714Y-87604285D02*
X225496380Y-87604285D01*
X224924952Y-87604285D02*
X224877333Y-87556666D01*
X224829714Y-87461428D01*
X224829714Y-87318571D01*
X224877333Y-87223333D01*
X224972571Y-87175714D01*
X225496380Y-87175714D01*
X225448761Y-86747142D02*
X225496380Y-86651904D01*
X225496380Y-86461428D01*
X225448761Y-86366190D01*
X225353523Y-86318571D01*
X225305904Y-86318571D01*
X225210666Y-86366190D01*
X225163047Y-86461428D01*
X225163047Y-86604285D01*
X225115428Y-86699523D01*
X225020190Y-86747142D01*
X224972571Y-86747142D01*
X224877333Y-86699523D01*
X224829714Y-86604285D01*
X224829714Y-86461428D01*
X224877333Y-86366190D01*
X225448761Y-85509047D02*
X225496380Y-85604285D01*
X225496380Y-85794761D01*
X225448761Y-85890000D01*
X225353523Y-85937619D01*
X224972571Y-85937619D01*
X224877333Y-85890000D01*
X224829714Y-85794761D01*
X224829714Y-85604285D01*
X224877333Y-85509047D01*
X224972571Y-85461428D01*
X225067809Y-85461428D01*
X225163047Y-85937619D01*
G04 #@! TO.C,R4*
X204247904Y-154487619D02*
X204295523Y-154440000D01*
X204390761Y-154392380D01*
X204628857Y-154392380D01*
X204724095Y-154440000D01*
X204771714Y-154487619D01*
X204819333Y-154582857D01*
X204819333Y-154678095D01*
X204771714Y-154820952D01*
X204200285Y-155392380D01*
X204819333Y-155392380D01*
X205676476Y-154725714D02*
X205676476Y-155392380D01*
X205438380Y-154344761D02*
X205200285Y-155059047D01*
X205819333Y-155059047D01*
X206390761Y-154392380D02*
X206486000Y-154392380D01*
X206581238Y-154440000D01*
X206628857Y-154487619D01*
X206676476Y-154582857D01*
X206724095Y-154773333D01*
X206724095Y-155011428D01*
X206676476Y-155201904D01*
X206628857Y-155297142D01*
X206581238Y-155344761D01*
X206486000Y-155392380D01*
X206390761Y-155392380D01*
X206295523Y-155344761D01*
X206247904Y-155297142D01*
X206200285Y-155201904D01*
X206152666Y-155011428D01*
X206152666Y-154773333D01*
X206200285Y-154582857D01*
X206247904Y-154487619D01*
X206295523Y-154440000D01*
X206390761Y-154392380D01*
X153447904Y-154487619D02*
X153495523Y-154440000D01*
X153590761Y-154392380D01*
X153828857Y-154392380D01*
X153924095Y-154440000D01*
X153971714Y-154487619D01*
X154019333Y-154582857D01*
X154019333Y-154678095D01*
X153971714Y-154820952D01*
X153400285Y-155392380D01*
X154019333Y-155392380D01*
X154876476Y-154725714D02*
X154876476Y-155392380D01*
X154638380Y-154344761D02*
X154400285Y-155059047D01*
X155019333Y-155059047D01*
X155590761Y-154392380D02*
X155686000Y-154392380D01*
X155781238Y-154440000D01*
X155828857Y-154487619D01*
X155876476Y-154582857D01*
X155924095Y-154773333D01*
X155924095Y-155011428D01*
X155876476Y-155201904D01*
X155828857Y-155297142D01*
X155781238Y-155344761D01*
X155686000Y-155392380D01*
X155590761Y-155392380D01*
X155495523Y-155344761D01*
X155447904Y-155297142D01*
X155400285Y-155201904D01*
X155352666Y-155011428D01*
X155352666Y-154773333D01*
X155400285Y-154582857D01*
X155447904Y-154487619D01*
X155495523Y-154440000D01*
X155590761Y-154392380D01*
X204247904Y-104957619D02*
X204295523Y-104910000D01*
X204390761Y-104862380D01*
X204628857Y-104862380D01*
X204724095Y-104910000D01*
X204771714Y-104957619D01*
X204819333Y-105052857D01*
X204819333Y-105148095D01*
X204771714Y-105290952D01*
X204200285Y-105862380D01*
X204819333Y-105862380D01*
X205676476Y-105195714D02*
X205676476Y-105862380D01*
X205438380Y-104814761D02*
X205200285Y-105529047D01*
X205819333Y-105529047D01*
X206390761Y-104862380D02*
X206486000Y-104862380D01*
X206581238Y-104910000D01*
X206628857Y-104957619D01*
X206676476Y-105052857D01*
X206724095Y-105243333D01*
X206724095Y-105481428D01*
X206676476Y-105671904D01*
X206628857Y-105767142D01*
X206581238Y-105814761D01*
X206486000Y-105862380D01*
X206390761Y-105862380D01*
X206295523Y-105814761D01*
X206247904Y-105767142D01*
X206200285Y-105671904D01*
X206152666Y-105481428D01*
X206152666Y-105243333D01*
X206200285Y-105052857D01*
X206247904Y-104957619D01*
X206295523Y-104910000D01*
X206390761Y-104862380D01*
G04 #@! TO.C,D4*
X217884523Y-157082380D02*
X217884523Y-156415714D01*
X217884523Y-156082380D02*
X217836904Y-156130000D01*
X217884523Y-156177619D01*
X217932142Y-156130000D01*
X217884523Y-156082380D01*
X217884523Y-156177619D01*
X218360714Y-156415714D02*
X218360714Y-157082380D01*
X218360714Y-156510952D02*
X218408333Y-156463333D01*
X218503571Y-156415714D01*
X218646428Y-156415714D01*
X218741666Y-156463333D01*
X218789285Y-156558571D01*
X218789285Y-157082380D01*
X219122619Y-156415714D02*
X219503571Y-156415714D01*
X219265476Y-157082380D02*
X219265476Y-156225238D01*
X219313095Y-156130000D01*
X219408333Y-156082380D01*
X219503571Y-156082380D01*
X219979761Y-157082380D02*
X219884523Y-157034761D01*
X219836904Y-156987142D01*
X219789285Y-156891904D01*
X219789285Y-156606190D01*
X219836904Y-156510952D01*
X219884523Y-156463333D01*
X219979761Y-156415714D01*
X220122619Y-156415714D01*
X220217857Y-156463333D01*
X220265476Y-156510952D01*
X220313095Y-156606190D01*
X220313095Y-156891904D01*
X220265476Y-156987142D01*
X220217857Y-157034761D01*
X220122619Y-157082380D01*
X219979761Y-157082380D01*
X167084523Y-157082380D02*
X167084523Y-156415714D01*
X167084523Y-156082380D02*
X167036904Y-156130000D01*
X167084523Y-156177619D01*
X167132142Y-156130000D01*
X167084523Y-156082380D01*
X167084523Y-156177619D01*
X167560714Y-156415714D02*
X167560714Y-157082380D01*
X167560714Y-156510952D02*
X167608333Y-156463333D01*
X167703571Y-156415714D01*
X167846428Y-156415714D01*
X167941666Y-156463333D01*
X167989285Y-156558571D01*
X167989285Y-157082380D01*
X168322619Y-156415714D02*
X168703571Y-156415714D01*
X168465476Y-157082380D02*
X168465476Y-156225238D01*
X168513095Y-156130000D01*
X168608333Y-156082380D01*
X168703571Y-156082380D01*
X169179761Y-157082380D02*
X169084523Y-157034761D01*
X169036904Y-156987142D01*
X168989285Y-156891904D01*
X168989285Y-156606190D01*
X169036904Y-156510952D01*
X169084523Y-156463333D01*
X169179761Y-156415714D01*
X169322619Y-156415714D01*
X169417857Y-156463333D01*
X169465476Y-156510952D01*
X169513095Y-156606190D01*
X169513095Y-156891904D01*
X169465476Y-156987142D01*
X169417857Y-157034761D01*
X169322619Y-157082380D01*
X169179761Y-157082380D01*
X217884523Y-107552380D02*
X217884523Y-106885714D01*
X217884523Y-106552380D02*
X217836904Y-106600000D01*
X217884523Y-106647619D01*
X217932142Y-106600000D01*
X217884523Y-106552380D01*
X217884523Y-106647619D01*
X218360714Y-106885714D02*
X218360714Y-107552380D01*
X218360714Y-106980952D02*
X218408333Y-106933333D01*
X218503571Y-106885714D01*
X218646428Y-106885714D01*
X218741666Y-106933333D01*
X218789285Y-107028571D01*
X218789285Y-107552380D01*
X219122619Y-106885714D02*
X219503571Y-106885714D01*
X219265476Y-107552380D02*
X219265476Y-106695238D01*
X219313095Y-106600000D01*
X219408333Y-106552380D01*
X219503571Y-106552380D01*
X219979761Y-107552380D02*
X219884523Y-107504761D01*
X219836904Y-107457142D01*
X219789285Y-107361904D01*
X219789285Y-107076190D01*
X219836904Y-106980952D01*
X219884523Y-106933333D01*
X219979761Y-106885714D01*
X220122619Y-106885714D01*
X220217857Y-106933333D01*
X220265476Y-106980952D01*
X220313095Y-107076190D01*
X220313095Y-107361904D01*
X220265476Y-107457142D01*
X220217857Y-107504761D01*
X220122619Y-107552380D01*
X219979761Y-107552380D01*
G04 #@! TO.C,J1*
X213447380Y-114633333D02*
X214161666Y-114633333D01*
X214304523Y-114680952D01*
X214399761Y-114776190D01*
X214447380Y-114919047D01*
X214447380Y-115014285D01*
X214447380Y-113633333D02*
X214447380Y-114204761D01*
X214447380Y-113919047D02*
X213447380Y-113919047D01*
X213590238Y-114014285D01*
X213685476Y-114109523D01*
X213733095Y-114204761D01*
X225210714Y-117633333D02*
X225877380Y-117395238D01*
X225210714Y-117157142D01*
X225877380Y-116347619D02*
X225353571Y-116347619D01*
X225258333Y-116395238D01*
X225210714Y-116490476D01*
X225210714Y-116680952D01*
X225258333Y-116776190D01*
X225829761Y-116347619D02*
X225877380Y-116442857D01*
X225877380Y-116680952D01*
X225829761Y-116776190D01*
X225734523Y-116823809D01*
X225639285Y-116823809D01*
X225544047Y-116776190D01*
X225496428Y-116680952D01*
X225496428Y-116442857D01*
X225448809Y-116347619D01*
X225877380Y-115728571D02*
X225829761Y-115823809D01*
X225734523Y-115871428D01*
X224877380Y-115871428D01*
X225210714Y-115442857D02*
X225877380Y-115204761D01*
X225210714Y-114966666D01*
X225829761Y-114204761D02*
X225877380Y-114300000D01*
X225877380Y-114490476D01*
X225829761Y-114585714D01*
X225734523Y-114633333D01*
X225353571Y-114633333D01*
X225258333Y-114585714D01*
X225210714Y-114490476D01*
X225210714Y-114300000D01*
X225258333Y-114204761D01*
X225353571Y-114157142D01*
X225448809Y-114157142D01*
X225544047Y-114633333D01*
X225877380Y-112823809D02*
X225829761Y-112919047D01*
X225782142Y-112966666D01*
X225686904Y-113014285D01*
X225401190Y-113014285D01*
X225305952Y-112966666D01*
X225258333Y-112919047D01*
X225210714Y-112823809D01*
X225210714Y-112680952D01*
X225258333Y-112585714D01*
X225305952Y-112538095D01*
X225401190Y-112490476D01*
X225686904Y-112490476D01*
X225782142Y-112538095D01*
X225829761Y-112585714D01*
X225877380Y-112680952D01*
X225877380Y-112823809D01*
X225210714Y-111633333D02*
X225877380Y-111633333D01*
X225210714Y-112061904D02*
X225734523Y-112061904D01*
X225829761Y-112014285D01*
X225877380Y-111919047D01*
X225877380Y-111776190D01*
X225829761Y-111680952D01*
X225782142Y-111633333D01*
X225210714Y-111300000D02*
X225210714Y-110919047D01*
X224877380Y-111157142D02*
X225734523Y-111157142D01*
X225829761Y-111109523D01*
X225877380Y-111014285D01*
X225877380Y-110919047D01*
X162647380Y-114633333D02*
X163361666Y-114633333D01*
X163504523Y-114680952D01*
X163599761Y-114776190D01*
X163647380Y-114919047D01*
X163647380Y-115014285D01*
X163647380Y-113633333D02*
X163647380Y-114204761D01*
X163647380Y-113919047D02*
X162647380Y-113919047D01*
X162790238Y-114014285D01*
X162885476Y-114109523D01*
X162933095Y-114204761D01*
X174410714Y-117633333D02*
X175077380Y-117395238D01*
X174410714Y-117157142D01*
X175077380Y-116347619D02*
X174553571Y-116347619D01*
X174458333Y-116395238D01*
X174410714Y-116490476D01*
X174410714Y-116680952D01*
X174458333Y-116776190D01*
X175029761Y-116347619D02*
X175077380Y-116442857D01*
X175077380Y-116680952D01*
X175029761Y-116776190D01*
X174934523Y-116823809D01*
X174839285Y-116823809D01*
X174744047Y-116776190D01*
X174696428Y-116680952D01*
X174696428Y-116442857D01*
X174648809Y-116347619D01*
X175077380Y-115728571D02*
X175029761Y-115823809D01*
X174934523Y-115871428D01*
X174077380Y-115871428D01*
X174410714Y-115442857D02*
X175077380Y-115204761D01*
X174410714Y-114966666D01*
X175029761Y-114204761D02*
X175077380Y-114300000D01*
X175077380Y-114490476D01*
X175029761Y-114585714D01*
X174934523Y-114633333D01*
X174553571Y-114633333D01*
X174458333Y-114585714D01*
X174410714Y-114490476D01*
X174410714Y-114300000D01*
X174458333Y-114204761D01*
X174553571Y-114157142D01*
X174648809Y-114157142D01*
X174744047Y-114633333D01*
X175077380Y-112823809D02*
X175029761Y-112919047D01*
X174982142Y-112966666D01*
X174886904Y-113014285D01*
X174601190Y-113014285D01*
X174505952Y-112966666D01*
X174458333Y-112919047D01*
X174410714Y-112823809D01*
X174410714Y-112680952D01*
X174458333Y-112585714D01*
X174505952Y-112538095D01*
X174601190Y-112490476D01*
X174886904Y-112490476D01*
X174982142Y-112538095D01*
X175029761Y-112585714D01*
X175077380Y-112680952D01*
X175077380Y-112823809D01*
X174410714Y-111633333D02*
X175077380Y-111633333D01*
X174410714Y-112061904D02*
X174934523Y-112061904D01*
X175029761Y-112014285D01*
X175077380Y-111919047D01*
X175077380Y-111776190D01*
X175029761Y-111680952D01*
X174982142Y-111633333D01*
X174410714Y-111300000D02*
X174410714Y-110919047D01*
X174077380Y-111157142D02*
X174934523Y-111157142D01*
X175029761Y-111109523D01*
X175077380Y-111014285D01*
X175077380Y-110919047D01*
X213447380Y-65103333D02*
X214161666Y-65103333D01*
X214304523Y-65150952D01*
X214399761Y-65246190D01*
X214447380Y-65389047D01*
X214447380Y-65484285D01*
X214447380Y-64103333D02*
X214447380Y-64674761D01*
X214447380Y-64389047D02*
X213447380Y-64389047D01*
X213590238Y-64484285D01*
X213685476Y-64579523D01*
X213733095Y-64674761D01*
X225210714Y-68103333D02*
X225877380Y-67865238D01*
X225210714Y-67627142D01*
X225877380Y-66817619D02*
X225353571Y-66817619D01*
X225258333Y-66865238D01*
X225210714Y-66960476D01*
X225210714Y-67150952D01*
X225258333Y-67246190D01*
X225829761Y-66817619D02*
X225877380Y-66912857D01*
X225877380Y-67150952D01*
X225829761Y-67246190D01*
X225734523Y-67293809D01*
X225639285Y-67293809D01*
X225544047Y-67246190D01*
X225496428Y-67150952D01*
X225496428Y-66912857D01*
X225448809Y-66817619D01*
X225877380Y-66198571D02*
X225829761Y-66293809D01*
X225734523Y-66341428D01*
X224877380Y-66341428D01*
X225210714Y-65912857D02*
X225877380Y-65674761D01*
X225210714Y-65436666D01*
X225829761Y-64674761D02*
X225877380Y-64770000D01*
X225877380Y-64960476D01*
X225829761Y-65055714D01*
X225734523Y-65103333D01*
X225353571Y-65103333D01*
X225258333Y-65055714D01*
X225210714Y-64960476D01*
X225210714Y-64770000D01*
X225258333Y-64674761D01*
X225353571Y-64627142D01*
X225448809Y-64627142D01*
X225544047Y-65103333D01*
X225877380Y-63293809D02*
X225829761Y-63389047D01*
X225782142Y-63436666D01*
X225686904Y-63484285D01*
X225401190Y-63484285D01*
X225305952Y-63436666D01*
X225258333Y-63389047D01*
X225210714Y-63293809D01*
X225210714Y-63150952D01*
X225258333Y-63055714D01*
X225305952Y-63008095D01*
X225401190Y-62960476D01*
X225686904Y-62960476D01*
X225782142Y-63008095D01*
X225829761Y-63055714D01*
X225877380Y-63150952D01*
X225877380Y-63293809D01*
X225210714Y-62103333D02*
X225877380Y-62103333D01*
X225210714Y-62531904D02*
X225734523Y-62531904D01*
X225829761Y-62484285D01*
X225877380Y-62389047D01*
X225877380Y-62246190D01*
X225829761Y-62150952D01*
X225782142Y-62103333D01*
X225210714Y-61770000D02*
X225210714Y-61389047D01*
X224877380Y-61627142D02*
X225734523Y-61627142D01*
X225829761Y-61579523D01*
X225877380Y-61484285D01*
X225877380Y-61389047D01*
G04 #@! TO.C,R5*
X182356285Y-151090380D02*
X182975333Y-151090380D01*
X182642000Y-151471333D01*
X182784857Y-151471333D01*
X182880095Y-151518952D01*
X182927714Y-151566571D01*
X182975333Y-151661809D01*
X182975333Y-151899904D01*
X182927714Y-151995142D01*
X182880095Y-152042761D01*
X182784857Y-152090380D01*
X182499142Y-152090380D01*
X182403904Y-152042761D01*
X182356285Y-151995142D01*
X183308666Y-151090380D02*
X183927714Y-151090380D01*
X183594380Y-151471333D01*
X183737238Y-151471333D01*
X183832476Y-151518952D01*
X183880095Y-151566571D01*
X183927714Y-151661809D01*
X183927714Y-151899904D01*
X183880095Y-151995142D01*
X183832476Y-152042761D01*
X183737238Y-152090380D01*
X183451523Y-152090380D01*
X183356285Y-152042761D01*
X183308666Y-151995142D01*
X184546761Y-151090380D02*
X184642000Y-151090380D01*
X184737238Y-151138000D01*
X184784857Y-151185619D01*
X184832476Y-151280857D01*
X184880095Y-151471333D01*
X184880095Y-151709428D01*
X184832476Y-151899904D01*
X184784857Y-151995142D01*
X184737238Y-152042761D01*
X184642000Y-152090380D01*
X184546761Y-152090380D01*
X184451523Y-152042761D01*
X184403904Y-151995142D01*
X184356285Y-151899904D01*
X184308666Y-151709428D01*
X184308666Y-151471333D01*
X184356285Y-151280857D01*
X184403904Y-151185619D01*
X184451523Y-151138000D01*
X184546761Y-151090380D01*
X131556285Y-151090380D02*
X132175333Y-151090380D01*
X131842000Y-151471333D01*
X131984857Y-151471333D01*
X132080095Y-151518952D01*
X132127714Y-151566571D01*
X132175333Y-151661809D01*
X132175333Y-151899904D01*
X132127714Y-151995142D01*
X132080095Y-152042761D01*
X131984857Y-152090380D01*
X131699142Y-152090380D01*
X131603904Y-152042761D01*
X131556285Y-151995142D01*
X132508666Y-151090380D02*
X133127714Y-151090380D01*
X132794380Y-151471333D01*
X132937238Y-151471333D01*
X133032476Y-151518952D01*
X133080095Y-151566571D01*
X133127714Y-151661809D01*
X133127714Y-151899904D01*
X133080095Y-151995142D01*
X133032476Y-152042761D01*
X132937238Y-152090380D01*
X132651523Y-152090380D01*
X132556285Y-152042761D01*
X132508666Y-151995142D01*
X133746761Y-151090380D02*
X133842000Y-151090380D01*
X133937238Y-151138000D01*
X133984857Y-151185619D01*
X134032476Y-151280857D01*
X134080095Y-151471333D01*
X134080095Y-151709428D01*
X134032476Y-151899904D01*
X133984857Y-151995142D01*
X133937238Y-152042761D01*
X133842000Y-152090380D01*
X133746761Y-152090380D01*
X133651523Y-152042761D01*
X133603904Y-151995142D01*
X133556285Y-151899904D01*
X133508666Y-151709428D01*
X133508666Y-151471333D01*
X133556285Y-151280857D01*
X133603904Y-151185619D01*
X133651523Y-151138000D01*
X133746761Y-151090380D01*
X182356285Y-101560380D02*
X182975333Y-101560380D01*
X182642000Y-101941333D01*
X182784857Y-101941333D01*
X182880095Y-101988952D01*
X182927714Y-102036571D01*
X182975333Y-102131809D01*
X182975333Y-102369904D01*
X182927714Y-102465142D01*
X182880095Y-102512761D01*
X182784857Y-102560380D01*
X182499142Y-102560380D01*
X182403904Y-102512761D01*
X182356285Y-102465142D01*
X183308666Y-101560380D02*
X183927714Y-101560380D01*
X183594380Y-101941333D01*
X183737238Y-101941333D01*
X183832476Y-101988952D01*
X183880095Y-102036571D01*
X183927714Y-102131809D01*
X183927714Y-102369904D01*
X183880095Y-102465142D01*
X183832476Y-102512761D01*
X183737238Y-102560380D01*
X183451523Y-102560380D01*
X183356285Y-102512761D01*
X183308666Y-102465142D01*
X184546761Y-101560380D02*
X184642000Y-101560380D01*
X184737238Y-101608000D01*
X184784857Y-101655619D01*
X184832476Y-101750857D01*
X184880095Y-101941333D01*
X184880095Y-102179428D01*
X184832476Y-102369904D01*
X184784857Y-102465142D01*
X184737238Y-102512761D01*
X184642000Y-102560380D01*
X184546761Y-102560380D01*
X184451523Y-102512761D01*
X184403904Y-102465142D01*
X184356285Y-102369904D01*
X184308666Y-102179428D01*
X184308666Y-101941333D01*
X184356285Y-101750857D01*
X184403904Y-101655619D01*
X184451523Y-101608000D01*
X184546761Y-101560380D01*
G04 #@! TO.C,IRFZ44N1*
X201731619Y-135072857D02*
X202731619Y-135072857D01*
X201731619Y-136120476D02*
X202207809Y-135787142D01*
X201731619Y-135549047D02*
X202731619Y-135549047D01*
X202731619Y-135930000D01*
X202684000Y-136025238D01*
X202636380Y-136072857D01*
X202541142Y-136120476D01*
X202398285Y-136120476D01*
X202303047Y-136072857D01*
X202255428Y-136025238D01*
X202207809Y-135930000D01*
X202207809Y-135549047D01*
X202255428Y-136882380D02*
X202255428Y-136549047D01*
X201731619Y-136549047D02*
X202731619Y-136549047D01*
X202731619Y-137025238D01*
X202731619Y-137310952D02*
X202731619Y-137977619D01*
X201731619Y-137310952D01*
X201731619Y-137977619D01*
X202398285Y-138787142D02*
X201731619Y-138787142D01*
X202779238Y-138549047D02*
X202064952Y-138310952D01*
X202064952Y-138930000D01*
X202398285Y-139739523D02*
X201731619Y-139739523D01*
X202779238Y-139501428D02*
X202064952Y-139263333D01*
X202064952Y-139882380D01*
X201731619Y-140263333D02*
X202731619Y-140263333D01*
X201731619Y-140834761D01*
X202731619Y-140834761D01*
X201731619Y-141834761D02*
X201731619Y-141263333D01*
X201731619Y-141549047D02*
X202731619Y-141549047D01*
X202588761Y-141453809D01*
X202493523Y-141358571D01*
X202445904Y-141263333D01*
X150931619Y-135072857D02*
X151931619Y-135072857D01*
X150931619Y-136120476D02*
X151407809Y-135787142D01*
X150931619Y-135549047D02*
X151931619Y-135549047D01*
X151931619Y-135930000D01*
X151884000Y-136025238D01*
X151836380Y-136072857D01*
X151741142Y-136120476D01*
X151598285Y-136120476D01*
X151503047Y-136072857D01*
X151455428Y-136025238D01*
X151407809Y-135930000D01*
X151407809Y-135549047D01*
X151455428Y-136882380D02*
X151455428Y-136549047D01*
X150931619Y-136549047D02*
X151931619Y-136549047D01*
X151931619Y-137025238D01*
X151931619Y-137310952D02*
X151931619Y-137977619D01*
X150931619Y-137310952D01*
X150931619Y-137977619D01*
X151598285Y-138787142D02*
X150931619Y-138787142D01*
X151979238Y-138549047D02*
X151264952Y-138310952D01*
X151264952Y-138930000D01*
X151598285Y-139739523D02*
X150931619Y-139739523D01*
X151979238Y-139501428D02*
X151264952Y-139263333D01*
X151264952Y-139882380D01*
X150931619Y-140263333D02*
X151931619Y-140263333D01*
X150931619Y-140834761D01*
X151931619Y-140834761D01*
X150931619Y-141834761D02*
X150931619Y-141263333D01*
X150931619Y-141549047D02*
X151931619Y-141549047D01*
X151788761Y-141453809D01*
X151693523Y-141358571D01*
X151645904Y-141263333D01*
X201731619Y-85542857D02*
X202731619Y-85542857D01*
X201731619Y-86590476D02*
X202207809Y-86257142D01*
X201731619Y-86019047D02*
X202731619Y-86019047D01*
X202731619Y-86400000D01*
X202684000Y-86495238D01*
X202636380Y-86542857D01*
X202541142Y-86590476D01*
X202398285Y-86590476D01*
X202303047Y-86542857D01*
X202255428Y-86495238D01*
X202207809Y-86400000D01*
X202207809Y-86019047D01*
X202255428Y-87352380D02*
X202255428Y-87019047D01*
X201731619Y-87019047D02*
X202731619Y-87019047D01*
X202731619Y-87495238D01*
X202731619Y-87780952D02*
X202731619Y-88447619D01*
X201731619Y-87780952D01*
X201731619Y-88447619D01*
X202398285Y-89257142D02*
X201731619Y-89257142D01*
X202779238Y-89019047D02*
X202064952Y-88780952D01*
X202064952Y-89400000D01*
X202398285Y-90209523D02*
X201731619Y-90209523D01*
X202779238Y-89971428D02*
X202064952Y-89733333D01*
X202064952Y-90352380D01*
X201731619Y-90733333D02*
X202731619Y-90733333D01*
X201731619Y-91304761D01*
X202731619Y-91304761D01*
X201731619Y-92304761D02*
X201731619Y-91733333D01*
X201731619Y-92019047D02*
X202731619Y-92019047D01*
X202588761Y-91923809D01*
X202493523Y-91828571D01*
X202445904Y-91733333D01*
G04 #@! TO.C,R1*
X204224095Y-151312619D02*
X204271714Y-151265000D01*
X204366952Y-151217380D01*
X204605047Y-151217380D01*
X204700285Y-151265000D01*
X204747904Y-151312619D01*
X204795523Y-151407857D01*
X204795523Y-151503095D01*
X204747904Y-151645952D01*
X204176476Y-152217380D01*
X204795523Y-152217380D01*
X205414571Y-151217380D02*
X205509809Y-151217380D01*
X205605047Y-151265000D01*
X205652666Y-151312619D01*
X205700285Y-151407857D01*
X205747904Y-151598333D01*
X205747904Y-151836428D01*
X205700285Y-152026904D01*
X205652666Y-152122142D01*
X205605047Y-152169761D01*
X205509809Y-152217380D01*
X205414571Y-152217380D01*
X205319333Y-152169761D01*
X205271714Y-152122142D01*
X205224095Y-152026904D01*
X205176476Y-151836428D01*
X205176476Y-151598333D01*
X205224095Y-151407857D01*
X205271714Y-151312619D01*
X205319333Y-151265000D01*
X205414571Y-151217380D01*
X206176476Y-152217380D02*
X206176476Y-151217380D01*
X206747904Y-152217380D02*
X206319333Y-151645952D01*
X206747904Y-151217380D02*
X206176476Y-151788809D01*
X153424095Y-151312619D02*
X153471714Y-151265000D01*
X153566952Y-151217380D01*
X153805047Y-151217380D01*
X153900285Y-151265000D01*
X153947904Y-151312619D01*
X153995523Y-151407857D01*
X153995523Y-151503095D01*
X153947904Y-151645952D01*
X153376476Y-152217380D01*
X153995523Y-152217380D01*
X154614571Y-151217380D02*
X154709809Y-151217380D01*
X154805047Y-151265000D01*
X154852666Y-151312619D01*
X154900285Y-151407857D01*
X154947904Y-151598333D01*
X154947904Y-151836428D01*
X154900285Y-152026904D01*
X154852666Y-152122142D01*
X154805047Y-152169761D01*
X154709809Y-152217380D01*
X154614571Y-152217380D01*
X154519333Y-152169761D01*
X154471714Y-152122142D01*
X154424095Y-152026904D01*
X154376476Y-151836428D01*
X154376476Y-151598333D01*
X154424095Y-151407857D01*
X154471714Y-151312619D01*
X154519333Y-151265000D01*
X154614571Y-151217380D01*
X155376476Y-152217380D02*
X155376476Y-151217380D01*
X155947904Y-152217380D02*
X155519333Y-151645952D01*
X155947904Y-151217380D02*
X155376476Y-151788809D01*
X204224095Y-101782619D02*
X204271714Y-101735000D01*
X204366952Y-101687380D01*
X204605047Y-101687380D01*
X204700285Y-101735000D01*
X204747904Y-101782619D01*
X204795523Y-101877857D01*
X204795523Y-101973095D01*
X204747904Y-102115952D01*
X204176476Y-102687380D01*
X204795523Y-102687380D01*
X205414571Y-101687380D02*
X205509809Y-101687380D01*
X205605047Y-101735000D01*
X205652666Y-101782619D01*
X205700285Y-101877857D01*
X205747904Y-102068333D01*
X205747904Y-102306428D01*
X205700285Y-102496904D01*
X205652666Y-102592142D01*
X205605047Y-102639761D01*
X205509809Y-102687380D01*
X205414571Y-102687380D01*
X205319333Y-102639761D01*
X205271714Y-102592142D01*
X205224095Y-102496904D01*
X205176476Y-102306428D01*
X205176476Y-102068333D01*
X205224095Y-101877857D01*
X205271714Y-101782619D01*
X205319333Y-101735000D01*
X205414571Y-101687380D01*
X206176476Y-102687380D02*
X206176476Y-101687380D01*
X206747904Y-102687380D02*
X206319333Y-102115952D01*
X206747904Y-101687380D02*
X206176476Y-102258809D01*
G04 #@! TO.C,U2*
X127722380Y-88391904D02*
X128531904Y-88391904D01*
X128627142Y-88344285D01*
X128674761Y-88296666D01*
X128722380Y-88201428D01*
X128722380Y-88010952D01*
X128674761Y-87915714D01*
X128627142Y-87868095D01*
X128531904Y-87820476D01*
X127722380Y-87820476D01*
X127817619Y-87391904D02*
X127770000Y-87344285D01*
X127722380Y-87249047D01*
X127722380Y-87010952D01*
X127770000Y-86915714D01*
X127817619Y-86868095D01*
X127912857Y-86820476D01*
X128008095Y-86820476D01*
X128150952Y-86868095D01*
X128722380Y-87439523D01*
X128722380Y-86820476D01*
X128992380Y-89986904D02*
X129992380Y-89748809D01*
X129278095Y-89558333D01*
X129992380Y-89367857D01*
X128992380Y-89129761D01*
X129944761Y-88367857D02*
X129992380Y-88463095D01*
X129992380Y-88653571D01*
X129944761Y-88748809D01*
X129849523Y-88796428D01*
X129468571Y-88796428D01*
X129373333Y-88748809D01*
X129325714Y-88653571D01*
X129325714Y-88463095D01*
X129373333Y-88367857D01*
X129468571Y-88320238D01*
X129563809Y-88320238D01*
X129659047Y-88796428D01*
X129992380Y-87891666D02*
X128992380Y-87891666D01*
X129706666Y-87558333D01*
X128992380Y-87225000D01*
X129992380Y-87225000D01*
X129992380Y-86605952D02*
X129944761Y-86701190D01*
X129897142Y-86748809D01*
X129801904Y-86796428D01*
X129516190Y-86796428D01*
X129420952Y-86748809D01*
X129373333Y-86701190D01*
X129325714Y-86605952D01*
X129325714Y-86463095D01*
X129373333Y-86367857D01*
X129420952Y-86320238D01*
X129516190Y-86272619D01*
X129801904Y-86272619D01*
X129897142Y-86320238D01*
X129944761Y-86367857D01*
X129992380Y-86463095D01*
X129992380Y-86605952D01*
X129944761Y-85891666D02*
X129992380Y-85796428D01*
X129992380Y-85605952D01*
X129944761Y-85510714D01*
X129849523Y-85463095D01*
X129801904Y-85463095D01*
X129706666Y-85510714D01*
X129659047Y-85605952D01*
X129659047Y-85748809D01*
X129611428Y-85844047D01*
X129516190Y-85891666D01*
X129468571Y-85891666D01*
X129373333Y-85844047D01*
X129325714Y-85748809D01*
X129325714Y-85605952D01*
X129373333Y-85510714D01*
X130087619Y-85272619D02*
X130087619Y-84510714D01*
X129992380Y-84272619D02*
X129325714Y-84272619D01*
X129420952Y-84272619D02*
X129373333Y-84225000D01*
X129325714Y-84129761D01*
X129325714Y-83986904D01*
X129373333Y-83891666D01*
X129468571Y-83844047D01*
X129992380Y-83844047D01*
X129468571Y-83844047D02*
X129373333Y-83796428D01*
X129325714Y-83701190D01*
X129325714Y-83558333D01*
X129373333Y-83463095D01*
X129468571Y-83415476D01*
X129992380Y-83415476D01*
X129992380Y-82939285D02*
X129325714Y-82939285D01*
X128992380Y-82939285D02*
X129040000Y-82986904D01*
X129087619Y-82939285D01*
X129040000Y-82891666D01*
X128992380Y-82939285D01*
X129087619Y-82939285D01*
X129325714Y-82463095D02*
X129992380Y-82463095D01*
X129420952Y-82463095D02*
X129373333Y-82415476D01*
X129325714Y-82320238D01*
X129325714Y-82177380D01*
X129373333Y-82082142D01*
X129468571Y-82034523D01*
X129992380Y-82034523D01*
X129992380Y-81558333D02*
X129325714Y-81558333D01*
X128992380Y-81558333D02*
X129040000Y-81605952D01*
X129087619Y-81558333D01*
X129040000Y-81510714D01*
X128992380Y-81558333D01*
X129087619Y-81558333D01*
G04 #@! TO.C,IRFZ44N1*
X150931619Y-85542857D02*
X151931619Y-85542857D01*
X150931619Y-86590476D02*
X151407809Y-86257142D01*
X150931619Y-86019047D02*
X151931619Y-86019047D01*
X151931619Y-86400000D01*
X151884000Y-86495238D01*
X151836380Y-86542857D01*
X151741142Y-86590476D01*
X151598285Y-86590476D01*
X151503047Y-86542857D01*
X151455428Y-86495238D01*
X151407809Y-86400000D01*
X151407809Y-86019047D01*
X151455428Y-87352380D02*
X151455428Y-87019047D01*
X150931619Y-87019047D02*
X151931619Y-87019047D01*
X151931619Y-87495238D01*
X151931619Y-87780952D02*
X151931619Y-88447619D01*
X150931619Y-87780952D01*
X150931619Y-88447619D01*
X151598285Y-89257142D02*
X150931619Y-89257142D01*
X151979238Y-89019047D02*
X151264952Y-88780952D01*
X151264952Y-89400000D01*
X151598285Y-90209523D02*
X150931619Y-90209523D01*
X151979238Y-89971428D02*
X151264952Y-89733333D01*
X151264952Y-90352380D01*
X150931619Y-90733333D02*
X151931619Y-90733333D01*
X150931619Y-91304761D01*
X151931619Y-91304761D01*
X150931619Y-92304761D02*
X150931619Y-91733333D01*
X150931619Y-92019047D02*
X151931619Y-92019047D01*
X151788761Y-91923809D01*
X151693523Y-91828571D01*
X151645904Y-91733333D01*
G04 #@! TO.C,U1*
X138684095Y-61174380D02*
X138684095Y-61983904D01*
X138731714Y-62079142D01*
X138779333Y-62126761D01*
X138874571Y-62174380D01*
X139065047Y-62174380D01*
X139160285Y-62126761D01*
X139207904Y-62079142D01*
X139255523Y-61983904D01*
X139255523Y-61174380D01*
X140255523Y-62174380D02*
X139684095Y-62174380D01*
X139969809Y-62174380D02*
X139969809Y-61174380D01*
X139874571Y-61317238D01*
X139779333Y-61412476D01*
X139684095Y-61460095D01*
G04 #@! TO.C,R3*
X143549714Y-105735380D02*
X142978285Y-105735380D01*
X143264000Y-105735380D02*
X143264000Y-104735380D01*
X143168761Y-104878238D01*
X143073523Y-104973476D01*
X142978285Y-105021095D01*
X143978285Y-105735380D02*
X143978285Y-104735380D01*
X144549714Y-105735380D02*
X144121142Y-105163952D01*
X144549714Y-104735380D02*
X143978285Y-105306809D01*
G04 #@! TO.C,D1*
X160342380Y-65508095D02*
X159342380Y-65508095D01*
X159342380Y-65270000D01*
X159390000Y-65127142D01*
X159485238Y-65031904D01*
X159580476Y-64984285D01*
X159770952Y-64936666D01*
X159913809Y-64936666D01*
X160104285Y-64984285D01*
X160199523Y-65031904D01*
X160294761Y-65127142D01*
X160342380Y-65270000D01*
X160342380Y-65508095D01*
X160342380Y-63984285D02*
X160342380Y-64555714D01*
X160342380Y-64270000D02*
X159342380Y-64270000D01*
X159485238Y-64365238D01*
X159580476Y-64460476D01*
X159628095Y-64555714D01*
G04 #@! TO.C,D4*
X167084523Y-107552380D02*
X167084523Y-106885714D01*
X167084523Y-106552380D02*
X167036904Y-106600000D01*
X167084523Y-106647619D01*
X167132142Y-106600000D01*
X167084523Y-106552380D01*
X167084523Y-106647619D01*
X167560714Y-106885714D02*
X167560714Y-107552380D01*
X167560714Y-106980952D02*
X167608333Y-106933333D01*
X167703571Y-106885714D01*
X167846428Y-106885714D01*
X167941666Y-106933333D01*
X167989285Y-107028571D01*
X167989285Y-107552380D01*
X168322619Y-106885714D02*
X168703571Y-106885714D01*
X168465476Y-107552380D02*
X168465476Y-106695238D01*
X168513095Y-106600000D01*
X168608333Y-106552380D01*
X168703571Y-106552380D01*
X169179761Y-107552380D02*
X169084523Y-107504761D01*
X169036904Y-107457142D01*
X168989285Y-107361904D01*
X168989285Y-107076190D01*
X169036904Y-106980952D01*
X169084523Y-106933333D01*
X169179761Y-106885714D01*
X169322619Y-106885714D01*
X169417857Y-106933333D01*
X169465476Y-106980952D01*
X169513095Y-107076190D01*
X169513095Y-107361904D01*
X169465476Y-107457142D01*
X169417857Y-107504761D01*
X169322619Y-107552380D01*
X169179761Y-107552380D01*
G04 #@! TO.C,D3*
X171426428Y-106885714D02*
X171426428Y-107885714D01*
X171426428Y-106933333D02*
X171521666Y-106885714D01*
X171712142Y-106885714D01*
X171807380Y-106933333D01*
X171855000Y-106980952D01*
X171902619Y-107076190D01*
X171902619Y-107361904D01*
X171855000Y-107457142D01*
X171807380Y-107504761D01*
X171712142Y-107552380D01*
X171521666Y-107552380D01*
X171426428Y-107504761D01*
X172474047Y-107552380D02*
X172378809Y-107504761D01*
X172331190Y-107457142D01*
X172283571Y-107361904D01*
X172283571Y-107076190D01*
X172331190Y-106980952D01*
X172378809Y-106933333D01*
X172474047Y-106885714D01*
X172616904Y-106885714D01*
X172712142Y-106933333D01*
X172759761Y-106980952D01*
X172807380Y-107076190D01*
X172807380Y-107361904D01*
X172759761Y-107457142D01*
X172712142Y-107504761D01*
X172616904Y-107552380D01*
X172474047Y-107552380D01*
X173140714Y-106885714D02*
X173331190Y-107552380D01*
X173521666Y-107076190D01*
X173712142Y-107552380D01*
X173902619Y-106885714D01*
X174664523Y-107504761D02*
X174569285Y-107552380D01*
X174378809Y-107552380D01*
X174283571Y-107504761D01*
X174235952Y-107409523D01*
X174235952Y-107028571D01*
X174283571Y-106933333D01*
X174378809Y-106885714D01*
X174569285Y-106885714D01*
X174664523Y-106933333D01*
X174712142Y-107028571D01*
X174712142Y-107123809D01*
X174235952Y-107219047D01*
X175140714Y-107552380D02*
X175140714Y-106885714D01*
X175140714Y-107076190D02*
X175188333Y-106980952D01*
X175235952Y-106933333D01*
X175331190Y-106885714D01*
X175426428Y-106885714D01*
G04 #@! TO.C,D2*
X161433095Y-106885714D02*
X161671190Y-107552380D01*
X161909285Y-106885714D01*
X162718809Y-107552380D02*
X162718809Y-107028571D01*
X162671190Y-106933333D01*
X162575952Y-106885714D01*
X162385476Y-106885714D01*
X162290238Y-106933333D01*
X162718809Y-107504761D02*
X162623571Y-107552380D01*
X162385476Y-107552380D01*
X162290238Y-107504761D01*
X162242619Y-107409523D01*
X162242619Y-107314285D01*
X162290238Y-107219047D01*
X162385476Y-107171428D01*
X162623571Y-107171428D01*
X162718809Y-107123809D01*
X163337857Y-107552380D02*
X163242619Y-107504761D01*
X163195000Y-107409523D01*
X163195000Y-106552380D01*
X163623571Y-106885714D02*
X163861666Y-107552380D01*
X164099761Y-106885714D01*
X164861666Y-107504761D02*
X164766428Y-107552380D01*
X164575952Y-107552380D01*
X164480714Y-107504761D01*
X164433095Y-107409523D01*
X164433095Y-107028571D01*
X164480714Y-106933333D01*
X164575952Y-106885714D01*
X164766428Y-106885714D01*
X164861666Y-106933333D01*
X164909285Y-107028571D01*
X164909285Y-107123809D01*
X164433095Y-107219047D01*
G04 #@! TO.C,R1*
X153424095Y-101782619D02*
X153471714Y-101735000D01*
X153566952Y-101687380D01*
X153805047Y-101687380D01*
X153900285Y-101735000D01*
X153947904Y-101782619D01*
X153995523Y-101877857D01*
X153995523Y-101973095D01*
X153947904Y-102115952D01*
X153376476Y-102687380D01*
X153995523Y-102687380D01*
X154614571Y-101687380D02*
X154709809Y-101687380D01*
X154805047Y-101735000D01*
X154852666Y-101782619D01*
X154900285Y-101877857D01*
X154947904Y-102068333D01*
X154947904Y-102306428D01*
X154900285Y-102496904D01*
X154852666Y-102592142D01*
X154805047Y-102639761D01*
X154709809Y-102687380D01*
X154614571Y-102687380D01*
X154519333Y-102639761D01*
X154471714Y-102592142D01*
X154424095Y-102496904D01*
X154376476Y-102306428D01*
X154376476Y-102068333D01*
X154424095Y-101877857D01*
X154471714Y-101782619D01*
X154519333Y-101735000D01*
X154614571Y-101687380D01*
X155376476Y-102687380D02*
X155376476Y-101687380D01*
X155947904Y-102687380D02*
X155519333Y-102115952D01*
X155947904Y-101687380D02*
X155376476Y-102258809D01*
G04 #@! TO.C,J2*
X162647380Y-76533333D02*
X163361666Y-76533333D01*
X163504523Y-76580952D01*
X163599761Y-76676190D01*
X163647380Y-76819047D01*
X163647380Y-76914285D01*
X162742619Y-76104761D02*
X162695000Y-76057142D01*
X162647380Y-75961904D01*
X162647380Y-75723809D01*
X162695000Y-75628571D01*
X162742619Y-75580952D01*
X162837857Y-75533333D01*
X162933095Y-75533333D01*
X163075952Y-75580952D01*
X163647380Y-76152380D01*
X163647380Y-75533333D01*
X175077380Y-77890476D02*
X175077380Y-78461904D01*
X175077380Y-78176190D02*
X174077380Y-78176190D01*
X174220238Y-78271428D01*
X174315476Y-78366666D01*
X174363095Y-78461904D01*
X174172619Y-77509523D02*
X174125000Y-77461904D01*
X174077380Y-77366666D01*
X174077380Y-77128571D01*
X174125000Y-77033333D01*
X174172619Y-76985714D01*
X174267857Y-76938095D01*
X174363095Y-76938095D01*
X174505952Y-76985714D01*
X175077380Y-77557142D01*
X175077380Y-76938095D01*
X174077380Y-76652380D02*
X175077380Y-76319047D01*
X174077380Y-75985714D01*
X175077380Y-74890476D02*
X174410714Y-74890476D01*
X174077380Y-74890476D02*
X174125000Y-74938095D01*
X174172619Y-74890476D01*
X174125000Y-74842857D01*
X174077380Y-74890476D01*
X174172619Y-74890476D01*
X174410714Y-74414285D02*
X175077380Y-74414285D01*
X174505952Y-74414285D02*
X174458333Y-74366666D01*
X174410714Y-74271428D01*
X174410714Y-74128571D01*
X174458333Y-74033333D01*
X174553571Y-73985714D01*
X175077380Y-73985714D01*
G04 #@! TO.C,J1*
X162647380Y-65103333D02*
X163361666Y-65103333D01*
X163504523Y-65150952D01*
X163599761Y-65246190D01*
X163647380Y-65389047D01*
X163647380Y-65484285D01*
X163647380Y-64103333D02*
X163647380Y-64674761D01*
X163647380Y-64389047D02*
X162647380Y-64389047D01*
X162790238Y-64484285D01*
X162885476Y-64579523D01*
X162933095Y-64674761D01*
X174410714Y-68103333D02*
X175077380Y-67865238D01*
X174410714Y-67627142D01*
X175077380Y-66817619D02*
X174553571Y-66817619D01*
X174458333Y-66865238D01*
X174410714Y-66960476D01*
X174410714Y-67150952D01*
X174458333Y-67246190D01*
X175029761Y-66817619D02*
X175077380Y-66912857D01*
X175077380Y-67150952D01*
X175029761Y-67246190D01*
X174934523Y-67293809D01*
X174839285Y-67293809D01*
X174744047Y-67246190D01*
X174696428Y-67150952D01*
X174696428Y-66912857D01*
X174648809Y-66817619D01*
X175077380Y-66198571D02*
X175029761Y-66293809D01*
X174934523Y-66341428D01*
X174077380Y-66341428D01*
X174410714Y-65912857D02*
X175077380Y-65674761D01*
X174410714Y-65436666D01*
X175029761Y-64674761D02*
X175077380Y-64770000D01*
X175077380Y-64960476D01*
X175029761Y-65055714D01*
X174934523Y-65103333D01*
X174553571Y-65103333D01*
X174458333Y-65055714D01*
X174410714Y-64960476D01*
X174410714Y-64770000D01*
X174458333Y-64674761D01*
X174553571Y-64627142D01*
X174648809Y-64627142D01*
X174744047Y-65103333D01*
X175077380Y-63293809D02*
X175029761Y-63389047D01*
X174982142Y-63436666D01*
X174886904Y-63484285D01*
X174601190Y-63484285D01*
X174505952Y-63436666D01*
X174458333Y-63389047D01*
X174410714Y-63293809D01*
X174410714Y-63150952D01*
X174458333Y-63055714D01*
X174505952Y-63008095D01*
X174601190Y-62960476D01*
X174886904Y-62960476D01*
X174982142Y-63008095D01*
X175029761Y-63055714D01*
X175077380Y-63150952D01*
X175077380Y-63293809D01*
X174410714Y-62103333D02*
X175077380Y-62103333D01*
X174410714Y-62531904D02*
X174934523Y-62531904D01*
X175029761Y-62484285D01*
X175077380Y-62389047D01*
X175077380Y-62246190D01*
X175029761Y-62150952D01*
X174982142Y-62103333D01*
X174410714Y-61770000D02*
X174410714Y-61389047D01*
X174077380Y-61627142D02*
X174934523Y-61627142D01*
X175029761Y-61579523D01*
X175077380Y-61484285D01*
X175077380Y-61389047D01*
G04 #@! TO.C,R2*
X143549714Y-102560380D02*
X142978285Y-102560380D01*
X143264000Y-102560380D02*
X143264000Y-101560380D01*
X143168761Y-101703238D01*
X143073523Y-101798476D01*
X142978285Y-101846095D01*
X143978285Y-102560380D02*
X143978285Y-101560380D01*
X144549714Y-102560380D02*
X144121142Y-101988952D01*
X144549714Y-101560380D02*
X143978285Y-102131809D01*
G04 #@! TO.C,R4*
X153447904Y-104957619D02*
X153495523Y-104910000D01*
X153590761Y-104862380D01*
X153828857Y-104862380D01*
X153924095Y-104910000D01*
X153971714Y-104957619D01*
X154019333Y-105052857D01*
X154019333Y-105148095D01*
X153971714Y-105290952D01*
X153400285Y-105862380D01*
X154019333Y-105862380D01*
X154876476Y-105195714D02*
X154876476Y-105862380D01*
X154638380Y-104814761D02*
X154400285Y-105529047D01*
X155019333Y-105529047D01*
X155590761Y-104862380D02*
X155686000Y-104862380D01*
X155781238Y-104910000D01*
X155828857Y-104957619D01*
X155876476Y-105052857D01*
X155924095Y-105243333D01*
X155924095Y-105481428D01*
X155876476Y-105671904D01*
X155828857Y-105767142D01*
X155781238Y-105814761D01*
X155686000Y-105862380D01*
X155590761Y-105862380D01*
X155495523Y-105814761D01*
X155447904Y-105767142D01*
X155400285Y-105671904D01*
X155352666Y-105481428D01*
X155352666Y-105243333D01*
X155400285Y-105052857D01*
X155447904Y-104957619D01*
X155495523Y-104910000D01*
X155590761Y-104862380D01*
G04 #@! TO.C,J3*
X162774380Y-87963333D02*
X163488666Y-87963333D01*
X163631523Y-88010952D01*
X163726761Y-88106190D01*
X163774380Y-88249047D01*
X163774380Y-88344285D01*
X162774380Y-87582380D02*
X162774380Y-86963333D01*
X163155333Y-87296666D01*
X163155333Y-87153809D01*
X163202952Y-87058571D01*
X163250571Y-87010952D01*
X163345809Y-86963333D01*
X163583904Y-86963333D01*
X163679142Y-87010952D01*
X163726761Y-87058571D01*
X163774380Y-87153809D01*
X163774380Y-87439523D01*
X163726761Y-87534761D01*
X163679142Y-87582380D01*
X174648761Y-89318571D02*
X174696380Y-89223333D01*
X174696380Y-89032857D01*
X174648761Y-88937619D01*
X174553523Y-88890000D01*
X174505904Y-88890000D01*
X174410666Y-88937619D01*
X174363047Y-89032857D01*
X174363047Y-89175714D01*
X174315428Y-89270952D01*
X174220190Y-89318571D01*
X174172571Y-89318571D01*
X174077333Y-89270952D01*
X174029714Y-89175714D01*
X174029714Y-89032857D01*
X174077333Y-88937619D01*
X174648761Y-88080476D02*
X174696380Y-88175714D01*
X174696380Y-88366190D01*
X174648761Y-88461428D01*
X174553523Y-88509047D01*
X174172571Y-88509047D01*
X174077333Y-88461428D01*
X174029714Y-88366190D01*
X174029714Y-88175714D01*
X174077333Y-88080476D01*
X174172571Y-88032857D01*
X174267809Y-88032857D01*
X174363047Y-88509047D01*
X174029714Y-87604285D02*
X174696380Y-87604285D01*
X174124952Y-87604285D02*
X174077333Y-87556666D01*
X174029714Y-87461428D01*
X174029714Y-87318571D01*
X174077333Y-87223333D01*
X174172571Y-87175714D01*
X174696380Y-87175714D01*
X174648761Y-86747142D02*
X174696380Y-86651904D01*
X174696380Y-86461428D01*
X174648761Y-86366190D01*
X174553523Y-86318571D01*
X174505904Y-86318571D01*
X174410666Y-86366190D01*
X174363047Y-86461428D01*
X174363047Y-86604285D01*
X174315428Y-86699523D01*
X174220190Y-86747142D01*
X174172571Y-86747142D01*
X174077333Y-86699523D01*
X174029714Y-86604285D01*
X174029714Y-86461428D01*
X174077333Y-86366190D01*
X174648761Y-85509047D02*
X174696380Y-85604285D01*
X174696380Y-85794761D01*
X174648761Y-85890000D01*
X174553523Y-85937619D01*
X174172571Y-85937619D01*
X174077333Y-85890000D01*
X174029714Y-85794761D01*
X174029714Y-85604285D01*
X174077333Y-85509047D01*
X174172571Y-85461428D01*
X174267809Y-85461428D01*
X174363047Y-85937619D01*
G04 #@! TO.C,R5*
X131556285Y-101560380D02*
X132175333Y-101560380D01*
X131842000Y-101941333D01*
X131984857Y-101941333D01*
X132080095Y-101988952D01*
X132127714Y-102036571D01*
X132175333Y-102131809D01*
X132175333Y-102369904D01*
X132127714Y-102465142D01*
X132080095Y-102512761D01*
X131984857Y-102560380D01*
X131699142Y-102560380D01*
X131603904Y-102512761D01*
X131556285Y-102465142D01*
X132508666Y-101560380D02*
X133127714Y-101560380D01*
X132794380Y-101941333D01*
X132937238Y-101941333D01*
X133032476Y-101988952D01*
X133080095Y-102036571D01*
X133127714Y-102131809D01*
X133127714Y-102369904D01*
X133080095Y-102465142D01*
X133032476Y-102512761D01*
X132937238Y-102560380D01*
X132651523Y-102560380D01*
X132556285Y-102512761D01*
X132508666Y-102465142D01*
X133746761Y-101560380D02*
X133842000Y-101560380D01*
X133937238Y-101608000D01*
X133984857Y-101655619D01*
X134032476Y-101750857D01*
X134080095Y-101941333D01*
X134080095Y-102179428D01*
X134032476Y-102369904D01*
X133984857Y-102465142D01*
X133937238Y-102512761D01*
X133842000Y-102560380D01*
X133746761Y-102560380D01*
X133651523Y-102512761D01*
X133603904Y-102465142D01*
X133556285Y-102369904D01*
X133508666Y-102179428D01*
X133508666Y-101941333D01*
X133556285Y-101750857D01*
X133603904Y-101655619D01*
X133651523Y-101608000D01*
X133746761Y-101560380D01*
G04 #@! TO.C,JP1*
X150296666Y-82002380D02*
X150296666Y-82716666D01*
X150249047Y-82859523D01*
X150153809Y-82954761D01*
X150010952Y-83002380D01*
X149915714Y-83002380D01*
X150772857Y-83002380D02*
X150772857Y-82002380D01*
X151153809Y-82002380D01*
X151249047Y-82050000D01*
X151296666Y-82097619D01*
X151344285Y-82192857D01*
X151344285Y-82335714D01*
X151296666Y-82430952D01*
X151249047Y-82478571D01*
X151153809Y-82526190D01*
X150772857Y-82526190D01*
X152296666Y-83002380D02*
X151725238Y-83002380D01*
X152010952Y-83002380D02*
X152010952Y-82002380D01*
X151915714Y-82145238D01*
X151820476Y-82240476D01*
X151725238Y-82288095D01*
G04 #@! TO.C,R6*
X132056285Y-105195714D02*
X132056285Y-105862380D01*
X131818190Y-104814761D02*
X131580095Y-105529047D01*
X132199142Y-105529047D01*
X132580095Y-105862380D02*
X132580095Y-104862380D01*
X133151523Y-105862380D02*
X132722952Y-105290952D01*
X133151523Y-104862380D02*
X132580095Y-105433809D01*
X133484857Y-104862380D02*
X134151523Y-104862380D01*
X133722952Y-105862380D01*
G04 #@! TO.C,U3*
X164084095Y-95464380D02*
X164084095Y-96273904D01*
X164131714Y-96369142D01*
X164179333Y-96416761D01*
X164274571Y-96464380D01*
X164465047Y-96464380D01*
X164560285Y-96416761D01*
X164607904Y-96369142D01*
X164655523Y-96273904D01*
X164655523Y-95464380D01*
X165036476Y-95464380D02*
X165655523Y-95464380D01*
X165322190Y-95845333D01*
X165465047Y-95845333D01*
X165560285Y-95892952D01*
X165607904Y-95940571D01*
X165655523Y-96035809D01*
X165655523Y-96273904D01*
X165607904Y-96369142D01*
X165560285Y-96416761D01*
X165465047Y-96464380D01*
X165179333Y-96464380D01*
X165084095Y-96416761D01*
X165036476Y-96369142D01*
X171132666Y-94448380D02*
X171466000Y-95448380D01*
X171799333Y-94448380D01*
X172704095Y-95353142D02*
X172656476Y-95400761D01*
X172513619Y-95448380D01*
X172418380Y-95448380D01*
X172275523Y-95400761D01*
X172180285Y-95305523D01*
X172132666Y-95210285D01*
X172085047Y-95019809D01*
X172085047Y-94876952D01*
X172132666Y-94686476D01*
X172180285Y-94591238D01*
X172275523Y-94496000D01*
X172418380Y-94448380D01*
X172513619Y-94448380D01*
X172656476Y-94496000D01*
X172704095Y-94543619D01*
X173704095Y-95353142D02*
X173656476Y-95400761D01*
X173513619Y-95448380D01*
X173418380Y-95448380D01*
X173275523Y-95400761D01*
X173180285Y-95305523D01*
X173132666Y-95210285D01*
X173085047Y-95019809D01*
X173085047Y-94876952D01*
X173132666Y-94686476D01*
X173180285Y-94591238D01*
X173275523Y-94496000D01*
X173418380Y-94448380D01*
X173513619Y-94448380D01*
X173656476Y-94496000D01*
X173704095Y-94543619D01*
X169664095Y-95448380D02*
X169664095Y-94448380D01*
X169902190Y-94448380D01*
X170045047Y-94496000D01*
X170140285Y-94591238D01*
X170187904Y-94686476D01*
X170235523Y-94876952D01*
X170235523Y-95019809D01*
X170187904Y-95210285D01*
X170140285Y-95305523D01*
X170045047Y-95400761D01*
X169902190Y-95448380D01*
X169664095Y-95448380D01*
X166624095Y-94496000D02*
X166528857Y-94448380D01*
X166386000Y-94448380D01*
X166243142Y-94496000D01*
X166147904Y-94591238D01*
X166100285Y-94686476D01*
X166052666Y-94876952D01*
X166052666Y-95019809D01*
X166100285Y-95210285D01*
X166147904Y-95305523D01*
X166243142Y-95400761D01*
X166386000Y-95448380D01*
X166481238Y-95448380D01*
X166624095Y-95400761D01*
X166671714Y-95353142D01*
X166671714Y-95019809D01*
X166481238Y-95019809D01*
X167100285Y-95448380D02*
X167100285Y-94448380D01*
X167671714Y-95448380D01*
X167671714Y-94448380D01*
X168147904Y-95448380D02*
X168147904Y-94448380D01*
X168386000Y-94448380D01*
X168528857Y-94496000D01*
X168624095Y-94591238D01*
X168671714Y-94686476D01*
X168719333Y-94876952D01*
X168719333Y-95019809D01*
X168671714Y-95210285D01*
X168624095Y-95305523D01*
X168528857Y-95400761D01*
X168386000Y-95448380D01*
X168147904Y-95448380D01*
G04 #@! TD*
M02*
