G04 #@! TF.FileFunction,Soldermask,Top*
%FSLAX46Y46*%
G04 Gerber Fmt 4.6, Leading zero omitted, Abs format (unit mm)*
G04 Created by KiCad (PCBNEW 4.0.7) date Sun Jul 22 12:15:23 2018*
%MOMM*%
%LPD*%
G01*
G04 APERTURE LIST*
%ADD10C,0.100000*%
%ADD11R,4.360000X2.380000*%
%ADD12O,4.360000X2.380000*%
%ADD13R,3.600000X3.600000*%
%ADD14O,3.600000X3.600000*%
%ADD15C,1.924000*%
%ADD16C,2.000000*%
%ADD17O,2.000000X2.000000*%
%ADD18R,12.400000X9.900000*%
%ADD19C,2.200000*%
%ADD20R,2.200000X2.200000*%
G04 APERTURE END LIST*
D10*
D11*
X168910000Y-116840000D03*
D12*
X168910000Y-111840000D03*
D11*
X168910000Y-128270000D03*
D12*
X168910000Y-123270000D03*
D13*
X157480000Y-110490000D03*
D14*
X157480000Y-123190000D03*
D15*
X129540000Y-109855000D03*
X129540000Y-111760000D03*
X129540000Y-121285000D03*
X129540000Y-119380000D03*
X149860000Y-109855000D03*
X149860000Y-111760000D03*
X149860000Y-121285000D03*
X149860000Y-119380000D03*
D16*
X148590000Y-127000000D03*
D17*
X156210000Y-127000000D03*
D15*
X180340000Y-109855000D03*
X180340000Y-111760000D03*
X180340000Y-121285000D03*
X180340000Y-119380000D03*
X200660000Y-109855000D03*
X200660000Y-111760000D03*
X200660000Y-121285000D03*
X200660000Y-119380000D03*
D16*
X199390000Y-127000000D03*
D17*
X207010000Y-127000000D03*
D15*
X180594000Y-136906000D03*
X180594000Y-139446000D03*
X180594000Y-141986000D03*
D18*
X194564000Y-139446000D03*
D19*
X203200000Y-154940000D03*
X203200000Y-132080000D03*
X200660000Y-154940000D03*
X200660000Y-132080000D03*
X198120000Y-154940000D03*
X198120000Y-132080000D03*
X195580000Y-154940000D03*
X195580000Y-132080000D03*
X193040000Y-154940000D03*
X193040000Y-132080000D03*
X190500000Y-154940000D03*
X190500000Y-132080000D03*
X187960000Y-154940000D03*
X187960000Y-132080000D03*
X185420000Y-154940000D03*
X185420000Y-132080000D03*
D16*
X208788000Y-151130000D03*
D17*
X201168000Y-151130000D03*
D20*
X173355000Y-138430000D03*
D19*
X173355000Y-135890000D03*
D16*
X189992000Y-151130000D03*
D17*
X197612000Y-151130000D03*
D16*
X178816000Y-151130000D03*
D17*
X186436000Y-151130000D03*
D20*
X173355000Y-148590000D03*
D19*
X173355000Y-146050000D03*
D20*
X173355000Y-143510000D03*
D19*
X173355000Y-140970000D03*
D20*
X224155000Y-138430000D03*
D19*
X224155000Y-135890000D03*
D20*
X224155000Y-143510000D03*
D19*
X224155000Y-140970000D03*
D13*
X208280000Y-110490000D03*
D14*
X208280000Y-123190000D03*
D11*
X219710000Y-116840000D03*
D12*
X219710000Y-111840000D03*
D11*
X219710000Y-128270000D03*
D12*
X219710000Y-123270000D03*
D20*
X224155000Y-148590000D03*
D19*
X224155000Y-146050000D03*
D16*
X139192000Y-151130000D03*
D17*
X146812000Y-151130000D03*
D16*
X128016000Y-151130000D03*
D17*
X135636000Y-151130000D03*
D16*
X157988000Y-151130000D03*
D17*
X150368000Y-151130000D03*
D15*
X129794000Y-136906000D03*
X129794000Y-139446000D03*
X129794000Y-141986000D03*
D18*
X143764000Y-139446000D03*
D19*
X152400000Y-154940000D03*
X152400000Y-132080000D03*
X149860000Y-154940000D03*
X149860000Y-132080000D03*
X147320000Y-154940000D03*
X147320000Y-132080000D03*
X144780000Y-154940000D03*
X144780000Y-132080000D03*
X142240000Y-154940000D03*
X142240000Y-132080000D03*
X139700000Y-154940000D03*
X139700000Y-132080000D03*
X137160000Y-154940000D03*
X137160000Y-132080000D03*
X134620000Y-154940000D03*
X134620000Y-132080000D03*
D16*
X199390000Y-77470000D03*
D17*
X207010000Y-77470000D03*
D15*
X180594000Y-87376000D03*
X180594000Y-89916000D03*
X180594000Y-92456000D03*
D18*
X194564000Y-89916000D03*
D16*
X178816000Y-101600000D03*
D17*
X186436000Y-101600000D03*
D16*
X208788000Y-101600000D03*
D17*
X201168000Y-101600000D03*
D19*
X203200000Y-105410000D03*
X203200000Y-82550000D03*
X200660000Y-105410000D03*
X200660000Y-82550000D03*
X198120000Y-105410000D03*
X198120000Y-82550000D03*
X195580000Y-105410000D03*
X195580000Y-82550000D03*
X193040000Y-105410000D03*
X193040000Y-82550000D03*
X190500000Y-105410000D03*
X190500000Y-82550000D03*
X187960000Y-105410000D03*
X187960000Y-82550000D03*
X185420000Y-105410000D03*
X185420000Y-82550000D03*
D16*
X189992000Y-101600000D03*
D17*
X197612000Y-101600000D03*
D15*
X180340000Y-60325000D03*
X180340000Y-62230000D03*
X180340000Y-71755000D03*
X180340000Y-69850000D03*
X200660000Y-60325000D03*
X200660000Y-62230000D03*
X200660000Y-71755000D03*
X200660000Y-69850000D03*
D13*
X208280000Y-60960000D03*
D14*
X208280000Y-73660000D03*
D20*
X224155000Y-88900000D03*
D19*
X224155000Y-86360000D03*
D11*
X219710000Y-78740000D03*
D12*
X219710000Y-73740000D03*
D20*
X224155000Y-99060000D03*
D19*
X224155000Y-96520000D03*
D11*
X219710000Y-67310000D03*
D12*
X219710000Y-62310000D03*
D20*
X224155000Y-93980000D03*
D19*
X224155000Y-91440000D03*
D11*
X168910000Y-78740000D03*
D12*
X168910000Y-73740000D03*
D13*
X157480000Y-60960000D03*
D14*
X157480000Y-73660000D03*
D11*
X168910000Y-67310000D03*
D12*
X168910000Y-62310000D03*
D16*
X148590000Y-77470000D03*
D17*
X156210000Y-77470000D03*
D19*
X152400000Y-105410000D03*
X152400000Y-82550000D03*
X149860000Y-105410000D03*
X149860000Y-82550000D03*
X147320000Y-105410000D03*
X147320000Y-82550000D03*
X144780000Y-105410000D03*
X144780000Y-82550000D03*
X142240000Y-105410000D03*
X142240000Y-82550000D03*
X139700000Y-105410000D03*
X139700000Y-82550000D03*
X137160000Y-105410000D03*
X137160000Y-82550000D03*
X134620000Y-105410000D03*
X134620000Y-82550000D03*
D20*
X173355000Y-88900000D03*
D19*
X173355000Y-86360000D03*
D20*
X173355000Y-99060000D03*
D19*
X173355000Y-96520000D03*
D16*
X128016000Y-101600000D03*
D17*
X135636000Y-101600000D03*
D16*
X157988000Y-101600000D03*
D17*
X150368000Y-101600000D03*
D20*
X173355000Y-93980000D03*
D19*
X173355000Y-91440000D03*
D16*
X139192000Y-101600000D03*
D17*
X146812000Y-101600000D03*
D15*
X129794000Y-87376000D03*
X129794000Y-89916000D03*
X129794000Y-92456000D03*
D18*
X143764000Y-89916000D03*
D15*
X129540000Y-60325000D03*
X129540000Y-62230000D03*
X129540000Y-71755000D03*
X129540000Y-69850000D03*
X149860000Y-60325000D03*
X149860000Y-62230000D03*
X149860000Y-71755000D03*
X149860000Y-69850000D03*
M02*
