M48
;DRILL file {KiCad 5.0.1} date Fr 08 Feb 2019 17:29:31 CET
;FORMAT={-:-/ absolute / inch / decimal}
FMAT,2
INCH,TZ
T1C0.0157
T2C0.0300
T3C0.0354
T4C0.0394
T5C0.0400
T6C0.0472
T7C0.0520
%
G90
G05
M72
T1
X4.8067Y-1.975
X4.95Y-1.95
T3
X5.175Y-2.725
X5.275Y-2.725
X5.725Y-2.4
X6.025Y-2.4
X5.375Y-2.725
X5.475Y-2.725
X5.575Y-2.725
X5.675Y-2.725
T4
X5.1Y-1.825
X5.1Y-2.27
X5.9Y-1.825
X5.9Y-2.275
T5
X5.05Y-1.65
X5.05Y-2.55
X5.15Y-1.65
X5.15Y-2.55
X5.25Y-1.65
X5.25Y-2.55
X5.35Y-1.65
X5.35Y-2.55
X5.45Y-1.65
X5.45Y-2.55
X5.55Y-1.65
X5.55Y-2.55
X5.65Y-1.65
X5.65Y-2.55
X5.75Y-1.65
X5.75Y-2.55
T6
X4.805Y-2.725
X4.925Y-2.725
X5.045Y-2.725
T7
X6.35Y-2.1031
X6.35Y-2.3
X6.35Y-1.7031
X6.35Y-1.9
X6.35Y-2.5031
X6.35Y-2.7
T2
X5.8047Y-2.75G85X5.7953Y-2.75
G05
X5.9047Y-2.75G85X5.8953Y-2.75
G05
X6.0047Y-2.75G85X5.9953Y-2.75
G05
T0
M30
