M48
;DRILL file {KiCad 5.0.1} date Di 16 Apr 2019 11:18:16 CEST
;FORMAT={-:-/ absolute / inch / decimal}
FMAT,2
INCH,TZ
T1C0.0157
T2C0.0300
T3C0.0354
T4C0.0394
T5C0.0400
T6C0.0472
T7C0.0520
%
G90
G05
M72
T1
X4.8067Y-1.975
X4.8067Y-3.275
X4.8067Y-4.575
X4.95Y-1.95
X4.95Y-3.25
X4.95Y-4.55
X6.7567Y-1.975
X6.7567Y-3.275
X6.7567Y-4.575
X6.9Y-1.95
X6.9Y-3.25
X6.9Y-4.55
T3
X5.175Y-5.325
X5.275Y-5.325
X7.325Y-4.025
X7.425Y-4.025
X7.125Y-2.725
X7.225Y-2.725
X7.125Y-4.025
X7.225Y-4.025
X5.375Y-4.025
X5.475Y-4.025
X5.375Y-2.725
X5.475Y-2.725
X7.525Y-2.725
X7.625Y-2.725
X5.175Y-4.025
X5.275Y-4.025
X7.325Y-2.725
X7.425Y-2.725
X5.175Y-2.725
X5.275Y-2.725
X5.575Y-4.025
X5.675Y-4.025
X7.525Y-4.025
X7.625Y-4.025
X7.325Y-5.325
X7.425Y-5.325
X5.575Y-5.325
X5.675Y-5.325
X7.125Y-5.325
X7.225Y-5.325
X5.575Y-2.725
X5.675Y-2.725
X5.375Y-5.325
X5.475Y-5.325
X7.525Y-5.325
X7.625Y-5.325
T4
X5.0724Y-3.0829
X5.0724Y-3.5279
X5.8724Y-3.0829
X5.8724Y-3.5329
X7.0224Y-3.0829
X7.0224Y-3.5279
X7.8224Y-3.0829
X7.8224Y-3.5329
X7.0224Y-4.3829
X7.0224Y-4.8279
X7.8224Y-4.3829
X7.8224Y-4.8329
X5.0724Y-1.7829
X5.0724Y-2.2279
X5.8724Y-1.7829
X5.8724Y-2.2329
X7.0224Y-1.7829
X7.0224Y-2.2279
X7.8224Y-1.7829
X7.8224Y-2.2329
X5.0724Y-4.3829
X5.0724Y-4.8279
X5.8724Y-4.3829
X5.8724Y-4.8329
T5
X7.Y-2.95
X7.Y-3.85
X7.1Y-2.95
X7.1Y-3.85
X7.2Y-2.95
X7.2Y-3.85
X7.3Y-2.95
X7.3Y-3.85
X7.4Y-2.95
X7.4Y-3.85
X7.5Y-2.95
X7.5Y-3.85
X7.6Y-2.95
X7.6Y-3.85
X7.7Y-2.95
X7.7Y-3.85
X5.05Y-1.65
X5.05Y-2.55
X5.15Y-1.65
X5.15Y-2.55
X5.25Y-1.65
X5.25Y-2.55
X5.35Y-1.65
X5.35Y-2.55
X5.45Y-1.65
X5.45Y-2.55
X5.55Y-1.65
X5.55Y-2.55
X5.65Y-1.65
X5.65Y-2.55
X5.75Y-1.65
X5.75Y-2.55
X5.05Y-2.95
X5.05Y-3.85
X5.15Y-2.95
X5.15Y-3.85
X5.25Y-2.95
X5.25Y-3.85
X5.35Y-2.95
X5.35Y-3.85
X5.45Y-2.95
X5.45Y-3.85
X5.55Y-2.95
X5.55Y-3.85
X5.65Y-2.95
X5.65Y-3.85
X5.75Y-2.95
X5.75Y-3.85
X7.Y-1.65
X7.Y-2.55
X7.1Y-1.65
X7.1Y-2.55
X7.2Y-1.65
X7.2Y-2.55
X7.3Y-1.65
X7.3Y-2.55
X7.4Y-1.65
X7.4Y-2.55
X7.5Y-1.65
X7.5Y-2.55
X7.6Y-1.65
X7.6Y-2.55
X7.7Y-1.65
X7.7Y-2.55
X7.Y-4.25
X7.Y-5.15
X7.1Y-4.25
X7.1Y-5.15
X7.2Y-4.25
X7.2Y-5.15
X7.3Y-4.25
X7.3Y-5.15
X7.4Y-4.25
X7.4Y-5.15
X7.5Y-4.25
X7.5Y-5.15
X7.6Y-4.25
X7.6Y-5.15
X7.7Y-4.25
X7.7Y-5.15
X5.05Y-4.25
X5.05Y-5.15
X5.15Y-4.25
X5.15Y-5.15
X5.25Y-4.25
X5.25Y-5.15
X5.35Y-4.25
X5.35Y-5.15
X5.45Y-4.25
X5.45Y-5.15
X5.55Y-4.25
X5.55Y-5.15
X5.65Y-4.25
X5.65Y-5.15
X5.75Y-4.25
X5.75Y-5.15
T6
X6.755Y-5.325
X6.875Y-5.325
X6.995Y-5.325
X4.805Y-5.325
X4.925Y-5.325
X5.045Y-5.325
X6.755Y-4.025
X6.875Y-4.025
X6.995Y-4.025
X4.805Y-4.025
X4.925Y-4.025
X5.045Y-4.025
X6.755Y-2.725
X6.875Y-2.725
X6.995Y-2.725
X4.805Y-2.725
X4.925Y-2.725
X5.045Y-2.725
T7
X8.3Y-2.5031
X8.3Y-2.7
X6.35Y-4.3031
X6.35Y-4.5
X8.3Y-2.1031
X8.3Y-2.3
X8.3Y-4.7031
X8.3Y-4.9
X6.35Y-3.8031
X6.35Y-4.
X6.35Y-2.5031
X6.35Y-2.7
X6.35Y-5.1031
X6.35Y-5.3
X8.3Y-1.7031
X8.3Y-1.9
X6.35Y-1.7031
X6.35Y-1.9
X6.35Y-2.1031
X6.35Y-2.3
X6.35Y-4.7031
X6.35Y-4.9
X8.3Y-3.0031
X8.3Y-3.2
X8.3Y-3.4031
X8.3Y-3.6
X8.3Y-5.1031
X8.3Y-5.3
X8.3Y-4.3031
X8.3Y-4.5
X8.3Y-3.8031
X8.3Y-4.
X6.35Y-3.0031
X6.35Y-3.2
X6.35Y-3.4031
X6.35Y-3.6
T2
X5.8102Y-2.7559G85X5.8008Y-2.7559
G05
X5.9102Y-2.7559G85X5.9008Y-2.7559
G05
X6.0102Y-2.7559G85X6.0008Y-2.7559
G05
X7.7602Y-2.7559G85X7.7508Y-2.7559
G05
X7.8602Y-2.7559G85X7.8508Y-2.7559
G05
X7.9602Y-2.7559G85X7.9508Y-2.7559
G05
X5.8102Y-4.0559G85X5.8008Y-4.0559
G05
X5.9102Y-4.0559G85X5.9008Y-4.0559
G05
X6.0102Y-4.0559G85X6.0008Y-4.0559
G05
X7.7602Y-4.0559G85X7.7508Y-4.0559
G05
X7.8602Y-4.0559G85X7.8508Y-4.0559
G05
X7.9602Y-4.0559G85X7.9508Y-4.0559
G05
X5.8102Y-5.3559G85X5.8008Y-5.3559
G05
X5.9102Y-5.3559G85X5.9008Y-5.3559
G05
X6.0102Y-5.3559G85X6.0008Y-5.3559
G05
X7.7602Y-5.3559G85X7.7508Y-5.3559
G05
X7.8602Y-5.3559G85X7.8508Y-5.3559
G05
X7.9602Y-5.3559G85X7.9508Y-5.3559
G05
T0
M30
